<?xml version="1.0" encoding="utf-8"?>
<!-- Generator: Adobe Illustrator 27.5.0, SVG Export Plug-In . SVG Version: 6.00 Build 0)  -->
<svg version="1.1" xmlns="http://www.w3.org/2000/svg" xmlns:xlink="http://www.w3.org/1999/xlink" x="0px" y="0px"
	 viewBox="0 0 750 500" style="enable-background:new 0 0 750 500;" xml:space="preserve">
<g id="BACKGROUND">
	<rect style="opacity:0.28;fill:#AEDCFF;" width="750" height="500"/>
</g>
<g id="OBJECTS">
	<g>
		<g>
			<path style="opacity:0.79;fill:#FEFEFE;" d="M307.797,407.003c-6.364,0.345-12.754,0.516-19.168,0.482
				c-70.31-0.373-153.766-21.272-193.117-65.791c-34.403-38.92-51.505-90.885-42.098-137.035
				c8.843-43.382,45.824-80.236,101.063-96.596c62.121-18.399,134.133-4.515,194.709-28.248
				c88.168-34.544,204.875-17.835,274.143,34.275c61.414,46.201,82.918,125.152,71.213,187.954
				c-5.916,31.74-26.578,63.168-62.617,81.047c-28.674,14.225-64.575,18.767-99.086,17.471c-27.748-1.042-53.73-6.453-80.729-10.584
				c-21.642-3.311-38.804,0.045-60.178,4.579C364.423,400.391,336.366,405.454,307.797,407.003z"/>
			
				<ellipse transform="matrix(0.2326 -0.9726 0.9726 0.2326 432.7395 696.9169)" style="opacity:0.79;fill:#FEFEFE;" cx="658.005" cy="74.232" rx="28.891" ry="28.891"/>
			
				<ellipse transform="matrix(0.7968 -0.6043 0.6043 0.7968 -52.2182 69.3978)" style="opacity:0.79;fill:#FEFEFE;" cx="77.06" cy="112.328" rx="16.773" ry="16.773"/>
		</g>
		<g>
			<rect x="218.496" y="49.606" style="opacity:0.29;fill:#8EBEED;" width="316.374" height="212.499"/>
			<rect x="211.902" y="49.606" style="fill:#AEDCFF;" width="316.374" height="205.957"/>
			<rect x="219.754" y="60.554" style="opacity:0.38;fill:#FEFEFE;" width="188.8" height="187.411"/>
			<path style="fill:#091255;" d="M542.458,49.606H197.112c-2.332,0-4.223-1.891-4.223-4.223v-0.085
				c0-2.332,1.891-4.223,4.223-4.223h345.346c2.332,0,4.223,1.891,4.223,4.223v0.085C546.681,47.716,544.79,49.606,542.458,49.606z"
				/>
			<path style="opacity:0.56;fill:#AEDCFF;" d="M542.458,41.076H201.544v0.043c0,2.332,1.891,4.223,4.223,4.223h340.914v-0.043
				C546.681,42.966,544.79,41.076,542.458,41.076z"/>
			<rect x="416.787" y="60.554" style="fill:#FEFEFE;" width="102.88" height="123.832"/>
			<rect x="416.787" y="194.485" style="fill:#8EBEED;" width="102.88" height="53.48"/>
			<rect x="425.02" y="69.084" style="fill:#AEDCFF;" width="7.986" height="106.188"/>
			<rect x="438.598" y="92.593" style="opacity:0.49;fill:#AEDCFF;" width="7.986" height="82.68"/>
			<rect x="452.175" y="114.598" style="fill:#AEDCFF;" width="7.986" height="60.675"/>
			<rect x="465.753" y="122.178" style="opacity:0.49;fill:#AEDCFF;" width="7.986" height="53.094"/>
			<rect x="479.331" y="83.905" style="fill:#AEDCFF;" width="7.986" height="91.368"/>
			<rect x="492.908" y="129.589" style="fill:#F21111;" width="7.986" height="45.684"/>
			<rect x="506.486" y="69.084" style="opacity:0.49;fill:#AEDCFF;" width="7.986" height="106.188"/>
			<rect x="228.409" y="65.916" style="fill:#FEFEFE;" width="174.361" height="7.29"/>
			<polyline style="fill:none;stroke:#FEFEFE;stroke-width:0.9797;stroke-miterlimit:10;" points="429.013,240.006 450.88,218.84 
				468.227,232.009 484.997,201.585 504.986,238.615 			"/>
			
				<line style="opacity:0.47;fill:none;stroke:#091255;stroke-width:0.9797;stroke-miterlimit:10;" x1="420.964" y1="243.486" x2="507.722" y2="243.486"/>
			<rect x="234.618" y="83.905" style="fill:#AEDCFF;" width="163.743" height="3.675"/>
			<rect x="234.618" y="97.198" style="fill:#AEDCFF;" width="163.743" height="3.675"/>
			<rect x="234.618" y="110.49" style="fill:#AEDCFF;" width="163.743" height="3.675"/>
			<rect x="234.618" y="123.783" style="fill:#AEDCFF;" width="163.743" height="3.675"/>
			<rect x="234.618" y="137.076" style="fill:#AEDCFF;" width="163.743" height="3.675"/>
			<rect x="234.618" y="150.369" style="fill:#AEDCFF;" width="163.743" height="3.675"/>
			<path style="fill:#8EBEED;" d="M276.735,203.704v-32.959c-18.203,0-32.959,14.757-32.959,32.959s14.756,32.959,32.959,32.959
				c18.203,0,32.96-14.756,32.96-32.959c0-6.792-2.056-13.103-5.578-18.348L276.735,203.704z"/>
			<polyline style="fill:none;stroke:#8EBEED;stroke-width:0.9797;stroke-miterlimit:10;" points="219.754,60.554 219.754,247.965 
				408.553,247.965 			"/>
		</g>
		<g>
			<path style="opacity:0.37;fill:#7396C0;" d="M453.085,162.456l4.582-6.413c0.526-0.736,0.668-1.618,0.479-2.424
				c-0.141-0.604-0.469-1.165-0.96-1.587c-0.164-0.141-0.346-0.266-0.545-0.373l-0.053-0.028c-0.635-0.34-1.347-0.429-2.012-0.293
				c-0.665,0.136-1.285,0.497-1.736,1.058l-18.197,22.64l0,0l-9.146,11.379l-14.686,18.272l-9.127-23.959
				c-2.236-5.868-6.588-10.687-12.199-13.507l-0.088-0.044l-14.736-7.214l-9.622-4.71v-8.472c0.166-0.196,0.307-0.411,0.462-0.615
				c0.07-0.092,0.14-0.183,0.207-0.276c0.596-0.822,1.104-1.7,1.522-2.626c0.049-0.107,0.093-0.217,0.139-0.326
				c0.212-0.502,0.398-1.013,0.558-1.537c0.046-0.152,0.093-0.304,0.135-0.458c0.177-0.654,0.319-1.319,0.412-1.995
				c0.099-0.019,0.19-0.055,0.285-0.082c0.109-0.031,0.22-0.059,0.325-0.101c0.095-0.038,0.184-0.088,0.275-0.134
				c0.097-0.049,0.193-0.097,0.285-0.155c0.084-0.053,0.162-0.113,0.241-0.174c0.088-0.067,0.174-0.135,0.255-0.21
				c0.07-0.065,0.137-0.133,0.201-0.204c0.078-0.085,0.151-0.174,0.22-0.267c0.055-0.073,0.107-0.146,0.156-0.223
				c0.066-0.105,0.122-0.214,0.177-0.326c0.037-0.077,0.077-0.151,0.109-0.231c0.052-0.13,0.09-0.266,0.125-0.403
				c0.018-0.07,0.043-0.136,0.057-0.208c0.041-0.212,0.066-0.431,0.066-0.655c0-0.002-0.001-0.004-0.001-0.006
				c0-0.248-0.03-0.488-0.08-0.721c-0.009-0.041-0.026-0.078-0.037-0.118c-0.05-0.197-0.112-0.388-0.195-0.57
				c-0.009-0.019-0.021-0.036-0.03-0.055c-0.096-0.201-0.209-0.39-0.341-0.568l-0.001-0.002c-0.141-0.191-0.302-0.363-0.479-0.521
				l0,0v-12.194c0-1.429-0.706-2.687-1.781-3.466c-0.141-0.102-0.291-0.188-0.444-0.272c-0.373-0.207-0.77-0.377-1.201-0.465
				c-0.279-0.057-0.569-0.087-0.865-0.087h-5.209c-2.084,0-3.638,0.837-4.797,1.941h-2.218c-2.828,0-5.12,2.292-5.12,5.12v9.443
				c-0.695,0.629-1.139,1.529-1.139,2.541c0,1.672,1.194,3.063,2.776,3.372c0.395,2.874,1.552,5.591,3.396,7.782v6.711v1.765
				l-0.206-0.279l-10.29,5.037l-14.736,7.214l-0.134,0.079c-8.211,4.855-13.248,13.684-13.248,23.223v38.574v20.276v5.217h74.526
				v-40.144l11.497,16.1c2.679,3.752,7.324,5.001,11.302,3.694c0.723-0.238,1.424-0.56,2.088-0.967
				c0.663-0.407,1.289-0.899,1.861-1.476c0.286-0.288,0.558-0.598,0.815-0.929L440.12,201l6.561-8.45l2.349-3.025l1.62-2.087
				l7.055-9.086c0.647-0.833,1.12-1.75,1.436-2.704c0.044-0.132,0.085-0.265,0.122-0.399c0.126-0.449,0.223-0.905,0.278-1.365
				c0.031-0.264,0.051-0.529,0.059-0.793c0.073-2.384-0.794-4.781-2.569-6.597L453.085,162.456z M359.009,162.208l-1.105-1.004
				l-0.037-0.05l1.155,1.036L359.009,162.208z"/>
			<g>
				<ellipse style="fill:#8EBEED;" cx="369.155" cy="429.605" rx="68.741" ry="5.402"/>
				<g>
					<g>
						<polygon style="fill:#2B3675;" points="398.932,263.665 398.932,421.395 371.713,421.395 371.713,301.435 368.815,301.435 
							368.815,263.665 						"/>
						<path style="fill:#091255;" d="M371.713,421.395v5.615h31.813c0,0,0-5.005-4.594-5.615
							C384.129,421.395,371.713,421.395,371.713,421.395z"/>
						
							<line style="fill:none;stroke:#091255;stroke-width:1.0058;stroke-miterlimit:10;" x1="392.806" y1="263.665" x2="392.806" y2="421.395"/>
						<polygon style="fill:#2B3675;" points="337.787,263.665 337.787,421.4 365.83,421.4 365.83,301.437 368.815,301.437 
							368.815,263.665 						"/>
						<path style="fill:#091255;" d="M365.84,421.4v5.61h-32.66c0,0,0-5,4.716-5.61C353.094,421.4,365.84,421.4,365.84,421.4z"/>
						
							<line style="fill:none;stroke:#091255;stroke-width:1.0058;stroke-miterlimit:10;" x1="344.185" y1="263.82" x2="344.185" y2="421.4"/>
						<rect x="365.84" y="263.82" style="fill:#091255;" width="6.42" height="37.734"/>
						<polygon style="fill:#091255;" points="398.932,263.665 337.787,263.665 337.787,271.968 						"/>
					</g>
					<g>
						<polygon style="fill:#091255;" points="373.906,154.683 398.932,166.934 398.932,263.665 368.359,263.665 368.359,162.213 
													"/>
						<polygon style="fill:#091255;" points="362.813,154.683 337.787,166.934 337.787,263.665 368.359,263.665 368.359,162.213 
													"/>
						<path style="fill:#7396C0;" d="M368.359,162.213v48.675c15.638-12.791,16.426-38.874,15.836-51.167l-10.29-5.037
							L368.359,162.213z"/>
						<path style="fill:#2B3675;" d="M368.359,162.213v48.675c-15.638-12.791-16.426-38.874-15.836-51.167l10.29-5.037
							L368.359,162.213z"/>
						<path style="fill:#FFF6E7;" d="M374.573,156.98l-5.758,5.232l-5.758-5.232c0,0-0.878,23.353,5.758,40.709
							C375.451,180.333,374.573,156.98,374.573,156.98z"/>
						<path style="fill:#F21111;" d="M372.261,162.213h-3.446h-3.446l2.297,6.251l-1.769,19.36c0.759,3.369,1.713,6.715,2.917,9.864
							c1.204-3.149,2.158-6.496,2.917-9.864l-1.769-19.36L372.261,162.213z"/>
						<path style="fill:#2B3675;" d="M398.932,166.934l0.088,0.044c5.611,2.82,9.963,7.638,12.199,13.507l9.127,23.959
							l42.028-52.291c0.903-1.123,2.477-1.445,3.748-0.765l0.052,0.028c1.594,0.852,2.076,2.912,1.025,4.383l-4.582,6.413
							l3.946,4.039c3.155,3.23,3.443,8.292,0.674,11.858l-40.744,52.472c-4.113,5.297-12.168,5.135-16.065-0.322l-11.497-16.1
							V166.934z"/>
						
							<line style="fill:none;stroke:#091255;stroke-width:1.0209;stroke-miterlimit:10;" x1="420.346" y1="204.444" x2="414.57" y2="210.887"/>
						<polygon style="fill:#8EBEED;" points="449.653,200.757 460.183,187.196 444.177,174.794 435.032,186.173 						"/>
						<path style="fill:#FF9588;" d="M467.238,178.11c2.769-3.566,2.481-8.629-0.674-11.858l-3.946-4.039l4.581-6.413
							c1.051-1.471,0.569-3.531-1.025-4.383l-0.052-0.028c-1.271-0.679-2.845-0.358-3.748,0.765l-20.897,26l14.737,14.154
							L467.238,178.11z"/>
						<path style="fill:#091255;" d="M426.711,230.303c-2.303-2.495-5.59-4.067-9.253-4.067c-2.995,0-5.743,1.049-7.906,2.795
							l0.877,1.228c3.897,5.458,11.952,5.619,16.065,0.322L426.711,230.303z"/>
						<g>
							<path style="fill:#2B3675;" d="M337.787,166.934l-0.134,0.079c-8.211,4.855-13.248,13.684-13.248,23.223v103.546h13.381
								V166.934z"/>
							<path style="fill:#FF9588;" d="M324.406,293.782c0,0-0.14,20.305,13.381,20.305c0-20.305,0-20.305,0-20.305H324.406z"/>
							<path style="fill:#091255;" d="M324.406,249.085c4.376-1.296,7.571-5.341,7.571-10.138c0-4.796-3.195-8.842-7.571-10.138
								V249.085z"/>
						</g>
						<rect x="340.366" y="238.947" style="fill:#7396C0;" width="19.091" height="5.471"/>
						<path style="fill:#7396C0;" d="M365.37,219.924c0,1.379-1.118,2.497-2.497,2.497c-1.379,0-2.497-1.118-2.497-2.497
							c0-1.379,1.118-2.497,2.497-2.497C364.252,217.427,365.37,218.545,365.37,219.924z"/>
						<path style="fill:#AEDCFF;" d="M374.573,156.98l-5.758,5.232l5.527,6.251C374.748,161.7,374.573,156.98,374.573,156.98z"/>
						<path style="fill:#AEDCFF;" d="M363.057,156.98l5.758,5.232l-5.527,6.251C362.882,161.7,363.057,156.98,363.057,156.98z"/>
						
							<line style="fill:none;stroke:#D24A32;stroke-width:1.0209;stroke-miterlimit:10;" x1="462.618" y1="162.213" x2="457.316" y2="168.464"/>
						<path style="fill:none;stroke:#D24A32;stroke-width:1.0209;stroke-miterlimit:10;" d="M451.777,165.339l9.473,6.283
							c1.552,1.029,2.059,3.075,1.167,4.71l-0.035,0.065c-1.031,1.89-3.483,2.453-5.235,1.203l-3.933-2.806
							c0,0,1.844,6.059-1.436,10.775"/>
						
							<line style="fill:none;stroke:#D24A32;stroke-width:1.0209;stroke-miterlimit:10;" x1="466.564" y1="166.252" x2="462.618" y2="173.339"/>
						
							<line style="fill:none;stroke:#7396C0;stroke-width:1.0209;stroke-miterlimit:10;" x1="368.359" y1="210.887" x2="368.359" y2="263.665"/>
						<path style="opacity:0.36;fill:#FFFFFF;" d="M420.346,204.444l-9.127-23.959c-2.236-5.868-6.588-10.687-12.199-13.507
							l-0.088-0.044l-25.026-12.251l-1.294,1.757l0.78,1.621l21.743,14.245c2.553,1.672,4.64,3.955,6.07,6.651
							c2.537,4.785,6.526,12.746,8.348,18.732c2.783,9.143,5.018,13.199,5.018,13.199L420.346,204.444z"/>
					</g>
					<g>
						<path style="fill:#841111;" d="M365.708,118.229h-2.603c-2.828,0-5.12,2.292-5.12,5.12v11.164h7.107L365.708,118.229z"/>
						<path style="fill:#F21111;" d="M362.316,123.654c0,0,1.6-7.367,7.805-7.367h5.209c2.37,0,4.291,1.921,4.291,4.291v15.679
							h-13.378L362.316,123.654z"/>
						<polygon style="fill:#FF9588;" points="374.573,156.98 368.852,162.213 363.019,156.98 363.019,143.836 374.573,143.836 
													"/>
						<path style="fill:#6D3E3B;" d="M363.019,143.836v9.361c8.81-0.021,11.554-6.658,11.554-6.658l-8.209-2.704H363.019z"/>
						<circle style="fill:#FF9588;" cx="377.345" cy="135.332" r="3.439"/>
						<circle style="fill:#FF9588;" cx="360.285" cy="135.332" r="3.439"/>
						<path style="fill:#FF9588;" d="M371.191,122.298h-2.376h-2.376c-3.856,0-6.982,3.126-6.982,6.982v7.238
							c0,4.931,2.263,9.684,6.32,12.487c1.052,0.727,2.104,1.212,3.038,1.212s1.986-0.485,3.038-1.212
							c4.057-2.803,6.32-7.556,6.32-12.487v-7.238C378.173,125.424,375.047,122.298,371.191,122.298z"/>
						<path style="fill:none;stroke:#841111;stroke-width:1.0209;stroke-linecap:round;stroke-miterlimit:10;" d="M371.353,134.728
							c0,0,1.858-1.29,4.077,0"/>
						<path style="fill:none;stroke:#841111;stroke-width:1.5314;stroke-linecap:round;stroke-miterlimit:10;" d="M370.968,129.67
							c0,0,2.294-1.652,5.03,0"/>
						<path style="fill:none;stroke:#841111;stroke-width:1.0209;stroke-linecap:round;stroke-miterlimit:10;" d="M366.277,134.728
							c0,0-1.858-1.29-4.077,0"/>
						<path style="fill:none;stroke:#841111;stroke-width:1.5314;stroke-linecap:round;stroke-miterlimit:10;" d="M366.662,129.67
							c0,0-2.294-1.652-5.03,0"/>
						<path style="fill:#6D3E3B;" d="M370.475,139.115c0,0-1.497,0.619-3.045,0c0-5.006,0-5.006,0-5.006l-1.187,5.935
							C366.243,140.044,369.495,141.334,370.475,139.115z"/>
						<path style="opacity:0.5;fill:#FFFFFF;" d="M373.906,122.845c1.299,5.037,2.437,15.777,0.579,23.767
							c0.198,0.106-0.195-0.101,0,0c1.905-2.214,3.119-4.975,3.522-7.908c1.582-0.309,2.776-1.7,2.776-3.372
							c0-1.023-0.455-1.931-1.163-2.561v-12.193c0-2.37-1.921-4.291-4.291-4.291C375.33,116.287,376.474,119.401,373.906,122.845z"
							/>
					</g>
				</g>
			</g>
		</g>
		<g>
			<ellipse style="fill:#8EBEED;" cx="369.548" cy="453.254" rx="282.152" ry="8.978"/>
			<g>
				<g>
					<rect x="616.816" y="289.424" style="fill:#F21111;" width="20.391" height="24.408"/>
					<rect x="631.223" y="289.424" style="fill:#841111;" width="5.984" height="24.408"/>
					<path style="fill:none;stroke:#F21111;stroke-width:2.9392;stroke-miterlimit:10;" d="M621.471,296.517h-6.257
						c-2.787,0-5.047,2.259-5.047,5.047v0.102c0,2.787,2.26,5.047,5.047,5.047h6.257"/>
				</g>
				<path style="fill:#7396C0;" d="M630.425,284.538c0,0-8.846-6.01-3.164-14.745s4.261-11.771,2.273-14.23
					c4.829,5.495,3.771,11.756,0.891,15.728C627.545,275.262,627.089,280.667,630.425,284.538z"/>
			</g>
			<g>
				<rect x="94.15" y="313.832" style="fill:#7396C0;" width="551.671" height="11.713"/>
				<rect x="119.448" y="325.546" style="fill:#7396C0;" width="12.441" height="129.081"/>
				<rect x="119.448" y="325.546" style="fill:#2B3675;" width="12.441" height="16.987"/>
				<g>
					<rect x="609.598" y="325.546" style="fill:#7396C0;" width="12.441" height="129.081"/>
					<rect x="609.598" y="325.546" style="fill:#2B3675;" width="12.441" height="16.987"/>
				</g>
			</g>
			<g>
				<g>
					<path style="fill:none;stroke:#AEDCFF;stroke-width:2.3894;stroke-miterlimit:10;" d="M122.583,308.792
						c0,0-18.396-21.008,15.448-108.912"/>
					<g>
						<path style="fill:#AEDCFF;" d="M126.342,200.446c7.966,9.007,5.375,18.342,5.375,18.342s-8.445-4.748-9.211-16.747
							C122.372,199.936,124.946,198.866,126.342,200.446z"/>
						<path style="fill:#AEDCFF;" d="M147.854,208.543c-11.928,1.518-16.136,10.244-16.136,10.244s9.479,2,17.969-6.516
							C151.174,210.779,149.945,208.277,147.854,208.543z"/>
					</g>
					<g>
						<path style="fill:#AEDCFF;" d="M117.753,222.883c8.831,8.161,7.191,17.709,7.191,17.709s-8.879-3.875-10.848-15.737
							C113.751,222.775,116.204,221.452,117.753,222.883z"/>
						<path style="fill:#AEDCFF;" d="M139.969,228.778c-11.715,2.709-15.025,11.814-15.025,11.814s9.632,1.037,17.223-8.289
							C143.497,230.669,142.023,228.303,139.969,228.778z"/>
					</g>
					<g>
						<path style="fill:#AEDCFF;" d="M111.694,242.721c9.41,7.485,8.482,17.128,8.482,17.128s-9.142-3.207-11.982-14.891
							C107.695,242.91,110.044,241.409,111.694,242.721z"/>
						<path style="fill:#AEDCFF;" d="M134.285,246.956c-11.483,3.569-14.11,12.893-14.11,12.893s9.683,0.321,16.562-9.54
							C137.944,248.58,136.298,246.33,134.285,246.956z"/>
					</g>
					<path style="fill:#AEDCFF;" d="M147.23,184.82c-1.108,11.973-9.685,16.478-9.685,16.478s-2.324-9.405,5.896-18.181
						C144.882,181.578,147.424,182.721,147.23,184.82z"/>
				</g>
				<path style="fill:#8EBEED;" d="M113.932,293.782c0,0-32.583-30.95-23.314-36.177c9.268-5.227,15.225,9.447,14.604-9.64
					c-0.621-19.087-15.189-55.338,2.219-54.848S136.327,264.63,113.932,293.782z"/>
				<g>
					<path style="fill:none;stroke:#AEDCFF;stroke-width:1.9595;stroke-miterlimit:10;" d="M107.445,307.828
						c0,0,13.274-18.66-21.6-87.586"/>
					<g>
						<path style="fill:#AEDCFF;" d="M95.429,219.738c-5.756,8.007-2.87,15.409-2.87,15.409s6.498-4.571,6.132-14.425
							C98.626,218.995,96.438,218.334,95.429,219.738z"/>
						<path style="fill:#AEDCFF;" d="M78.547,228.122c9.857,0.253,14.012,7.025,14.012,7.025s-7.569,2.415-15.199-3.832
							C76.022,230.22,76.818,228.077,78.547,228.122z"/>
					</g>
					<g>
						<path style="fill:#AEDCFF;" d="M104.291,237.335c-6.531,7.388-4.405,15.043-4.405,15.043s6.924-3.895,7.551-13.736
							C107.547,236.917,105.436,236.04,104.291,237.335z"/>
						<path style="fill:#AEDCFF;" d="M86.651,243.98c9.782,1.243,13.235,8.398,13.235,8.398s-7.773,1.642-14.737-5.34
							C83.929,245.814,84.936,243.762,86.651,243.98z"/>
					</g>
					<g>
						<path style="fill:#AEDCFF;" d="M110.873,253.021c-7.06,6.884-5.506,14.676-5.506,14.676s7.194-3.372,8.546-13.139
							C114.15,252.844,112.11,251.814,110.873,253.021z"/>
						<path style="fill:#AEDCFF;" d="M92.79,258.342c9.663,1.963,12.577,9.354,12.577,9.354s-7.873,1.062-14.301-6.416
							C89.939,259.969,91.096,257.998,92.79,258.342z"/>
					</g>
					<path style="fill:#AEDCFF;" d="M77.097,208.715c1.893,9.677,9.263,12.645,9.263,12.645s1.119-7.865-6.312-14.347
						C78.745,205.876,76.765,207.018,77.097,208.715z"/>
				</g>
				<path style="fill:#F21111;" d="M105.059,313.832h17.964c5.074-4.596,8.561-12.967,8.867-22.639H96.192
					C96.498,300.865,99.984,309.236,105.059,313.832z"/>
				<path style="fill:#841111;" d="M104.491,291.193h-8.299c0.306,9.672,3.793,18.043,8.867,22.639h8.299
					C108.284,309.236,104.797,300.865,104.491,291.193z"/>
				<path style="fill:none;stroke:#FEFEFE;stroke-width:0.9797;stroke-miterlimit:10;" d="M107.441,193.117
					c0,0,16.693,60.946,6.6,96.687"/>
			</g>
			<g>
				<g>
					<g>
						<path style="fill:#AEDCFF;" d="M484.113,265.927h-61.12c-1.474,0-2.455,1.523-1.845,2.865l17.699,38.926h66.296
							l-18.162-39.944C486.47,266.649,485.348,265.927,484.113,265.927z"/>
						<path style="fill:#FEFEFE;" d="M481.478,267.999h-52.511c-0.967,0-1.612,0.997-1.216,1.879l13.847,30.868
							c0.509,1.135,1.637,1.865,2.88,1.865h52.511c0.967,0,1.612-0.997,1.216-1.879l-13.847-30.868
							C483.85,268.729,482.722,267.999,481.478,267.999z"/>
						<rect x="438.847" y="307.718" style="fill:#091255;" width="84.596" height="6.115"/>
						<path style="fill:#091255;" d="M421.074,268.629l17.773,39.088h3.743l-19.746-41.791h-0.03
							C421.424,265.927,420.499,267.364,421.074,268.629z"/>
						<polygon style="fill:#7396C0;" points="480.516,270.348 432.181,270.348 440.982,289.804 489.423,289.804 						"/>
						<rect x="448.529" y="309.413" style="fill:#AEDCFF;" width="9.019" height="2.533"/>
					</g>
					
						<line style="fill:none;stroke:#FEFEFE;stroke-width:1.0332;stroke-linecap:round;stroke-miterlimit:10;" x1="477.605" y1="273.891" x2="437.201" y2="273.891"/>
					
						<line style="fill:none;stroke:#FEFEFE;stroke-width:1.0332;stroke-linecap:round;stroke-miterlimit:10;" x1="479.637" y1="277.44" x2="439.232" y2="277.44"/>
					
						<line style="fill:none;stroke:#FEFEFE;stroke-width:1.0332;stroke-linecap:round;stroke-miterlimit:10;" x1="481.561" y1="280.989" x2="441.156" y2="280.989"/>
					
						<line style="fill:none;stroke:#FEFEFE;stroke-width:1.0332;stroke-linecap:round;stroke-miterlimit:10;" x1="483.586" y1="284.538" x2="443.181" y2="284.538"/>
				</g>
				<g>
					<path style="fill:#2B3675;" d="M528.296,323.913v9.308H499.36c-14.768,0-26.739,11.972-26.739,26.739v80.543h35.101v-73.971
						h31.774c21.952,0,39.748-17.796,39.748-39.748v-2.871H528.296z"/>
					<path style="fill:#091255;" d="M507.722,440.502v9.316h-42.243c0,0-0.036-9.316,7.142-9.316
						C479.799,440.502,507.722,440.502,507.722,440.502z"/>
					<path style="fill:#091255;" d="M556.89,440.502v9.316h-42.243c0,0-0.036-9.316,7.142-9.316S556.89,440.502,556.89,440.502z"/>
					<rect x="521.79" y="350.142" style="fill:#2B3675;" width="35.101" height="90.36"/>
				</g>
				<g>
					<path style="fill:#FF9588;" d="M558.042,211.737l0.96,11.905h-16.129l0.96-5.952c0,0-5.568,1.536-8.065,0.192
						c6.144-9.217,9.409-12.097,9.409-12.097L558.042,211.737z"/>
					<path style="fill:#FF9588;" d="M543.641,188.794c0,0-3.456,1.516-5.568,8.197c-2.112,6.681-2.304,9.562-2.304,9.562
						l3.936,4.032l4.704-5.924l2.496-12.466L543.641,188.794z"/>
					<path style="fill:#6D3E3B;" d="M547.482,214.218c1.344-2.866-2.304-6.887-2.304-6.887l-2.728,1.439
						c-1.574,1.892-3.808,4.802-6.681,9.111c2.496,1.344,8.065-0.192,8.065-0.192S546.138,217.084,547.482,214.218z"/>
					<path style="fill:#F21111;" d="M541.529,188.794l2.88,8.831c0,0-0.576,8.95-4.416,9.707c-3.84,0.757-4.224-0.779-4.224-0.779
						v11.329c0,0,5.76,2.467,7.68-3.663c1.92-6.13,1.728-6.887,1.728-6.887l2.304,6.887c0,0,5.568,2.29,10.561,0
						c4.992-2.29,5.184-15.502,6.144-20.225c0.96-4.723-7.68-8.246-12.481-9.077C546.906,184.087,541.337,183.515,541.529,188.794z"
						/>
					<path style="fill:#FF9588;" d="M546.714,199.832l-1.536,7.499c0,0,3.53,1.91,4.837-1.547
						C551.322,202.328,546.714,199.832,546.714,199.832z"/>
					<path style="fill:none;stroke:#2B3675;stroke-width:0.882;stroke-linecap:round;stroke-miterlimit:10;" d="M538.073,196.991
						c0,0,1.228,0.745,1.273,1.897"/>
					<path style="fill:#841111;" d="M559.227,213.391c3.844-3.681,4.082-15.081,4.96-19.397c0.96-4.723-7.68-8.246-12.481-9.077
						c-1.99-0.344-4.106-0.637-5.895-0.494c0.714,2.139,2.235,5.041,5.509,7.771C557.039,196.962,559.849,207.787,559.227,213.391z"
						/>
				</g>
				<g>
					<path style="fill:#FFE8C0;" d="M587.571,235.549l6.348,75.232c0.538,6.375-4.491,11.846-10.889,11.846h-10.646L587.571,235.549
						z"/>
					<path style="fill:#E5CFAE;" d="M538.073,226.948c0,0,3.364-7.584,11.942-7.984c8.578-0.401,12.083,0.303,12.083,0.303
						l2.163,6.18L538.073,226.948z"/>
					<polygon style="fill:#FFF6E7;" points="564.261,225.446 587.571,235.549 579.243,332.736 528.296,332.736 518.009,235.474 
						538.073,226.948 					"/>
					<path style="fill:#FFE8C0;" d="M516.804,234.668l-17.195,64.168H482.64c-8.34,0-15.862,5.014-19.07,12.712l-1.115,2.676h45.612
						c5.145,0,9.64-3.477,10.933-8.457L533.01,251.8C533.01,251.8,534.685,232.189,516.804,234.668z"/>
					<path style="fill:#E5CFAE;" d="M530.243,314.224c0,0-5.488-33.086-4.311-48.298c1.178-15.212,12.726-25.156,29.104-24.435
						c16.378,0.721,30.541,4.198,31.067,11.186c0.526,6.988-23.64,26.937-23.64,26.937L530.243,314.224z"/>
					<path style="fill:#FF9588;" d="M487.498,298.837h-4.858c-8.34,0-15.862,5.014-19.07,12.712l-1.115,2.676h25.043V298.837z"/>
					<path style="fill:#E5CFAE;" d="M514.409,301.597c-5.204,0-9.423,4.219-9.423,9.423c0,1.127,0.208,2.203,0.571,3.204h2.51
						c5.145,0,9.64-3.477,10.933-8.457l0.667-2.568C518.165,302.188,516.356,301.597,514.409,301.597z"/>
					<polygon style="opacity:0.41;fill:#FEFEFE;" points="524.034,235.025 546.01,226.263 538.073,226.948 516.804,234.668 
						499.609,298.837 504.986,298.837 					"/>
				</g>
				<g>
					<polygon style="fill:#091255;" points="484.997,372.499 484.997,373.299 484.997,389.619 484.997,449.819 545.773,449.819 
						545.773,373.299 551.543,373.299 551.543,449.819 551.543,454.626 545.773,454.626 484.997,454.626 479.227,454.626 
						479.227,449.819 479.227,389.619 479.227,373.299 479.227,372.499 					"/>
					<g>
						<rect x="566.055" y="373.299" style="fill:#7396C0;" width="5.77" height="81.328"/>
						<rect x="499.509" y="373.299" style="fill:#7396C0;" width="5.77" height="81.328"/>
						<rect x="499.509" y="449.819" style="fill:#7396C0;" width="72.316" height="4.808"/>
					</g>
					<rect x="566.055" y="372.499" style="fill:#091255;" width="5.77" height="17.12"/>
					<rect x="499.509" y="372.499" style="fill:#091255;" width="5.77" height="17.12"/>
					<path style="fill:#091255;" d="M576.67,249.735h-26.976c-10.308,0-18.701,8.26-18.887,18.567
						c-0.513,28.504-3.496,80.416-18.273,86.579c-10.376,3.976-33.89,1.461-33.89,21.66h87.992c0,0,28.924-3.641,28.924-43.321
						v-64.595C595.56,258.192,587.103,249.735,576.67,249.735z"/>
					<path style="opacity:0.43;fill:none;stroke:#8EBEED;stroke-width:0.9797;stroke-miterlimit:10;" d="M537.102,254.546
						c0,0,0.154,87.867-16.415,100.335c-16.569,12.467-35.69,4.073-35.69,21.66"/>
				</g>
			</g>
			<g>
				<g>
					<g>
						<path style="fill:#AEDCFF;" d="M246.128,265.927h61.12c1.474,0,2.454,1.523,1.845,2.865l-17.699,38.926h-66.296l18.162-39.944
							C243.771,266.649,244.893,265.927,246.128,265.927z"/>
						<path style="fill:#FEFEFE;" d="M248.763,267.999h52.511c0.967,0,1.612,0.997,1.216,1.879l-13.847,30.868
							c-0.509,1.135-1.637,1.865-2.88,1.865h-52.511c-0.967,0-1.612-0.997-1.216-1.879l13.847-30.868
							C246.391,268.729,247.519,267.999,248.763,267.999z"/>
						<rect x="206.798" y="307.718" style="fill:#091255;" width="84.596" height="6.115"/>
						<path style="fill:#091255;" d="M309.167,268.629l-17.773,39.088h-3.743l19.746-41.791h0.03
							C308.817,265.927,309.742,267.364,309.167,268.629z"/>
						<polygon style="fill:#7396C0;" points="249.725,270.348 298.06,270.348 289.259,289.804 240.818,289.804 						"/>
						<rect x="272.693" y="309.413" style="fill:#AEDCFF;" width="9.019" height="2.533"/>
					</g>
					
						<line style="fill:none;stroke:#FEFEFE;stroke-width:1.0332;stroke-linecap:round;stroke-miterlimit:10;" x1="252.635" y1="273.891" x2="293.04" y2="273.891"/>
					
						<line style="fill:none;stroke:#FEFEFE;stroke-width:1.0332;stroke-linecap:round;stroke-miterlimit:10;" x1="250.604" y1="277.44" x2="291.009" y2="277.44"/>
					
						<line style="fill:none;stroke:#FEFEFE;stroke-width:1.0332;stroke-linecap:round;stroke-miterlimit:10;" x1="248.68" y1="280.989" x2="289.085" y2="280.989"/>
					
						<line style="fill:none;stroke:#FEFEFE;stroke-width:1.0332;stroke-linecap:round;stroke-miterlimit:10;" x1="246.655" y1="284.538" x2="287.06" y2="284.538"/>
				</g>
				<g>
					<path style="fill:#FF9588;" d="M210.807,202.201c0,0,2.005,20.685,0,26.881c-8.019-0.82-8.019-0.82-8.019-0.82v9.275h-12.362
						v-11.28c0,0-7.016-9.849-7.016-16.117c0-6.268,4.9-16.292,14.144-15.623C206.798,195.185,210.807,202.201,210.807,202.201z"/>
					<path style="fill:#2B3675;" d="M210.807,202.201c0,0-4.009-7.016-13.253-7.685c-9.244-0.668-14.144,9.355-14.144,15.623
						c0,6.268,7.016,16.117,7.016,16.117l1.198,0.225c3.86,0.724,7.8-0.91,9.955-4.193c1.712-2.607,3.421-5.809,3.882-8.728
						C206.464,207.213,210.807,202.201,210.807,202.201z"/>
					<path style="fill:#091255;" d="M201.537,195.269c-1.205-0.37-2.521-0.647-3.983-0.753c-9.244-0.668-14.144,9.355-14.144,15.623
						c0,2.549,1.161,5.691,2.538,8.521C198.236,215.241,200.966,202.117,201.537,195.269z"/>
					<path style="fill:#D24A32;" d="M207.466,218.823c0,1.292-1.047,2.339-2.339,2.339l0,0c-1.292,0-2.339-1.047-2.339-2.339v-5.445
						c0-1.292,1.047-2.339,2.339-2.339l0,0c1.292,0,2.339,1.047,2.339,2.339V218.823z"/>
					<path style="fill:#F21111;" d="M193.697,198.261c0,2.841-2.303,5.144-5.144,5.144s-5.144-2.303-5.144-5.144
						s2.303-5.144,5.144-5.144S193.697,195.42,193.697,198.261z"/>
					<path style="fill:#2B3675;" d="M185.344,199.671c0,0-8.573,4.899-6.368,27.923c-9.553-14.941-11.022-35.761-1.715-39.68
						C186.568,183.995,188.079,196.689,185.344,199.671z"/>
					<path style="fill:#D24A32;" d="M210.807,229.082c0,0-8.019-4.702-8.019-0.82C210.807,229.082,210.807,229.082,210.807,229.082z
						"/>
					<path style="fill:#F21111;" d="M208.911,221.332c0,1.045-0.847,1.892-1.892,1.892s-1.892-0.847-1.892-1.892
						c0-1.045,0.847-1.892,1.892-1.892S208.911,220.287,208.911,221.332z"/>
					<path style="fill:#091255;" d="M181.207,187.214c-1.119-0.131-2.427,0.06-3.946,0.7c-5.175,2.179-7.014,9.585-5.989,18.298
						C176.964,202.755,179.935,192.87,181.207,187.214z"/>
				</g>
				<g>
					<path style="fill:#FF9588;" d="M232.535,363.429v77.073c0,0,6.858,4.245,6.858,10.124c-34.291,0-34.291,0-34.291,0v-87.197
						C205.102,363.429,228.289,360.163,232.535,363.429z"/>
					<path style="fill:#091255;" d="M239.393,450.626c0-5.879-6.858-10.124-6.858-10.124h-27.433v10.124
						C205.102,450.626,205.102,450.626,239.393,450.626z"/>
					<path style="fill:#FF9588;" d="M273.031,363.429v77.073c0,0,6.858,4.245,6.858,10.124c-34.291,0-34.291,0-34.291,0v-87.197
						C245.598,363.429,268.785,360.163,273.031,363.429z"/>
					<path style="fill:#091255;" d="M279.889,450.626c0-5.879-6.858-10.124-6.858-10.124h-27.433v10.124
						C245.598,450.626,245.598,450.626,279.889,450.626z"/>
					<path style="opacity:0.32;fill:#6D3E3B;" d="M258.988,445.564c0-34.994,8.666-56.473,14.043-66.433v-15.702
						c-4.245-3.266-27.433,0-27.433,0v82.135C248.035,445.564,252.123,445.564,258.988,445.564z"/>
					<path style="opacity:0.32;fill:#6D3E3B;" d="M218.492,445.564c0-34.994,8.666-56.473,14.043-66.433v-15.702
						c-4.245-3.266-27.433,0-27.433,0v82.135C207.538,445.564,211.627,445.564,218.492,445.564z"/>
					<path style="fill:#7396C0;" d="M221.594,333.22l42.619,9.634c0,0,8.818,4.572,8.818,20.575
						c-10.124,0-26.786,4.246-41.642,10.124c-14.856,5.879-46.535,3.266-52.74-9.471c-6.205-12.737-4.082-30.862-4.082-30.862
						H221.594z"/>
					<path style="opacity:0.55;fill:#2B3675;" d="M238.123,345.467c-11.171-3.359-17.045-9.019-19.636-12.247h-27.361
						l-11.932,31.832c3.241,5.276,11.026,8.667,19.956,10.311l13.099,1.173c7.211,0.011,14.132-1.002,19.139-2.983
						c8.395-3.322,17.366-6.121,25.409-7.928C252.679,357.193,246.442,347.969,238.123,345.467z"/>
				</g>
				<g>
					<path style="fill:#FF9588;" d="M170.995,243.574c0,0-6.68,1.3-8.453,13.047s-3.546,57.184-3.546,57.184h18.175L170.995,243.574
						z"/>
					<path style="fill:#C41010;" d="M188.554,233.874c0,0,13.088-1.078,16.574,1.127c3.485,2.204,3.73,5.005,3.73,5.005h-22.292
						L188.554,233.874z"/>
					<path style="fill:#F21111;" d="M208.858,240.006l17.146,5.418l-4.409,87.796c0,0-28.902,10.287-47.028,0
						c-7.838-78.38-3.571-89.647-3.571-89.647l15.57-3.568H208.858z"/>
					<path style="fill:#841111;" d="M225.04,264.595l-8.095-6.99c0,0-1.546,40.352,5.487,58.941L225.04,264.595z"/>
					<path style="fill:#FF9588;" d="M226.003,245.424c0,0,6.356,3.661,9.681,21.614c3.325,17.953,5.763,33.689,5.763,33.689
						l27.484,1.631c0,0,7.757,1.472,7.757,11.446h-43.465c-3.706,0-6.88-2.655-7.535-6.303l-8.621-48.037
						C217.066,259.464,215.214,247.304,226.003,245.424z"/>
					<path style="opacity:0.16;fill:#6D3E3B;" d="M237.679,313.694c0-5.447-4.416-9.863-9.863-9.863
						c-0.944,0-1.853,0.141-2.718,0.388l0.589,3.283c0.655,3.648,3.829,6.303,7.535,6.303h4.451
						C237.674,313.767,237.679,313.731,237.679,313.694z"/>
					<path style="opacity:0.5;fill:#FFFFFF;" d="M241.447,300.728c0,0-2.438-15.736-5.763-33.689
						c-3.325-17.953-9.681-21.614-9.681-21.614c-1.48,0.258-2.714,0.714-3.756,1.301l0,0c0,0,10.778,16.117,15.431,55.634
						C241.447,300.728,241.447,300.728,241.447,300.728z"/>
				</g>
				<g>
					<polygon style="fill:#2B3675;" points="252.635,372.499 252.635,373.299 252.635,389.619 252.635,449.819 191.859,449.819 
						191.859,373.299 186.089,373.299 186.089,449.819 186.089,454.626 191.859,454.626 252.635,454.626 258.405,454.626 
						258.405,449.819 258.405,389.619 258.405,373.299 258.405,372.499 					"/>
					<g>
						<rect x="165.807" y="373.299" style="fill:#7396C0;" width="5.77" height="81.328"/>
						<rect x="232.353" y="373.299" style="fill:#7396C0;" width="5.77" height="81.328"/>
						<rect x="165.807" y="449.819" style="fill:#7396C0;" width="72.316" height="4.808"/>
					</g>
					<rect x="165.807" y="372.499" style="fill:#2B3675;" width="5.77" height="17.12"/>
					<rect x="232.353" y="372.499" style="fill:#2B3675;" width="5.77" height="17.12"/>
					<path style="fill:#091255;" d="M160.962,249.735h26.976c10.308,0,18.701,8.26,18.887,18.567
						c0.513,28.504,3.496,80.416,18.273,86.579c10.376,3.976,33.89,1.461,33.89,21.66h-87.992c0,0-28.924-3.641-28.924-43.321
						v-64.595C142.072,258.192,150.529,249.735,160.962,249.735z"/>
					<path style="opacity:0.43;fill:none;stroke:#8EBEED;stroke-width:0.9797;stroke-miterlimit:10;" d="M200.53,254.546
						c0,0-0.154,87.867,16.415,100.335c16.569,12.467,35.69,4.073,35.69,21.66"/>
				</g>
			</g>
		</g>
	</g>
</g>
</svg>
