<?xml version="1.0" encoding="utf-8"?>
<!-- Generator: Adobe Illustrator 27.5.0, SVG Export Plug-In . SVG Version: 6.00 Build 0)  -->
<svg version="1.1" xmlns="http://www.w3.org/2000/svg" xmlns:xlink="http://www.w3.org/1999/xlink" x="0px" y="0px"
	 viewBox="0 0 750 500.001" style="enable-background:new 0 0 750 500.001;" xml:space="preserve">
<g id="BACKGROUND">
	<g>
		<rect style="fill:#FFFFFF;" width="750" height="500.001"/>
		<path style="fill:#9CC8F7;" d="M710.714,452.208c0,7.737-150.305,14.011-335.713,14.011c-185.41,0-335.714-6.273-335.714-14.011
			c0-7.738,150.304-14.012,335.714-14.012C560.409,438.196,710.714,444.47,710.714,452.208z"/>
	</g>
</g>
<g id="OBJECTS">
	<g>
		<rect x="201.109" y="37.339" style="fill:#9CC8F7;" width="347.782" height="228"/>
		<rect x="205.768" y="63.244" style="fill:#E7F3FF;" width="338.462" height="193.94"/>
		<g>
			<path style="fill:#CDF3FF;" d="M218.824,49.771c0,1.99-1.613,3.603-3.604,3.603c-1.989,0-3.603-1.613-3.603-3.603
				c0-1.99,1.613-3.603,3.603-3.603C217.21,46.168,218.824,47.781,218.824,49.771z"/>
			<path style="fill:#CDF3FF;" d="M231.969,49.771c0,1.99-1.613,3.603-3.603,3.603c-1.99,0-3.604-1.613-3.604-3.603
				c0-1.99,1.613-3.603,3.604-3.603C230.356,46.168,231.969,47.781,231.969,49.771z"/>
			<path style="fill:#CDF3FF;" d="M245.116,49.771c0,1.99-1.613,3.603-3.604,3.603c-1.989,0-3.603-1.613-3.603-3.603
				c0-1.99,1.613-3.603,3.603-3.603C243.503,46.168,245.116,47.781,245.116,49.771z"/>
		</g>
		<g>
			<rect x="279.444" y="90.019" style="fill:#9CC8F7;" width="87.888" height="6.598"/>
			<rect x="224.764" y="128.19" style="fill:#9CC8F7;" width="87.889" height="6.597"/>
			<rect x="224.764" y="104.863" style="fill:#9CC8F7;" width="142.567" height="3.299"/>
			<rect x="224.764" y="109.812" style="fill:#9CC8F7;" width="142.567" height="6.598"/>
			<rect x="318.792" y="128.19" style="fill:#9CC8F7;" width="16.967" height="6.597"/>
		</g>
		<g>
			<rect x="235.256" y="211.6" style="fill:#9CC8F7;" width="9.86" height="32.693"/>
			<rect x="257.571" y="149.27" style="fill:#9CC8F7;" width="9.859" height="95.022"/>
			<rect x="279.885" y="190.823" style="fill:#9CC8F7;" width="9.859" height="53.47"/>
			<rect x="302.2" y="215.756" style="fill:#9CC8F7;" width="9.858" height="28.537"/>
			<rect x="324.514" y="170.047" style="fill:#9CC8F7;" width="9.859" height="74.246"/>
			<rect x="346.828" y="190.823" style="fill:#9CC8F7;" width="9.861" height="53.47"/>
			<rect x="369.141" y="211.6" style="fill:#9CC8F7;" width="9.86" height="32.693"/>
		</g>
		<g>
			<g>
				<path style="fill:#FFFFFF;" d="M457.826,111.379c-29.322,0-53.09,23.769-53.09,53.089s23.768,53.089,53.09,53.089
					c29.32,0,53.09-23.769,53.09-53.089S487.146,111.379,457.826,111.379z M457.826,191.856c-15.129,0-27.387-12.262-27.387-27.387
					c0-15.125,12.258-27.387,27.387-27.387c15.123,0,27.387,12.262,27.387,27.387C485.213,179.594,472.949,191.856,457.826,191.856z
					"/>
			</g>
			<path style="fill:#A1C6FB;" d="M483.398,154.729c1.152,3.031,1.814,6.304,1.814,9.74c0,12.282-8.084,22.675-19.223,26.149
				l11.91,23c19.365-7.917,33.016-26.935,33.016-49.149c0-8.379-1.949-16.3-5.406-23.347L483.398,154.729z"/>
			<path style="fill:#97BCF0;" d="M457.826,137.082c10.482,0,19.58,5.895,24.184,14.545l21.91-13.484
				c-9.15-15.985-26.357-26.763-46.094-26.763c-22.066,0-40.982,13.462-48.995,32.619l23.56,10.356
				C436.416,144.24,446.275,137.082,457.826,137.082z"/>
			<path style="fill:#74A1D8;" d="M457.826,191.856c-15.129,0-27.387-12.262-27.387-27.387c0-2.385,0.334-4.686,0.908-6.891
				l-23.709-10.421c-1.872,5.427-2.902,11.247-2.902,17.311c0,29.321,23.768,53.089,53.09,53.089c5.906,0,11.58-0.979,16.889-2.76
				l-12.111-23.386C461.049,191.687,459.459,191.856,457.826,191.856z"/>
		</g>
	</g>
	<g>
		<g>
			<g>
				<polygon style="fill:#EAA294;" points="412.793,411.65 411.216,432.099 402.4,440.495 424.797,438.782 426.154,408.972 				"/>
				<path style="fill:#160E3F;" d="M414.821,272.397c0,0-2.61,48.949-2.742,82.397c-0.133,33.447-2.766,75.35-2.766,75.35
					s5.936,3.6,16.5-2.217c0,0,9.446-51.561,10.26-77.791c0.813-26.229,9.04-52.676,12.289-85.806L414.821,272.397z"/>
				<g>
					<path style="fill:#160E3F;" d="M405.025,435.634c0,0,1.336-5.961,3.338-4.703c2,1.256,1.969,5.633,1.969,5.633
						s7.31,2.092,15.822-0.09c0,0-0.638,7.219-1.669,8.77c-1.033,1.557-35.897,3.168-37.52,2.84
						C385.348,447.757,386.58,444.921,405.025,435.634z"/>
					<g>
						<path style="fill:#E7F3FF;" d="M425.123,445.075c-0.094-0.346-0.451-0.56-0.807-0.469c-6.247,1.639-18.612,2.324-27.45,2.588
							c-0.192-3.328-2.64-6.26-2.64-6.26c-8.061,3.598-8.158,6.826-8.158,6.826c-0.092,0.26-0.013,0.537,0.177,0.713
							c0.064,0.055,0.137,0.102,0.221,0.133c0.707,0.254,28.19-0.1,38.188-2.725C425.005,445.792,425.215,445.429,425.123,445.075z"
							/>
						<path style="fill:#E7F3FF;" d="M396.762,440.085c1.128,0.201,2.406,1.57,2.55,2.707c0.104,0.838,1.423,0.785,1.318-0.064
							c-0.219-1.713-1.851-3.625-3.591-3.932C396.203,438.647,395.923,439.937,396.762,440.085z"/>
						<path style="fill:#E7F3FF;" d="M399.609,438.312c1.274,0.705,2.278,1.894,2.653,3.313c0.217,0.824,1.478,0.424,1.26-0.395
							c-0.467-1.752-1.744-3.225-3.314-4.096C399.466,436.724,398.866,437.9,399.609,438.312z"/>
						<path style="fill:#E7F3FF;" d="M402.76,436.726c1.326,0.611,2.639,1.494,2.913,3.027c0.15,0.836,1.406,0.428,1.261-0.396
							c-0.334-1.855-1.961-3.063-3.575-3.809C402.588,435.194,401.985,436.368,402.76,436.726z"/>
					</g>
				</g>
				<polygon style="fill:#EAA294;" points="433.297,407.933 437.349,434.31 427.76,442.689 451.497,442.021 450.764,410.298 				"/>
				<g>
					<path style="fill:#1C145F;" d="M431.377,436.567c0,0,1.337-5.963,3.339-4.703c2,1.254,1.969,5.631,1.969,5.631
						s7.309,2.092,15.821-0.09c0,0-0.637,7.219-1.669,8.77c-1.032,1.557-35.897,3.168-37.519,2.84
						C411.699,448.69,412.932,445.853,431.377,436.567z"/>
					<g>
						<path style="fill:#E7F3FF;" d="M451.475,446.009c-0.094-0.348-0.451-0.56-0.806-0.471c-6.248,1.641-18.612,2.326-27.451,2.588
							c-0.192-3.328-2.64-6.258-2.64-6.258c-8.061,3.596-8.158,6.826-8.158,6.826c-0.092,0.26-0.013,0.535,0.178,0.711
							c0.065,0.055,0.137,0.103,0.22,0.133c0.707,0.254,28.19-0.1,38.187-2.725C451.357,446.724,451.566,446.36,451.475,446.009z"/>
						<path style="fill:#E7F3FF;" d="M423.114,441.017c1.127,0.201,2.405,1.572,2.549,2.707c0.105,0.84,1.423,0.785,1.318-0.064
							c-0.218-1.713-1.85-3.625-3.591-3.932C422.556,439.579,422.275,440.868,423.114,441.017z"/>
						<path style="fill:#E7F3FF;" d="M425.962,439.243c1.273,0.705,2.277,1.897,2.653,3.313c0.216,0.824,1.477,0.424,1.259-0.395
							c-0.467-1.752-1.744-3.225-3.314-4.096C425.818,437.655,425.218,438.831,425.962,439.243z"/>
						<path style="fill:#E7F3FF;" d="M429.112,437.657c1.326,0.611,2.638,1.494,2.913,3.027c0.15,0.836,1.406,0.43,1.26-0.395
							c-0.333-1.857-1.961-3.065-3.575-3.811C428.94,436.126,428.337,437.3,429.112,437.657z"/>
					</g>
				</g>
				<path style="fill:#1D1970;" d="M426.901,268.352c0,0-5.328,48.706-4.12,82.626c1.191,33.422,10.239,79.283,10.239,79.283
					s8.443,5.531,19.384,0.57c0,0-3.61-56.711-0.951-82.801c1.526-14.98,22.442-49.393,16.348-84.647L426.901,268.352z"/>
				<g>
					<g>
						<path style="fill:#160E3F;" d="M456.83,270.976c-0.037,0-0.076-0.004-0.113-0.014c-0.254-0.063-0.406-0.318-0.344-0.572
							l0.574-2.282c0.063-0.252,0.313-0.407,0.572-0.342c0.253,0.064,0.405,0.32,0.341,0.573l-0.572,2.281
							C457.233,270.833,457.042,270.976,456.83,270.976z"/>
					</g>
					<g>
						<path style="fill:#160E3F;" d="M442.614,421.034c-0.236,0-0.44-0.178-0.468-0.418c-0.156-1.381-0.326-2.918-0.505-4.586
							c-0.028-0.26,0.159-0.49,0.418-0.518c0.254-0.023,0.491,0.158,0.519,0.418c0.179,1.664,0.349,3.199,0.506,4.578
							c0.029,0.26-0.157,0.494-0.415,0.523C442.65,421.034,442.633,421.034,442.614,421.034z M441.536,410.948
							c-0.238,0-0.443-0.182-0.467-0.424c-0.148-1.473-0.299-3.006-0.448-4.59c-0.023-0.26,0.166-0.488,0.426-0.514
							c0.256-0.017,0.489,0.166,0.514,0.426c0.148,1.582,0.299,3.113,0.445,4.584c0.026,0.258-0.163,0.49-0.422,0.516
							C441.568,410.948,441.552,410.948,441.536,410.948z M440.591,400.853c-0.241,0-0.447-0.186-0.468-0.43
							c-0.13-1.506-0.258-3.041-0.382-4.598c-0.022-0.26,0.172-0.486,0.432-0.506c0.259-0.018,0.486,0.172,0.507,0.432
							c0.124,1.553,0.252,3.086,0.382,4.59c0.022,0.26-0.169,0.488-0.429,0.51C440.619,400.853,440.604,400.853,440.591,400.853z
							 M439.794,390.745c-0.245,0-0.452-0.191-0.469-0.44c-0.107-1.527-0.209-3.064-0.304-4.602c-0.016-0.262,0.182-0.484,0.441-0.5
							c0.278-0.023,0.483,0.182,0.5,0.441c0.095,1.535,0.195,3.07,0.303,4.594c0.018,0.26-0.178,0.486-0.438,0.504
							C439.817,390.745,439.805,390.745,439.794,390.745z M439.185,380.62c-0.25,0-0.458-0.195-0.47-0.449
							c-0.076-1.545-0.144-3.084-0.2-4.609c-0.009-0.26,0.194-0.479,0.454-0.488c0.298-0.002,0.479,0.195,0.488,0.455
							c0.057,1.52,0.123,3.055,0.198,4.598c0.013,0.26-0.188,0.48-0.447,0.492C439.199,380.62,439.192,380.62,439.185,380.62z
							 M438.828,370.487c-0.256,0-0.466-0.205-0.472-0.463c-0.03-1.566-0.047-3.109-0.048-4.617c0-0.26,0.211-0.471,0.472-0.471l0,0
							c0.26,0,0.471,0.211,0.471,0.471c0.001,1.502,0.018,3.037,0.048,4.6c0.005,0.26-0.201,0.475-0.462,0.48
							C438.834,370.487,438.83,370.487,438.828,370.487z M438.854,360.353c-0.005,0-0.01,0-0.014,0
							c-0.261-0.008-0.465-0.225-0.458-0.484c0.05-1.646,0.122-3.201,0.216-4.619c0.018-0.26,0.25-0.459,0.502-0.44
							c0.259,0.018,0.456,0.242,0.439,0.502c-0.093,1.406-0.165,2.949-0.214,4.584C439.317,360.151,439.108,360.353,438.854,360.353
							z M439.606,350.249c-0.021,0-0.042,0-0.063-0.004c-0.258-0.033-0.439-0.272-0.405-0.529c0.187-1.389,0.414-2.928,0.681-4.574
							c0.04-0.256,0.278-0.434,0.54-0.389c0.257,0.041,0.431,0.281,0.39,0.539c-0.265,1.639-0.492,3.17-0.675,4.549
							C440.041,350.077,439.838,350.249,439.606,350.249z M441.222,340.235c-0.028,0-0.057-0.002-0.085-0.006
							c-0.257-0.049-0.426-0.293-0.38-0.549c0.266-1.465,0.551-2.98,0.851-4.539c0.049-0.256,0.299-0.42,0.552-0.373
							c0.256,0.051,0.423,0.297,0.374,0.553c-0.3,1.555-0.585,3.066-0.849,4.527C441.644,340.077,441.444,340.235,441.222,340.235z
							 M443.147,330.275c-0.031,0-0.063-0.002-0.095-0.01c-0.256-0.051-0.42-0.301-0.368-0.555c0.301-1.484,0.613-2.992,0.934-4.52
							c0.055-0.254,0.308-0.42,0.558-0.363c0.255,0.053,0.418,0.303,0.365,0.557c-0.32,1.525-0.632,3.031-0.933,4.514
							C443.563,330.12,443.366,330.275,443.147,330.275z M445.232,320.349c-0.032,0-0.066-0.004-0.1-0.012
							c-0.255-0.055-0.416-0.305-0.36-0.559c0.324-1.498,0.652-3.002,0.984-4.508c0.057-0.254,0.305-0.414,0.561-0.359
							c0.255,0.057,0.415,0.309,0.359,0.563c-0.332,1.506-0.661,3.008-0.985,4.502C445.646,320.196,445.45,320.349,445.232,320.349z
							 M447.424,310.442c-0.034,0-0.068-0.004-0.103-0.012c-0.253-0.057-0.413-0.309-0.355-0.563c0.34-1.508,0.681-3.01,1.021-4.498
							c0.058-0.254,0.308-0.414,0.564-0.355c0.254,0.059,0.412,0.313,0.355,0.564c-0.341,1.488-0.683,2.988-1.022,4.496
							C447.835,310.294,447.641,310.442,447.424,310.442z M449.69,300.554c-0.035,0-0.071-0.004-0.107-0.012
							c-0.253-0.059-0.411-0.313-0.353-0.566c0.354-1.523,0.707-3.021,1.054-4.49c0.059-0.252,0.309-0.418,0.566-0.352
							c0.254,0.059,0.411,0.313,0.35,0.566c-0.346,1.469-0.696,2.969-1.051,4.49C450.099,300.407,449.904,300.554,449.69,300.554z
							 M452.018,290.681c-0.036,0-0.072-0.004-0.109-0.014c-0.253-0.06-0.409-0.314-0.349-0.568c0.37-1.547,0.729-3.047,1.077-4.484
							c0.062-0.254,0.316-0.404,0.568-0.348c0.253,0.063,0.409,0.316,0.348,0.568c-0.347,1.438-0.707,2.936-1.076,4.484
							C452.425,290.534,452.231,290.681,452.018,290.681z M454.4,280.817c-0.036,0-0.074-0.004-0.111-0.014
							c-0.253-0.063-0.407-0.316-0.346-0.568c0.397-1.629,0.767-3.131,1.1-4.482c0.062-0.252,0.312-0.409,0.571-0.345
							c0.252,0.062,0.406,0.317,0.344,0.571c-0.333,1.35-0.702,2.852-1.1,4.479C454.805,280.673,454.612,280.817,454.4,280.817z"/>
					</g>
					<g>
						<path style="fill:#160E3F;" d="M443.535,428.751c-0.232,0-0.435-0.174-0.466-0.41c0,0-0.108-0.834-0.29-2.34
							c-0.031-0.258,0.152-0.492,0.41-0.523c0.255-0.039,0.494,0.152,0.524,0.41c0.183,1.5,0.29,2.33,0.29,2.332
							c0.033,0.258-0.15,0.494-0.407,0.527C443.576,428.749,443.556,428.751,443.535,428.751z"/>
					</g>
				</g>
			</g>
			<g>
				<g>
					<polygon style="fill:#EAA294;" points="434.009,173.366 432.879,152.033 425.476,153.288 423.217,143.751 417.695,142.873 
						425.852,122.041 446.809,119.03 446.055,146.198 451.828,163.829 					"/>
					<g>
						<polygon style="fill:#EF7E82;" points="432.879,152.033 433.261,159.238 441.413,150.653 						"/>
						<polygon style="fill:#EF7E82;" points="417.695,142.873 423.217,143.751 424.583,142.352 						"/>
					</g>
				</g>
				<g>
					<path style="fill:#EF7E82;" d="M431.833,142.648c-0.019,1.521-0.22,3.009-1.073,4.302c-0.9,1.365-2.571,1.877-4.099,2.11
						c-0.39,0.06-0.224,0.648,0.161,0.59c1.611-0.246,3.286-0.811,4.303-2.171c1.047-1.404,1.3-3.119,1.319-4.831
						C432.449,142.253,431.837,142.253,431.833,142.648z"/>
					<g>
						<path style="fill:#11003D;" d="M427.513,129.075c0.607-0.052,1.482,0.127,1.71,0.777c0.13,0.37,0.722,0.211,0.589-0.162
							c-0.322-0.918-1.39-1.306-2.299-1.227C427.123,128.498,427.12,129.109,427.513,129.075L427.513,129.075z"/>
					</g>
					<g>
						<path style="fill:#11003D;" d="M425.35,134.747c-0.102,0.888,0.073,2.015,1.167,2.067c0.951,0.045,1.796-0.88,2.228-1.621
							c0.23-0.395-0.381-0.751-0.611-0.357c-0.328,0.562-0.814,1.102-1.47,1.259c-0.74,0.177-0.656-0.923-0.607-1.348
							C426.107,134.295,425.4,134.3,425.35,134.747L425.35,134.747z"/>
					</g>
				</g>
				<g>
					<path style="fill:#11003D;" d="M444.629,110.882c0,0,0.167-3.931-5.081-3.624c-5.25,0.309-9.491,4.24-14.425,2.467
						c-4.936-1.773-10.023-2.93-11.565,4.395c-1.542,7.324,10.374,16.268,27.855,11.102c0,0-2.929,12.178,1.916,14.917
						c4.847,2.739,13.173-8.209,14.021-17.384C458.199,113.581,448.792,108.415,444.629,110.882z"/>
					<g>
						<path style="fill:#33138C;" d="M423.586,111.485c2.645,1.319,5.137,2.033,8.107,1.652c3.717-0.476,6.702-3.754,10.522-2.234
							c0.564,0.225,0.808-0.687,0.25-0.909c-2.477-0.986-4.354-0.335-6.658,0.782c-4.068,1.972-7.734,1.895-11.747-0.105
							C423.519,110.401,423.042,111.214,423.586,111.485z"/>
						<path style="fill:#33138C;" d="M428.92,118.565c2.571,0.284,5.178,0.215,7.605-0.758c2.466-0.989,4.256-2.91,6.991-3.285
							c0.6-0.082,0.343-0.99-0.251-0.908c-1.83,0.251-3.292,1.084-4.837,2.058c-2.273,1.434-4.432,2.06-7.134,2.112
							c-5.311,0.104-10.026-2.183-12.835-6.682c-0.32-0.514-1.136-0.042-0.813,0.475
							C420.227,115.714,424.045,118.027,428.92,118.565z"/>
						<path style="fill:#33138C;" d="M442.628,118.961c-3.629,2.358-6.575,4.497-11.089,4.678c-4.488,0.179-8.679-1.87-12.2-4.469
							c-0.489-0.361-0.959,0.457-0.475,0.814c3.559,2.626,7.465,4.369,11.92,4.594c4.94,0.248,8.382-2.244,12.318-4.804
							C443.611,119.444,443.139,118.628,442.628,118.961z"/>
						<path style="fill:#33138C;" d="M445.261,118.612c-0.213-0.563-1.124-0.319-0.91,0.251c2.152,5.713-4.592,12.858-0.088,17.991
							c0.401,0.458,1.065-0.212,0.666-0.667c-2.327-2.653-0.884-6.785-0.033-9.794C445.637,123.773,446.251,121.243,445.261,118.612
							z"/>
						<path style="fill:#33138C;" d="M449.49,121.136c-0.027-3.07-1.022-5.443-3.765-6.949c-0.533-0.293-1.009,0.521-0.476,0.814
							c4.254,2.335,3.578,7.783,2.804,11.893c-0.531,2.82-1.612,5.241,0.406,7.705c0.385,0.471,1.048-0.2,0.666-0.667
							c-1.71-2.087-0.7-4.49-0.163-6.788C449.418,125.195,449.508,123.127,449.49,121.136z"/>
						<path style="fill:#33138C;" d="M455.405,120.482c-0.78-4.329-3.334-6.887-7.379-8.337c-0.573-0.205-0.818,0.705-0.251,0.909
							c4.529,1.624,6.918,5.021,6.805,9.892c-0.087,3.728-2.947,6.816-4.091,10.249c-0.192,0.578,0.718,0.824,0.909,0.251
							C452.873,129.017,456.306,125.48,455.405,120.482z"/>
					</g>
				</g>
				<path style="fill:#EAA294;" d="M452.958,139.106c0,3.704-3.003,6.706-6.706,6.706s-6.704-3.002-6.704-6.706
					s3.001-6.705,6.704-6.705S452.958,135.402,452.958,139.106z"/>
				<path style="fill:#EF7E82;" d="M448.792,135.711c-2.271-0.301-4.265,0.125-5.627,2.075c-1.556,2.224-1.228,4.841,0.554,6.774
					c0.268,0.29,0.699-0.143,0.433-0.433c-0.125-0.136-0.24-0.275-0.347-0.415c1.217-0.385,1.974-1.533,1.755-2.832
					c-0.229-1.358-1.472-1.592-2.564-1.277c0.209-0.721,0.589-1.427,1.132-2.082c1.143-1.377,3.042-1.413,4.664-1.198
					C449.182,136.374,449.178,135.762,448.792,135.711z M444.971,141.042c0.228,1.038-0.572,1.906-1.519,2.14
					c-0.538-0.916-0.729-1.903-0.601-2.88C443.726,139.909,444.725,139.93,444.971,141.042z"/>
			</g>
			<g>
				<g>
					<path style="fill:#FFFFFF;" d="M429.441,178.246c-5.672,23.453-18.275,94.368-16.35,110.294c0,0,24.896,5.955,51.602-20.75
						c2.334-2.334,7.335,16.662,7.335,16.662s-1.034-89.464-13.003-113.681C449.083,150.653,432.879,164.033,429.441,178.246z"/>
					<path style="fill:#F1EFFD;" d="M459.025,170.771c-9.942-20.119-26.146-6.738-29.584,7.475
						c-0.569,2.354-1.209,5.192-1.897,8.399c7.727,16.85,14.898,34.009,20.722,51.479c3.901,11.875,6.725,24.018,9.014,36.321
						c2.443-1.955,4.921-4.162,7.413-6.655c2.334-2.334,7.335,16.662,7.335,16.662S470.994,194.988,459.025,170.771z"/>
					<g>
						<g>
							<path style="fill:#FFFFFF;" d="M454.679,172.343c-0.214,0-0.407-0.146-0.458-0.362c-0.355-1.497-0.561-2.266-0.563-2.27
								c-0.067-0.252,0.083-0.51,0.334-0.577c0.253-0.067,0.51,0.083,0.577,0.333c0,0,0.208,0.778,0.567,2.297
								c0.061,0.253-0.097,0.507-0.35,0.567C454.75,172.339,454.715,172.343,454.679,172.343z"/>
						</g>
						<g>
							<path style="fill:#FFFFFF;" d="M464.692,256.762c-0.253,0-0.462-0.2-0.471-0.455c-0.058-1.629-0.121-3.239-0.19-4.829
								c-0.011-0.26,0.19-0.48,0.451-0.491c0.255-0.033,0.479,0.191,0.491,0.45c0.069,1.593,0.133,3.205,0.19,4.838
								c0.009,0.26-0.195,0.478-0.455,0.487C464.703,256.762,464.698,256.762,464.692,256.762z M464.222,246.13
								c-0.249,0-0.457-0.194-0.47-0.446c-0.088-1.631-0.181-3.239-0.279-4.825c-0.017-0.259,0.182-0.483,0.441-0.499
								c0.283-0.01,0.483,0.182,0.5,0.441c0.098,1.588,0.191,3.199,0.278,4.833c0.014,0.26-0.185,0.482-0.445,0.496
								C464.238,246.13,464.23,246.13,464.222,246.13z M463.552,235.51c-0.244,0-0.45-0.189-0.469-0.438
								c-0.118-1.633-0.241-3.24-0.37-4.818c-0.021-0.259,0.172-0.487,0.431-0.508c0.274-0.017,0.486,0.172,0.508,0.432
								c0.129,1.582,0.254,3.191,0.372,4.827c0.018,0.26-0.177,0.485-0.437,0.504C463.575,235.51,463.564,235.51,463.552,235.51z
								 M462.679,224.904c-0.24,0-0.445-0.184-0.469-0.428c-0.15-1.636-0.307-3.24-0.466-4.81c-0.026-0.259,0.162-0.49,0.421-0.517
								c0.251-0.023,0.489,0.162,0.517,0.421c0.161,1.573,0.316,3.18,0.468,4.819c0.023,0.259-0.167,0.489-0.427,0.513
								C462.708,224.904,462.693,224.904,462.679,224.904z M461.593,214.319c-0.236,0-0.44-0.178-0.468-0.418
								c-0.187-1.642-0.375-3.242-0.567-4.799c-0.032-0.258,0.151-0.494,0.409-0.525c0.265-0.038,0.493,0.151,0.525,0.41
								c0.192,1.561,0.383,3.163,0.569,4.808c0.03,0.259-0.156,0.493-0.415,0.521C461.629,214.318,461.611,214.319,461.593,214.319z
								 M460.278,203.759c-0.233,0-0.434-0.172-0.466-0.408c-0.225-1.651-0.451-3.247-0.678-4.784
								c-0.037-0.258,0.142-0.497,0.399-0.535c0.253-0.038,0.496,0.14,0.534,0.398c0.227,1.542,0.453,3.14,0.678,4.794
								c0.035,0.258-0.146,0.496-0.403,0.531C460.321,203.758,460.3,203.759,460.278,203.759z M458.718,193.232
								c-0.227,0-0.428-0.165-0.464-0.396c-0.272-1.675-0.538-3.263-0.799-4.766c-0.045-0.256,0.127-0.5,0.383-0.544
								c0.258-0.046,0.501,0.128,0.545,0.384c0.263,1.505,0.529,3.098,0.8,4.776c0.043,0.257-0.132,0.499-0.389,0.54
								C458.768,193.23,458.742,193.232,458.718,193.232z M456.878,182.75c-0.222,0-0.419-0.157-0.463-0.382
								c-0.336-1.755-0.653-3.335-0.945-4.737c-0.053-0.255,0.111-0.504,0.365-0.557c0.258-0.052,0.505,0.11,0.558,0.365
								c0.293,1.406,0.611,2.991,0.949,4.751c0.048,0.256-0.119,0.503-0.375,0.552C456.938,182.748,456.907,182.75,456.878,182.75z"
								/>
						</g>
						<g>
							<path style="fill:#FFFFFF;" d="M464.922,264.923c-0.256,0-0.466-0.205-0.472-0.462c-0.017-0.788-0.035-1.573-0.055-2.353
								c-0.007-0.26,0.198-0.477,0.459-0.483c0.281,0.018,0.477,0.199,0.483,0.459c0.021,0.782,0.038,1.568,0.055,2.358
								c0.006,0.26-0.201,0.476-0.461,0.482C464.928,264.923,464.925,264.923,464.922,264.923z"/>
						</g>
					</g>
					<g>
						<path style="fill:#F1EFFD;" d="M429.445,185.069c-0.34,1.197-1.111,2.026-1.722,1.853c-0.611-0.173-0.832-1.284-0.494-2.48
							c0.34-1.196,1.111-2.026,1.723-1.853C429.563,182.762,429.784,183.873,429.445,185.069z"/>
						<path style="fill:#F1EFFD;" d="M425.165,204.672c-0.186,1.231-0.846,2.151-1.474,2.056c-0.628-0.094-0.988-1.168-0.804-2.398
							c0.186-1.23,0.846-2.15,1.474-2.056C424.989,202.369,425.35,203.443,425.165,204.672z"/>
						<path style="fill:#F1EFFD;" d="M423.38,225.483c-0.126,1.238-0.741,2.189-1.372,2.126c-0.633-0.064-1.044-1.119-0.921-2.355
							c0.126-1.238,0.741-2.189,1.373-2.125C423.092,223.192,423.503,224.247,423.38,225.483z"/>
						<path style="fill:#F1EFFD;" d="M419.59,252.415c-0.065,1.243-0.631,2.225-1.265,2.191c-0.635-0.031-1.098-1.064-1.037-2.307
							c0.065-1.242,0.63-2.224,1.265-2.191C419.188,250.141,419.65,251.174,419.59,252.415z"/>
						<path style="fill:#F1EFFD;" d="M416.83,281.21c-0.064,1.242-0.63,2.223-1.265,2.19c-0.634-0.031-1.098-1.063-1.037-2.307
							c0.064-1.242,0.631-2.223,1.265-2.189C416.428,278.935,416.892,279.968,416.83,281.21z"/>
					</g>
				</g>
				<polygon style="fill:#FFFFFF;" points="429.831,165.148 428.338,179.566 454.705,163.06 450.124,156.307 				"/>
				<path style="fill:#EAA294;" d="M383.756,205.403l-11.632-3.331c0,0-10.735,1.159-13.922-1.987
					c-3.191-3.143-8.701-15.315-7.538-15.308c1.161,0.007,7.101,9.605,9.825,9.547c2.721-0.06,7.301-2.449,9.553-1.546
					c2.246,0.903,4.66,4.144,4.66,4.144l10.971,1.944L383.756,205.403z"/>
				<path style="fill:#FFFFFF;" d="M448.845,171.813c-12.013,4.7-31.124,32.061-34.891,32.946
					c-3.767,0.884-29.264-7.034-36.773-8.472l-2.118,6.966c0,0,30.128,25.793,47.334,24.534
					C444.37,226.178,476.118,161.14,448.845,171.813z"/>
			</g>
		</g>
		<g>
			<g>
				<g>
					<polygon style="fill:#EAA294;" points="176.22,411.715 162.725,426.635 162.725,440.415 152.415,421.503 168.427,402.592 					
						"/>
					<g>
						<path style="fill:#160E3F;" d="M164.506,431.429c0,0,3.947-3.274,2.244-4.29c-1.702-1.015-4.963,0.679-4.963,0.679
							s-4.352-4.669-5.97-11.863c0,0-5.151,3.229-5.919,4.594c-0.768,1.364,11.327,28.043,12.188,29.131
							C162.951,450.765,164.603,448.76,164.506,431.429z"/>
						<g>
							<path style="fill:#E7F3FF;" d="M149.781,420.005c0.293-0.061,0.591,0.123,0.658,0.424c1.157,5.295,5.363,14.801,8.536,21.509
								c2.561-1.127,5.688-0.415,5.688-0.415c0.387,7.399-1.993,8.705-1.993,8.705c-0.158,0.167-0.396,0.215-0.599,0.137
								c-0.067-0.026-0.129-0.063-0.184-0.112c-0.458-0.431-10.68-21.115-12.531-29.588
								C149.292,420.366,149.48,420.071,149.781,420.005z"/>
							<path style="fill:#E7F3FF;" d="M164.331,439.304c-0.58-0.768-2.094-1.198-2.997-0.874c-0.666,0.242-1.13-0.765-0.457-1.007
								c1.365-0.495,3.419-0.003,4.312,1.183C165.619,439.172,164.765,439.875,164.331,439.304z"/>
							<path style="fill:#E7F3FF;" d="M164.57,436.497c-1.014-0.682-2.286-0.979-3.488-0.718c-0.699,0.151-0.88-0.943-0.185-1.092
								c1.484-0.322,3.075,0.073,4.324,0.914C165.814,436.002,165.163,436.895,164.57,436.497z"/>
							<path style="fill:#E7F3FF;" d="M164.555,433.537c-0.962-0.757-2.125-1.401-3.374-1.023c-0.682,0.208-0.859-0.889-0.186-1.092
								c1.515-0.458,3.037,0.296,4.21,1.222C165.766,433.083,165.117,433.983,164.555,433.537z"/>
						</g>
					</g>
					<path style="fill:#1C145F;" d="M158.164,314.161c0,0,66.902-0.33,73.555,10.314c6.652,10.645-4.371,37.254-18.627,53.79
						c-14.255,16.535-41.682,45.053-41.682,45.053s-7.372-3.124-12.891-13.506c0,0,37.847-53.595,31.385-54.735
						c-6.462-1.141-61.201,14.446-68.614,0.951c-7.413-13.496-3.421-30.411-3.421-30.411L158.164,314.161z"/>
					<polygon style="fill:#EAA294;" points="280.315,412.854 295.201,439.654 282.846,440.415 267.514,415.962 					"/>
					<g>
						<path style="fill:#1C145F;" d="M295.443,433.096c0,0-1.698-4.84-3.242-3.594c-1.544,1.243-1.09,4.887-1.09,4.887
							s-5.889,2.459-13.199,1.475c0,0,1.238,5.954,2.25,7.146c1.012,1.196,30.232-0.871,31.552-1.303
							C313.032,441.276,311.727,439.032,295.443,433.096z"/>
						<g>
							<path style="fill:#E7F3FF;" d="M279.613,442.933c0.044-0.298,0.321-0.512,0.626-0.471c5.368,0.756,15.743,0.117,23.136-0.526
								c-0.167-2.794,1.587-5.478,1.587-5.478c7.072,2.209,7.469,4.893,7.469,4.893c0.102,0.206,0.063,0.446-0.079,0.609
								c-0.047,0.055-0.104,0.1-0.169,0.133c-0.565,0.281-23.509,2.675-32.1,1.466C279.782,443.517,279.571,443.236,279.613,442.933
								z"/>
							<path style="fill:#E7F3FF;" d="M302.766,435.996c-0.92,0.279-1.851,1.546-1.859,2.507c-0.006,0.71-1.11,0.794-1.105,0.077
								c0.013-1.452,1.187-3.204,2.608-3.632C303.091,434.744,303.451,435.791,302.766,435.996z"/>
							<path style="fill:#E7F3FF;" d="M300.219,434.798c-0.993,0.712-1.713,1.802-1.888,3.02c-0.099,0.709-1.189,0.499-1.087-0.205
								c0.216-1.506,1.139-2.858,2.362-3.737C300.184,433.459,300.798,434.381,300.219,434.798z"/>
							<path style="fill:#E7F3FF;" d="M297.438,433.783c-1.045,0.64-2.052,1.504-2.133,2.808c-0.043,0.713-1.13,0.496-1.088-0.205
								c0.096-1.58,1.335-2.745,2.607-3.524C297.431,432.49,298.049,433.409,297.438,433.783z"/>
						</g>
					</g>
					<path style="fill:#6D77F0;" d="M159.874,315.162c0,0,69.754,2.852,75.836,12.165c6.082,9.313,55.175,97.03,55.175,97.03
						s-7.867,8.827-19.271,6.926c0,0-47.119-69.174-56.812-76.017c-9.693-6.843-81.455,14.604-91.292,4.476
						c-9.836-10.129-7.632-37.053-7.632-37.053L159.874,315.162z"/>
					<g>
						<path style="fill:#1C145F;" d="M279.099,425.959c-0.171,0-0.338-0.088-0.431-0.246l-2.56-4.335
							c-0.14-0.237-0.062-0.544,0.176-0.685c0.239-0.139,0.544-0.061,0.685,0.177l2.56,4.335c0.14,0.238,0.061,0.544-0.177,0.685
							C279.273,425.937,279.186,425.959,279.099,425.959z M273.474,416.44c-0.171,0-0.337-0.088-0.431-0.245l-2.555-4.32
							c-0.14-0.238-0.061-0.545,0.176-0.686c0.238-0.14,0.544-0.061,0.685,0.176l2.554,4.32c0.141,0.238,0.062,0.545-0.176,0.686
							C273.648,416.417,273.561,416.44,273.474,416.44z M267.855,406.938c-0.171,0-0.337-0.088-0.431-0.245l-2.554-4.316
							c-0.141-0.237-0.062-0.544,0.175-0.686c0.24-0.139,0.545-0.061,0.685,0.176l2.554,4.316c0.141,0.238,0.062,0.545-0.176,0.685
							C268.029,406.915,267.941,406.938,267.855,406.938z M262.236,397.444c-0.171,0-0.337-0.088-0.431-0.245l-2.556-4.315
							c-0.141-0.237-0.063-0.544,0.175-0.685c0.24-0.142,0.545-0.061,0.685,0.175l2.556,4.315c0.141,0.237,0.062,0.544-0.175,0.685
							C262.41,397.422,262.322,397.444,262.236,397.444z M256.612,387.954c-0.171,0-0.337-0.088-0.431-0.245l-2.557-4.312
							c-0.141-0.237-0.063-0.544,0.175-0.685c0.237-0.143,0.543-0.063,0.686,0.175l2.557,4.312c0.141,0.237,0.063,0.544-0.175,0.684
							C256.786,387.932,256.699,387.954,256.612,387.954z M250.986,378.472c-0.171,0-0.337-0.087-0.431-0.245l-2.56-4.309
							c-0.141-0.238-0.063-0.545,0.174-0.685c0.237-0.142,0.544-0.064,0.685,0.174l2.561,4.31c0.141,0.237,0.063,0.544-0.175,0.685
							C251.161,378.449,251.073,378.472,250.986,378.472z M245.351,368.992c-0.17,0-0.336-0.087-0.43-0.244l-2.566-4.309
							c-0.141-0.237-0.063-0.544,0.174-0.686c0.238-0.141,0.544-0.063,0.686,0.174l2.565,4.309c0.141,0.237,0.063,0.544-0.174,0.686
							C245.525,368.97,245.438,368.992,245.351,368.992z M239.703,359.513c-0.17,0-0.336-0.087-0.43-0.243l-2.575-4.306
							c-0.142-0.237-0.064-0.544,0.172-0.685c0.237-0.145,0.544-0.065,0.686,0.172l2.575,4.306c0.142,0.237,0.064,0.544-0.173,0.687
							C239.879,359.49,239.791,359.513,239.703,359.513z M234.029,350.044c-0.169,0-0.335-0.086-0.429-0.242
							c-0.966-1.604-1.837-3.048-2.595-4.297c-0.144-0.236-0.068-0.544,0.168-0.688c0.236-0.142,0.544-0.066,0.686,0.168
							c0.759,1.251,1.631,2.694,2.597,4.301c0.143,0.236,0.066,0.544-0.17,0.686C234.206,350.021,234.117,350.044,234.029,350.044z
							 M140.571,343.584c-0.028,0-0.058-0.002-0.086-0.008c-1.887-0.329-3.382-1.263-4.445-2.773
							c-0.159-0.227-0.104-0.538,0.122-0.697c0.227-0.158,0.537-0.103,0.697,0.121c0.905,1.287,2.183,2.082,3.799,2.365
							c0.272,0.047,0.454,0.307,0.407,0.578C141.021,343.413,140.809,343.584,140.571,343.584z M146.562,343.402
							c-0.258,0-0.477-0.198-0.498-0.459c-0.022-0.275,0.183-0.517,0.457-0.539c1.417-0.116,3.097-0.259,4.991-0.42
							c0.273-0.021,0.517,0.181,0.54,0.456c0.023,0.274-0.181,0.517-0.456,0.54c-1.895,0.161-3.577,0.304-4.994,0.42
							C146.589,343.401,146.575,343.402,146.562,343.402z M157.542,342.474c-0.257,0-0.476-0.197-0.498-0.458
							c-0.023-0.274,0.181-0.517,0.456-0.54l4.99-0.42c0.277-0.02,0.517,0.182,0.54,0.456c0.023,0.275-0.181,0.517-0.456,0.54
							l-4.988,0.42C157.57,342.473,157.556,342.474,157.542,342.474z M168.52,341.565c-0.258,0-0.477-0.198-0.498-0.46
							c-0.022-0.275,0.183-0.517,0.458-0.538c1.632-0.131,3.3-0.263,4.993-0.393c0.267-0.041,0.516,0.185,0.537,0.46
							c0.021,0.275-0.185,0.516-0.46,0.536c-1.691,0.13-3.358,0.262-4.989,0.392C168.546,341.564,168.533,341.565,168.52,341.565z
							 M179.498,340.72c-0.26,0-0.479-0.2-0.498-0.464c-0.021-0.275,0.187-0.515,0.462-0.535c1.658-0.121,3.326-0.239,4.994-0.354
							c0.267-0.021,0.514,0.189,0.534,0.465c0.019,0.275-0.189,0.514-0.464,0.533c-1.667,0.115-3.334,0.233-4.99,0.355
							C179.522,340.72,179.51,340.72,179.498,340.72z M228.238,340.616c-0.142,0-0.283-0.06-0.382-0.177
							c-0.233-0.274-1.118-0.785-4.421-1.111c-0.275-0.027-0.476-0.272-0.448-0.547c0.027-0.275,0.278-0.461,0.547-0.449
							c3.763,0.373,4.704,1.012,5.085,1.461c0.179,0.21,0.153,0.525-0.058,0.704C228.467,340.577,228.353,340.616,228.238,340.616z
							 M190.485,339.973c-0.262,0-0.482-0.204-0.498-0.469c-0.017-0.275,0.192-0.513,0.468-0.53
							c1.682-0.104,3.353-0.203,5.001-0.295c0.275-0.025,0.511,0.195,0.527,0.472c0.016,0.275-0.195,0.511-0.471,0.526
							c-1.646,0.092-3.315,0.19-4.994,0.295C190.506,339.973,190.495,339.973,190.485,339.973z M201.482,339.374
							c-0.266,0-0.487-0.209-0.499-0.478c-0.012-0.275,0.201-0.51,0.477-0.522c1.714-0.078,3.388-0.145,5.008-0.199
							c0.282,0.01,0.508,0.207,0.517,0.483c0.01,0.275-0.207,0.507-0.482,0.517c-1.617,0.055-3.287,0.121-4.997,0.197
							C201.497,339.374,201.49,339.374,201.482,339.374z M217.493,339.032c-0.002,0-0.005,0-0.008,0
							c-1.542-0.024-3.213-0.023-4.987-0.002c-0.002,0-0.004,0-0.006,0c-0.273,0-0.497-0.22-0.5-0.494
							c-0.003-0.275,0.218-0.502,0.494-0.506c1.786-0.022,3.464-0.023,5.017,0.002c0.276,0.005,0.496,0.232,0.492,0.508
							C217.988,338.814,217.765,339.032,217.493,339.032z M134.721,335.343c-0.26,0-0.48-0.201-0.498-0.465
							c-0.035-0.499-0.049-0.983-0.049-1.442c0-2.061,0.283-3.607,0.295-3.673c0.05-0.271,0.306-0.453,0.583-0.399
							c0.271,0.05,0.451,0.311,0.4,0.582c-0.003,0.016-0.278,1.527-0.278,3.49c0,0.438,0.013,0.898,0.046,1.372
							c0.02,0.275-0.188,0.515-0.463,0.534C134.744,335.343,134.732,335.343,134.721,335.343z"/>
					</g>
				</g>
				<g>
					<g>
						<polygon style="fill:#EAA294;" points="143.198,242.503 141.624,219.892 149.583,220.254 150.727,209.917 156.427,208.278 
							145.139,187.397 122.68,186.941 126.993,215.454 123.197,234.768 						"/>
						<g>
							<polygon style="fill:#EF7E82;" points="141.624,219.892 142.155,227.528 132.459,219.544 							"/>
							<polygon style="fill:#EF7E82;" points="156.427,208.278 150.727,209.917 149.107,208.622 							"/>
						</g>
					</g>
					<g>
						<path style="fill:#11003D;" d="M145.134,202.624c0.147,1.204,0.771,2.119,1.392,2.043c0.621-0.077,1.003-1.115,0.855-2.318
							c-0.148-1.205-0.771-2.119-1.392-2.043C145.368,200.381,144.985,201.419,145.134,202.624z"/>
						<path style="fill:#EF7E82;" d="M141.51,209.873c0.216,1.599,0.622,3.14,1.687,4.391c1.125,1.321,2.953,1.645,4.591,1.691
							c0.417,0.013,0.32,0.655-0.095,0.643c-1.729-0.051-3.566-0.428-4.811-1.729c-1.285-1.344-1.772-3.116-2.016-4.917
							C140.81,209.537,141.453,209.458,141.51,209.873z"/>
						<g>
							<path style="fill:#11003D;" d="M144.301,195.02c-0.645,0.022-1.543,0.325-1.701,1.04c-0.089,0.406-0.731,0.315-0.641-0.095
								c0.22-1.009,1.296-1.556,2.262-1.59C144.636,194.361,144.72,195.005,144.301,195.02L144.301,195.02z"/>
						</g>
					</g>
					<g>
						<g>
							<path style="fill:#11003D;" d="M147.116,173.31c-3.511-0.331-6.905,1.15-10.072,2.403c-2.502-4.751-6.359-7.572-11.904-5.86
								c-5.658,1.599-7.232,6.018-6.427,11.451c-5.323-0.779-10.418-0.541-12.443,5.126c-1.801,4.76-1.443,12.119,2.868,15.393
								c1.929,1.58,4.534,1.802,6.911,1.909c-1.69,3.514-2.811,8.158,2.4,8.939c4.078,0.669,7.693-2.283,8.478-6.136
								c0.336-1.472,0.333-2.944,0.216-4.416c4.06-1.254,5.068-5.108,3.94-8.549c3.809,0.674,9.213,0.422,8.94-3.71
								c5.096,0.553,14.271,2.003,15.841-4.795C157.097,179.628,152.553,173.751,147.116,173.31z"/>
						</g>
						<g>
							<path style="fill:#33138C;" d="M149.974,177.177c-0.05-0.638-1.051-0.643-1,0c0.208,2.631-0.365,4.783-2.806,6.111
								c-3.214,1.749-7.525,1.514-10.869,0.409c-0.309-0.102-0.636,0.169-0.633,0.482c0.046,4.883-5.297,6.655-9.312,5.302
								c-0.613-0.207-0.874,0.759-0.266,0.964c4.469,1.507,10.128-0.59,10.539-5.616c3.655,1.064,7.537,0.888,11.045-0.677
								C149.484,182.898,150.196,179.988,149.974,177.177z"/>
							<path style="fill:#33138C;" d="M122.857,183.139c2.781,0.753,5.955-0.288,7.644-2.705c1.722-2.465,1.468-5.316,0.581-8.058
								c-0.197-0.611-1.163-0.35-0.964,0.266c0.686,2.12,1.046,4.308,0.08,6.405c-1.194,2.59-4.437,3.842-7.075,3.128
								C122.499,182.006,122.235,182.971,122.857,183.139z"/>
							<path style="fill:#33138C;" d="M119.001,186.132c-3.37,0.785-6.57,2.337-6.949,6.121c-0.35,3.49,2.233,6.229,5.431,6.743
								c-1.757,2.685-1.521,7.185,0.892,9.281c0.484,0.421,1.195-0.283,0.707-0.707c-2.233-1.941-2.322-6.506-0.304-8.628
								c0.302-0.318,0.087-0.845-0.354-0.854c-3.696-0.075-5.992-3.32-5.202-6.889c0.579-2.613,3.804-3.581,6.045-4.103
								C119.895,186.95,119.629,185.985,119.001,186.132z"/>
							<path style="fill:#33138C;" d="M126.167,199.222c-3.482-0.854-3.435-3.935-1.934-6.572c0.32-0.562-0.544-1.065-0.863-0.505
								c-1.732,3.044-1.563,6.572,1.812,7.821c-1.96,2.51-2.208,5.676-1.66,8.799c0.111,0.634,1.075,0.365,0.964-0.266
								c-0.528-3.007-0.279-6.124,1.901-8.443C126.637,199.792,126.544,199.314,126.167,199.222z"/>
						</g>
					</g>
					<path style="fill:#EAA294;" d="M118.805,208.88c0.479,3.899,4.03,6.672,7.93,6.192c3.899-0.479,6.672-4.029,6.193-7.93
						c-0.48-3.9-4.031-6.674-7.93-6.193C121.098,201.429,118.325,204.98,118.805,208.88z"/>
					<path style="fill:#EF7E82;" d="M122.831,205.409c1.68-0.436,3.684-0.646,5.066,0.657c0.657,0.619,1.149,1.313,1.462,2.047
						c-1.19-0.191-2.47,0.217-2.534,1.676c-0.062,1.398,0.883,2.508,2.215,2.756c-0.095,0.162-0.197,0.323-0.311,0.482
						c-0.243,0.339,0.267,0.74,0.511,0.398c1.626-2.265,1.633-5.064-0.294-7.205c-1.688-1.877-3.842-2.067-6.195-1.456
						C122.352,204.868,122.427,205.513,122.831,205.409z M129.602,208.828c0.262,1.015,0.188,2.079-0.259,3.113
						c-1.026-0.125-1.982-0.935-1.875-2.058C127.582,208.681,128.632,208.529,129.602,208.828z"/>
				</g>
				<g>
					<g>
						<path style="fill:#C3C8FF;" d="M148.238,243.627c5.759,13.405,15.118,71.726,15.118,71.726s-16.506,20.899-48.577,20.899
							c0,0-6.793-48.078-3.942-75.448C113.688,233.434,135.98,215.098,148.238,243.627z"/>
						<path style="opacity:0.4;fill:#7179DC;" d="M162.817,312.063l-0.646-3.863c-0.787-4.663-1.916-11.202-3.232-18.389
							c-17.262,2.902-21.596-59.19-34.422-55.583c-6.227,1.751-12.429,14.577-13.679,26.576
							C118.751,314.16,152.107,318.926,162.817,312.063z"/>
					</g>
					<g>
						<path style="fill:#EAA294;" d="M203.318,293.02l12.854,0.041c0,0,10.641-4.288,14.809-1.995
							c4.17,2.293,13.322,13.147,12.132,13.476c-1.188,0.326-10.037-7.768-12.805-6.922c-2.766,0.849-6.756,4.614-9.319,4.341
							c-2.56-0.272-5.963-2.891-5.963-2.891l-11.779,1.186L203.318,293.02z"/>
						<path style="fill:#C3C8FF;" d="M138.727,237.994c11.661,9.676,22.873,47.244,26.747,49.623
							c3.873,2.377,35.23,2.957,44.136,4.129l-0.21,8.549c0,0-43.119,17.641-61.843,9.885
							C123.646,300.272,112.252,216.023,138.727,237.994z"/>
					</g>
				</g>
			</g>
			<g>
				<path style="fill:#6975EB;" d="M268.503,306.403c0-1.407-1.142-2.549-2.549-2.549h-60.777c-1.407,0-2.549,1.142-2.549,2.549l0,0
					c0,1.408,1.142,2.55,2.549,2.55h60.777C267.361,308.953,268.503,307.812,268.503,306.403L268.503,306.403z"/>
				<path style="fill:#6975EB;" d="M265.171,308.872c1.344,0.422,2.774-0.325,3.196-1.668l18.212-57.984
					c0.422-1.343-0.325-2.773-1.668-3.195l0,0c-1.344-0.422-2.775,0.325-3.196,1.668l-18.212,57.984
					C263.082,307.02,263.83,308.45,265.171,308.872L265.171,308.872z"/>
				<circle style="fill:#F1F8FF;" cx="265.779" cy="306.403" r="1.75"/>
			</g>
			<g>
				<rect x="125.141" y="368.739" style="fill:#74A1D8;" width="3.994" height="76.998"/>
				<rect x="122.517" y="368.739" style="fill:#F1F8FF;" width="9.241" height="17.687"/>
				<path style="fill:#9CC8F7;" d="M155.975,357.328c0,0-0.029,0.006-0.085,0.018c-0.038,0.002-0.095,0.004-0.17,0.007
					c-0.188,0.022-0.473,0.06-0.852,0.125c-0.764,0.116-1.912,0.275-3.352,0.459c-1.438,0.19-3.185,0.365-5.135,0.508
					c-1.954,0.128-4.118,0.2-6.392,0.109c-2.269-0.089-4.648-0.294-6.996-0.797c-1.182-0.205-2.348-0.526-3.503-0.885
					c-0.582-0.162-1.146-0.384-1.725-0.572c-0.556-0.246-1.135-0.44-1.685-0.71c-2.241-0.979-4.38-2.285-6.467-3.865
					c-0.091-0.072,0.702,0.572,0.351,0.286l-0.032-0.027l-0.063-0.054l-0.127-0.108l-0.255-0.216l-0.255-0.217l-0.119-0.102
					l0.014-0.005c0.018-0.005,0.029-0.003,0.035,0.005c0.003,0.003,0.005,0.009,0.004,0.015c0.007,0.017-0.058-0.07-0.084-0.101
					c-0.277-0.308-0.6-0.732-0.933-1.197c-0.664-0.956-1.351-2.176-2.017-3.435c-1.307-2.566-2.467-5.479-3.436-8.425
					c-0.475-1.478-0.937-2.968-1.339-4.458c-0.378-1.498-0.741-2.986-1.062-4.463c-0.613-2.957-1.087-5.853-1.374-8.614
					c-0.309-2.76-0.458-5.387-0.463-7.804c-0.006-2.415,0.063-4.648,0.264-6.603c0.072-0.989,0.212-1.891,0.301-2.752
					c0.131-0.848,0.251-1.627,0.359-2.331c0.273-1.392,0.467-2.522,0.677-3.259c0.168-0.763,0.258-1.169,0.258-1.169l0.096-0.429
					c0.541-2.45-1.006-4.875-3.455-5.416c-1.832-0.405-3.651,0.361-4.678,1.796c0,0-0.295,0.412-0.846,1.184
					c-0.557,0.778-1.293,1.953-2.194,3.5c-0.401,0.786-0.876,1.655-1.338,2.626c-0.415,0.978-0.946,2.031-1.357,3.192
					c-0.924,2.309-1.711,4.984-2.399,7.947c-0.331,1.484-0.609,3.036-0.865,4.653c-0.211,1.615-0.404,3.293-0.529,5.02
					c-0.225,3.453-0.236,7.106,0.073,10.867c0.278,3.765,0.892,7.63,1.82,11.536c0.466,1.952,1.035,3.913,1.673,5.885
					c0.679,1.968,1.424,3.931,2.346,5.915c0.914,1.99,1.938,3.97,3.304,5.99c0.692,1.018,1.437,2.04,2.335,3.087
					c0.12,0.14,0.188,0.234,0.352,0.409l0.471,0.498c0.317,0.328,0.641,0.652,0.969,0.968l0.246,0.236l0.134,0.118l0.252,0.22
					l0.251,0.22l0.126,0.11l0.063,0.055l0.447,0.366c3.557,2.762,7.611,4.882,11.711,6.301c1.017,0.379,2.068,0.614,3.086,0.91
					c1.033,0.23,2.053,0.478,3.067,0.646c2.034,0.324,4.027,0.509,5.944,0.55c3.846,0.071,7.37-0.404,10.481-1.132
					c3.113-0.738,5.827-1.699,8.12-2.745c2.3-1.022,4.187-2.115,5.696-3.074c1.508-0.966,2.623-1.839,3.386-2.459
					c0.385-0.306,0.678-0.561,0.878-0.742c0.119-0.1,0.209-0.176,0.269-0.227c0.042-0.041,0.063-0.063,0.063-0.063
					c1.829-1.831,1.826-4.798-0.005-6.627c-1.155-1.153-2.762-1.578-4.25-1.274L155.975,357.328z"/>
				<path style="fill:#74A1D8;" d="M149.213,447.626c0-4.692-9.883-8.496-22.075-8.496c-12.192,0-22.075,3.804-22.075,8.496H149.213
					z"/>
				<path style="fill:#74A1D8;" d="M117.267,361.819c-22.275-11.248-17.179-57.965-9.729-70.783
					c2.104,0.771,3.375,2.979,2.879,5.227l-0.096,0.429c0,0-0.09,0.406-0.258,1.169c-0.21,0.736-0.403,1.867-0.677,3.259
					c-0.108,0.704-0.229,1.483-0.359,2.331c-0.089,0.861-0.229,1.763-0.301,2.752c-0.2,1.955-0.27,4.188-0.264,6.603
					c0.005,2.417,0.154,5.044,0.463,7.804c0.287,2.761,0.761,5.657,1.374,8.614c0.32,1.477,0.684,2.965,1.062,4.463
					c0.402,1.49,0.864,2.979,1.339,4.458c0.969,2.945,2.129,5.858,3.436,8.425c0.666,1.259,1.353,2.479,2.017,3.435
					c0.333,0.465,0.655,0.89,0.933,1.197c0.02,0.022,0.053,0.065,0.069,0.085c-0.007-0.003-0.012-0.008-0.024-0.004l-0.014,0.005
					l0.119,0.102l0.255,0.217l0.224,0.19c-0.032-0.025-0.065-0.046-0.098-0.07c-0.091-0.072,0.702,0.572,0.351,0.286l-0.032-0.027
					l-0.063-0.054l-0.127-0.108l-0.031-0.026c2.056,1.547,4.162,2.831,6.369,3.795c0.55,0.27,1.129,0.464,1.685,0.71
					c0.578,0.189,1.142,0.41,1.725,0.572c1.155,0.358,2.321,0.68,3.503,0.885c2.348,0.503,4.727,0.708,6.996,0.797
					c2.273,0.091,4.438,0.019,6.392-0.109c1.95-0.143,3.696-0.317,5.135-0.508c1.439-0.184,2.588-0.343,3.352-0.459
					c0.379-0.065,0.664-0.103,0.852-0.125c0.075-0.003,0.132-0.005,0.17-0.007c0.056-0.012,0.085-0.018,0.085-0.018l0.087-0.019
					c1.488-0.304,3.095,0.121,4.25,1.274c0.433,0.432,0.754,0.931,0.982,1.459C153.175,364.44,135.816,371.186,117.267,361.819z"/>
			</g>
		</g>
		<g>
			<g>
				<path style="fill:#6975EB;" d="M495.002,306.403c0-1.407,1.142-2.549,2.549-2.549h60.777c1.407,0,2.549,1.142,2.549,2.549l0,0
					c0,1.408-1.142,2.55-2.549,2.55h-60.777C496.144,308.953,495.002,307.812,495.002,306.403L495.002,306.403z"/>
				<path style="fill:#6975EB;" d="M498.333,308.872c-1.344,0.422-2.775-0.325-3.196-1.668l-18.212-57.984
					c-0.422-1.343,0.325-2.773,1.668-3.195l0,0c1.344-0.422,2.775,0.325,3.196,1.668l18.212,57.984
					C500.423,307.02,499.675,308.45,498.333,308.872L498.333,308.872z"/>
				<circle style="fill:#F1F8FF;" cx="497.726" cy="306.403" r="1.75"/>
			</g>
			<g>
				<g>
					<polygon style="fill:#EAA294;" points="487.86,412.44 474.02,437.359 485.507,438.067 499.764,415.33 					"/>
					<g>
						<path style="fill:#160E3F;" d="M473.794,431.261c0,0,1.58-4.499,3.016-3.342c1.436,1.156,1.013,4.545,1.013,4.545
							s5.477,2.285,12.273,1.371c0,0-1.151,5.536-2.093,6.645c-0.94,1.112-28.11-0.809-29.338-1.211
							C457.439,438.868,458.653,436.781,473.794,431.261z"/>
						<g>
							<path style="fill:#E7F3FF;" d="M488.513,440.407c-0.04-0.276-0.298-0.476-0.582-0.438
								c-4.991,0.703-14.638,0.109-21.513-0.489c0.155-2.598-1.476-5.093-1.476-5.093c-6.576,2.054-6.944,4.549-6.944,4.549
								c-0.096,0.192-0.059,0.415,0.073,0.567c0.044,0.05,0.097,0.093,0.157,0.123c0.525,0.262,21.86,2.487,29.848,1.362
								C488.356,440.951,488.553,440.69,488.513,440.407z"/>
							<path style="fill:#E7F3FF;" d="M466.985,433.958c0.855,0.26,1.721,1.438,1.728,2.331c0.007,0.66,1.033,0.738,1.028,0.072
								c-0.013-1.351-1.104-2.979-2.425-3.377C466.683,432.794,466.348,433.768,466.985,433.958z"/>
							<path style="fill:#E7F3FF;" d="M469.354,432.844c0.923,0.662,1.593,1.676,1.756,2.808c0.092,0.659,1.105,0.465,1.011-0.19
								c-0.201-1.4-1.059-2.657-2.196-3.475C469.386,431.599,468.814,432.456,469.354,432.844z"/>
							<path style="fill:#E7F3FF;" d="M471.939,431.9c0.972,0.595,1.908,1.398,1.983,2.611c0.04,0.662,1.051,0.461,1.012-0.191
								c-0.09-1.469-1.241-2.553-2.424-3.277C471.945,430.698,471.371,431.553,471.939,431.9z"/>
						</g>
					</g>
					<path style="fill:#7179DC;" d="M599.852,321.603c0,0-64.86,2.651-70.516,11.311c-5.654,8.659-43.829,80.769-43.829,80.769
						s3.182,7.066,13.785,5.299c0,0,45.831-55.021,54.844-61.383c9.013-6.363,70.721,13.414,79.867,3.996
						c9.146-9.418,3.846-31.861,3.846-31.861L599.852,321.603z"/>
					<polygon style="fill:#EAA294;" points="584.651,411.381 597.2,425.253 597.2,438.067 606.787,420.483 591.898,402.898 					"/>
					<g>
						<path style="fill:#1D1970;" d="M595.544,429.711c0,0-3.671-3.044-2.087-3.989c1.583-0.943,4.614,0.632,4.614,0.632
							s4.047-4.341,5.552-11.03c0,0,4.789,3.002,5.504,4.271c0.714,1.268-10.531,26.075-11.333,27.087
							C596.99,447.69,595.454,445.826,595.544,429.711z"/>
						<g>
							<path style="fill:#E7F3FF;" d="M609.235,419.089c-0.272-0.057-0.55,0.114-0.611,0.394c-1.076,4.925-4.986,13.763-7.938,20
								c-2.382-1.048-5.289-0.386-5.289-0.386c-0.359,6.88,1.854,8.095,1.854,8.095c0.146,0.155,0.368,0.199,0.557,0.127
								c0.063-0.024,0.119-0.059,0.171-0.104c0.426-0.4,9.931-19.635,11.651-27.512C609.69,419.425,609.516,419.151,609.235,419.089
								z"/>
							<path style="fill:#E7F3FF;" d="M595.706,437.034c0.539-0.715,1.947-1.114,2.787-0.813c0.619,0.225,1.051-0.712,0.425-0.938
								c-1.269-0.46-3.18-0.002-4.009,1.1C594.509,436.911,595.303,437.565,595.706,437.034z"/>
							<path style="fill:#E7F3FF;" d="M595.484,434.424c0.942-0.634,2.125-0.911,3.243-0.667c0.65,0.141,0.818-0.877,0.172-1.016
								c-1.381-0.3-2.859,0.068-4.021,0.851C594.328,433.964,594.934,434.794,595.484,434.424z"/>
							<path style="fill:#E7F3FF;" d="M595.498,431.671c0.894-0.703,1.976-1.303,3.137-0.951c0.635,0.193,0.799-0.826,0.173-1.015
								c-1.408-0.427-2.824,0.275-3.915,1.136C594.372,431.249,594.976,432.085,595.498,431.671z"/>
						</g>
					</g>
					<g>
						<path style="fill:#C3C8FF;" d="M601.44,320.672c0,0-62.208-0.307-68.394,9.591c-6.185,9.897,4.065,34.641,17.319,50.016
							c13.255,15.375,34.286,33.401,34.286,33.401s5.508,0.354,11.325-8.13c0,0-30.059-45.771-24.05-46.833
							c6.009-1.06,56.907,13.433,63.8,0.884c6.892-12.548,3.181-28.276,3.181-28.276L601.44,320.672z"/>
						<g>
							<g>
								<path style="fill:#7179DC;" d="M626.898,335.637c0,0-0.003,0-0.004,0c-0.285-0.002-0.513-0.234-0.511-0.519
									c0.013-1.476-0.097-2.498-0.098-2.509c-0.031-0.283,0.174-0.536,0.456-0.567c0.267-0.027,0.536,0.173,0.567,0.455
									c0.005,0.045,0.116,1.089,0.104,2.629C627.411,335.41,627.181,335.637,626.898,335.637z"/>
							</g>
							<g>
								<path style="fill:#7179DC;" d="M583.081,403.271c-0.138,0-0.275-0.056-0.377-0.164c-1.22-1.313-2.399-2.599-3.536-3.863
									c-0.191-0.212-0.174-0.536,0.037-0.727c0.211-0.192,0.537-0.174,0.727,0.037c1.135,1.26,2.31,2.543,3.526,3.851
									c0.193,0.208,0.183,0.534-0.025,0.728C583.333,403.225,583.207,403.271,583.081,403.271z M575.401,394.707
									c-0.145,0-0.288-0.061-0.39-0.18c-1.175-1.366-2.301-2.7-3.378-4.005c-0.181-0.219-0.149-0.544,0.069-0.725
									c0.218-0.182,0.544-0.15,0.725,0.069c1.073,1.299,2.193,2.629,3.364,3.989c0.186,0.215,0.161,0.541-0.055,0.726
									C575.64,394.665,575.521,394.707,575.401,394.707z M568.105,385.816c-0.153,0-0.305-0.068-0.406-0.199
									c-1.101-1.415-2.166-2.821-3.163-4.18c-0.168-0.229-0.118-0.551,0.11-0.72c0.227-0.168,0.55-0.12,0.721,0.11
									c0.991,1.351,2.05,2.75,3.145,4.158c0.175,0.224,0.135,0.548-0.091,0.722C568.327,385.781,568.216,385.816,568.105,385.816z
									 M561.332,376.523c-0.164,0-0.326-0.079-0.426-0.227c-1.007-1.49-1.968-2.972-2.856-4.401
									c-0.149-0.242-0.075-0.56,0.166-0.709c0.241-0.149,0.558-0.076,0.709,0.166c0.882,1.419,1.835,2.889,2.833,4.367
									c0.16,0.236,0.098,0.557-0.138,0.715C561.532,376.495,561.432,376.523,561.332,376.523z M555.331,366.719
									c-0.183,0-0.359-0.098-0.453-0.27c-0.862-1.589-1.66-3.167-2.373-4.69c-0.121-0.258-0.009-0.564,0.248-0.685
									c0.257-0.121,0.564-0.011,0.685,0.248c0.704,1.505,1.493,3.064,2.346,4.636c0.136,0.249,0.043,0.561-0.207,0.697
									C555.499,366.698,555.414,366.719,555.331,366.719z M550.573,356.264c-0.211,0-0.41-0.132-0.484-0.342
									c-0.617-1.732-1.13-3.433-1.522-5.054c-0.065-0.277,0.104-0.555,0.381-0.622c0.279-0.061,0.555,0.104,0.621,0.381
									c0.383,1.586,0.885,3.251,1.489,4.948c0.096,0.268-0.044,0.563-0.312,0.658C550.69,356.254,550.631,356.264,550.573,356.264
									z M617.473,347.775c-0.017,0-0.031-0.001-0.048-0.002c-1.194-0.107-2.905-0.322-5.23-0.655
									c-0.281-0.04-0.477-0.302-0.437-0.583c0.041-0.283,0.307-0.474,0.583-0.437c2.308,0.332,4.001,0.544,5.177,0.649
									c0.282,0.025,0.491,0.275,0.467,0.559C617.96,347.573,617.735,347.775,617.473,347.775z M623.368,346.255
									c-0.144,0-0.288-0.06-0.39-0.179c-0.186-0.216-0.161-0.541,0.055-0.726c1.099-0.944,1.944-2.351,2.513-4.183
									c0.084-0.27,0.37-0.424,0.645-0.338c0.271,0.084,0.424,0.372,0.339,0.644c-0.627,2.02-1.577,3.585-2.825,4.657
									C623.607,346.214,623.487,346.255,623.368,346.255z M606.049,346.183c-0.027,0-0.053-0.002-0.08-0.006l-5.177-0.814
									c-0.28-0.044-0.473-0.308-0.428-0.589c0.044-0.281,0.313-0.473,0.589-0.428l5.175,0.814c0.28,0.045,0.472,0.307,0.429,0.589
									C606.518,346.002,606.298,346.183,606.049,346.183z M548.091,345.076c-0.268,0-0.494-0.208-0.514-0.479
									c-0.076-1.108-0.086-2.039-0.086-2.804l0.003-0.938c-0.001-0.455,0.215-1.094,1.249-1.545
									c0.261-0.111,0.564,0.005,0.677,0.266c0.114,0.26-0.005,0.564-0.265,0.678c-0.42,0.183-0.632,0.385-0.632,0.601
									l-0.003,0.939c0,0.747,0.01,1.655,0.085,2.733c0.019,0.283-0.195,0.528-0.478,0.549
									C548.114,345.076,548.103,345.076,548.091,345.076z M594.665,344.387c-0.027,0-0.055-0.002-0.082-0.006
									c-1.693-0.267-3.424-0.537-5.174-0.806c-0.28-0.043-0.474-0.306-0.431-0.587c0.043-0.28,0.303-0.472,0.587-0.431
									c1.751,0.268,3.482,0.539,5.179,0.806c0.28,0.044,0.473,0.308,0.429,0.589C595.132,344.205,594.913,344.387,594.665,344.387
									z M583.27,342.643c-0.025,0-0.051-0.002-0.076-0.005c-1.733-0.256-3.467-0.505-5.182-0.745
									c-0.281-0.039-0.478-0.3-0.438-0.581c0.04-0.282,0.305-0.469,0.581-0.439c1.717,0.24,3.452,0.489,5.19,0.745
									c0.28,0.042,0.476,0.304,0.435,0.585C583.74,342.458,583.52,342.643,583.27,342.643z M571.854,341.07
									c-0.022,0-0.044-0.001-0.065-0.005c-1.784-0.224-3.522-0.428-5.193-0.608c-0.283-0.03-0.487-0.285-0.457-0.567
									c0.03-0.282,0.287-0.482,0.567-0.456c1.678,0.181,3.422,0.387,5.211,0.611c0.282,0.035,0.482,0.292,0.447,0.574
									C572.332,340.88,572.109,341.07,571.854,341.07z M560.39,339.88c-0.014,0-0.026,0-0.038-0.001
									c-1.97-0.146-3.719-0.228-5.202-0.245c-0.284-0.005-0.512-0.237-0.509-0.521c0.003-0.282,0.233-0.509,0.515-0.509
									c0.002,0,0.005,0,0.007,0c1.504,0.018,3.275,0.102,5.264,0.248c0.283,0.021,0.496,0.267,0.477,0.551
									C560.882,339.674,560.656,339.88,560.39,339.88z"/>
							</g>
							<g>
								<path style="fill:#7179DC;" d="M589.187,409.664c-0.134,0-0.268-0.052-0.368-0.155c-0.606-0.621-1.206-1.237-1.796-1.85
									c-0.197-0.204-0.191-0.529,0.014-0.728c0.205-0.195,0.529-0.192,0.729,0.014c0.588,0.61,1.185,1.225,1.79,1.844
									c0.199,0.203,0.195,0.53-0.008,0.728C589.446,409.614,589.316,409.664,589.187,409.664z"/>
							</g>
						</g>
						<path style="fill:#7179DC;" d="M594.597,321.862c6.198,17.001,23.825,29.977,41.117,37.564
							c0.274-0.421,0.529-0.858,0.766-1.308c0.698-1.465,1.269-2.959,1.724-4.459c2.284-8.452,0.644-18.876-0.068-22.556
							l-18.627-5.295l-19.656-4.207C599.852,321.603,597.879,321.684,594.597,321.862z"/>
					</g>
				</g>
				<g>
					<path style="fill:#EAA294;" d="M563.255,297.943l-12.031-0.257c0,0-9.86-4.259-13.813-2.208
						c-3.956,2.049-12.771,11.993-11.665,12.329c1.104,0.334,9.572-7.037,12.144-6.182c2.568,0.857,6.217,4.475,8.62,4.278
						c2.402-0.196,5.648-2.568,5.648-2.568l10.996,1.381L563.255,297.943z"/>
					<g>
						<path style="fill:#6B3FDC;" d="M610.671,255.087c-5.355,12.464-14.058,66.693-14.058,66.693s15.348,19.433,45.168,19.433
							c0,0,6.316-44.705,3.665-70.154C642.796,245.609,622.067,228.56,610.671,255.087z"/>
						<path style="fill:#4C2ECC;" d="M645.446,271.059c-2.65-25.449-23.379-42.499-34.775-15.972
							c-4.488,10.444-11.324,50.207-13.423,62.822c7.078,1.478,14.585,2.411,21.434,0.181c10.373-3.096,19.621-8.934,26.954-16.807
							C646.212,290.66,646.351,279.739,645.446,271.059z"/>
					</g>
					<path style="fill:#6B3FDC;" d="M622.61,248.697c-11.061,8.727-22.342,43.392-25.997,45.513
						c-3.655,2.121-32.815,1.944-41.122,2.828v7.952c0,0,39.678,17.385,57.26,10.604C635.204,306.935,647.725,228.88,622.61,248.697
						z"/>
				</g>
				<g>
					<g>
						<polygon style="fill:#EAA294;" points="613.554,250.429 612.395,228.554 604.804,229.841 602.488,220.061 596.826,219.16 
							605.19,197.801 626.679,194.712 624.563,228.424 628.008,241.999 						"/>
						<g>
							<polygon style="fill:#EF7E82;" points="612.395,228.554 612.786,235.941 621.146,227.139 							"/>
							<polygon style="fill:#EF7E82;" points="596.826,219.16 602.488,220.061 603.889,218.626 							"/>
						</g>
					</g>
					<g>
						<path style="fill:#11003D;" d="M606.992,212.405c0,1.172-0.489,2.123-1.094,2.123c-0.606,0-1.095-0.951-1.095-2.123
							c0-1.172,0.489-2.124,1.095-2.124C606.503,210.282,606.992,211.233,606.992,212.405z"/>
						<path style="fill:#EF7E82;" d="M611.323,218.93c-0.02,1.559-0.226,3.085-1.101,4.411c-0.923,1.4-2.638,1.925-4.204,2.165
							c-0.398,0.061-0.228,0.665,0.166,0.604c1.654-0.252,3.372-0.831,4.411-2.226c1.074-1.441,1.334-3.198,1.354-4.954
							C611.954,218.525,611.328,218.525,611.323,218.93z"/>
						<g>
							<path style="fill:#11003D;" d="M606.893,205.013c0.622-0.054,1.519,0.13,1.754,0.797c0.133,0.379,0.74,0.216,0.604-0.166
								c-0.33-0.941-1.425-1.339-2.357-1.258C606.493,204.42,606.49,205.048,606.893,205.013L606.893,205.013z"/>
						</g>
					</g>
					<g>
						<path style="fill:#11003D;" d="M599.722,194.712c1.168,2.316,11.535,10.953,22.199,10.876c0,0,4.854,5.8,3.545,12.682
							c-1.309,6.881-7.615,12.295,0.643,18.327c8.255,6.032,28.078,2.296,31.15-9.458c3.072-11.754-3.886-22.922-11.602-30.054
							c-1.005-0.93-0.313-9.825-9.512-14.32C618.846,174.311,595.593,186.527,599.722,194.712z"/>
						<g>
							<path style="fill:#33138C;" d="M616.878,199.077c-6.169-1.288-8.657-6.464-10.558-11.906
								c-0.217-0.622-1.212-0.354-0.993,0.273c1.413,4.049,3.041,8.028,6.568,10.678c4.506,3.383,10.953,1.652,15.186,5.667
								c4.983,4.726,2.283,12.568,0.431,18.038c-1.63,4.812-3.157,8.895,0.261,13.233c0.41,0.521,1.134-0.213,0.728-0.728
								c-4.012-5.092-0.082-11.416,1.458-16.81c1.363-4.777,1.459-9.639-1.568-13.789
								C625.788,200.169,620.815,199.899,616.878,199.077z"/>
							<path style="fill:#33138C;" d="M638.003,217.537c1.299-4.648,1.947-9.229-0.219-13.727
								c-1.992-4.135-6.393-6.637-10.215-8.798c-5.313-3.003-9.673-6.365-13.101-11.493c-0.367-0.549-1.259-0.034-0.889,0.519
								c2.858,4.276,6.416,7.71,10.824,10.364c5.032,3.03,10.787,5.464,13.095,11.314c3.765,9.542-8.249,21.421,2.105,28.756
								c0.543,0.385,1.056-0.508,0.519-0.889C634.381,229.516,636.384,223.332,638.003,217.537z"/>
							<path style="fill:#33138C;" d="M650.339,216.261c-0.275-4.433-2.155-8.552-4.336-12.343
								c-4.722-8.202-11.678-14.895-17.79-22.028c-0.432-0.505-1.157,0.227-0.727,0.728c6.274,7.323,13.22,14.161,18.063,22.577
								c2.581,4.483,4.188,9.438,3.725,14.652c-0.347,3.896-3.118,8.371-1.273,12.154c0.291,0.597,1.178,0.074,0.889-0.52
								c-1.269-2.601,0.311-5.992,0.908-8.623C650.292,220.673,650.476,218.497,650.339,216.261z"/>
						</g>
					</g>
					<g>
						<path style="fill:#EAA294;" d="M632.984,215.298c0,3.798-3.079,6.876-6.875,6.876c-3.798,0-6.877-3.078-6.877-6.876
							c0-3.797,3.079-6.876,6.877-6.876C629.905,208.422,632.984,211.501,632.984,215.298z"/>
						<path style="fill:#EF7E82;" d="M628.713,211.817c-2.327-0.308-4.372,0.128-5.769,2.128c-1.596,2.281-1.259,4.965,0.567,6.946
							c0.274,0.298,0.718-0.147,0.443-0.443c-0.129-0.139-0.246-0.282-0.355-0.426c1.25-0.395,2.023-1.571,1.8-2.904
							c-0.233-1.392-1.509-1.633-2.628-1.309c0.212-0.74,0.604-1.464,1.16-2.135c1.173-1.412,3.119-1.448,4.782-1.229
							C629.113,212.497,629.108,211.869,628.713,211.817z M624.794,217.283c0.235,1.065-0.587,1.955-1.557,2.195
							c-0.551-0.939-0.748-1.951-0.615-2.955C623.517,216.121,624.543,216.144,624.794,217.283z"/>
					</g>
				</g>
			</g>
			<g>
				<rect x="620.865" y="368.739" style="fill:#74A1D8;" width="3.994" height="76.998"/>
				<rect x="618.242" y="368.739" style="fill:#F1F8FF;" width="9.241" height="17.687"/>
				<path style="fill:#9CC8F7;" d="M594.025,357.328c0,0,0.029,0.006,0.085,0.018c0.038,0.002,0.095,0.004,0.17,0.007
					c0.188,0.022,0.473,0.06,0.852,0.125c0.764,0.116,1.912,0.275,3.352,0.459c1.438,0.19,3.185,0.365,5.135,0.508
					c1.954,0.128,4.118,0.2,6.392,0.109c2.269-0.089,4.648-0.294,6.996-0.797c1.182-0.205,2.348-0.526,3.503-0.885
					c0.582-0.162,1.146-0.384,1.725-0.572c0.556-0.246,1.135-0.44,1.685-0.71c2.241-0.979,4.38-2.285,6.467-3.865
					c0.091-0.072-0.702,0.572-0.352,0.286l0.032-0.027l0.063-0.054l0.127-0.108l0.255-0.216l0.255-0.217l0.119-0.102l-0.014-0.005
					c-0.018-0.005-0.029-0.003-0.035,0.005c-0.003,0.003-0.005,0.009-0.004,0.015c-0.007,0.017,0.058-0.07,0.084-0.101
					c0.277-0.308,0.6-0.732,0.933-1.197c0.664-0.956,1.351-2.176,2.017-3.435c1.307-2.566,2.467-5.479,3.435-8.425
					c0.475-1.478,0.937-2.968,1.339-4.458c0.378-1.498,0.741-2.986,1.061-4.463c0.613-2.957,1.087-5.853,1.374-8.614
					c0.309-2.76,0.458-5.387,0.463-7.804c0.006-2.415-0.063-4.648-0.264-6.603c-0.072-0.989-0.212-1.891-0.301-2.752
					c-0.131-0.848-0.251-1.627-0.359-2.331c-0.273-1.392-0.467-2.522-0.677-3.259c-0.168-0.763-0.258-1.169-0.258-1.169
					l-0.096-0.429c-0.541-2.45,1.006-4.875,3.455-5.416c1.832-0.405,3.651,0.361,4.678,1.796c0,0,0.295,0.412,0.846,1.184
					c0.557,0.778,1.293,1.953,2.194,3.5c0.401,0.786,0.876,1.655,1.338,2.626c0.415,0.978,0.946,2.031,1.357,3.192
					c0.924,2.309,1.711,4.984,2.399,7.947c0.331,1.484,0.609,3.036,0.865,4.653c0.211,1.615,0.404,3.293,0.529,5.02
					c0.225,3.453,0.236,7.106-0.073,10.867c-0.278,3.765-0.892,7.63-1.82,11.536c-0.466,1.952-1.035,3.913-1.673,5.885
					c-0.679,1.968-1.424,3.931-2.346,5.915c-0.914,1.99-1.938,3.97-3.304,5.99c-0.692,1.018-1.436,2.04-2.335,3.087
					c-0.12,0.14-0.188,0.234-0.352,0.409l-0.471,0.498c-0.317,0.328-0.641,0.652-0.969,0.968l-0.246,0.236l-0.134,0.118l-0.252,0.22
					l-0.251,0.22l-0.126,0.11l-0.063,0.055l-0.447,0.366c-3.557,2.762-7.611,4.882-11.711,6.301
					c-1.017,0.379-2.068,0.614-3.086,0.91c-1.033,0.23-2.053,0.478-3.067,0.646c-2.034,0.324-4.027,0.509-5.944,0.55
					c-3.846,0.071-7.37-0.404-10.481-1.132c-3.113-0.738-5.827-1.699-8.12-2.745c-2.3-1.022-4.187-2.115-5.696-3.074
					c-1.508-0.966-2.623-1.839-3.386-2.459c-0.385-0.306-0.678-0.561-0.878-0.742c-0.119-0.1-0.209-0.176-0.269-0.227
					c-0.042-0.041-0.063-0.063-0.063-0.063c-1.829-1.831-1.826-4.798,0.005-6.627c1.155-1.153,2.762-1.578,4.25-1.274
					L594.025,357.328z"/>
				<path style="fill:#74A1D8;" d="M600.787,447.626c0-4.692,9.883-8.496,22.075-8.496c12.192,0,22.075,3.804,22.075,8.496H600.787z
					"/>
				<path style="fill:#74A1D8;" d="M632.733,361.819c22.275-11.248,17.179-57.965,9.729-70.783
					c-2.104,0.771-3.375,2.979-2.879,5.227l0.096,0.429c0,0,0.09,0.406,0.258,1.169c0.21,0.736,0.403,1.867,0.677,3.259
					c0.108,0.704,0.229,1.483,0.359,2.331c0.089,0.861,0.229,1.763,0.301,2.752c0.2,1.955,0.27,4.188,0.264,6.603
					c-0.005,2.417-0.154,5.044-0.463,7.804c-0.287,2.761-0.761,5.657-1.374,8.614c-0.32,1.477-0.684,2.965-1.061,4.463
					c-0.402,1.49-0.864,2.979-1.339,4.458c-0.969,2.945-2.129,5.858-3.435,8.425c-0.666,1.259-1.353,2.479-2.017,3.435
					c-0.333,0.465-0.655,0.89-0.933,1.197c-0.02,0.022-0.053,0.065-0.069,0.085c0.007-0.003,0.012-0.008,0.024-0.004l0.014,0.005
					l-0.119,0.102l-0.255,0.217l-0.224,0.19c0.032-0.025,0.065-0.046,0.098-0.07c0.091-0.072-0.702,0.572-0.352,0.286l0.032-0.027
					l0.063-0.054l0.127-0.108l0.031-0.026c-2.056,1.547-4.162,2.831-6.369,3.795c-0.55,0.27-1.129,0.464-1.685,0.71
					c-0.578,0.189-1.143,0.41-1.725,0.572c-1.155,0.358-2.321,0.68-3.503,0.885c-2.348,0.503-4.727,0.708-6.996,0.797
					c-2.273,0.091-4.438,0.019-6.392-0.109c-1.95-0.143-3.696-0.317-5.135-0.508c-1.439-0.184-2.588-0.343-3.352-0.459
					c-0.379-0.065-0.664-0.103-0.852-0.125c-0.075-0.003-0.132-0.005-0.17-0.007c-0.056-0.012-0.085-0.018-0.085-0.018l-0.087-0.019
					c-1.488-0.304-3.095,0.121-4.25,1.274c-0.433,0.432-0.754,0.931-0.982,1.459C596.825,364.44,614.185,371.186,632.733,361.819z"
					/>
			</g>
		</g>
		<g>
			<g>
				<rect x="267.107" y="313.21" style="fill:#74A1D8;" width="9.592" height="142.477"/>
				<rect x="545.834" y="313.21" style="fill:#74A1D8;" width="9.592" height="142.477"/>
			</g>
			<rect x="217.405" y="315.81" style="fill:#F1F8FF;" width="387.723" height="8.283"/>
			<path style="fill:#9CC8F7;" d="M614.72,313.21c0,2.338-1.895,4.232-4.232,4.232H212.047c-2.337,0-4.233-1.895-4.233-4.232l0,0
				c0-2.338,1.896-4.232,4.233-4.232h398.441C612.825,308.978,614.72,310.872,614.72,313.21L614.72,313.21z"/>
		</g>
	</g>
</g>
</svg>
