<?xml version="1.0" encoding="utf-8"?>
<!-- Generator: Adobe Illustrator 27.5.0, SVG Export Plug-In . SVG Version: 6.00 Build 0)  -->
<svg version="1.1" xmlns="http://www.w3.org/2000/svg" xmlns:xlink="http://www.w3.org/1999/xlink" x="0px" y="0px"
	 viewBox="0 0 3710 3710" style="enable-background:new 0 0 3710 3710;" xml:space="preserve">
<g id="Background">
	<g>
		<g>
			<rect style="fill:#FFFFFF;" width="3710" height="3710"/>
		</g>
	</g>
</g>
<g id="Illustration">
	<g id="Order_canceled">
		<path style="fill:#F4F7FA;" d="M1895.216,466.089C1192.801,444.758,584.362,968.891,492.437,1656.62
			c-100.506,751.937,452.668,1428.5,1133.325,1536.861c846.624,134.784,1667.8-644.956,1594.067-1490.857
			C3164.278,1065.311,2609.234,487.771,1895.216,466.089z"/>
		<g>
			<g>
				<defs>
					<path id="SVGID_1_" d="M959.439,1089.209c85.377-166.921,212.18-365.224,324.491-165.846s422.386,9.685,521.418-279.763
						c96.91-283.245,656.33-274.419,502.87,357.889c-91.646,377.612-469.924,394.49-658.926,448.427
						s-149.549,342.926-403.335,290.546c-216.779-44.742-393.795-175.227-508.24-27.332
						C623.273,1861.026,902.826,1199.893,959.439,1089.209z"/>
				</defs>
				<clipPath id="SVGID_00000004522929855487560160000015526697536041146033_">
					<use xlink:href="#SVGID_1_"  style="overflow:visible;"/>
				</clipPath>
				
					<linearGradient id="SVGID_00000111906223438810308010000003707506512708014218_" gradientUnits="userSpaceOnUse" x1="5720.9619" y1="2410.7358" x2="4975.2627" y2="4530.0923" gradientTransform="matrix(-0.1901 -0.9818 -0.9818 0.1901 5727.8027 5869.0737)">
					<stop  offset="0.0036" style="stop-color:#E38DDD"/>
					<stop  offset="1" style="stop-color:#9571F6"/>
				</linearGradient>
				
					<path style="clip-path:url(#SVGID_00000004522929855487560160000015526697536041146033_);fill:url(#SVGID_00000111906223438810308010000003707506512708014218_);" d="
					M1805.348,643.601c-99.032,289.447-375.651,480.631-521.417,304.231c-128.834-155.907-239.114-25.544-324.491,141.377
					c-50.584,98.896-130.669,331.533-366.312,286.325c0.233,3.828-0.174,7.819-1.323,11.999
					c-6.362,150.573-18.176,300.845-26.005,451.338c66.133-17.775,122.544-61.934,171.916-125.741
					c114.445-147.896,291.461-17.409,508.241,27.332c253.785,52.38,214.333-236.608,403.334-290.546
					c189.001-53.937,567.281-70.814,658.925-448.427C2461.678,369.181,1902.258,360.355,1805.348,643.601z"/>
				<g style="opacity:0.5;clip-path:url(#SVGID_00000004522929855487560160000015526697536041146033_);">
					<path style="fill:#BEB8F2;" d="M2140.291,378.534c-0.792,618.112-532.59,916.063-978.576,1057.165
						c-204.27,64.631-409.65,103.174-579.202,126.14c-0.163,2.679-0.319,5.359-0.482,8.036
						c170.196-22.99,376.602-61.64,581.919-126.587c285.214-90.222,512.585-212.781,675.8-364.276
						c204.321-189.644,308.098-425.315,308.449-700.47L2140.291,378.534z"/>
					<path style="fill:#BEB8F2;" d="M1750.949,1154.574l-0.53-7.892c262.604-17.724,607.937-185.941,611.394-187.637l3.487,7.097
						C2361.826,967.845,2015.093,1136.745,1750.949,1154.574z"/>
					<path style="fill:#BEB8F2;" d="M1883.623,1024.483c112.229-292.879-13.18-521.933-14.46-524.21l6.892-3.873
						c1.303,2.312,128.556,234.442,14.953,530.912L1883.623,1024.483z"/>
					<path style="fill:#BEB8F2;" d="M839.773,1518.591c349.231-157.679,342.611-672.902,342.127-677.916l7.797-1.273
						c0.941,4.876,5.662,527.317-346.671,686.395L839.773,1518.591z"/>
					<path style="fill:#BEB8F2;" d="M995.341,1490.957l0.111-7.911c244.488,3.377,455.564,227.003,457.669,229.264l-5.785,5.389
						C1445.251,1715.463,1236.416,1494.28,995.341,1490.957z"/>
					<path style="fill:#BEB8F2;" d="M698.71,1774.121c-23.607-21.748-69.336-63.868-123.022-102.862
						c-0.195,3.106-0.391,6.212-0.586,9.316c51.518,37.892,95.383,78.295,118.251,99.362c10.131,9.332,14.318,13.165,16.199,14.284
						l4.038-6.799C712.268,1786.609,705.988,1780.824,698.71,1774.121z"/>
				</g>
			</g>
			<g>
				
					<linearGradient id="SVGID_00000075883395693102118010000005895286048682704290_" gradientUnits="userSpaceOnUse" x1="-1930.819" y1="2431.3726" x2="-1145.2756" y2="4495.4546" gradientTransform="matrix(-0.293 0.9561 -0.9561 -0.293 5073.564 4067.9011)">
					<stop  offset="0" style="stop-color:#FFC444"/>
					<stop  offset="0.9964" style="stop-color:#F36F56"/>
				</linearGradient>
				<path style="fill:url(#SVGID_00000075883395693102118010000005895286048682704290_);" d="M1726.541,1345.422
					c-57.006-62.712-138.988-56.916-197.656-43.429c-2.83,7.635-6.406,11.307-10.955,18.352
					c-41.056,63.593-45.021,99.472-75.592,168.542c-6.58,14.868-12.623,64.379-13.794,84.767l-1.575,38.046
					c0,0,147.897,127.18,229.111,51.502c81.214-75.678,237.002,27.292,326.255,71.671c54.809,27.251,88.604,22.158,110.351,28.938
					c230.2,71.776,271.269,164.853,360.463,142.208c98.464-24.997,76.599-145.582,182.276-178.434
					c119.33-37.095,227.326,91.757,332.406,31.418c18.016-10.344,36.245-21.464,52.929-43.589
					c41.183-54.614,24.239-118.014,91.298-142.756c134.791-49.731,224.632-181.465,151.439-310.173
					c-72.238-127.027-316.483-104.135-576.838,90.094c-200.903,117.018-243.294,103.308-339.217,49.857
					c-67.189-37.437-224.554-183.451-335.952-108.447C1900.09,1368.991,1791.708,1417.115,1726.541,1345.422z"/>
				<g>
					<defs>
						<path id="SVGID_00000052821855810219267470000001453479596212849799_" d="M1455.256,1324.667l-32.383,278.899
							c0,0,151.992,135.315,233.207,59.637c81.215-75.678,237.002,27.292,326.256,71.67
							c242.169,120.411,326.28-181.871,649.658-54.211c86.009,33.954,238.69,129.928,335.837,78.343
							c110.677-58.77,57.987-154.527,144.228-186.345c134.791-49.731,224.631-181.466,151.439-310.173
							c-72.238-127.028-316.483-104.135-576.838,90.092c-200.904,117.02-243.294,103.308-339.217,49.859
							c-67.189-37.438-224.556-183.451-335.953-108.448s-219.779,123.125-284.947,51.434
							C1627.38,1236.335,1455.256,1324.667,1455.256,1324.667z"/>
					</defs>
					<clipPath id="SVGID_00000032633350676750582090000000895441999042201484_">
						<use xlink:href="#SVGID_00000052821855810219267470000001453479596212849799_"  style="overflow:visible;"/>
					</clipPath>
					<g style="opacity:0.5;clip-path:url(#SVGID_00000032633350676750582090000000895441999042201484_);">
						<path style="fill:#FCFDFE;" d="M1453.163,1450.907l-1.291,5.414c29.826,7.407,60,14.479,89.685,21.019
							c219.793,48.406,436.389,72.884,643.779,72.747c175.727-0.117,347.316-17.864,510-52.749
							c130.83-28.054,256.639-67.295,373.931-116.632c82.454-34.685,159.881-73.961,230.125-116.744
							c12.243-7.453,24.393-15.801,36.145-23.874c15.656-10.756,31.844-21.879,48.377-30.968l-2.257-4.931
							c-16.76,9.214-33.059,20.411-48.821,31.24c-11.692,8.034-23.783,16.339-35.901,23.718
							c-70.024,42.648-147.219,81.808-229.44,116.393c-117.001,49.216-242.511,88.36-373.04,116.351
							c-162.349,34.813-333.596,52.524-508.984,52.641c-207.039,0.137-423.29-24.303-642.743-72.636
							C1513.082,1465.366,1482.95,1458.305,1453.163,1450.907z"/>
						<path style="fill:#FCFDFE;" d="M2495.14,1525.58l0.319,5.535c221.467-21.196,536.153,199.007,539.304,201.234l2.922-4.667
							C3034.517,1725.444,2718.38,1504.215,2495.14,1525.58z"/>
						<path style="fill:#FCFDFE;" d="M1872.235,1526.626l-0.282,5.553c151.603,4.482,354.129-226.787,356.158-229.123l-3.738-3.733
							C2222.361,1301.641,2021.469,1531.039,1872.235,1526.626z"/>
						<path style="fill:#FCFDFE;" d="M1786.62,1516.083l-1.188,5.439c96.45,21.708,215.8,107.024,336.057,240.229
							c6.048,6.698,6.048,6.698,7,6.927l1.251-5.426l-0.625,2.713l1.513-2.282c-0.451-0.395-2.735-2.923-5.38-5.857
							C2004.303,1623.863,1884.045,1538.009,1786.62,1516.083z"/>
						<path style="fill:#FCFDFE;" d="M1507.792,1463.592l0.3,5.534c108.978-9.955,203.098-154.201,204.036-155.655l-4.224-3.081
							C1706.979,1311.824,1614.274,1453.863,1507.792,1463.592z"/>
						<path style="fill:#FCFDFE;" d="M1449.915,1458.65c72.662,51.275,133.435,127.051,185.791,231.659l4.57-2.734
							c-52.759-105.41-114.073-181.819-187.443-233.594L1449.915,1458.65z"/>
						<path style="fill:#FCFDFE;" d="M2998.002,1403.392l0.608,5.496c122.706-19.144,254.982-8.798,298.448-5.398
							c10.522,0.823,14.227,1.099,15.539,0.954l-0.394-5.526c-1.003,0.097-7.017-0.374-14.633-0.971
							C3253.966,1394.538,3121.268,1384.16,2998.002,1403.392z"/>
						<path style="fill:#FCFDFE;" d="M2801.985,1466.12l2.094,5.017c105.955-53.443,188.751-288.34,192.225-298.314l-4.837-1.822
							C2990.623,1173.42,2905.96,1413.675,2801.985,1466.12z"/>
					</g>
				</g>
			</g>
			<g>
				
					<linearGradient id="SVGID_00000070117359805058776590000012084530907405782686_" gradientUnits="userSpaceOnUse" x1="3261.6001" y1="2257.8215" x2="4319.124" y2="3998.7786" gradientTransform="matrix(-0.191 0.9816 -0.9816 -0.191 5830.6665 -1809.8134)">
					<stop  offset="0" style="stop-color:#FF9085"/>
					<stop  offset="1" style="stop-color:#FB6FBB"/>
				</linearGradient>
				<path style="fill:url(#SVGID_00000070117359805058776590000012084530907405782686_);" d="M3137.973,702.103
					c-90.745-317.38-578.29-149.727-772.954,172.079c-56.473,93.36-103.224,140.655-145.071,159.783
					c-126.502,48.389-214.107,108.095-270.719,153.665c-164.221,132.189-194.481,247.514-348.517,332.595
					c-97.297,53.742-193.236,67.391-258.023,70.698c1.522,14.142,1.28,28.836-1.142,44.045
					c-4.319,27.137-8.638,54.278-12.959,81.415c56.002,35.044,115.275,57.695,154.475-19.538
					c60.875-119.943,272.851-78.558,340.795-27.868c84.092,62.735,282.766,204.534,379.62,20.648
					c80.632-153.084,103.263-269.05,303.707-238.78c200.446,30.27,346.549-58.493,372.049-251.69
					C2906.067,995.844,3190.047,884.25,3137.973,702.103z"/>
				<g>
					<defs>
						<path id="SVGID_00000054226439483899215510000001712931684425741974_" d="M1283.93,1691.481
							c53.65,37.305,155.344,91.636,199.131,5.363c60.877-119.944,272.852-78.559,340.795-27.87
							c84.092,62.737,282.766,204.534,379.621,20.648c80.631-153.083,103.263-269.048,303.708-238.778
							c200.445,30.269,346.547-58.495,372.047-251.691c26.834-203.309,310.814-314.901,258.738-497.049
							c-90.741-317.382-578.285-149.729-772.951,172.078C2170.355,1195.989,1283.93,1691.481,1283.93,1691.481z"/>
					</defs>
					<clipPath id="SVGID_00000104684506657207890060000007385717992801435799_">
						<use xlink:href="#SVGID_00000054226439483899215510000001712931684425741974_"  style="overflow:visible;"/>
					</clipPath>
					<g style="opacity:0.5;clip-path:url(#SVGID_00000104684506657207890060000007385717992801435799_);">
						<path style="fill:#FCFDFE;" d="M2311.218,1248.836c-154.869,76.737-317.982,135.255-485.016,173.183
							c-11.219,5.877-22.515,11.608-33.879,17.203c185.307-38.718,366.245-102.638,536.953-188.736
							C2323.26,1249.825,2317.241,1249.274,2311.218,1248.836z"/>
						<path style="fill:#FCFDFE;" d="M3119.037,570.218c-185.587,255.639-427.075,467.009-698.8,620.809
							c1.86,1.887,3.774,3.728,5.613,5.633c0.31,0.321,0.769,0.79,1.303,1.337c271.785-154.324,513.327-366.043,699.099-621.935
							L3119.037,570.218z"/>
						<path style="fill:#FCFDFE;" d="M1782.967,1443.816c-4.509,2.185-9.038,4.326-13.567,6.468
							c247.749,60.434,397.056,324.276,398.565,326.99l7.871-4.957C2174.335,1769.61,2027.701,1510.349,1782.967,1443.816z"/>
						<path style="fill:#FCFDFE;" d="M1897.154,911.886c3.221-11.198,4.905-17.68,5.045-18.228l-8.807-2.441
							c-0.145,0.572-1.998,7.685-5.507,19.83C1890.976,911.307,1894.066,911.578,1897.154,911.886z"/>
						<path style="fill:#FCFDFE;" d="M2436.469,1207.815c2.573,2.805,5.418,5.988,8.369,9.445
							c192.872-2.611,407,151.267,409.388,153.003l5.212-7.975C2856.989,1360.505,2634.596,1200.677,2436.469,1207.815z"/>
						<path style="fill:#FCFDFE;" d="M2736.765,975.314l6.661,6.542c164.104-187.262,159.324-530.801,159.252-534.255l-9.121,0.284
							C2893.632,451.295,2898.315,790.972,2736.765,975.314z"/>
					</g>
				</g>
			</g>
		</g>
		<g>
			<g>
				
					<linearGradient id="SVGID_00000147930798784538538480000003306962055635240636_" gradientUnits="userSpaceOnUse" x1="958.1548" y1="568.6213" x2="1517.61" y2="1522.9869">
					<stop  offset="0" style="stop-color:#444B8C"/>
					<stop  offset="0.9964" style="stop-color:#26264F"/>
				</linearGradient>
				<path style="fill:url(#SVGID_00000147930798784538538480000003306962055635240636_);" d="M2958.691,2795.835L690.706,3000.568
					c-33.855,2.763-82.43-42.009-82.43-75.976V1207.439c0-31.79,25.537-57.682,57.323-58.122l2287.559-31.635
					c32.415-0.448,93.684,23.448,93.684,55.866l-34.752,1564.353C3012.09,2768.17,2988.86,2793.373,2958.691,2795.835z"/>
				
					<linearGradient id="SVGID_00000178173440582996582590000007074062663150986168_" gradientUnits="userSpaceOnUse" x1="1594.9224" y1="1254.3467" x2="2773.071" y2="4913.8408">
					<stop  offset="0" style="stop-color:#444B8C"/>
					<stop  offset="0.9964" style="stop-color:#26264F"/>
				</linearGradient>
				<path style="fill:url(#SVGID_00000178173440582996582590000007074062663150986168_);" d="M3004.763,2811.715l-2287.559,186.69
					c-33.855,2.763-62.855-23.968-62.855-57.935V1223.318c0-31.789,25.537-57.682,57.323-58.121l2287.559-31.635
					c32.414-0.448,58.931,25.704,58.931,58.121v1562.097C3058.163,2784.05,3034.933,2809.253,3004.763,2811.715z"/>
				
					<linearGradient id="SVGID_00000158000335004890142790000009362988620595169195_" gradientUnits="userSpaceOnUse" x1="855.0946" y1="2051.2305" x2="2911.7317" y2="2051.2305">
					<stop  offset="0.494" style="stop-color:#EBEFF2"/>
					<stop  offset="1" style="stop-color:#FFFFFF"/>
				</linearGradient>
				<path style="fill:url(#SVGID_00000158000335004890142790000009362988620595169195_);" d="M919.323,2928.722l1937.628-154.293
					c30.934-2.464,54.781-28.286,54.781-59.318V1233.053c0-33.221-27.201-60.008-60.418-59.498l-1937.627,29.748
					c-32.504,0.499-58.592,26.99-58.592,59.498v1606.604C855.095,2904.13,884.707,2931.478,919.323,2928.722z"/>
				
					<linearGradient id="SVGID_00000091705836151740074030000010064313513150192303_" gradientUnits="userSpaceOnUse" x1="3158.1631" y1="1619.8074" x2="2927.4082" y2="2049.8496">
					<stop  offset="0" style="stop-color:#444B8C"/>
					<stop  offset="0.9964" style="stop-color:#26264F"/>
				</linearGradient>
				<path style="fill:url(#SVGID_00000091705836151740074030000010064313513150192303_);" d="M2992.664,2023.61L2992.664,2023.61
					c-11.191,0-20.263-9.072-20.263-20.263v-150.222c0-11.191,9.073-20.262,20.263-20.262l0,0c11.191,0,20.263,9.072,20.263,20.262
					v150.222C3012.927,2014.538,3003.855,2023.61,2992.664,2023.61z"/>
				<path style="opacity:0.9;fill:#FFFFFF;" d="M2569.66,2444.218c-176.468-153.923-317.932-93.71-504.606-250.109
					c-231.714-194.135-116.338-373.152-320.316-544.096c-255.08-213.768-563.298-40.375-754.716-254.497
					c-50.097-56.038-77.987-122.763-92.629-189.645c-24.496,7.395-42.298,30.091-42.298,56.929v1606.604
					c0,34.725,29.612,62.075,64.228,59.317l1855.426-147.747C2740.832,2665.844,2680.409,2540.818,2569.66,2444.218z"/>
			</g>
		</g>
		<g style="opacity:0.3;">
			<path style="fill:#97A6B7;" d="M2641.696,1957.094l-1507.383,56.745c-25.563,0.962-46.331-17.537-46.331-41.299v-100.861
				c0-23.631,20.683-43.367,46.141-44.102l1501.636-43.334c21.928-0.633,40.292,16.546,41.061,38.387l3.283,93.201
				C2680.877,1937.783,2663.702,1956.265,2641.696,1957.094z"/>
			<path style="fill:#97A6B7;" d="M1195.086,2049.539l136.668,499.746c8.706,31.846,39.431,52.567,74.426,50.253l1015.222-67.13
				c31.579-2.088,58.371-25.377,65.073-56.443l103.746-481.452L1195.086,2049.539z M1582.329,2506.22
				c0.217,20.112-16.609,37.516-37.611,38.859l-36.331,2.323c-21.119,1.35-38.414-13.961-38.583-34.185l-3.257-390.556
				c-0.166-19.863,16.689-36.662,37.599-37.534l35.973-1.501c20.796-0.868,37.803,14.431,38.017,34.186L1582.329,2506.22z
				 M1782.544,2493.769c0.302,19.912-16.128,37.134-36.726,38.45l-35.631,2.279c-20.711,1.324-37.746-13.844-38.001-33.866
				l-4.935-386.693c-0.251-19.668,16.21-36.296,36.719-37.152l35.286-1.473c20.399-0.852,37.154,14.305,37.451,33.867
				L1782.544,2493.769z M1978.932,2481.556c0.384,19.717-15.662,36.759-35.868,38.051l-34.951,2.235
				c-20.315,1.299-37.096-13.729-37.435-33.554l-6.548-382.905c-0.333-19.477,15.745-35.937,35.867-36.777l34.62-1.445
				c20.014-0.835,36.523,14.182,36.9,33.555L1978.932,2481.556z M2171.602,2469.575c0.462,19.525-15.211,36.391-35.035,37.659
				l-34.291,2.193c-19.93,1.274-36.463-13.616-36.883-33.247l-8.1-379.192c-0.412-19.29,15.296-35.585,35.04-36.409l33.971-1.418
				c19.64-0.82,35.908,14.06,36.363,33.247L2171.602,2469.575z M2360.658,2457.818c0.538,19.337-14.774,36.031-34.228,37.275
				l-33.648,2.152c-19.556,1.251-35.848-13.505-36.345-32.946l-9.593-375.549c-0.488-19.106,14.86-35.24,34.238-36.049l33.341-1.392
				c19.276-0.804,35.311,13.94,35.84,32.946L2360.658,2457.818z"/>
			<g>
				<g>
					<path style="fill:#97A6B7;" d="M1809.492,1333.865c-7.579-8.069-22.958-6.866-34.363,2.706l-474.742,398.423
						c-12.175,10.217-15.617,25.224-7.672,33.496c7.941,8.27,24.238,6.662,36.381-3.573l473.527-399.099
						C1814,1356.231,1817.068,1341.931,1809.492,1333.865z"/>
				</g>
				<g>
					<path style="fill:#97A6B7;" d="M1996.683,1332.014c7.223-8.081,22.486-6.97,34.089,2.469l460.857,374.895
						c11.277,9.173,14.869,23.23,8.023,31.408c-6.853,8.186-21.577,7.391-32.884-1.79l-462.111-375.217
						C1993.021,1354.332,1989.452,1340.103,1996.683,1332.014z"/>
				</g>
			</g>
		</g>
		<g>
			<g>
				
					<linearGradient id="SVGID_00000005229499481276249870000006567374644287027865_" gradientUnits="userSpaceOnUse" x1="1438.1826" y1="2082.6519" x2="2239.0554" y2="2082.6519" gradientTransform="matrix(0.9957 0.0921 -0.0921 0.9957 277.4176 -262.311)">
					<stop  offset="0" style="stop-color:#FF9085"/>
					<stop  offset="1" style="stop-color:#FB6FBB"/>
				</linearGradient>
				<path style="fill:url(#SVGID_00000005229499481276249870000006567374644287027865_);" d="M2317.383,1992.192
					c-20.399,220.474-215.69,394.643-436.877,388.999c-221.941-5.663-385.778-190.104-365.253-411.942
					c20.525-221.838,217.536-395.958,439.351-388.928C2175.665,1587.327,2337.782,1771.718,2317.383,1992.192z"/>
				<g>
					<path style="fill:#FFFFFF;" d="M1921.531,2234.114c-139.72,0-253.391-113.671-253.391-253.394
						c0-139.72,113.671-253.391,253.391-253.391c139.723,0,253.394,113.671,253.394,253.391
						C2174.925,2120.443,2061.254,2234.114,1921.531,2234.114z M1921.531,1820.534c-88.327,0-160.186,71.859-160.186,160.186
						c0,88.327,71.859,160.189,160.186,160.189c88.327,0,160.189-71.862,160.189-160.189
						C2081.72,1892.392,2009.858,1820.534,1921.531,1820.534z"/>
				</g>
				<g>
					<path style="fill:#FFFFFF;" d="M1804.324,2155.785c-11.883,0-23.763-4.514-32.855-13.552
						c-18.255-18.147-18.339-47.654-0.196-65.906l252.963-254.459c18.153-18.258,47.654-18.339,65.906-0.196
						c18.255,18.147,18.339,47.654,0.196,65.906l-252.963,254.459C1828.265,2151.201,1816.295,2155.785,1804.324,2155.785z"/>
				</g>
			</g>
			<g style="opacity:0.2;">
				
					<linearGradient id="SVGID_00000038392748098555602120000002343515454705252012_" gradientUnits="userSpaceOnUse" x1="1438.1823" y1="2086.9155" x2="2046.0974" y2="2086.9155" gradientTransform="matrix(0.9957 0.0921 -0.0921 0.9957 277.4176 -262.311)">
					<stop  offset="0" style="stop-color:#FF9085"/>
					<stop  offset="1" style="stop-color:#FB6FBB"/>
				</linearGradient>
				<path style="fill:url(#SVGID_00000038392748098555602120000002343515454705252012_);" d="M1883.217,2274.99
					c-29.056-51.423,29.741-93.725,32.14-196.266c3.644-155.712-128.343-212.167-110.655-343.517
					c4.918-36.525,23.067-91.147,91.167-152.504c-196.863,22.1-361.924,184.523-380.616,386.545
					c-20.525,221.839,143.312,406.279,365.253,411.943c75.665,1.93,148.294-17.191,211.933-52
					C2009.607,2334.773,1913.966,2329.406,1883.217,2274.99z"/>
			</g>
		</g>
		<g>
			<path style="fill:#D8DEE8;" d="M2652.039,2887.559c-221.919-2.337-233.506,13.915-235.172,21.379
				c-7.648,34.258,141.196,118.549,299.31,132.552c93.514,8.282,170.664-10.157,324.964-47.034
				c102.886-24.59,154.33-36.884,153.931-51.31C3193.942,2902.352,2817.349,2889.3,2652.039,2887.559z"/>
			<g>
				<g>
					<g>
						<defs>
							<path id="SVGID_00000123438054209264207940000016383330940780533889_" d="M2736.901,2922.615
								c-20.227,4.101-69.857-62.196-55.909-116.871c15.338-60.133,93.899-52.583,118.623-118.154
								c20.189-53.543-24.284-77.408-9.9-150.472c9.764-49.595,43.892-100.878,90.8-127.063
								c61.333-34.238,102.265-1.983,142.099-37.869c46.88-42.233,23.653-117.059,41.762-120.528
								c26.321-5.042,112.492,145.937,63.037,218.598c-41.575,61.082-142.955,13.863-194.216,81.988
								c-43.103,57.284,12.615,111.887-35.251,179.465c-39.411,55.641-98.634,41.393-133.345,106.261
								C2740.902,2882.25,2751.457,2919.664,2736.901,2922.615z"/>
						</defs>
						
							<linearGradient id="SVGID_00000128442713036286329370000015682278565835039377_" gradientUnits="userSpaceOnUse" x1="2919.0168" y1="2282.3218" x2="2901.6606" y2="2971.6057">
							<stop  offset="0.0036" style="stop-color:#E38DDD"/>
							<stop  offset="1" style="stop-color:#9571F6"/>
						</linearGradient>
						
							<use xlink:href="#SVGID_00000123438054209264207940000016383330940780533889_"  style="overflow:visible;fill:url(#SVGID_00000128442713036286329370000015682278565835039377_);"/>
						<clipPath id="SVGID_00000106147139079715857070000001008206466526489242_">
							<use xlink:href="#SVGID_00000123438054209264207940000016383330940780533889_"  style="overflow:visible;"/>
						</clipPath>
						<path style="opacity:0.5;clip-path:url(#SVGID_00000106147139079715857070000001008206466526489242_);fill:#FFFFFF;" d="
							M2746.338,2842.902l-1.185-1.265c58.947-55.256,95.715-116.416,109.283-181.778c7.629-36.755,6.566-67.142,5.627-93.952
							c-1.224-34.995-2.192-62.636,19.699-83.021c21.611-20.122,49.483-19.16,78.991-18.141
							c32.232,1.113,65.561,2.263,93.777-24.086c28.022-26.17,33.69-63.984,36.11-80.131c9.179-61.252-19.015-110.11-31.563-128.272
							l1.427-0.986c12.666,18.333,41.124,67.65,31.851,129.516c-2.446,16.326-8.177,54.558-36.641,81.141
							c-28.74,26.84-62.434,25.676-95.019,24.552c-29.14-1.006-56.665-1.957-77.749,17.676
							c-21.313,19.846-20.405,45.787-19.148,81.692c0.941,26.907,2.008,57.405-5.663,94.364
							C2842.491,2725.931,2805.551,2787.397,2746.338,2842.902z"/>
						<path style="opacity:0.5;clip-path:url(#SVGID_00000106147139079715857070000001008206466526489242_);fill:#FFFFFF;" d="
							M3051.542,2456.953c-4.711-1.524-8.559-3.952-10.927-7.635c-5.241-8.151-0.318-17.973,5.383-29.346
							c6.056-12.083,12.922-25.778,11.343-42.355c-2.177-22.87-20.115-44.939-53.32-65.594l0.917-1.473
							c33.688,20.957,51.9,43.467,54.13,66.903c1.626,17.073-5.662,31.614-11.519,43.297c-5.688,11.349-10.181,20.312-5.474,27.631
							c9.133,14.204,43.253,8.22,59.649,5.344c37.896-6.646,73.664-23.552,106.31-50.252l1.098,1.344
							c-32.88,26.889-68.915,43.919-107.108,50.616C3089.328,2457.658,3066.24,2461.707,3051.542,2456.953z"/>
						<path style="opacity:0.5;clip-path:url(#SVGID_00000106147139079715857070000001008206466526489242_);fill:#FFFFFF;" d="
							M2860.203,2551.435l-0.403-0.493c-9.655-11.79-15.167-24.251-16.385-37.036c-2.475-25.985,13.322-47.674,27.26-66.809
							c12.879-17.682,24.002-32.953,18.699-47.768c-2.995-8.373-10.976-15.212-23.722-20.323l0.646-1.61
							c13.225,5.305,21.539,12.488,24.709,21.349c5.612,15.679-5.761,31.293-18.93,49.374
							c-13.756,18.886-29.348,40.292-26.936,65.624c1.168,12.259,6.415,24.238,15.6,35.611
							c16.697-6.614,33.992-10.059,51.418-10.239c54.321-0.566,93.734,31.253,108.156,44.96l-1.195,1.257
							c-14.268-13.56-53.251-45.04-106.944-44.483c-17.415,0.181-34.704,3.663-51.384,10.351L2860.203,2551.435z"/>
						<path style="opacity:0.5;clip-path:url(#SVGID_00000106147139079715857070000001008206466526489242_);fill:#FFFFFF;" d="
							M2835.382,2723.17l-0.299-0.297c-1.489-1.477-148.905-147.814-155.599-152.414l0.982-1.43
							c6.734,4.627,146.132,142.978,155.539,152.317l228.338-28.3l0.214,1.721L2835.382,2723.17z"/>
					</g>
				</g>
				<g>
					<g>
						<defs>
							<path id="SVGID_00000052807188797049354720000010818136512733479094_" d="M2737.402,2969.759
								c-12.589-4.478-30.632-12.314-49.628-26.175c-19.969-14.57-39.068-28.505-46.374-51.892
								c-8.436-27.004,8.365-35.489-0.082-60.229c-9.6-28.12-35.075-25.251-45.014-54.467c-6.747-19.831-0.964-38.655,4.149-55.299
								c6.13-19.954,20.078-48.638,29.19-46.785c10.802,2.198-3.704,43.552,20.872,72.066c18.61,21.591,40.238,13.322,58.646,38.538
								c2.494,3.417,16.383,22.442,13.354,45.174c-3.712,27.867-25.94,35.262-31.227,58.349
								C2687.514,2905.521,2693.684,2930.871,2737.402,2969.759z"/>
						</defs>
						
							<linearGradient id="SVGID_00000069387952613427195230000002050468565668307085_" gradientUnits="userSpaceOnUse" x1="2604.7219" y1="2881.3347" x2="2667.7625" y2="2833.207">
							<stop  offset="0" style="stop-color:#AA80F9"/>
							<stop  offset="0.9964" style="stop-color:#6165D7"/>
						</linearGradient>
						
							<use xlink:href="#SVGID_00000052807188797049354720000010818136512733479094_"  style="overflow:visible;fill:url(#SVGID_00000069387952613427195230000002050468565668307085_);"/>
						<clipPath id="SVGID_00000146457712189919852190000009277685499745563063_">
							<use xlink:href="#SVGID_00000052807188797049354720000010818136512733479094_"  style="overflow:visible;"/>
						</clipPath>
						<path style="opacity:0.3;clip-path:url(#SVGID_00000146457712189919852190000009277685499745563063_);fill:#FFFFFF;" d="
							M2743.552,2979.554c-3.969-3.79-9.259-8.308-14.86-13.091c-24.571-20.981-58.222-49.718-54.532-76.911
							c1.943-14.319,4.39-25.463,6.357-34.418c3.797-17.284,6.088-27.717,0.77-41.257c-6.303-16.05-17.766-22.865-29.903-30.08
							c-10.917-6.491-22.206-13.202-29.759-27.13c-12.258-22.601-8.78-54.357,10.337-94.385l1.565,0.747
							c-18.864,39.5-22.356,70.725-10.378,92.81c7.326,13.509,18.406,20.097,29.121,26.467
							c11.853,7.047,24.111,14.334,30.632,30.936c5.51,14.032,3.176,24.658-0.69,42.265c-1.961,8.924-4.4,20.03-6.333,34.279
							c-3.563,26.255,29.673,54.636,53.94,75.359c5.62,4.799,10.928,9.332,14.931,13.156L2743.552,2979.554z"/>
						<path style="opacity:0.3;clip-path:url(#SVGID_00000146457712189919852190000009277685499745563063_);fill:#FFFFFF;" d="
							M2632.308,2781.283c-7.462-2.414-15.622-6.465-23.157-13.213c-27.325-24.47-21.064-62.448-20.784-64.053l1.709,0.298
							c-0.274,1.566-6.384,38.628,20.232,62.464c13.784,12.341,29.736,15.421,39.263,16.056
							c-4.161-4.388-13.954-16.694-11.897-33.545c1.715-14.042,10.601-22.845,14.343-25.979l1.114,1.33
							c-3.583,3.001-12.095,11.431-13.735,24.858c-2.342,19.195,11.409,32.247,12.984,33.671l1.755,1.588l-2.365-0.078
							C2647.021,2784.525,2640.039,2783.785,2632.308,2781.283z"/>
						<path style="opacity:0.3;clip-path:url(#SVGID_00000146457712189919852190000009277685499745563063_);fill:#FFFFFF;" d="
							M2682.537,2848.696l-0.304-1.054c-2.59-8.947-8.275-21.645-20.651-31.336c-27.951-21.886-64.063-7.745-65.587-7.133
							l-0.647-1.609c1.561-0.628,38.577-15.118,67.303,7.377c12.257,9.597,18.132,22.04,20.93,31.156
							c5.678-3.409,20.188-13.808,24.855-33.177c6.474-26.865-11.37-46.949-13.426-49.151l1.268-1.183
							c2.122,2.271,20.531,22.993,13.845,50.741c-5.117,21.239-21.677,32.029-26.629,34.829L2682.537,2848.696z"/>
						<path style="opacity:0.3;clip-path:url(#SVGID_00000146457712189919852190000009277685499745563063_);fill:#FFFFFF;" d="
							M2674.613,2902.329l-0.471-1.299c-4.031-11.122-10.61-21.346-19.024-29.568c-11.948-11.673-25.105-17.086-34.053-19.577
							l0.466-1.67c9.142,2.542,22.591,8.077,34.799,20.007c8.275,8.084,14.811,18.063,18.964,28.928l51.791-53.06l1.24,1.211
							L2674.613,2902.329z"/>
					</g>
				</g>
				<g>
					<g>
						<defs>
							<path id="SVGID_00000052094165484939643030000010983039690608051861_" d="M2704.719,2295.163
								c-12.934,6.03,9.458,40.672-0.191,97.505c-15.34,90.351-90.451,112.811-84.036,183.166
								c3.457,37.903,19.944,64.077,19.944,64.077c5.419,8.602,9.504,12.618,28.317,38.061c1.747,2.362,18.608,25.183,22.723,31.498
								c27.879,42.782-28.874,105.47-11.642,166.731c11.903,42.316,43.191,71.069,68.849,89.167
								c-48.132-75.652-47.59-124.163-36.98-155.08c14.714-42.875,48.104-49.906,65.901-103.886
								c12.43-37.701,0.826-48.478,1.127-117.79c0.465-107.187,28.377-118.804,14.212-177.637
								C2776.318,2341.918,2720.873,2287.634,2704.719,2295.163z"/>
						</defs>
						
							<linearGradient id="SVGID_00000116946217899746810080000009931476080173348484_" gradientUnits="userSpaceOnUse" x1="2660.5046" y1="2288.9204" x2="2833.7139" y2="3099.0901">
							<stop  offset="0" style="stop-color:#AA80F9"/>
							<stop  offset="0.9964" style="stop-color:#6165D7"/>
						</linearGradient>
						
							<use xlink:href="#SVGID_00000052094165484939643030000010983039690608051861_"  style="overflow:visible;fill:url(#SVGID_00000116946217899746810080000009931476080173348484_);"/>
						<clipPath id="SVGID_00000031205809339959155150000001320730147529306030_">
							<use xlink:href="#SVGID_00000052094165484939643030000010983039690608051861_"  style="overflow:visible;"/>
						</clipPath>
						<path style="opacity:0.5;clip-path:url(#SVGID_00000031205809339959155150000001320730147529306030_);fill:#FFFFFF;" d="
							M2699.428,2906.882c-9.901-34.796-11.014-68.254-3.307-99.445c5.919-23.958,14.802-37.856,23.391-51.299
							c8.322-13.024,16.184-25.327,19.993-45.544c5.437-28.848-2.548-45.496-11.793-64.772
							c-7.854-16.376-16.756-34.937-18.189-64.192c-1.954-39.895,11.59-64.815,24.688-88.915
							c12.272-22.581,23.864-43.91,23.516-76.555c-0.48-44.995-24.582-90.835-71.636-136.247l1.205-1.248
							c47.4,45.746,71.681,92,72.166,137.477c0.353,33.096-11.888,55.62-23.726,77.403c-12.984,23.89-26.409,48.593-24.479,88.003
							c1.416,28.905,10.237,47.298,18.02,63.526c9.377,19.552,17.475,36.437,11.934,65.844
							c-3.872,20.547-11.821,32.987-20.237,46.156c-8.514,13.323-17.317,27.101-23.169,50.781
							c-7.633,30.893-6.525,64.052,3.293,98.554L2699.428,2906.882z"/>
						<path style="opacity:0.5;clip-path:url(#SVGID_00000031205809339959155150000001320730147529306030_);fill:#FFFFFF;" d="
							M2746.76,2470.375l0.039-1.411c0.309-10.962-1.333-39.062-23.204-63.176c-19.78-21.81-44.754-27.283-54.576-28.626
							l0.235-1.718c10.005,1.365,35.46,6.945,55.625,29.179c21.405,23.6,23.801,50.941,23.68,62.972
							c13.781-6.76,25.605-16.686,34.262-28.775c20.144-28.132,17.6-59.179,15.57-71.22l1.709-0.289
							c2.067,12.257,4.654,43.857-15.869,72.519c-9.092,12.696-21.608,23.05-36.196,29.941L2746.76,2470.375z"/>
						<path style="opacity:0.5;clip-path:url(#SVGID_00000031205809339959155150000001320730147529306030_);fill:#FFFFFF;" d="
							M2723.809,2635.471l-0.887-0.398c-13.599-6.112-24.108-14.645-31.238-25.361c-8.321-12.511-9.455-24.087-10.654-36.342
							c-0.732-7.471-1.488-15.196-3.925-23.558c-6.192-21.246-21.788-40.48-46.353-57.169l0.975-1.435
							c24.907,16.921,40.735,36.475,47.042,58.119c2.482,8.516,3.247,16.323,3.986,23.873c1.177,12.034,2.291,23.401,10.373,35.552
							c6.79,10.206,16.752,18.391,29.62,24.336c4.883-15.157,11.131-29.921,18.58-43.904c13.79-25.89,31.763-49.372,53.42-69.793
							l1.19,1.263c-21.52,20.291-39.379,43.622-53.08,69.345c-7.551,14.176-13.862,29.163-18.756,44.546L2723.809,2635.471z"/>
						<path style="opacity:0.5;clip-path:url(#SVGID_00000031205809339959155150000001320730147529306030_);fill:#FFFFFF;" d="
							M2734.37,2731.396l-0.303-1.488c-1.427-6.978-7.87-30.895-30.869-45.708c-30.019-19.334-62.438-6.964-66.036-5.49
							l-0.657-1.605c3.683-1.51,36.865-14.171,67.633,5.637c22.144,14.261,29.308,36.748,31.304,45.34
							c11.766-10.812,21.936-23.121,30.245-36.606c13.532-21.963,22.145-47.422,24.907-73.624l1.725,0.182
							c-2.789,26.458-11.488,52.169-25.155,74.352c-8.655,14.046-19.309,26.828-31.666,37.992L2734.37,2731.396z"/>
					</g>
				</g>
				<g>
					
						<linearGradient id="SVGID_00000112628420186515453150000009645745228806985149_" gradientUnits="userSpaceOnUse" x1="5286.1504" y1="162.3764" x2="5143.479" y2="492.6343" gradientTransform="matrix(0.8319 0.8423 -0.7114 0.7028 -1059.7736 -1898.8125)">
						<stop  offset="0" style="stop-color:#AA80F9"/>
						<stop  offset="0.9964" style="stop-color:#6165D7"/>
					</linearGradient>
					<path style="fill:url(#SVGID_00000112628420186515453150000009645745228806985149_);" d="M2754.093,2973.197
						c-14.491-7.583-40.853-23.988-55.735-52.662c-26.651-51.348-0.479-111.207,34.643-139.743
						c43.836-35.618,79.167-4.197,120.548-37.743c46.995-38.098,16.51-90.859,65.371-130.368
						c33.166-26.818,76.482-26.177,114.781-25.609c45.916,0.68,116.911,12.656,122.046,33.323
						c6.088,24.502-90.822,19.235-124.063,89.646c-25.172,53.318,12.393,94.476-20.233,149.622
						c-4.421,7.473-29.037,49.081-77.503,56.775c-63.375,10.061-108.453-47.245-147.187-30.471
						C2771.041,2892.775,2754.236,2912.708,2754.093,2973.197z"/>
					<g>
						<defs>
							<path id="SVGID_00000122684584183261607440000004082277824313544590_" d="M2754.093,2973.197
								c-14.491-7.583-40.853-23.988-55.735-52.662c-26.651-51.348-0.479-111.207,34.643-139.743
								c43.837-35.618,79.168-4.197,120.548-37.743c46.996-38.098,16.511-90.859,65.371-130.368
								c33.166-26.818,76.482-26.177,114.781-25.61c45.916,0.681,116.91,12.657,122.046,33.323
								c6.089,24.501-90.822,19.235-124.063,89.646c-25.172,53.318,12.394,94.475-20.232,149.622
								c-4.421,7.473-29.038,49.081-77.504,56.775c-63.375,10.061-108.453-47.245-147.187-30.471
								C2771.04,2892.775,2754.236,2912.708,2754.093,2973.197z"/>
						</defs>
						<clipPath id="SVGID_00000042000451163418338880000006875595729162760616_">
							<use xlink:href="#SVGID_00000122684584183261607440000004082277824313544590_"  style="overflow:visible;"/>
						</clipPath>
						<path style="opacity:0.74;clip-path:url(#SVGID_00000042000451163418338880000006875595729162760616_);fill:#FFFFFF;" d="
							M2748.862,2991.055c-29.639-65.771-34.21-113.136-13.584-140.782c16.455-22.054,41.883-23.833,71.328-25.895
							c29.826-2.088,63.632-4.454,94.32-29.595c28.023-22.956,34.967-49.178,42.318-76.937c6.67-25.191,13.569-51.239,37.732-74.236
							c38.684-36.816,103.624-47.713,193.015-32.39l-0.293,1.71c-88.822-15.226-153.261-4.481-191.526,31.936
							c-23.808,22.659-30.643,48.467-37.252,73.424c-7.098,26.805-14.438,54.523-42.895,77.835
							c-31.115,25.49-65.213,27.877-95.298,29.982c-29.02,2.032-54.08,3.786-70.06,25.202
							c-20.221,27.103-15.585,73.88,13.777,139.032L2748.862,2991.055z"/>
						<path style="opacity:0.74;clip-path:url(#SVGID_00000042000451163418338880000006875595729162760616_);fill:#FFFFFF;" d="
							M2920.058,2781.072c-0.727-0.235-1.431-0.529-2.112-0.882c-11.891-6.18-11.671-27.99-11.457-49.083
							c0.332-33.031,9.645-59.009,15.166-71.554c17.649-40.098,46.13-66.313,66.915-81.245l1.011,1.408
							c-20.609,14.806-48.847,40.797-66.338,80.536c-5.469,12.424-14.691,38.152-15.021,70.874
							c-0.207,20.569-0.421,41.838,10.524,47.527c17.266,8.97,52.895-25.314,66.301-38.227l1.032-0.995
							c8.988-8.645,14.965-16.506,20.238-23.442c7.406-9.741,13.802-18.155,25.783-25.323c18.069-10.812,41.013-13.901,68.192-9.18
							l-0.296,1.709c-26.759-4.649-49.303-1.634-67.005,8.959c-11.694,6.997-17.997,15.286-25.293,24.885
							c-5.311,6.987-11.331,14.905-20.416,23.643l-1.032,0.994C2973.105,2754.336,2938.991,2787.197,2920.058,2781.072z"/>
						<path style="opacity:0.74;clip-path:url(#SVGID_00000042000451163418338880000006875595729162760616_);fill:#FFFFFF;" d="
							M2889.872,2872.537c-18.724-6.057-40.66-22.149-65.573-48.152l-0.758-0.791l0.943-0.557
							c15.798-9.323,28.072-21.278,36.483-35.532c9.861-16.712,11.435-31.857,13.615-52.82l0.179-1.716
							c6.484-62.212,9.739-93.44,15.127-106.615c10.494-25.666,32.16-47.478,64.398-64.826l0.821,1.528
							c-31.873,17.152-53.277,38.67-63.614,63.954c-5.293,12.946-8.539,44.091-15.006,106.14l-0.179,1.715
							c-2.203,21.179-3.793,36.482-13.847,53.52c-8.394,14.226-20.554,26.193-36.154,35.584
							c37.387,38.819,67.758,54.967,90.282,48.001c12.549-3.88,19.421-13.761,27.38-25.2c7.977-11.467,17.019-24.463,33.88-34.663
							c21.815-13.196,49.34-17.159,81.81-11.779l-0.283,1.711c-32.051-5.31-59.178-1.423-80.63,11.553
							c-16.545,10.008-25.475,22.843-33.352,34.169c-8.142,11.703-15.172,21.81-28.292,25.867
							C2908.969,2876.144,2899.878,2875.774,2889.872,2872.537z"/>
						<path style="clip-path:url(#SVGID_00000042000451163418338880000006875595729162760616_);fill:#FFFFFF;" d="M2862.6,2934.843
							c-44.271-14.319-68.575-46.554-68.83-46.9c-1.36-1.834-2.723-3.794-4.126-5.814c-7.366-10.601-15.73-22.61-30.644-26.549
							c-8.107-2.136-17.006-1.568-26.454,1.688l-1.139,0.394l-0.011-1.205c-0.097-11.206,2.528-20.834,7.802-28.616
							c6.719-9.915,16.707-13.905,25.518-17.426c9.002-3.597,16.777-6.702,19.536-15.036c6.509-19.663-3.681-37.003-5.79-40.28
							l1.459-0.938c2.183,3.392,12.735,21.351,5.978,41.763c-3.013,9.1-11.526,12.501-20.54,16.102
							c-8.58,3.428-18.305,7.313-24.726,16.789c-4.885,7.208-7.407,16.095-7.502,26.431c9.352-3.027,18.198-3.48,26.31-1.342
							c15.555,4.087,24.09,16.389,31.628,27.236c1.392,2.004,2.745,3.949,4.094,5.771c0.27,0.363,27.515,36.488,76.914,48.844
							c47.792,11.956,95.486-23.252,113.771-38.945l1.13,1.316c-18.491,15.868-66.744,51.463-115.323,39.312
							C2868.551,2936.66,2865.529,2935.791,2862.6,2934.843z"/>
					</g>
				</g>
			</g>
		</g>
		<g>
			
				<linearGradient id="SVGID_00000115474411205284017240000013090208028439307440_" gradientUnits="userSpaceOnUse" x1="1271.9817" y1="2735.4333" x2="1259.9039" y2="2973.9658">
				<stop  offset="0" style="stop-color:#FF9085"/>
				<stop  offset="1" style="stop-color:#FB6FBB"/>
			</linearGradient>
			<polygon style="fill:url(#SVGID_00000115474411205284017240000013090208028439307440_);" points="1259.254,2918.524 
				1822.705,2777.587 1850.887,2914.477 1335.063,3152.549 926.631,3051.659 680.248,2809.747 			"/>
			
				<linearGradient id="SVGID_00000065789597854038334000000014547706787676899480_" gradientUnits="userSpaceOnUse" x1="1271.9817" y1="2735.4333" x2="1259.9039" y2="2973.9658">
				<stop  offset="0" style="stop-color:#AA80F9"/>
				<stop  offset="0.9964" style="stop-color:#6165D7"/>
			</linearGradient>
			<polygon style="fill:url(#SVGID_00000065789597854038334000000014547706787676899480_);" points="1259.254,2918.524 
				1822.705,2777.587 1850.887,2914.477 1335.063,3152.549 926.631,3051.659 680.248,2809.747 			"/>
			
				<linearGradient id="SVGID_00000021806820161790324400000004275119241768359343_" gradientUnits="userSpaceOnUse" x1="1241.5414" y1="2949.417" x2="1947.4839" y2="2949.417">
				<stop  offset="0" style="stop-color:#AA80F9"/>
				<stop  offset="0.9964" style="stop-color:#6165D7"/>
			</linearGradient>
			<path style="fill:url(#SVGID_00000021806820161790324400000004275119241768359343_);" d="M1241.541,3108.004
				c111.988-60.038,194.695-121.188,250.836-167.41c110.46-90.945,161.131-159.55,272.959-186.659
				c19.987-4.844,133.852-32.448,170.596,18.116c40.682,55.983-38.411,173.052-48.018,187.273
				c-142.87,211.471-506.694,201.603-620.814,194.745C1258.581,3138.712,1250.062,3123.357,1241.541,3108.004z"/>
			
				<linearGradient id="SVGID_00000110460481249683351140000007247969867696065426_" gradientUnits="userSpaceOnUse" x1="1241.5408" y1="2951.0601" x2="1947.4824" y2="2951.0601">
				<stop  offset="0" style="stop-color:#AA80F9"/>
				<stop  offset="0.9964" style="stop-color:#6165D7"/>
			</linearGradient>
			<path style="opacity:0.3;fill:url(#SVGID_00000110460481249683351140000007247969867696065426_);" d="M1935.933,2772.051
				c-10.739-14.776-28.135-22.75-47.778-26.695c6.536,22.632,7.131,43.87-1.035,62.425c-22.324,50.714-88.433,35.094-134.867,94.608
				c-45.604,58.451-14.035,114.784-54.349,138.893c-46.206,27.632-103.488-36.923-152.983-6.039
				c-33.652,20.996-23.183,60.831-62.4,82.53c-27.102,14.995-53.669,7.904-84.543,4.026c-35.388-4.447-83.868-5.397-144.723,7.315
				c4.615,8.318,9.231,16.635,13.848,24.955c114.118,6.858,477.942,16.725,620.812-194.745
				C1897.522,2945.103,1976.616,2828.034,1935.933,2772.051z"/>
			
				<linearGradient id="SVGID_00000088090682468466914390000017490140379748567954_" gradientUnits="userSpaceOnUse" x1="1441.4475" y1="3224.1052" x2="1305.5751" y2="3055.0198">
				<stop  offset="0" style="stop-color:#311944"/>
				<stop  offset="1" style="stop-color:#6B3976"/>
			</linearGradient>
			<path style="fill:url(#SVGID_00000088090682468466914390000017490140379748567954_);" d="M1326.207,3139.605
				c0,0,20.52-14.714,50.297-4.687c29.776,10.027,77.058,18.119,76.986,32.678c-0.073,14.56-47.379,23.671-80.07,17.688
				C1342.149,3179.559,1317.555,3152.38,1326.207,3139.605z"/>
			
				<linearGradient id="SVGID_00000103265458504402699450000012949390287294190471_" gradientUnits="userSpaceOnUse" x1="1358.0293" y1="3183.9526" x2="1170.8242" y2="2948.4365">
				<stop  offset="0" style="stop-color:#FFC444"/>
				<stop  offset="0.9964" style="stop-color:#F36F56"/>
			</linearGradient>
			<path style="fill:url(#SVGID_00000103265458504402699450000012949390287294190471_);" d="M1296.136,3114.753l54.801,17.628
				c0,0,8.902,14.828-3.112,24.233c-12.013,9.404-53.761-10.484-53.761-10.484L1296.136,3114.753z"/>
			
				<linearGradient id="SVGID_00000106143495876561667560000006619615302771815554_" gradientUnits="userSpaceOnUse" x1="955.0007" y1="2941.5176" x2="799.4533" y2="3265.0564">
				<stop  offset="0" style="stop-color:#AA80F9"/>
				<stop  offset="0.9964" style="stop-color:#6165D7"/>
			</linearGradient>
			<path style="fill:url(#SVGID_00000106143495876561667560000006619615302771815554_);" d="M534.429,2862.131
				c-16.181,94.21,187.142,196.123,233.688,219.453c94.862,47.548,273.355,114.671,538.27,89.028
				c3.524-21.136,7.046-42.272,10.568-63.407c-34.996-11.989-86.859-31.476-147.037-61.078
				c-102.703-50.521-141.701-86.601-284.217-172.765c-157.702-95.344-203.639-107.575-250.626-95.775
				C594.898,2787.677,541.947,2818.354,534.429,2862.131z"/>
			
				<linearGradient id="SVGID_00000050620687419503744160000010428597433746303890_" gradientUnits="userSpaceOnUse" x1="905.3065" y1="3307.175" x2="1232.7826" y2="2603.1013">
				<stop  offset="0.0036" style="stop-color:#F36F56"/>
				<stop  offset="1" style="stop-color:#FFC444"/>
			</linearGradient>
			<path style="fill:url(#SVGID_00000050620687419503744160000010428597433746303890_);" d="M746.289,2682.979
				c-34.369-124.303,22.364-292.026,141.912-372.896c97.579-66.007,211.913-61.724,247.591-60.388
				c39.054,1.463,35.02,6.534,157.955,29.278c170.672,31.579,186.428,23.923,236.076,47.717
				c93.354,44.741,138.653,126.03,147.129,141.847c43.383,80.947,78.69,231.432-3.708,305.023
				c-46.84,41.837-112.507,41.664-149.46,37.743c-2.516-16.606-5.031-33.214-7.548-49.821c7.521-5.825,51.888-41.388,57.368-104.169
				c6.301-72.151-44.132-118.722-49.82-123.795c-17.888,34.531-39.905,86.966-49.819,153.99
				c-12.802,86.553,0.455,157.726,11.68,199.578c-45.136,24.775-119.775,58.392-216.999,69.148
				c-73.249,8.104-163.943-7.414-221.926-52.727c-81.818-63.94-88.734-204.902-7.928-378.214
				c-29.577,19.813-72.427,55.655-90.202,112.394c-2.687,8.579-7.238,25.415-9.059,90.582
				C936.263,2845.355,781.907,2811.79,746.289,2682.979z"/>
			
				<linearGradient id="SVGID_00000072974467083002061000000005181887156884599432_" gradientUnits="userSpaceOnUse" x1="1184.6156" y1="2368.7351" x2="1210.1986" y2="2782.5801">
				<stop  offset="0.0036" style="stop-color:#F36F56"/>
				<stop  offset="1" style="stop-color:#FFC444"/>
			</linearGradient>
			<path style="opacity:0.3;fill:url(#SVGID_00000072974467083002061000000005181887156884599432_);" d="M1300.349,2769.032
				c-41.172,5.048-52.377,47.793-90.582,45.29c-83.128-5.443-149.848-149.356-114.737-227.964
				c22.895-51.253,82.578-60.191,78.505-93.602c-3.257-26.734-44.68-47.305-78.505-48.311c-52.663-1.563-87.437,44.297-99.64,60.388
				c-28.518,37.608-34.666,78.902-35.311,105.46c20.927-41.054,54.257-68.619,78.713-85.002
				c-80.806,173.313-73.89,311.08,7.928,375.021c57.982,45.311,148.676,64.024,221.926,55.921
				c78.91-8.73,142.938-32.519,188.394-54.417C1412.871,2829.919,1356.616,2762.132,1300.349,2769.032z"/>
			
				<linearGradient id="SVGID_00000104681766602602671110000005461961979850656400_" gradientUnits="userSpaceOnUse" x1="962.068" y1="2910.0085" x2="1445.0627" y2="2910.0085">
				<stop  offset="0" style="stop-color:#AA80F9"/>
				<stop  offset="0.9964" style="stop-color:#6165D7"/>
			</linearGradient>
			<polygon style="fill:url(#SVGID_00000104681766602602671110000005461961979850656400_);" points="1443.83,2886.286 
				962.068,2879.094 1090.177,2940.923 1445.063,2917.695 			"/>
			
				<linearGradient id="SVGID_00000171704574209485778560000010255061668276398522_" gradientUnits="userSpaceOnUse" x1="704.3135" y1="3250.5942" x2="1041.2975" y2="2526.0784">
				<stop  offset="0.0036" style="stop-color:#F36F56"/>
				<stop  offset="1" style="stop-color:#FFC444"/>
			</linearGradient>
			<path style="fill:url(#SVGID_00000171704574209485778560000010255061668276398522_);" d="M769.583,2600.152
				c37.176-35.188,128.377-13.025,162.399,37.535c25.046,37.219,4.318,67.845,22.645,114.737
				c22.453,57.445,107.146,109.383,159.195,126.67c-8.147,17.541-5.75,22.083-13.897,39.624
				c-33.11-4.135-272.444-40.797-330.991-182.9C765.885,2728.413,729.718,2637.885,769.583,2600.152z"/>
			<path style="fill:#FFFFFF;" d="M1312.842,2229.169c0,0-38.961,42.13-71.3,46.516c-32.34,4.385-79.077-4.206-87.13,0
				c-8.053,4.204,40.615,21.519,79.216,32.106c38.6,10.588,108.684,31.74,128.06,27.108c19.376-4.633-21.174-29.476-37.232-36.063
				c-16.059-6.587,6.926-40.42,6.926-40.42L1312.842,2229.169z"/>
			<g>
				
					<linearGradient id="SVGID_00000072277456353001093210000017563463534465096106_" gradientUnits="userSpaceOnUse" x1="-1243.2402" y1="1269.813" x2="-1313.6968" y2="1090.8665" gradientTransform="matrix(-0.7945 -0.6073 -0.6073 0.7945 992.7459 529.0761)">
					<stop  offset="0" style="stop-color:#311944"/>
					<stop  offset="1" style="stop-color:#6B3976"/>
				</linearGradient>
				<path style="fill:url(#SVGID_00000072277456353001093210000017563463534465096106_);" d="M1370.65,2253.295
					c14.088-3.884,26.957-19.7,26.797-36.088c-0.139-14.1-10.039-23.723-15.964-29.485c-17.171-16.698-47.015-27.15-68.651-16.174
					c-12.821,6.505-18.674,36.033-19.97,41.152c-1.466,5.791,0.795,9.907,1.419,15.619c0.864,7.921,2.128,20.431,3.968,41.141
					c3.622-2.904,8.346-6.31,14.136-9.491c2.227-1.222,11.021-5.934,20.526-8.135
					C1351.965,2247.426,1357.296,2256.979,1370.65,2253.295z"/>
				<path style="fill:#FFFFFF;" d="M1290.163,2247.009c0,0-3.268,29.873,22.64,47.273c23.196,15.577,64.589-31.463,58.579-52.845
					c-2.006-7.133-10.311-15.849-19.631-19.606c-5.504-2.219-8.486-1.52-17.41-5.319c-8.231-3.504-9.584-5.759-12.997-5.611
					c-4.27,0.185-10.284,4.068-17.114,21.88c-0.927-7.512-4.723-13.047-9.612-14.116c-0.78-0.169-3.091-0.305-5.15,0.6
					C1282.022,2222.542,1281.623,2233.747,1290.163,2247.009z"/>
				
					<linearGradient id="SVGID_00000129204062097444403870000013677253408248869261_" gradientUnits="userSpaceOnUse" x1="-1264.7607" y1="1278.3877" x2="-1335.2937" y2="1099.2469" gradientTransform="matrix(-0.7945 -0.6073 -0.6073 0.7945 992.7459 529.0761)">
					<stop  offset="0" style="stop-color:#311944"/>
					<stop  offset="1" style="stop-color:#6B3976"/>
				</linearGradient>
				<path style="fill:url(#SVGID_00000129204062097444403870000013677253408248869261_);" d="M1322.628,2207.165
					c0.452,1.616-5.866,3.083-10.441,8.521c-8.884,10.556-7.928,32.175,2.49,41.972c6.161,5.792,11.087,3.185,23.002,10.509
					c7.379,4.534,12.389,9.776,15.362,13.31c-5.762,14.643-18.219,24.073-30.488,23.446c-13.214-0.676-21.435-12.772-24.872-17.829
					c-2.299-3.385-9.682-14.208-7.868-27.227c1.89-13.567,11.539-15.187,10.289-26.312c-0.631-5.611-3.642-10.15-2.82-19.441
					c0.223-2.523,0.656-4.575,0.991-5.92C1308.624,2206.546,1321.97,2204.828,1322.628,2207.165z"/>
				
					<linearGradient id="SVGID_00000168116656426066915140000001409063397578126471_" gradientUnits="userSpaceOnUse" x1="1325.7585" y1="2277.0479" x2="1343.2277" y2="2277.0479">
					<stop  offset="0.0036" style="stop-color:#F36F56"/>
					<stop  offset="1" style="stop-color:#FFC444"/>
				</linearGradient>
				<path style="fill:url(#SVGID_00000168116656426066915140000001409063397578126471_);" d="M1341.603,2279.74
					c0,0-6.691-1.184-14.578-7.998c-0.385-0.331-0.916-0.553-1.127-0.385c-0.792,0.635,1.797,8.217,7.724,10.599
					c4.21,1.693,9.425,0.492,9.601-0.701C1343.297,2280.752,1342.477,2280.196,1341.603,2279.74z"/>
			</g>
			<g>
				
					<linearGradient id="SVGID_00000182518208218969146640000006378704318622188936_" gradientUnits="userSpaceOnUse" x1="1092.5774" y1="2789.5139" x2="1694.3342" y2="2789.5139">
					<stop  offset="0" style="stop-color:#444B8C"/>
					<stop  offset="0.9964" style="stop-color:#26264F"/>
				</linearGradient>
				<path style="fill:url(#SVGID_00000182518208218969146640000006378704318622188936_);" d="M1126.601,2637.002l-33.958,309.195
					c-1.172,10.668,13.765,26.563,24.485,26.055l498.169-30.583c8.184-0.387,15-6.413,16.388-14.489l62.525-298.625
					c1.867-10.869-17.669-22.093-28.692-21.783l-522.047,14.679C1134.754,2621.695,1127.553,2628.333,1126.601,2637.002z"/>
				
					<linearGradient id="SVGID_00000083787071687541884610000011460601930779719327_" gradientUnits="userSpaceOnUse" x1="1103.9222" y1="2795.1831" x2="1694.866" y2="2795.1831">
					<stop  offset="0" style="stop-color:#444B8C"/>
					<stop  offset="0.9964" style="stop-color:#26264F"/>
				</linearGradient>
				<path style="fill:url(#SVGID_00000083787071687541884610000011460601930779719327_);" d="M1137.986,2646.018l-33.957,309.195
					c-1.172,10.669,7.465,19.86,18.186,19.353l504.468-23.881c8.185-0.387,15-6.413,16.387-14.489l51.539-299.992
					c1.867-10.869-6.682-20.726-17.704-20.416l-522.048,14.678C1146.139,2630.71,1138.938,2637.35,1137.986,2646.018z"/>
			</g>
			
				<linearGradient id="SVGID_00000103230972396517145060000009155052427108702100_" gradientUnits="userSpaceOnUse" x1="1103.9216" y1="2801.9941" x2="1650.1825" y2="2801.9941">
				<stop  offset="0" style="stop-color:#444B8C"/>
				<stop  offset="0.9964" style="stop-color:#26264F"/>
			</linearGradient>
			<path style="opacity:0.3;fill:url(#SVGID_00000103230972396517145060000009155052427108702100_);" d="M1434.21,2878.233
				c-44.048-18.67-28.502-54.271-80.517-98.634c-68.619-58.523-138.561-33.144-163.048-78.505
				c-7.625-14.128-11.266-36.112,2.015-71.693l-37.803,1.063c-8.718,0.245-15.918,6.884-16.87,15.552l-33.958,309.195
				c-1.171,10.668,7.468,19.86,18.187,19.353l504.468-23.881c8.185-0.387,15-6.412,16.387-14.489l7.112-41.397
				c-15.306-8.517-33.598-16.263-54.938-20.592C1521.235,2859.196,1484.921,2899.725,1434.21,2878.233z"/>
			<path style="fill:#FFFFFF;" d="M1084.813,2907.962c21.077,19.731,35.156,17.973,39.885,16.883
				c7.93-1.827,8.993-6.247,29.106-21.989c17.968-14.063,23.644-15.642,23.434-20.491c-0.399-9.183-21.345-17.229-38.402-18.083
				c-23.913-1.198-41.978,11.649-49.072,17.357L1084.813,2907.962z"/>
		</g>
	</g>
</g>
</svg>
