<?xml version="1.0" encoding="utf-8"?>
<!-- Generator: Adobe Illustrator 27.5.0, SVG Export Plug-In . SVG Version: 6.00 Build 0)  -->
<svg version="1.1" xmlns="http://www.w3.org/2000/svg" xmlns:xlink="http://www.w3.org/1999/xlink" x="0px" y="0px"
	 viewBox="0 0 500 500" style="enable-background:new 0 0 500 500;" xml:space="preserve">
<g id="Background_Complete">
	<g>
		<rect y="382.398" style="fill:#EBEBEB;" width="500" height="0.25"/>
		<rect x="416.779" y="398.494" style="fill:#EBEBEB;" width="33.122" height="0.25"/>
		<rect x="322.527" y="401.208" style="fill:#EBEBEB;" width="8.693" height="0.25"/>
		<rect x="396.586" y="389.208" style="fill:#EBEBEB;" width="19.192" height="0.25"/>
		<rect x="52.459" y="390.888" style="fill:#EBEBEB;" width="43.193" height="0.25"/>
		<rect x="104.556" y="390.888" style="fill:#EBEBEB;" width="6.333" height="0.25"/>
		<rect x="131.471" y="395.111" style="fill:#EBEBEB;" width="93.676" height="0.25"/>
		<path style="fill:#EBEBEB;" d="M237.014,337.8H43.915c-3.147,0-5.708-2.561-5.708-5.708V60.66c0-3.147,2.561-5.708,5.708-5.708
			h193.099c3.146,0,5.707,2.561,5.707,5.708v271.432C242.721,335.239,240.16,337.8,237.014,337.8z M43.915,55.203
			c-3.01,0-5.458,2.448-5.458,5.458v271.432c0,3.01,2.448,5.458,5.458,5.458h193.099c3.009,0,5.457-2.448,5.457-5.458V60.66
			c0-3.009-2.448-5.458-5.457-5.458H43.915z"/>
		<path style="fill:#EBEBEB;" d="M453.31,337.8H260.212c-3.147,0-5.707-2.561-5.707-5.708V60.66c0-3.147,2.561-5.708,5.707-5.708
			H453.31c3.148,0,5.708,2.561,5.708,5.708v271.432C459.019,335.239,456.458,337.8,453.31,337.8z M260.212,55.203
			c-3.009,0-5.457,2.448-5.457,5.458v271.432c0,3.01,2.448,5.458,5.457,5.458H453.31c3.01,0,5.458-2.448,5.458-5.458V60.66
			c0-3.009-2.448-5.458-5.458-5.458H260.212z"/>
	</g>
	<g>
		<polygon style="fill:#E0E0E0;" points="304.435,84.778 312.065,76.15 316.04,87.82 327.323,84.547 325.069,96.133 336.981,99.091 
			329.1,107.489 338.45,115.886 327.056,118.845 331.338,130.431 319.482,127.157 317.549,138.828 308.409,130.2 300.779,138.828 
			296.803,127.157 285.52,130.431 287.775,118.845 275.862,115.886 283.743,107.489 274.393,99.091 285.788,96.133 281.506,84.547 
			293.362,87.82 295.295,76.15 		"/>
		<g>
			<path style="fill:#FAFAFA;" d="M298.342,101.304c0.68,0.606,0.983,1.415,0.911,2.431c-0.047,0.656-0.253,1.253-0.619,1.791
				c-0.367,0.538-0.897,0.969-1.591,1.292c-0.695,0.323-1.534,0.484-2.518,0.484c-0.759,0-1.498-0.099-2.217-0.299
				c-0.719-0.2-1.322-0.484-1.808-0.854l1.12-1.907c0.388,0.308,0.843,0.546,1.364,0.716c0.521,0.169,1.064,0.253,1.627,0.253
				c0.625,0,1.126-0.122,1.503-0.369c0.376-0.245,0.58-0.589,0.611-1.03c0.033-0.462-0.13-0.81-0.487-1.046
				c-0.358-0.235-0.998-0.353-1.921-0.353h-2.753l0.983-6.06h6.567l-0.142,2h-4.491l-0.314,2.045h0.877
				C296.563,100.397,297.661,100.7,298.342,101.304z"/>
			<path style="fill:#FAFAFA;" d="M302.292,106.641c-0.666-0.44-1.167-1.079-1.502-1.915c-0.336-0.835-0.463-1.832-0.381-2.991
				c0.082-1.158,0.351-2.155,0.805-2.991c0.453-0.835,1.045-1.473,1.773-1.915c0.728-0.44,1.539-0.661,2.43-0.661
				c0.892,0,1.671,0.22,2.337,0.661c0.666,0.442,1.166,1.08,1.502,1.915c0.335,0.836,0.462,1.833,0.38,2.991
				c-0.082,1.159-0.35,2.157-0.804,2.991c-0.454,0.836-1.045,1.474-1.773,1.915c-0.729,0.441-1.539,0.661-2.431,0.661
				C303.737,107.302,302.958,107.081,302.292,106.641z M306.384,104.349c0.414-0.563,0.663-1.435,0.747-2.615
				c0.084-1.179-0.042-2.05-0.376-2.615c-0.334-0.563-0.829-0.846-1.486-0.846c-0.646,0-1.176,0.283-1.59,0.846
				c-0.414,0.564-0.663,1.436-0.747,2.615c-0.084,1.179,0.042,2.051,0.376,2.615c0.334,0.564,0.824,0.846,1.47,0.846
				C305.435,105.195,305.97,104.914,306.384,104.349z"/>
			<path style="fill:#FAFAFA;" d="M311.44,101.358c-0.459-0.538-0.656-1.258-0.592-2.16c0.064-0.903,0.363-1.623,0.898-2.162
				c0.536-0.538,1.198-0.807,1.988-0.807c0.789,0,1.411,0.269,1.865,0.807c0.454,0.538,0.648,1.259,0.585,2.162
				c-0.064,0.902-0.361,1.622-0.891,2.16c-0.53,0.538-1.19,0.807-1.98,0.807C312.524,102.165,311.9,101.896,311.44,101.358z
				 M314.257,100.474c0.22-0.288,0.35-0.713,0.39-1.276c0.04-0.564-0.03-0.99-0.209-1.277c-0.18-0.287-0.444-0.43-0.792-0.43
				c-0.339,0-0.621,0.145-0.846,0.438c-0.226,0.292-0.358,0.715-0.397,1.269c-0.039,0.553,0.033,0.976,0.217,1.268
				c0.184,0.293,0.446,0.439,0.784,0.439C313.752,100.905,314.036,100.761,314.257,100.474z M320.139,96.352h1.831l-8.115,10.766
				h-1.83L320.139,96.352z M318.908,106.88c-0.388-0.241-0.679-0.587-0.872-1.039c-0.193-0.451-0.269-0.974-0.227-1.568
				c0.042-0.595,0.192-1.118,0.449-1.57c0.258-0.451,0.597-0.797,1.02-1.037c0.422-0.24,0.889-0.362,1.402-0.362
				c0.79,0,1.414,0.269,1.873,0.807c0.459,0.538,0.657,1.259,0.593,2.161c-0.064,0.902-0.364,1.622-0.899,2.16
				c-0.536,0.538-1.198,0.807-1.988,0.807C319.746,107.24,319.296,107.12,318.908,106.88z M321.202,105.541
				c0.221-0.292,0.35-0.715,0.389-1.268c0.039-0.554-0.03-0.978-0.21-1.269c-0.179-0.293-0.443-0.438-0.792-0.438
				c-0.338,0-0.62,0.144-0.845,0.431c-0.225,0.287-0.358,0.712-0.398,1.277c-0.04,0.563,0.032,0.989,0.217,1.276
				c0.184,0.287,0.447,0.431,0.784,0.431C320.697,105.98,320.982,105.834,321.202,105.541z"/>
			<path style="fill:#FAFAFA;" d="M292.881,122.471c-0.863-0.482-1.518-1.146-1.966-1.991c-0.447-0.846-0.634-1.797-0.559-2.854
				c0.075-1.055,0.396-2.006,0.964-2.853c0.568-0.846,1.317-1.509,2.248-1.992c0.931-0.481,1.955-0.722,3.073-0.722
				c1.118,0,2.105,0.242,2.963,0.722c0.858,0.483,1.513,1.146,1.966,1.992c0.453,0.846,0.642,1.797,0.567,2.853
				c-0.075,1.056-0.399,2.008-0.971,2.854c-0.573,0.845-1.323,1.51-2.249,1.991c-0.926,0.482-1.948,0.722-3.066,0.722
				C294.734,123.193,293.743,122.953,292.881,122.471z M297.756,120.634c0.533-0.293,0.965-0.701,1.294-1.223
				c0.329-0.523,0.517-1.118,0.565-1.785c0.047-0.666-0.056-1.26-0.312-1.784c-0.255-0.523-0.628-0.931-1.12-1.223
				c-0.492-0.293-1.056-0.438-1.692-0.438c-0.636,0-1.22,0.145-1.753,0.438c-0.534,0.292-0.965,0.7-1.295,1.223
				c-0.329,0.523-0.517,1.118-0.565,1.784c-0.047,0.667,0.057,1.262,0.312,1.785c0.255,0.522,0.629,0.93,1.121,1.223
				c0.492,0.292,1.055,0.438,1.691,0.438C296.638,121.072,297.222,120.925,297.756,120.634z"/>
			<path style="fill:#FAFAFA;" d="M306.744,114.243l-0.202,2.845h4.983l-0.142,2h-4.983l-0.278,3.921h-2.492l0.763-10.766h8.136
				l-0.142,2H306.744z"/>
			<path style="fill:#FAFAFA;" d="M316.572,114.243l-0.202,2.845h4.983l-0.142,2h-4.983l-0.278,3.921h-2.492l0.763-10.766h8.136
				l-0.142,2H316.572z"/>
		</g>
	</g>
	<g>
		
			<ellipse transform="matrix(0.2298 -0.9732 0.9732 0.2298 -80.1194 257.4871)" style="fill:#EBEBEB;" cx="122.615" cy="179.361" rx="14.521" ry="14.521"/>
		
			<ellipse transform="matrix(0.2298 -0.9732 0.9732 0.2298 -80.1194 257.4871)" style="fill:#E0E0E0;enable-background:new    ;" cx="122.615" cy="179.361" rx="12.441" ry="12.441"/>
		<g>
			<path style="fill:#FAFAFA;" d="M123.412,185.361v1.883h-1.378v-1.866c-1.647-0.101-3.244-0.639-4.118-1.395l0.756-1.698
				c0.824,0.673,2.084,1.16,3.361,1.277v-3.361c-1.865-0.454-3.866-1.059-3.866-3.395c0-1.714,1.244-3.21,3.866-3.462v-1.899h1.378
				v1.866c1.244,0.067,2.504,0.437,3.412,1.025l-0.689,1.697c-0.891-0.521-1.832-0.807-2.723-0.907v3.395
				c1.866,0.454,3.899,1.042,3.899,3.378C127.312,183.613,126.051,185.092,123.412,185.361z M122.034,178.167v-2.992
				c-1.193,0.185-1.697,0.79-1.697,1.529C120.337,177.512,121.059,177.881,122.034,178.167z M125.16,182.049
				c0-0.823-0.739-1.21-1.748-1.496v2.975C124.639,183.344,125.16,182.772,125.16,182.049z"/>
		</g>
	</g>
	<g>
		<g>
			<path style="fill:#E0E0E0;" d="M137.304,89.335l-1.205-2.577c-13.048,0.604-14.948-4.329-15.219-5.901
				c-0.503-2.913,1.899-5.566,5.353-5.915c4.76-0.492,8.335,3.811,10.215,6.645c2.213-2.977,6.78-5.437,10.387-5.437
				c0.001,0,0.002,0,0.004,0c2.761,0,4.835,1.3,5.721,3.928c0.712,2.111,0.079,3.417-0.57,4.229
				c-2.746,3.434-11.59,2.769-14.257,2.494L137.304,89.335z M138.397,84.114c4.011,0.351,9.773,0.089,11.24-1.745
				c0.234-0.292,0.475-0.593,0.159-1.531c-0.449-1.332-1.274-1.771-2.703-1.771c-0.001,0-0.002,0-0.003,0
				C143.9,79.067,139.648,81.785,138.397,84.114z M127.228,77.821c-0.15,0-0.3,0.008-0.451,0.023
				c-1.963,0.198-3.209,1.623-3.011,2.765c0.222,1.286,2.828,3.475,10.908,3.271C133.5,81.864,130.711,77.821,127.228,77.821z"/>
		</g>
		<polygon style="fill:#F5F5F5;" points="165.273,124.288 108.413,124.288 108.413,85.227 165.09,85.227 		"/>
		<polygon style="fill:#E0E0E0;" points="150.743,85.227 146.123,85.227 146.306,124.288 150.926,124.288 		"/>
		<polygon style="fill:#EBEBEB;enable-background:new    ;" points="131.086,124.288 108.493,124.288 108.493,85.227 
			130.903,85.227 		"/>
		<polygon style="fill:#E0E0E0;" points="119.789,124.288 116.396,124.288 116.214,85.227 119.606,85.227 		"/>
	</g>
	<g>
		<path style="fill:#EBEBEB;" d="M106.631,334.251l-3.375,11.408h-1.916c0,0-0.657-10.116-1.537-10.06
			c-0.579,0.033-7.576,3.164-9.848,7.353c-1.471,2.707-7.052,2.707-7.052,2.707H63.807c0.579-3.899,9.826-6.261,10.116-6.339h0.011
			c0,0,10.372-5.927,13.892-10.506c3.531-4.579,8.812-13.636,13.224-10.105c0.245,0.189,0.468,0.412,0.691,0.657
			C105.584,323.534,106.631,334.251,106.631,334.251z"/>
		<path style="fill:#E0E0E0;enable-background:new    ;" d="M101.741,319.367c-0.345,0.501-1.081,1.003-2.161,1.392
			c-4.178,1.515-5.136,7.977-9.325,13.525c-3.676,4.846-11.854,5.715-15.909,5.102c-0.145-0.022-0.279-0.045-0.412-0.067
			c0,0,10.372-5.927,13.892-10.506c3.531-4.579,8.812-13.636,13.224-10.105C101.295,318.9,101.518,319.122,101.741,319.367z"/>
		<path style="fill:#F5F5F5;" d="M117.917,334.251l-3.375,11.408h-1.916c0,0-0.657-10.116-1.537-10.06
			c-0.579,0.033-7.576,3.164-9.848,7.353c-1.471,2.707-7.052,2.707-7.052,2.707H75.092c0.579-3.899,9.826-6.261,10.116-6.339h0.011
			c0,0,10.372-5.927,13.892-10.506c3.532-4.579,8.812-13.636,13.224-10.105c0.245,0.189,0.468,0.412,0.691,0.657
			C116.869,323.534,117.917,334.251,117.917,334.251z"/>
		<path style="fill:#E6E6E6;enable-background:new    ;" d="M113.026,319.367c-0.345,0.501-1.081,1.003-2.161,1.392
			c-4.178,1.515-5.136,7.977-9.325,13.525c-3.676,4.846-11.854,5.715-15.909,5.102c-0.145-0.022-0.279-0.045-0.412-0.067
			c0,0,10.372-5.927,13.892-10.506c3.532-4.579,8.812-13.636,13.224-10.105C112.58,318.9,112.803,319.122,113.026,319.367z"/>
	</g>
	<g>
		<path style="fill:#E0E0E0;" d="M378.46,182.898c9.276,0.386,15.896,1.323,18.225,3.15l-11.925-43.875h-1.8L378.46,182.898z"/>
		<g>
			<polygon style="fill:#EBEBEB;" points="384.76,142.173 428.86,142.173 435.16,184.473 396.685,186.048 			"/>
		</g>
		<path style="fill:#EBEBEB;" d="M378.46,182.898c10.46,0.516,16.732,1.542,18.225,3.15l-0.21-0.774
			c-3.497-2.646-8.36-2.975-13.73-2.443l2.016-40.658h-1.8L378.46,182.898z"/>
		<g>
			<path style="fill:#F0F0F0;" d="M390.46,142.173c1.125-15.525,27-16.2,28.575,0h2.925c-4.275-18.675-31.275-18.45-34.087,0H390.46
				z"/>
		</g>
		<g>
			<path style="fill:#E0E0E0;" d="M384.76,142.173h44.1c2.185,14.668-3.099,21.822-8.381,21.938
				C409.51,164.708,392.666,153.84,384.76,142.173z"/>
			<polygon style="opacity:0.7;fill:#FAFAFA;" points="421.857,160.145 414.854,160.848 414.348,158.711 421.182,158.261 			"/>
			<polygon style="opacity:0.2;fill:#E0E0E0;" points="414.723,161.036 421.857,160.342 421.857,160.145 414.854,160.848 
				414.348,158.711 			"/>
		</g>
	</g>
	<g>
		<polygon style="fill:#E0E0E0;" points="97.591,268.292 97.591,221.442 94.622,221.442 94.622,268.292 84.807,270.272 
			84.807,272.243 107.407,272.243 107.407,270.272 		"/>
		<path style="fill:#E6E6E6;" d="M84.912,228.274c5.912-7.882,5.025-11.923,0.591-17.835c-4.434-5.912-1.949-11.528-1.949-11.528
			l10.15-1.204v-3.906h4.805v3.906l10.15,1.204c0,0,2.485,5.616-1.949,11.528c-4.434,5.912-5.321,9.953,0.591,17.835
			c5.912,7.882-0.887,27.027-0.887,27.027h-7.906h-4.805h-7.906C85.798,255.301,79,236.156,84.912,228.274z"/>
		<g>
			<path style="fill:#F5F5F5;" d="M109.968,236.014c-0.599-8.688-5.981-10.706-6.457-16.992c-0.275-3.629,2.288-6.445,3.189-8.468
				c0,0-3.135-5.224-1.485-12.482l-3.814-0.495c0,0-0.981,7.692-5.295,8.1c-4.314-0.408-5.295-8.1-5.295-8.1l-3.814,0.495
				c1.65,7.258-1.485,12.482-1.485,12.482c0.902,2.023,3.464,4.839,3.189,8.468c-0.476,6.285-5.858,8.303-6.457,16.992
				c-0.738,10.702,2.91,21.94,2.91,21.94l10.602,0.516v0.034l0.349-0.017l0.349,0.017v-0.034l10.602-0.516
				C107.058,257.954,110.706,246.716,109.968,236.014z"/>
		</g>
	</g>
	<g>
		<g>
			<path style="fill:#F0F0F0;" d="M412.39,319.321c-11.607,0-21.053-9.446-21.053-21.053c0-11.607,9.446-21.053,21.053-21.053
				c11.607,0,21.053,9.446,21.053,21.053C433.443,309.876,423.997,319.321,412.39,319.321z M412.39,284.015
				c-7.859,0-14.253,6.395-14.253,14.253s6.394,14.253,14.253,14.253c7.859,0,14.253-6.395,14.253-14.253
				S420.248,284.015,412.39,284.015z"/>
		</g>
		<g>
			<polygon style="fill:#E0E0E0;" points="402.112,263.914 397.965,268.061 412.388,282.485 426.814,268.061 422.667,263.914 			"/>
			<polygon style="fill:#EBEBEB;enable-background:new    ;" points="407.611,263.914 405.682,268.061 412.389,282.485 
				419.097,268.061 417.169,263.914 			"/>
		</g>
	</g>
</g>
<g id="Background_Simple" style="display:none;">
	<g style="display:inline;">
		<path style="fill:#407BFF;" d="M111.734,92.756c27.619-14.595,62.992-17.564,91.105-2.568
			c24.22,12.92,32.926,39.096,41.419,63.386c11.876,33.967,32.331,73.031,74.32,49.812c28.702-15.872,58.186-44.693,93.891-29.097
			c32.467,14.182,39.345,54.92,29.799,85.769c-30.938,99.976-156.733,137.94-249.195,107.303
			C108.286,339.268,12.19,236.805,60.62,142.659C71.127,122.233,89.862,104.315,111.734,92.756z"/>
		<path style="opacity:0.9;fill:#FFFFFF;enable-background:new    ;" d="M111.734,92.756c27.619-14.595,62.992-17.564,91.105-2.568
			c24.22,12.92,32.926,39.096,41.419,63.386c11.876,33.967,32.331,73.031,74.32,49.812c28.702-15.872,58.186-44.693,93.891-29.097
			c32.467,14.182,39.345,54.92,29.799,85.769c-30.938,99.976-156.733,137.94-249.195,107.303
			C108.286,339.268,12.19,236.805,60.62,142.659C71.127,122.233,89.862,104.315,111.734,92.756z"/>
	</g>
</g>
<g id="Shadow_1_">
	<ellipse id="_x3C_Path_x3E__359_" style="fill:#F5F5F5;" cx="250" cy="416.238" rx="193.889" ry="11.323"/>
</g>
<g id="Device">
	<g>
		<g>
			<g>
				<rect x="228.887" y="321.167" style="fill:#263238;" width="48.6" height="96.604"/>
				<rect x="228.887" y="352.259" style="opacity:0.2;" width="48.6" height="14.903"/>
				<g>
					<rect x="196.084" y="411.271" style="fill:#263238;" width="114.204" height="6.649"/>
					<rect x="196.084" y="411.271" style="opacity:0.2;" width="114.204" height="6.649"/>
				</g>
			</g>
			<g>
				<path style="fill:#263238;" d="M391.135,362.685H115.238c-5.9,0-10.682-4.783-10.682-10.682V167.974
					c0-5.9,4.783-10.682,10.682-10.682h275.897c5.9,0,10.682,4.783,10.682,10.682v184.028
					C401.817,357.902,397.034,362.685,391.135,362.685z"/>
				<path style="opacity:0.5;fill:#FFFFFF;" d="M391.135,362.685H115.238c-5.9,0-10.682-4.783-10.682-10.682V167.974
					c0-5.9,4.783-10.682,10.682-10.682h275.897c5.9,0,10.682,4.783,10.682,10.682v184.028
					C401.817,357.902,397.034,362.685,391.135,362.685z"/>
			</g>
			<rect x="109.618" y="164.042" style="fill:#263238;" width="286.116" height="176.989"/>
			
				<ellipse transform="matrix(0.2298 -0.9732 0.9732 0.2298 -147.8192 517.7401)" style="fill:#E0E0E0;" cx="253.186" cy="352.259" rx="7.72" ry="7.72"/>
			<rect x="114.738" y="167.21" style="opacity:0.7;fill:#FFFFFF;" width="275.875" height="170.654"/>
			<g style="display:none;">
				<rect x="114.738" y="328.886" style="display:inline;opacity:0.1;fill:#FFFFFF;" width="275.875" height="8.978"/>
				<rect x="114.738" y="167.21" style="display:inline;fill:#407BFF;" width="275.875" height="170.654"/>
				<rect x="114.738" y="167.21" style="display:inline;opacity:0.6;fill:#FFFFFF;" width="275.875" height="161.676"/>
				<path style="display:inline;fill:#FFFFFF;" d="M260.907,220.405h110.317l-8.151-2.445c0,0,7.065-4.891,2.174-12.499
					c-4.891-7.608-14.129,0-14.129,0s5.999-4.399-0.668-10.894c-6.668-6.495-14.343,0.569-14.343,0.569s-0.866-9.782-12.432-8.695
					c-11.565,1.087-9.521,14.415-9.521,14.415s-5.36-9.29-15.174-1.663c-9.814,7.627,1.055,17.409,1.055,17.409L260.907,220.405z"/>
				<g style="display:inline;">
					<path style="fill:#407BFF;" d="M390.613,328.886H114.738v-68.933c0,0,92.671-36.82,209.862,0c53.449,11.482,66.013,0,66.013,0
						V328.886z"/>
					<path style="opacity:0.4;fill:#FFFFFF;" d="M390.613,328.886H114.738v-68.933c0,0,92.671-36.82,209.862,0
						c53.449,11.482,66.013,0,66.013,0V328.886z"/>
				</g>
				<g style="display:inline;">
					<path style="fill:#407BFF;" d="M390.613,328.886H114.738v-35.633c0,0,50.67-12.273,137.938,0
						c87.268,12.273,137.938,0,137.938,0V328.886z"/>
					<path style="opacity:0.2;fill:#FFFFFF;" d="M390.613,328.886H114.738v-35.633c0,0,50.67-12.273,137.938,0
						c87.268,12.273,137.938,0,137.938,0V328.886z"/>
				</g>
				<g style="display:inline;">
					<rect x="117.47" y="330.472" style="fill:#263238;" width="9.238" height="5.807"/>
					<rect x="117.47" y="330.472" style="opacity:0.5;fill:#FFFFFF;" width="9.238" height="5.807"/>
				</g>
			</g>
		</g>
		<g>
			<g>
				<rect x="114.738" y="167.21" style="fill:#407BFF;" width="275.875" height="168.425"/>
			</g>
			<g style="opacity:0.9;">
				<rect x="114.738" y="167.21" style="fill:#FFFFFF;" width="275.875" height="170.654"/>
			</g>
			<g>
				<g>
					<rect x="202.972" y="219.527" style="fill:#407BFF;" width="187.641" height="65.471"/>
				</g>
				<g style="opacity:0.4;">
					<rect x="202.972" y="219.527" style="fill:#FFFFFF;" width="187.641" height="65.471"/>
				</g>
			</g>
			<g>
				<g>
					<rect x="142.858" y="219.527" style="fill:#407BFF;" width="60.114" height="65.471"/>
				</g>
				<g style="opacity:0.7;">
					<rect x="142.858" y="219.527" style="fill:#FFFFFF;" width="60.114" height="65.471"/>
				</g>
			</g>
			<g>
				<g>
					<rect x="114.738" y="219.527" style="fill:#407BFF;" width="28.12" height="65.471"/>
				</g>
				<g style="opacity:0.6;">
					<rect x="114.738" y="219.527" style="fill:#FFFFFF;" width="28.12" height="65.471"/>
				</g>
			</g>
			<g>
				<g>
					<rect x="167.723" y="203.48" style="fill:#407BFF;" width="158.916" height="9.528"/>
				</g>
				<g style="opacity:0.8;">
					<rect x="167.723" y="203.48" style="fill:#FFFFFF;" width="158.916" height="9.528"/>
				</g>
			</g>
			<g>
				<g>
					<rect x="326.639" y="203.48" style="fill:#407BFF;" width="10.317" height="9.528"/>
				</g>
				<g style="opacity:0.5;">
					<rect x="326.639" y="203.48" style="fill:#FFFFFF;" width="10.317" height="9.528"/>
				</g>
			</g>
			<g>
				<rect x="114.738" y="167.21" style="fill:#407BFF;" width="275.875" height="10.77"/>
			</g>
			<g>
				<path style="fill:#FFFFFF;" d="M364.219,172.595c0,1.706-1.383,3.089-3.089,3.089c-1.706,0-3.089-1.383-3.089-3.089
					c0-1.706,1.383-3.089,3.089-3.089C362.836,169.505,364.219,170.889,364.219,172.595z"/>
				<path style="fill:#FFFFFF;" d="M376.081,172.595c0,1.706-1.383,3.089-3.089,3.089c-1.706,0-3.089-1.383-3.089-3.089
					c0-1.706,1.383-3.089,3.089-3.089C374.698,169.505,376.081,170.889,376.081,172.595z"/>
				<path style="fill:#FFFFFF;" d="M387.944,172.595c0,1.706-1.383,3.089-3.089,3.089c-1.706,0-3.09-1.383-3.09-3.089
					c0-1.706,1.383-3.089,3.09-3.089C386.56,169.505,387.944,170.889,387.944,172.595z"/>
			</g>
			<g>
				<path style="fill:#263238;" d="M123.648,212.213c-0.63-0.149-1.147-0.35-1.552-0.601l0.871-1.971
					c0.382,0.222,0.81,0.399,1.283,0.533c0.473,0.133,0.927,0.201,1.363,0.201c0.374,0,0.642-0.036,0.802-0.109
					c0.16-0.073,0.241-0.181,0.241-0.326c0-0.168-0.105-0.294-0.315-0.378c-0.21-0.084-0.556-0.175-1.037-0.275
					c-0.618-0.13-1.134-0.268-1.547-0.418c-0.412-0.149-0.771-0.393-1.077-0.734c-0.306-0.339-0.458-0.8-0.458-1.379
					c0-0.504,0.141-0.962,0.424-1.375c0.282-0.412,0.705-0.736,1.266-0.973c0.561-0.237,1.243-0.355,2.045-0.355
					c0.549,0,1.09,0.059,1.62,0.177c0.531,0.118,0.998,0.293,1.403,0.521l-0.813,1.96c-0.787-0.397-1.531-0.596-2.234-0.596
					c-0.695,0-1.042,0.168-1.042,0.503c0,0.161,0.103,0.281,0.309,0.361c0.206,0.08,0.546,0.167,1.019,0.258
					c0.61,0.115,1.126,0.246,1.546,0.395c0.42,0.149,0.785,0.392,1.094,0.727c0.309,0.337,0.464,0.794,0.464,1.375
					c0,0.503-0.141,0.96-0.424,1.368c-0.283,0.408-0.705,0.733-1.266,0.974c-0.561,0.24-1.243,0.361-2.045,0.361
					C124.925,212.436,124.277,212.362,123.648,212.213z"/>
				<path style="fill:#263238;" d="M131.751,206.331h-2.348v-2.096h7.399v2.096h-2.348v5.922h-2.703V206.331z"/>
				<path style="fill:#263238;" d="M139.265,211.898c-0.687-0.359-1.225-0.857-1.615-1.495c-0.39-0.637-0.584-1.357-0.584-2.159
					c0-0.802,0.194-1.521,0.584-2.159c0.39-0.638,0.928-1.136,1.615-1.495c0.688-0.359,1.463-0.538,2.325-0.538
					c0.863,0,1.638,0.179,2.325,0.538c0.687,0.359,1.226,0.858,1.615,1.495c0.39,0.638,0.584,1.357,0.584,2.159
					c0,0.802-0.195,1.522-0.584,2.159c-0.389,0.639-0.928,1.136-1.615,1.495c-0.687,0.359-1.463,0.539-2.325,0.539
					C140.728,212.436,139.953,212.256,139.265,211.898z M142.501,210.001c0.271-0.164,0.487-0.396,0.647-0.698
					c0.16-0.302,0.24-0.654,0.24-1.06c0-0.404-0.08-0.758-0.24-1.059c-0.161-0.302-0.377-0.535-0.647-0.699
					c-0.271-0.164-0.575-0.246-0.911-0.246s-0.639,0.082-0.911,0.246c-0.271,0.164-0.487,0.397-0.647,0.699
					c-0.16,0.301-0.241,0.654-0.241,1.059c0,0.406,0.08,0.758,0.241,1.06c0.16,0.302,0.376,0.534,0.647,0.698
					c0.271,0.165,0.575,0.247,0.911,0.247S142.23,210.167,142.501,210.001z"/>
				<path style="fill:#263238;" d="M150.536,210.236h-0.733v2.016H147.1v-8.018h3.86c0.741,0,1.386,0.123,1.936,0.367
					c0.55,0.244,0.974,0.596,1.271,1.053c0.298,0.459,0.447,0.993,0.447,1.603c0,0.573-0.13,1.073-0.39,1.501
					c-0.26,0.428-0.634,0.767-1.122,1.02l1.684,2.474h-2.886L150.536,210.236z M151.613,206.566
					c-0.183-0.164-0.458-0.246-0.825-0.246h-0.985v1.878h0.985c0.367,0,0.642-0.082,0.825-0.246
					c0.183-0.164,0.275-0.395,0.275-0.694C151.888,206.961,151.796,206.73,151.613,206.566z"/>
				<path style="fill:#263238;" d="M162.3,210.214v2.038h-6.666v-8.018h6.518v2.04h-3.861v0.939h3.391v1.947h-3.391v1.054H162.3z"/>
			</g>
			<g>
				<path style="fill:#263238;" d="M350.79,212.998c0,0.76-0.616,1.375-1.375,1.375c-0.76,0-1.376-0.616-1.376-1.375
					s0.616-1.375,1.376-1.375C350.174,211.622,350.79,212.238,350.79,212.998z"/>
				<circle style="fill:#263238;" cx="357.996" cy="212.998" r="1.375"/>
				<path style="fill:#263238;" d="M348.262,203.26l-0.931-2.97h-3.48v0.944h2.78l2.612,8.485h9.142l0.809-5.617L348.262,203.26z
					 M357.671,209.045l-7.792-0.085l-1.471-4.95l9.895,0.728L357.671,209.045z"/>
			</g>
			<g>
				<g>
					<path style="fill:#407BFF;" d="M246.744,277.115c0,1.522-1.234,2.755-2.755,2.755s-2.755-1.234-2.755-2.755
						s1.234-2.755,2.755-2.755S246.744,275.593,246.744,277.115z"/>
					<path style="opacity:0.9;fill:#FFFFFF;" d="M246.744,277.115c0,1.522-1.234,2.755-2.755,2.755s-2.755-1.234-2.755-2.755
						s1.234-2.755,2.755-2.755S246.744,275.593,246.744,277.115z"/>
				</g>
				<g>
					<path style="fill:#407BFF;" d="M254.779,277.115c0,1.522-1.234,2.755-2.755,2.755c-1.522,0-2.755-1.234-2.755-2.755
						s1.234-2.755,2.755-2.755C253.546,274.359,254.779,275.593,254.779,277.115z"/>
					<path style="opacity:0.9;fill:#FFFFFF;" d="M254.779,277.115c0,1.522-1.234,2.755-2.755,2.755
						c-1.522,0-2.755-1.234-2.755-2.755s1.234-2.755,2.755-2.755C253.546,274.359,254.779,275.593,254.779,277.115z"/>
				</g>
				<g>
					<path style="fill:#407BFF;" d="M262.879,277.261c0,1.522-1.234,2.755-2.755,2.755c-1.522,0-2.755-1.234-2.755-2.755
						c0-1.522,1.234-2.755,2.755-2.755C261.645,274.505,262.879,275.739,262.879,277.261z"/>
					<path style="opacity:0.9;fill:#FFFFFF;" d="M262.879,277.261c0,1.522-1.234,2.755-2.755,2.755
						c-1.522,0-2.755-1.234-2.755-2.755c0-1.522,1.234-2.755,2.755-2.755C261.645,274.505,262.879,275.739,262.879,277.261z"/>
				</g>
				<g>
					<path style="fill:#407BFF;" d="M270.978,277.261c0,1.522-1.234,2.755-2.755,2.755c-1.522,0-2.755-1.234-2.755-2.755
						c0-1.522,1.234-2.755,2.755-2.755C269.744,274.505,270.978,275.739,270.978,277.261z"/>
					<path style="opacity:0.9;fill:#FFFFFF;" d="M270.978,277.261c0,1.522-1.234,2.755-2.755,2.755
						c-1.522,0-2.755-1.234-2.755-2.755c0-1.522,1.234-2.755,2.755-2.755C269.744,274.505,270.978,275.739,270.978,277.261z"/>
				</g>
				<g>
					<path style="fill:#407BFF;" d="M279.077,277.261c0,1.522-1.234,2.755-2.756,2.755c-1.522,0-2.756-1.234-2.756-2.755
						c0-1.522,1.234-2.755,2.756-2.755C277.843,274.505,279.077,275.739,279.077,277.261z"/>
					<path style="opacity:0.5;fill:#FFFFFF;" d="M279.077,277.261c0,1.522-1.234,2.755-2.756,2.755
						c-1.522,0-2.756-1.234-2.756-2.755c0-1.522,1.234-2.755,2.756-2.755C277.843,274.505,279.077,275.739,279.077,277.261z"/>
				</g>
				<g>
					<path style="fill:#407BFF;" d="M287.177,277.261c0,1.522-1.234,2.755-2.756,2.755s-2.755-1.234-2.755-2.755
						c0-1.522,1.234-2.755,2.755-2.755S287.177,275.739,287.177,277.261z"/>
					<path style="opacity:0.9;fill:#FFFFFF;" d="M287.177,277.261c0,1.522-1.234,2.755-2.756,2.755s-2.755-1.234-2.755-2.755
						c0-1.522,1.234-2.755,2.755-2.755S287.177,275.739,287.177,277.261z"/>
				</g>
				<g>
					<path style="fill:#407BFF;" d="M295.276,277.261c0,1.522-1.234,2.755-2.755,2.755s-2.755-1.234-2.755-2.755
						c0-1.522,1.234-2.755,2.755-2.755S295.276,275.739,295.276,277.261z"/>
					<path style="opacity:0.9;fill:#FFFFFF;" d="M295.276,277.261c0,1.522-1.234,2.755-2.755,2.755s-2.755-1.234-2.755-2.755
						c0-1.522,1.234-2.755,2.755-2.755S295.276,275.739,295.276,277.261z"/>
				</g>
				<g>
					<path style="fill:#407BFF;" d="M303.375,277.261c0,1.522-1.234,2.755-2.755,2.755c-1.522,0-2.755-1.234-2.755-2.755
						c0-1.522,1.234-2.755,2.755-2.755C302.141,274.505,303.375,275.739,303.375,277.261z"/>
					<path style="opacity:0.9;fill:#FFFFFF;" d="M303.375,277.261c0,1.522-1.234,2.755-2.755,2.755
						c-1.522,0-2.755-1.234-2.755-2.755c0-1.522,1.234-2.755,2.755-2.755C302.141,274.505,303.375,275.739,303.375,277.261z"/>
				</g>
			</g>
			<g>
				<path style="fill:#263238;" d="M218.813,255.762c-1.345-0.318-2.45-0.746-3.313-1.283l1.859-4.206
					c0.815,0.474,1.727,0.852,2.739,1.138c1.01,0.285,1.98,0.428,2.91,0.428c0.798,0,1.369-0.078,1.711-0.233
					c0.342-0.155,0.513-0.386,0.513-0.696c0-0.358-0.224-0.627-0.672-0.808c-0.449-0.179-1.186-0.374-2.213-0.587
					c-1.321-0.277-2.421-0.573-3.301-0.891c-0.88-0.318-1.647-0.84-2.298-1.566c-0.652-0.724-0.978-1.707-0.978-2.945
					c0-1.077,0.301-2.054,0.904-2.935c0.603-0.88,1.504-1.572,2.702-2.077c1.198-0.505,2.653-0.758,4.364-0.758
					c1.174,0,2.327,0.125,3.46,0.378c1.133,0.253,2.131,0.625,2.995,1.112l-1.736,4.183c-1.679-0.848-3.269-1.271-4.768-1.271
					c-1.483,0-2.225,0.358-2.225,1.075c0,0.342,0.22,0.599,0.66,0.77c0.44,0.171,1.166,0.356,2.176,0.551
					c1.304,0.245,2.404,0.525,3.301,0.844c0.896,0.318,1.675,0.836,2.335,1.552c0.66,0.718,0.991,1.695,0.991,2.935
					c0,1.075-0.302,2.049-0.905,2.921c-0.603,0.872-1.504,1.564-2.702,2.079c-1.198,0.513-2.653,0.77-4.365,0.77
					C221.54,256.239,220.158,256.08,218.813,255.762z"/>
				<path style="fill:#263238;" d="M244.304,252.864H237.8l-1.149,2.983h-5.869l7.482-17.117h5.673l7.482,17.117h-5.966
					L244.304,252.864z M242.714,248.708l-1.662-4.304l-1.663,4.304H242.714z"/>
				<path style="fill:#263238;" d="M252.349,238.73h5.771v12.642h7.727v4.475h-13.497V238.73z"/>
				<path style="fill:#263238;" d="M281.665,251.495v4.352h-14.23V238.73h13.913v4.354h-8.24v2.004h7.238v4.157h-7.238v2.251
					H281.665z"/>
			</g>
			<g>
				<g>
					<g>
						<rect x="114.738" y="177.98" style="fill:#407BFF;" width="275.875" height="20.476"/>
					</g>
					<g style="opacity:0.7;">
						<rect x="114.738" y="177.98" style="fill:#FFFFFF;" width="275.875" height="20.476"/>
					</g>
				</g>
				<g>
					<g>
						<path style="fill:#263238;" d="M375.061,193.828H146.27c-3.098,0-5.61-2.512-5.61-5.61l0,0c0-3.098,2.512-5.61,5.61-5.61
							h228.791c3.098,0,5.61,2.512,5.61,5.61l0,0C380.671,191.316,378.16,193.828,375.061,193.828z"/>
						<path style="opacity:0.7;fill:#FFFFFF;" d="M375.061,193.828H146.27c-3.098,0-5.61-2.512-5.61-5.61l0,0
							c0-3.098,2.512-5.61,5.61-5.61h228.791c3.098,0,5.61,2.512,5.61,5.61l0,0C380.671,191.316,378.16,193.828,375.061,193.828z"/>
					</g>
					<polygon style="fill:#407BFF;" points="373.278,183.917 374.675,186.748 377.8,187.202 375.539,189.406 376.073,192.519 
						373.278,191.049 370.483,192.519 371.017,189.406 368.756,187.202 371.88,186.748 					"/>
					<path style="fill:#407BFF;" d="M247.949,190.696H147.655c-0.985,0-1.784-0.798-1.784-1.784v-1.095
						c0-0.985,0.799-1.784,1.784-1.784h100.294c0.985,0,1.784,0.799,1.784,1.784v1.095
						C249.732,189.898,248.934,190.696,247.949,190.696z"/>
				</g>
				<polygon style="fill:#407BFF;" points="129.339,182.344 123.164,188.52 124.973,188.52 124.973,194.091 133.706,194.091 
					133.706,188.52 135.515,188.52 				"/>
			</g>
			<g>
				<g>
					<path style="fill:#407BFF;" d="M189.779,227.852h-39.283c-1.041,0-1.885-0.844-1.885-1.885l0,0
						c0-1.041,0.844-1.885,1.885-1.885h39.283c1.041,0,1.885,0.844,1.885,1.885l0,0C191.663,227.008,190.82,227.852,189.779,227.852
						z"/>
					<path style="fill:#407BFF;" d="M189.779,235.391h-39.283c-1.041,0-1.885-0.844-1.885-1.885l0,0
						c0-1.041,0.844-1.885,1.885-1.885h39.283c1.041,0,1.885,0.844,1.885,1.885l0,0C191.663,234.547,190.82,235.391,189.779,235.391
						z"/>
					<path style="fill:#407BFF;" d="M189.779,242.93h-39.283c-1.041,0-1.885-0.844-1.885-1.885l0,0c0-1.041,0.844-1.885,1.885-1.885
						h39.283c1.041,0,1.885,0.844,1.885,1.885l0,0C191.663,242.086,190.82,242.93,189.779,242.93z"/>
					<path style="fill:#407BFF;" d="M189.779,250.469h-39.283c-1.041,0-1.885-0.844-1.885-1.885l0,0
						c0-1.041,0.844-1.885,1.885-1.885h39.283c1.041,0,1.885,0.844,1.885,1.885l0,0C191.663,249.625,190.82,250.469,189.779,250.469
						z"/>
					<path style="fill:#407BFF;" d="M189.779,258.008h-39.283c-1.041,0-1.885-0.844-1.885-1.885l0,0
						c0-1.041,0.844-1.885,1.885-1.885h39.283c1.041,0,1.885,0.844,1.885,1.885l0,0C191.663,257.164,190.82,258.008,189.779,258.008
						z"/>
					<path style="fill:#407BFF;" d="M189.779,265.547h-39.283c-1.041,0-1.885-0.844-1.885-1.885l0,0
						c0-1.041,0.844-1.885,1.885-1.885h39.283c1.041,0,1.885,0.844,1.885,1.885l0,0C191.663,264.703,190.82,265.547,189.779,265.547
						z"/>
					<path style="fill:#407BFF;" d="M189.779,273.086h-39.283c-1.041,0-1.885-0.844-1.885-1.885l0,0
						c0-1.041,0.844-1.885,1.885-1.885h39.283c1.041,0,1.885,0.844,1.885,1.885l0,0C191.663,272.242,190.82,273.086,189.779,273.086
						z"/>
					<path style="fill:#407BFF;" d="M189.779,280.625h-39.283c-1.041,0-1.885-0.844-1.885-1.885l0,0
						c0-1.041,0.844-1.885,1.885-1.885h39.283c1.041,0,1.885,0.844,1.885,1.885l0,0C191.663,279.781,190.82,280.625,189.779,280.625
						z"/>
				</g>
				<g style="opacity:0.5;">
					<path style="fill:#FFFFFF;" d="M189.779,227.852h-39.283c-1.041,0-1.885-0.844-1.885-1.885l0,0
						c0-1.041,0.844-1.885,1.885-1.885h39.283c1.041,0,1.885,0.844,1.885,1.885l0,0C191.663,227.008,190.82,227.852,189.779,227.852
						z"/>
					<path style="fill:#FFFFFF;" d="M189.779,235.391h-39.283c-1.041,0-1.885-0.844-1.885-1.885l0,0
						c0-1.041,0.844-1.885,1.885-1.885h39.283c1.041,0,1.885,0.844,1.885,1.885l0,0C191.663,234.547,190.82,235.391,189.779,235.391
						z"/>
					<path style="fill:#FFFFFF;" d="M189.779,242.93h-39.283c-1.041,0-1.885-0.844-1.885-1.885l0,0c0-1.041,0.844-1.885,1.885-1.885
						h39.283c1.041,0,1.885,0.844,1.885,1.885l0,0C191.663,242.086,190.82,242.93,189.779,242.93z"/>
					<path style="fill:#FFFFFF;" d="M189.779,250.469h-39.283c-1.041,0-1.885-0.844-1.885-1.885l0,0
						c0-1.041,0.844-1.885,1.885-1.885h39.283c1.041,0,1.885,0.844,1.885,1.885l0,0C191.663,249.625,190.82,250.469,189.779,250.469
						z"/>
					<path style="fill:#FFFFFF;" d="M189.779,258.008h-39.283c-1.041,0-1.885-0.844-1.885-1.885l0,0
						c0-1.041,0.844-1.885,1.885-1.885h39.283c1.041,0,1.885,0.844,1.885,1.885l0,0C191.663,257.164,190.82,258.008,189.779,258.008
						z"/>
					<path style="fill:#FFFFFF;" d="M189.779,265.547h-39.283c-1.041,0-1.885-0.844-1.885-1.885l0,0
						c0-1.041,0.844-1.885,1.885-1.885h39.283c1.041,0,1.885,0.844,1.885,1.885l0,0C191.663,264.703,190.82,265.547,189.779,265.547
						z"/>
					<path style="fill:#FFFFFF;" d="M189.779,273.086h-39.283c-1.041,0-1.885-0.844-1.885-1.885l0,0
						c0-1.041,0.844-1.885,1.885-1.885h39.283c1.041,0,1.885,0.844,1.885,1.885l0,0C191.663,272.242,190.82,273.086,189.779,273.086
						z"/>
					<path style="fill:#FFFFFF;" d="M189.779,280.625h-39.283c-1.041,0-1.885-0.844-1.885-1.885l0,0
						c0-1.041,0.844-1.885,1.885-1.885h39.283c1.041,0,1.885,0.844,1.885,1.885l0,0C191.663,279.781,190.82,280.625,189.779,280.625
						z"/>
				</g>
			</g>
			<g>
				<g>
					<g>
						<rect x="120.72" y="291.164" style="fill:#407BFF;" width="127.951" height="40.622"/>
					</g>
					<g style="opacity:0.7;">
						<rect x="120.72" y="291.164" style="fill:#FFFFFF;" width="127.951" height="40.622"/>
					</g>
				</g>
				<g>
					<g>
						<rect x="127.559" y="294.956" style="fill:#407BFF;" width="22.244" height="22.244"/>
						<g>
							<rect x="128.554" y="318.953" style="fill:#407BFF;" width="20.041" height="1.564"/>
							<rect x="128.554" y="318.953" style="opacity:0.2;fill:#FFFFFF;" width="20.041" height="1.564"/>
						</g>
						<g>
							<rect x="128.554" y="321.133" style="fill:#407BFF;" width="20.041" height="1.564"/>
							<rect x="128.554" y="321.133" style="opacity:0.2;fill:#FFFFFF;" width="20.041" height="1.564"/>
						</g>
						<g>
							<rect x="128.554" y="326.629" style="fill:#407BFF;" width="9.76" height="1.564"/>
							<rect x="128.554" y="326.629" style="opacity:0.2;fill:#FFFFFF;" width="9.76" height="1.564"/>
						</g>
						<g>
							<rect x="128.554" y="323.738" style="fill:#407BFF;" width="6.68" height="2.132"/>
							<rect x="128.554" y="323.738" style="opacity:0.2;fill:#FFFFFF;" width="6.68" height="2.132"/>
						</g>
					</g>
					<g>
						<rect x="218.891" y="294.956" style="fill:#407BFF;" width="22.244" height="22.244"/>
						<g>
							<rect x="219.886" y="318.953" style="fill:#407BFF;" width="20.041" height="1.564"/>
							<rect x="219.886" y="318.953" style="opacity:0.2;fill:#FFFFFF;" width="20.041" height="1.564"/>
						</g>
						<g>
							<rect x="219.886" y="321.133" style="fill:#407BFF;" width="20.041" height="1.564"/>
							<rect x="219.886" y="321.133" style="opacity:0.2;fill:#FFFFFF;" width="20.041" height="1.564"/>
						</g>
						<g>
							<rect x="219.886" y="326.629" style="fill:#407BFF;" width="9.76" height="1.564"/>
							<rect x="219.886" y="326.629" style="opacity:0.2;fill:#FFFFFF;" width="9.76" height="1.564"/>
						</g>
						<g>
							<rect x="219.886" y="323.738" style="fill:#407BFF;" width="6.681" height="2.132"/>
							<rect x="219.886" y="323.738" style="opacity:0.2;fill:#FFFFFF;" width="6.681" height="2.132"/>
						</g>
					</g>
					<g>
						<rect x="159.015" y="294.956" style="fill:#407BFF;" width="22.244" height="22.244"/>
						<g>
							<rect x="160.01" y="318.953" style="fill:#407BFF;" width="20.041" height="1.564"/>
							<rect x="160.01" y="318.953" style="opacity:0.2;fill:#FFFFFF;" width="20.041" height="1.564"/>
						</g>
						<g>
							<rect x="160.01" y="321.133" style="fill:#407BFF;" width="20.041" height="1.564"/>
							<rect x="160.01" y="321.133" style="opacity:0.2;fill:#FFFFFF;" width="20.041" height="1.564"/>
						</g>
						<g>
							<rect x="160.01" y="326.629" style="fill:#407BFF;" width="9.76" height="1.564"/>
							<rect x="160.01" y="326.629" style="opacity:0.2;fill:#FFFFFF;" width="9.76" height="1.564"/>
						</g>
						<g>
							<rect x="160.01" y="323.738" style="fill:#407BFF;" width="6.68" height="2.132"/>
							<rect x="160.01" y="323.738" style="opacity:0.2;fill:#FFFFFF;" width="6.68" height="2.132"/>
						</g>
					</g>
					<g>
						<rect x="188.953" y="294.956" style="fill:#407BFF;" width="22.244" height="22.244"/>
						<g>
							<rect x="189.948" y="318.953" style="fill:#407BFF;" width="20.041" height="1.564"/>
							<rect x="189.948" y="318.953" style="opacity:0.2;fill:#FFFFFF;" width="20.041" height="1.564"/>
						</g>
						<g>
							<rect x="189.948" y="321.133" style="fill:#407BFF;" width="20.041" height="1.564"/>
							<rect x="189.948" y="321.133" style="opacity:0.2;fill:#FFFFFF;" width="20.041" height="1.564"/>
						</g>
						<g>
							<rect x="189.948" y="326.629" style="fill:#407BFF;" width="9.76" height="1.564"/>
							<rect x="189.948" y="326.629" style="opacity:0.2;fill:#FFFFFF;" width="9.76" height="1.564"/>
						</g>
						<g>
							<rect x="189.948" y="323.738" style="fill:#407BFF;" width="6.681" height="2.132"/>
							<rect x="189.948" y="323.738" style="opacity:0.2;fill:#FFFFFF;" width="6.681" height="2.132"/>
						</g>
					</g>
				</g>
			</g>
			<g>
				<g>
					<g>
						<rect x="254.167" y="291.164" style="fill:#407BFF;" width="127.952" height="40.622"/>
					</g>
					<g style="opacity:0.7;">
						<rect x="254.167" y="291.164" style="fill:#FFFFFF;" width="127.952" height="40.622"/>
					</g>
				</g>
				<g>
					<g>
						<rect x="261.354" y="294.956" style="fill:#407BFF;" width="22.244" height="22.244"/>
						<g>
							<rect x="262.349" y="318.953" style="fill:#407BFF;" width="20.041" height="1.564"/>
							<rect x="262.349" y="318.953" style="opacity:0.2;fill:#FFFFFF;" width="20.041" height="1.564"/>
						</g>
						<g>
							<rect x="262.349" y="321.133" style="fill:#407BFF;" width="20.041" height="1.564"/>
							<rect x="262.349" y="321.133" style="opacity:0.2;fill:#FFFFFF;" width="20.041" height="1.564"/>
						</g>
						<g>
							<rect x="262.349" y="326.629" style="fill:#407BFF;" width="9.76" height="1.564"/>
							<rect x="262.349" y="326.629" style="opacity:0.2;fill:#FFFFFF;" width="9.76" height="1.564"/>
						</g>
						<g>
							<rect x="262.349" y="323.738" style="fill:#407BFF;" width="6.68" height="2.132"/>
							<rect x="262.349" y="323.738" style="opacity:0.2;fill:#FFFFFF;" width="6.68" height="2.132"/>
						</g>
					</g>
					<g>
						<rect x="352.686" y="294.956" style="fill:#407BFF;" width="22.244" height="22.244"/>
						<g>
							<rect x="353.681" y="318.953" style="fill:#407BFF;" width="20.041" height="1.564"/>
							<rect x="353.681" y="318.953" style="opacity:0.2;fill:#FFFFFF;" width="20.041" height="1.564"/>
						</g>
						<g>
							<rect x="353.681" y="321.133" style="fill:#407BFF;" width="20.041" height="1.564"/>
							<rect x="353.681" y="321.133" style="opacity:0.2;fill:#FFFFFF;" width="20.041" height="1.564"/>
						</g>
						<g>
							<rect x="353.681" y="326.629" style="fill:#407BFF;" width="9.76" height="1.564"/>
							<rect x="353.681" y="326.629" style="opacity:0.2;fill:#FFFFFF;" width="9.76" height="1.564"/>
						</g>
						<g>
							<rect x="353.681" y="323.738" style="fill:#407BFF;" width="6.68" height="2.132"/>
							<rect x="353.681" y="323.738" style="opacity:0.2;fill:#FFFFFF;" width="6.68" height="2.132"/>
						</g>
					</g>
					<g>
						<rect x="292.81" y="294.956" style="fill:#407BFF;" width="22.245" height="22.244"/>
						<g>
							<rect x="293.805" y="318.953" style="fill:#407BFF;" width="20.041" height="1.564"/>
							<rect x="293.805" y="318.953" style="opacity:0.2;fill:#FFFFFF;" width="20.041" height="1.564"/>
						</g>
						<g>
							<rect x="293.805" y="321.133" style="fill:#407BFF;" width="20.041" height="1.564"/>
							<rect x="293.805" y="321.133" style="opacity:0.2;fill:#FFFFFF;" width="20.041" height="1.564"/>
						</g>
						<g>
							<rect x="293.805" y="326.629" style="fill:#407BFF;" width="9.76" height="1.564"/>
							<rect x="293.805" y="326.629" style="opacity:0.2;fill:#FFFFFF;" width="9.76" height="1.564"/>
						</g>
						<g>
							<rect x="293.805" y="323.738" style="fill:#407BFF;" width="6.681" height="2.132"/>
							<rect x="293.805" y="323.738" style="opacity:0.2;fill:#FFFFFF;" width="6.681" height="2.132"/>
						</g>
					</g>
					<g>
						<rect x="322.748" y="294.956" style="fill:#407BFF;" width="22.244" height="22.244"/>
						<g>
							<rect x="323.743" y="318.953" style="fill:#407BFF;" width="20.041" height="1.564"/>
							<rect x="323.743" y="318.953" style="opacity:0.2;fill:#FFFFFF;" width="20.041" height="1.564"/>
						</g>
						<g>
							<rect x="323.743" y="321.133" style="fill:#407BFF;" width="20.041" height="1.564"/>
							<rect x="323.743" y="321.133" style="opacity:0.2;fill:#FFFFFF;" width="20.041" height="1.564"/>
						</g>
						<g>
							<rect x="323.743" y="326.629" style="fill:#407BFF;" width="9.76" height="1.564"/>
							<rect x="323.743" y="326.629" style="opacity:0.2;fill:#FFFFFF;" width="9.76" height="1.564"/>
						</g>
						<g>
							<rect x="323.743" y="323.738" style="fill:#407BFF;" width="6.68" height="2.132"/>
							<rect x="323.743" y="323.738" style="opacity:0.2;fill:#FFFFFF;" width="6.68" height="2.132"/>
						</g>
					</g>
				</g>
			</g>
			<g>
				<g>
					<ellipse style="fill:#407BFF;" cx="340.946" cy="268.567" rx="40.461" ry="5.349"/>
					<ellipse style="opacity:0.1;" cx="340.946" cy="268.567" rx="40.461" ry="5.349"/>
				</g>
				<g>
					<g>
						<g>
							<path style="fill:#407BFF;" d="M345.011,266.403l-4.329-9.58H330.57l1.553,8.972c0.086,0.496-0.296,0.949-0.799,0.949h-4.427
								c-0.237,0-0.429,0.192-0.429,0.429v0.478c0,0.237,0.192,0.429,0.429,0.429h17.802c0.257,0,0.466-0.208,0.466-0.466v-0.496
								C345.165,266.871,345.112,266.627,345.011,266.403z"/>
							<g>
								<path style="opacity:0.2;fill:#FFFFFF;" d="M331.491,266.726c-0.053,0.012-0.109,0.018-0.166,0.018h-4.428
									c-0.237,0-0.429,0.192-0.429,0.429v0.478c0,0.237,0.191,0.429,0.429,0.429H344.7c0.257,0,0.466-0.209,0.466-0.466v-0.496
									c0-0.132-0.016-0.263-0.046-0.391H331.491z"/>
							</g>
							<g>
								<g>
									<path style="fill:#407BFF;" d="M345.583,266.403l-4.329-9.58h-0.572l4.329,9.58c0.101,0.224,0.154,0.468,0.154,0.714v0.496
										c0,0.257-0.208,0.466-0.466,0.466h0.572c0.257,0,0.466-0.208,0.466-0.466v-0.496
										C345.737,266.871,345.685,266.627,345.583,266.403z"/>
								</g>
								<g style="opacity:0.2;">
									<path d="M345.583,266.403l-4.329-9.58h-0.572l4.329,9.58c0.101,0.224,0.154,0.468,0.154,0.714v0.496
										c0,0.257-0.208,0.466-0.466,0.466h0.572c0.257,0,0.466-0.208,0.466-0.466v-0.496
										C345.737,266.871,345.685,266.627,345.583,266.403z"/>
								</g>
							</g>
							<polygon style="opacity:0.2;" points="340.682,256.823 330.57,256.823 330.966,259.112 341.716,259.112 							"/>
						</g>
						<g>
							<g>
								<g>
									<path style="fill:#263238;" d="M356.172,257.828H313.03c-0.871,0-1.515-0.706-1.439-1.577l2.727-31.174
										c0.076-0.871,0.844-1.577,1.715-1.577h43.142c0.871,0,1.515,0.706,1.439,1.577l-2.727,31.174
										C357.811,257.122,357.043,257.828,356.172,257.828z"/>
								</g>
								<path style="fill:#407BFF;" d="M311.886,252.88l-0.295,3.371c-0.076,0.871,0.568,1.577,1.439,1.577h43.142
									c0.871,0,1.639-0.706,1.715-1.577l0.295-3.371H311.886z"/>
							</g>
							<path style="fill:#407BFF;" d="M356.66,251.928h-43.084c-0.472,0-0.822-0.383-0.78-0.855l2.254-25.765
								c0.041-0.472,0.458-0.855,0.93-0.855h43.084c0.472,0,0.822,0.383,0.78,0.855l-2.254,25.765
								C357.548,251.545,357.132,251.928,356.66,251.928z"/>
							<path style="fill:#407BFF;" d="M356.66,251.928h-43.084c-0.472,0-0.822-0.383-0.78-0.855l2.254-25.765
								c0.041-0.472,0.458-0.855,0.93-0.855h43.084c0.472,0,0.822,0.383,0.78,0.855l-2.254,25.765
								C357.548,251.545,357.132,251.928,356.66,251.928z"/>
							<g>
								<path style="fill:#407BFF;" d="M360.129,223.5h-0.954c0.871,0,1.515,0.706,1.439,1.577l-2.727,31.174
									c-0.076,0.871-0.844,1.577-1.715,1.577h0.954c0.871,0,1.639-0.706,1.715-1.577l2.727-31.174
									C361.645,224.206,361,223.5,360.129,223.5z"/>
								<path style="opacity:0.2;fill:#407BFF;" d="M360.129,223.5h-0.954c0.871,0,1.515,0.706,1.439,1.577l-2.727,31.174
									c-0.076,0.871-0.844,1.577-1.715,1.577h0.954c0.871,0,1.639-0.706,1.715-1.577l2.727-31.174
									C361.645,224.206,361,223.5,360.129,223.5z"/>
							</g>
							<g style="opacity:0.3;">
								<polygon style="fill:#FFFFFF;" points="358.485,224.452 356.828,224.452 350.987,251.928 352.645,251.928 								"/>
								<polygon style="fill:#FFFFFF;" points="349.313,251.928 355.153,224.452 348.927,224.452 343.086,251.928 								"/>
							</g>
						</g>
						<path style="opacity:0.6;fill:#FFFFFF;" d="M311.886,252.88l-0.295,3.371c-0.076,0.871,0.568,1.577,1.439,1.577h43.142
							c0.871,0,1.639-0.706,1.715-1.577l0.295-3.371H311.886z"/>
					</g>
					<path style="opacity:0.2;fill:#FFFFFF;" d="M360.129,223.529h-0.954c0.871,0,1.515,0.706,1.439,1.577l-2.727,31.174
						c-0.076,0.871-0.844,1.577-1.715,1.577h0.954c0.871,0,1.639-0.706,1.715-1.577l2.727-31.174
						C361.645,224.235,361,223.529,360.129,223.529z"/>
				</g>
				<g>
					<g>
						<path style="fill:#263238;" d="M338.317,266.572h26.432c0.744,0,1.294-0.603,1.229-1.347l-1.65-18.861
							c-0.065-0.744-0.721-1.347-1.465-1.347h-26.432c-0.744,0-1.294,0.603-1.229,1.347l1.65,18.861
							C336.917,265.969,337.573,266.572,338.317,266.572z"/>
						<path style="opacity:0.4;fill:#FFFFFF;" d="M338.317,266.572h26.432c0.744,0,1.294-0.603,1.229-1.347l-1.65-18.861
							c-0.065-0.744-0.721-1.347-1.465-1.347h-26.432c-0.744,0-1.294,0.603-1.229,1.347l1.65,18.861
							C336.917,265.969,337.573,266.572,338.317,266.572z"/>
					</g>
					<path style="fill:#263238;" d="M338.797,266.572h26.432c0.744,0,1.294-0.603,1.229-1.347l-1.65-18.861
						c-0.065-0.744-0.721-1.347-1.465-1.347h-26.432c-0.744,0-1.294,0.603-1.229,1.347l1.65,18.861
						C337.398,265.969,338.053,266.572,338.797,266.572z"/>
					<path style="opacity:0.7;fill:#FFFFFF;" d="M338.797,266.572h26.432c0.744,0,1.294-0.603,1.229-1.347l-1.65-18.861
						c-0.065-0.744-0.721-1.347-1.465-1.347h-26.432c-0.744,0-1.294,0.603-1.229,1.347l1.65,18.861
						C337.398,265.969,338.053,266.572,338.797,266.572z"/>
					<polygon style="fill:#407BFF;" points="338.398,265.225 365.393,265.225 363.743,246.364 336.748,246.364 					"/>
					<polygon style="opacity:0.5;fill:#FFFFFF;" points="338.398,265.225 365.393,265.225 363.743,246.364 336.748,246.364 					"/>
					<g>
						<path style="fill:#263238;" d="M338.978,268.374h26.984c1.194,0,2.163-0.968,2.163-2.163l0,0h-31.309l0,0
							C336.815,267.406,337.783,268.374,338.978,268.374z"/>
						<path style="opacity:0.2;fill:#FFFFFF;" d="M338.978,268.374h26.984c1.194,0,2.163-0.968,2.163-2.163l0,0h-31.309l0,0
							C336.815,267.406,337.783,268.374,338.978,268.374z"/>
					</g>
					<path style="fill:#263238;" d="M341.161,268.374h26.984c1.194,0,2.163-0.968,2.163-2.163l0,0h-31.309l0,0
						C338.998,267.406,339.967,268.374,341.161,268.374z"/>
					<path style="opacity:0.5;fill:#FFFFFF;" d="M341.161,268.374h26.984c1.194,0,2.163-0.968,2.163-2.163l0,0h-31.309l0,0
						C338.998,267.406,339.967,268.374,341.161,268.374z"/>
					<path style="opacity:0.3;" d="M357.459,266.212c-0.218,0.376-0.624,0.63-1.09,0.63h-3.432c-0.466,0-0.872-0.254-1.09-0.63
						H357.459z"/>
				</g>
				<g>
					<g>
						<path style="fill:#263238;" d="M328.925,244.411h-2.139l-2.157,24.657h2.139c0.992,0,1.866-0.804,1.953-1.795l1.843-21.067
							C330.65,245.215,329.917,244.411,328.925,244.411z"/>
					</g>
					<path style="fill:#407BFF;" d="M326.33,269.069h-8.814c-0.992,0-1.725-0.804-1.638-1.795l1.843-21.067
						c0.087-0.992,0.961-1.795,1.952-1.795h8.814c0.992,0,1.725,0.804,1.638,1.795l-1.843,21.067
						C328.195,268.265,327.321,269.069,326.33,269.069z"/>
					<g>
						<path style="fill:#407BFF;" d="M328.451,244.823h-2.291c-0.15,0-0.286,0.112-0.318,0.26l-0.016,0.072
							c-0.078,0.363-0.411,0.636-0.778,0.636h-2.178c-0.366,0-0.652-0.272-0.667-0.636l-0.003-0.072
							c-0.006-0.149-0.123-0.26-0.273-0.26h-2.291c-0.764,0-1.438,0.62-1.504,1.383l-1.843,21.067
							c-0.067,0.764,0.498,1.384,1.262,1.384h8.814c0.764,0,1.438-0.619,1.504-1.384l1.843-21.067
							C329.78,245.443,329.215,244.823,328.451,244.823z"/>
						<path style="opacity:0.7;fill:#FFFFFF;" d="M328.451,244.823h-2.291c-0.15,0-0.286,0.112-0.318,0.26l-0.016,0.072
							c-0.078,0.363-0.411,0.636-0.778,0.636h-2.178c-0.366,0-0.652-0.272-0.667-0.636l-0.003-0.072
							c-0.006-0.149-0.123-0.26-0.273-0.26h-2.291c-0.764,0-1.438,0.62-1.504,1.383l-1.843,21.067
							c-0.067,0.764,0.498,1.384,1.262,1.384h8.814c0.764,0,1.438-0.619,1.504-1.384l1.843-21.067
							C329.78,245.443,329.215,244.823,328.451,244.823z"/>
					</g>
					<g style="opacity:0.2;">
						<path d="M323.491,245.057c-0.009,0.097-0.094,0.175-0.19,0.175c-0.097,0-0.168-0.078-0.16-0.175
							c0.008-0.097,0.094-0.175,0.19-0.175C323.427,244.882,323.499,244.96,323.491,245.057z"/>
						<path d="M324.747,244.882c-0.069,0-0.531,0-0.6,0c-0.097,0-0.182,0.078-0.19,0.175c-0.009,0.097,0.063,0.175,0.16,0.175
							c0.06,0,0.54,0,0.6,0c0.097,0,0.182-0.078,0.19-0.175C324.915,244.96,324.844,244.882,324.747,244.882z"/>
					</g>
					<g>
						<polygon style="fill:#407BFF;" points="319.129,245.788 319.314,245.788 319.33,245.602 319.145,245.602 						"/>
						<polygon style="fill:#407BFF;" points="319.515,245.602 319.499,245.788 319.685,245.788 319.701,245.602 319.717,245.417 
							319.532,245.417 						"/>
						<polygon style="fill:#407BFF;" points="319.918,245.232 319.902,245.417 319.886,245.602 319.87,245.788 320.055,245.788 
							320.072,245.602 320.088,245.417 320.104,245.232 						"/>
					</g>
					<path style="fill:#407BFF;" d="M327.888,245.244l-0.012,0.136h-0.091l-0.023,0.271h0.091l-0.013,0.136h0.816l0.048-0.544
						H327.888z M328.216,245.651h-0.272l0.024-0.271h0.272L328.216,245.651z"/>
					<g style="opacity:0.4;">
						<path style="fill:#FFFFFF;" d="M322.877,245.791l-6.084,22.624c0.209,0.152,0.47,0.242,0.759,0.242h0.476l6.149-22.866
							H322.877z"/>
						<path style="fill:#FFFFFF;" d="M328.451,244.823h-2.291c-0.15,0-0.286,0.112-0.318,0.26l-0.016,0.072
							c-0.076,0.354-0.394,0.621-0.75,0.634l-6.149,22.867h4.69l6.096-22.669C329.666,245.328,329.141,244.823,328.451,244.823z"/>
					</g>
				</g>
			</g>
		</g>
	</g>
</g>
<g id="Tab">
	<g>
		<g>
			<g style="opacity:0.2;">
				<rect x="197.632" y="122.817" width="145.288" height="87.069"/>
			</g>
			<g>
				<g>
					<g>
						<g>
							<rect x="193.536" y="118.199" style="fill:#407BFF;" width="145.289" height="87.069"/>
						</g>
						<g style="opacity:0.5;">
							<rect x="193.536" y="118.199" style="fill:#FFFFFF;" width="145.289" height="87.069"/>
						</g>
					</g>
					<rect x="193.527" y="118.199" style="fill:#407BFF;" width="145.3" height="5.826"/>
				</g>
				<path style="fill:#FFFFFF;" d="M336.939,121.086c0,0.956-0.775,1.732-1.732,1.732c-0.956,0-1.732-0.775-1.732-1.732
					c0-0.956,0.775-1.732,1.732-1.732C336.163,119.354,336.939,120.129,336.939,121.086z"/>
			</g>
		</g>
		<g>
			<polygon style="fill:#F5F5F5;" points="241.455,136.934 250.96,126.187 255.912,140.725 269.966,136.647 267.158,151.08 
				281.996,154.765 272.18,165.225 283.827,175.685 269.633,179.37 274.967,193.802 260.199,189.725 257.791,204.262 
				246.405,193.515 236.901,204.262 231.949,189.725 217.894,193.802 220.703,179.37 205.864,175.685 215.681,165.225 
				204.034,154.765 218.228,151.08 212.894,136.647 227.662,140.725 230.07,126.187 			"/>
			<g>
				<g>
					<path style="fill:#407BFF;" d="M214.94,166.705l20.362,22.249c10.376-16.396,31.931-6.545,37.287-25.932l-20.707-21.527
						C250.525,157.926,221.955,153.696,214.94,166.705z"/>
					<path style="opacity:0.4;fill:#FFFFFF;" d="M214.94,166.705l20.362,22.249c10.376-16.396,31.931-6.545,37.287-25.932
						l-20.707-21.527C250.525,157.926,221.955,153.696,214.94,166.705z"/>
				</g>
				<g>
					<path style="fill:#407BFF;" d="M239.276,162.905c0.515,0.077,0.913,0.37,1.196,0.878c0.183,0.328,0.271,0.678,0.264,1.05
						c-0.007,0.372-0.126,0.744-0.357,1.115c-0.231,0.372-0.583,0.711-1.053,1.019c-0.363,0.237-0.747,0.421-1.154,0.55
						c-0.407,0.129-0.784,0.181-1.132,0.157l-0.061-1.262c0.282,0.026,0.574-0.003,0.876-0.084c0.302-0.082,0.588-0.212,0.857-0.388
						c0.299-0.195,0.501-0.411,0.604-0.646c0.103-0.235,0.093-0.463-0.029-0.684c-0.129-0.231-0.315-0.347-0.56-0.348
						c-0.245-0.001-0.588,0.143-1.029,0.432l-1.317,0.86l-1.424-3.206l3.141-2.052l0.557,1.001l-2.148,1.403l0.489,1.076
						l0.419-0.274C238.141,163.027,238.762,162.828,239.276,162.905z"/>
					<path style="fill:#407BFF;" d="M242.834,164.223c-0.456-0.003-0.895-0.151-1.317-0.447c-0.421-0.294-0.794-0.732-1.117-1.312
						c-0.323-0.579-0.506-1.14-0.55-1.682c-0.044-0.541,0.04-1.031,0.25-1.47c0.211-0.438,0.53-0.797,0.956-1.076
						c0.427-0.279,0.868-0.417,1.325-0.414c0.457,0.003,0.895,0.152,1.317,0.446c0.421,0.295,0.794,0.733,1.116,1.312
						c0.323,0.58,0.506,1.141,0.55,1.682c0.044,0.542-0.039,1.032-0.25,1.47c-0.211,0.439-0.529,0.797-0.956,1.076
						C243.732,164.087,243.29,164.225,242.834,164.223z M244.075,161.848c0.022-0.399-0.132-0.894-0.46-1.484
						c-0.329-0.59-0.661-0.967-0.997-1.133c-0.336-0.165-0.661-0.145-0.975,0.06c-0.309,0.202-0.474,0.503-0.496,0.902
						c-0.022,0.399,0.132,0.894,0.46,1.484c0.329,0.59,0.661,0.968,0.997,1.133c0.336,0.166,0.659,0.147,0.968-0.055
						C243.885,162.549,244.053,162.247,244.075,161.848z"/>
					<path style="fill:#407BFF;" d="M245.559,158.837c-0.388-0.114-0.707-0.397-0.958-0.848c-0.251-0.452-0.333-0.89-0.246-1.315
						c0.088-0.425,0.321-0.761,0.699-1.007c0.378-0.247,0.759-0.312,1.145-0.197c0.385,0.116,0.704,0.4,0.955,0.851
						c0.251,0.452,0.334,0.889,0.249,1.312c-0.086,0.423-0.317,0.758-0.695,1.005C246.329,158.884,245.947,158.95,245.559,158.837z
						 M246.629,157.534c0.015-0.206-0.055-0.451-0.212-0.733c-0.157-0.282-0.324-0.464-0.499-0.545
						c-0.175-0.081-0.347-0.067-0.514,0.042c-0.162,0.106-0.251,0.264-0.268,0.474c-0.017,0.21,0.052,0.454,0.207,0.731
						c0.154,0.277,0.321,0.457,0.5,0.538c0.18,0.083,0.35,0.071,0.513-0.035C246.522,157.897,246.613,157.74,246.629,157.534z
						 M248.155,153.723l0.876-0.572l-0.517,7.686l-0.875,0.572L248.155,153.723z M250.857,159.144
						c-0.261,0.006-0.508-0.069-0.742-0.224c-0.233-0.155-0.433-0.382-0.599-0.679c-0.166-0.298-0.257-0.595-0.276-0.891
						c-0.017-0.296,0.036-0.568,0.164-0.815c0.127-0.247,0.312-0.451,0.558-0.611c0.378-0.247,0.76-0.313,1.148-0.199
						c0.388,0.114,0.708,0.397,0.959,0.849c0.251,0.452,0.333,0.89,0.245,1.314c-0.088,0.425-0.321,0.761-0.699,1.007
						C251.37,159.054,251.117,159.138,250.857,159.144z M251.536,157.786c0.014-0.208-0.056-0.451-0.21-0.728
						c-0.154-0.278-0.32-0.458-0.497-0.542c-0.177-0.084-0.349-0.071-0.516,0.038c-0.162,0.106-0.252,0.263-0.27,0.47
						c-0.018,0.208,0.051,0.453,0.209,0.735c0.157,0.282,0.325,0.463,0.503,0.543c0.178,0.079,0.348,0.066,0.51-0.039
						C251.431,158.154,251.522,157.995,251.536,157.786z"/>
					<path style="fill:#407BFF;" d="M243.279,174.737c-0.563,0.039-1.085-0.074-1.563-0.338c-0.478-0.265-0.865-0.661-1.159-1.19
						c-0.294-0.528-0.438-1.084-0.431-1.666c0.007-0.582,0.158-1.134,0.453-1.656c0.295-0.521,0.71-0.957,1.244-1.306
						c0.534-0.349,1.083-0.542,1.643-0.581c0.561-0.037,1.082,0.076,1.563,0.339c0.481,0.263,0.869,0.659,1.163,1.187
						c0.295,0.529,0.437,1.085,0.427,1.669c-0.01,0.583-0.161,1.135-0.453,1.655c-0.292,0.52-0.706,0.954-1.241,1.303
						C244.391,174.503,243.843,174.697,243.279,174.737z M245.037,172.334c0.164-0.307,0.242-0.637,0.237-0.989
						c-0.006-0.353-0.102-0.696-0.288-1.03c-0.186-0.333-0.421-0.585-0.707-0.756c-0.285-0.171-0.592-0.249-0.918-0.235
						c-0.327,0.014-0.642,0.12-0.946,0.319c-0.304,0.199-0.538,0.451-0.702,0.758c-0.164,0.306-0.243,0.636-0.237,0.99
						c0.006,0.353,0.102,0.696,0.287,1.03c0.186,0.334,0.421,0.586,0.707,0.756c0.285,0.17,0.591,0.248,0.918,0.235
						c0.327-0.014,0.642-0.12,0.946-0.319C244.639,172.893,244.873,172.641,245.037,172.334z"/>
					<path style="fill:#407BFF;" d="M247.339,166.468l0.793,1.424l2.384-1.557l0.557,1.001l-2.384,1.558l1.093,1.962l-1.192,0.779
						l-3-5.389l3.892-2.543l0.557,1.001L247.339,166.468z"/>
					<path style="fill:#407BFF;" d="M252.04,163.396l0.793,1.424l2.384-1.557l0.557,1.001l-2.384,1.558l1.092,1.962l-1.192,0.779
						l-3-5.389l3.892-2.543l0.557,1.001L252.04,163.396z"/>
				</g>
			</g>
		</g>
		<g>
			<path style="fill:#407BFF;" d="M291.267,157.953h-3.192l-0.564,1.464h-2.88l3.672-8.4h2.784l3.672,8.4h-2.928L291.267,157.953z
				 M290.486,155.913l-0.816-2.112l-0.816,2.112H290.486z"/>
			<path style="fill:#407BFF;" d="M302.33,150.513v8.904h-2.58v-0.54c-0.392,0.44-0.992,0.66-1.8,0.66
				c-0.576,0-1.106-0.138-1.59-0.414c-0.484-0.276-0.868-0.674-1.152-1.194c-0.284-0.52-0.426-1.12-0.426-1.8
				c0-0.68,0.142-1.278,0.426-1.794c0.284-0.516,0.668-0.912,1.152-1.188c0.484-0.276,1.014-0.414,1.59-0.414
				c0.728,0,1.284,0.188,1.668,0.564v-2.784H302.33z M299.366,157.083c0.2-0.228,0.3-0.546,0.3-0.954c0-0.408-0.1-0.724-0.3-0.948
				c-0.2-0.224-0.456-0.336-0.768-0.336c-0.312,0-0.568,0.112-0.768,0.336c-0.2,0.224-0.3,0.54-0.3,0.948
				c0,0.408,0.1,0.726,0.3,0.954c0.2,0.228,0.456,0.342,0.768,0.342C298.91,157.424,299.166,157.311,299.366,157.083z"/>
			<path style="fill:#407BFF;" d="M310.79,150.513v8.904h-2.58v-0.54c-0.392,0.44-0.992,0.66-1.8,0.66
				c-0.576,0-1.106-0.138-1.59-0.414c-0.484-0.276-0.868-0.674-1.152-1.194c-0.284-0.52-0.426-1.12-0.426-1.8
				c0-0.68,0.142-1.278,0.426-1.794c0.284-0.516,0.668-0.912,1.152-1.188c0.484-0.276,1.014-0.414,1.59-0.414
				c0.728,0,1.284,0.188,1.668,0.564v-2.784H310.79z M307.826,157.083c0.2-0.228,0.3-0.546,0.3-0.954c0-0.408-0.1-0.724-0.3-0.948
				c-0.2-0.224-0.456-0.336-0.768-0.336c-0.312,0-0.568,0.112-0.768,0.336c-0.2,0.224-0.3,0.54-0.3,0.948
				c0,0.408,0.1,0.726,0.3,0.954c0.2,0.228,0.456,0.342,0.768,0.342C307.37,157.424,307.626,157.311,307.826,157.083z"/>
			<path style="fill:#407BFF;" d="M275.642,173.45c-0.712-0.372-1.27-0.892-1.674-1.56c-0.404-0.668-0.606-1.426-0.606-2.274
				c0-0.848,0.202-1.606,0.606-2.274c0.404-0.668,0.962-1.188,1.674-1.56c0.712-0.372,1.512-0.558,2.4-0.558
				c0.816,0,1.544,0.144,2.184,0.432c0.64,0.288,1.168,0.704,1.584,1.248l-1.788,1.596c-0.52-0.656-1.132-0.984-1.836-0.984
				c-0.592,0-1.068,0.19-1.428,0.57c-0.36,0.38-0.54,0.89-0.54,1.53c0,0.64,0.18,1.15,0.54,1.53c0.36,0.38,0.836,0.57,1.428,0.57
				c0.704,0,1.316-0.328,1.836-0.984l1.788,1.596c-0.416,0.544-0.944,0.96-1.584,1.248s-1.368,0.433-2.184,0.433
				C277.155,174.009,276.354,173.822,275.642,173.45z"/>
			<path style="fill:#407BFF;" d="M283.868,173.498c-0.58-0.292-1.034-0.695-1.362-1.212c-0.328-0.516-0.492-1.102-0.492-1.758
				c0-0.656,0.164-1.242,0.492-1.758c0.328-0.516,0.782-0.918,1.362-1.206c0.58-0.288,1.234-0.432,1.962-0.432
				c0.736,0,1.394,0.144,1.974,0.432c0.58,0.288,1.032,0.69,1.356,1.206c0.324,0.516,0.486,1.102,0.486,1.758
				c0,0.656-0.162,1.242-0.486,1.758c-0.324,0.517-0.776,0.92-1.356,1.212c-0.58,0.293-1.238,0.439-1.974,0.439
				C285.102,173.937,284.448,173.791,283.868,173.498z M286.598,171.482c0.2-0.227,0.3-0.546,0.3-0.954
				c0-0.408-0.101-0.724-0.3-0.948c-0.2-0.224-0.456-0.336-0.768-0.336c-0.312,0-0.568,0.112-0.768,0.336
				c-0.2,0.224-0.3,0.54-0.3,0.948c0,0.408,0.1,0.727,0.3,0.954c0.2,0.228,0.456,0.342,0.768,0.342
				C286.142,171.824,286.398,171.71,286.598,171.482z"/>
			<path style="fill:#407BFF;" d="M297.674,167.253v6.564h-2.58v-0.624c-0.24,0.248-0.52,0.435-0.84,0.558
				c-0.32,0.124-0.66,0.186-1.02,0.186c-0.832,0-1.5-0.254-2.004-0.762c-0.504-0.509-0.756-1.274-0.756-2.299v-3.624h2.712v3.156
				c0,0.448,0.072,0.769,0.216,0.96c0.144,0.192,0.356,0.288,0.636,0.288c0.264,0,0.484-0.105,0.66-0.317
				c0.176-0.212,0.264-0.546,0.264-1.003v-3.084H297.674z"/>
			<path style="fill:#407BFF;" d="M304.844,167.546c0.484,0.276,0.868,0.674,1.152,1.194c0.284,0.521,0.426,1.12,0.426,1.801
				c0,0.68-0.142,1.277-0.426,1.793c-0.284,0.517-0.668,0.912-1.152,1.188c-0.484,0.276-1.014,0.414-1.59,0.414
				c-0.728,0-1.284-0.189-1.668-0.564v2.772h-2.712v-8.892h2.58v0.54c0.392-0.44,0.992-0.66,1.8-0.66
				C303.83,167.132,304.36,167.271,304.844,167.546z M303.374,171.488c0.2-0.224,0.3-0.54,0.3-0.947c0-0.409-0.1-0.727-0.3-0.955
				c-0.2-0.228-0.456-0.342-0.768-0.342c-0.312,0-0.568,0.114-0.768,0.342c-0.2,0.228-0.3,0.546-0.3,0.955
				c0,0.407,0.1,0.724,0.3,0.947c0.2,0.225,0.456,0.336,0.768,0.336C302.918,171.824,303.174,171.713,303.374,171.488z"/>
			<path style="fill:#407BFF;" d="M308.78,173.498c-0.58-0.292-1.034-0.695-1.362-1.212c-0.328-0.516-0.492-1.102-0.492-1.758
				c0-0.656,0.164-1.242,0.492-1.758c0.328-0.516,0.782-0.918,1.362-1.206c0.58-0.288,1.234-0.432,1.962-0.432
				c0.736,0,1.394,0.144,1.974,0.432c0.58,0.288,1.032,0.69,1.356,1.206c0.324,0.516,0.486,1.102,0.486,1.758
				c0,0.656-0.162,1.242-0.486,1.758c-0.324,0.517-0.776,0.92-1.356,1.212c-0.58,0.293-1.238,0.439-1.974,0.439
				C310.014,173.937,309.36,173.791,308.78,173.498z M311.51,171.482c0.2-0.227,0.3-0.546,0.3-0.954c0-0.408-0.101-0.724-0.3-0.948
				c-0.2-0.224-0.456-0.336-0.768-0.336c-0.312,0-0.568,0.112-0.768,0.336c-0.2,0.224-0.3,0.54-0.3,0.948
				c0,0.408,0.1,0.727,0.3,0.954c0.2,0.228,0.456,0.342,0.768,0.342C311.054,171.824,311.31,171.71,311.51,171.482z"/>
			<path style="fill:#407BFF;" d="M321.919,167.864c0.492,0.488,0.738,1.224,0.738,2.208v3.744h-2.712v-3.275
				c0-0.752-0.269-1.128-0.804-1.128c-0.304,0-0.55,0.106-0.738,0.318c-0.189,0.212-0.282,0.546-0.282,1.002v3.084h-2.712v-6.564
				h2.58v0.648c0.256-0.256,0.552-0.448,0.888-0.576c0.336-0.128,0.7-0.192,1.092-0.192
				C320.777,167.132,321.428,167.377,321.919,167.864z"/>
		</g>
	</g>
</g>
<g id="Character">
	<g>
		<g>
			<g>
				<path style="fill:#263238;" d="M178.045,223.26c0.562,1.708,13.82,3.814,6.953,14.738c-6.866,10.924-10.822,3.552-8.656,15.879
					c2.166,12.326-13.474,4.154-21.472,6.723c-14.364,4.615-20.106-16.245-8.852-17.446c11.254-1.201,13.743-1.807,12.425-10.641
					C157.124,223.679,174.144,211.394,178.045,223.26z"/>
				<g>
					<path style="fill:#FFC3BD;" d="M181.693,258.441c-0.001,0.962,0.021,1.796,0.077,2.68c0.049,0.872,0.116,1.739,0.194,2.605
						c0.157,1.732,0.417,3.451,0.702,5.168c0.594,3.43,1.436,6.84,2.682,10.155l0.232,0.621c0.086,0.22,0.119,0.35,0.313,0.778
						c0.323,0.721,0.897,1.457,1.593,1.966c0.696,0.525,1.456,0.788,2.129,0.932c0.679,0.141,1.295,0.162,1.862,0.138
						c1.133-0.057,2.105-0.276,3.024-0.55c0.917-0.275,1.771-0.606,2.601-0.961c3.283-1.486,6.172-3.285,8.949-5.399l-1.561-2.453
						c-1.449,0.693-2.962,1.388-4.457,2.009c-1.491,0.638-3.003,1.205-4.493,1.646c-1.461,0.45-3.004,0.775-4.121,0.725
						c-0.553-0.017-0.863-0.214-0.768-0.21c0.033-0.002,0.075,0.055,0.069,0.005l-0.289-0.968c-0.92-3.024-1.544-6.173-2.025-9.349
						c-0.232-1.591-0.396-3.194-0.548-4.796c-0.151-1.583-0.24-3.253-0.292-4.741L181.693,258.441z"/>
					<g>
						<path style="fill:#407BFF;" d="M186.186,251.724c2.316,0.772,3.261,10.604,3.261,10.604l-6.825,3.95
							c0,0-5.523-10.251-3.519-12.714C181.19,251,182.805,250.597,186.186,251.724z"/>
						<path style="opacity:0.2;fill:#FFFFFF;" d="M186.186,251.724c2.316,0.772,3.261,10.604,3.261,10.604l-6.825,3.95
							c0,0-5.523-10.251-3.519-12.714C181.19,251,182.805,250.597,186.186,251.724z"/>
					</g>
					<path style="opacity:0.2;" d="M185.815,253.878l1.101,9.921l-0.529,0.172c-0.051,1.872-0.981,8.031-1.976,12.195
						c-1.152-3.759-1.598-5.823-2.328-9.531L185.815,253.878z"/>
					<path style="fill:#FFC3BD;" d="M203.201,274.834l4.194-5.621l1.577,5.621c0,0-2.63,2.584-4.908,1.873L203.201,274.834z"/>
					<path style="fill:#FFC3BD;" d="M204.953,268.522L204.953,268.522c0.55,0.147,0.955,0.612,1.026,1.176l0.344,2.741l-1.813,0.855
						L204.953,268.522z"/>
					<polygon style="fill:#FFC3BD;" points="211.275,267.43 212.341,271.673 208.971,274.834 207.395,269.213 					"/>
				</g>
				<g>
					<g>
						<path style="fill:#407BFF;" d="M186.186,251.724c0,0,2.756,2.308-5.151,35.51c-9.482,0-19.601,0.058-24.469,0
							c1.078-9.437,2.629-18.112-0.483-37.865c0,0,4.95-0.706,9.97-0.583c3.927,0.096,7.143,0.204,10.56,0.768
							C181.118,250.297,186.186,251.724,186.186,251.724z"/>
						<path style="opacity:0.2;fill:#FFFFFF;" d="M186.186,251.724c0,0,2.756,2.308-5.151,35.51c-10.935,0.068-18.325,0-24.469,0
							c1.078-9.437,2.629-18.112-0.483-37.865c0,0,4.95-0.706,9.97-0.583c3.927,0.096,7.143,0.204,10.56,0.768
							C181.118,250.297,186.186,251.724,186.186,251.724z"/>
					</g>
					<path style="opacity:0.2;" d="M161.885,257.501c-0.528,3.614-2.172,7.521-3.967,12.077c-0.035-2.936-0.147-5.73-0.376-8.311
						L161.885,257.501z"/>
				</g>
				<g>
					<path style="fill:#FFC3BD;" d="M152.86,256.126c-0.127,0.648-0.309,1.432-0.476,2.155c-0.175,0.737-0.368,1.472-0.575,2.203
						c-0.418,1.458-0.849,2.913-1.377,4.318c-1.05,2.803-2.321,5.508-3.988,7.723c-0.203,0.255-0.466,0.588-0.555,0.687
						c-0.169,0.173-0.385,0.374-0.643,0.578c-0.508,0.412-1.109,0.832-1.732,1.234c-1.261,0.799-2.606,1.585-3.981,2.329
						c-1.367,0.765-2.765,1.505-4.177,2.223l-4.236,2.178l1.024,2.722c3.167-0.842,6.223-1.886,9.292-3.081
						c1.523-0.62,3.046-1.27,4.564-2.066c0.762-0.402,1.526-0.825,2.313-1.357c0.391-0.266,0.795-0.573,1.214-0.944
						c0.49-0.457,0.727-0.751,1.05-1.099c1.197-1.377,2.197-2.854,3.054-4.373c0.868-1.514,1.589-3.079,2.22-4.66
						c0.632-1.582,1.192-3.178,1.652-4.801c0.228-0.812,0.44-1.627,0.634-2.449c0.199-0.837,0.361-1.618,0.513-2.548L152.86,256.126
						z"/>
					<g>
						<path style="fill:#407BFF;" d="M156.083,249.369c-2.382,0.539-5.763,8.358-5.763,8.358l8.57,7.12c0,0,3.783-6.458,3.023-9.54
							C161.121,252.096,158.8,248.754,156.083,249.369z"/>
						<path style="opacity:0.2;fill:#FFFFFF;" d="M156.083,249.369c-2.382,0.539-5.763,8.358-5.763,8.358l8.57,7.12
							c0,0,3.783-6.458,3.023-9.54C161.121,252.096,158.8,248.754,156.083,249.369z"/>
					</g>
					<path style="fill:#FFC3BD;" d="M132.556,281.605l-5.431-2.996l1.138,5.726c0,0,3.514,1.114,5.224-0.551L132.556,281.605z"/>
					<polygon style="fill:#FFC3BD;" points="122.36,279.377 123.572,284.12 128.263,284.335 127.125,278.609 					"/>
				</g>
				<g>
					<path style="fill:#FFC3BD;" d="M167.964,236.971c0.419,3.446,0.631,9.72-1.911,11.815c0,0,0.678,3.514,6.992,3.973
						c6.942,0.505,3.568-3.205,3.568-3.205c-3.723-1.18-3.421-3.984-2.569-6.576L167.964,236.971z"/>
					<path style="opacity:0.2;" d="M170.442,239.422l3.599,3.552c-0.204,0.613-0.373,1.238-0.462,1.851
						c-1.432-0.314-3.305-2.048-3.349-3.575C170.209,240.489,170.293,239.765,170.442,239.422z"/>
					<path style="fill:#FFC3BD;" d="M164.079,231.236c1.301,5.547,1.734,7.923,5.056,10.317c4.998,3.601,11.527,0.79,11.909-5.035
						c0.344-5.242-1.842-13.434-7.71-14.728C167.552,220.515,162.777,225.688,164.079,231.236z"/>
					<path style="fill:#263238;" d="M177.433,222.789c1.867,2.597-16.299,12.26-14.557,6.154
						C164.618,222.837,172.558,216.009,177.433,222.789z"/>
					<path style="fill:#263238;" d="M168.185,229.029c0.441,2.702-3.125,5.898-3.125,5.898s-4.573-3.373-1.695-5.174
						C166.242,227.951,168.185,229.029,168.185,229.029z"/>
					<path style="fill:#263238;" d="M173.642,231.198c0.078,0.456,0.383,0.785,0.681,0.734c0.298-0.051,0.477-0.462,0.399-0.919
						c-0.078-0.456-0.383-0.785-0.681-0.734C173.742,230.33,173.564,230.742,173.642,231.198z"/>
					<path style="fill:#263238;" d="M178.801,230.317c0.078,0.457,0.383,0.785,0.681,0.734c0.298-0.051,0.477-0.462,0.399-0.919
						c-0.078-0.457-0.383-0.785-0.681-0.734C178.902,229.449,178.723,229.861,178.801,230.317z"/>
					<path style="fill:#263238;" d="M179.073,229.446l1.042-0.503C180.115,228.943,179.699,229.895,179.073,229.446z"/>
					<path style="fill:#ED847E;" d="M176.983,231.411c0,0,1.11,1.833,2.125,2.636c-0.507,0.665-1.575,0.583-1.575,0.583
						L176.983,231.411z"/>
					<path style="fill:#263238;" d="M175.348,236.842c0.216-0.004,0.443-0.024,0.681-0.064c0.074-0.013,0.124-0.083,0.111-0.157
						c-0.012-0.074-0.089-0.123-0.156-0.111c-2.01,0.342-3.178-0.898-3.19-0.91c-0.051-0.055-0.137-0.059-0.192-0.007
						c-0.055,0.051-0.058,0.137-0.007,0.192C172.64,235.834,173.622,236.87,175.348,236.842z"/>
					<path style="fill:#FFC3BD;" d="M163.437,236.635c0.586,1.026,1.59,1.686,2.531,1.927c1.415,0.362,2.09-0.911,1.671-2.229
						c-0.378-1.187-1.569-2.805-2.976-2.583C163.276,233.969,162.768,235.462,163.437,236.635z"/>
					<path style="fill:#263238;" d="M171.391,230.501c0.115-0.002,0.22-0.076,0.256-0.192c0.37-1.202,1.907-1.716,1.922-1.721
						c0.143-0.047,0.221-0.2,0.174-0.343c-0.046-0.143-0.199-0.221-0.343-0.174c-0.074,0.024-1.821,0.609-2.273,2.078
						c-0.044,0.144,0.036,0.296,0.18,0.34C171.335,230.497,171.363,230.501,171.391,230.501z"/>
					<path style="fill:#263238;" d="M179.945,227.669c0.093-0.002,0.182-0.051,0.232-0.137c0.075-0.13,0.029-0.296-0.101-0.371
						c-1.305-0.747-2.43-0.189-2.477-0.165c-0.134,0.068-0.187,0.232-0.118,0.366c0.068,0.133,0.231,0.186,0.365,0.119l0,0
						c0.037-0.018,0.918-0.445,1.96,0.152C179.849,227.658,179.897,227.67,179.945,227.669z"/>
					<path style="fill:#263238;" d="M173.913,230.327l1.042-0.503C174.956,229.824,174.54,230.776,173.913,230.327z"/>
				</g>
			</g>
			<g>
				<g>
					<path style="fill:#263238;" d="M164.257,404.601c-3.34-3.079-5.338-6.201-6.814-8.291c-1.261-1.794-1.506-1.346-2.846-3.114
						c-0.888-1.171-0.07-2.83,1.209-3.198c0.996-0.286,2.31-0.467,3.459-1.03l4.611,3.401c-0.843,2.174,0.27,8.302,2.648,10.82
						C168.22,404.994,165.596,405.831,164.257,404.601z"/>
					<g>
						<g>
							<path style="fill:#263238;" d="M179.753,287.234c0,0,14.797,43.23,15.001,57.234c0.062,4.278-31.24,48.935-31.24,48.935
								c-0.798,0.604-4.093-3.496-4.281-4.573c8.177-15.808,14.08-34.258,21.487-44.955c-18.368-30.814-22.71-56.642-22.71-56.642
								H179.753z"/>
						</g>
						<g style="opacity:0.2;">
							<path style="fill:#FFFFFF;" d="M179.753,287.234c0,0,14.797,43.23,15.001,57.234c0.062,4.278-31.24,48.935-31.24,48.935
								c-0.798,0.604-4.093-3.496-4.281-4.573c8.177-15.808,14.08-34.258,21.487-44.955c-18.368-30.814-22.71-56.642-22.71-56.642
								H179.753z"/>
						</g>
					</g>
					<path style="opacity:0.3;" d="M167.761,308.423c0,0,8.34,17.673,8.62,27.169c-2.598-4.635-8.144-16.672-9.853-20.447
						L167.761,308.423z"/>
					<path style="opacity:0.2;" d="M164.265,378.291c-0.408,4.287-1.143,10.474-1.009,15.172c-0.559-0.192-1.075-0.436-1.453-0.851
						l-0.58-7.765L164.265,378.291z"/>
				</g>
				<g>
					<path style="fill:#263238;" d="M168.406,420.143c-4.622,0-5.233-0.071-7.83-0.159c-2.224-0.079-2.756,0.199-4.543,0.159
						c-1.493-0.032-1.438-1.461-0.977-3.105c0.23-0.826,0.585-2.571,0.903-3.905l6.771-0.492c0.953,1.819,3.103,4.413,5.708,4.763
						C170.925,417.737,170.249,420.143,168.406,420.143z"/>
					<g>
						<g>
							<path style="fill:#263238;" d="M173.235,287.234c0,0-4.864,44.622-7.696,63.025c-2.974,19.328-3.352,50.34-2.609,62.979
								c-1.083,0.629-5.006,0.191-7.139-0.476c0,0-6.812-38.709-3.407-60.594c-3.313-53.992,5.625-64.934,5.625-64.934H173.235z"/>
						</g>
						<g style="opacity:0.2;">
							<path style="fill:#FFFFFF;" d="M173.235,287.234c0,0-4.864,44.622-7.696,63.025c-2.974,19.328-3.352,50.34-2.609,62.979
								c-1.083,0.629-5.006,0.191-7.139-0.476c0,0-6.812-38.709-3.407-60.594c-3.313-53.992,5.625-64.934,5.625-64.934H173.235z"/>
						</g>
					</g>
				</g>
			</g>
		</g>
		<g>
			<g>
				<g>
					<g>
						<path style="fill:#407BFF;" d="M106.863,339.887h37.351c0.815,0,1.522-0.563,1.704-1.358l6.017-26.276h-52.28l5.497,26.244
							C105.321,339.306,106.035,339.887,106.863,339.887z"/>
						<path style="opacity:0.1;fill:#FFFFFF;" d="M106.863,339.887h37.351c0.815,0,1.522-0.563,1.704-1.358l6.017-26.276h-52.28
							l5.497,26.244C105.321,339.306,106.035,339.887,106.863,339.887z"/>
					</g>
					<g>
						<g>
							<g>
								<path style="fill:#263238;" d="M143.506,323.269L143.506,323.269c0.412,0,0.747-0.334,0.747-0.747v-6.99
									c0-0.413-0.334-0.747-0.747-0.747l0,0c-0.413,0-0.747,0.334-0.747,0.747v6.99
									C142.759,322.934,143.093,323.269,143.506,323.269z"/>
								<path style="fill:#263238;" d="M140.518,323.269L140.518,323.269c0.412,0,0.747-0.334,0.747-0.747v-6.99
									c0-0.413-0.334-0.747-0.747-0.747l0,0c-0.413,0-0.747,0.334-0.747,0.747v6.99
									C139.771,322.934,140.106,323.269,140.518,323.269z"/>
								<path style="fill:#263238;" d="M137.588,323.269L137.588,323.269c0.413,0,0.747-0.334,0.747-0.747v-6.99
									c0-0.413-0.334-0.747-0.747-0.747l0,0c-0.412,0-0.747,0.334-0.747,0.747v6.99
									C136.841,322.934,137.176,323.269,137.588,323.269z"/>
							</g>
							<g>
								<path style="fill:#263238;" d="M114.195,323.269L114.195,323.269c0.412,0,0.747-0.334,0.747-0.747v-6.99
									c0-0.413-0.334-0.747-0.747-0.747l0,0c-0.412,0-0.747,0.334-0.747,0.747v6.99
									C113.448,322.934,113.782,323.269,114.195,323.269z"/>
								<path style="fill:#263238;" d="M111.165,323.269L111.165,323.269c0.412,0,0.747-0.334,0.747-0.747v-6.99
									c0-0.413-0.334-0.747-0.747-0.747l0,0c-0.412,0-0.747,0.334-0.747,0.747v6.99
									C110.418,322.934,110.752,323.269,111.165,323.269z"/>
								<path style="fill:#263238;" d="M108.146,323.269L108.146,323.269c0.412,0,0.747-0.334,0.747-0.747v-6.99
									c0-0.413-0.334-0.747-0.747-0.747l0,0c-0.413,0-0.747,0.334-0.747,0.747v6.99
									C107.399,322.934,107.734,323.269,108.146,323.269z"/>
							</g>
							<g>
								<path style="fill:#263238;" d="M130.581,323.269L130.581,323.269c0.412,0,0.747-0.334,0.747-0.747v-6.99
									c0-0.413-0.334-0.747-0.747-0.747l0,0c-0.413,0-0.747,0.334-0.747,0.747v6.99
									C129.834,322.934,130.169,323.269,130.581,323.269z"/>
								<path style="fill:#263238;" d="M127.671,323.269L127.671,323.269c0.412,0,0.747-0.334,0.747-0.747v-6.99
									c0-0.413-0.334-0.747-0.747-0.747l0,0c-0.412,0-0.747,0.334-0.747,0.747v6.99
									C126.925,322.934,127.259,323.269,127.671,323.269z"/>
								<path style="fill:#263238;" d="M124.684,323.269L124.684,323.269c0.412,0,0.747-0.334,0.747-0.747v-6.99
									c0-0.413-0.334-0.747-0.747-0.747l0,0c-0.412,0-0.747,0.334-0.747,0.747v6.99
									C123.937,322.934,124.271,323.269,124.684,323.269z"/>
								<path style="fill:#263238;" d="M121.697,323.269L121.697,323.269c0.412,0,0.747-0.334,0.747-0.747v-6.99
									c0-0.413-0.334-0.747-0.747-0.747l0,0c-0.412,0-0.747,0.334-0.747,0.747v6.99
									C120.95,322.934,121.284,323.269,121.697,323.269z"/>
							</g>
						</g>
						<g>
							<g>
								<path style="fill:#263238;" d="M143.506,335.592L143.506,335.592c0.412,0,0.747-0.334,0.747-0.747v-6.99
									c0-0.413-0.334-0.747-0.747-0.747l0,0c-0.413,0-0.747,0.334-0.747,0.747v6.99
									C142.759,335.258,143.093,335.592,143.506,335.592z"/>
								<path style="fill:#263238;" d="M140.518,335.592L140.518,335.592c0.412,0,0.747-0.334,0.747-0.747v-6.99
									c0-0.413-0.334-0.747-0.747-0.747l0,0c-0.413,0-0.747,0.334-0.747,0.747v6.99
									C139.771,335.258,140.106,335.592,140.518,335.592z"/>
								<path style="fill:#263238;" d="M137.588,335.592L137.588,335.592c0.413,0,0.747-0.334,0.747-0.747v-6.99
									c0-0.413-0.334-0.747-0.747-0.747l0,0c-0.412,0-0.747,0.334-0.747,0.747v6.99
									C136.841,335.258,137.176,335.592,137.588,335.592z"/>
							</g>
							<g>
								<path style="fill:#263238;" d="M114.195,335.592L114.195,335.592c0.412,0,0.747-0.334,0.747-0.747v-6.99
									c0-0.413-0.334-0.747-0.747-0.747l0,0c-0.412,0-0.747,0.334-0.747,0.747v6.99
									C113.448,335.258,113.782,335.592,114.195,335.592z"/>
								<path style="fill:#263238;" d="M111.165,335.592L111.165,335.592c0.412,0,0.747-0.334,0.747-0.747v-6.99
									c0-0.413-0.334-0.747-0.747-0.747l0,0c-0.412,0-0.747,0.334-0.747,0.747v6.99
									C110.418,335.258,110.752,335.592,111.165,335.592z"/>
								<path style="fill:#263238;" d="M108.146,335.592L108.146,335.592c0.412,0,0.747-0.334,0.747-0.747v-6.99
									c0-0.413-0.334-0.747-0.747-0.747l0,0c-0.413,0-0.747,0.334-0.747,0.747v6.99
									C107.399,335.258,107.734,335.592,108.146,335.592z"/>
							</g>
							<g>
								<path style="fill:#263238;" d="M130.581,335.592L130.581,335.592c0.412,0,0.747-0.334,0.747-0.747v-6.99
									c0-0.413-0.334-0.747-0.747-0.747l0,0c-0.413,0-0.747,0.334-0.747,0.747v6.99
									C129.834,335.258,130.169,335.592,130.581,335.592z"/>
								<path style="fill:#263238;" d="M127.671,335.592L127.671,335.592c0.412,0,0.747-0.334,0.747-0.747v-6.99
									c0-0.413-0.334-0.747-0.747-0.747l0,0c-0.412,0-0.747,0.334-0.747,0.747v6.99
									C126.925,335.258,127.259,335.592,127.671,335.592z"/>
								<path style="fill:#263238;" d="M124.684,335.592L124.684,335.592c0.412,0,0.747-0.334,0.747-0.747v-6.99
									c0-0.413-0.334-0.747-0.747-0.747l0,0c-0.412,0-0.747,0.334-0.747,0.747v6.99
									C123.937,335.258,124.271,335.592,124.684,335.592z"/>
								<path style="fill:#263238;" d="M121.697,335.592L121.697,335.592c0.412,0,0.747-0.334,0.747-0.747v-6.99
									c0-0.413-0.334-0.747-0.747-0.747l0,0c-0.412,0-0.747,0.334-0.747,0.747v6.99
									C120.95,335.258,121.284,335.592,121.697,335.592z"/>
							</g>
						</g>
					</g>
					<polygon style="opacity:0.2;" points="151.75,313.062 99.883,313.062 99.406,311.381 152.246,311.381 					"/>
				</g>
				<g>
					<path style="fill:#407BFF;" d="M98.348,312.253h55.272c1.237,0,2.241-1.003,2.241-2.241l0,0c0-1.237-1.003-2.241-2.241-2.241
						H98.348c-1.237,0-2.241,1.003-2.241,2.241l0,0C96.107,311.249,97.11,312.253,98.348,312.253z"/>
					<path style="opacity:0.3;fill:#FFFFFF;" d="M98.348,312.253h55.272c1.237,0,2.241-1.003,2.241-2.241l0,0
						c0-1.237-1.003-2.241-2.241-2.241H98.348c-1.237,0-2.241,1.003-2.241,2.241l0,0C96.107,311.249,97.11,312.253,98.348,312.253z"
						/>
				</g>
			</g>
			<path style="fill:#263238;" d="M125.984,311.381L125.984,311.381c0.758,0,1.373-0.615,1.373-1.373v-27.999
				c0-0.758-0.615-1.373-1.373-1.373l0,0c-0.758,0-1.373,0.615-1.373,1.373v27.999C124.611,310.767,125.225,311.381,125.984,311.381
				z"/>
		</g>
	</g>
</g>
</svg>
