<?xml version="1.0" encoding="utf-8"?>
<!-- Generator: Adobe Illustrator 27.5.0, SVG Export Plug-In . SVG Version: 6.00 Build 0)  -->
<svg version="1.1" xmlns="http://www.w3.org/2000/svg" xmlns:xlink="http://www.w3.org/1999/xlink" x="0px" y="0px"
	 viewBox="0 0 500 500" style="enable-background:new 0 0 500 500;" xml:space="preserve">
<g id="Background_complete">
	<g>
		<rect x="279.409" y="118.986" style="fill:#F0F0F0;" width="39.764" height="10.227"/>
	</g>
	<g>
		<rect x="105.066" y="43.168" style="fill:#E0E0E0;" width="39.764" height="10.227"/>
	</g>
	<g>
		<g>
			<rect x="315.324" y="48.501" style="fill:#E0E0E0;" width="93.198" height="130.836"/>
			<rect x="319.894" y="53.098" style="fill:#FFFFFF;" width="84.06" height="120.776"/>
		</g>
		<rect x="338.621" y="76.016" style="fill:#EBEBEB;" width="48.251" height="74.939"/>
		<g>
			<path style="fill:#FFFFFF;" d="M358.526,77.051c-3.302,4.197-6.855,8.406-8.389,13.626c-1.447,4.925-1.091,10.49,0.892,15.215
				c1.941,4.622,5.528,8.343,10.33,9.948c4.493,1.502,9.768,1.04,13.584-1.901c3.892-2.999,5.89-8.773,2.571-12.941
				c-2.81-3.529-7.926-4.326-12.119-3.472c-5.049,1.029-9.484,4.237-12.6,8.265c-3.508,4.534-5.295,10.106-6.009,15.739
				c-0.38,2.996-0.743,6.348,0.055,9.305c0.744,2.758,2.77,4.728,5.46,5.598c6.261,2.025,12.1-2.236,18.334-1.67
				c-0.412-0.412-0.823-0.824-1.235-1.235c-0.015,5.719-0.041,11.439-0.056,17.159c-0.004,1.59,2.466,1.592,2.471,0
				c0.015-5.72,0.041-11.439,0.056-17.159c0.002-0.712-0.57-1.175-1.235-1.235c-5.158-0.468-9.84,2.418-14.951,2.222
				c-1.854-0.071-3.828-0.557-5.159-1.929c-1.631-1.68-1.681-4.215-1.623-6.411c0.249-9.505,3.61-19.811,12.483-24.573
				c3.484-1.87,7.856-2.73,11.582-1.026c1.656,0.757,3.09,2.04,3.593,3.838c0.595,2.123-0.227,4.418-1.577,6.081
				c-2.601,3.204-7.053,4.238-10.985,3.484c-4.262-0.816-7.72-3.48-9.828-7.245c-2.4-4.285-3.046-9.675-1.906-14.439
				c1.247-5.212,4.772-9.381,8.009-13.496C361.246,77.562,359.509,75.802,358.526,77.051L358.526,77.051z"/>
		</g>
		<polygon style="fill:#F0F0F0;" points="321.804,173.874 321.804,55.862 403.954,55.862 403.954,53.098 319.894,53.098 
			319.894,173.874 		"/>
		<path style="opacity:0.5;fill:#FFFFFF;" d="M367.44,104.637h-36.89c-0.567,0-1.026-0.46-1.026-1.027V66.72
			c0-0.567,0.46-1.026,1.026-1.026h36.89c0.567,0,1.027,0.46,1.027,1.026v36.89C368.467,104.177,368.007,104.637,367.44,104.637z"/>
	</g>
	<g>
		<g>
			<g>
				<g>
					<g>
						<path style="fill:#E0E0E0;" d="M443.92,307.235H263.174c-3.232,0-5.862-2.63-5.862-5.862V38.099
							c0-3.232,2.63-5.862,5.862-5.862H443.92c3.232,0,5.862,2.629,5.862,5.862v263.273
							C449.783,304.605,447.153,307.235,443.92,307.235z M263.174,32.487c-3.095,0-5.612,2.518-5.612,5.612v263.273
							c0,3.095,2.518,5.612,5.612,5.612H443.92c3.095,0,5.612-2.517,5.612-5.612V38.099c0-3.094-2.518-5.612-5.612-5.612H263.174z"
							/>
					</g>
				</g>
				<g>
					<g>
						<path style="fill:#E0E0E0;" d="M235.493,307.235H54.746c-3.232,0-5.862-2.63-5.862-5.862V38.099
							c0-3.232,2.629-5.862,5.862-5.862h180.747c3.232,0,5.862,2.629,5.862,5.862v263.273
							C241.355,304.605,238.725,307.235,235.493,307.235z M54.746,32.487c-3.094,0-5.612,2.518-5.612,5.612v263.273
							c0,3.095,2.518,5.612,5.612,5.612h180.747c3.095,0,5.612-2.517,5.612-5.612V38.099c0-3.094-2.518-5.612-5.612-5.612H54.746z"
							/>
					</g>
				</g>
			</g>
			<g>
				<g>
					<rect x="0" y="368.304" style="fill:#E0E0E0;" width="500" height="0.25"/>
				</g>
			</g>
		</g>
		<rect x="51.672" y="382.569" style="fill:#E0E0E0;" width="16.06" height="0.25"/>
		<rect x="170.352" y="379.859" style="fill:#E0E0E0;" width="53.53" height="0.25"/>
		<rect x="68.732" y="391.859" style="fill:#E0E0E0;" width="36.25" height="0.25"/>
		<rect x="378.352" y="379.729" style="fill:#E0E0E0;" width="43.19" height="0.25"/>
		<rect x="430.452" y="379.729" style="fill:#E0E0E0;" width="6.33" height="0.25"/>
		<rect x="316.212" y="385.959" style="fill:#E0E0E0;" width="53.89" height="0.25"/>
	</g>
	<g>
		<g>
			<path style="fill:#E7E7E7;" d="M462.631,337.402c2.257-2.881,6.618-4.803,11.406-5.728c-0.376,1.419-0.094,2.727,0.716,3.049
				c0.903,0.359,2.115-0.646,2.706-2.243c0.167-0.451,0.259-0.897,0.296-1.319c4.828-0.407,9.655,0.169,12.877,1.77
				c0,0-3.155,2.945-6.727,10.688c-0.11-0.004-0.219-0.008-0.331-0.007c-2.312,0.024-4.176,1.181-4.162,2.583
				c0.01,1.024,1.021,1.894,2.466,2.281c-0.188,0.496-0.375,1-0.562,1.524c-3.404,9.541-12.484,2.644-12.402-3.887
				C468.913,346.113,457.574,343.858,462.631,337.402z"/>
			<g>
				<path style="fill:#E7E7E7;" d="M451.445,325.086c-2.781-3.11-7.892-4.963-13.417-5.647c0.531,1.588,0.304,3.102-0.596,3.531
					c-1.004,0.479-2.457-0.573-3.247-2.348c-0.223-0.501-0.361-1.003-0.433-1.481c-5.533-0.089-10.995,0.941-14.553,3.016
					c0,0,3.809,3.113,8.441,11.664c0.125-0.013,0.25-0.026,0.377-0.033c2.638-0.151,4.846,1.022,4.932,2.622
					c0.063,1.169-1.027,2.239-2.646,2.791c0.25,0.551,0.5,1.111,0.751,1.694c4.57,10.613,14.423,2.047,13.858-5.392
					C444.912,335.504,457.676,332.054,451.445,325.086z"/>
				<g>
					<g>
						<g>
							<path style="fill:#EBEBEB;" d="M444.691,322.756c1.181-5.97,6.131-12.195,12.432-17.302c0.491,2.362,1.859,4.048,3.274,3.881
								c1.579-0.187,2.609-2.601,2.302-5.393c-0.087-0.788-0.279-1.511-0.534-2.155c6.738-4.382,14.195-7.333,20.063-7.528
								c0,0-2.443,6.768-1.984,20.857c-0.163,0.08-0.326,0.161-0.488,0.251c-3.352,1.85-5.222,4.998-4.176,7.032
								c0.764,1.485,2.874,1.96,5.263,1.389c0.089,0.87,0.185,1.752,0.296,2.662c2.021,16.577-16.259,13.653-20.919,4.071
								C460.22,330.521,442.046,336.134,444.691,322.756z"/>
						</g>
					</g>
				</g>
				<path style="fill:none;stroke:#E0E0E0;stroke-width:0.75;stroke-miterlimit:10;" d="M457.862,360.575
					c-3.045-17.528,1.503-36.32,12.171-50.288"/>
				
					<path style="fill:none;stroke:#E0E0E0;stroke-width:0.75;stroke-linecap:round;stroke-linejoin:round;stroke-miterlimit:10;" d="
					M435.28,326.891c12.795,6.881,19.863,21.654,21.756,27.399c0,0,15.665-11.772,23.218-16.785"/>
				<g>
					<polygon style="fill:#E0E0E0;" points="476.639,366.176 438.173,366.176 438.188,358.879 476.6,358.879 					"/>
					<polygon style="fill:#E0E0E0;" points="440.96,363.797 446.97,389.692 469.102,389.692 474.462,363.797 					"/>
				</g>
			</g>
		</g>
		<path style="fill:none;stroke:#E0E0E0;stroke-width:0.5;stroke-linecap:round;stroke-linejoin:round;stroke-miterlimit:10;" d="
			M440.318,357.381c1.14,0,2.281,0,3.422,0"/>
		<path style="fill:none;stroke:#E0E0E0;stroke-width:0.5;stroke-linecap:round;stroke-linejoin:round;stroke-miterlimit:10;" d="
			M445.312,357.381c3.121,0,6.243,0,9.364,0"/>
	</g>
	<g>
		<g>
			<path style="fill:#E7E7E7;" d="M52.877,345.364c2.257-2.881,6.618-4.803,11.406-5.728c-0.376,1.419-0.094,2.727,0.716,3.049
				c0.903,0.358,2.114-0.646,2.706-2.243c0.167-0.451,0.259-0.898,0.296-1.319c4.828-0.406,9.655,0.169,12.877,1.77
				c0,0-3.155,2.945-6.727,10.688c-0.11-0.004-0.22-0.008-0.331-0.007c-2.312,0.024-4.176,1.181-4.162,2.583
				c0.01,1.025,1.021,1.894,2.466,2.281c-0.188,0.496-0.375,1-0.562,1.524c-3.404,9.541-12.484,2.644-12.402-3.887
				C59.159,354.074,47.821,351.819,52.877,345.364z"/>
			<g>
				<path style="fill:#E7E7E7;" d="M41.691,333.048c-2.781-3.109-7.892-4.963-13.417-5.647c0.531,1.588,0.304,3.102-0.596,3.531
					c-1.004,0.479-2.457-0.573-3.247-2.348c-0.223-0.501-0.361-1.003-0.433-1.481c-5.533-0.089-10.995,0.941-14.553,3.016
					c0,0,3.809,3.113,8.441,11.664c0.125-0.013,0.25-0.026,0.377-0.033c2.638-0.151,4.846,1.022,4.932,2.622
					c0.063,1.168-1.027,2.239-2.646,2.791c0.25,0.551,0.5,1.111,0.751,1.694c4.569,10.614,14.423,2.047,13.858-5.392
					C35.159,343.465,47.922,340.016,41.691,333.048z"/>
				<g>
					<g>
						<g>
							<path style="fill:#EBEBEB;" d="M34.938,330.718c1.181-5.97,6.131-12.195,12.432-17.302c0.491,2.362,1.859,4.048,3.274,3.881
								c1.579-0.187,2.609-2.601,2.302-5.394c-0.087-0.788-0.279-1.511-0.534-2.155c6.738-4.382,14.195-7.333,20.063-7.528
								c0,0-2.443,6.768-1.984,20.857c-0.163,0.08-0.326,0.161-0.488,0.251c-3.352,1.85-5.222,4.998-4.176,7.031
								c0.764,1.485,2.874,1.96,5.262,1.389c0.089,0.87,0.185,1.752,0.296,2.662c2.021,16.577-16.26,13.653-20.919,4.071
								C50.466,338.482,32.292,344.095,34.938,330.718z"/>
						</g>
					</g>
				</g>
				<path style="fill:none;stroke:#E0E0E0;stroke-width:0.75;stroke-miterlimit:10;" d="M48.108,368.537
					c-3.045-17.528,1.503-36.32,12.171-50.287"/>
				
					<path style="fill:none;stroke:#E0E0E0;stroke-width:0.75;stroke-linecap:round;stroke-linejoin:round;stroke-miterlimit:10;" d="
					M25.526,334.852c12.795,6.881,19.863,21.654,21.756,27.399c0,0,15.665-11.773,23.218-16.785"/>
				<g>
					<polygon style="fill:#E0E0E0;" points="66.885,374.138 28.419,374.138 28.434,366.84 66.846,366.84 					"/>
					<polygon style="fill:#E0E0E0;" points="31.206,371.758 37.216,397.654 59.349,397.654 64.708,371.758 					"/>
				</g>
			</g>
		</g>
		<path style="fill:none;stroke:#E0E0E0;stroke-width:0.5;stroke-linecap:round;stroke-linejoin:round;stroke-miterlimit:10;" d="
			M30.564,365.343c1.14,0,2.281,0,3.422,0"/>
		<path style="fill:none;stroke:#E0E0E0;stroke-width:0.5;stroke-linecap:round;stroke-linejoin:round;stroke-miterlimit:10;" d="
			M35.558,365.343c3.121,0,6.243,0,9.364,0"/>
	</g>
	<g>
		<rect x="171.518" y="218.557" style="fill:#E0E0E0;" width="39.764" height="10.227"/>
	</g>
	<g>
		<rect x="233.449" y="70.903" style="fill:#F0F0F0;" width="39.764" height="10.227"/>
	</g>
	<g>
		<rect x="192.432" y="356.174" style="fill:#F0F0F0;" width="39.764" height="10.227"/>
	</g>
	<g>
		<g>
			<g>
				<rect x="326.98" y="241.728" style="fill:#E0E0E0;" width="34.955" height="10.227"/>
			</g>
		</g>
		<g>
			<g>
				<rect x="338.143" y="231.548" style="fill:#F0F0F0;" width="34.955" height="10.227"/>
			</g>
		</g>
	</g>
	<g>
		<g>
			<g>
				<rect x="427.785" y="106.701" style="fill:#E0E0E0;" width="34.955" height="10.227"/>
			</g>
		</g>
		<g>
			<g>
				<rect x="438.948" y="96.521" style="fill:#F0F0F0;" width="34.955" height="10.227"/>
			</g>
		</g>
	</g>
	<g>
		<g>
			<g>
				<rect x="53.854" y="111.889" style="fill:#E0E0E0;" width="34.955" height="10.227"/>
			</g>
		</g>
		<g>
			<g>
				<rect x="65.017" y="101.709" style="fill:#F0F0F0;" width="34.955" height="10.227"/>
			</g>
		</g>
	</g>
	<g>
		<g>
			<g>
				<rect x="330.327" y="363.455" style="fill:#E0E0E0;" width="34.955" height="10.227"/>
			</g>
		</g>
		<g>
			<g>
				<rect x="341.49" y="353.275" style="fill:#F0F0F0;" width="34.955" height="10.227"/>
			</g>
		</g>
	</g>
</g>
<g id="Background_simple" style="display:none;">
	<g style="display:inline;">
		<g>
			<path style="fill:#407BFF;" d="M295.622,325.948c36.735-12.636,63.726-39.865,79.61-70.151
				c15.884-30.286,20.551-65.467,18.723-99.616c-1.079-20.149-4.46-40.592-13.924-58.413c-9.464-17.821-25.75-32.799-45.495-36.952
				c-20.886-4.393-43.04,3.917-59.037,18.045c-15.997,14.128-26.552,33.451-34.326,53.328c-6.327,16.177-11.736,34.013-25.461,44.66
				c-17.763,13.78-43.201,10.829-64.048,19.245c-26.816,10.826-43.299,42.547-36.745,70.714
				c6.554,28.166,41.146,56.717,73.739,60.015C228.695,335.791,266.621,332.502,295.622,325.948z"/>
		</g>
		<g style="opacity:0.9;enable-background:new    ;">
			<path style="fill:#FFFFFF;" d="M295.622,325.948c36.735-12.636,63.726-39.865,79.61-70.151
				c15.884-30.286,20.551-65.467,18.723-99.616c-1.079-20.149-4.46-40.592-13.924-58.413c-9.464-17.821-25.75-32.799-45.495-36.952
				c-20.886-4.393-43.04,3.917-59.037,18.045c-15.997,14.128-26.552,33.451-34.326,53.328c-6.327,16.177-11.736,34.013-25.461,44.66
				c-17.763,13.78-43.201,10.829-64.048,19.245c-26.816,10.826-43.299,42.547-36.745,70.714
				c6.554,28.166,41.146,56.717,73.739,60.015C228.695,335.791,266.621,332.502,295.622,325.948z"/>
		</g>
	</g>
</g>
<g id="Shadow">
	<g>
		<g>
			<path style="fill:#F5F5F5;" d="M462.874,439.879c0,12.703-95.307,23.002-212.875,23.002
				c-117.568,0-212.875-10.298-212.875-23.002c0-12.704,95.307-23.002,212.875-23.002
				C367.567,416.876,462.874,427.175,462.874,439.879z"/>
		</g>
	</g>
</g>
<g id="Picture">
	<g>
		<g>
			<g>
				<rect x="124.948" y="81.17" style="fill:#263238;" width="82.502" height="101.331"/>
				<rect x="128.993" y="84.73" style="fill:#FFFFFF;" width="74.412" height="93.539"/>
			</g>
			<polygon style="opacity:0.2;" points="130.684,178.306 130.684,87.177 203.405,87.177 203.405,84.73 128.993,84.73 
				128.993,178.306 			"/>
			<path style="opacity:0.5;fill:#FFFFFF;" d="M170.965,130.863h-32.42c-0.567,0-1.027-0.46-1.027-1.027v-32.42
				c0-0.567,0.46-1.027,1.027-1.027h32.42c0.567,0,1.027,0.46,1.027,1.027v32.42C171.991,130.403,171.532,130.863,170.965,130.863z"
				/>
		</g>
		<g>
			<g id="freepik--legal-balance--inject-2_00000135673946964662861520000000668525667063337877_">
				<path style="fill:#407BFF;" d="M155.758,134.576c-1.662,4.323-6.514,6.48-10.838,4.818c-2.216-0.852-3.966-2.603-4.818-4.818
					H155.758z"/>
				<path style="fill:#407BFF;" d="M155.758,133.472c-0.104-0.002-0.199-0.06-0.248-0.152l-7.614-14.47l-7.586,14.47
					c-0.073,0.14-0.245,0.195-0.386,0.124c-0.14-0.073-0.195-0.245-0.124-0.386l7.835-14.939c0.091-0.141,0.279-0.182,0.419-0.091
					c0.036,0.023,0.068,0.054,0.091,0.091l7.835,14.939c0.071,0.141,0.016,0.313-0.124,0.386L155.758,133.472z"/>
				<g style="opacity:0.7;">
					<path d="M155.758,133.472c-0.104-0.002-0.199-0.06-0.248-0.152l-7.614-14.47l-7.586,14.47c-0.073,0.14-0.245,0.195-0.386,0.124
						c-0.14-0.073-0.195-0.245-0.124-0.386l7.835-14.939c0.091-0.141,0.279-0.182,0.419-0.091c0.036,0.023,0.068,0.054,0.091,0.091
						l7.835,14.939c0.071,0.141,0.016,0.313-0.124,0.386L155.758,133.472z"/>
				</g>
				<path style="fill:#407BFF;" d="M147.896,134.189c-0.152,0.008-0.282-0.11-0.289-0.262c0-0.005,0-0.009,0-0.014v-15.67
					c0-0.152,0.123-0.276,0.276-0.276c0.005,0,0.009,0,0.014,0c0.152,0,0.276,0.124,0.276,0.276v15.642
					c0.015,0.152-0.095,0.287-0.247,0.302C147.915,134.189,147.906,134.189,147.896,134.189z"/>
				<g style="opacity:0.7;">
					<path d="M147.896,134.189c-0.152,0.008-0.282-0.11-0.289-0.262c0-0.005,0-0.009,0-0.014v-15.67
						c0-0.152,0.123-0.276,0.276-0.276c0.005,0,0.009,0,0.014,0c0.152,0,0.276,0.124,0.276,0.276v15.642
						c0.015,0.152-0.095,0.287-0.247,0.302C147.915,134.189,147.906,134.189,147.896,134.189z"/>
				</g>
				<rect x="138.985" y="133.182" style="fill:#407BFF;" width="17.904" height="1.393"/>
				<rect x="138.985" y="133.182" style="opacity:0.3;enable-background:new    ;" width="17.904" height="1.393"/>
				<path style="fill:#407BFF;" d="M194.519,134.576c-1.674,4.327-6.538,6.478-10.865,4.805c-2.207-0.854-3.951-2.598-4.805-4.805
					H194.519z"/>
				<path style="fill:#407BFF;" d="M194.519,133.472c-0.106,0.004-0.204-0.056-0.248-0.152l-7.587-14.47l-7.587,14.47
					c-0.072,0.137-0.242,0.19-0.379,0.117c-0.137-0.072-0.19-0.242-0.117-0.379l0,0l7.835-14.939
					c0.082-0.137,0.26-0.181,0.398-0.099c0.041,0.024,0.075,0.058,0.099,0.099l7.862,14.939c0.071,0.141,0.015,0.313-0.124,0.386
					L194.519,133.472z"/>
				<g style="opacity:0.7;">
					<path d="M194.519,133.472c-0.106,0.004-0.204-0.056-0.248-0.152l-7.587-14.47l-7.587,14.47
						c-0.072,0.137-0.242,0.19-0.379,0.117c-0.137-0.072-0.19-0.242-0.117-0.379l0,0l7.835-14.939
						c0.082-0.137,0.26-0.181,0.398-0.099c0.041,0.024,0.075,0.058,0.099,0.099l7.862,14.939c0.071,0.141,0.015,0.313-0.124,0.386
						L194.519,133.472z"/>
				</g>
				<path style="fill:#407BFF;" d="M186.684,134.189c-0.155,0-0.282-0.121-0.29-0.276v-15.67c0.007-0.154,0.135-0.276,0.29-0.276
					c0.152,0,0.276,0.124,0.276,0.276v15.642c0.015,0.152-0.095,0.287-0.247,0.302C186.703,134.189,186.694,134.189,186.684,134.189
					z"/>
				<g style="opacity:0.7;">
					<path d="M186.684,134.189c-0.155,0-0.282-0.121-0.29-0.276v-15.67c0.007-0.154,0.135-0.276,0.29-0.276
						c0.152,0,0.276,0.124,0.276,0.276v15.642c0.015,0.152-0.095,0.287-0.247,0.302
						C186.703,134.189,186.694,134.189,186.684,134.189z"/>
				</g>
				<rect x="177.732" y="133.182" style="fill:#407BFF;" width="17.904" height="1.393"/>
				<rect x="177.732" y="133.182" style="opacity:0.3;enable-background:new    ;" width="17.904" height="1.393"/>
				<path style="fill:#407BFF;" d="M167.207,113.499v2.883c-2.924,0-6.235,1.655-8.869,3.117c-1.721,0.938-3.672,1.368-5.628,1.242
					c-2.344-0.364-4.573-1.266-6.511-2.635v-1.614c1.873,1.337,4.089,2.112,6.387,2.235c2.088-0.109,4.094-0.85,5.752-2.124
					C160.991,114.848,164.039,113.782,167.207,113.499z"/>
				<path style="fill:#407BFF;" d="M147.896,117.127c0,0.914-0.741,1.655-1.655,1.655c-0.914,0-1.655-0.741-1.655-1.655
					c0-0.914,0.741-1.655,1.655-1.655l0,0c0.907-0.008,1.648,0.721,1.655,1.628C147.896,117.108,147.896,117.117,147.896,117.127z"
					/>
				<path style="opacity:0.5;enable-background:new    ;" d="M147.896,117.127c0,0.914-0.741,1.655-1.655,1.655
					c-0.914,0-1.655-0.741-1.655-1.655c0-0.914,0.741-1.655,1.655-1.655l0,0c0.907-0.008,1.648,0.721,1.655,1.628
					C147.896,117.108,147.896,117.117,147.896,117.127z"/>
				<path style="fill:#407BFF;" d="M167.207,113.499v2.883c2.924,0,6.235,1.655,8.883,3.117c1.72,0.939,3.672,1.37,5.628,1.242
					c2.343-0.369,4.57-1.27,6.511-2.635v-1.614c-1.879,1.335-4.099,2.11-6.4,2.235c-2.084-0.109-4.085-0.85-5.738-2.124
					C173.43,114.851,170.379,113.785,167.207,113.499z"/>
				<path style="fill:#407BFF;" d="M186.684,117.127c0.008,0.906,0.749,1.635,1.655,1.627c0.906-0.008,1.635-0.749,1.628-1.655
					c-0.008-0.901-0.74-1.628-1.641-1.628c-0.907,0-1.641,0.735-1.641,1.641C186.684,117.117,186.684,117.122,186.684,117.127z"/>
				<path style="opacity:0.5;enable-background:new    ;" d="M186.684,117.127c0.008,0.906,0.749,1.635,1.655,1.627
					c0.906-0.008,1.635-0.749,1.628-1.655c-0.008-0.901-0.74-1.628-1.641-1.628c-0.907,0-1.641,0.735-1.641,1.641
					C186.684,117.117,186.684,117.122,186.684,117.127z"/>
				<rect x="165.138" y="108.478" style="fill:#407BFF;" width="4.18" height="42.761"/>
				<path style="fill:#407BFF;" d="M170.766,115.457c0,1.958-1.587,3.545-3.545,3.545c-1.958,0-3.545-1.587-3.545-3.545
					c0-1.958,1.587-3.545,3.545-3.545c1.95-0.008,3.537,1.567,3.545,3.517C170.766,115.439,170.766,115.448,170.766,115.457z"/>
				<path style="opacity:0.5;enable-background:new    ;" d="M170.766,115.457c0,1.958-1.587,3.545-3.545,3.545
					c-1.958,0-3.545-1.587-3.545-3.545c0-1.958,1.587-3.545,3.545-3.545c1.95-0.008,3.537,1.567,3.545,3.517
					C170.766,115.439,170.766,115.448,170.766,115.457z"/>
				<path style="fill:#407BFF;" d="M169.966,105.981c0,1.524-1.235,2.759-2.759,2.759c-1.524,0-2.759-1.235-2.759-2.759
					c0-1.523,1.235-2.759,2.759-2.759C168.731,103.223,169.966,104.458,169.966,105.981z"/>
				<path style="opacity:0.5;enable-background:new    ;" d="M169.966,105.981c0,1.524-1.235,2.759-2.759,2.759
					c-1.524,0-2.759-1.235-2.759-2.759c0-1.523,1.235-2.759,2.759-2.759C168.731,103.223,169.966,104.458,169.966,105.981z"/>
				<path style="fill:#407BFF;" d="M178.684,157.639h-22.925v-5.007c0-0.762,0.618-1.38,1.379-1.38h20.166
					c0.762,0,1.379,0.618,1.379,1.38V157.639z"/>
				<path style="fill:#407BFF;" d="M185.649,162.37h-36.843c-1.31,0-2.372-1.062-2.372-2.373l0,0l0,0
					c0-1.31,1.062-2.372,2.372-2.372l0,0h36.843c1.31,0,2.372,1.062,2.372,2.372l0,0l0,0
					C188.022,161.308,186.96,162.37,185.649,162.37L185.649,162.37z"/>
				<rect x="155.758" y="152.88" style="fill:#407BFF;" width="22.925" height="1.559"/>
				<rect x="155.758" y="152.88" style="opacity:0.5;enable-background:new    ;" width="22.925" height="1.559"/>
				<path style="fill:#407BFF;" d="M170.366,108.685c0,0.634-0.51,1.151-1.145,1.159h-3.986c-0.637-0.008-1.151-0.522-1.159-1.159
					l0,0c0.008-0.635,0.524-1.145,1.159-1.145h3.986C169.853,107.54,170.366,108.052,170.366,108.685L170.366,108.685z"/>
				<path style="opacity:0.3;enable-background:new    ;" d="M170.366,108.685c0,0.634-0.51,1.151-1.145,1.159h-3.986
					c-0.637-0.008-1.151-0.522-1.159-1.159l0,0c0.008-0.635,0.524-1.145,1.159-1.145h3.986
					C169.853,107.54,170.366,108.052,170.366,108.685L170.366,108.685z"/>
			</g>
		</g>
	</g>
</g>
<g id="Speech_Bubble_3">
	<g>
		<path style="fill:#407BFF;" d="M341.361,117.44h25.245c2.585,0,4.681,2.096,4.681,4.681v18.285c0,2.585-2.096,4.681-4.681,4.681
			h-3.173v5.69l-4.624-5.69h-17.448c-2.586,0-4.681-2.096-4.681-4.681v-18.285C336.679,119.536,338.775,117.44,341.361,117.44z"/>
		<g>
			<path style="fill:#FFFFFF;" d="M362.04,130.424c0.224,1.462-1.017,2.703-2.479,2.479c-0.911-0.139-1.655-0.884-1.795-1.795
				c-0.224-1.462,1.017-2.702,2.478-2.479C361.155,128.769,361.9,129.513,362.04,130.424z M353.669,128.63
				c-1.461-0.223-2.702,1.017-2.478,2.479c0.139,0.911,0.884,1.655,1.795,1.795c1.462,0.224,2.703-1.017,2.478-2.479
				C355.324,129.513,354.58,128.769,353.669,128.63z M347.093,128.63c-1.461-0.223-2.702,1.017-2.478,2.479
				c0.139,0.911,0.884,1.655,1.795,1.795c1.462,0.224,2.703-1.017,2.479-2.479C348.749,129.513,348.004,128.769,347.093,128.63z"/>
		</g>
		<g>
			<g>
				<path style="fill:#407BFF;" d="M366.229,115.789c-5.491,0-10.983,0-16.474,0c-0.483,0-0.483,0.75,0,0.75
					c5.491,0,10.983,0,16.474,0C366.712,116.539,366.712,115.789,366.229,115.789L366.229,115.789z"/>
			</g>
		</g>
	</g>
</g>
<g id="Speech_Bubble_2">
	<g>
		<path style="fill:#407BFF;" d="M235.206,170.268h25.245c2.585,0,4.681,2.096,4.681,4.681v18.285c0,2.585-2.096,4.681-4.681,4.681
			h-3.173v5.69l-4.624-5.69h-17.448c-2.585,0-4.681-2.096-4.681-4.681v-18.285C230.525,172.364,232.621,170.268,235.206,170.268z"/>
		<g>
			<path style="fill:#FFFFFF;" d="M255.885,183.252c0.224,1.462-1.017,2.703-2.479,2.479c-0.911-0.14-1.655-0.884-1.794-1.795
				c-0.224-1.461,1.017-2.702,2.478-2.479C255.001,181.597,255.745,182.341,255.885,183.252z M247.515,181.457
				c-1.461-0.223-2.702,1.017-2.478,2.479c0.139,0.911,0.884,1.655,1.795,1.795c1.462,0.224,2.703-1.017,2.479-2.479
				C249.17,182.341,248.425,181.597,247.515,181.457z M240.939,181.457c-1.461-0.223-2.702,1.017-2.478,2.479
				c0.139,0.911,0.884,1.655,1.795,1.795c1.462,0.224,2.703-1.017,2.479-2.479C242.594,182.341,241.85,181.597,240.939,181.457z"/>
		</g>
		<g>
			<g>
				<path style="fill:#407BFF;" d="M260.075,168.617c-5.491,0-10.983,0-16.474,0c-0.482,0-0.483,0.75,0,0.75
					c5.491,0,10.982,0,16.474,0C260.557,169.367,260.558,168.617,260.075,168.617L260.075,168.617z"/>
			</g>
		</g>
	</g>
</g>
<g id="Speech_Bubble_1">
	<g>
		<g>
			<g>
				<g>
					<g>
						<path style="fill:#407BFF;" d="M60.444,175.559c-7.852-5.225-18.453-3.096-23.679,4.756
							c-5.225,7.852-3.096,18.453,4.756,23.679c6.062,4.034,13.753,3.669,19.353-0.313l5.001,1.138l-0.844-5.353
							c0.054-0.078,0.116-0.148,0.169-0.228C70.425,191.386,68.296,180.785,60.444,175.559z"/>
					</g>
				</g>
			</g>
		</g>
		<g>
			<path style="fill:#FFFFFF;" d="M50.12,190.553c0.37-0.629,0.91-1.323,1.619-2.082c0.52-0.555,0.902-1.023,1.146-1.402
				c0.245-0.379,0.367-0.809,0.367-1.292c0-0.684-0.232-1.226-0.697-1.624c-0.465-0.398-1.083-0.597-1.855-0.597
				c-0.741,0-1.399,0.181-1.973,0.542c-0.575,0.36-1.059,0.865-1.453,1.512l-2.859-1.971c0.662-1.185,1.556-2.101,2.682-2.749
				c1.126-0.648,2.461-0.972,4.005-0.972c1.812,0,3.265,0.454,4.359,1.361c1.095,0.907,1.642,2.165,1.642,3.776
				c0,0.759-0.106,1.425-0.319,1.999c-0.213,0.574-0.472,1.06-0.78,1.457c-0.307,0.398-0.705,0.856-1.193,1.375
				c-0.583,0.611-1.008,1.124-1.276,1.541c-0.268,0.416-0.402,0.921-0.402,1.513h-3.567C49.566,191.978,49.75,191.183,50.12,190.553
				z M49.743,198.968c-0.434-0.439-0.65-0.973-0.65-1.603c0-0.629,0.213-1.155,0.638-1.578c0.425-0.422,0.969-0.634,1.63-0.634
				c0.662,0,1.205,0.212,1.63,0.634c0.425,0.423,0.638,0.949,0.638,1.578c0,0.63-0.216,1.164-0.65,1.603
				c-0.434,0.439-0.973,0.658-1.619,0.658C50.716,199.626,50.176,199.407,49.743,198.968z"/>
		</g>
	</g>
</g>
<g id="Character_3">
	<g>
		<g>
			<path style="fill:#263238;" d="M394.852,431.911c1.105-0.835,2.357-1.455,3.691-1.826l0,0c0,0,4.063-3.729,6.43-15.354
				l5.144-1.132c1.8-0.365,3.636,0.437,4.591,2.006c0.145,0.209,0.245,0.445,0.296,0.694c0.217,1.241,0.35,2.496,0.399,3.755
				c0.116,4.291-0.026,8.585-0.424,12.859h-0.926v-8.076c0-2.752-2.263,0.386-2.97,3.305c-0.707,2.919-2.122,6.018-8.14,5.928
				C395.919,433.93,393.013,433.493,394.852,431.911z"/>
			<path style="fill:#FFB463;" d="M406.001,410.577c0,0-1.286,5.311-3.266,11.162c-0.848,3.025-2.271,5.859-4.192,8.346
				c0,0,4.462,0.977,6.532-1.98c2.07-2.957,5.144-13.168,9.657-12.448c-0.339-0.778-0.771-1.512-1.286-2.186
				C412.727,412.378,406.001,410.577,406.001,410.577z"/>
		</g>
		<g>
			<path style="fill:#263238;" d="M439.525,431.911c1.105-0.835,2.357-1.455,3.691-1.826l0,0c0,0,4.063-3.729,6.43-15.354
				l5.144-1.132c1.8-0.365,3.636,0.437,4.591,2.006c0.145,0.209,0.245,0.445,0.296,0.694c0.217,1.241,0.35,2.496,0.399,3.755
				c0.116,4.291-0.026,8.585-0.424,12.859h-0.926v-8.076c0-2.752-2.263,0.386-2.97,3.305c-0.707,2.919-2.122,6.018-8.14,5.928
				C440.592,433.93,437.686,433.493,439.525,431.911z"/>
			<path style="fill:#FFB463;" d="M450.674,410.577c0,0-1.286,5.311-3.266,11.162c-0.848,3.025-2.271,5.859-4.192,8.346
				c0,0,4.462,0.977,6.532-1.98c2.07-2.957,5.144-13.168,9.657-12.448c-0.339-0.778-0.771-1.512-1.286-2.186
				C457.399,412.378,450.674,410.577,450.674,410.577z"/>
		</g>
		<path style="fill:#FFB463;" d="M430.355,186.299c0,0.926,9.163,16.771,11.771,22.341c2.838,6.063,10.03,38.59,10.03,38.59
			l-6.538,2.858c0,0-10.571-29.976-13.312-36.421c-2.741-6.445-13.177-19.939-13.177-19.939L430.355,186.299z"/>
		<path style="fill:#FFB463;" d="M338.599,202.994c0,0,15.524,11.583,18.449,9.966c2.925-1.617,13.726-22.426,13.726-22.426
			l7.564,10.271c0,0-9.588,22.866-18.777,22.866c-6.836,0-25.337-14.901-25.337-14.901L338.599,202.994z"/>
		<g>
			<path style="fill:#263238;" d="M383.354,231.652c0,0,1.791,67.111,4.388,94.925c2.722,28.94,13.1,85.974,13.1,85.974l15.797,0.96
				c0,0-4.762-58.111-5.742-86.655c-0.084-2.506,0.814-36.211,0.604-39.099c-2.393-32.969-13.269-56.541-13.269-56.541
				L383.354,231.652z"/>
			<path style="opacity:0.2;enable-background:new    ;" d="M410.417,255.149c-1.502-1.669-3.129-0.803-4.985,3.952
				c-6.184,16.227,0.407,42.122,5.214,57.035C410.323,297.573,410.333,273.149,410.417,255.149z"/>
			<path style="fill:#263238;" d="M421.135,231.257c14.869,13.943,16.438,65.555,21.121,93.4
				c4.87,28.961,19.217,88.834,19.217,88.834l-16.997,0.042c0,0-17.016-56.704-25.56-87.648
				c-9.751-30.859-21.59-94.587-21.59-94.587L421.135,231.257z"/>
		</g>
		<path style="fill:#FFB463;" d="M452.156,247.23l5.998,7.175l-9.24,1.189c0,0-5.211-2.244-3.076-7.2L452.156,247.23z"/>
		
			<rect x="439.272" y="251.85" transform="matrix(0.9771 -0.2126 0.2126 0.9771 -46.0511 103.8757)" style="fill:#407BFF;" width="41.476" height="28.462"/>
		
			<rect x="439.272" y="251.85" transform="matrix(0.9771 -0.2126 0.2126 0.9771 -46.0511 103.8757)" style="opacity:0.7;fill:#FFFFFF;" width="41.476" height="28.462"/>
		<g>
			<g>
				<g>
					<g>
						<g>
							<g>
								<g>
									<g>
										<path style="fill:#FFB463;" d="M339.303,204.121c0,0-0.678-2.93-2.802-4.223c-2.125-1.293-3.477-2.89-5.123-3.742
											c-1.646-0.852-0.716,1.471,0.028,2.606c0.745,1.135,1.577,2.43,0.634,2.851c-0.943,0.422-9.783-0.47-11.024,0.263
											c-1.241,0.733,0.143,1.324,0.143,1.324s-2.153-0.159-2.448,0.677c-0.077,0.217,0.097,0.846,1.067,1.072
											c2.182,0.508,6.815,1.34,6.815,1.34c-0.265-0.053-6.057-0.671-6.937-0.65c-1.15,0.027-1.678,0.626-1.64,1.292
											c0.053,0.948,7.209,1.959,7.481,2.212c0,0-4.1-0.72-4.865,0.237c-0.765,0.957,1.791,1.551,4.145,1.646
											c2.157,0.087,6.367,0.824,8.568,0.7c2.713-0.152,4.501-0.864,5.423-3.24C339.689,206.113,339.303,204.121,339.303,204.121
											z"/>
									</g>
								</g>
							</g>
						</g>
					</g>
				</g>
				
					<path style="opacity:0.3;fill:none;stroke:#000000;stroke-width:0.25;stroke-linecap:round;stroke-linejoin:round;stroke-miterlimit:10;" d="
					M321.419,203.223c1.722,0.17,3.436,0.419,5.136,0.746"/>
				
					<path style="opacity:0.3;fill:none;stroke:#000000;stroke-width:0.25;stroke-linecap:round;stroke-linejoin:round;stroke-miterlimit:10;" d="
					M327.052,209.535c-0.372-2.204-0.078-4.516,0.834-6.557"/>
				
					<path style="opacity:0.3;fill:none;stroke:#000000;stroke-width:0.25;stroke-linecap:round;stroke-linejoin:round;stroke-miterlimit:10;" d="
					M332.579,202.63c0.046,0.91,0.418,1.8,1.034,2.471c0.616,0.671,1.47,1.119,2.373,1.243"/>
			</g>
		</g>
		<g>
			<g>
				<g>
					<path style="fill:#263238;" d="M470.636,254.895c1.561,5.591,3.121,11.181,4.682,16.772c0.13,0.464,0.853,0.267,0.723-0.199
						c-1.561-5.591-3.121-11.181-4.682-16.772C471.23,254.232,470.506,254.429,470.636,254.895L470.636,254.895z"/>
				</g>
			</g>
			<g>
				<g>
					<path style="fill:#263238;" d="M467.67,255.555c1.04,3.727,2.081,7.454,3.121,11.181c0.13,0.464,0.853,0.267,0.723-0.199
						c-1.04-3.727-2.081-7.454-3.121-11.181C468.264,254.891,467.54,255.088,467.67,255.555L467.67,255.555z"/>
				</g>
			</g>
			<g>
				<g>
					<path style="fill:#263238;" d="M464.704,256.214c1.561,5.591,3.121,11.181,4.682,16.772c0.13,0.464,0.853,0.267,0.723-0.199
						c-1.561-5.591-3.121-11.181-4.682-16.772C465.297,255.551,464.574,255.748,464.704,256.214L464.704,256.214z"/>
				</g>
			</g>
			<g>
				<g>
					<path style="fill:#263238;" d="M458.771,257.534c1.561,5.591,3.121,11.181,4.682,16.772c0.13,0.464,0.853,0.267,0.723-0.199
						c-1.561-5.591-3.121-11.181-4.682-16.772C459.365,256.87,458.641,257.067,458.771,257.534L458.771,257.534z"/>
				</g>
			</g>
			<g>
				<g>
					<path style="fill:#263238;" d="M455.805,258.193c1.116,3.996,2.231,7.992,3.346,11.988c0.13,0.464,0.853,0.267,0.723-0.199
						c-1.115-3.996-2.231-7.992-3.346-11.988C456.398,257.53,455.675,257.727,455.805,258.193L455.805,258.193z"/>
				</g>
			</g>
			<g>
				<g>
					<path style="fill:#263238;" d="M452.839,258.853c1.561,5.591,3.121,11.181,4.682,16.772c0.13,0.464,0.853,0.267,0.723-0.199
						c-1.561-5.591-3.121-11.181-4.682-16.772C453.432,258.189,452.708,258.386,452.839,258.853L452.839,258.853z"/>
				</g>
			</g>
			<g>
				<g>
					<path style="fill:#263238;" d="M449.872,259.513c1.561,5.591,3.121,11.181,4.682,16.772c0.13,0.464,0.853,0.267,0.723-0.199
						c-1.561-5.591-3.121-11.181-4.682-16.772C450.466,258.849,449.742,259.046,449.872,259.513L449.872,259.513z"/>
				</g>
			</g>
			<g>
				<g>
					<path style="fill:#263238;" d="M446.906,260.172c1.192,4.271,2.385,8.543,3.577,12.814c0.13,0.464,0.853,0.267,0.723-0.199
						c-1.192-4.271-2.385-8.543-3.577-12.814C447.499,259.509,446.776,259.706,446.906,260.172L446.906,260.172z"/>
				</g>
			</g>
			<g>
				<g>
					<path style="fill:#263238;" d="M443.939,260.832c1.561,5.591,3.121,11.181,4.682,16.772c0.13,0.464,0.853,0.267,0.723-0.199
						c-1.561-5.591-3.121-11.181-4.682-16.772C444.533,260.168,443.809,260.365,443.939,260.832L443.939,260.832z"/>
				</g>
			</g>
		</g>
		<g>
			<path style="fill:#407BFF;" d="M380.142,176.306c-3.9-0.146-10.763,14.037-10.763,14.037l10.147,12.296
				c0,0,11.826-14.84,10.21-19.638C388.005,178.006,385.815,176.505,380.142,176.306z"/>
			<polygon style="opacity:0.2;enable-background:new    ;" points="379.495,179.727 374.218,196.257 378.974,202.003 			"/>
			<path style="fill:#407BFF;" d="M376.46,180.843c-0.198,5.798,0.803,19.325,6.893,50.809h37.627
				c-1.043-15.112-0.003-24.599,1.96-56.994c-5.238-0.919-7.991-1.292-13.307-1.45c-5.637-0.233-11.283-0.062-16.895,0.511
				c-4.297,0.521-8.938,1.408-11.983,2.086C378.341,176.304,376.572,178.379,376.46,180.843z"/>
			<path style="fill:#407BFF;" d="M422.941,174.659c3.754,1.043,11.159,13.881,11.159,13.881l-14.152,10.762
				c0,0-5.59-10.544-4.171-15.414C417.268,178.83,418.644,173.491,422.941,174.659z"/>
			<path style="opacity:0.2;enable-background:new    ;" d="M421.455,198.665c0,0-4.094-9.273-4.611-8.766
				c-0.517,0.507,4.04,18.66,4.04,18.66L421.455,198.665z"/>
			<g style="opacity:0.3;">
				<g>
					<path d="M389.178,205.582c4.935,5.826,11.095,10.536,18.012,13.771c0.435,0.203,0.816-0.443,0.379-0.648
						c-6.866-3.211-12.961-7.87-17.86-13.654C389.395,204.683,388.867,205.216,389.178,205.582L389.178,205.582z"/>
				</g>
			</g>
		</g>
		<g>
			<path style="fill:#FFB463;" d="M456.846,258.468c-0.778-2.181-2.146-4.149-3.92-5.637l-7.308-0.197
				c0.57,1.564,1.826,2.864,3.369,3.487c1.061,0.428,2.261,0.56,3.189,1.23c1.023,0.738,1.531,1.996,2.422,2.888
				c0.507,0.507,1.307,0.897,1.922,0.527C457.242,260.333,457.128,259.26,456.846,258.468z"/>
		</g>
		<g>
			<path style="fill:#263238;" d="M398.039,132.945c0,0-14.698-6.446-19.013,11.727c-1.066,19.335-3.995,29.003-3.995,29.003
				s19.134,1.149,33.623-10.62L398.039,132.945z"/>
			<g>
				<path style="fill:#263238;" d="M396.968,132.62c0,0,1.75,25.331,0,37.953c10.06-1.032,20.188,3.286,20.756-8.632
					C417.723,161.941,415.428,129.563,396.968,132.62z"/>
				<path style="fill:#FFB463;" d="M403.555,156.535l-8.391,8.505l-2.357,1.422c0.531,1.25,0.985,2.538,1.181,3.785
					c0.373,2.201-2.103,3.162-2.884,3.738l4.259,6.308c4.23-3.661,11.665-6.79,11.665-6.79
					C402.592,170.437,402.604,161.741,403.555,156.535z"/>
				<path style="opacity:0.2;" d="M394.058,170.73c2.31-1.378,4.842-3.765,4.532-6.485c-0.138-1.145-0.387-2.23-0.663-2.926
					l-4.684,6.23C393.63,168.551,393.772,169.214,394.058,170.73z"/>
				<path style="fill:#FFB463;" d="M405.164,146.963c-0.773,8.642-0.918,12.307-5.367,16.847c-6.692,6.829-17.016,4.559-18.81-4.002
					c-1.615-7.705-0.08-20.544,8.395-24.193C397.731,132.019,405.937,138.32,405.164,146.963z"/>
				<path style="fill:#263238;" d="M395.774,146.611c-0.11,0.012-0.222-0.019-0.307-0.098c-1.334-1.23-2.832-0.794-2.849-0.789
					c-0.222,0.065-0.447-0.06-0.499-0.287c-0.051-0.226,0.09-0.464,0.315-0.533c0.078-0.023,1.958-0.572,3.613,0.954
					c0.165,0.152,0.169,0.422,0.009,0.603C395.979,146.549,395.877,146.6,395.774,146.611z"/>
				<path style="fill:#263238;" d="M382.582,145.462c-0.087-0.029-0.16-0.094-0.198-0.188c-0.079-0.196,0.016-0.444,0.213-0.555
					c1.973-1.115,3.438-0.274,3.5-0.236c0.174,0.103,0.216,0.348,0.095,0.548c-0.121,0.2-0.361,0.278-0.535,0.176
					c-0.057-0.034-1.204-0.667-2.773,0.22C382.782,145.483,382.674,145.493,382.582,145.462z"/>
				<path style="fill:#FF8300;" d="M387.774,149.366c0,0-1.345,3.237-2.866,5.257c-0.266,0.353-0.1,0.867,0.315,1.019
					c1.068,0.391,2.316,0.032,2.316,0.032L387.774,149.366z"/>
				<path style="fill:#263238;" d="M393.313,148.238c0.012-0.012,0.023-0.02,0.035-0.033l-1.984-0.464c0,0,0.46,0.62,1.027,0.779
					c-0.262,0.308-0.447,0.787-0.47,1.327c-0.041,0.914,0.387,1.645,0.955,1.632c0.568-0.013,1.062-0.765,1.102-1.679
					C394.011,149.051,393.728,148.433,393.313,148.238z"/>
				<path style="fill:#263238;" d="M384.702,148.238c0.002-0.003,0.005-0.004,0.007-0.007l-1.984-0.464c0,0,0.518,0.703,1.134,0.806
					c-0.253,0.299-0.43,0.754-0.454,1.266c-0.041,0.886,0.385,1.594,0.951,1.581c0.566-0.013,1.059-0.742,1.1-1.628
					C385.493,149.012,385.167,148.372,384.702,148.238z"/>
				<path style="fill:#263238;" d="M402.171,149.954c0,0-4.471-6.7-4.253-12.133c0,0-8.536-2.206-15.321,6.898
					c-1.081,1.45-1.722,3.866-2.688,5.951c0,0-1.664-16.437,12.922-17.816c14.563-1.377,17.469,19.094,10.378,26.001
					C403.209,158.854,404.94,154.146,402.171,149.954z"/>
				
					<path style="fill:none;stroke:#263238;stroke-width:0.75;stroke-linecap:round;stroke-linejoin:round;stroke-miterlimit:10;" d="
					M392.959,156.443c0,0-0.832,2.281-3.396,1.757"/>
				<path style="fill:#FFB463;" d="M407.793,153.999c-1.017,1.774-2.673,2.891-4.193,3.275c-2.286,0.578-3.475-3.096-2.699-5.389
					c0.699-2.064,2.943-3.435,5.17-2.99C408.265,149.334,408.956,151.971,407.793,153.999z"/>
				
					<path style="opacity:0.2;fill:none;stroke:#000000;stroke-width:0.5;stroke-linecap:round;stroke-linejoin:round;stroke-miterlimit:10;" d="
					M402.959,153.549c0.053-0.818,0.441-1.61,1.057-2.152c0.615-0.542,1.449-0.828,2.268-0.778"/>
				<path style="fill:#407BFF;" d="M406.744,156.413c0.002,1.044-0.842,1.891-1.886,1.894c-1.043,0.002-1.891-0.842-1.894-1.886
					c-0.002-1.044,0.842-1.891,1.886-1.894C405.894,154.525,406.742,155.37,406.744,156.413z"/>
			</g>
			<g style="opacity:0.3;">
				<g>
					<path d="M401.19,135.538c0.173,5.079,5.096,7.706,7.789,11.42c2.925,4.032,4.161,9.093,3.548,14.021
						c-0.06,0.478,0.691,0.474,0.75,0c0.563-4.526-0.413-9.176-2.779-13.083c-1.202-1.985-2.779-3.6-4.428-5.214
						c-2.009-1.965-4.03-4.179-4.131-7.143C401.923,135.056,401.173,135.054,401.19,135.538L401.19,135.538z"/>
				</g>
			</g>
		</g>
	</g>
</g>
<g id="Character_2">
	<g>
		<g>
			<path style="fill:#263238;" d="M311.074,275.962c0,0-2.892,57.988-15.381,67.972h13.357c0,0,11.911-19.755,12.799-67.972H311.074
				z"/>
			<path style="opacity:0.6;fill:#FFFFFF;enable-background:new    ;" d="M311.074,275.962c0,0-2.892,57.988-15.381,67.972h13.357
				c0,0,11.911-19.755,12.799-67.972H311.074z"/>
			<path style="fill:#407BFF;" d="M256.288,339.128h60.285c2.481,0,4.493,2.011,4.493,4.493v5.117h-69.27v-5.117
				C251.796,341.14,253.807,339.128,256.288,339.128z"/>
			<path style="opacity:0.3;enable-background:new    ;" d="M256.288,339.128h60.285c2.481,0,4.493,2.011,4.493,4.493v5.117h-69.27
				v-5.117C251.796,341.14,253.807,339.128,256.288,339.128z"/>
			<path style="fill:#263238;" d="M318.449,415.277l-26.703-2.328v-42.034h-9.388v42.024l-26.799,2.337
				c-2.361,0.232-4.161,2.217-4.161,4.59v3.557h34.736h1.74h34.736v-3.557C322.61,417.495,320.81,415.509,318.449,415.277z"/>
			<path style="opacity:0.5;fill:#FFFFFF;enable-background:new    ;" d="M318.449,415.277l-26.703-2.328v-42.034h-9.388v42.024
				l-26.799,2.337c-2.361,0.232-4.161,2.217-4.161,4.59v3.557h34.736h1.74h34.736v-3.557
				C322.61,417.495,320.81,415.509,318.449,415.277z"/>
			<path style="fill:#263238;" d="M260.042,427.836c0,3.39-2.748,6.138-6.138,6.138c-3.39,0-6.138-2.748-6.138-6.138
				c0-3.39,2.748-6.138,6.138-6.138C257.295,421.698,260.042,424.446,260.042,427.836z"/>
			<path style="fill:#263238;" d="M313.965,427.836c0,3.39,2.748,6.138,6.138,6.138c3.39,0,6.138-2.748,6.138-6.138
				c0-3.39-2.748-6.138-6.138-6.138C316.713,421.698,313.965,424.446,313.965,427.836z"/>
			<path style="fill:#263238;" d="M289.857,375.187h-5.193c-2.051,0-3.714-1.663-3.714-3.714v-26.137h12.621v26.137
				C293.571,373.524,291.908,375.187,289.857,375.187z"/>
			<path style="opacity:0.6;fill:#FFFFFF;enable-background:new    ;" d="M289.857,375.187h-5.193c-2.051,0-3.714-1.663-3.714-3.714
				v-26.137h12.621v26.137C293.571,373.524,291.908,375.187,289.857,375.187z"/>
			<g>
				<path style="fill:#263238;" d="M250.967,343.933h70.927c0.998,0,1.807,0.809,1.807,1.807v1.19c0,0.998-0.809,1.807-1.807,1.807
					h-70.927c-0.998,0-1.807-0.809-1.807-1.807v-1.19C249.16,344.742,249.969,343.933,250.967,343.933z"/>
				<path style="opacity:0.6;fill:#FFFFFF;enable-background:new    ;" d="M250.967,343.933h70.927c0.998,0,1.807,0.809,1.807,1.807
					v1.19c0,0.998-0.809,1.807-1.807,1.807h-70.927c-0.998,0-1.807-0.809-1.807-1.807v-1.19
					C249.16,344.742,249.969,343.933,250.967,343.933z"/>
			</g>
			<path style="fill:#407BFF;" d="M319.385,333.753l-22,0c-6.445,0-11.099-5.791-10.396-12.934l10.002-55.901
				c0.703-7.143,6.498-12.934,12.943-12.934h22c6.445,0,11.099,5.791,10.396,12.934l-10.002,55.901
				C331.625,327.962,325.83,333.753,319.385,333.753z"/>
			<path style="opacity:0.3;enable-background:new    ;" d="M319.385,333.753l-22,0c-6.445,0-11.099-5.791-10.396-12.934
				l10.002-55.901c0.703-7.143,6.498-12.934,12.943-12.934h22c6.445,0,11.099,5.791,10.396,12.934l-10.002,55.901
				C331.625,327.962,325.83,333.753,319.385,333.753z"/>
			<path style="opacity:0.3;enable-background:new    ;" d="M331.934,251.983h-4.203c6.445,0,11.099,5.791,10.396,12.934
				l-10.002,55.901c-0.703,7.143-6.498,12.934-12.942,12.934h4.203c6.445,0,12.239-5.791,12.943-12.934l10.002-55.901
				C343.033,257.774,338.379,251.983,331.934,251.983z"/>
			<g>
				<g>
					<path style="fill:#407BFF;" d="M331.926,252.493h-17.825c-4.811,0-8.712-3.9-8.712-8.712v-2.811c0-4.811,3.9-8.712,8.712-8.712
						h17.825c4.811,0,8.712,3.9,8.712,8.712v2.811C340.638,248.593,336.737,252.493,331.926,252.493z"/>
					<path style="opacity:0.5;enable-background:new    ;" d="M331.926,252.493h-17.825c-4.811,0-8.712-3.9-8.712-8.712v-2.811
						c0-4.811,3.9-8.712,8.712-8.712h17.825c4.811,0,8.712,3.9,8.712,8.712v2.811C340.638,248.593,336.737,252.493,331.926,252.493z
						"/>
				</g>
				<path style="fill:#407BFF;" d="M328.03,252.493h-17.825c-4.811,0-8.712-3.9-8.712-8.712v-2.811c0-4.811,3.9-8.712,8.712-8.712
					h17.825c4.811,0,8.712,3.9,8.712,8.712v2.811C336.742,248.593,332.841,252.493,328.03,252.493z"/>
				<path style="opacity:0.3;enable-background:new    ;" d="M328.03,252.493h-17.825c-4.811,0-8.712-3.9-8.712-8.712v-2.811
					c0-4.811,3.9-8.712,8.712-8.712h17.825c4.811,0,8.712,3.9,8.712,8.712v2.811C336.742,248.593,332.841,252.493,328.03,252.493z"
					/>
			</g>
		</g>
		<g>
			<g>
				<g id="freepik--character-2--inject-2_00000119808639694635430160000011291548323137714586_">
					<path style="fill:#263238;" d="M268.099,307.665c0,0-30.74,4.241-48.41,11.877c-6.135,2.651-9.76,8.084-10.555,13.968
						c-3.917,31.894-3.858,79.321-3.858,79.321l17.65,1.05c0,0,8.091-44.035,7.915-69.684c16.119-4.549,57.984-1.588,62.916-14.942
						c2.408-6.923,3.045-14.338,1.853-21.57L268.099,307.665z"/>
					<path style="opacity:0.3;enable-background:new    ;" d="M262.069,314.027c0,0-22.727,21.218-21.697,28.454
						c-3.218,0.333-6.407,0.907-9.54,1.716c0.007,2.493,0.111,5.531-0.165,8.008C221.078,337.91,221.986,324.174,262.069,314.027z"
						/>
					<path style="fill:#263238;" d="M288.012,307.724c0,0-57.651,9.971-55.562,27.198c3.01,24.855,25.369,82.171,25.369,82.171
						l15.834-5.77c0,0-10.738-52.179-14.556-70.313c14.815,0,45.397,1.599,50.329-11.754c2.402-6.8-1.128-14.61-2.613-21.667
						L288.012,307.724z"/>
				</g>
				<path style="opacity:0.3;enable-background:new    ;" d="M266.632,308.376c0,0,9.915,12.699,25.788,14.697
					c15.874,1.998,18.889-1.926,18.889-1.926s0.073-6.186,0.319-5.871c0.246,0.316-43.365-8.728-43.365-8.728L266.632,308.376z"/>
			</g>
			<rect x="280.95" y="348.738" style="opacity:0.3;enable-background:new    ;" width="12.621" height="2.398"/>
			<g>
				<path style="fill:#FDBBB5;" d="M281.646,235.261c3.681-0.389,3.305-4.907,2.856-8.368c-0.181-1.235-0.463-2.459-0.843-3.658
					l6.414-5.355l5.805-4.913c-0.361,2.159-0.606,4.338-0.737,6.528c-0.322,3.784,0.103,6.807,0.599,10.447
					c0.455,1.621,1.438,2.877,2.231,3.901c0,0-6.589,4.986-11.114,4.862C282.332,238.58,281.646,235.261,281.646,235.261z"/>
				<path style="opacity:0.2;enable-background:new    ;" d="M295.239,222.385c0,0-3.81,9.146-10.63,5.578l-0.101-1.595
					L295.239,222.385z"/>
				<path style="fill:#FDBBB5;" d="M298.661,201.766c-2.167-6.327-9.257-9.941-15.835-8.07c-9.069,2.592-11.083,15.259-9.602,23.162
					c1.65,8.8,12.594,13.783,19.87,7.785c4.85-3.99,5.017-9.064,6.097-17.617C299.427,205.269,299.246,203.472,298.661,201.766z"/>
				<path style="fill:#263238;" d="M270.616,199.128c0,0,0.837,0.977,1.622,0.692c-0.786-1.271-0.687-2.848,0.25-3.97
					c0,0,0.567,1.351,1.236,1.379c0.402-3.193,1.824-6.161,4.076-8.507c3.907-4.348,16.711,1.257,16.711,1.257
					s3.062-2.602,7.935,1.805c3.907,3.534,4.364,10.749,4.002,13.857c-1.423,2.995-4.775,5.893-9.318,7.362
					c-2.233-2.54-2.39-6.371-2.165-9.023c-0.674-0.187-1.303-0.535-1.817-1.029c-1.995-1.915-0.51-8.579-8.469-7.586
					c-1.406-0.859-3.186-0.866-4.544-0.018c-2.445,1.423-3.765,9.21-7.149,6.932C269.6,200.001,270.616,199.128,270.616,199.128z"/>
				<path style="opacity:0.4;fill:#FFFFFF;" d="M270.616,199.128c0,0,0.837,0.977,1.622,0.692c-0.786-1.271-0.687-2.848,0.25-3.97
					c0,0,0.567,1.351,1.236,1.379c0.402-3.193,1.824-6.161,4.076-8.507c3.907-4.348,16.711,1.257,16.711,1.257
					s3.062-2.602,7.935,1.805c3.907,3.534,4.364,10.749,4.002,13.857c-1.423,2.995-4.775,5.893-9.318,7.362
					c-2.233-2.54-2.39-6.371-2.165-9.023c-0.674-0.187-1.303-0.535-1.817-1.029c-1.995-1.915-0.51-8.579-8.469-7.586
					c-1.406-0.859-3.186-0.866-4.544-0.018c-2.445,1.423-3.765,9.21-7.149,6.932C269.6,200.001,270.616,199.128,270.616,199.128z"/>
				<g>
					<path style="fill:#263238;" d="M286.013,208.733c-0.098,0.977-0.845,1.655-1.526,1.526c-0.681-0.129-1.07-1.023-0.906-1.992
						c0.164-0.969,0.861-1.654,1.526-1.526C285.772,206.867,286.179,207.748,286.013,208.733z"/>
					<path style="fill:#263238;" d="M277.448,208.236c-0.098,0.977-0.861,1.654-1.526,1.526c-0.665-0.127-1.07-1.024-0.906-1.992
						c0.164-0.969,0.861-1.653,1.526-1.526C277.206,206.371,277.607,207.313,277.448,208.236z"/>
					<path style="fill:#263238;" d="M274.01,203.939c0.145,0.1,0.333,0.12,0.494,0.052c1.072-0.502,2.342-0.488,3.428,0.036
						c0.223,0.133,0.513,0.071,0.647-0.138c0.134-0.209,0.062-0.485-0.161-0.618c-0.001-0.001-0.001-0.001-0.002-0.001
						c-1.355-0.696-2.966-0.733-4.322-0.099c-0.237,0.097-0.343,0.359-0.236,0.587c0.001,0.003,0.003,0.006,0.005,0.01
						C273.902,203.832,273.952,203.89,274.01,203.939z"/>
					<path style="opacity:0.4;fill:#FFFFFF;" d="M274.01,203.939c0.145,0.1,0.333,0.12,0.494,0.052
						c1.072-0.502,2.342-0.488,3.428,0.036c0.223,0.133,0.513,0.071,0.647-0.138c0.134-0.209,0.062-0.485-0.161-0.618
						c-0.001-0.001-0.001-0.001-0.002-0.001c-1.355-0.696-2.966-0.733-4.322-0.099c-0.237,0.097-0.343,0.359-0.236,0.587
						c0.001,0.003,0.003,0.006,0.005,0.01C273.902,203.832,273.952,203.89,274.01,203.939z"/>
					<path style="fill:#263238;" d="M286.924,205.073c0.093-0.025,0.175-0.076,0.236-0.147c0.123-0.22,0.036-0.489-0.195-0.602
						c-0.003-0.002-0.006-0.003-0.009-0.005c-1.347-0.672-2.967-0.677-4.34-0.012c-0.227,0.126-0.305,0.4-0.176,0.612l0,0.001
						c0.134,0.208,0.418,0.276,0.646,0.156l0,0c1.1-0.495,2.374-0.473,3.437,0.061C286.66,205.173,286.806,205.149,286.924,205.073z
						"/>
					<path style="opacity:0.4;fill:#FFFFFF;" d="M286.924,205.073c0.093-0.025,0.175-0.076,0.236-0.147
						c0.123-0.22,0.036-0.489-0.195-0.602c-0.003-0.002-0.006-0.003-0.009-0.005c-1.347-0.672-2.967-0.677-4.34-0.012
						c-0.227,0.126-0.305,0.4-0.176,0.612l0,0.001c0.134,0.208,0.418,0.276,0.646,0.156l0,0c1.1-0.495,2.374-0.473,3.437,0.061
						C286.66,205.173,286.806,205.149,286.924,205.073z"/>
				</g>
				<g>
					<path style="fill:#FDBBB5;" d="M303.988,214.433c-0.976,2.159-2.824,3.835-5.138,4.66c-3.072,1.071-4.955-1.525-4.401-4.446
						c0.52-2.59,2.723-6.355,5.956-6.138C303.638,208.726,305.15,211.767,303.988,214.433z"/>
					<path style="opacity:0.1;fill:none;stroke:#000000;stroke-width:0.5;stroke-miterlimit:10;" d="M296.614,215.236
						c0.179-1.593,1.138-3.069,2.545-3.916c0.598-0.36,1.428-0.593,2.003-0.167"/>
				</g>
				<path style="fill:#FF8271;" d="M279.806,207.217c-1.353,2.127-3.015,4.057-4.938,5.733c0.975,0.958,2.331,1.469,3.705,1.396
					L279.806,207.217z"/>
				<g style="opacity:0.3;">
					<g>
						<path style="fill:#FFFFFF;" d="M285.092,194.6c-0.42-1.147-0.947-2.094-1.838-2.952c-0.803-0.773-1.87-1.33-2.99-1.425
							c-1.315-0.111-2.614,0.499-3.515,1.432c-0.911,0.944-1.459,2.171-1.83,3.413c-0.139,0.463,0.585,0.661,0.723,0.199
							c0.565-1.889,1.729-3.972,3.876-4.275c0.835-0.118,1.591,0.093,2.338,0.529c1.268,0.74,2.022,1.939,2.512,3.279
							C284.533,195.249,285.258,195.055,285.092,194.6L285.092,194.6z"/>
					</g>
				</g>
				<g style="opacity:0.3;">
					<g>
						<path style="fill:#FFFFFF;" d="M286.921,194.022c-0.298-2.949-2.422-5.551-5.272-6.397c-0.464-0.138-0.662,0.586-0.199,0.723
							c2.506,0.744,4.457,3.064,4.721,5.673C286.219,194.497,286.97,194.502,286.921,194.022L286.921,194.022z"/>
					</g>
				</g>
				<g>
					<g>
						<path style="fill:#263238;" d="M282.345,217.698c1.788-0.318,3.386-1.327,4.489-2.76c0.124-0.161,0.025-0.42-0.135-0.513
							c-0.193-0.113-0.389-0.026-0.513,0.135c-0.985,1.28-2.458,2.134-4.041,2.416c-0.199,0.036-0.312,0.279-0.262,0.461
							C281.941,217.647,282.145,217.734,282.345,217.698L282.345,217.698z"/>
					</g>
				</g>
			</g>
			<g>
				<polygon style="fill:#263238;" points="220.664,399.114 207.672,397.588 210.334,418.813 218.431,420.44 				"/>
				<path style="fill:#263238;" d="M208.499,415.148l3.086-0.031c0.698-0.007,1.359,0.323,1.795,0.856
					c1.881,2.3,3.18,1.411,5.02-0.788c1.225-0.149,1.615,1.194,1.731,1.555l2.659,7.98c0.23,0.666-0.145,1.367-0.838,1.565
					c-0.123,0.035-0.251,0.053-0.381,0.052c-3.748,0.038-5.521,0.055-10.185,0.102l-14.265,0.143
					c-3.889,0.039-4.859-3.69-3.272-4.052c7.136-1.59,12.148-3.663,14.286-5.683C208.533,416.493,208.098,416.236,208.499,415.148z"
					/>
				<path style="fill:#407BFF;" d="M204.017,417.921c0.973-0.032,1.937-0.161,2.876-0.385c0.088-0.031,0.13-0.125,0.094-0.21
					c-0.019-0.046-0.059-0.081-0.107-0.097c-0.442-0.197-4.376-1.878-5.314-1.216c-0.176,0.115-0.265,0.317-0.229,0.521
					c0.021,0.381,0.232,0.736,0.566,0.956C202.548,417.844,203.289,417.995,204.017,417.921z M206.279,417.322
					c-1.13,0.213-3.233,0.504-4.137-0.112c-0.235-0.168-0.385-0.423-0.413-0.698c-0.022-0.086,0.014-0.175,0.091-0.222
					C202.337,415.929,204.648,416.665,206.279,417.322z"/>
				<path style="fill:#407BFF;" d="M206.853,417.547c0.04,0.011,0.082,0.01,0.121-0.001c0.05-0.043,0.066-0.112,0.043-0.173
					c-0.007-0.154-1.072-3.767-3.178-3.515c-0.521,0.072-0.661,0.314-0.673,0.516c-0.089,0.962,2.419,2.753,3.598,3.203
					L206.853,417.547z M204.063,414.143c1.34-0.013,2.208,2.092,2.507,2.935c-1.287-0.621-3.116-2.112-3.031-2.699
					c-0.002-0.048-0.008-0.182,0.383-0.225L204.063,414.143z"/>
				<path style="fill:none;stroke:#407BFF;stroke-width:0.5;stroke-linecap:round;stroke-linejoin:round;stroke-miterlimit:10;" d="
					M206.456,417.44c1.069,0.128,2.082,0.724,2.692,1.584"/>
				<path style="fill:none;stroke:#407BFF;stroke-width:0.5;stroke-linecap:round;stroke-linejoin:round;stroke-miterlimit:10;" d="
					M204.599,418.836c1.069,0.128,2.082,0.723,2.691,1.584"/>
				<path style="fill:none;stroke:#407BFF;stroke-width:0.5;stroke-linecap:round;stroke-linejoin:round;stroke-miterlimit:10;" d="
					M202.264,420.018c1.069,0.128,2.081,0.724,2.691,1.584"/>
			</g>
			<g>
				<polygon style="fill:#263238;" points="268.198,397.196 255.289,399.306 263.691,418.978 271.923,418.312 				"/>
				<path style="fill:#263238;" d="M260.918,415.959l2.958-0.879c0.669-0.199,1.395-0.063,1.962,0.329
					c2.442,1.693,3.446,0.48,4.609-2.14c1.136-0.48,1.881,0.704,2.092,1.018l4.753,6.94c0.404,0.577,0.237,1.354-0.374,1.735
					c-0.109,0.068-0.227,0.12-0.352,0.155c-3.592,1.068-5.292,1.573-9.763,2.902l-13.674,4.065c-3.728,1.108-5.687-2.21-4.261-2.995
					c6.423-3.494,10.67-6.866,12.169-9.397C261.322,417.243,260.832,417.116,260.918,415.959z"/>
				<path style="fill:#407BFF;" d="M257.373,419.859c0.927-0.299,1.818-0.688,2.659-1.161c0.076-0.054,0.09-0.156,0.033-0.228
					c-0.031-0.038-0.079-0.062-0.13-0.064c-0.479-0.068-4.724-0.601-5.444,0.295c-0.138,0.159-0.168,0.378-0.077,0.564
					c0.126,0.361,0.425,0.644,0.807,0.763C255.94,420.189,256.694,420.13,257.373,419.859z M259.382,418.66
					c-1.027,0.516-2.97,1.374-4.008,1.031c-0.272-0.097-0.487-0.3-0.59-0.557c-0.045-0.077-0.034-0.172,0.026-0.239
					C255.21,418.407,257.633,418.478,259.382,418.66z"/>
				<path style="fill:#407BFF;" d="M259.996,418.718c0.041-0.001,0.082-0.013,0.116-0.034c0.036-0.055,0.033-0.125-0.007-0.178
					c-0.049-0.146-2.068-3.326-4.023-2.504c-0.481,0.213-0.549,0.484-0.505,0.681c0.179,0.949,3.083,1.981,4.34,2.089
					L259.996,418.718z M256.377,416.215c1.284-0.382,2.699,1.404,3.219,2.131c-1.408-0.243-3.577-1.173-3.657-1.76
					c-0.015-0.046-0.058-0.173,0.306-0.322L256.377,416.215z"/>
				<path style="fill:none;stroke:#407BFF;stroke-width:0.5;stroke-linecap:round;stroke-linejoin:round;stroke-miterlimit:10;" d="
					M259.585,418.726c1.063-0.171,2.201,0.122,3.024,0.781"/>
				<path style="fill:none;stroke:#407BFF;stroke-width:0.5;stroke-linecap:round;stroke-linejoin:round;stroke-miterlimit:10;" d="
					M258.184,420.579c1.063-0.172,2.2,0.122,3.023,0.781"/>
				<path style="fill:none;stroke:#407BFF;stroke-width:0.5;stroke-linecap:round;stroke-linejoin:round;stroke-miterlimit:10;" d="
					M256.265,422.358c1.063-0.171,2.2,0.123,3.023,0.781"/>
			</g>
			<g>
				<g>
					<g>
						<path style="fill:#FDBBB5;" d="M231.634,285.738l-14.288,0.427c-0.757-0.048-1.505,0.179-2.107,0.639l-7.5,5.735
							c0,0,0.712,0.956,1.898,0.571l-1.266,1.598c0,0,0.996,0.959,2.276,0.025s3.943-2.194,3.943-2.194l-3.214,3.567
							c0,0,0.074,1.176,1.702,0.512c1.627-0.665,4.395-3.46,4.395-3.46s6.937,1.471,8.479,0.615
							c1.542-0.855,7.213-1.483,7.213-1.483L231.634,285.738z"/>
					</g>
					<g>
						<g>
							<path style="fill:#FF8271;" d="M227.992,289.8c0.064,0.863-0.73,1.467-1.485,1.686c-1.189,0.346-2.548,0.155-3.748-0.03
								c-0.757-0.117-1.488-0.301-2.205-0.566c-1.445-0.536-2.862-0.258-4.376-0.198c-0.504,0.02-2.058,0.258-1.962-0.538
								c0.072-0.6,0.784-0.72,1.284-0.84c2.396-0.572,4.934-0.739,7.379-1.04c0.473-0.058,0.479-0.809,0-0.75
								c-0.923,0.114-1.845,0.233-2.767,0.353c-1.65,0.216-3.367,0.333-4.98,0.755c-0.633,0.166-1.4,0.427-1.609,1.123
								c-0.175,0.586-0.061,1.224,0.528,1.491c0.999,0.453,2.406,0.188,3.455,0.115c0.821-0.056,1.64-0.166,2.434,0.099
								c2.033,0.677,4.316,1.274,6.467,0.823c1.16-0.244,2.433-1.15,2.335-2.483C228.706,289.322,227.956,289.318,227.992,289.8
								L227.992,289.8z"/>
						</g>
					</g>
				</g>
				<path style="fill:#407BFF;" d="M279.366,234.631c0.343-0.317,5.095-4.456,5.095-4.456l4.049,4.456l7.826-5.412l3.844,3.292
					l-20.011,38.92l-3.131-4.354L279.366,234.631z"/>
				<path style="opacity:0.8;fill:#FFFFFF;" d="M279.366,234.631c0.343-0.317,5.095-4.456,5.095-4.456l4.049,4.456l7.826-5.412
					l3.844,3.292l-20.011,38.92l-3.131-4.354L279.366,234.631z"/>
				<g>
					<path style="fill:#407BFF;" d="M288.005,236.224c-0.298,0.179-2.917,2.203-2.917,2.203l0.663,3.516l2.608,0.482l2.801-4.236
						L288.005,236.224z"/>
					<polygon style="fill:#407BFF;" points="285.75,241.943 280.145,256.836 280.418,271.431 287.747,256.147 288.359,242.425 					
						"/>
					<polygon style="opacity:0.5;" points="285.75,241.943 280.145,256.836 280.418,271.431 287.747,256.147 288.359,242.425 					
						"/>
					<path style="opacity:0.5;" d="M288.005,236.224c-0.298,0.179-2.917,2.203-2.917,2.203l0.663,3.516l2.608,0.482l2.801-4.236
						L288.005,236.224z"/>
				</g>
				<g>
					<path style="fill:#407BFF;" d="M264.454,309.948c0,0,6.288,4.315,15.977,1.929l-5.099-15.885L264.454,309.948z"/>
					<path style="opacity:0.8;fill:#FFFFFF;" d="M264.454,309.948c0,0,6.288,4.315,15.977,1.929l-5.099-15.885L264.454,309.948z"/>
				</g>
				<g>
					<path style="fill:#407BFF;" d="M281.08,232.511l-5.175,2.915c0,0-13.445,2.594-14.081,4.116s-1.872,53.455-2.096,57.701
						c-0.224,4.247-12.749,12.484-11.853,14.049c0.896,1.565,12.795-1.581,16.58-2.291l9.206-8.401l6.758-29.649L281.08,232.511z"/>
					<path style="opacity:0.3;" d="M271.486,249.437c0.727,1.143,2.485,2.812,2.485,2.812s-2.964,2.133-3.15,3.524
						c-0.186,1.391,7.448,27.452,8.222,26.895c0.267-0.192,0.717-2.644,1.192-5.775l0.182-5.943l0.662-38.439l-5.175,2.915
						C275.905,235.426,270.759,248.294,271.486,249.437z"/>
					<path style="fill:#407BFF;" d="M291.284,334.984c0,0-2.154-1.896-6.621-11.344c-4.231-8.947-11.04-22.712-11.04-22.712
						l6.546-29.497l18.144-41.396l5.915,3.655l8.12,2.261l-9.226,56.309c0,0,14.047,33.341,13.802,33.998
						C316.678,326.914,291.284,334.984,291.284,334.984z"/>
					<path style="opacity:0.3;" d="M280.17,271.431l-0.713,3.978l-1.117,5.277c0,0,21.351-27.577,21.841-29.579
						c0.49-2.002-1.429-2.402-1.429-2.402s3.12-1.735,3.52-3.203c0.4-1.468,1.956-11.812,1.956-11.812l-5.915-3.655L280.17,271.431z
						"/>
					<g style="opacity:0.3;">
						<g>
							<path d="M273.999,303.688c0.034-1.174,0.449-2.432,0.683-3.575c0.561-2.733,1.138-5.463,1.71-8.194
								c1.509-7.207,3.01-14.415,4.4-21.646c0.091-0.472-0.632-0.674-0.723-0.199c-1.413,7.345-2.938,14.667-4.472,21.988
								c-0.564,2.689-1.132,5.378-1.684,8.069c-0.235,1.145-0.632,2.382-0.666,3.557
								C273.235,304.171,273.985,304.171,273.999,303.688L273.999,303.688z"/>
						</g>
					</g>
					<polygon style="opacity:0.3;" points="288.359,305.662 303.114,302.767 305.542,307.156 290.507,310.331 					"/>
					<polygon style="opacity:0.3;" points="262.171,301.789 257.732,300.918 253.331,305.319 260.023,306.458 					"/>
				</g>
				<path style="fill:#407BFF;" d="M266.562,260.027c-0.237,0.588-3.743,32.21-10.027,34.302
					c-6.285,2.092-26.628,0.798-26.628,0.798l-1.697-9.388l20.615-4.912l12.999-41.285L266.562,260.027z"/>
				<g style="opacity:0.3;">
					<g>
						<path d="M259.827,294.329c0.708-11.953,1.478-23.91,2.521-35.839c0.279-3.186,0.548-6.384,1.008-9.55
							c0.069-0.472-0.654-0.676-0.723-0.199c-0.944,6.488-1.338,13.076-1.825,19.61c-0.531,7.115-1.004,14.233-1.448,21.354
							c-0.096,1.541-0.192,3.082-0.283,4.624C259.049,294.811,259.799,294.809,259.827,294.329L259.827,294.329z"/>
					</g>
				</g>
				<g>
					<path style="fill:#FDBBB5;" d="M283.498,297.565c-1.693,1.924-4.437-0.776-5.496,0.04c-0.607,0.485-1.285,0.874-2.01,1.153
						c0,0,2.214,1.075,1.481,1.527c-0.733,0.453-2.764,2.236-4.775,1.117c-2.011-1.119-3.563-6.175-3.628-7.026
						c-0.064-0.852,2.141-2.709,2.141-2.709s-2.778,1.581-4.161,2.595c-1.384,1.014-2.967-0.155-0.966-1.497
						c0.822-0.551,6.378-5.86,7.526-5.872c1.148-0.012,8.773,3.416,8.773,3.416C283.66,289.983,286.11,296.683,283.498,297.565z"/>
				</g>
				<path style="fill:#407BFF;" d="M312.349,235.951c0,0,3.257-1.505,4.578,4.756c1.32,6.26,8.565,41.723,3.869,46.225
					c-3.233,3.099-35.2,14.607-35.998,12.561c-0.798-2.046-4.432-6.786-3.136-11.084c1.296-4.298,25.098-8.659,25.471-10.722
					c0.164-0.91,0.242-16.51,0.242-16.51C308.775,249.879,312.349,235.951,312.349,235.951z"/>
				<polygon style="opacity:0.3;" points="287.486,299.492 304.012,294.375 304.73,296.086 294.257,299.566 				"/>
				<g style="opacity:0.3;">
					<g>
						<path d="M282.023,288.507c0.576-1.441,2.544-2.148,3.971-2.701c1.786-0.693,3.585-1.355,5.382-2.017
							c4.259-1.568,8.527-3.109,12.798-4.645c1.019-0.366,2.038-0.732,3.057-1.097c0.451-0.161,0.257-0.886-0.199-0.723
							c-7.206,2.577-14.449,5.093-21.574,7.89c-1.582,0.621-3.482,1.403-4.159,3.094
							C281.12,288.756,281.845,288.951,282.023,288.507L282.023,288.507z"/>
					</g>
				</g>
				<g>
					<g>
						<path style="fill:#263238;" d="M308.69,257.097c0.11-6.478,1.281-12.878,3.462-18.978c0.163-0.455-0.562-0.651-0.723-0.199
							c-2.202,6.16-3.378,12.636-3.489,19.177C307.932,257.579,308.682,257.579,308.69,257.097L308.69,257.097z"/>
					</g>
				</g>
			</g>
		</g>
		<g>
			<g>
				<g>
					<path style="fill:#407BFF;" d="M250.083,299.566h-53.926v-9.058h53.926C251.19,293.528,251.19,296.547,250.083,299.566z"/>
					<path style="opacity:0.8;fill:#FFFFFF;" d="M225.103,298.794h-28.947v-7.514h28.947
						C225.682,293.785,225.682,296.29,225.103,298.794z"/>
					<path style="opacity:0.2;" d="M226.495,290.509c0.556,2.844,0.59,5.852,0,9.058h23.588c1.107-3.019,1.107-6.038,0-9.058
						H226.495z"/>
					<g style="opacity:0.3;">
						<g>
							<path d="M196.521,296.661c9.616,0,19.232,0,28.848,0c0.097,0,0.097-0.15,0-0.15c-9.616,0-19.232,0-28.848,0
								C196.425,296.511,196.425,296.661,196.521,296.661L196.521,296.661z"/>
						</g>
					</g>
					<g style="opacity:0.3;">
						<g>
							<path d="M196.377,294.267c9.664,0,19.328,0,28.992,0c0.097,0,0.097-0.15,0-0.15c-9.664,0-19.328,0-28.992,0
								C196.28,294.116,196.28,294.267,196.377,294.267L196.377,294.267z"/>
						</g>
					</g>
				</g>
			</g>
			<g>
				<path style="fill:#FFFFFF;" d="M233.26,293.918h1.1l-0.6,3.015h1.854l-0.177,0.872h-2.954L233.26,293.918z"/>
				<path style="fill:#FFFFFF;" d="M238.712,297.049h-1.655l-0.449,0.755h-1.161l2.492-3.887h1.083l0.939,3.887h-1.094
					L238.712,297.049z M238.545,296.239l-0.261-1.261l-0.743,1.261H238.545z"/>
				<path style="fill:#FFFFFF;" d="M246.934,293.918l-2.037,3.887h-1.177l-0.283-2.343l-1.238,2.343h-1.182l-0.478-3.887h1.083
					l0.3,2.481l1.31-2.481h1.016l0.278,2.515l1.322-2.515H246.934z"/>
			</g>
		</g>
	</g>
</g>
<g id="Table">
	<g id="freepik--Desk--inject-2">
		<polygon style="fill:#A24E3F;" points="317.519,434.357 312.087,434.357 304.861,307.473 317.519,307.473 		"/>
		<polygon style="fill:#A24E3F;" points="369.782,434.357 375.224,434.357 367.998,307.473 355.34,307.473 		"/>
		<rect x="82.899" y="299.492" style="fill:#A24E3F;" width="296.421" height="9.509"/>
		<rect x="292.573" y="299.492" style="opacity:0.3;enable-background:new    ;" width="86.758" height="9.509"/>
		<polygon style="fill:#A24E3F;" points="88.342,435.884 82.899,435.884 90.125,309 102.783,309 		"/>
		<polygon style="fill:#A24E3F;" points="144.558,435.884 149.99,435.884 157.216,309 144.558,309 		"/>
		<g>
			<g>
				<rect x="133.399" y="282.509" style="fill:#407BFF;" width="53.99" height="16.8"/>
				<rect x="133.399" y="282.509" style="opacity:0.6;fill:#FFFFFF;enable-background:new    ;" width="53.99" height="16.8"/>
				<rect x="133.399" y="282.509" style="opacity:0.6;fill:#FFFFFF;enable-background:new    ;" width="41.659" height="16.8"/>
				<polygon style="opacity:0.2;fill:#407BFF;enable-background:new    ;" points="175.059,282.509 133.399,282.509 133.399,284.23 
					174.119,284.23 				"/>
				<polygon style="opacity:0.2;fill:#407BFF;enable-background:new    ;" points="187.389,288.413 133.399,287.829 
					133.399,287.384 187.389,287.384 				"/>
				<polygon style="opacity:0.2;fill:#407BFF;enable-background:new    ;" points="133.399,290.143 187.389,293.179 
					187.389,292.724 133.399,289.115 				"/>
				<polygon style="opacity:0.2;fill:#407BFF;enable-background:new    ;" points="133.399,296.808 187.389,295.572 
					187.389,295.127 133.399,295.779 				"/>
			</g>
		</g>
		<polygon style="opacity:0.3;enable-background:new    ;" points="89.914,312.704 89.914,309 102.783,309 102.361,312.704 		"/>
		<polygon style="opacity:0.3;enable-background:new    ;" points="144.558,312.704 144.558,309 157.216,309 157.005,312.704 		"/>
		<polygon style="opacity:0.3;enable-background:new    ;" points="305.159,312.704 304.948,309 317.519,309 317.519,312.704 		"/>
		<polygon style="opacity:0.3;enable-background:new    ;" points="355.886,312.704 355.514,309 368.085,309 368.333,312.704 		"/>
	</g>
</g>
<g id="Character_1">
	<g id="freepik--character-1--inject-2">
		<g>
			<path style="fill:#263238;" d="M114.897,205.494c0.109,0.74,0.588,1.273,1.088,1.208c0.5-0.065,0.783-0.729,0.674-1.458
				c-0.109-0.729-0.588-1.273-1.088-1.208C115.071,204.101,114.788,204.765,114.897,205.494z"/>
			<path style="fill:#FF8271;" d="M115.419,206.778c1.209,2.113,2.703,4.05,4.439,5.756c-0.906,0.875-2.153,1.305-3.406,1.175
				L115.419,206.778z"/>
			<path style="fill:#263238;" d="M111.687,201.816c0.092-0.007,0.178-0.05,0.239-0.12c0.771-0.801,1.882-1.178,2.981-1.012
				c0.237,0.047,0.468-0.102,0.522-0.337c0.047-0.234-0.104-0.462-0.337-0.511c-1.386-0.23-2.796,0.233-3.775,1.24
				c-0.167,0.173-0.167,0.447,0,0.62C111.417,201.79,111.552,201.834,111.687,201.816z"/>
			<path style="fill:#FDBBB5;" d="M93.343,213.6c0.315,6.855-0.207,19.236-5.527,22.99c0,0,0.816,7.018,13.187,8.867
				c13.589,2.024,7.507-5.788,7.507-5.788c-7.159-2.872-6.147-8.356-4.08-13.328L93.343,213.6z"/>
			<path style="fill:#FDBBB5;" d="M90.188,207.605c1.904,8.922,2.557,14.242,7.801,18.192c7.888,5.941,18.398,0.152,19.204-9.172
				c0.718-8.389-2.502-21.576-11.859-23.85c-6.679-1.652-13.433,2.423-15.085,9.102C89.784,203.755,89.763,205.717,90.188,207.605z"
				/>
			<path style="fill:#263238;" d="M109.413,208.54c4.265-0.326,4.015-2.296,3.057-3.743c-0.957-1.447-2.122-6.648-2.122-6.648
				s5.93,1.567,4.711-4.113c-1.218-5.68-9.226-12.871-16.222-8.465c-13.938-2.296-18.496,3.329-16.32,8.53
				c-11.065,4.896-3.079,14.808,1.327,14.808c-3.928,3.503,1.937,8.552,11.446,14.22
				C102.254,214.742,112.525,216.995,109.413,208.54z"/>
			<path style="fill:#263238;" d="M100.796,188.423c-0.292-0.004-0.571-0.126-0.772-0.337c-3.3-3.318-8.115-4.632-12.643-3.449
				c-0.582,0.136-1.166-0.224-1.306-0.805c-0.136-0.583,0.223-1.166,0.805-1.306c5.281-1.348,10.881,0.191,14.732,4.047
				c0.422,0.424,0.422,1.11,0,1.534C101.396,188.322,101.1,188.437,100.796,188.423z"/>
			<path style="fill:#263238;" d="M86.38,218.822c-0.289,0.002-0.567-0.112-0.772-0.316c-3.068-3.09-4.352-5.505-3.96-7.616
				c0.371-1.62,1.533-2.945,3.09-3.525c0.544-0.258,1.194-0.027,1.452,0.517c0.258,0.544,0.027,1.194-0.517,1.452
				c-1.142,0.544-1.752,1.175-1.882,1.926c-0.131,0.751,0.305,2.633,3.362,5.701c0.427,0.423,0.43,1.112,0.006,1.539
				c-0.002,0.002-0.004,0.004-0.006,0.006C86.947,218.71,86.669,218.824,86.38,218.822z"/>
			<path style="fill:#FDBBB5;" d="M104.169,207.844c0.73,2.148,2.144,3.998,4.026,5.266c2.492,1.643,4.178-0.218,3.852-2.905
				c-0.294-2.426-1.948-6.202-4.624-6.778C104.746,202.85,103.331,205.244,104.169,207.844z"/>
		</g>
		<g>
			<g>
				<path style="fill:#FDBBB5;" d="M149.393,268.4c0.097-0.261,4.658-2.15,4.658-2.15l2.02,4.691l-3.909,2.28L149.393,268.4z"/>
				<g>
					<g>
						<g>
							<g>
								<g>
									<g>
										<path style="fill:#FDBBB5;" d="M152.6,265.743c0,0,0.31-2.92,2.217-4.424c1.907-1.504,3.029-3.212,4.523-4.232
											c1.495-1.02,0.868,1.341,0.281,2.529c-0.587,1.188-1.241,2.541-0.277,2.838c0.964,0.297,9.426-1.612,10.716-1.048
											c1.29,0.564,0.017,1.301,0.017,1.301s2.068-0.408,2.453,0.367c0.1,0.201,0.006,0.831-0.907,1.165
											c-2.054,0.751-6.447,2.104-6.447,2.104c0.25-0.083,5.791-1.366,6.646-1.45c1.117-0.11,1.7,0.409,1.743,1.059
											c0.061,0.925-6.755,2.751-6.989,3.029c0,0,3.889-1.182,4.743-0.346c0.855,0.837-1.553,1.715-3.823,2.086
											c-2.081,0.34-6.074,1.551-8.222,1.692c-2.648,0.173-4.464-0.306-5.639-2.499C152.462,267.718,152.6,265.743,152.6,265.743
											z"/>
									</g>
								</g>
							</g>
						</g>
					</g>
				</g>
			</g>
			<path style="fill:#407BFF;" d="M86.144,246.859l-0.948,1.467l-1.019,1.61c-0.662,1.08-1.304,2.181-1.947,3.292
				c-1.264,2.222-2.487,4.474-3.618,6.757c-2.274,4.496-4.179,9.168-5.697,13.973c-0.367,1.182-0.693,2.365-1.019,3.547
				l-0.418,1.784l-0.173,0.887l-0.092,0.448c0,0.143-0.061,0.336-0.061,0.296c0-0.041-0.081,0-0.183-0.265
				c-0.109-0.236-0.278-0.44-0.489-0.591c-0.173-0.102-0.204,0-0.112,0.092c0.211,0.192,0.448,0.353,0.703,0.479
				c0.87,0.428,1.791,0.743,2.741,0.938c1.153,0.269,2.32,0.476,3.496,0.622c2.425,0.316,5.096,0.469,7.603,0.601h0.255
				c1.973,0.103,3.489,1.785,3.386,3.758c-0.075,1.441-1.008,2.696-2.367,3.182c-2.814,1.009-5.723,1.73-8.683,2.15
				c-3.309,0.54-6.69,0.453-9.967-0.255c-1.059-0.26-2.084-0.639-3.057-1.131c-1.23-0.624-2.34-1.459-3.282-2.466
				c-1.1-1.195-1.915-2.624-2.385-4.178c-0.399-1.403-0.541-2.867-0.418-4.321c0-0.387,0-0.53,0.061-0.724l0.071-0.561l0.132-1.141
				c0.112-0.744,0.214-1.498,0.336-2.242c0.255-1.488,0.54-2.966,0.897-4.413c1.395-5.727,3.355-11.302,5.85-16.643
				c1.233-2.629,2.548-5.218,3.985-7.735c0.713-1.264,1.468-2.507,2.242-3.74c0.387-0.622,0.785-1.233,1.203-1.855
				c0.418-0.622,0.805-1.182,1.335-1.916c2.351-3.162,6.82-3.819,9.982-1.469c2.973,2.21,3.759,6.329,1.81,9.479L86.144,246.859z"/>
			<path style="fill:#E0E0E0;" d="M86.032,237.421c-0.499-2.905-1.019-6.217,1.172-6.726c2.405-0.561,14.859,1.101,18.793,4.077
				c3.934,2.976,1.916,8.153,1.916,8.153L86.032,237.421z"/>
			<path style="fill:#407BFF;" d="M119.612,248.245c0.469,10.273,0,30.646-6.971,61.485H66.556c-0.285-6.41,6.329-34.05,5.758-64.42
				c-0.118-6.337,4.923-11.57,11.26-11.688c0.062-0.001,0.124-0.002,0.185-0.002c0.907,0,1.865,0,2.854,0.112
				c6.52,0.454,13.006,1.298,19.425,2.527c1.916,0.438,3.781,0.948,5.473,1.468C116.16,239.172,119.402,243.38,119.612,248.245z"/>
			<path style="opacity:0.2;enable-background:new    ;" d="M112.877,265.528c-0.734,5.218-2.426,14.268,3.679,24.276
				c0.693-4.148,1.254-8.031,1.712-11.659L112.877,265.528z"/>
			<path style="fill:#407BFF;" d="M150.402,266.576c-1.559,0.754-7.288,4.634-8.816,5.439l-4.586,2.415
				c-1.344,0.732-2.703,1.37-4.043,2.052c-0.91-1.333-1.745-2.716-2.49-4.151c-1.539-2.864-2.966-5.931-4.24-9.091
				c-1.274-3.159-2.487-6.39-3.587-9.672c-0.591-1.641-1.101-3.312-1.61-4.943c-0.51-1.631-1.04-3.373-1.468-4.872l-0.061-0.183
				c-1.016-3.808-4.926-6.071-8.734-5.055c-3.808,1.016-6.071,4.926-5.055,8.734c0.52,1.998,0.999,3.771,1.539,5.575
				c0.54,1.804,1.142,3.598,1.763,5.381c1.254,3.567,2.629,7.114,4.229,10.609c1.585,3.566,3.407,7.021,5.452,10.344
				c2.155,3.613,4.776,6.927,7.797,9.855l0.397,0.377c1.915,1.817,4.806,2.138,7.073,0.785c1.722-1.04,3.343-2.161,4.871-3.322
				c1.529-1.162,2.996-2.375,4.382-3.659c1.386-1.284,2.721-2.589,3.995-3.965c1.29-1.38,5.699-4.633,6.839-6.139L150.402,266.576z"
				/>
			<path style="opacity:0.2;enable-background:new    ;" d="M72.301,253.531c-0.011,0.479-0.342,16.694-1.107,18.679h-4.646
				L72.301,253.531z"/>
			<g>
				<g>
					<path style="fill:#407BFF;" d="M66.467,245.099c1.842-6.749,6.913-12.439,13.429-15.004c0.444-0.175,0.251-0.9-0.199-0.723
						c-6.764,2.663-12.037,8.508-13.952,15.528C65.616,245.366,66.34,245.565,66.467,245.099L66.467,245.099z"/>
				</g>
			</g>
		</g>
		<g>
			<path style="fill:#407BFF;" d="M129.406,423.416c0.726,0.084,1.457-0.117,2.038-0.561c0.221-0.304,0.221-0.715,0-1.019
				c-0.136-0.242-0.37-0.413-0.642-0.469c-1.254-0.296-3.638,1.335-3.74,1.406c-0.063,0.048-0.094,0.126-0.082,0.204
				c0.012,0.079,0.074,0.141,0.153,0.153C127.879,423.309,128.641,423.405,129.406,423.416z M130.487,421.775
				c0.085-0.011,0.17-0.011,0.255,0c0.16,0.033,0.297,0.133,0.377,0.275c0.183,0.336,0.071,0.479,0,0.52
				c-0.367,0.489-2.13,0.489-3.414,0.275c0.816-0.555,1.746-0.921,2.721-1.07H130.487z"/>
			<path style="fill:#407BFF;" d="M127.185,423.181h0.092c0.897-0.489,2.619-2.375,2.436-3.333c-0.063-0.311-0.335-0.537-0.652-0.54
				c-0.313-0.039-0.628,0.058-0.866,0.265c-1.019,0.815-1.213,3.302-1.213,3.404c-0.008,0.077,0.027,0.152,0.092,0.194
				C127.108,423.185,127.147,423.189,127.185,423.181z M128.917,419.686h0.092c0.265,0,0.296,0.153,0.306,0.204
				c0.102,0.571-1.019,2.038-1.885,2.67c0.062-0.982,0.417-1.923,1.019-2.701C128.58,419.748,128.746,419.687,128.917,419.686z"/>
			<polygon style="fill:#FDBBB5;" points="119.297,422.978 127.908,422.978 132.24,403.023 123.628,403.023 			"/>
			<path style="fill:#263238;" d="M128.52,421.979h-9.672c-0.354-0.003-0.661,0.245-0.734,0.591l-1.702,7.623
				c-0.152,0.681,0.277,1.357,0.958,1.509c0.097,0.022,0.196,0.032,0.295,0.03c3.384-0.061,5.024-0.255,9.285-0.255
				c2.619,0,5.972,0.265,9.59,0.265c3.618,0,4.076-3.577,2.609-3.893c-6.635-1.457-7.134-3.455-9.223-5.371
				C129.534,422.145,129.034,421.967,128.52,421.979z"/>
			<path d="M98.832,309.73c0,0,47.798,14.503,48.98,33.703c2.171,35.364-16.594,73.747-16.594,73.747l-13.075-0.627
				c0,0,6.483-22.56,8.246-54.592c2.212-40.256-73.909,0.938-59.834-52.231H98.832z"/>
		</g>
		<g>
			<g>
				<path style="fill:#407BFF;" d="M183.034,423.416c1.101,0,2.171-0.153,2.528-0.642c0.188-0.27,0.188-0.627,0-0.897
					c-0.14-0.241-0.372-0.414-0.642-0.479c-1.437-0.387-4.443,1.325-4.576,1.406c-0.073,0.039-0.111,0.123-0.092,0.204
					c0.01,0.084,0.071,0.153,0.153,0.173C181.273,423.331,182.153,423.409,183.034,423.416z M184.4,421.744
					c0.131,0,0.261,0.017,0.387,0.051c0.17,0.033,0.318,0.137,0.408,0.285c0.143,0.255,0.092,0.377,0,0.449
					c-0.408,0.56-2.589,0.571-4.189,0.346c1.06-0.598,2.227-0.982,3.434-1.131H184.4z"/>
				<path style="fill:#407BFF;" d="M180.425,423.181h0.081c1.019-0.459,3.108-2.324,2.945-3.302c0-0.224-0.194-0.51-0.754-0.571
					c-0.408-0.042-0.816,0.083-1.131,0.346c-1.101,0.907-1.335,3.231-1.345,3.322c-0.003,0.073,0.032,0.142,0.092,0.184
					C180.346,423.182,180.386,423.189,180.425,423.181z M182.535,419.686h0.122c0.367,0,0.387,0.183,0.397,0.224
					c0.092,0.591-1.304,2.038-2.375,2.69c0.098-0.983,0.496-1.912,1.141-2.66C182.021,419.774,182.274,419.684,182.535,419.686z"/>
				<polygon style="fill:#FDBBB5;" points="170.631,422.978 179.253,422.978 177.612,403.023 168.99,403.023 				"/>
				<path style="fill:#263238;" d="M179.263,421.979h-9.407c-0.341-0.012-0.63,0.25-0.652,0.591l-0.561,7.623
					c-0.028,0.821,0.615,1.51,1.436,1.538c0.01,0,0.021,0.001,0.032,0.001c3.384-0.061,8.255-0.255,12.525-0.255
					c4.984,0,5.503,0.265,11.353,0.265c3.536,0,3.985-3.577,2.456-3.893c-6.951-1.478-8.652-1.641-15.012-5.228
					C180.777,422.225,180.03,422.004,179.263,421.979z"/>
			</g>
			<path style="fill:#263238;" d="M112.641,309.73c0,0,61.811,4.077,64.257,36.883c2.803,37.708,3.322,70.568,3.322,70.568
				l-12.517,0.171c0,0-6.571-31.542-12.217-64.786c-1.702-9.957-22.819-11.669-42.804-12.851
				c-17.224-1.019-30.452-2.038-31.899-21.117l0.224-8.867H112.641z"/>
		</g>
		<g>
			<path style="fill:#407BFF;" d="M109.859,337.002l-8.653-58.774c-0.481-3.289-3.301-5.727-6.624-5.728H43.533
				c-3.698,0-6.696,2.997-6.696,6.695c0,0.328,0.024,0.655,0.072,0.979l8.357,56.828l0,0c0,2.747,2.227,4.973,4.973,4.973
				c0.003,0,0.007,0,0.01,0h93.058c0-2.747-2.227-4.973-4.973-4.973c-0.003,0-0.007,0-0.01,0L109.859,337.002z"/>
			<path style="opacity:0.5;fill:#FFFFFF;enable-background:new    ;" d="M109.859,337.002l-8.653-58.774
				c-0.481-3.289-3.301-5.727-6.624-5.728H43.533c-3.698,0-6.696,2.997-6.696,6.695c0,0.328,0.024,0.655,0.072,0.979l8.357,56.828
				l0,0c0,2.747,2.227,4.973,4.973,4.973c0.003,0,0.007,0,0.01,0h93.058c0-2.747-2.227-4.973-4.973-4.973c-0.003,0-0.007,0-0.01,0
				L109.859,337.002z"/>
			<path style="opacity:0.3;fill:#407BFF;enable-background:new    ;" d="M94.582,272.5H43.533c-3.698,0-6.696,2.997-6.696,6.695
				c0,0.328,0.024,0.655,0.072,0.979l8.357,56.828c0,2.747,2.227,4.973,4.973,4.973c0.003,0,0.007,0,0.01,0h54.127L94.582,272.5z"/>
			<polygon style="fill:#407BFF;" points="45.918,432.476 43.034,432.476 50.249,341.976 53.144,341.976 			"/>
			<polygon style="opacity:0.6;fill:#FFFFFF;enable-background:new    ;" points="45.918,432.476 43.034,432.476 50.249,341.976 
				53.144,341.976 			"/>
			<polygon style="fill:#407BFF;" points="94.99,432.476 92.106,432.476 99.331,341.976 102.216,341.976 			"/>
			<polygon style="opacity:0.6;fill:#FFFFFF;enable-background:new    ;" points="94.99,432.476 92.106,432.476 99.331,341.976 
				102.216,341.976 			"/>
			<polygon style="fill:#407BFF;" points="99.433,432.476 96.539,432.476 89.323,341.976 92.208,341.976 			"/>
			<polygon style="opacity:0.7;fill:#FFFFFF;enable-background:new    ;" points="99.433,432.476 96.539,432.476 89.323,341.976 
				92.208,341.976 			"/>
			<polygon style="fill:#407BFF;" points="148.505,432.476 145.621,432.476 138.395,341.976 141.28,341.976 			"/>
			<polygon style="opacity:0.7;fill:#FFFFFF;enable-background:new    ;" points="148.505,432.476 145.621,432.476 138.395,341.976 
				141.28,341.976 			"/>
		</g>
	</g>
</g>
</svg>
