<?xml version="1.0" encoding="utf-8"?>
<!-- Generator: Adobe Illustrator 27.5.0, SVG Export Plug-In . SVG Version: 6.00 Build 0)  -->
<svg version="1.1" xmlns="http://www.w3.org/2000/svg" xmlns:xlink="http://www.w3.org/1999/xlink" x="0px" y="0px"
	 viewBox="0 0 500 500" style="enable-background:new 0 0 500 500;" xml:space="preserve">
<g id="BACKGROUND">
	<rect style="fill:#eff3fd;" width="500" height="500"/>
</g>
<g id="OBJECTS">
	<g>
		<g>
			<g>
				<path style="fill:#eff3fd;" d="M462.533,268.535c0-117.379-95.154-212.533-212.533-212.533S37.467,151.156,37.467,268.535
					c0,66.957,30.973,126.67,79.361,165.627h266.344C431.561,395.206,462.533,335.492,462.533,268.535z"/>
			</g>
		</g>
		<g>
			
				<line style="fill:none;stroke:#262526;stroke-width:1.2353;stroke-miterlimit:10;" x1="25.325" y1="434.885" x2="477.403" y2="434.885"/>
			
				<line style="fill:none;stroke:#262526;stroke-width:1.2353;stroke-miterlimit:10;" x1="213.684" y1="449.293" x2="478.24" y2="449.293"/>
		</g>
	</g>
	<g>
		<g>
			<rect x="233.97" y="382.864" style="fill:#B2DAFC;" width="54.758" height="42.352"/>
			<path style="fill:#739CD7;" d="M324.235,435.055H198.463v-7.059c0-3.898,3.16-7.059,7.059-7.059h111.655
				c3.898,0,7.059,3.16,7.059,7.059V435.055z"/>
			<polygon style="fill:#95C8ED;" points="233.97,393.88 288.728,401.58 288.728,382.864 233.97,382.864 			"/>
			<path style="fill:#759BD7;" d="M430.649,390.771H92.048c-4.076,0-7.379-3.304-7.379-7.379V162.228c0-4.076,3.304-7.38,7.379-7.38
				h338.601c4.076,0,7.379,3.304,7.379,7.38v221.163C438.029,387.467,434.725,390.771,430.649,390.771z"/>
			<rect x="92.155" y="161.265" style="fill:#E2EDF9;" width="338.387" height="204.701"/>
			<path style="fill:#95C8ED;" d="M268.942,378.051c0,3.898-3.16,7.059-7.059,7.059s-7.059-3.16-7.059-7.059
				c0-3.898,3.16-7.059,7.059-7.059S268.942,374.153,268.942,378.051z"/>
		</g>
		<g>
			<g>
				<rect x="180.693" y="319.408" style="fill:#ACC5E8;" width="60" height="4.657"/>
				<rect x="180.693" y="327.241" style="fill:#F7F7F7;" width="39.667" height="4.657"/>
				<g>
					<rect x="204.7" y="182.342" style="fill:#ACC5E8;" width="114.66" height="4.657"/>
					<rect x="204.7" y="193.316" style="fill:#ACC5E8;" width="114.66" height="4.657"/>
					<rect x="204.7" y="204.29" style="fill:#ACC5E8;" width="76.827" height="4.657"/>
				</g>
				<rect x="334.413" y="292.58" style="fill:#ACC5E8;" width="60" height="4.657"/>
				<rect x="334.413" y="300.413" style="fill:#F7F7F7;" width="39.667" height="4.657"/>
			</g>
			<g>
				<polygon style="fill:#E36872;" points="155.535,326.004 149.63,320.606 227.196,235.778 303.322,293.179 367.948,204.204 
					374.421,208.906 305.007,304.47 228.189,246.547 				"/>
				<g>
					<circle style="fill:#759BD7;" cx="152.583" cy="323.305" r="19.25"/>
					<circle style="fill:#F7F7F7;" cx="152.583" cy="323.305" r="13.18"/>
					<g>
						
							<text transform="matrix(1 0 0 1 148.6857 329.5648)" style="fill:#759BD7; font-family:'Montserrat-Black'; font-size:20.011px;">1</text>
					</g>
				</g>
				<g>
					<circle style="fill:#759BD7;" cx="227.692" cy="241.162" r="19.25"/>
					
						<ellipse transform="matrix(0.8997 -0.4365 0.4365 0.8997 -82.4308 123.5754)" style="fill:#F7F7F7;" cx="227.692" cy="241.162" rx="13.18" ry="13.18"/>
					<g>
						
							<text transform="matrix(1 0 0 1 222.2956 247.422)" style="fill:#759BD7; font-family:'Montserrat-Black'; font-size:20.011px;">2</text>
					</g>
				</g>
				<g>
					<circle style="fill:#759BD7;" cx="304.165" cy="298.825" r="19.25"/>
					
						<ellipse transform="matrix(0.1608 -0.987 0.987 0.1608 -39.692 550.9658)" style="fill:#F7F7F7;" cx="304.165" cy="298.825" rx="13.18" ry="13.18"/>
					<g>
						
							<text transform="matrix(1 0 0 1 298.0179 305.0846)" style="fill:#759BD7; font-family:'Montserrat-Black'; font-size:20.011px;">3</text>
					</g>
				</g>
				<g>
					
						<ellipse transform="matrix(0.9482 -0.3177 0.3177 0.9482 -47.1096 128.7262)" style="fill:#759BD7;" cx="371.185" cy="208.825" rx="29.973" ry="29.973"/>
					
						<ellipse transform="matrix(0.156 -0.9878 0.9878 0.156 107.0084 542.8859)" style="fill:#F7F7F7;" cx="371.185" cy="208.825" rx="25.175" ry="25.175"/>
					<circle style="fill:#759BD7;" cx="371.185" cy="208.825" r="19.25"/>
					
						<ellipse transform="matrix(0.1556 -0.9878 0.9878 0.1556 107.1522 542.9996)" style="fill:#F7F7F7;" cx="371.185" cy="208.825" rx="13.18" ry="13.18"/>
					
						<ellipse transform="matrix(0.9246 -0.3809 0.3809 0.9246 -51.5622 157.1434)" style="fill:#F99595;" cx="371.185" cy="208.825" rx="7.509" ry="7.509"/>
				</g>
			</g>
			<g>
				<g>
					<rect x="121.165" y="189.423" style="fill:#ACC5E8;" width="57.209" height="57.209"/>
					<rect x="124.771" y="186.516" style="fill:#FFFFFF;" width="57.209" height="57.209"/>
					<path style="fill:#96AFE4;" d="M181.914,190.352h-58.662c-2.118,0-3.836-1.717-3.836-3.836l0,0
						c0-2.118,1.717-3.836,3.836-3.836h58.662c2.118,0,3.836,1.717,3.836,3.836l0,0
						C185.749,188.635,184.032,190.352,181.914,190.352z"/>
					<g>
						<g>
							<circle style="fill:#7B8FDA;" cx="132.405" cy="186.857" r="1.833"/>
							<path style="fill:none;stroke:#FFFFFF;stroke-width:1.3537;stroke-miterlimit:10;" d="M129.426,182.681
								c0-2.385,1.169-4.318,2.612-4.318c1.443,0,2.612,1.933,2.612,4.318c0,2.385-1.169,4.318-2.612,4.318"/>
						</g>
						<g>
							<circle style="fill:#7B8FDA;" cx="175.081" cy="186.857" r="1.833"/>
							<path style="fill:none;stroke:#FFFFFF;stroke-width:1.3537;stroke-miterlimit:10;" d="M172.102,182.681
								c0-2.385,1.169-4.318,2.612-4.318c1.443,0,2.612,1.933,2.612,4.318c0,2.385-1.169,4.318-2.612,4.318"/>
						</g>
						<g>
							<circle style="fill:#7B8FDA;" cx="155.034" cy="186.857" r="1.833"/>
							<path style="fill:none;stroke:#FFFFFF;stroke-width:1.3537;stroke-miterlimit:10;" d="M152.055,182.681
								c0-2.385,1.169-4.318,2.612-4.318c1.443,0,2.612,1.933,2.612,4.318c0,2.385-1.169,4.318-2.612,4.318"/>
						</g>
					</g>
				</g>
				<g>
					
						<text transform="matrix(1 0 0 1 135.2733 223.0592)" style="fill:#759BD7; font-family:'Montserrat-ExtraBoldItalic'; font-size:27.0898px;">30</text>
				</g>
				<rect x="133.359" y="227.982" style="fill:#F0F4F7;" width="36.834" height="5.406"/>
			</g>
		</g>
	</g>
	<g>
		
			<rect x="211.546" y="377.287" transform="matrix(-1 -1.224647e-16 1.224647e-16 -1 433.8412 811.8242)" style="fill:#37539A;" width="10.75" height="57.25"/>
		
			<rect x="193.796" y="394.037" transform="matrix(-1 -1.224647e-16 1.224647e-16 -1 398.3412 828.5742)" style="fill:#37539A;" width="10.75" height="40.5"/>
		
			<rect x="176.046" y="384.537" transform="matrix(-1 -1.224647e-16 1.224647e-16 -1 362.8412 819.0742)" style="fill:#37539A;" width="10.75" height="50"/>
		
			<rect x="158.296" y="399.287" transform="matrix(-1 -1.224647e-16 1.224647e-16 -1 327.3412 833.8242)" style="fill:#37539A;" width="10.75" height="35.25"/>
		<g>
			<polygon style="fill:#37539A;" points="164.024,393.391 163.317,392.684 181.347,374.654 199.054,385.627 216.528,363.478 
				217.313,364.097 199.287,386.948 181.494,375.921 			"/>
			<circle style="fill:#37539A;" cx="163.671" cy="393.037" r="1.75"/>
			<circle style="fill:#37539A;" cx="181.421" cy="375.37" r="1.75"/>
			<circle style="fill:#37539A;" cx="199.171" cy="385.954" r="1.75"/>
			<circle style="fill:#37539A;" cx="216.921" cy="364.12" r="1.75"/>
		</g>
	</g>
	<g>
		<g>
			<g>
				<rect x="133.809" y="295.957" style="fill:#455157;" width="20.075" height="27.336"/>
				<path style="fill:#E5B498;" d="M136.856,308.484c0,2.762-2.239,5.001-5.001,5.001s-5.001-2.239-5.001-5.001
					c0-2.762,2.239-5.001,5.001-5.001S136.856,305.722,136.856,308.484z"/>
				<path style="fill:#E5B498;" d="M150.233,310.133c-0.133,2.759,1.997,5.103,4.755,5.235c2.759,0.132,5.102-1.997,5.235-4.755
					c0.133-2.759-1.997-5.103-4.755-5.235C152.709,305.245,150.366,307.375,150.233,310.133z"/>
			</g>
			<g>
				<polygon style="fill:#EBBA9A;" points="130.143,421.52 131.011,429.457 137.949,428.832 137.511,419.02 				"/>
				<polygon style="fill:#EBBA9A;" points="102.761,419.332 102.828,428.282 109.761,428.832 110.886,419.332 				"/>
				<g>
					<path d="M114.015,434.914c-0.322-1.594-0.767-3.142-1.377-4.555c-0.929-0.644-1.811-1.376-2.565-2.335
						c-0.348-0.442-0.683-0.943-1.142-1.151c-0.346-0.157-0.728-0.13-1.1-0.102c-2.002,0.153-4.009,0.25-6.014,0.344
						c0.003,1.622-0.038,3.366-0.344,4.966c-0.109,0.57-0.521,2.389-0.191,3.149L114.015,434.914z"/>
					<g id="XMLID_44_">
						<g id="XMLID_45_">
							<path style="fill:#2354C1;" d="M127.39,321.597c-0.021-0.025-0.043-0.05-0.065-0.074c-2.514-2.853-6.492-4.014-9.939-2.9
								c-9.063,2.928-8.727,16.955-9.469,25.203c-0.785,8.725-1.609,17.446-2.473,26.162c-1.641,16.561-2.363,34.49-4.287,51.012
								c1.416,0.744,5.238,1.084,6.831,1.243c2.768,0.276,3.68,0.001,4.565-0.716c2.315-15.038,5.369-31.439,8.061-46.398
								c1.415-7.864,2.503-11.675,4.021-19.515c1.134-5.855,1.465-11.876,2.878-17.671c0.643-2.637,2.355-5.139,2.587-7.76
								C130.372,327.106,129.322,323.835,127.39,321.597z"/>
						</g>
					</g>
					
						<line style="fill:none;stroke:#122B72;stroke-width:0.7341;stroke-linecap:round;stroke-linejoin:round;stroke-miterlimit:10;" x1="118.237" y1="386.864" x2="114.737" y2="386.172"/>
					
						<line style="fill:none;stroke:#122B72;stroke-width:0.7341;stroke-linecap:round;stroke-linejoin:round;stroke-miterlimit:10;" x1="118.201" y1="386.855" x2="114.063" y2="388.9"/>
				</g>
				<g>
					<path d="M130.019,434.998c0.048,0.014,0.1,0.022,0.151,0.031c0.402-0.004,0.804-0.001,1.207,0.007
						c0.103-0.001,0.204,0.001,0.304,0.007c0.48,0.013,0.961,0.03,1.442,0.056c3.747,0.203,7.589,0.778,11.28,0.764
						c1.29-0.005,2.646-0.076,3.803-0.561c2.99-1.253-0.728-2.707-1.942-3.36c-1.275-0.686-2.382-1.334-3.739-1.901
						c-1.721-0.719-3.381-1.618-4.95-2.681c-2.14,0.581-4.35,0.849-6.556,0.798C129.887,428.132,128.364,434.511,130.019,434.998z"
						/>
					<g id="XMLID_42_">
						<g id="XMLID_43_">
							<path style="fill:#365FE5;" d="M138.77,337.831c-0.622-3.669-3.696-16.301-7.896-16.887
								c-2.755-0.384-6.251,0.707-8.097,3.069c-1.434,1.833-2.179,4.226-2.472,6.63c-0.493,4.039-0.106,8.311,0.152,12.362
								c0.408,6.424,2.011,18.539,2.011,18.539s6.309,46.727,6.17,59.914c2.512,3.31,10.658,0.26,10.68-0.125
								c0.589-10.395,0.368-27.637,0.37-35.671C139.687,377.013,140.222,346.389,138.77,337.831z"/>
						</g>
					</g>
					<path style="fill:none;stroke:#122B72;stroke-width:0.7341;stroke-miterlimit:10;" d="M121.984,358.292
						c-0.614-6.505-1.228-13.011-1.842-19.516"/>
				</g>
				<path style="fill:#2751C4;" d="M113.603,343.081c2.878,0.785,5.909,1.381,8.874,1.692c5.796,0.608,11.402-0.317,16.789-2.192
					c-0.132-1.93-0.294-3.559-0.496-4.75c-0.622-3.669-3.696-16.301-7.896-16.887c-1.192-0.166-2.523-0.055-3.799,0.315
					c-2.522-2.656-6.352-3.714-9.689-2.636c-8.022,2.591-8.68,13.875-9.24,22.154C109.786,341.861,111.687,342.559,113.603,343.081z
					"/>
			</g>
			<g>
				<path id="XMLID_41_" style="fill:#E5B498;" d="M129.475,270.309c0.041,0.37,0.067,0.737,0.086,1.088
					c0.075,1.408,0.151,2.816,0.226,4.224c0.075,1.412,0.314,2.927,0.227,4.337c-0.126,2.023-0.559,3.963-2.445,4.951
					c-1.176,0.58-2.567,0.53-3.755,0.017c-0.918-0.396-2.082-1.02-2.445-2.047c-0.237-0.673-0.237-1.408-0.233-2.126
					c0.012-2.351-0.04-4.703,0.055-7.053c0.061-1.511-0.05-3.144,0.601-4.541c0.892-1.917,3.182-3.798,5.309-2.96
					C128.775,266.857,129.288,268.619,129.475,270.309z"/>
			</g>
			<g>
				<path style="fill:#E5B498;" d="M134.599,267.888l0.017-0.027c-0.062-0.083-0.119-0.155-0.169-0.215
					c-0.357-0.596-0.625-1.281-0.93-1.899c0.018,0.036-0.277,0.396-0.307,0.466c-0.102,0.243-0.127,0.544-0.165,0.804
					c-0.081,0.563-0.106,1.135-0.072,1.703c0.013,0.215,0.038,0.441,0.167,0.613c0.301,0.4,1.353,0.033,1.766-0.027
					c0.137-0.02,0.298-0.059,0.345-0.188C135.392,268.727,134.834,268.198,134.599,267.888z"/>
				<path id="XMLID_35_" style="fill:#E5B498;" d="M120.699,259.727c1.128-0.815,3.715-2.017,6.419-1.95
					c2.937-0.043,4.563,1.194,5.236,2.884c1.031,2.59,1.451,5.395,1.46,8.173c0.004,1.393-0.095,2.786-0.284,4.165
					c-0.175,1.28-0.751,2.184-2.122,2.419c-1.271,0.217-2.56,0.315-3.849,0.334c-1.148,0.017-2.528,0.13-3.628-0.206
					c-1.889-0.577-2.981-2.442-3.626-4.184c-0.178-0.481-0.542-2.075-0.657-2.568C118.943,265.766,119.512,260.585,120.699,259.727z
					"/>
				<g>
					
						<path style="fill:none;stroke:#1F2326;stroke-width:0.7341;stroke-linecap:round;stroke-linejoin:round;stroke-miterlimit:10;" d="
						M131.314,255.954c-0.532-1.302-1.901-2.216-3.308-2.207"/>
					
						<path style="fill:none;stroke:#1F2326;stroke-width:0.7341;stroke-linecap:round;stroke-linejoin:round;stroke-miterlimit:10;" d="
						M132.566,255.797c-0.356-0.187-0.844-0.059-1.063,0.277"/>
					<path style="fill:#1F2326;" d="M127.276,272.917c0.119-0.028,0.219-0.074,0.279-0.152c0.184-0.238,0.138-1.074,0.178-1.382
						c0.115-0.89,0.229-1.78,0.344-2.67c0.072-0.56,0.012-1.035,0.473-1.387c0.416-0.317,0.954-0.441,1.469-0.443
						c1.835-0.006,2.306,0.209,2.038-1.773c-0.127-0.942-0.353-1.905-0.172-2.858c0.116-0.609,0.262-0.724,0.62-1.136
						c0.573-0.661,1.199-0.882,1.352-1.625c-1.123-3.843-4.763-6.051-9.046-4.959c-1.867,0.476-3.844,1.15-5.268,2.307
						c-0.664,0.54-1.209,1.185-1.564,1.965c-0.088,0.192-0.163,0.397-0.147,0.606c0.013,0.167,0.057,0.317,0.123,0.454
						c-1.128,1.727-0.434,4.032-0.095,5.897c0.238,1.307,0.64,2.581,1.158,3.803c0.259,0.611,0.549,1.21,0.864,1.794
						c0.127,0.236,0.748,1.659,0.935,1.668c1.878,0.085,3.76,0.065,5.635-0.061C126.674,272.949,127.019,272.976,127.276,272.917z"
						/>
				</g>
				<path id="XMLID_32_" style="fill:#E5B498;" d="M128.861,268.734c0.696,0.787,1.86,0.947,2.539,0.046
					c0.31-0.411,0.413-0.942,0.441-1.455c0.025-0.458-0.006-0.929-0.187-1.35c-0.248-0.574-0.784-0.916-1.381-1.042
					C128.253,264.506,127.83,267.569,128.861,268.734z"/>
				<path style="fill:none;stroke:#1F2326;stroke-width:0.466;stroke-linecap:round;stroke-miterlimit:10;" d="M129.71,266.212
					c0.041-0.266,0.396-0.385,0.643-0.277c0.247,0.108,0.397,0.36,0.504,0.607c0.179,0.411,0.287,0.854,0.318,1.302
					c-0.228-0.08-0.508,0.056-0.586,0.284c-0.078,0.228,0.06,0.507,0.289,0.584"/>
				<g>
					<path style="fill:none;stroke:#1F2326;stroke-width:0.466;stroke-linecap:round;stroke-miterlimit:10;" d="M132.471,263.523
						c0.47-0.194,0.987-0.274,1.494-0.233"/>
					<path style="fill:#1F2326;" d="M133.997,265.738c0.042,0.353-0.21,0.672-0.563,0.714s-0.672-0.21-0.714-0.563
						c-0.042-0.352,0.21-0.672,0.563-0.714C133.636,265.134,133.955,265.386,133.997,265.738z"/>
					<path style="fill:none;stroke:#1F2326;stroke-width:0.466;stroke-linecap:round;stroke-miterlimit:10;" d="M132.505,271.223
						c0.232-0.005,0.748-0.066,0.969-0.095"/>
				</g>
			</g>
			<path style="fill:#4b9f61;" d="M114.821,317.349h-6.165c-3.497,0-6.331-2.835-6.331-6.331l0,0c0-3.497,2.835-6.331,6.331-6.331
				h6.165c3.497,0,6.331,2.835,6.331,6.331l0,0C121.152,314.514,118.318,317.349,114.821,317.349z"/>
			<g id="XMLID_39_">
				<path id="XMLID_40_" style="fill:#4b9f61;" d="M111.37,284.412c-4.659,5.417-8.897,17.248-9.339,24.304
					c-0.11,1.751,0.214,3.585,1.242,5.007c1.028,1.422,2.847,2.338,4.565,1.985c1.818-0.373,3.102-1.986,4.022-3.597
					c1.493-2.613,3.666-9.217,4.254-12.066c0.66-3.193,2.099-6.2,2.671-9.461c0.356-2.029,2.26-11.548-2.383-10.299
					c-0.787,0.212-1.462,0.713-2.09,1.233C113.243,282.404,112.263,283.373,111.37,284.412z"/>
			</g>
			<polygon style="fill:#FFFFFF;" points="119.137,279.554 120.865,276.817 130.156,276.529 132.389,279.698 			"/>
			<path style="fill:#4b9f61;" d="M139.173,320.371l-1.883-36.791c-0.266,0.003,0.02-2.842-0.892-3.389
				c-1.294-0.775-4.824-1.326-5.813-1.517l-9.768,0.088c-1.212,0.15-2.863,0.62-4.272,1.074c-1.717,0.554-2.965,2.048-3.164,3.806
				l-1.36,18.809l-1.868,17.603l-4.408,13.294c1.609,1.579,3.449,2.921,5.507,3.966c0.619,0.314,1.252,0.591,1.89,0.852
				c0,0,9.028,3.632,17.442,1.766c1.574-0.205,3.13-0.484,4.65-0.825c3.255-0.731,3.898-1.203,7.014-2.51L139.173,320.371z"/>
			<g>
				<path style="fill:#4b9f61;" d="M150.761,317.349h-6.165c-3.496,0-6.331-2.835-6.331-6.331l0,0c0-3.497,2.835-6.331,6.331-6.331
					h6.165c3.497,0,6.331,2.835,6.331,6.331l0,0C157.092,314.514,154.257,317.349,150.761,317.349z"/>
				<g id="XMLID_37_">
					<path id="XMLID_38_" style="fill:#4b9f61;" d="M140.987,284.98c2.341,3.447,3.734,7.976,5.166,11.871
						c1.417,3.857,3.842,8.905,3.749,13.079c-0.035,1.559-0.653,3.166-1.903,4.097c-1.302,0.97-3.085,1.07-4.665,0.694
						c-4.683-1.114-5.981-5.116-7.446-9.081c-1.783-4.825-3.019-10.228-3.315-15.363c-0.121-2.11-0.932-12.04,3.715-10.158
						c0.788,0.319,1.424,0.918,2.01,1.529C139.295,282.691,140.19,283.806,140.987,284.98z"/>
				</g>
				<path style="fill:none;stroke:#4b9f61;stroke-width:0.8075;stroke-miterlimit:10;" d="M138.854,311.806
					c-3.6-7.357-4.042-10.025-4.795-12.623"/>
				<path style="fill:none;stroke:#4b9f61;stroke-width:0.8075;stroke-miterlimit:10;" d="M134.952,302.555
					c-0.529-0.842-1.059-1.684-1.588-2.526"/>
			</g>
		</g>
		<g>
			<g>
				<g>
					<path style="fill:#2354C1;" d="M261.631,316.261c-8.545,1.689-8.777,11.508-8.035,18.536
						c1.568,14.844,5.882,49.986,5.882,49.986l8.215,43.113l5.742,0.32l-3.048-43.624c0,0,1.456-31.782,2.917-42.853
						C275.671,326.233,272.984,314.017,261.631,316.261z"/>
				</g>
				<g>
					<path d="M273.789,426.763c-2.286,0.258-3.916,0.243-6.197-0.055c-0.003,0-0.006-0.001-0.009-0.001
						c-0.495-0.065-0.982,0.167-1.253,0.586c-0.165,0.254-0.324,0.492-0.482,0.691c-0.848,1.068-1.971,1.675-3.28,1.976
						c-0.046,0.017-0.087,0.043-0.134,0.058c-1.558,0.195-2.98,0.992-3.157,2.483h14.36
						C274.14,430.561,274.379,428.523,273.789,426.763z"/>
					<rect x="259.273" y="432.275" style="fill:#F7F7F7;" width="14.628" height="1.887"/>
				</g>
			</g>
			<g>
				<g>
					<path style="fill:#365FE5;" d="M263.137,316.514c-8.696-0.499-11.374,8.95-12.41,15.941
						c-2.189,14.765-5.771,50.018-5.771,50.018l3.167,45.474l5.991-0.236l3.347-44.998c0,0,6.435-28.259,10.615-38.614
						C274.24,329.678,274.691,317.178,263.137,316.514z"/>
				</g>
				<g>
					<path d="M254.619,426.763c-2.286,0.258-3.916,0.243-6.197-0.055c-0.3-0.039-0.607-0.083-0.901-0.014
						c-0.266,0.062-0.503,0.211-0.736,0.353c-2.196,1.338-5.324,2.271-7.853,2.738c-1.455,0.268-3.022,0.419-4.178,1.344
						c-0.415,0.332-0.756,0.883-0.707,1.372h20.42C254.97,430.561,255.208,428.523,254.619,426.763z"/>
					<rect x="233.569" y="432.275" style="fill:#F7F7F7;" width="20.856" height="1.887"/>
				</g>
			</g>
			<g>
				<g id="XMLID_10_">
					<g id="XMLID_11_">
						<path style="fill:#E5B498;" d="M264.222,269.047c0.049-0.985-0.017-1.965-0.208-2.92c1.455,0.491,2.974,0.528,4.459,0.129
							c0.73-0.197,1.431-0.488,2.115-0.809c0.244-0.114,0.683-0.472,1.087-0.696c-0.888,3.279-0.818,6.701,1.211,9.518
							c-1.534,1.328-3.531,2.011-5.527,2.351c-1.714,0.292-5.816,0.564-4.83-2.322c0.323-0.944,1.015-1.669,1.289-2.649
							C264.053,270.806,264.179,269.921,264.222,269.047z"/>
					</g>
				</g>
				<g id="XMLID_6_">
					<g id="XMLID_9_">
						<path style="fill:#AE6E59;" d="M268.193,266.321c-1.396,0.323-2.815,0.266-4.179-0.194c0.191,0.954,0.256,1.935,0.208,2.92
							c-0.043,0.874-0.168,1.759-0.404,2.603c-0.025,0.088-0.056,0.172-0.087,0.257c0.169-0.021,0.338-0.05,0.507-0.083
							C266.177,270.517,267.508,268.53,268.193,266.321z"/>
					</g>
				</g>
				<g>
					<path style="fill:#E5B498;" d="M260.079,262.886c0.118,0.027,0.236,0.044,0.35,0.049c0.36,0.015,0.318-0.436,0.298-0.697
						c-0.054-0.689-0.055-1.41-0.169-2.09c-0.249,0.259-0.351,0.574-0.556,0.861c-0.268,0.375-0.54,0.746-0.81,1.119
						c-0.037,0.051-0.076,0.106-0.084,0.169c-0.02,0.149,0.128,0.262,0.262,0.329C259.581,262.732,259.831,262.829,260.079,262.886z
						"/>
					<path style="fill:#E5B498;" d="M272.996,262.612c0.609-1.425,0.927-2.97,0.882-4.515c-0.049-1.673-0.597-3.351-1.666-4.638
						c-1.559-1.878-4.217-2.768-6.593-2.208c-0.61,0.144-1.196,0.382-1.737,0.697c-1.322,0.769-2.857,2.315-3.074,3.91
						c-0.049,0.358,0.024,0.7-0.044,1.063c-0.102,0.538-0.216,1.071-0.299,1.612c-0.166,1.077-0.26,2.171-0.209,3.261
						c0.059,1.276,0.216,2.568,0.718,3.742c0.502,1.176,1.298,1.97,2.267,2.474c1.819,0.946,4.016,0.65,5.722-0.487
						C270.739,266.339,272.149,264.592,272.996,262.612z"/>
					<path style="fill:none;stroke:#373B44;stroke-width:0.4725;stroke-linecap:round;stroke-miterlimit:10;" d="M260.77,264.27
						c0.25,0.111,0.5,0.222,0.75,0.333"/>
				</g>
			</g>
			<g>
				<path style="fill:#E5B498;" d="M238.739,285.844c0.12-0.638,0.6-1.196,1.213-1.41c0.633-0.221,1.705-0.223,1.916-0.859
					c0.105-0.319,0.21-0.438-0.045-0.655c-0.256-0.217-0.599-0.306-0.934-0.327c-1.029-0.063-2.071,0.515-2.56,1.423
					c-0.15,0.279-0.368,0.644-0.672,0.555c-0.144-0.042-0.238-0.181-0.296-0.319c-0.358-0.839,0.137-1.777,0.617-2.553
					c0.377-0.61,0.78-1.246,1.404-1.6c0.7-0.397,1.555-0.371,2.357-0.316c1.622,0.112,3.321,0.235,4.691,1.2
					c0.359,0.253,0.687,0.547,1.046,0.801c0.919,0.652,2.006,1.018,3.075,1.375c-0.334,1.158-0.668,2.317-1.002,3.475
					c-0.017,0.06-0.038,0.125-0.092,0.158c-0.056,0.034-0.128,0.02-0.192,0.004c-1.968-0.481-4.24-0.883-6.213-1.192
					C241.637,285.423,240.138,285.603,238.739,285.844z"/>
				<path style="fill:#C47A7A;" d="M262.606,286.24c-1.029-0.489-2.13-0.919-3.265-1.308c-1.95-0.668-4.001-1.216-5.96-1.733
					c-0.742-0.196-3.585-0.91-4.349-1.031c-2.132,1.736-2.734,2.896-2.734,5.461c2.248,1.503,7.709,4.581,10.187,5.762
					c1.388,0.662,2.766,1.355,4.29,1.811c1.524,0.456,3.232,0.662,4.805,0.315c0.822-0.181,1.632-0.546,1.992-1.139
					c0.224-0.369,0.253-0.788,0.24-1.195C267.719,290.407,265.697,287.709,262.606,286.24z"/>
				<path style="fill:#E5B498;" d="M225.561,297.967c-0.844-1.499-1.04-3.373-0.419-4.978c0.23-0.594,0.616-1.189,1.223-1.382
					c0.729-0.232,1.527,0.21,1.988,0.82c0.461,0.61,0.678,1.364,0.973,2.07c0.318,0.763,0.735,1.485,1.237,2.142
					c0.521,0.682,1.156,1.341,1.307,2.186c0.119,0.671-0.111,1.394-0.596,1.872C229.47,302.473,226.435,299.519,225.561,297.967z"/>
				<g>
					<polygon style="fill:#E1AB3D;" points="245.886,296.874 234.984,302.159 220.561,289.067 231.464,283.782 					"/>
					<polygon style="fill:#FFFFFF;" points="244.105,296.328 234.741,300.867 222.28,289.555 231.643,285.017 					"/>
					<polygon style="fill:#CCDBF5;" points="233.066,287.41 225.285,291.182 224.526,290.493 232.307,286.721 					"/>
					<polygon style="fill:#CCDBF5;" points="237.042,291.018 229.26,294.79 228.501,294.101 236.283,290.329 					"/>
					<polygon style="fill:#CCDBF5;" points="238.359,292.214 230.577,295.986 229.818,295.297 237.6,291.525 					"/>
					<polygon style="fill:#CCDBF5;" points="239.676,293.409 231.894,297.181 231.135,296.492 238.917,292.72 					"/>
					<polygon style="fill:#CCDBF5;" points="240.993,294.605 233.211,298.376 232.452,297.687 240.234,293.916 					"/>
					<polygon style="fill:#CCDBF5;" points="242.31,295.8 234.528,299.572 233.769,298.883 241.551,295.111 					"/>
					<polygon style="fill:#373B44;" points="231.179,286.082 224.637,289.253 221.854,286.726 228.395,283.555 					"/>
				</g>
				<path style="fill:#E5B498;" d="M226.691,296.771c-0.109,0.127-0.209,0.262-0.297,0.404c-0.824,1.324,0.771,2.555,1.786,3.269
					c2.306,1.622,5.122,2.399,7.795,3.178c1.51,0.44,5.88-0.637,4.674-3.009c-0.824-1.619-3.263-2.551-4.866-2.984
					c-1.664-0.312-3.087-1.005-3.711-2.692c-0.277-0.75-0.389-1.551-0.633-2.312c-0.06-0.187-0.133-0.38-0.279-0.512
					c-0.146-0.132-0.385-0.182-0.539-0.06c-0.087,0.069-0.132,0.177-0.17,0.282c-0.467,1.302,0.371,2.266-1.232,3.03
					c-0.533,0.254-1.117,0.394-1.633,0.679C227.247,296.23,226.943,296.478,226.691,296.771z"/>
				<g>
					<path style="fill:#4b9f61;" d="M274.97,328.785c0,0,0.371-0.15,0.654-0.287c1.557-0.801,2.083-2.828,2.238-4.615
						c0.354-4.103-0.949-7.965-0.791-12.303c0.167-4.59,1.239-9.31,1.886-14.25c0.564-4.308,0.783-8.965-0.184-13.403
						c-0.723-3.315-1.714-6.999-3.738-9.587c-0.978-1.252-2.753-1.749-4.12-2.08c-1.708-0.414-3.495-0.374-5.201,0.14
						c-2.211,0.666-4.252,2.117-5.837,4.105c-1.205,1.512-1.803,4.079-2.418,6.002c-1.388,4.337-2.348,8.816-2.86,13.141
						c-0.537,4.538,0.117,3.085-0.116,7.547c-0.232,4.467,1.055,8.019-1.239,11.738c-1.207,1.957-2.743,3.661-3.509,5.789
						c-0.751,2.087-0.508,4.82,1.258,6.173c-0.101,0.794-0.222,1.583-0.294,2.369c3.552,1.727,8.255,2.102,12.051,2.445
						c3.47,0.314,6.964,0.327,10.447,0.047c1.01,0,1.787-0.211,1.787-0.211L274.97,328.785z"/>
					<path style="fill:none;stroke:#373B44;stroke-width:0.2856;stroke-linecap:round;stroke-miterlimit:10;" d="M274.767,328.846
						c-4.999,0.57-10.056,0.345-14.981-0.67"/>
				</g>
				<g>
					<path style="fill:#367cb5;" d="M264.492,286.811c-0.245-0.476-0.547-0.943-0.993-1.239c-0.475-0.315-1.07-0.402-1.64-0.377
						c-2.494,0.111-4.468,2.147-5.801,4.259c-1.333,2.111-2.359,4.497-4.259,6.117c-3.315,2.828-14.479,2.021-18.187,1.196
						c-1.934,0.173-4.145,2.729-3.005,5.389c4.971,2.184,19.961,10.155,25.388,7.571c1.892-0.9,3.3-2.466,4.462-4.241
						c0.671-1.025,1.261-2.121,1.813-3.198c1.237-2.413,2.424-4.887,2.992-7.539C265.832,292.097,265.735,289.22,264.492,286.811z"
						/>
					<path style="fill:#367cb5;" d="M266.699,277.833c-1.656-1.762-4.496-1.951-6.495-0.697c-1.169,0.733-1.763,2.248-2.366,3.449
						c-0.739,1.471-1.37,2.997-1.884,4.561c-0.532,1.618-0.939,3.274-1.438,4.903c-0.817,2.668-1.882,5.266-2.494,7.989
						c-0.612,2.723-0.746,5.647,0.278,8.243c1.463,3.708,6.343,1.738,8.517-0.325c1.872-1.777,2.77-4.32,3.604-6.763
						c0.838-2.454,1.675-4.907,2.513-7.361c0.707-2.071,1.517-4.811,1.663-7.464C268.732,281.916,268.301,279.539,266.699,277.833z"
						/>
					<path style="fill:none;stroke:#367cb5;stroke-miterlimit:10;" d="M253.392,294.398c0.914-5.483,3.533-11.913,6.132-16.826"/>
					<path style="fill:none;stroke:#367cb5;stroke-miterlimit:10;" d="M268.386,288.581c-1.071,2.881-2.141,5.762-3.212,8.644
						c-0.769,2.07-1.499,4.714-2.958,6.422c-1.452,1.7-2.806,3.559-4.587,4.957c-1.732,1.36-3.204,1.767-5.396,1.552"/>
					<path style="fill:none;stroke:#367cb5;stroke-miterlimit:10;" d="M269.551,289.346c-0.963,0.55-1.769,1.371-2.3,2.345"/>
				</g>
				<path style="fill:#373B44;" d="M235.985,288.087l-1.285,0.697l0.652-1.309l7.751-8.026c0.169-0.175,0.447-0.18,0.622-0.011l0,0
					c0.175,0.169,0.18,0.447,0.011,0.622L235.985,288.087z"/>
			</g>
			<path style="fill:#1F2326;" d="M261.079,260.958c-0.422-0.341-0.818-0.708-1.156-1.133c-2.15-2.7-0.758-5.688,0.964-8.091
				c1.918-2.677,5.573-4.143,8.795-3.963c1.839,0.103,3.587,0.697,4.891,2.026c0.604,0.615,1.05,1.27,1.24,2.127
				c0.057,0.255,0.238,2.264-0.176,2.305c3.176-0.314,3.016,6.595,2.986,8.486c-0.077,4.831-0.154,9.663-0.231,14.494
				c-0.028,1.741-0.103,3.62-1.181,4.986c-1.065,1.349-2.965,1.88-4.65,1.543c-1.685-0.338-3.148-1.443-4.185-2.813
				c-0.882-1.164-1.946-2.902-1.974-4.405c-0.031-1.687,0.198-3.427,0.192-5.132c-0.009-2.952-0.587-6.115-2.675-8.202
				C263.069,262.336,262.01,261.711,261.079,260.958z"/>
		</g>
		<g>
			<g>
				<g>
					<g>
						
							<rect x="422.786" y="361.18" transform="matrix(0.9928 -0.1197 0.1197 0.9928 -40.6189 53.6866)" style="fill:#ECB781;" width="7.448" height="7.448"/>
						<path style="fill:#37539A;" d="M463.268,434.261c-0.704,0-1.364-0.434-1.619-1.133l-45.052-123.373l-44.894,123.373
							c-0.326,0.894-1.314,1.354-2.209,1.029c-0.894-0.325-1.355-1.315-1.029-2.209l46.513-127.819
							c0.248-0.68,0.894-1.133,1.619-1.133s1.371,0.453,1.619,1.133l46.671,127.819c0.327,0.894-0.135,1.884-1.029,2.209
							C463.663,434.228,463.464,434.261,463.268,434.261z"/>
						<path style="fill:#37539A;" d="M422.191,321.803H396.66c-0.951,0-1.723-0.772-1.723-1.723c0-0.952,0.772-1.723,1.723-1.723
							h25.531c0.951,0,1.723,0.772,1.723,1.723C423.914,321.032,423.142,321.803,422.191,321.803z"/>
						<path style="fill:#37539A;" d="M428.764,340.591h-24.333c-0.951,0-1.723-0.772-1.723-1.723c0-0.951,0.772-1.723,1.723-1.723
							h24.333c0.951,0,1.723,0.772,1.723,1.723C430.487,339.819,429.715,340.591,428.764,340.591z"/>
						<path style="fill:#37539A;" d="M401.746,340.591h-23.307c-0.911,0-1.651-0.772-1.651-1.723c0-0.951,0.739-1.723,1.651-1.723
							h23.307c0.911,0,1.651,0.772,1.651,1.723C403.396,339.819,402.657,340.591,401.746,340.591z"/>
						<path style="fill:#37539A;" d="M435.335,359.379h-24.333c-0.951,0-1.723-0.772-1.723-1.723c0-0.952,0.772-1.723,1.723-1.723
							h24.333c0.951,0,1.723,0.772,1.723,1.723C437.059,358.608,436.287,359.379,435.335,359.379z"/>
						<path style="fill:#37539A;" d="M396.66,359.379h-24.333c-0.951,0-1.723-0.772-1.723-1.723c0-0.952,0.772-1.723,1.723-1.723
							h24.333c0.952,0,1.723,0.772,1.723,1.723C398.383,358.608,397.611,359.379,396.66,359.379z"/>
						<path style="fill:#37539A;" d="M441.907,378.166h-24.333c-0.952,0-1.723-0.772-1.723-1.723c0-0.951,0.772-1.723,1.723-1.723
							h24.333c0.951,0,1.723,0.772,1.723,1.723C443.63,377.394,442.858,378.166,441.907,378.166z"/>
						<g id="POLYLINE_1062_">
							<path d="M420.187,366.427c-1.296,1.431-2.398,3.078-4.026,4.154c-0.791,0.523-0.969,1.033-1.646,1.698
								c4.359,1.127,8.909,1.51,13.395,1.127c1.293-0.111,2.743-0.379,3.466-1.456c0.703-1.048,0.44-2.443,0.151-3.672
								c-0.26-1.104-0.613-2.335-1.609-2.879c-0.467-0.255-1.012-0.317-1.542-0.353C425.633,364.858,422.032,364.39,420.187,366.427
								z"/>
						</g>
						<g id="POLYLINE_1060_">
							<path d="M431.684,375.448c-0.447,0.197-1.004,0.274-1.62,0.291c-4.61,0.123-9.285,0.105-13.897,0.056
								c-1.416-0.015-2.84-0.022-4.252-0.154c-0.601-0.057-1.299-0.131-1.793-0.519c-0.748-0.588-0.698-1.655-0.054-2.296
								c0.908-0.904,4.785-2.946,6.059-2.199c0.169,0.099,0.298,0.254,0.448,0.382c0.365,0.312,0.841,0.456,1.307,0.571
								c2.343,0.579,4.76,0.596,7.131,0.187c1.482-0.255,2.392-0.167,3.652-0.989c0.447-0.291,3.245-1.881,2.998-2.588
								c0.618,1.766,1.101,3.483,1.107,5.375C432.774,374.591,432.353,375.153,431.684,375.448z"/>
						</g>
						<path style="fill:#37539A;" d="M389.506,378.166h-24.332c-0.952,0-1.723-0.772-1.723-1.723c0-0.951,0.772-1.723,1.723-1.723
							h24.332c0.951,0,1.723,0.772,1.723,1.723C391.229,377.394,390.457,378.166,389.506,378.166z"/>
						<path style="fill:#37539A;" d="M448.478,396.954h-24.333c-0.951,0-1.723-0.772-1.723-1.723s0.772-1.723,1.723-1.723h24.333
							c0.952,0,1.723,0.772,1.723,1.723S449.43,396.954,448.478,396.954z"/>
						<path style="fill:#37539A;" d="M382.906,396.954h-24.333c-0.952,0-1.723-0.772-1.723-1.723s0.772-1.723,1.723-1.723h24.333
							c0.951,0,1.723,0.772,1.723,1.723S383.858,396.954,382.906,396.954z"/>
						<path style="fill:#37539A;" d="M455.05,415.742h-24.332c-0.951,0-1.723-0.772-1.723-1.723c0-0.951,0.772-1.723,1.723-1.723
							h24.332c0.951,0,1.723,0.772,1.723,1.723C456.774,414.97,456.001,415.742,455.05,415.742z"/>
						<path style="fill:#37539A;" d="M376.141,415.742h-24.333c-0.951,0-1.723-0.772-1.723-1.723c0-0.951,0.772-1.723,1.723-1.723
							h24.333c0.952,0,1.723,0.772,1.723,1.723C377.864,414.97,377.092,415.742,376.141,415.742z"/>
						<path style="fill:#37539A;" d="M416.471,306.442H390.94c-0.951,0-1.723-0.772-1.723-1.723c0-0.952,0.772-1.723,1.723-1.723
							h25.531c0.952,0,1.723,0.772,1.723,1.723C418.194,305.67,417.423,306.442,416.471,306.442z"/>
					</g>
					<path style="fill:#60A2F4;" d="M437.207,434.121c-0.703,0-1.364-0.434-1.619-1.133l-44.884-123.233l-45,123.373
						c-0.327,0.894-1.316,1.354-2.209,1.029c-0.894-0.325-1.355-1.315-1.029-2.209l46.619-127.819
						c0.248-0.68,0.894-1.133,1.619-1.133c0.725,0,1.371,0.453,1.619,1.133l46.503,127.679c0.327,0.894-0.135,1.884-1.029,2.209
						C437.602,434.087,437.403,434.121,437.207,434.121z"/>
				</g>
			</g>
			<g>
				<polygon style="fill:#D36D11;" points="420.843,233.639 409.86,219.555 418.649,210.638 432.576,223.885 				"/>
				<g>
					<rect x="434.235" y="361.18" style="fill:#ECB781;" width="7.448" height="7.448"/>
					<g id="POLYLINE_1_">
						<path d="M433.244,367.232c-0.296,0.391-0.595,0.811-0.93,1.244c-0.769,0.993-1.924,1.855-3.156,2.168
							c-1.39,0.352-1.582,0.589-2.648,1.636c4.359,1.127,8.909,1.51,13.395,1.127c1.811-0.155,3.591-0.599,3.176-2.807
							c-0.179-0.951-0.357-1.901-0.536-2.852c-0.135-0.72-0.271-1.44-0.406-2.16c-0.168-0.895-4.242-0.783-4.927-0.752
							C435.173,364.93,434.233,365.922,433.244,367.232z"/>
					</g>
					<g id="POLYLINE_1066_">
						<path d="M435.925,375.786c-2.977,0-5.907-0.016-8.874-0.245c-0.841-0.889-0.245-2.463,0.801-3.1
							c1.045-0.637,2.336-0.65,3.551-0.799c2.109-0.259,4.159-0.988,5.958-2.119c1.02-0.641,1.993-1.424,3.164-1.709
							c3.392-0.823,3.218,2.922,3.109,5.185c-0.032,0.673-0.04,1.569-0.542,2.098c-0.595,0.626-1.717,0.637-2.507,0.672
							C439.035,375.837,437.475,375.79,435.925,375.786z"/>
					</g>
					<path style="fill:#304573;" d="M422.422,283.019c0,0,0.986,23.325,6.337,35.056c5.351,11.73,4.012,44.785,4.012,44.785h10.359
						c0,0,0.415-32.813-0.356-40.465c-0.77-7.651-2.384-40.288-2.384-40.288L422.422,283.019z"/>
					<path style="fill:#344B7E;" d="M417.896,285.645c0,0-5.827,32.934-3.272,40.36c2.555,7.426,6.548,36.855,6.548,36.855
						l9.688-1.305c0,0-4.698-39.569-4.821-41.294c-0.123-1.725,16.372-39.706,16.372-39.706L417.896,285.645z"/>
					<path style="fill:#304573;" d="M428.025,286.887c-4.155,0.709-7.773,3.159-11.247,5.548c1.336-5.746,2.672-11.492,4.008-17.237
						c0.075-0.322,14.272-2.019,15.334-1.491c3.505,1.743,3.906,10.296,4.62,14.044C436.532,288.183,432.25,286.166,428.025,286.887
						z"/>
					<path style="fill:#ECB781;" d="M418.087,207.733l-1.627,3.071c-0.407,0.768,0.15,1.693,1.019,1.693h1.529L418.087,207.733z"/>
					<g id="POLYLINE_1068_">
						<path style="fill:#ECB781;" d="M417.749,206.611c-0.11-2.362-0.539-6.251,1.494-8.015c1.822-1.58,5.139-1.02,6.984,0.13
							c2.079,1.296,3.453,3.51,4.21,5.84c0.757,2.33,0.96,4.798,1.158,7.239c0.327,4.026,0.654,8.053,0.981,12.079
							c-0.066-0.811-6.084,3.008-6.517,3.49c-0.843-0.651-2.267-0.433-3.341-0.486c1.005-2.161,0.876-4.691,0.414-7.017
							c-0.077-0.386-0.186-0.796-0.488-1.048c-0.399-0.333-0.978-0.275-1.494-0.34C416.773,217.934,417.877,209.35,417.749,206.611z
							"/>
					</g>
					<g id="POLYLINE_1053_">
						<path style="fill:#367cb5;" d="M416.727,232.944c-1.185,3.878-1.126,7.923-1.922,11.865
							c-0.513,2.541,2.086,13.199,2.169,16.704c0.021,0.9-0.394,1.743-0.7,2.59c-1.426,3.944-0.959,8.207-0.717,12.298
							c0.149,2.514-1.854,9.45,0.332,11.225c1.382,1.122,9.754-1.306,11.742-1.51c5.018-0.514,9.467,0.119,14.36,1.026
							c2.422-5.996,0.362-10.723-0.506-16.958c-1.002-7.194-1.117-14.512-0.326-21.733c0.601-5.484,1.712-11.078,0.468-16.453
							c-0.795-3.435-1.866-6.662-5.646-7.775c-0.09-0.964-0.181-1.928-0.271-2.892c-4.411-1.313-9.213-1.286-13.609,0.079
							c0.306-0.095-0.146,3.206-0.291,3.528c-0.438,0.969-1.262,1.536-1.982,2.314C418.324,228.876,417.372,230.834,416.727,232.944
							z"/>
					</g>
					<path style="fill:#367cb5;" d="M423.8,228.075c-0.277,7.431,0.961,13.138-1.815,20.037c-0.869,2.158-3.335,10.826-5.206,9.443
						c-0.537-0.395-2.67-10.487-2.039-11.924C416.655,241.274,421.003,231.992,423.8,228.075z"/>
					<g id="POLYLINE_1059_">
						<path style="fill:#1F2326;" d="M414.573,193.97c0.186,0.179,0.083,1.924,0.145,2.275c0.021,0.124,0.041,0.248,0.076,0.366
							c0.145,0.793,0.386,1.558,0.71,2.296c0.055,0.124,0.11,0.241,0.166,0.345c0.786,1.482,1.717,1.221,3.448,1.579
							c1.717,0.359,2.82,2,3.731,3.503c0.31,0.517,0.628,1.034,0.917,1.565c0.621,1.103,1.152,2.248,1.414,3.482
							c0.779-0.352,1.889-1.283,2.6-0.497c1.614,1.786-0.531,2.848-1.924,3.227c0.283,0,0.883,4.02,1.393,4.303
							c0.228,0.131,0.496,0.159,0.752,0.186c0.938,0.103,1.876,0.2,2.807,0.303c0.614,0.062,1.241,0.124,1.834-0.035
							c2.179-0.593,4.503-4.365,5.365-6.275c0.565-1.255,0.924-2.606,1.069-3.979c0.172-1.717,0.021-3.476-0.49-5.131
							c-0.283-0.924-0.683-1.834-1.345-2.538c-0.365-0.386-0.814-0.703-1.31-0.89c-0.4-0.152-0.834-0.221-1.269-0.172
							c0.765-4.861-8.006-5.641-11.054-4.751c-1.531,0.448-2.958,1.234-4.51,1.62C417.552,195.15,415.738,195.067,414.573,193.97z"
							/>
					</g>
					<path style="fill:#1F2326;" d="M414.794,196.611c0.145,0.793,0.386,1.558,0.71,2.296c0.055,0.124,0.11,0.241,0.166,0.345
						c0.786,1.482,1.717,1.221,3.448,1.579c1.717,0.359,2.82,2,3.731,3.503c0.31,0.517,0.628,1.034,0.917,1.565
						c5.055,1.138,10.275,1.524,15.309,0.717c0.172-1.717,0.021-3.476-0.49-5.131c-0.283-0.924-0.683-1.834-1.345-2.538
						c-0.365-0.386-0.814-0.703-1.31-0.89C429.02,200.135,421.331,199.687,414.794,196.611z"/>
					<g id="POLYLINE_1056_">
						<path style="fill:#ECB781;" d="M400.456,238.342c-2.715,0.314-5.523,0.21-8.214,0.583c-2.944,0.408-5.523,1.234-8.569,1.016
							c-1.304-0.093-2.648-0.318-3.731-1.05c-2.071-1.4-2.915-4.315-5.494-5.088c-2.237-0.671-6.97,0.889-9.063,1.639
							c0.041,1.147,2.749,1.01,3.83,1.396c0.086,0.031-0.607,1.809,0.286,3.145c0.541,0.809,5.094,3.57,4.251,1.5
							c0.619,1.52,6.541,3.028,7.924,3.355c3.689,0.873,7.401,1.682,11.166,2.148c7.053,0.874,13.01-0.5,11.912-9.245
							C403.35,237.973,401.913,238.173,400.456,238.342z"/>
					</g>
					<g>
						<path style="fill:#1F2326;" d="M418.797,205.785c0,0.561,0.313,1.015,0.699,1.015s0.699-0.454,0.699-1.015
							s-0.313-1.015-0.699-1.015S418.797,205.224,418.797,205.785z"/>
						<path style="fill:none;stroke:#1F2326;stroke-width:0.3375;stroke-linecap:round;stroke-miterlimit:10;" d="M418.396,204.016
							c0,0,0.985-0.844,2.447,0.225"/>
						<path style="fill:none;stroke:#1F2326;stroke-width:0.3375;stroke-linecap:round;stroke-miterlimit:10;" d="M421.124,213.551
							c0,0-2.456,1.4-3.127,0.798"/>
					</g>
					<path style="fill:#367cb5;" d="M421.809,224.937c0,0,0.104-1.007-5.485,1.243c-5.589,2.25-15.964,11.192-16.464,10.596
						s0,11.336,0,11.336s19.269-2.932,19.759-3.682c0.491-0.75,4.689-18.75,4.689-18.75L421.809,224.937z"/>
				</g>
				<path style="fill:#ECB781;" d="M417.48,212.495l-6.05,5.46l-12.13-18.59l-2.3-4.14c-0.18-0.16-0.39-0.41-0.64-0.79
					c-1.37-2.11-8.42-2.8-9.08-4.21c-0.67-1.42,2.41-0.67,1.39-1.5c-1.03-0.84-6.23-1.17-3.56-4.5c2.02-2.53,5.06-0.14,6.42,1.16
					c0.29,0.29,0.5,0.52,0.61,0.64c0.05,0.06,0.08,0.09,0.08,0.09L417.48,212.495z"/>
			</g>
		</g>
	</g>
	<g>
		<g>
			<g>
				<polygon style="fill:#7B8FDA;" points="35.185,236.18 50.565,212.93 65.935,236.18 58.435,236.18 58.435,254.68 42.685,254.68 
					42.685,236.18 				"/>
				<polygon style="fill:#60A2F4;" points="444.454,151.055 459.834,127.805 475.204,151.055 467.704,151.055 467.704,169.555 
					451.954,169.555 451.954,151.055 				"/>
				<polygon style="fill:#96AFE4;" points="465.972,234.358 477.407,217.072 488.834,234.358 483.258,234.358 483.258,248.112 
					471.548,248.112 471.548,234.358 				"/>
				<polygon style="fill:#FFFFFF;" points="322.982,119.406 334.417,102.121 345.843,119.406 340.267,119.406 340.267,133.16 
					328.558,133.16 328.558,119.406 				"/>
				<polygon style="fill:#F99595;" points="69.294,134.926 80.728,117.641 92.155,134.926 86.579,134.926 86.579,148.68 
					74.87,148.68 74.87,134.926 				"/>
			</g>
			<g>
				<path style="fill:#B1DCFB;" d="M431.988,125.004l-30.41,0.065c-2.022,0.003-3.663-1.634-3.665-3.656l0,0
					c-0.003-2.021,1.634-3.663,3.655-3.665l30.41-0.066c2.022-0.003,3.663,1.634,3.665,3.656l0,0
					C435.647,123.36,434.01,125.002,431.988,125.004z"/>
				<path style="fill:#B1DCFB;" d="M260.272,92.656l-62.19,0.066c-2.021,0.003-3.663-1.634-3.665-3.656l0,0
					c-0.003-2.021,1.634-3.663,3.655-3.666l62.19-0.066c2.021-0.003,3.663,1.634,3.665,3.656l0,0
					C263.931,91.012,262.294,92.654,260.272,92.656z"/>
				<path style="fill:#B1DCFB;" d="M53.47,184.333l-5.804,0.008c-1.525,0.002-2.763-1.232-2.765-2.757l-0.008-5.448
					c-0.002-1.525,1.233-2.763,2.758-2.765l5.804-0.008c1.525-0.002,2.763,1.232,2.765,2.757l0.008,5.448
					C56.229,183.094,54.995,184.331,53.47,184.333z"/>
				<path style="fill:#FFFFFF;" d="M467.548,280.476l-5.099,0.007c-1.34,0.002-2.427-1.083-2.429-2.422l-0.007-4.787
					c-0.002-1.34,1.083-2.427,2.422-2.429l5.099-0.007c1.34-0.002,2.427,1.083,2.429,2.423l0.007,4.786
					C469.972,279.387,468.887,280.474,467.548,280.476z"/>
				<path style="fill:#FFFFFF;" d="M180.911,136.529h-30.297c-1.991,0-3.605-1.614-3.605-3.604l0,0c0-1.991,1.614-3.605,3.605-3.605
					h30.297c1.991,0,3.604,1.614,3.604,3.605l0,0C184.516,134.916,182.902,136.529,180.911,136.529z"/>
				<path style="fill:#60A2F4;" d="M59.8,292.951H29.504c-1.991,0-3.605-1.614-3.605-3.604l0,0c0-1.991,1.614-3.605,3.605-3.605
					H59.8c1.991,0,3.604,1.614,3.604,3.605l0,0C63.405,291.337,61.791,292.951,59.8,292.951z"/>
			</g>
		</g>
		<g>
			<g>
				<g>
					<g>
						<g>
							<path style="fill:#60A2F4;" d="M296.74,142.879h-33.425c-2.957,0-5.355-2.397-5.355-5.355V108.87
								c0-2.308,1.871-4.178,4.178-4.178h34.602c2.308,0,4.178,1.871,4.178,4.178v29.831
								C300.918,141.008,299.047,142.879,296.74,142.879z"/>
						</g>
					</g>
				</g>
				<g>
					<g>
						<g>
							<path style="fill:#F9F9F9;" d="M275.893,132.021c3.644,0.062,7.334,0.112,10.685-0.12c1.061-0.074,1.978-1.759,0.689-2.291
								c0.542-0.278,1.091-0.546,1.328-1.154c0.224-0.576-0.045-1.356-0.645-1.505c1.264,0.313,1.762-1.693,0.776-2.34
								c0.522-0.444,0.956-1.032,1.066-1.709c0.11-0.677-0.167-1.44-0.769-1.768c-0.395-0.215-0.865-0.223-1.314-0.227
								c-1.516-0.011-3.031-0.023-4.547-0.034c0.41-2.372,0.534-4.956-0.672-7.039c-0.363-0.628-1.338-1.38-2.112-0.897
								c-0.726,0.453-0.524,1.578-0.488,2.287c0.152,2.95-1.527,5.918-4.133,7.308C275.758,122.532,275.93,128.816,275.893,132.021z
								"/>
						</g>
					</g>
					<rect x="269.063" y="122.532" style="fill:#F9F9F9;" width="5.508" height="9.481"/>
				</g>
			</g>
			<g>
				<path style="fill:#F99595;" d="M180.173,125.276h-28.82c-2.891,0-5.235-2.344-5.235-5.235V97.957
					c0-2.891,2.344-5.235,5.235-5.235h28.82c2.891,0,5.235,2.344,5.235,5.235v22.084
					C185.408,122.932,183.064,125.276,180.173,125.276z"/>
				<g>
					<rect x="152.51" y="111.548" style="fill:#F7F7F7;" width="4.696" height="6.179"/>
					<rect x="159.78" y="107.345" style="fill:#F7F7F7;" width="4.696" height="10.382"/>
					<rect x="167.05" y="104.133" style="fill:#F7F7F7;" width="4.696" height="13.594"/>
					<rect x="174.319" y="99.313" style="fill:#F7F7F7;" width="4.696" height="18.414"/>
				</g>
			</g>
			<g>
				<path style="fill:#FF901B;" d="M404.117,111.054l27.485,0.192c3.448,0.024,6.263-2.752,6.288-6.2l0.188-26.968
					c0.024-3.448-2.752-6.263-6.2-6.287l-27.485-0.192c-3.448-0.024-6.263,2.752-6.287,6.2l-0.189,26.968
					C397.893,108.215,400.669,111.03,404.117,111.054z"/>
				<path style="fill:#FFFFFF;" d="M403.488,90.748l-0.008,1.13c-0.005,0.499,0.352,0.929,0.843,1.017l1.332,0.243
					c0.152,0.582,0.38,1.143,0.677,1.666l-0.785,1.112c-0.289,0.405-0.244,0.96,0.106,1.314l0.793,0.804
					c0.349,0.355,0.903,0.407,1.312,0.124l1.089-0.753c0.519,0.305,1.076,0.54,1.656,0.7l0.224,1.331
					c0.082,0.492,0.506,0.854,1.005,0.857l1.147,0.008c0.499,0.005,0.929-0.351,1.017-0.843l0.243-1.328
					c0.582-0.152,1.142-0.379,1.666-0.677l1.103,0.785c0.405,0.289,0.96,0.244,1.314-0.106l0.804-0.793
					c0.355-0.349,0.407-0.903,0.124-1.312l-0.77-1.114c0.305-0.519,0.54-1.076,0.7-1.656l1.332-0.225
					c0.492-0.081,0.854-0.506,0.857-1.005l0.008-1.13c0.004-0.499-0.351-0.929-0.843-1.017l-1.328-0.243
					c-0.152-0.582-0.379-1.142-0.676-1.666l0.785-1.103c0.289-0.405,0.244-0.959-0.105-1.314l-0.793-0.804
					c-0.349-0.355-0.903-0.407-1.312-0.124l-1.11,0.736c-0.519-0.304-1.076-0.54-1.656-0.7l-0.224-1.331
					c-0.081-0.492-0.506-0.854-1.005-0.857l-1.151-0.008c-0.491,0.006-0.909,0.359-0.996,0.843l-0.239,1.362
					c-0.582,0.152-1.143,0.379-1.666,0.677l-1.103-0.785c-0.4-0.294-0.954-0.259-1.314,0.084l-0.804,0.793
					c-0.355,0.349-0.407,0.903-0.124,1.312l0.77,1.114c-0.305,0.519-0.54,1.076-0.7,1.656l-1.336,0.224
					C403.854,89.828,403.493,90.25,403.488,90.748z M409.33,91.371c0-0.006,0-0.011,0-0.017c0.012-1.685,1.387-3.041,3.072-3.029
					c1.685,0.012,3.041,1.387,3.029,3.072s-1.387,3.041-3.072,3.029C410.681,94.414,409.328,93.049,409.33,91.371z"/>
				<path style="fill:#FFFFFF;" d="M421.46,98.031l-0.004,0.565c-0.002,0.25,0.176,0.464,0.421,0.509l0.666,0.121
					c0.076,0.291,0.19,0.571,0.338,0.833l-0.393,0.556c-0.144,0.203-0.122,0.48,0.053,0.657l0.397,0.402
					c0.175,0.177,0.451,0.203,0.656,0.062l0.544-0.376c0.26,0.152,0.538,0.27,0.828,0.35l0.112,0.666
					c0.041,0.246,0.253,0.427,0.503,0.428l0.574,0.004c0.25,0.002,0.464-0.176,0.509-0.421l0.121-0.664
					c0.291-0.076,0.571-0.19,0.833-0.338l0.552,0.393c0.203,0.144,0.48,0.122,0.657-0.053l0.402-0.397
					c0.177-0.174,0.203-0.451,0.062-0.656l-0.385-0.557c0.152-0.26,0.27-0.538,0.35-0.828l0.666-0.112
					c0.246-0.041,0.427-0.253,0.428-0.503l0.004-0.565c0.002-0.25-0.176-0.464-0.421-0.508l-0.664-0.122
					c-0.076-0.291-0.19-0.571-0.338-0.833l0.393-0.552c0.144-0.203,0.122-0.48-0.053-0.657l-0.397-0.402
					c-0.175-0.177-0.451-0.203-0.656-0.062l-0.555,0.368c-0.26-0.152-0.538-0.27-0.828-0.35l-0.112-0.666
					c-0.041-0.246-0.253-0.427-0.503-0.428l-0.576-0.004c-0.246,0.003-0.454,0.18-0.498,0.421l-0.12,0.681
					c-0.291,0.076-0.571,0.19-0.833,0.338l-0.552-0.393c-0.2-0.147-0.477-0.129-0.657,0.042l-0.402,0.396
					c-0.177,0.175-0.203,0.451-0.062,0.656l0.385,0.557c-0.152,0.26-0.27,0.538-0.35,0.828l-0.668,0.112
					C421.643,97.572,421.462,97.783,421.46,98.031z M424.381,98.343c0-0.003,0-0.006,0-0.008c0.006-0.842,0.694-1.52,1.536-1.515
					c0.842,0.006,1.52,0.693,1.515,1.536c-0.006,0.842-0.693,1.521-1.536,1.515C425.056,99.864,424.379,99.182,424.381,98.343z"/>
				<path style="fill:#FFFFFF;" d="M420.423,82.925l-0.005,0.72c-0.003,0.318,0.224,0.592,0.537,0.648l0.849,0.155
					c0.097,0.371,0.242,0.728,0.431,1.061l-0.5,0.708c-0.184,0.258-0.156,0.611,0.067,0.837l0.505,0.512
					c0.222,0.226,0.575,0.259,0.836,0.079l0.693-0.48c0.331,0.194,0.686,0.344,1.055,0.446l0.143,0.848
					c0.052,0.314,0.322,0.544,0.64,0.546l0.731,0.005c0.318,0.003,0.592-0.224,0.648-0.537l0.155-0.846
					c0.371-0.097,0.728-0.242,1.061-0.431l0.703,0.5c0.258,0.184,0.611,0.156,0.837-0.067l0.512-0.505
					c0.226-0.222,0.259-0.575,0.079-0.836l-0.49-0.71c0.194-0.331,0.344-0.686,0.446-1.055l0.848-0.143
					c0.314-0.052,0.544-0.322,0.546-0.64l0.005-0.72c0.003-0.318-0.224-0.592-0.537-0.648l-0.846-0.155
					c-0.097-0.371-0.242-0.728-0.431-1.061l0.5-0.703c0.184-0.258,0.156-0.611-0.067-0.837l-0.505-0.512
					c-0.223-0.226-0.575-0.259-0.836-0.079l-0.707,0.469c-0.331-0.194-0.685-0.344-1.055-0.446l-0.143-0.848
					c-0.052-0.314-0.322-0.544-0.64-0.546l-0.733-0.005c-0.313,0.004-0.579,0.229-0.634,0.537l-0.152,0.868
					c-0.371,0.097-0.728,0.242-1.061,0.431l-0.703-0.5c-0.255-0.187-0.608-0.165-0.837,0.054l-0.512,0.505
					c-0.226,0.222-0.259,0.575-0.079,0.836l0.49,0.71c-0.194,0.331-0.344,0.686-0.446,1.055l-0.851,0.143
					C420.656,82.339,420.426,82.608,420.423,82.925z M424.144,83.322c0-0.004,0-0.007,0-0.011c0.007-1.073,0.884-1.937,1.957-1.93
					c1.073,0.007,1.937,0.883,1.93,1.957c-0.008,1.073-0.884,1.937-1.957,1.93C425.005,85.26,424.143,84.391,424.144,83.322z"/>
			</g>
			<g>
				<circle style="fill:#DD9E10;" cx="300.918" cy="232.592" r="20.234"/>
				
					<ellipse transform="matrix(0.649 -0.7608 0.7608 0.649 -71.3347 310.5581)" style="fill:#F4B516;" cx="300.918" cy="232.592" rx="16.434" ry="16.434"/>
				<g>
					<path style="fill:#F7F7F7;" d="M302.226,241.117v2.824h-2.521v-2.749c-2.496-0.151-4.892-0.933-6.279-2.017l1.387-3.076
						c1.26,0.933,3.076,1.614,4.892,1.79v-4.211c-2.799-0.681-5.926-1.614-5.926-5.219c0-2.673,1.942-4.968,5.926-5.421v-2.799
						h2.521v2.749c1.891,0.151,3.732,0.656,5.119,1.538l-1.261,3.101c-1.286-0.731-2.597-1.16-3.858-1.311v4.286
						c2.799,0.656,5.875,1.589,5.875,5.144C308.101,238.368,306.185,240.638,302.226,241.117z M299.704,229.971v-3.58
						c-1.336,0.302-1.866,1.034-1.866,1.866C297.838,229.139,298.595,229.618,299.704,229.971z M304.041,236.048
						c0-0.883-0.731-1.362-1.815-1.74v3.48C303.486,237.511,304.041,236.855,304.041,236.048z"/>
				</g>
			</g>
		</g>
	</g>
	<g>
		<g>
			<g>
				<g>
					<path style="fill:#367cb5;" d="M44.652,377.658c0,0-9.071-2.865-17.134-7.13l-0.417-3.357l-2.632,1.633
						c-6.222-3.757-10.903-8.33-8.546-12.919c2.399-4.656,7.771-5.514,13.236-3.199l0.4,4.073l2.715-2.415
						C38.513,358.375,44.127,366.471,44.652,377.658z"/>
					<path style="fill:none;stroke:#080808;stroke-width:0.833;stroke-miterlimit:10;" d="M17.659,356.756
						c0,0,23.67,2.568,30.125,30.056"/>
				</g>
				<g>
					<path style="fill:#367cb5;" d="M49.608,366.513c0,0-8.388-9.995-18.883-21.199l1.999-4.939c0,0-3.215,0.366-5.856,0.716
						c-9.146-11.02-4.581-18.75-2.616-20.915c1.741-1.916,10.729-7.014,19.924,2.007l-0.558,4.865h4.54
						c0.491,0.716,0.975,1.474,1.449,2.291C60.378,347.663,49.608,366.513,49.608,366.513z"/>
					<path style="fill:none;stroke:#080808;stroke-width:0.833;stroke-miterlimit:10;" d="M26.544,320.175
						c0,0,20.685,16.173,22.351,36.581c1.666,20.407,1.713,34.845,1.713,34.845"/>
				</g>
				<g>
					<path style="fill:#367cb5;" d="M74.73,360.199l-3.074-0.525l0.833,2.424c-11.361,9.404-12.719,8.438-17.292,14.318
						c0,0-5.173-18.85,6.514-29.437l3.424,1.166l-0.45-3.44C79.203,335.36,86.733,349.42,74.73,360.199z"/>
					<path style="fill:none;stroke:#080808;stroke-width:0.833;stroke-miterlimit:10;" d="M77.978,344.956
						c0,0-22.49,8.954-24.364,43.105"/>
				</g>
			</g>
			<g>
				<path style="fill:#070707;" d="M71.106,383.13h-41.09c0,0-1.816,15.701,1.799,28.804v18.092c0,1.741,1.016,3.349,2.591,4.09
					c0.808,0.383,1.566,0.575,2.266,0.575c0.683,0,1.308-0.183,1.849-0.542c1.558-1.033,2.466-3.507,2.715-7.388
					c2.532,1.633,5.606,2.59,9.321,2.599c4.315,0.008,7.771-1.224,10.537-3.298c0.183,4.281,1.108,6.989,2.749,8.088
					c0.55,0.358,1.175,0.542,1.849,0.542c0.708,0,1.466-0.192,2.274-0.575c1.566-0.741,2.582-2.349,2.582-4.09v-22.598h-0.025
					C72.664,395.491,71.106,383.13,71.106,383.13z M38.063,433.457c-0.858,0.566-1.974,0.541-3.299-0.092
					c-1.283-0.608-2.116-1.924-2.116-3.34v-15.418c1.641,4.723,4.115,8.913,7.788,11.595
					C40.212,430.942,39.079,432.782,38.063,433.457z M69.715,430.025c0,1.416-0.825,2.732-2.107,3.34
					c-1.333,0.633-2.441,0.658-3.307,0.092c-1.075-0.716-2.266-2.715-2.391-8.055c3.965-3.382,6.372-8.579,7.805-14.194V430.025z"/>
				<rect x="27.793" y="379.662" style="fill:#2A2832;" width="45.535" height="6.941"/>
			</g>
		</g>
		<g>
			<g>
				<g>
					<path style="fill:#60A2F4;" d="M456.638,378.865c0,0-3.608-4.279-11.542-9.733v-2.499l-1.753,1.221
						c-6.517-5.165-6.209-10.33,0.158-11.057c1.818-0.205,3.571,0.056,5.165,0.876l-0.149,2.433l2.601-0.597
						C454.223,362.707,456.368,368.851,456.638,378.865z"/>
					<path style="fill:#60A2F4;" d="M481.261,352.293c-0.737,1.044-1.874,2.219-3.245,3.468l-3.795-1.137l0.597,3.813
						c-6.853,5.389-15.98,10.89-15.98,10.89c-0.41-9.286,1.426-20.39,9.417-25.257l2.797,1.343l-0.867-2.349
						c0.578-0.252,1.193-0.476,1.827-0.671C483.2,339.008,485.652,346.121,481.261,352.293z"/>
					<path style="fill:#60A2F4;" d="M456.442,348.247c0,0-6.246-3.105-11.346-7.254v-3.039l-2.135,1.175
						c-3.245-3.105-5.38-6.573-3.813-9.678c1.771-3.506,5.753-3.776,9.491-1.538l0.159,2.937l2.2-1.147
						C454.895,333.339,457.831,339.856,456.442,348.247z"/>
					<path style="fill:#60A2F4;" d="M479.76,335.25l-3.785-1.138v2.592c-6.088,2.191-13.565,4.335-13.565,4.335
						c1.352-7.076,4.634-13.425,11.365-15.467l1.501,1.436l1.016-1.977c0.466-0.065,0.942-0.103,1.436-0.131
						C487.134,324.435,485.885,332.658,479.76,335.25z"/>
					<path style="fill:#60A2F4;" d="M459.593,332.966c0,0-6.414-7.132-13.966-14.656l1.054-3.851l-4.037,0.923
						c-0.075-0.075-0.158-0.149-0.233-0.224c-8.857-8.549-4.494-20.204,8.708-15.076c1.249,0.485,2.359,1.082,3.347,1.79
						l-0.475,3.263l3.263-0.699C463.546,311.979,461.887,325.19,459.593,332.966z"/>
					<path style="fill:#60A2F4;" d="M484.57,312.315c-0.662,1.426-1.799,2.806-3.216,4.093l-3.515,0.382l0.364,2.098
						c-5.836,4.037-13.211,6.769-13.211,6.769s0.149-10.768,7.365-17.649c0.103-0.103,0.205-0.196,0.308-0.28l2.918,0.979
						l-0.252-2.927C481.652,302.236,487.517,305.975,484.57,312.315z"/>
				</g>
				<g>
					<path style="fill:#070707;" d="M475.275,380.38h-36.128l5.827,37.147v13.781c0,0.048,0.01,1.195,0.895,2.018
						c0.569,0.528,1.349,0.795,2.323,0.795c0.139,0,0.282-0.006,0.429-0.016c2.964-0.22,2.86-6.043,2.776-10.722
						c-0.009-0.483-0.016-0.951-0.021-1.398h13.693c-0.005,0.447-0.012,0.915-0.021,1.398c-0.083,4.679-0.187,10.501,2.777,10.722
						c0.147,0.011,0.29,0.016,0.429,0.016c0.974,0,1.754-0.267,2.323-0.795c0.885-0.822,0.895-1.969,0.895-2.018v-13.224
						L475.275,380.38z M450.466,423.399c0.069,3.831,0.172,9.621-1.913,9.775c-0.897,0.067-1.588-0.109-2.04-0.524
						c-0.589-0.54-0.605-1.336-0.605-1.341v-9.323h4.538C450.449,422.437,450.457,422.91,450.466,423.399z M469.943,432.643
						c-0.452,0.42-1.142,0.595-2.048,0.531c-2.085-0.154-1.982-5.944-1.913-9.775c0.009-0.488,0.017-0.961,0.021-1.414h4.538v9.323
						C470.541,431.316,470.524,432.103,469.943,432.643z"/>
					<rect x="437.05" y="377.466" style="fill:#252728;" width="40.09" height="5.827"/>
				</g>
			</g>
			<g>
				<path style="fill:none;stroke:#252728;stroke-width:0.9323;stroke-miterlimit:10;" d="M483.433,308.008
					c0,0-24.94,10.256-26.222,46.616c-1.282,36.361,0,41.955,0,41.955"/>
				<path style="fill:none;stroke:#252728;stroke-width:0.9323;stroke-miterlimit:10;" d="M440.391,359.13
					c0,0,14.322,3.574,16.251,19.734"/>
				<path style="fill:none;stroke:#252728;stroke-width:0.9323;stroke-miterlimit:10;" d="M481.258,343.747
					c0,0-24.37,12.431-24.616,38.225"/>
				<path style="fill:none;stroke:#252728;stroke-width:0.9323;stroke-miterlimit:10;" d="M440.391,330.15
					c0,0,16.486,5.209,16.821,24.474"/>
				<path style="fill:none;stroke:#252728;stroke-width:0.9323;stroke-miterlimit:10;" d="M442.411,301.947
					c0,0,19.786,13.737,17.182,36.627"/>
				<path style="fill:none;stroke:#252728;stroke-width:0.9323;stroke-miterlimit:10;" d="M483.433,328.519
					c0,0-24.94,2.486-26.222,29.213"/>
			</g>
		</g>
	</g>
</g>
</svg>
