<?xml version="1.0" encoding="UTF-8"?><svg id="Layer_2" xmlns="http://www.w3.org/2000/svg" viewBox="0 0 604.41 585.45"><defs><style>.cls-1{fill:#233771;}</style></defs><g id="Layer_1-2"><rect class="cls-1" x="113.67" y="441.28" width="209" height="8.95" rx="1.75" ry="1.75"/><path class="cls-1" d="m408.63,378.01H11.34c-6.26,0-11.34-5.08-11.34-11.34v-234.04c0-6.26,5.08-11.34,11.34-11.34h57.63v8.7H11.34c-1.45,0-2.63,1.18-2.63,2.63v234.04c0,1.45,1.18,2.63,2.63,2.63h397.29v8.7Z"/><path class="cls-1" d="m534.56,206.71c-9.35,0-16.96-7.86-16.96-17.53s7.61-17.53,16.96-17.53,16.96,7.86,16.96,17.53-7.61,17.53-16.96,17.53Zm0-26.35c-4.55,0-8.25,3.96-8.25,8.82s3.71,8.82,8.25,8.82,8.26-3.96,8.26-8.82-3.71-8.82-8.26-8.82Z"/><path class="cls-1" d="m305.58,237.76c-9.36,0-16.96-7.86-16.96-17.53s7.61-17.53,16.96-17.53,16.96,7.86,16.96,17.53-7.61,17.53-16.96,17.53Zm0-26.35c-4.56,0-8.26,3.96-8.26,8.82s3.71,8.82,8.26,8.82,8.26-3.96,8.26-8.82-3.71-8.82-8.26-8.82Z"/><path class="cls-1" d="m305.58,281.85c-9.36,0-16.96-7.86-16.96-17.53s7.61-17.53,16.96-17.53,16.96,7.86,16.96,17.53-7.61,17.53-16.96,17.53Zm0-26.35c-4.56,0-8.26,3.96-8.26,8.82s3.71,8.82,8.26,8.82,8.26-3.96,8.26-8.82-3.71-8.82-8.26-8.82Z"/><path class="cls-1" d="m421.63,316.91c-9.36,0-16.96-7.86-16.96-17.53s7.61-17.53,16.96-17.53,16.96,7.86,16.96,17.53-7.61,17.53-16.96,17.53Zm0-26.35c-4.56,0-8.26,3.96-8.26,8.82s3.71,8.82,8.26,8.82,8.26-3.96,8.26-8.82-3.71-8.82-8.26-8.82Z"/><path class="cls-1" d="m81.56,143.24c-9.36,0-16.96-7.86-16.96-17.53s7.61-17.53,16.96-17.53,16.96,7.86,16.96,17.53-7.61,17.53-16.96,17.53Zm0-26.35c-4.56,0-8.26,3.96-8.26,8.82s3.71,8.82,8.26,8.82,8.25-3.96,8.25-8.82-3.71-8.82-8.25-8.82Z"/><path class="cls-1" d="m205.29,143.24c-9.36,0-16.96-7.86-16.96-17.53s7.61-17.53,16.96-17.53,16.96,7.86,16.96,17.53-7.61,17.53-16.96,17.53Zm0-26.35c-4.56,0-8.26,3.96-8.26,8.82s3.71,8.82,8.26,8.82,8.25-3.96,8.25-8.82-3.71-8.82-8.25-8.82Z"/><path class="cls-1" d="m421.97,391.74c-9.35,0-16.96-7.86-16.96-17.53s7.61-17.53,16.96-17.53,16.96,7.86,16.96,17.53-7.61,17.53-16.96,17.53Zm0-26.35c-4.55,0-8.25,3.96-8.25,8.82s3.71,8.82,8.25,8.82,8.26-3.96,8.26-8.82-3.71-8.82-8.26-8.82Z"/><path class="cls-1" d="m587.46,163.13c-9.36,0-16.96-7.86-16.96-17.53s7.61-17.53,16.96-17.53,16.96,7.86,16.96,17.53-7.61,17.53-16.96,17.53Zm0-26.35c-4.56,0-8.26,3.96-8.26,8.82s3.71,8.82,8.26,8.82,8.25-3.96,8.25-8.82-3.71-8.82-8.25-8.82Z"/><rect class="cls-1" x="318.73" y="215.94" width="98.54" height="8.7"/><rect class="cls-1" x="424" y="184.7" width="98.53" height="8.7"/><rect class="cls-1" x="421.85" y="141.06" width="153.08" height="8.7"/><rect class="cls-1" x="318.73" y="259.9" width="98.54" height="8.7"/><path class="cls-1" d="m421.26,121.31v-.02h-207.11v8.7h203.09v157.18h8.7V125.99c0-2.59-2.1-4.68-4.68-4.68h0Z"/><path class="cls-1" d="m144.39,279.94c-53.36-107.24-45.68-213.7,18.67-258.91,46.18-32.45,114.03-27.11,181.44,14.31l-4.56,7.41C275.61,3.22,211.34-2.23,168.06,28.16c-60.74,42.68-67.27,144.62-15.89,247.91l-7.79,3.88Z"/><path class="cls-1" d="m210.65,330.57c-2.39-3.19-4.75-6.44-7.07-9.75-36.05-51.29-57.94-108.03-61.65-159.74-3.77-52.53,11.63-93.73,43.36-116.02,34.62-24.32,84.7-22.46,137.39,5.08l-4.03,7.72c-49.74-25.99-96.5-28.05-128.37-5.68-29.13,20.46-43.21,58.91-39.67,108.26,3.6,50.17,24.95,105.35,60.1,155.38,2.27,3.22,4.58,6.41,6.92,9.53l-6.97,5.22Z"/><path class="cls-1" d="m176.61,221.49c-23.53-70.6-14.25-131.23,24.23-158.22,20.88-14.7,48.36-18.15,79.45-9.98l-2.21,8.41c-28.54-7.5-53.52-4.5-72.24,8.69-35.21,24.7-43.25,81.54-20.98,148.35l-8.26,2.75Z"/><path class="cls-1" d="m218.07,342.86c-2.6,0-5.17-1.16-6.89-3.35-1.44-1.84-2.07-4.13-1.79-6.45.28-2.32,1.45-4.39,3.29-5.83,1.84-1.44,4.14-2.07,6.44-1.79,2.32.28,4.39,1.45,5.83,3.29,1.44,1.84,2.07,4.13,1.79,6.45-.28,2.32-1.45,4.39-3.29,5.83-1.6,1.25-3.49,1.85-5.38,1.85Zm-.02-13.13c-.94,0-1.9.31-2.69.93-.93.72-1.51,1.76-1.65,2.92-.14,1.16.18,2.32.9,3.24.72.93,1.76,1.51,2.92,1.66,1.13.08,2.3-.19,3.23-.91,1.91-1.49,2.24-4.26.75-6.16-.86-1.1-2.15-1.68-3.46-1.68Z"/><path class="cls-1" d="m182.73,235.19c-.36,0-.72-.02-1.08-.06-2.32-.28-4.39-1.45-5.83-3.29-1.44-1.84-2.07-4.13-1.79-6.44.28-2.32,1.45-4.39,3.29-5.83,1.84-1.44,4.15-2.07,6.45-1.79,2.32.28,4.39,1.45,5.83,3.29,2.97,3.8,2.29,9.3-1.5,12.27-1.56,1.22-3.43,1.85-5.37,1.85Zm-.03-13.12c-.94,0-1.9.31-2.7.93-1.9,1.49-2.24,4.25-.75,6.15.72.93,1.76,1.51,2.92,1.65,1.1.14,2.3-.17,3.24-.9.93-.72,1.51-1.76,1.66-2.92.14-1.16-.19-2.31-.91-3.23-.86-1.1-2.15-1.68-3.46-1.68Z"/><path class="cls-1" d="m150.68,293.27c-.35,0-.71-.03-1.06-.07-2.32-.28-4.39-1.44-5.84-3.29-1.44-1.84-2.07-4.13-1.79-6.44.28-2.32,1.45-4.39,3.29-5.83,3.79-2.95,9.29-2.3,12.27,1.5,2.97,3.79,2.3,9.3-1.5,12.27-1.56,1.22-3.43,1.86-5.37,1.86Zm-.02-13.13c-.95,0-1.9.31-2.7.93-1.9,1.49-2.24,4.25-.75,6.15.72.93,1.76,1.51,2.92,1.66,1.13.15,2.3-.18,3.23-.9.93-.73,1.51-1.77,1.66-2.93.14-1.16-.18-2.31-.9-3.23-.87-1.1-2.16-1.68-3.46-1.68Z"/><path class="cls-1" d="m339.95,42.76l1.84,1c-.51,3.76,1.15,7.43,4.58,9.23,3.36,1.77,7.51,1.25,10.71-.97l-6.31-3.32-.39-5.77,5.55-2.65,6,3.15c.12-3.4-1.53-6.59-4.66-8.23-3.43-1.8-7.68-1.24-10.9,1.1l-1.95-.99-4.46,7.46Z"/><path class="cls-1" d="m314.79,55.84l1.93,1.02c-.51,3.76,1.15,7.43,4.58,9.23,3.36,1.77,7.51,1.25,10.71-.97l-6.31-3.32-.39-5.77,5.55-2.65,6,3.15c.12-3.4-1.53-6.59-4.66-8.23-3.43-1.8-7.68-1.24-10.9,1.1l-1.99-.95-4.51,7.41Z"/><path class="cls-1" d="m278.08,61.7l1.81.37c.58,3.75,3.22,6.79,7.03,7.54,3.73.74,7.56-.94,9.98-3.98l-7-1.38-2.02-5.42,4.56-4.13,6.65,1.31c-.86-3.29-3.35-5.88-6.82-6.56-3.81-.75-7.72,1-10.14,4.16l-2.16-.39-1.9,8.48Z"/><path class="cls-1" d="m267.43,435.09h-98.51c-5.06,0-9.17-4.11-9.17-9.17v-54.28h116.85v54.28c0,5.06-4.11,9.17-9.17,9.17Zm-99.74-55.52v46.35c0,.68.55,1.23,1.23,1.23h98.51c.68,0,1.23-.55,1.23-1.23v-46.35h-100.97Z"/><path class="cls-1" d="m19.41,484.42c.39-1.87,1.97-3.82,3.95-5.12.97-.57,2.04-1.06,3.3-1.46,1.24-.32,2.35-.49,3.52-.49h42.85c1.39,0,2.56,1.06,2.34,2.11l-1.8,8.61c-.12.57-.54,1.06-1.14,1.38-.62.41-1.29.57-2.04.57H31.92c3.21,0,5.47,1.95,4.96,4.39l-1.44,6.91h25.64c1.82,0,2.63.73,2.34,2.11l-1.78,8.53c-.14.65-.45,1.14-1.05,1.46-.62.41-1.29.57-2.15.57h-31.52c3.1,0,5.47,1.95,4.98,4.31l-2.85,13.65c-.12.57-.43,1.06-1.05,1.46-.51.41-1.19.57-2.04.57h-14.21c-1.6,0-2.5-.81-2.25-2.03l9.94-47.53Z"/><path class="cls-1" d="m84.79,484.5c.8-3.82,5.73-6.99,10.76-6.99h7.91c1.71,0,2.61.81,2.34,2.11l-6.86,32.83c-1.27,6.09,1.74,10.08,10.08,10.08s12.91-3.98,14.18-10.08l5.84-27.95c.24-1.14.76-2.11,1.59-3.01.72-.89,1.62-1.63,2.7-2.19.97-.57,2.04-1.06,3.28-1.38,1.12-.24,2.22-.41,3.18-.41h7.91c1.71,0,2.61.81,2.34,2.11l-6.9,32.99c-3.28,15.68-17.81,22.34-36.62,22.34-19.87,0-30.76-7.23-27.6-22.34l5.88-28.11Z"/><path class="cls-1" d="m220.06,477.35c1.82,0,2.63.73,2.34,2.11l-1.89,9.02c-.14.65-.45,1.14-1.05,1.46-.62.41-1.29.57-2.15.57h-24.68c2.99,0,5.59,1.87,5.1,4.22l-7.78,37.21c-.14.65-.45,1.14-1.05,1.46-.62.41-1.29.57-2.15.57h-14.75c-1.5,0-2.59-.89-2.35-2.03l8.14-38.92c.15-.73-.03-1.38-.57-1.87-.66-.41-1.36-.65-2.11-.65h-15.49c-.85,0-1.46-.16-1.91-.57-.47-.33-.58-.81-.44-1.46l.87-4.14c.83-3.98,5.52-6.99,10.76-6.99h51.18Z"/><path class="cls-1" d="m230.43,484.5c.8-3.82,5.73-6.99,10.76-6.99h7.91c1.71,0,2.61.81,2.34,2.11l-6.86,32.83c-1.27,6.09,1.74,10.08,10.08,10.08s12.91-3.98,14.18-10.08l5.84-27.95c.24-1.14.76-2.11,1.59-3.01.72-.89,1.62-1.63,2.7-2.19.97-.57,2.04-1.06,3.28-1.38,1.12-.24,2.22-.41,3.18-.41h7.91c1.71,0,2.61.81,2.34,2.11l-6.9,32.99c-3.28,15.68-17.81,22.34-36.62,22.34-19.87,0-30.76-7.23-27.6-22.34l5.88-28.11Z"/><path class="cls-1" d="m359.51,534.06h-14.96c-2.03,0-3.37-.73-3.92-2.19l-7.39-16.25c-.45-.89-1.33-1.3-2.61-1.3h-14.1c3.1,0,5.49,1.87,4.98,4.31l-2.8,13.41c-.14.65-.45,1.14-1.05,1.46-.62.41-1.29.57-2.15.57h-14.53c-1.6,0-2.5-.81-2.25-2.03l9.94-47.53c.82-3.9,5.65-7.07,10.77-7.07h22.65c16.24,0,28.71,5.28,25.94,18.53-1.41,6.74-5.9,11.86-14.49,15.11-.6.33-.99.65-1.08,1.06-.08.41-.03.65.03.89l9.5,18.44c.15.33.18.65.13.89-.08.41-.38.81-.9,1.22-.49.33-1.06.49-1.7.49Zm-13.49-43.31c-1.47-1.14-3.6-1.71-6.48-1.71h-18.38c3.1,0,5.34,2.03,4.85,4.39l-1.36,6.5c-.29,1.38.97,2.52,2.79,2.52h9.3c5.66,0,9.74-2.11,10.67-6.58.46-2.19-.04-3.9-1.39-5.12Z"/><path class="cls-1" d="m382.48,484.5c.83-3.98,5.54-7.07,10.77-7.07h43.59c1.39,0,2.56,1.06,2.34,2.11l-1.68,8.04c-.12.57-.54,1.06-1.14,1.38-.62.41-1.29.57-2.04.57h-39.53c3.21,0,5.47,1.95,4.96,4.39l-.71,3.41c-.31,1.46.97,2.52,2.79,2.52h23.19c1.82,0,2.63.73,2.34,2.11l-1.53,7.31c-.29,1.38-1.4,2.11-3.22,2.11h-32.38c2.99,0,5.49,1.87,4.99,4.22l-.8,3.82c-.12.57.08,1.14.61,1.71.42.57,1.22.81,2.18.81h31.2c1.71,0,2.61.81,2.34,2.11l-1.66,7.96c-.24,1.14-1.71,2.03-3.2,2.03h-51.07c-1.6,0-2.5-.81-2.25-2.03l9.94-47.53Z"/><path class="cls-1" d="m26.11,577.72c-1.95.44-4.06.67-6.33.67-4.21,0-7.14-1.16-8.77-3.47-1.64-2.32-2-5.69-1.1-10.11.84-4.13,2.64-7.32,5.39-9.58s6.31-3.39,10.69-3.39c1.6,0,3.29.19,5.08.56l-.66,3.22c-1.24-.35-2.86-.53-4.84-.53-2.56,0-4.68.86-6.36,2.59-1.68,1.72-2.83,4.13-3.46,7.22-.67,3.31-.53,5.86.42,7.62.96,1.77,2.73,2.65,5.31,2.65,2.23,0,3.99-.17,5.27-.51l-.62,3.06Z"/><path class="cls-1" d="m41.83,578.39c-4.11,0-6.96-1.16-8.55-3.47-1.59-2.32-1.93-5.71-1.02-10.2.81-3.98,2.52-7.12,5.13-9.42,2.61-2.3,5.89-3.45,9.84-3.45,4.02,0,6.85,1.14,8.49,3.43s2.05,5.46,1.22,9.53c-.9,4.42-2.63,7.79-5.18,10.11-2.55,2.32-5.87,3.47-9.94,3.47Zm4.76-23.35c-2.12,0-3.91.81-5.34,2.44-1.44,1.63-2.47,3.99-3.11,7.1-.71,3.48-.69,6.12.04,7.92s2.17,2.71,4.3,2.71c2.14,0,3.93-.8,5.36-2.41,1.43-1.6,2.55-4.35,3.33-8.22.55-2.71.45-4.97-.3-6.8-.75-1.83-2.18-2.74-4.29-2.74Z"/><path class="cls-1" d="m69.91,556.04c2.43-2.8,5.58-4.19,9.44-4.19,4.09,0,6.5,1.3,7.24,3.91,2.29-2.6,5.34-3.91,9.17-3.91,3,0,5.12.7,6.35,2.1,1.23,1.4,1.58,3.44,1.03,6.14l-3.66,17.95h-5.61s3.63-17.82,3.63-17.82c.7-3.45-.47-5.17-3.53-5.17-1.97,0-3.62.65-4.96,1.96-1.34,1.31-2.22,3-2.64,5.07l-3.25,15.96h-5.61s3.63-17.82,3.63-17.82c.7-3.45-.51-5.17-3.63-5.17-1.91,0-3.53.66-4.85,1.98-1.32,1.32-2.19,3-2.61,5.06l-3.25,15.96h-5.61s5.26-25.81,5.26-25.81h3.11s.35,3.82.35,3.82Z"/><path class="cls-1" d="m116.32,555.91c1.39-1.38,2.83-2.4,4.33-3.06,1.5-.67,3.28-1,5.35-1,6.8,0,9.32,4.31,7.56,12.92-.88,4.31-2.7,7.64-5.46,10-2.76,2.36-6.32,3.54-10.68,3.54-1.26,0-2.66-.16-4.19-.49l-1.56,7.63h-5.61s6.77-33.22,6.77-33.22h3.11s.38,3.68.38,3.68Zm-2.42,18.58c1.21.43,2.58.64,4.11.64,2.53,0,4.58-.74,6.16-2.23,1.58-1.49,2.78-4.27,3.61-8.36.65-3.21.67-5.6.06-7.16-.61-1.56-1.88-2.34-3.79-2.34-2.04,0-3.71.66-5.02,1.98-1.31,1.32-2.29,3.55-2.93,6.7l-2.19,10.76Z"/><path class="cls-1" d="m156.68,574.22c-2.51,2.78-5.77,4.17-9.75,4.17-6.22,0-8.77-2.74-7.65-8.21l3.66-17.95h5.61s-3.5,17.18-3.5,17.18c-.41,2-.31,3.47.3,4.41.61.94,1.73,1.41,3.36,1.41,2.05,0,3.77-.65,5.15-1.95,1.38-1.3,2.28-3,2.71-5.08l3.25-15.96h5.61s-5.26,25.81-5.26,25.81h-3.13s-.36-3.82-.36-3.82Z"/><path class="cls-1" d="m182.91,577.59c-2.48.53-4.75.8-6.8.8-2.39,0-4.04-.47-4.97-1.4-.92-.93-1.18-2.43-.75-4.51l3.48-17.09h-3.71s.65-3.17.65-3.17h3.79s3.45-6.19,3.45-6.19h3.35s-1.26,6.19-1.26,6.19h7.45s-.65,3.17-.65,3.17h-7.45s-3.32,16.27-3.32,16.27c-.29,1.42-.2,2.35.27,2.8.47.44,1.24.67,2.31.67,1.16,0,2.76-.21,4.79-.64l-.63,3.11Z"/><path class="cls-1" d="m207.42,577.3c-2.87.72-5.81,1.09-8.81,1.09-4.28,0-7.27-1.09-8.95-3.27-1.68-2.18-2.06-5.53-1.14-10.04.81-3.98,2.49-7.18,5.04-9.6,2.55-2.42,5.73-3.63,9.54-3.63,1.98,0,3.61.31,4.89.93,1.28.62,2.22,1.56,2.82,2.82.6,1.26.88,2.75.82,4.46-.06,1.72-.33,3.75-.81,6.1h-16.57c-1.22,6.01.7,9.01,5.78,9.01,2,0,4.68-.36,8.04-1.09l-.66,3.22Zm-1.51-14.05c.59-2.92.58-5.01-.04-6.29-.62-1.28-1.76-1.92-3.43-1.92-3.6,0-6.13,2.74-7.6,8.21h11.06Z"/><path class="cls-1" d="m224,556.53c1.17-1.52,2.54-2.66,4.12-3.42s3.48-1.13,5.71-1.13c.6,0,1.01.02,1.22.07l-.88,4.31c-.43-.03-1.1-.04-1.99-.04-2.41,0-4.26.49-5.58,1.45-1.31.97-2.18,2.48-2.6,4.54l-3.21,15.74h-5.61s5.26-25.81,5.26-25.81h3.11s.44,4.31.44,4.31Z"/><path class="cls-1" d="m268.57,556c-2.05-.64-4.13-.95-6.23-.95-3.42,0-5.38,1.21-5.88,3.64-.15.75.02,1.44.53,2.06.5.62,1.82,1.38,3.93,2.29,1.59.71,2.81,1.38,3.66,2.02.85.64,1.45,1.42,1.82,2.34.37.92.42,2,.17,3.23-.52,2.53-1.85,4.46-4,5.78-2.15,1.32-4.96,1.99-8.44,1.99-2.35,0-4.92-.29-7.7-.87l.69-3.4c3.07.72,5.49,1.09,7.29,1.09,3.78,0,5.93-1.32,6.47-3.95.16-.8.03-1.55-.4-2.24-.43-.7-1.76-1.54-3.98-2.53-1.72-.78-2.98-1.47-3.78-2.05-.8-.58-1.38-1.32-1.73-2.22-.35-.89-.41-1.93-.17-3.1.46-2.23,1.76-4.01,3.93-5.32,2.16-1.31,4.71-1.96,7.64-1.96,2.55,0,4.83.27,6.87.82l-.68,3.33Z"/><path class="cls-1" d="m291.41,577.3c-2.87.72-5.81,1.09-8.81,1.09-4.28,0-7.27-1.09-8.95-3.27-1.68-2.18-2.06-5.53-1.14-10.04.81-3.98,2.49-7.18,5.04-9.6,2.55-2.42,5.73-3.63,9.54-3.63,1.98,0,3.61.31,4.89.93,1.28.62,2.22,1.56,2.82,2.82.6,1.26.88,2.75.82,4.46-.06,1.72-.33,3.75-.81,6.1h-16.57c-1.22,6.01.7,9.01,5.78,9.01,2,0,4.68-.36,8.04-1.09l-.66,3.22Zm-1.51-14.05c.59-2.92.58-5.01-.04-6.29-.62-1.28-1.76-1.92-3.43-1.92-3.6,0-6.13,2.74-7.6,8.21h11.06Z"/><path class="cls-1" d="m308,556.53c1.17-1.52,2.54-2.66,4.12-3.42,1.58-.75,3.48-1.13,5.71-1.13.6,0,1.01.02,1.22.07l-.88,4.31c-.43-.03-1.1-.04-1.99-.04-2.41,0-4.26.49-5.58,1.45-1.31.97-2.18,2.48-2.6,4.54l-3.21,15.74h-5.61s5.26-25.81,5.26-25.81h3.11s.44,4.31.44,4.31Z"/><path class="cls-1" d="m345.28,552.22l-14.48,25.81h-6.37s-3.56-25.81-3.56-25.81h5.72s2.33,21.39,2.33,21.39l11.31-21.39h5.06Z"/><path class="cls-1" d="m351.18,578.04h-5.61s4.61-22.64,4.61-22.64h-3.5s.65-3.17.65-3.17h9.11s-5.26,25.81-5.26,25.81Zm3.22-29.5c-.9,0-1.6-.26-2.11-.78-.51-.52-.69-1.15-.53-1.91.15-.76.59-1.39,1.31-1.91.72-.52,1.53-.78,2.42-.78s1.55.27,2.08.8c.52.53.71,1.16.56,1.89-.15.74-.59,1.37-1.32,1.9s-1.53.79-2.41.79Z"/><path class="cls-1" d="m377.3,577.72c-1.95.44-4.06.67-6.33.67-4.21,0-7.14-1.16-8.77-3.47-1.64-2.32-2-5.69-1.1-10.11.84-4.13,2.64-7.32,5.39-9.58,2.75-2.26,6.31-3.39,10.69-3.39,1.6,0,3.29.19,5.08.56l-.66,3.22c-1.24-.35-2.86-.53-4.84-.53-2.56,0-4.68.86-6.36,2.59-1.68,1.72-2.83,4.13-3.46,7.22-.68,3.31-.54,5.86.42,7.62.96,1.77,2.73,2.65,5.31,2.65,2.23,0,3.99-.17,5.27-.51l-.62,3.06Z"/><path class="cls-1" d="m402.28,577.3c-2.87.72-5.81,1.09-8.81,1.09-4.28,0-7.27-1.09-8.95-3.27-1.68-2.18-2.06-5.53-1.14-10.04.81-3.98,2.49-7.18,5.04-9.6,2.55-2.42,5.73-3.63,9.54-3.63,1.98,0,3.61.31,4.89.93,1.28.62,2.22,1.56,2.82,2.82.6,1.26.88,2.75.82,4.46-.06,1.72-.33,3.75-.81,6.1h-16.57c-1.22,6.01.7,9.01,5.78,9.01,2,0,4.68-.36,8.04-1.09l-.66,3.22Zm-1.51-14.05c.59-2.92.58-5.01-.04-6.29-.62-1.28-1.76-1.92-3.43-1.92-3.6,0-6.13,2.74-7.6,8.21h11.06Z"/><path class="cls-1" d="m430.3,556c-2.05-.64-4.13-.95-6.23-.95-3.42,0-5.38,1.21-5.88,3.64-.15.75.02,1.44.53,2.06.5.62,1.82,1.38,3.93,2.29,1.59.71,2.81,1.38,3.66,2.02.85.64,1.45,1.42,1.82,2.34.37.92.42,2,.17,3.23-.52,2.53-1.85,4.46-4,5.78-2.15,1.32-4.96,1.99-8.44,1.99-2.35,0-4.92-.29-7.7-.87l.69-3.4c3.07.72,5.49,1.09,7.29,1.09,3.78,0,5.93-1.32,6.47-3.95.16-.8.03-1.55-.4-2.24-.43-.7-1.76-1.54-3.98-2.53-1.72-.78-2.98-1.47-3.78-2.05-.8-.58-1.38-1.32-1.73-2.22-.35-.89-.41-1.93-.17-3.1.46-2.23,1.76-4.01,3.93-5.32,2.16-1.31,4.71-1.96,7.64-1.96,2.55,0,4.83.27,6.87.82l-.68,3.33Z"/></g></svg>