<?xml version="1.0" encoding="utf-8"?>
<!-- Generator: Adobe Illustrator 27.5.0, SVG Export Plug-In . SVG Version: 6.00 Build 0)  -->
<svg version="1.1" id="Ñëîé_1" xmlns="http://www.w3.org/2000/svg" xmlns:xlink="http://www.w3.org/1999/xlink" x="0px" y="0px"
	 viewBox="0 0 2800 2000" style="enable-background:new 0 0 2800 2000;" xml:space="preserve">
<g>
	<g id="_x31_0">
		<rect style="fill:#eff3fd;" width="2800" height="2000"/>
		<rect y="1467.707" style="fill:#eff3fd;" width="2800" height="532.293"/>
		<rect y="1500.41" style="fill:#eff3fd;" width="2800" height="499.59"/>
	</g>
	<g id="_x39_">
		<g>
			<rect x="493.872" style="fill:#667ECC;" width="24.48" height="75.893"/>
			<rect x="1045.542" style="fill:#667ECC;" width="24.48" height="75.893"/>
			<path style="fill:#8A9EDD;" d="M1088.952,89.99c0.104,16.969-13.981,31.258-31.17,31.17l-551.67,0
				c-11.78,0-22.03-6.53-27.33-16.17c-11.464-19.844,4.084-46.811,27.331-46.179c-0.001-0.001,551.669-0.001,551.669-0.001
				C1074.992,58.81,1088.952,72.77,1088.952,89.99z"/>
			<path style="fill:#F3F9FF;" d="M1085.112,105.761c-5.446,10.282-15.623,16.908-27.33,16.941h-551.67
				c-11.78,0-22.03-6.841-27.33-16.941c5.435-10.295,15.616-16.915,27.33-16.951h551.67
				C1069.562,88.81,1079.812,95.662,1085.112,105.761z"/>
		</g>
		<g>
			<rect x="1729.996" style="fill:#667ECC;" width="24.48" height="78.733"/>
			<rect x="2281.666" style="fill:#667ECC;" width="24.48" height="78.733"/>
			<path style="fill:#8A9EDD;" d="M2325.076,89.99c0.104,16.969-13.981,31.258-31.17,31.17c0,0-551.67,0-551.67,0
				c-11.78,0-22.03-6.53-27.33-16.17c-11.464-19.844,4.084-46.811,27.331-46.179c-0.001-0.001,551.669-0.001,551.669-0.001
				C2311.116,58.81,2325.076,72.77,2325.076,89.99z"/>
			<path style="fill:#F3F9FF;" d="M2321.236,105.591c-5.446,10.178-15.623,16.738-27.33,16.771h-551.67
				c-11.78,0-22.03-6.773-27.33-16.771c5.434-10.192,15.616-16.745,27.33-16.781h551.67
				C2305.686,88.81,2315.936,95.593,2321.236,105.591z"/>
		</g>
	</g>
	<g id="_x38_">
		
			<rect x="486.771" y="226.008" transform="matrix(-1.836970e-16 1 -1 -1.836970e-16 1400.3741 -148.9194)" style="fill:#8A9EDD;" width="575.753" height="799.439"/>
		<rect x="399.584" y="362.508" style="fill:#DCE7F4;" width="750.126" height="526.44"/>
		<g>
			<rect x="807.702" y="500.429" style="fill:#FFFFFF;" width="250.939" height="329.756"/>
			<path style="fill:#B1D2EF;" d="M1011.427,594.286c-29.999-0.538-29.995-45.12,0.001-45.654
				C1041.427,549.17,1041.422,593.752,1011.427,594.286z M1011.427,552.302c-25.176,0.451-25.172,37.865,0.001,38.313
				C1036.603,590.164,1036.599,552.75,1011.427,552.302z"/>
			<path style="fill:#B1D2EF;" d="M1011.427,656.851c-29.999-0.538-29.995-45.12,0.001-45.654
				C1041.427,611.735,1041.422,656.318,1011.427,656.851z M1011.427,614.868c-25.176,0.451-25.172,37.865,0.001,38.313
				C1036.603,652.729,1036.599,615.316,1011.427,614.868z"/>
			<path style="fill:#B1D2EF;" d="M1011.427,719.417c-29.999-0.538-29.995-45.12,0.001-45.654
				C1041.427,674.301,1041.422,718.883,1011.427,719.417z M1011.427,677.433c-25.176,0.452-25.172,37.865,0.001,38.313
				C1036.603,715.295,1036.599,677.881,1011.427,677.433z"/>
			<path style="fill:#B1D2EF;" d="M1011.427,781.982c-29.999-0.538-29.995-45.12,0.001-45.654
				C1041.427,736.866,1041.422,781.449,1011.427,781.982z M1011.427,739.999c-25.176,0.451-25.172,37.865,0.001,38.313
				C1036.603,777.86,1036.599,740.446,1011.427,739.999z"/>
			<path style="fill:#EB5648;" d="M1013.874,582.47c-2.185,0.804-13.262-12.295-14.862-13.341c-3.377-3.406,1.781-8.573,5.191-5.191
				c0,0,9.67,9.67,9.67,9.67l21.749-21.749c3.403-3.375,8.574,1.778,5.191,5.191C1039.756,557.55,1015.03,584.326,1013.874,582.47z"
				/>
			<path style="fill:#EB5648;" d="M1013.874,644.696c-2.194,0.796-13.257-12.291-14.862-13.341
				c-3.377-3.406,1.781-8.572,5.191-5.191c0,0,9.67,9.67,9.67,9.67l21.749-21.749c3.403-3.375,8.574,1.778,5.191,5.191
				C1039.796,619.754,1014.963,646.59,1013.874,644.696z"/>
			<path style="fill:#EB5648;" d="M1013.874,706.921c-2.185,0.804-13.262-12.295-14.862-13.341
				c-3.377-3.406,1.781-8.572,5.191-5.191c0,0,9.67,9.67,9.67,9.67l21.749-21.749c3.403-3.374,8.574,1.777,5.191,5.191
				C1039.756,682.001,1015.03,708.777,1013.874,706.921z"/>
			<path style="fill:#EB5648;" d="M1013.874,769.146c-2.185,0.804-13.262-12.295-14.862-13.34c-3.377-3.406,1.781-8.572,5.191-5.191
				c0,0,9.67,9.67,9.67,9.67l21.749-21.749c3.403-3.374,8.574,1.777,5.191,5.191C1039.756,744.227,1015.03,771.002,1013.874,769.146
				z"/>
			<path style="fill:#8A9EDD;" d="M968.944,566.372H833.997c-2.027,0-3.67-1.643-3.67-3.67c0-2.027,1.643-3.67,3.67-3.67h134.947
				C973.698,559.045,973.78,566.35,968.944,566.372z"/>
			<path style="fill:#8A9EDD;" d="M941.705,583.886H833.997c-4.772-0.016-4.821-7.319,0-7.341c0,0,107.707,0,107.707,0
				C946.469,576.56,946.533,583.865,941.705,583.886z"/>
			<path style="fill:#8A9EDD;" d="M968.944,691.503H833.997c-2.027,0-3.67-1.643-3.67-3.67s1.643-3.67,3.67-3.67h134.947
				C973.698,684.176,973.78,691.481,968.944,691.503z"/>
			<path style="fill:#8A9EDD;" d="M941.705,709.017H833.997c-4.772-0.016-4.821-7.319,0-7.341c0,0,107.707,0,107.707,0
				C946.469,701.691,946.533,708.995,941.705,709.017z"/>
			<path style="fill:#8A9EDD;" d="M941.705,628.938H833.997c-4.772-0.016-4.821-7.319,0-7.341c0,0,107.707,0,107.707,0
				C946.469,621.612,946.533,628.916,941.705,628.938z"/>
			<path style="fill:#8A9EDD;" d="M968.944,646.452H833.997c-2.027,0-3.67-1.643-3.67-3.67s1.643-3.67,3.67-3.67h134.947
				C973.698,639.124,973.78,646.43,968.944,646.452z"/>
			<path style="fill:#8A9EDD;" d="M941.705,754.069H833.997c-4.772-0.016-4.821-7.319,0-7.341c0,0,107.707,0,107.707,0
				C946.469,746.743,946.533,754.047,941.705,754.069z"/>
			<path style="fill:#8A9EDD;" d="M968.944,771.583H833.997c-2.027,0-3.67-1.643-3.67-3.67c0-2.027,1.643-3.67,3.67-3.67h134.947
				C973.698,764.255,973.78,771.561,968.944,771.583z"/>
		</g>
		<g>
			<path style="fill:#8A9EDD;" d="M1085,412.39H475.577c-2.54,0-4.599-2.059-4.599-4.599c0-2.54,2.059-4.599,4.599-4.599H1085
				c2.54,0,4.599,2.059,4.599,4.599C1089.599,410.331,1087.54,412.39,1085,412.39z"/>
			<path style="fill:#8A9EDD;" d="M992.713,445.272H475.577c-2.54,0-4.599-2.059-4.599-4.599c0-2.54,2.059-4.599,4.599-4.599
				h517.135c2.54,0,4.599,2.059,4.599,4.599C997.312,443.213,995.253,445.272,992.713,445.272z"/>
		</g>
		<g>
			<rect x="497.145" y="499.678" style="fill:#FFFFFF;" width="212.08" height="330.506"/>
			<path style="fill:#8A9EDD;" d="M675.568,793.906h-2.082v-79.204h-15.622v79.204h-8.019v-68.478h-15.622v68.478h-8.019v-57.753
				H610.58v57.753h-8.019v-47.027h-15.622v47.027h-8.019v-36.301h-15.622v36.301h-8.019v-25.575h-15.622v25.575h-4.857v-79.204
				c0-2.209-1.79-4.001-3.996-4.001c-2.206,0-3.996,1.792-3.996,4.001v83.205c0,2.209,1.79,4.001,3.996,4.001h144.765
				c2.206,0,3.996-1.792,3.996-4.001C679.564,795.698,677.774,793.906,675.568,793.906z"/>
			<path style="fill:#8A9EDD;" d="M665.046,552.839H541.324c-2.969,0-5.376-2.409-5.376-5.383c0-2.973,2.407-5.382,5.376-5.382
				h123.722c2.97,0,5.376,2.409,5.376,5.382C670.422,550.43,668.016,552.839,665.046,552.839z"/>
			<path style="fill:#8A9EDD;" d="M665.046,583.824H541.324c-2.969,0-5.376-2.409-5.376-5.383c0-2.973,2.407-5.382,5.376-5.382
				h123.722c2.97,0,5.376,2.409,5.376,5.382C670.422,581.415,668.016,583.824,665.046,583.824z"/>
			<path style="fill:#8A9EDD;" d="M665.046,614.81H541.324c-2.969,0-5.376-2.409-5.376-5.382c0-2.973,2.407-5.383,5.376-5.383
				h123.722c2.97,0,5.376,2.409,5.376,5.383C670.422,612.4,668.016,614.81,665.046,614.81z"/>
			<path style="fill:#8A9EDD;" d="M665.046,645.075H541.324c-2.969,0-5.376-2.409-5.376-5.383c0-2.973,2.407-5.382,5.376-5.382
				h123.722c2.97,0,5.376,2.409,5.376,5.382C670.422,642.665,668.016,645.075,665.046,645.075z"/>
			<path style="fill:#8A9EDD;" d="M665.046,676.06H541.324c-2.969,0-5.376-2.409-5.376-5.382c0-2.973,2.407-5.383,5.376-5.383
				h123.722c2.97,0,5.376,2.409,5.376,5.383C670.422,673.651,668.016,676.06,665.046,676.06z"/>
			<path style="fill:#EB5648;" d="M504.878,499.799c0,4.27-3.462,7.732-7.733,7.732c-4.271,0-7.733-3.462-7.733-7.732
				c0-4.271,3.462-7.733,7.733-7.733C501.415,492.066,504.878,495.528,504.878,499.799z"/>
			
				<ellipse transform="matrix(0.2305 -0.9731 0.9731 0.2305 59.3983 1074.7114)" style="fill:#EB5648;" cx="709.225" cy="499.799" rx="7.733" ry="7.733"/>
			
				<ellipse transform="matrix(0.2305 -0.9731 0.9731 0.2305 135.1743 1170.5358)" style="fill:#EB5648;" cx="807.702" cy="499.799" rx="7.733" ry="7.733"/>
			
				<ellipse transform="matrix(0.7071 -0.7071 0.7071 0.7071 -43.3424 894.9601)" style="fill:#EB5648;" cx="1058.641" cy="499.799" rx="7.733" ry="7.733"/>
		</g>
	</g>
	<g id="_x37_">
		
			<rect x="1335.353" y="226.008" transform="matrix(-1.836970e-16 1 -1 -1.836970e-16 2248.9563 -997.5014)" style="fill:#8A9EDD;" width="575.753" height="799.439"/>
		<rect x="1248.166" y="362.508" style="fill:#DCE7F4;" width="750.126" height="526.44"/>
		<path style="fill:#8A9EDD;" d="M1598.996,636.7c0-0.407-0.089-0.819-0.301-1.2l-29.849-53.59c1.15-1.304,1.853-3.01,1.853-4.885
			c0-4.085-3.312-7.396-7.396-7.396h-71.924c-2.78-5.891-8.757-9.978-15.704-9.978c-6.946,0-12.923,4.087-15.704,9.978h-71.923
			c-4.085,0-7.396,3.311-7.396,7.396c0,1.875,0.703,3.582,1.853,4.886l-29.849,53.59c-0.212,0.381-0.301,0.793-0.301,1.2h-0.315
			c0,20.862,16.122,37.773,36.01,37.773c19.883,0,36.005-16.911,36.005-37.773h-0.314c0-0.407-0.089-0.819-0.301-1.2l-28.451-51.079
			h64.981c1.72,3.645,4.663,6.587,8.307,8.307v137.351h-10.439c-11.844,0-21.445,9.601-21.445,21.445h0.651
			c-5.922,0-10.723,4.801-10.723,10.723v0c0,5.922,4.801,10.723,10.723,10.723h77.262c5.922,0,10.723-4.801,10.723-10.723v0
			c0-5.922-4.801-10.723-10.723-10.723h0.65c0-11.844-9.601-21.445-21.445-21.445h-10.44v-137.35
			c3.645-1.72,6.588-4.663,8.308-8.308h64.981l-28.45,51.079c-0.212,0.381-0.301,0.793-0.3,1.2h-0.315
			c0,20.862,16.122,37.773,36.01,37.773c19.883,0,36.005-16.911,36.005-37.773H1598.996z M1357.632,636.7l27.951-50.182V636.7
			H1357.632z M1390.513,636.7v-50.182l27.95,50.182H1390.513z M1532.887,636.7l27.95-50.181V636.7H1532.887z M1565.769,636.7
			v-50.181l27.95,50.181H1565.769z"/>
		<g>
			
				<rect x="1689.737" y="531.743" transform="matrix(-1 -1.224647e-16 1.224647e-16 -1 3585.6704 1342.2227)" style="fill:#FFFFFF;" width="206.197" height="278.736"/>
			
				<rect x="1708.252" y="552.687" transform="matrix(-1 -1.224647e-16 1.224647e-16 -1 3582.166 1138.8232)" style="fill:#8A9EDD;" width="165.662" height="33.45"/>
			<rect x="1708.253" y="608.957" style="fill:#8A9EDD;" width="84.583" height="5.823"/>
			<rect x="1816.795" y="608.957" style="fill:#8A9EDD;" width="57.119" height="5.823"/>
			<rect x="1708.253" y="642.558" style="fill:#8A9EDD;" width="165.661" height="5.823"/>
			<rect x="1708.253" y="676.159" style="fill:#8A9EDD;" width="47.579" height="5.823"/>
			<rect x="1775.658" y="676.159" style="fill:#8A9EDD;" width="98.256" height="5.823"/>
			<rect x="1708.253" y="709.76" style="fill:#8A9EDD;" width="165.661" height="5.823"/>
			<rect x="1708.253" y="743.36" style="fill:#8A9EDD;" width="42.623" height="5.823"/>
			<rect x="1762.771" y="743.36" style="fill:#8A9EDD;" width="50.554" height="5.823"/>
			<rect x="1828.193" y="743.36" style="fill:#8A9EDD;" width="45.72" height="5.823"/>
			<rect x="1708.253" y="776.961" style="fill:#8A9EDD;" width="165.661" height="5.823"/>
			
				<ellipse transform="matrix(0.9732 -0.2298 0.2298 0.9732 -71.4515 449.8236)" style="fill:#EB5648;" cx="1895.934" cy="531.743" rx="7.733" ry="7.733"/>
			
				<ellipse transform="matrix(0.9732 -0.2298 0.2298 0.9732 -76.9676 402.4489)" style="fill:#EB5648;" cx="1689.737" cy="531.743" rx="7.733" ry="7.733"/>
		</g>
		<g>
			<path style="fill:#8A9EDD;" d="M1927.94,447.503h-609.423c-2.54,0-4.599,2.059-4.599,4.6c0,2.54,2.059,4.599,4.599,4.599h609.423
				c2.54,0,4.599-2.059,4.599-4.599C1932.54,449.562,1930.48,447.503,1927.94,447.503z"/>
			<path style="fill:#8A9EDD;" d="M1835.653,414.621h-517.136c-2.54,0-4.599,2.059-4.599,4.599c0,2.54,2.059,4.599,4.599,4.599
				h517.136c2.54,0,4.599-2.059,4.599-4.599C1840.252,416.68,1838.193,414.621,1835.653,414.621z"/>
		</g>
	</g>
	<g id="_x36_">
		<ellipse style="fill:#8A9EDD;" cx="2371.551" cy="578.442" rx="113.299" ry="113.485"/>
		<ellipse style="fill:#DCE7F4;" cx="2371.551" cy="578.442" rx="96.497" ry="96.655"/>
		<path style="fill:#8A9EDD;" d="M2371.553,583.206c-1.239,0-2.455-0.484-3.365-1.395l-33.183-33.237
			c-1.858-1.861-1.858-4.878,0-6.739c1.856-1.861,4.87-1.861,6.726,0l25.062,25.103V508.37c0-2.631,2.131-4.765,4.758-4.765
			c2.627,0,4.758,2.133,4.758,4.765v70.072c0,1.927-1.159,3.665-2.937,4.402C2372.784,583.088,2372.165,583.206,2371.553,583.206z"
			/>
	</g>
	<g id="_x35_">
		<rect x="735.345" y="1049.81" style="fill:#395B96;" width="337.511" height="338.433"/>
		<rect x="735.345" y="1385.91" style="fill:#4867AA;" width="335.427" height="15.526"/>
		<path style="fill:#395B96;" d="M909.045,1684.836c6.884,0,12.465-5.969,12.465-13.33V1426.63c0-7.362-5.581-13.33-12.465-13.33
			c-6.884,0-12.465,5.969-12.465,13.33v244.876C896.579,1678.868,902.161,1684.836,909.045,1684.836z"/>
		<path style="fill:#395B96;" d="M788.307,1734.966c22.977-0.604,0.48-39.416,43.283-43.15c-0.001,0,158.491,0,158.491,0
			c16.992,0,30.817,13.782,30.817,30.723c0.011,16.225,24.897,16.257,24.93-0.001c0-30.644-25.008-55.576-55.748-55.576H831.589
			C792.378,1662.154,754.694,1728.596,788.307,1734.966z"/>
		<path style="fill:#103663;" d="M885.09,1426.625H933c15.13-0.343,18.975-13.897,17.617-26.651h-83.144
			C866.115,1412.733,869.962,1426.283,885.09,1426.625z"/>
		<path style="fill:#234270;" d="M879.637,1697.791h58.816c13.719-0.212,12.458-14.971,12.163-24.678
			c0.001-6.697-5.445-12.127-12.163-12.127h-58.816c-6.718,0-12.164,5.429-12.164,12.127
			C867.204,1682.826,865.884,1697.57,879.637,1697.791z"/>
		<path style="fill:#234270;" d="M1009.813,1722.539c0.529,30.863,46.578,30.858,47.102-0.001
			C1056.386,1691.677,1010.337,1691.681,1009.813,1722.539z"/>
		<path style="fill:#234270;" d="M764.756,1722.539c0.529,30.863,46.578,30.858,47.102-0.001
			C811.329,1691.677,765.28,1691.681,764.756,1722.539z"/>
		<path style="fill:#F99370;" d="M1200.224,984.004c5.971,0.236,1.107,15.921,3.175,21.009c7.819-6.804,13.73-15.921,13.799-15.928
			c4.916-11.859,9.181-23.962,12.9-36.262c14.171-14.179-0.758,34.009-1.452,38.324c0.058,0.029,0.114,0.061,0.171,0.09
			c7.626-11.073,14.659-22.585,20.677-34.612c17.817-11.269-10.199,37.368-12.222,41.445c0.021,0.024,0.042,0.049,0.062,0.073
			c8.935-9.201,16.751-19.501,23.371-30.497c18.898-9.405-13.297,37.215-16.744,40.618c0.023,0.046,0.046,0.091,0.068,0.136
			c8.07-6.205,15.347-13.439,22.197-20.984c18.527-5.728-14.035,29.21-17.55,32.332c-2.706,4.167-14.514,16.676-34.987,29.386
			c-6.38,3.974-21.596-10.53-21.935-17.905c-0.317-6.914,1.789-16.116,2.456-19.461
			C1194.3,1005.634,1192.999,985.143,1200.224,984.004z"/>
		<path style="fill:#F99370;" d="M1011.396,961.809c30.5,43.35,54.91,138.954,99.507,161.599
			c19.181,2.761,62.155-63.783,73.872-83.042c0-0.001,6-9.848,6-9.848l0.4-0.657c8.62-14.577,31.745-5.023,27.753,11.264
			c-12.909,50.091-33.333,112.834-80.937,140.248c-24.367,13.542-55.213,6.664-77.651-7.58
			c-59.325-39.012-83.862-108.741-119.931-165.482C910.466,961.155,980.012,915.391,1011.396,961.809z"/>
		<path style="fill:#F4D4BE;" d="M1217.854,1049.809c0,0-1.052,7.547-3.69,19.201c-8.849,39.136-35.513,124.587-99.902,125.864
			c-30.145,0.593-57.326-11.011-79.741-26.088c-39.72-26.714-64.522-64.33-64.522-64.33l-0.234-8.114
			c0,0-37.324-141.492-4.792-168.131c0,0,39.553,7.528,71.558,52.764c34.137,48.249,52.586,115.375,73.047,117.512
			c14.501,1.511,48.26-32.082,66.71-51.792c7.589-8.106,12.581-13.858,12.581-13.858S1198.244,1046.32,1217.854,1049.809z"/>
		<path style="fill:#F99370;" d="M1246.868,1745.684l-108.031-1.189c0.277-17.315,4.877-52.271,1.449-72.029
			c0.003,0,8.09-61.141,8.09-61.141l47.623,0.524l-10.9,80.019c-1.293,9.491,4.323,18.545,13.367,21.63
			c19.849,7.818,42.512,4.418,55.214,20.122C1256.977,1738.896,1253.077,1745.752,1246.868,1745.684z"/>
		<path style="fill:#1D3F70;" d="M1135.667,1734.028c0.401,3.668,1.371,7.238,3.168,10.467l109.083,1.201
			c5.304,0.058,9.2-5.134,7.496-10.171c-4.014-11.771-18.206-28.947-68.458-32.138c0,0-17.162,4.917-45.23-0.498
			C1141.726,1702.89,1134.02,1719.158,1135.667,1734.028z"/>
		<path style="fill:#103663;" d="M1255.352,1735.346l-119.686-1.317c0.401,3.668,1.371,7.238,3.168,10.467l109.083,1.201
			C1253.296,1745.763,1257.208,1740.407,1255.352,1735.346z"/>
		<path style="fill:#1D3F70;" d="M899.859,1356.938c62.298,0.208,142.936,35.393,180.823,95.679
			c37.794,57.879,34.565,163.639,34.088,215.695c58.362,18.849,93.063,4.355,93.063,4.355
			c12.936-152.962,31.331-414.978-170.938-432.784c0.007-0.009-183.661-0.009-183.661-0.009
			C822.522,1302.646,849.984,1355.873,899.859,1356.938z"/>
		<path style="fill:#103663;" d="M960.906,1250.636l-79.819,5.147c33.958,21.676,205.991,194.61,218.206,237.517
			C1111.442,1288.162,988.238,1259.586,960.906,1250.636z"/>
		<path style="fill:#F99370;" d="M1114.689,1770.5l-108.031-1.189c0.277-17.315,4.877-52.271,1.449-72.029
			c0.003,0,8.09-61.141,8.09-61.141l47.623,0.524l-5.247,77.329c-1.293,9.491-1.331,21.234,7.713,24.32
			c19.849,7.818,42.512,4.419,55.214,20.122C1124.799,1763.712,1120.898,1770.568,1114.689,1770.5z"/>
		<path style="fill:#1D3F70;" d="M1003.488,1758.844c0.401,3.668,1.371,7.238,3.168,10.467l109.083,1.201
			c5.304,0.058,9.2-5.134,7.496-10.171c-4.014-11.771-18.206-28.947-68.458-32.138c0,0-17.162,4.917-45.23-0.498
			C1009.547,1727.706,1001.841,1743.974,1003.488,1758.844z"/>
		<path style="fill:#103663;" d="M1123.174,1760.162l-119.686-1.317c0.401,3.668,1.371,7.238,3.168,10.467l109.083,1.201
			C1121.117,1770.579,1125.029,1765.223,1123.174,1760.162z"/>
		<path style="fill:#E8C0A6;" d="M1034.522,1168.778v0.008c-39.72-26.714-64.522-64.33-64.522-64.33l-0.234-8.114l20.72-106.446
			C990.485,989.895,1033.002,1066.005,1034.522,1168.778z"/>
		<path style="fill:#1D3F70;" d="M812.237,1367.077c55.894,33.919,119.5,16,158.627,95.208
			c31.476,68.481,21.219,182.396,15.361,238.065c58.362,18.849,89.74,0,89.74,0c55.719-329.406,14.67-443.699-319.76-494.632
			C756.206,1205.718,730.682,1317.588,812.237,1367.077z"/>
		<path style="fill:#103663;" d="M986.225,1700.35c58.362,18.849,89.74,0,89.74,0s1.125-5.702,2.833-15.737
			c0,0-35.492,12.009-90.428-4.01C987.194,1692.956,986.225,1700.35,986.225,1700.35z"/>
		<path style="fill:#103663;" d="M1114.77,1668.311c58.362,18.849,93.063,4.355,93.063,4.355s0.719-5.848,1.75-16.009
			c0,0-29.223,13.252-94.448-3.279C1114.999,1662.745,1114.77,1668.311,1114.77,1668.311z"/>
		<path style="fill:#F99370;" d="M945.627,918.517c1.062-3.338,2-6.988,2.832-10.823c4.842-22.165,6.274-50.453,6.299-61.124
			c0-2.89-0.091-4.483-0.258-4.319c-0.045-0.685-0.118-1.362-0.221-2.03c-1.07-7.933-5.346-13.379-10.875-16.448
			c-0.014-0.002-0.014-0.002-0.014-0.002c-8.19-4.522-19.123-3.86-26.703,1.6c-0.158,0.11-0.305,0.236-0.449,0.349
			c-4.825,3.652-8.179,9.308-8.402,16.888c-0.006,0.345-0.027,0.7-0.02,1.047c-0.003,0.484,0.01,0.956,0.037,1.431
			c1.199-0.52-0.955,29.105-4.671,50.226c-1.233,6.958-2.636,13.001-4.141,16.731C853.418,917.353,976.126,983.167,945.627,918.517z
			"/>
		<path style="fill:#F4D4BE;" d="M752.287,1250.636c1.349,3.823,67.845-15.355,126.524-6.576
			c85.058,12.726,118.765-4.184,134.175-4.183c29.617,0.002,5.456-196.105-22.502-249.979
			c-11.559-27.481-31.908-55.883-44.857-71.382c0.083,1.34-0.345,36.128-46.588-6.475c-2.819,0.641-23.67,15.591-24.159,24.408
			C865.201,975.633,718.069,1157.525,752.287,1250.636z"/>
		<path style="fill:#8E4A35;" d="M997.021,820.044c0,0,6.573-23.578,4.065-41.928l-15.358,2.587L997.021,820.044z"/>
		<path style="fill:#F99370;" d="M976.995,888.793c-26.959,14.18-73.519,3.777-84.246-18.177
			c-40.026-81.913,86.269-190.282,100.216-69.316C999.513,836.602,1022.352,860.088,976.995,888.793z"/>
		<path style="fill:#C16256;" d="M962.946,818.091c1.191-1.253,1.141-3.234-0.112-4.424c-1.254-1.191-3.234-1.141-4.426,0.112
			c-1.191,1.253-1.14,3.234,0.113,4.424C959.773,819.394,961.755,819.344,962.946,818.091z"/>
		<path style="fill:#C16256;" d="M989.43,821.377c1.191-1.253,1.141-3.234-0.113-4.424c-1.253-1.191-3.234-1.141-4.426,0.112
			c-1.191,1.253-1.141,3.234,0.113,4.424C986.258,822.68,988.239,822.63,989.43,821.377z"/>
		<path style="fill:#C16256;" d="M973.878,845.024c-1.82-0.315-3.583-0.943-4.954-1.881c-0.541-0.368-0.68-1.106-0.31-1.643
			c0.365-0.545,1.114-0.679,1.644-0.31c3.45,2.346,9.403,2.046,10.652,0.548c0.44-0.529-0.197-1.371-0.809-1.986
			c-5.394-5.403-6.084-18.868-6.111-19.438c-0.029-0.652,0.476-1.208,1.128-1.238c0.634-0.022,1.206,0.472,1.238,1.128
			c0.006,0.129,0.672,13.121,5.42,17.875c2.59,2.592,1.53,4.482,0.955,5.172C981.232,845.059,977.446,845.642,973.878,845.024z"/>
		<path style="fill:#E57D61;" d="M991.608,792.183c-14.006-13.553-45.249-13.672-59.899-18.174c0,0-4.293,25.708-34.549,35.929
			c-8.893,22.168-15.599,31.005-0.465,65.778l-0.009-0.002c-1.432-1.617-2.741-3.307-3.938-5.097l-0.025-0.004
			C842.052,776.537,969.87,682.312,991.608,792.183z"/>
		<path style="fill:#8E4A35;" d="M1018.694,747.078c-3.86-21.205-28.579-39.465-59.264-23.798
			c-23.627,12.062-43.468,6.008-48.556,24.602c-41.926,5.794-35.7,51.966-35.7,51.966l19.165,3.315
			c26.24-10.835,33.084-36.203,33.084-36.203l-0.004-0.005c4.648,1.635,9.674,2.91,14.405,3.095
			c14.662,0.57,35.325,4.883,49.009,15.117C1004.515,795.398,1023.009,770.779,1018.694,747.078z"/>
		<path style="fill:#8E4A35;" d="M1003.265,859.55l0.001-0.004c0.025-0.469,0.035-0.92,0.037-1.37
			c-13.949-14.353-31.635-12.039-48.596-7.999c-18.208,4.342-35.584,10.673-46.587,0.502c-0.103-0.096-0.207-0.192-0.309-0.292
			c-12.593-13.299-7.969-31.054-2.986-43.613c2.493-6.276,5.073-11.256,5.64-13.733l0.002-0.011l-16.127,10.134l-7.661,17.875
			l-0.001,0.004l-0.527,1.225l-0.044,0.097l-0.002,0.011l-4.773,11.135c-0.008,0.022-0.015,0.044-0.019,0.066l-0.001,0.004
			c-8.221,26.261,4.988,44.321,22.773,56.234c12.466,8.353,27.176,13.69,38.326,16.713c2.004,0.762,3.978,1.349,5.915,1.77
			c25.497,5.601,44.826-16.605,51.967-35.72c0.968-2.576,1.71-5.1,2.212-7.492C1002.919,863.14,1003.175,861.282,1003.265,859.55z
			 M954.417,858.042c15.84-7.401,37.597-10.309,36.518,9.641c-8.359,9.871-23.674,9.435-37.612,6.197
			c-5.101-1.183-10.018-2.745-14.342-4.31C940.818,866.008,946.962,861.527,954.417,858.042z"/>
		<path style="fill:#F99370;" d="M868.097,813.999c-0.827,10.11,5.098,18.846,13.235,19.512c8.137,0.666,15.403-6.99,16.231-17.1
			s-5.098-18.846-13.235-19.513C876.191,796.233,868.924,803.889,868.097,813.999z"/>
		<path style="fill:#C16256;" d="M890.268,806.845c-0.263-0.205-6.479-4.99-11.505-2.524c-1.283,0.63-2.329,1.69-3.165,3.119
			c-0.008,0.008-0.011,0.019-0.018,0.027c-1.568,2.698-2.357,6.772-2.324,12.234c0.006,0.581,0.428,1.063,0.984,1.159
			c0.065,0.011,0.139,0.017,0.21,0.019c0.652-0.005,1.182-0.539,1.178-1.194c-0.028-4.259,0.468-7.56,1.426-9.869
			c6.219,3.109,7.269,11.495,7.281,11.585c0.06,0.533,0.469,0.945,0.974,1.032c0.107,0.019,0.221,0.021,0.336,0.008
			c0.649-0.072,1.117-0.656,1.044-1.306c-0.049-0.417-1.182-9.672-8.441-13.378c0.464-0.562,0.973-1.022,1.555-1.308
			c3.677-1.825,8.953,2.221,9.007,2.262c0.517,0.406,1.263,0.307,1.661-0.207C890.873,807.992,890.781,807.247,890.268,806.845z"/>
		<path style="fill:#F99370;" d="M827.198,952.435c-66.002,46.314-143.751,145.589-63.022,214.924
			c48.581,33.969,112.687,32.014,169.108,28.72c5.976-0.472,12.435-1.244,18.401-2.002c10.222-0.363,19.539-5.387,18.186-16.997
			c-1.394-11.667-14.261-12.451-23.232-14.122c-26.236-5.1-53.206-10.939-78.52-18.522c-18.374-6.396-51.724-15.054-61.371-32.033
			c-8.36-32.694,23.189-70.576,46.419-90.223C903.686,989.532,877.052,918.732,827.198,952.435z"/>
		<path style="fill:#F4D4BE;" d="M933.284,1196.076c-5.076,0.634-10.118,1.202-15.11,1.695
			c-89.508,8.84-165.326-5.61-184.334-50.832c-20.069-47.751-19.142-95.135,28.809-161.844
			c47.96-66.718,118.384-71.284,118.384-71.284c25.069,20.152,23.45,71.284,5.802,94.667
			c-12.723,16.871-74.381,75.141-58.028,99.459c12.505,18.591,66.993,39.378,91.929,48.127c7.672,2.688,12.547,4.241,12.547,4.241
			C926.831,1178.145,933.284,1196.076,933.284,1196.076z"/>
		<path style="fill:#F99370;" d="M940.815,1166.343c0,0,68.72-8.984,85.946,28.534h-84.854L940.815,1166.343z"/>
		<path style="fill:#E8C0A6;" d="M933.284,1196.076c-5.076,0.634-10.118,1.202-15.11,1.695c-8.565-22.749,1.937-41.49,1.937-41.49
			l0.626-0.217c7.672,2.688,12.547,4.241,12.547,4.241C926.831,1178.145,933.284,1196.076,933.284,1196.076z"/>
		<path style="fill:#E57D61;" d="M1021.295,1189.872c0.352,0,0.702-0.148,0.95-0.435c0.45-0.523,0.391-1.313-0.132-1.763
			c-0.622-0.536-15.5-13.119-39.904-14.193c-0.661-0.037-1.274,0.505-1.305,1.196c-0.03,0.69,0.505,1.274,1.196,1.305
			c23.496,1.034,38.234,13.464,38.38,13.589C1020.716,1189.774,1021.006,1189.872,1021.295,1189.872z"/>
		<path style="fill:#E57D61;" d="M1013.848,1196.128c0.429,0,0.846-0.22,1.079-0.616c0.351-0.595,0.153-1.362-0.442-1.713
			c-0.7-0.413-17.322-10.087-33.25-9.226c-0.691,0.038-1.22,0.628-1.182,1.318c0.038,0.69,0.642,1.202,1.317,1.182
			c15.172-0.841,31.679,8.785,31.844,8.883C1013.414,1196.073,1013.633,1196.128,1013.848,1196.128z"/>
		<path style="fill:#E8C0A6;" d="M931.29,1161.567c-0.166,0-0.336-0.025-0.503-0.078c-39.61-12.5-67.131-24.266-84.135-35.97
			c-15.148-10.428-22.244-21.128-21.693-32.712c0.974-20.468,52.45-75.907,54.64-78.258c0.629-0.674,1.685-0.712,2.36-0.083
			c0.674,0.629,0.711,1.686,0.083,2.36c-0.528,0.567-52.831,56.884-53.747,76.139c-1.059,22.267,30.861,42.418,103.498,65.339
			c0.879,0.278,1.367,1.216,1.09,2.095C932.656,1161.111,931.999,1161.567,931.29,1161.567z"/>
		<path style="fill:#E8C0A6;" d="M804.639,1194.589c-0.085,0-0.172-0.007-0.259-0.021c-35.401-5.51-49.309-19.251-49.883-19.834
			c-0.648-0.655-0.641-1.713,0.015-2.361c0.656-0.646,1.712-0.64,2.359,0.013c0.177,0.177,13.888,13.568,48.022,18.882
			c0.911,0.142,1.535,0.995,1.393,1.907C806.159,1194,805.448,1194.589,804.639,1194.589z"/>
		<path style="fill:#234270;" d="M929.449,958.245c0,0,12.434,8.287,18.803-2.255c6.369-10.542-11.978-17.576-11.978-17.576
			S927.51,948.449,929.449,958.245z"/>
		<path style="fill:#234270;" d="M945.852,956.278c0,0,27.914,97.29,36.944,161.517c0,0-6.872,21.613-17.819,32.696
			c0,0-21.341-15.967-28.703-26.856c0,0-6.255-110.339-4.752-165.639L945.852,956.278z"/>
		<path style="fill:#E8C0A6;" d="M881.035,913.81c-3.809,19.847,44.121,46.461,47.008,47l9.329-17.02
			c7.511,3.331,12.479,15.554,12.479,15.554c24.849-16.913,16.887-31.138,12.027-34.615c-5.617-4.019-16.263-6.227-16.252-6.212
			c0.087,1.341-4.522,32.156-46.588-6.475C893.433,908.133,881.035,913.81,881.035,913.81z"/>
		<path style="fill:#E8C0A6;" d="M1217.854,1049.809c0,0-1.052,7.547-3.69,19.201c-23.083-2.621-37.875-22.315-37.875-22.315
			c7.589-8.106,12.581-13.858,12.581-13.858S1198.244,1046.32,1217.854,1049.809z"/>
		<path style="fill:#C16256;" d="M951.662,812.524c-0.337,0-0.669-0.151-0.889-0.44c-0.372-0.49-0.278-1.189,0.211-1.563
			c0.358-0.273,8.882-6.66,18.827-4.768c0.605,0.115,1.003,0.7,0.887,1.305c-0.115,0.605-0.695,1.003-1.305,0.887
			c-8.954-1.709-16.978,4.29-17.057,4.351C952.134,812.45,951.897,812.524,951.662,812.524z"/>
		<path style="fill:#C16256;" d="M993.693,816.321c-0.418,0-0.819-0.236-1.01-0.639c-3.146-6.651-11.639-7.029-11.724-7.032
			c-0.615-0.022-1.097-0.538-1.076-1.153c0.02-0.615,0.542-1.1,1.15-1.077c0.404,0.013,9.932,0.412,13.667,8.309
			c0.263,0.557,0.025,1.222-0.532,1.486C994.016,816.287,993.853,816.321,993.693,816.321z"/>
		<path style="fill:#C16256;" d="M970.595,866.94c-2.311,0-4.21-0.892-4.996-2.574c0,0,0,0,0,0
			c-1.292-2.767,0.984-6.471,5.182-8.433c4.198-1.962,8.5-1.332,9.794,1.435c0.661,1.415,0.418,3.104-0.684,4.753
			c-0.989,1.48-2.586,2.787-4.499,3.68C973.747,866.569,972.085,866.94,970.595,866.94z M967.621,863.42
			c0.644,1.378,3.606,1.863,6.827,0.358c1.526-0.713,2.834-1.769,3.588-2.898c0.378-0.565,0.947-1.65,0.518-2.568
			c-0.645-1.377-3.608-1.862-6.828-0.358C968.505,859.458,966.977,862.042,967.621,863.42L967.621,863.42z"/>
	</g>
	<g id="_x34_">
		<rect x="224.996" y="1049.81" style="fill:#395B96;" width="337.511" height="338.433"/>
		<rect x="224.996" y="1385.91" style="fill:#4867AA;" width="335.428" height="15.526"/>
		<path style="fill:#395B96;" d="M398.696,1684.836c6.884,0,12.465-5.969,12.465-13.33V1426.63c0-7.362-5.581-13.33-12.465-13.33
			c-6.884,0-12.465,5.969-12.465,13.33v244.876C386.23,1678.868,391.812,1684.836,398.696,1684.836z"/>
		<path style="fill:#395B96;" d="M277.958,1734.966c22.978-0.604,0.48-39.416,43.284-43.15c-0.001,0,158.491,0,158.491,0
			c16.992,0,30.817,13.782,30.817,30.723c0.011,16.225,24.897,16.257,24.93-0.001c0-30.644-25.009-55.576-55.748-55.576H321.24
			C282.029,1662.154,244.345,1728.596,277.958,1734.966z"/>
		<path style="fill:#234270;" d="M374.741,1426.625h47.91c15.13-0.343,18.975-13.897,17.617-26.651h-83.145
			C355.766,1412.733,359.613,1426.283,374.741,1426.625z"/>
		<path style="fill:#234270;" d="M369.288,1697.791h58.816c13.719-0.212,12.458-14.971,12.163-24.678
			c0.001-6.697-5.445-12.127-12.163-12.127h-58.816c-6.718,0-12.164,5.429-12.164,12.127
			C356.855,1682.826,355.535,1697.57,369.288,1697.791z"/>
		<path style="fill:#234270;" d="M499.464,1722.539c0.529,30.863,46.578,30.858,47.102-0.001
			C546.037,1691.677,499.988,1691.681,499.464,1722.539z"/>
		<path style="fill:#234270;" d="M254.407,1722.539c0.529,30.863,46.578,30.858,47.102-0.001
			C300.98,1691.677,254.931,1691.681,254.407,1722.539z"/>
		<path style="fill:#1D3F70;" d="M700.25,1196.06c-33.587,11.814-111.037,30.33-173.019,10.357
			c-103.964-13.795-73.904-256.711-70.548-259.317c117.451,42.398,74.194,218.828,233.418,210.343
			c5.88-0.317,12.031-0.878,18.481-1.71c0,0-7.806,21.457,8.458,32.465C717.509,1189.05,711.222,1192.198,700.25,1196.06z"/>
		<path style="fill:#F99370;" d="M735.075,1746.983l-106.638-1.171c0.274-17.046,4.814-51.456,1.43-70.906
			c0.003,0,47.617-5.663,47.617-5.663c-1.276,9.343-9.857,41.359,9.812,46.055c20.474,4.889,41.964,4.35,54.502,19.808
			C745.054,1740.301,741.204,1747.05,735.075,1746.983z"/>
		<path style="fill:#1D3F70;" d="M625.308,1735.509c0.395,3.611,1.353,7.125,3.127,10.304l107.676,1.182
			c5.236,0.057,9.081-5.054,7.4-10.012c-3.962-11.587-17.971-28.496-67.575-31.636c0,0-16.941,4.84-44.647-0.49
			C631.289,1704.856,623.683,1720.87,625.308,1735.509z"/>
		<path style="fill:#395B96;" d="M743.45,1736.806l-118.142-1.297c0.395,3.611,1.353,7.125,3.127,10.304l107.676,1.182
			C741.42,1747.061,745.282,1741.788,743.45,1736.806z"/>
		<path style="fill:#163356;" d="M546.934,1210.034c-6.32-0.968-12.887-2.166-19.701-3.61c-25.604-5.42-43.13-22.308-54.938-45.033
			l28.55-139.049c0,0,22.793,26.011,23.444,70.02C524.853,1130.517,523.421,1147.476,546.934,1210.034z"/>
		<path style="fill:#EB5648;" d="M392.543,1364.297c61.494,0.205,141.092,34.841,178.491,94.187
			c37.306,56.975,34.12,161.088,33.648,212.332c57.609,18.555,91.862,4.287,91.862,4.287
			c21.708-177.28,22.812-395.1-173.307-442.716c0.011-0.007-176.717,16.671-176.717,16.671
			C316.204,1310.852,343.312,1363.249,392.543,1364.297z"/>
		<path style="fill:#CE3932;" d="M450.872,1249.102l60.508,134.36c33.52,21.338,66.262,74.396,78.32,116.633
			C601.691,1298.155,477.851,1257.912,450.872,1249.102z"/>
		<path style="fill:#F99370;" d="M604.602,1754.421l-106.638-1.171c0.274-17.046,4.814-51.457,1.43-70.906
			c0.003,0,50.9,0.502,50.9,0.502c-1.276,9.343-7.292,35.672,6.528,39.891c20.133,6.146,41.964,4.35,54.502,19.808
			C614.581,1747.74,610.731,1754.489,604.602,1754.421z"/>
		<path style="fill:#1D3F70;" d="M494.835,1742.948c0.396,3.611,1.353,7.125,3.127,10.304l107.676,1.182
			c5.235,0.057,9.081-5.054,7.4-10.012c-3.962-11.587-17.971-28.496-67.575-31.637c0,0-16.941,4.84-44.647-0.49
			C500.816,1712.295,493.21,1728.309,494.835,1742.948z"/>
		<path style="fill:#395B96;" d="M612.977,1744.245l-118.142-1.297c0.396,3.611,1.353,7.125,3.127,10.304l107.676,1.182
			C610.947,1754.5,614.808,1749.227,612.977,1744.245z"/>
		<path style="fill:#EB5648;" d="M301.596,1368.782c55.173,33.389,122.414,4.256,161.037,82.23
			c31.069,67.414,20.945,179.552,15.163,234.354c57.609,18.556,88.583,0,88.583,0c48.143-269.8,29.274-479.253-297.987-453.297
			C268.391,1232.068,221.093,1320.065,301.596,1368.782z"/>
		<path style="fill:#CE3932;" d="M477.795,1685.365c57.609,18.556,88.583,0,88.583,0s1.11-5.613,2.796-15.492
			c0,0-35.034,11.822-89.261-3.948C478.751,1678.087,477.795,1685.365,477.795,1685.365z"/>
		<path style="fill:#CE3932;" d="M604.681,1670.817c57.609,18.555,91.862,4.287,91.862,4.287s0.709-5.757,1.727-15.759
			c0,0-28.846,13.045-93.229-3.228C604.907,1665.337,604.681,1670.817,604.681,1670.817z"/>
		<path style="fill:#8C4225;" d="M424.012,764.075c0,0-23.909-24.973-62.868-14.084s-28.511,36.709-43.464,58.528
			c-13.408,19.565-11.298,42.285,2.079,64.701c10.091,16.911-17.327,22.859-11.15,46.895
			c6.651,25.877,106.949,41.909,152.111,14.949c45.161-26.96,6.622-69.583,7.936-92.939
			C469.971,818.768,424.012,764.075,424.012,764.075z"/>
		<path style="fill:#F99370;" d="M430.197,921.236c-0.421,4.616-1.115,9.578-1.997,13.79c0.364,16.736-43.775,14.369-44.614-3.581
			c0.891-10.467,4.689-59.36,0.838-63.969c-5.448-28.827,40.951-36.503,44.934-7.303
			C431.793,874.966,431.87,903.006,430.197,921.236z"/>
		<path style="fill:#E57D61;" d="M430.197,921.236c-29.169,6.112-45.42-5.662-45.42-5.662l0.398-6.331
			c0.665-8.929,0.618-9.179,0.849-16.966l45.287,0.629C431.378,902.073,431.102,912.035,430.197,921.236z"/>
		<path style="fill:#8C4225;" d="M416.884,763.528c57.222-15.143,79.334,75.435,44.523,114.781L416.884,763.528z"/>
		<path style="fill:#F99370;" d="M357.351,837.883c0.006,20.454,3.122,44.01,16.749,59.732l0.026,0.004
			c38.307,45.372,134.099,0.146,98.349-56.198c-11.249-14.331-10.572-36.409-19.15-50.245
			C420.049,738.318,354.817,785.327,357.351,837.883z"/>
		<path style="fill:#C16256;" d="M435.419,837.826c2.382-3.172-2.654-6.84-4.942-3.599
			C428.095,837.399,433.131,841.067,435.419,837.826z"/>
		<path style="fill:#C16256;" d="M461.478,837.643c2.382-3.172-2.654-6.84-4.942-3.599
			C454.155,837.215,459.19,840.883,461.478,837.643z"/>
		<path style="fill:#C16256;" d="M447.661,862.347c5.535,0.823,14.726-1.52,8.53-7.554c-5.203-4.003-7.495-16.498-7.517-16.624
			c-5.18-5.399,0.251,14.358,6.105,18.457c4.03,3.459-5.71,4.615-9.344,2.64c-0.572-0.291-1.267-0.062-1.555,0.508
			C443.223,861.773,446.257,861.964,447.661,862.347z"/>
		<path style="fill:#E57D61;" d="M357.351,837.883c0.006,20.454,3.122,44.01,16.749,59.732l0.026,0.004
			c-6.985-12.239-8.529-37.359-8.529-37.359l5.86-10.12c72.821-11.208,75.83-67.761,75.83-67.761
			C409.1,743.815,354.723,791.088,357.351,837.883z"/>
		<path style="fill:#8C4225;" d="M440.724,776.25c0,0-3.248,55.722-68.822,68.262l-20.261-15.85
			C336.8,782.63,386.109,726.462,440.724,776.25z"/>
		<path style="fill:#F99370;" d="M343.068,845.92c1.26,23.448,29.868,22.049,28.835-1.41
			C370.642,821.063,342.034,822.462,343.068,845.92z"/>
		<path style="fill:#C16256;" d="M349.506,851.76c0.751,0.13,1.447-0.544,1.33-1.3c-2.379-12.748,3.778-16.954,11.369-12.301
			c1.273,0.781,2.481-1.253,1.174-1.994C354.538,829.725,343.612,838.264,349.506,851.76z"/>
		<path style="fill:#C16256;" d="M360.425,851.878c5.115,0.354-6.322-17.236-11.363-12.856c-0.142,0.624,0.246,1.244,0.869,1.387
			C358.645,842.751,358.375,851.246,360.425,851.878z"/>
		<path style="fill:#F4D4BE;" d="M353.87,858.38c-0.583,3.319,4.642,4.159,5.128,0.824
			C359.582,855.887,354.356,855.046,353.87,858.38z"/>
		<path style="fill:#1D3F70;" d="M266.508,1235.962c101.536,31.47,243.421,15.982,258.66-3.095
			c16.272-20.37,4.162-38.702-6.797-79.164c-8.619-31.824,6.021-83.505-10.42-117.148c-30.392-62.187-52.226-88.757-52.226-88.757
			s-38.355,10.177-102.438-5.659C294.068,977.487,266.508,1235.962,266.508,1235.962z"/>
		<path style="fill:#C16256;" d="M445.837,873.802c-0.062,0.013-0.127,0.02-0.193,0.021c-11.766,0.152-16.281-8.258-16.468-8.616
			c-0.258-0.495-0.065-1.105,0.43-1.363c0.496-0.256,1.104-0.066,1.362,0.428c0.169,0.319,4.171,7.665,14.651,7.53
			c0.558-0.007,1.016,0.439,1.023,0.997C446.647,873.291,446.301,873.706,445.837,873.802z"/>
		<path style="fill:#C16256;" d="M424.678,829.885c-0.319,0.066-0.663-0.023-0.913-0.267c-0.398-0.39-0.405-1.027-0.016-1.426
			c0.232-0.237,5.793-5.812,15.491-5.224c0.557,0.034,0.981,0.513,0.947,1.07c-0.034,0.557-0.513,0.981-1.07,0.947
			c-8.741-0.531-13.874,4.569-13.924,4.62C425.047,829.752,424.867,829.845,424.678,829.885z"/>
		<path style="fill:#C16256;" d="M463.559,827.66c-0.306,0.063-0.637-0.016-0.886-0.242c-3.55-3.234-10.481-2.947-10.55-2.944
			c-0.558,0.026-1.031-0.404-1.057-0.961c-0.027-0.558,0.401-1.032,0.96-1.057c0.318-0.016,7.834-0.334,12.009,3.468
			c0.412,0.376,0.443,1.015,0.067,1.428C463.952,827.515,463.761,827.618,463.559,827.66z"/>
		<path style="fill:#F99370;" d="M708.581,1155.733c0,0,17.049-17.074,26.809-13.17c9.76,3.904,25.639,13.468,34.591,9.941
			c8.952-3.527,7.861,25.86-1.9,31.843c-9.76,5.983-31.516,3.803-51.04,3.854C717.042,1188.202,700.121,1179.143,708.581,1155.733z"
			/>
		<polygon style="fill:#F9C0C0;" points="772.808,1195.49 724.014,1195.49 714.737,1115.584 782.086,1115.584 		"/>
		<path style="fill:#9358E0;" d="M782.445,1127.615h-68.068c-3.538,0-5.836-3.726-4.249-6.888l2.879-5.734
			c1.06-2.111,3.22-3.444,5.583-3.444h59.642c2.362,0,4.523,1.333,5.583,3.444l2.879,5.734
			C788.281,1123.889,785.983,1127.615,782.445,1127.615z"/>
		<path style="fill:#F9C0C0;" d="M779.786,1112.405h-62.749l2.545-3.371c2.216-2.935,5.681-4.661,9.358-4.661h38.942
			c3.678,0,7.143,1.726,9.358,4.661L779.786,1112.405z"/>
		<path style="fill:#9358E0;" d="M774.869,1177.474h-53.159c-1.078,0-1.984-0.808-2.108-1.879l-3.313-28.705
			c-0.146-1.26,0.839-2.365,2.108-2.365h59.786c1.268,0,2.253,1.105,2.108,2.365l-3.313,28.705
			C776.853,1176.666,775.947,1177.474,774.869,1177.474z"/>
		<path style="fill:#F99370;" d="M712.85,1152.592c6.382-5.812,38.47-11.872,39.355-1.086c-0.083,2.143-1.784,3.825-3.857,3.973
			c-8.133,0.884-16.21,4.352-23.533,7.976c-5.248,2.598-9.495,7.055-9.495,7.055C707.157,1175.736,704.645,1159.087,712.85,1152.592
			z"/>
		<path style="fill:#163356;" d="M700.25,1196.06c-16.925-12.42-10.312-38.011-10.149-38.617c5.88-0.317,12.031-0.878,18.481-1.71
			c0,0-7.806,21.457,8.458,32.465C717.509,1189.05,711.222,1192.198,700.25,1196.06z"/>
		<path style="fill:#1D3F70;" d="M427.133,1196.076c-5.076,0.634-10.118,1.202-15.11,1.695
			c-89.508,8.84-158.089,13.497-187.027-24.293c-23.247-30.358-22.594-97.187,13.685-151.137
			c50.596-75.241,114.607-80.203,114.607-80.203c25.069,20.152,7.245,59.374-8.629,88.977
			c-9.986,18.622-38.357,52.504-22.003,76.822c12.505,18.591,66.993,39.378,91.929,48.127c7.672,2.688,12.547,4.241,12.547,4.241
			C420.68,1178.145,427.133,1196.076,427.133,1196.076z"/>
		<path style="fill:#F99370;" d="M434.663,1166.343c0,0,68.72-8.984,85.946,28.534h-84.854L434.663,1166.343z"/>
		<path style="fill:#E57D61;" d="M515.143,1189.872c0.352,0,0.702-0.148,0.95-0.435c0.45-0.523,0.391-1.313-0.132-1.763
			c-0.622-0.536-15.5-13.119-39.904-14.193c-0.661-0.037-1.274,0.505-1.305,1.196c-0.03,0.69,0.505,1.274,1.196,1.305
			c23.496,1.034,38.234,13.464,38.38,13.589C514.564,1189.774,514.855,1189.872,515.143,1189.872z"/>
		<path style="fill:#E57D61;" d="M507.378,1194.877c0.429,0,0.846-0.22,1.079-0.616c0.351-0.595,0.153-1.362-0.442-1.713
			c-0.7-0.413-17.322-10.087-33.25-9.226c-0.69,0.038-1.22,0.628-1.182,1.318c0.038,0.69,0.642,1.202,1.317,1.182
			c15.172-0.841,31.679,8.785,31.844,8.883C506.943,1194.822,507.162,1194.877,507.378,1194.877z"/>
		<path style="fill:#EB5648;" d="M428.2,935.026c0,0,18.18-2.64,28.482,12.069c0,0-5.002,17.396-28.167,26.183
			c0,0-4.264-10.647-11.558-17.801c0,0-2.777,10.376-3.842,20.227c0,0-44.247,4.731-59.827-33.566c0,0,16.867-11.97,30.298-10.693
			C390.049,947.084,421.033,951.66,428.2,935.026z"/>
		<path style="fill:#F99370;" d="M427.133,1160.305l18.262,5.232v29.34l-18.262,1.199
			C427.133,1196.076,411.604,1176.45,427.133,1160.305z"/>
		<path style="fill:#163356;" d="M427.133,1196.076c-5.076,0.634-10.118,1.202-15.11,1.695c-8.565-22.749,1.937-41.49,1.937-41.49
			l0.626-0.217c7.672,2.688,12.547,4.241,12.547,4.241C420.68,1178.145,427.133,1196.076,427.133,1196.076z"/>
		<path style="fill:#163356;" d="M417.896,1161.214c-0.228,0-0.459-0.04-0.686-0.122l-2.031-0.741
			c-40.378-14.722-101.399-36.971-99.27-70.456c1.334-20.988,21.928-51.286,22.804-52.565c0.625-0.91,1.869-1.143,2.78-0.521
			c0.911,0.624,1.145,1.868,0.521,2.78c-0.208,0.305-20.848,30.671-22.112,50.56c-1.939,30.499,57.389,52.13,96.648,66.444
			l2.032,0.741c1.038,0.379,1.572,1.526,1.193,2.564C419.479,1160.71,418.712,1161.214,417.896,1161.214z"/>
		<path style="fill:#163356;" d="M336.9,1205.82c-34.003,0-61.498-3.31-61.978-3.368c-1.096-0.136-1.875-1.134-1.74-2.23
			c0.135-1.096,1.126-1.872,2.23-1.74c0.832,0.103,83.898,10.094,139.541-4.944c1.068-0.288,2.165,0.344,2.453,1.409
			c0.288,1.066-0.342,2.164-1.409,2.452C391.774,1203.945,362.494,1205.82,336.9,1205.82z"/>
	</g>
	<g id="_x33_">
		<path style="fill:#8C4225;" d="M1826.906,742.923c0,0-25.301-14.278-43.563,18.354c-18.262,32.632-4.986,35.858-31.689,71.881
			c-26.703,36.023,18.732,79.878,47.727,82.649c28.995,2.77,4.181,41.422,60.427,38.844
			C1916.056,952.072,2023.399,782.667,1826.906,742.923z"/>
		<rect x="1686.349" y="1070.902" style="fill:#395B96;" width="341.212" height="341.212"/>
		<rect x="1688.455" y="1403.514" style="fill:#4867AA;" width="339.106" height="15.654"/>
		<path style="fill:#395B96;" d="M1851.956,1683.877c-6.959,0-12.602-5.61-12.602-12.529v-230.157
			c0-6.919,5.643-12.529,12.602-12.529s12.602,5.61,12.602,12.529v230.157C1864.558,1678.267,1858.916,1683.877,1851.956,1683.877z"
			/>
		<path style="fill:#395B96;" d="M1974.018,1734.418c-23.229-0.609-0.485-39.739-43.758-43.504c0.001,0-160.229,0-160.229,0
			c-17.179,0-31.155,13.896-31.155,30.975c-0.011,16.359-25.17,16.39-25.204-0.001c0-30.896,25.283-56.032,56.359-56.032h160.23
			C1969.902,1661.008,2007.999,1727.996,1974.018,1734.418z"/>
		<path style="fill:#234270;" d="M1876.173,1445.669h-48.435c-15.296-0.346-19.183-14.011-17.811-26.87h84.056
			C1895.356,1431.663,1891.467,1445.324,1876.173,1445.669z"/>
		<path style="fill:#234270;" d="M1881.686,1696.939h-59.461c-13.87-0.214-12.594-15.094-12.297-24.88
			c-0.001-6.752,5.505-12.226,12.297-12.226h59.461c6.792,0,12.298,5.474,12.298,12.226
			C1894.256,1681.85,1895.591,1696.716,1881.686,1696.939z"/>
		<path style="fill:#234270;" d="M1750.083,1721.89c-0.534,31.116-47.089,31.111-47.618-0.001
			C1702.999,1690.774,1749.553,1690.778,1750.083,1721.89z"/>
		<path style="fill:#234270;" d="M1997.828,1721.89c-0.535,31.116-47.088,31.111-47.618-0.001
			C1950.744,1690.774,1997.297,1690.778,1997.828,1721.89z"/>
		<path style="fill:#3A72AA;" d="M1834.147,929.906c-1.478,3.511-16.306,38.53-17.256,40.798
			c-27.639,35.478-84.961,109.1-112.308,144.22C1673.068,1019.919,1761.386,931.574,1834.147,929.906z"/>
		<path style="fill:#F99370;" d="M1574.609,1785.409l115.031-1.263c-0.295-18.387-5.193-55.506-1.542-76.486
			c-0.004,0-8.614-64.924-8.614-64.924l-50.708,0.557l11.606,84.97c1.377,10.078-4.603,19.693-14.233,22.969
			c-21.135,8.301-45.266,4.692-58.791,21.367C1563.844,1778.202,1567.998,1785.482,1574.609,1785.409z"/>
		<path style="fill:#1D3F70;" d="M1693.015,1773.032c-0.427,3.895-1.459,7.685-3.373,11.115l-116.15,1.275
			c-5.648,0.062-9.796-5.451-7.982-10.8c4.274-12.499,19.385-30.739,72.893-34.127c0,0,18.274,5.221,48.161-0.529
			C1686.563,1739.967,1694.768,1757.242,1693.015,1773.032z"/>
		<path style="fill:#395B96;" d="M1565.575,1774.431l127.44-1.399c-0.427,3.895-1.459,7.685-3.373,11.115l-116.15,1.275
			C1567.765,1785.494,1563.599,1779.806,1565.575,1774.431z"/>
		<path style="fill:#F99370;" d="M1429.32,1677.375l110.108,33.314c5.236-17.628,11.703-54.506,21.481-73.424
			c-0.003-0.001,11.266-64.517,11.266-64.517l-48.538-14.686l-14.426,84.537c-1.711,10.027-10.3,17.404-20.469,17.64
			c-22.652,1.576-44.588-9.108-62.493,2.74C1421.214,1667.269,1422.991,1675.46,1429.32,1677.375z"/>
		<path style="fill:#1D3F70;" d="M1545.982,1701.1c-1.576,3.587-3.698,6.893-6.553,9.591l-111.18-33.638
			c-5.406-1.636-7.709-8.14-4.373-12.698c7.828-10.641,27.716-23.505,79.775-10.68c0,0,15.865,10.464,46.099,13.948
			C1549.75,1667.623,1552.393,1686.563,1545.982,1701.1z"/>
		<path style="fill:#395B96;" d="M1423.996,1664.192l121.986,36.908c-1.576,3.587-3.698,6.893-6.553,9.591l-111.18-33.638
			C1422.765,1675.402,1420.498,1668.726,1423.996,1664.192z"/>
		<path style="fill:#9358E0;" d="M1618.653,1716.406c0,0,32.677,12.389,74.607,0c4.787-105.534-17.887-317.942,145.109-314.481
			c73.577,1.177,167.671-77.243,136.986-155.759c0,0-183.602,0-183.591,0.011
			C1600.061,1287.493,1603.267,1508.907,1618.653,1716.406z"/>
		<path style="fill:#7640CC;" d="M1613.753,1521.897c36.178-119.743,63.372-126.163,160.298-108.404
			c45.296-8.803,82.479-11.544,118.583-22.073l-33.032-141.743C1685.896,1236.05,1612.565,1358.511,1613.753,1521.897z"/>
		<path style="fill:#9358E0;" d="M1501.65,1619.88c0,0,22.299,31.587,70.886,29.384c9.767-35.489,23.684-120.383,43.372-172.189
			c36.904-124.545,100.03-86.257,222.466-75.15c153.886,10.134,172.183-124.214,142.582-166.695
			C1637.358,1237.223,1538.36,1169.47,1501.65,1619.88z"/>
		<path style="fill:#3A72AA;" d="M2008.079,1193.836c-1.263,17.846-10.419,48.258-15.273,67.925c0,0-134.798-29.084-255.376-27.954
			c0,0,25.838-57.828,22.269-96.446c-3.148-34.039-16.793-53.496-5.865-85.692c13.889-36.547,57.636-85.831,80.3-121.754
			c0.003-0.028,46.063-2.898,46.074-2.909C1918.289,974.044,2017.237,1033.515,2008.079,1193.836z"/>
		<path style="fill:#23659B;" d="M1750.034,1060.204c7.14-22.192,35.815-61.633,37.256-61.262c0.568-0.661,0.496-1.658-0.164-2.229
			c-3.689-1.702-32.113,35.965-38.638,61.576C1748.267,1059.259,1749.042,1060.216,1750.034,1060.204z"/>
		<path style="fill:#F4D4BE;" d="M1843.909,989.072c0.103,7.038-10.953,7.038-10.849,0
			C1832.958,982.035,1844.013,982.034,1843.909,989.072z"/>
		<path style="fill:#F4D4BE;" d="M1838.956,1009.279c0.103,7.038-10.953,7.038-10.849-0.001
			C1828.004,1002.241,1839.06,1002.24,1838.956,1009.279z"/>
		<polygon style="fill:#163260;" points="1537.188,1183.984 1782.93,1183.984 1734.003,1003.854 1489.745,1003.854 		"/>
		<rect x="1537.188" y="1183.092" style="fill:#234270;" width="245.742" height="12.232"/>
		<polygon style="fill:#0B274F;" points="1730.31,1003.854 1739.102,1003.854 1787.024,1183.092 1903.645,1183.092 
			1903.645,1195.324 1778.839,1195.324 1778.839,1184.383 		"/>
		<path style="fill:#F99370;" d="M1921.42,1018.215c30.59,24.624,99.44,76.689,76.168,118.29
			c-29.654,16.926-82.663,16.2-122.633,21.883c-11.521,0.807-13.145,18.208-2.162,21.242
			c37.666,11.136,76.808,18.112,116.463,16.051c17.931-1.294,37.497-5.278,51.229-18.546c18.284-18.293,28.953-45.834,27.027-71.9
			c-5.567-62.698-53.733-110.782-101.598-145.938C1925.741,928.482,1880.596,988.375,1921.42,1018.215z"/>
		<path style="fill:#3A72AA;" d="M1909.266,1190.172c-5.614-1.42-12.73-3.831-18.006-5.411c0,0,8.008-13.625-3.771-27.564
			c183.109-57.207,0.2-103.494-7.283-230.193C2013.587,877.378,2246.411,1252.568,1909.266,1190.172z"/>
		<path style="fill:#F99370;" d="M1810.217,1183.092c0,0,12.776-38.699,65.872-24.748l10.258,24.784L1810.217,1183.092z"/>
		<path style="fill:#E57D61;" d="M1813.063,1182.331c1.574-0.047,14.26-13.59,33.179-15.561c0.813-0.083,1.405-0.81,1.322-1.624
			C1838.452,1159.301,1803.653,1182.427,1813.063,1182.331z"/>
		<path style="fill:#E57D61;" d="M1827.34,1182.853c14.303-5.326,15.561-6.128,26.117-8.144c-0.083-0.736-0.338-2.2-0.509-2.92
			c-11.093,2.295-11.093,2.295-25.887,8.101C1825.343,1180.245,1825.59,1182.879,1827.34,1182.853z"/>
		<path style="fill:#F4D4BE;" d="M1805.452,934.725c5.229,9.285,26.935,5.827,16.627,25.324c-2.956,5.38,3.376,13.952,11.98,9.149
			c8.604-4.803,9.976-5.032,12.263-4.346c2.287,0.686,2.516,10.292,11.893,9.377c9.377-0.915,6.404-15.267,11.893-19.184
			c5.489-3.916,17.925,8.434,27.831-2.544c0,0,6.618-9.299-4.317-21.574c-4.463-7.472-51.53-0.712-59.48-1.024
			C1834.144,929.903,1821.988,926.943,1805.452,934.725z"/>
		<path style="fill:#F99370;" d="M1834.059,916.501l0.085,13.402l11.947,25.023l34.117-27.919c0,0-2.12-15.634-1.265-22.213
			L1834.059,916.501z"/>
		<path style="fill:#E57D61;" d="M1834.059,916.501c9.735,0.111,29.72-1.129,44.884-11.708c-0.266-1.365-0.514-2.776-0.75-4.201
			c-2.96-13.569-3.799-25.728-4.27-33.552c-0.452-14.748,1.123-20.609-8.819-29.501c-13.22-11.252-35.668-2.56-37.471,15.01
			C1826.688,860.951,1829.776,888.391,1834.059,916.501z"/>
		<path style="fill:#F99370;" d="M1801.911,898.565c18.584,12.81,43.393,12.592,61.757,4.762c1.041-0.447,2.1-0.892,3.087-1.386
			c39.403-19.157,38.7-85.162,15.152-115.681c-14.729-20.832-46.361-29.083-67.31-13.118
			c-14.469,11.714-17.378,29.356-21.216,48.068c-1.285,4.927-4.304,11.614-7.602,16.41
			C1773.2,856.445,1777.997,881.198,1801.911,898.565z"/>
		<path style="fill:#E57D61;" d="M1846.883,805.359c35.448,4.331,36.926,32.029,36.926,32.029l10.487-16.643l-37.963-45.325
			l-30.588-8.264c-6.82,2.232-12.627,6.367-17.166,11.959C1808.581,779.115,1811.435,801.028,1846.883,805.359z"/>
		<path style="fill:#C16256;" d="M1821.755,832.924c-2.421-3.011,2.364-6.744,4.695-3.663
			C1828.871,832.272,1824.086,836.005,1821.755,832.924z"/>
		<path style="fill:#C16256;" d="M1796.378,833.583c-2.421-3.011,2.364-6.745,4.695-3.663
			C1803.494,832.931,1798.709,836.664,1796.378,833.583z"/>
		<path style="fill:#C16256;" d="M1807.769,857.461c2.086-0.216,6.91-0.171,6.455-2.896c-0.3-0.545-0.985-0.745-1.53-0.445
			c-3.469,2.046-12.998,1.222-9.183-2.269c5.592-4.325,10.224-23.334,5.35-18.168c-0.019,0.124-1.848,12.363-6.783,16.428
			C1797.015,855.234,1802.982,857.319,1807.769,857.461z"/>
		<path style="fill:#8C4225;" d="M1814.603,773.142c-0.823-31.356,60.042-96.132,122.886-25.308
			c45.818,56.615,151.824,108.483,76.234,159.208c-30.084,11.481,0.063,36.379-17.328,55.296s-47.236,9.98-41.597,46.118
			c5.639,36.138-15.504,48.763-40.749,51.54c-25.245,2.777-67.181-58.754-43.036-87.349c24.144-28.595-3.547-42.556,4.227-75.77
			c7.774-33.214,22.351-41.792,22.351-41.792l-11.224-27.435C1878.738,791.867,1818.971,806.704,1814.603,773.142z"/>
		<path style="fill:#23659B;" d="M1903.64,1188.595c-4.178-1.247-8.749-2.743-12.38-3.834c0,0,8.008-13.625-3.771-27.564
			c0,0,5.876-1.908,14.234-4.855C1901.723,1152.343,1916.137,1170.823,1903.64,1188.595z"/>
		<path style="fill:#23659B;" d="M1901.441,1155.654c32.238-11.498,102.675-38.413,50.705-93.86
			c-1.378-1.494-3.722,0.634-2.32,2.141c0.319,0.347,31.67,34.843,11.134,54.619
			C1937.284,1143.909,1892.378,1151.925,1901.441,1155.654z"/>
		<path style="fill:#23659B;" d="M1927.975,1194.917c1.839,0.049,2.151-2.814,0.303-3.129c-13.319-2.61-25.386-6.872-25.506-6.914
			C1893.865,1187.207,1914.327,1192.04,1927.975,1194.917z"/>
		<path style="fill:#C16256;" d="M1836.558,825.238c0.412,0,0.813-0.216,1.029-0.601c0.32-0.568,0.118-1.287-0.45-1.606
			c-0.41-0.23-10.151-5.617-20.118-3.335c-0.635,0.146-1.031,0.779-0.886,1.414c0.145,0.635,0.774,1.03,1.414,0.886
			c9.087-2.082,18.341,3.039,18.434,3.091C1836.164,825.189,1836.362,825.238,1836.558,825.238z"/>
		<path style="fill:#C16256;" d="M1793.111,823.367c0.191,0,0.384-0.046,0.563-0.144c4.172-2.272,9.782-1.74,9.836-1.733
			c0.645,0.076,1.227-0.407,1.292-1.056c0.066-0.648-0.407-1.227-1.056-1.292c-0.257-0.028-6.396-0.609-11.201,2.009
			c-0.572,0.311-0.783,1.028-0.471,1.6C1792.288,823.144,1792.693,823.367,1793.111,823.367z"/>
		<path style="fill:#F99370;" d="M1905.616,846.818c-4.864,22.106-31.308,16.708-27.122-5.534
			C1883.359,819.178,1909.802,824.576,1905.616,846.818z"/>
		<path style="fill:#C16256;" d="M1898.453,851.396c-0.643-0.117-1.051-0.781-0.86-1.407c4.008-11.925-0.888-16.537-8.985-13.313
			c-1.324,0.554-2.167-1.549-0.822-2.06c9.214-3.842,16.841,1.956,11.932,16.007
			C1899.556,851.171,1899.004,851.499,1898.453,851.396z"/>
		<path style="fill:#C16256;" d="M1888.089,849.918c-2.894-0.621,3.223-10.825,11.663-11.534c0.61-0.043,1.143,0.414,1.187,1.025
			c0.045,0.611-0.414,1.143-1.025,1.188C1891.103,841.554,1890.524,849.873,1888.089,849.918z"/>
		<path style="fill:#F4D4BE;" d="M1887.105,859.849c0,2.734,2.216,4.95,4.95,4.95s4.95-2.216,4.95-4.95
			c0-2.734-2.216-4.95-4.95-4.95S1887.105,857.115,1887.105,859.849z"/>
		<path style="fill:#F9F8F3;" d="M1808.118,867.21l21.709-9.919C1831.428,870.061,1817.071,877.939,1808.118,867.21z"/>
		<path style="fill:#C16256;" d="M1808.173,868.137c-0.98,0.091-1.374-1.38-0.442-1.771c0.583,0.237,23.052-11.727,22.941-9.461
			c0.213,0.467,0.007,1.018-0.458,1.231C1829.782,858.262,1808.633,868.131,1808.173,868.137z"/>
	</g>
	<g id="_x32_">
		<rect x="331.92" y="1213.604" style="fill:#4867AA;" width="1731.581" height="78.242"/>
		<polygon style="fill:#305489;" points="2194.345,1195.412 201.076,1195.412 201.076,1227.13 322.396,1227.13 322.396,1771.023 
			349.806,1771.023 349.806,1227.13 2045.615,1227.13 2045.615,1771.023 2073.025,1771.023 2073.025,1227.13 2194.345,1227.13 		"/>
	</g>
	<g id="_x31_">
		<path style="fill:#3A72AA;" d="M2492.181,1542.351c-22.852-0.23-64.195-0.63-87.289-0.859
			c-3.125-22.592-48.291-404.101,3.955-516.048c22.299-53.91,70.437-46.688,87.08,7.594c8.753,24.809,13.073,53.389,15.832,81.414
			C2521.672,1257.189,2511.896,1355.482,2492.181,1542.351z"/>
		<path style="fill:#7689D6;" d="M2429.581,1543.492h-44.235C2154.202,1170.404,2425.332,792.299,2429.581,1543.492z"/>
		<path style="fill:#7689D6;" d="M2637.36,1140.003c-10.88,139.619-51.665,278.891-114.891,401.489l-50.862,2
			c-9.249-155.462-0.781-354.737,85.632-490.774c0.011,0,0.011-0.012,0.022-0.012c2.886-4.41,5.929-8.718,8.728-12.481H2566
			C2634.575,948.208,2643.372,1081.541,2637.36,1140.003z"/>
		<path style="fill:#F4A8A8;" d="M2538.137,1541.492c-4.652,44.788-16.732,152.176-21.602,198.404
			c0.578,9.217-27.514,15.426-61.842,15.634c-33.196-0.434-60.181-5.397-61.886-15.139c-2.754-25.012-19.305-177.518-21.657-198.898
			H2538.137z"/>
		<path style="fill:#3A72AA;" d="M2638.497,1094.337c-16.008-43.334-47.326-59.826-81.236-41.631
			c2.886-4.41,5.929-8.718,8.728-12.481c28.312-9.7,55.346,3.241,71.533,34.009
			C2637.543,1074.63,2638.475,1093.907,2638.497,1094.337z"/>
		<path style="fill:#3A72AA;" d="M2637.36,1140.003l-1.094,14.599l-0.054,0.647c-22.533-54.166-63.893-80.641-104.82-56.23
			c1.917-4.058,3.876-8.058,5.901-12.011C2576.906,1070.131,2614.287,1093.502,2637.36,1140.003z"/>
		<path style="fill:#3A72AA;" d="M2514.185,1140.638c45.328-9.982,88.623,19.321,115.486,68.852
			c-0.628,4.152-1.299,8.34-1.992,12.563c-26.209-53.353-70.562-85.302-116.743-72.146L2514.185,1140.638z"/>
		<path style="fill:#3A72AA;" d="M2618.594,1269.99c-0.769,3.635-1.57,7.293-2.393,10.975
			c-31.907-53.685-73.815-82.161-122.352-71.205c0.693-2.976,1.418-5.941,2.155-8.905
			C2543.161,1195.538,2574.849,1206.635,2618.594,1269.99z"/>
		<path style="fill:#3A72AA;" d="M2604.051,1330.102c-35.127-48.353-74.724-72.542-122.027-60.029
			c-0.487,3.035-0.953,6.07-1.397,9.105c47.156-14.603,85.941,10.808,120.738,60.665L2604.051,1330.102z"/>
		<path style="fill:#3A72AA;" d="M2585.697,1391.166l-2.848,8.482c-37.166-38.879-69.605-57.155-110.289-49.83
			c0.227-2.839,0.479-5.69,0.726-8.564C2514.56,1334.821,2548.114,1352.672,2585.697,1391.166z"/>
		<path style="fill:#3A72AA;" d="M2468.987,1415.14c34.849-7.803,62.195,8.5,91.545,44.302l-3.433,8.317
			c-28.678-35.989-54.474-52.732-88.339-43.984L2468.987,1415.14z"/>
		<path style="fill:#3A72AA;" d="M2541.516,1503.025c-1.124,2.489-2.31,4.936-3.487,7.399
			c-23.577-17.345-46.754-24.574-69.162-20.998c-0.065-2.682-0.13-5.447-0.195-8.293
			C2486.228,1478.5,2511.478,1481.127,2541.516,1503.025z"/>
		<path style="fill:#3A72AA;" d="M2404.892,1541.492l-3.368,2h-16.178c0,0-115.021-180.37-88.48-363.469
			c8.396-57.889,27.268-79.173,47.574-68.814l-0.762,0.95C2343.678,1112.159,2287.662,1277.307,2404.892,1541.492z"/>
		<path style="fill:#8A9EDD;" d="M2444.774,989.077c-11.756,126.915,3.348,519.272,6.779,553.533l7.558-0.518
			c-2.943-23.336-18.718-428.666-6.692-553.685L2444.774,989.077z"/>
		<path style="fill:#8A9EDD;" d="M2495.928,1033.037c-24.33,47.812-38.434,64.835-53.905,81.945
			c-12.724-10.324-31.691-32.8-45.588-49.372c0.725-3.282,1.473-6.482,2.263-9.599c11.176,13.468,30.41,36.373,42.783,47.936
			c16.491-20.062,30.187-38.958,50.57-80.698C2493.405,1026.309,2494.694,1029.567,2495.928,1033.037z"/>
		<path style="fill:#8A9EDD;" d="M2512.636,1124.369c-39.673,36.869-55.905,57.402-69.509,75.322
			c-20.706-8.933-42.932-34.082-57.229-51.912c0.072-1.017,0.79-11.01,0.834-11.693c11.678,15.149,34.365,42.583,54.175,53.465
			c17.408-21.895,34.612-42.08,70.851-75.098C2512.065,1117.681,2512.356,1121.03,2512.636,1124.369z"/>
		<path style="fill:#3A72AA;" d="M2492.181,1542.351h-73.667C2290.32,1180.689,2569.709,1054.308,2492.181,1542.351z"/>
		<path style="fill:#8A9EDD;" d="M2492.181,1542.351h-36.85c45.437-175.856-18.409-319.838-18.409-319.838
			C2487.849,1214.623,2535.279,1318.797,2492.181,1542.351z"/>
		<path style="fill:#F29999;" d="M2538.137,1541.492l-3.692,33.914h-159.602l-3.292-30.256
			C2411.178,1541.707,2497.822,1540.901,2538.137,1541.492z"/>
		<path style="fill:#F4A8A8;" d="M2533.395,1557.472h-157.5c-6.761,0-12.466-5.241-13.313-12.229
			c-1.012-8.35,5.235-15.731,13.313-15.731h157.5C2551.057,1529.849,2551.009,1557.175,2533.395,1557.472z"/>
		<path style="fill:#F29999;" d="M2516.535,1739.896c2.752,20.056-124.151,20.446-123.727,0.494c0,0,114.025,10.917,137.869-130.387
			L2516.535,1739.896z"/>
	</g>
</g>
</svg>
