<?xml version="1.0" encoding="utf-8"?>
<!-- Generator: Adobe Illustrator 27.5.0, SVG Export Plug-In . SVG Version: 6.00 Build 0)  -->
<svg version="1.1" xmlns="http://www.w3.org/2000/svg" xmlns:xlink="http://www.w3.org/1999/xlink" x="0px" y="0px"
	 viewBox="0 0 3710 3710" style="enable-background:new 0 0 3710 3710;" xml:space="preserve">
<g id="Background">
	<g>
		<g>
			<rect style="fill:#eff3fd;"  width="3710" height="3710"/>
		</g>
	</g>
</g>
<g id="Illustration">
	<g>
		<path style="fill:#D8DEE8;" d="M3212.153,1644.041c-75.8-496.145-386.579-1105.695-1000.556-1169.485
			c0,0-466.161-56.701-925.693,29.235c-272.733,51.003-511.88,202.829-663.201,421.041
			c-151.324,218.212-201.871,484.291-140.526,737.965c39.843,164.763,66.767,335.287,59.378,504.591
			c-12.86,294.658-5.461,569.7,280.498,745.425c255.328,156.904,576.663,295.287,883.22,319.525
			c208.334,16.472,441.968-10.184,642.763-64.423C3371.333,2891.491,3287.953,2140.186,3212.153,1644.041z"/>
		<path style="fill:#D8DEE8;" d="M3138.75,1797.396l-78.941-10.354c-1.634-38.225-6.442-75.752-14.558-112.168l73.237-30.664
			c20.588-8.616,30.331-32.406,21.755-53.117l-53.49-129.293c-8.537-20.636-32.108-30.414-52.664-21.846l-73.642,30.708
			c-20.056-31.497-42.771-61.173-67.961-88.636l48.658-63.518c13.535-17.677,10.227-42.969-7.378-56.5l-110.006-84.511
			c-17.569-13.499-42.803-10.167-56.37,7.45l-48.971,63.597c-32.481-16.847-66.775-30.87-102.532-41.97l10.921-79.865
			c3.003-21.977-12.377-42.12-34.353-45l-137.433-18.03c-21.977-2.88-42.279,12.583-45.345,34.552l-11.242,80.472
			c-37.317,1.706-74.022,6.518-109.736,14.543l-30.414-75.078c-8.299-20.481-31.727-30.196-52.339-21.707l-129.031,53.16
			c-20.656,8.509-30.716,32.048-22.457,52.585l30.577,76.029c-31.259,19.906-60.828,42.45-88.307,67.433l-64.879-50.284
			c-17.494-13.559-42.886-10.207-56.723,7.497l-86.689,110.902c-13.884,17.768-10.957,43.219,6.565,56.838l65.057,50.578
			c-17.327,32.54-31.89,66.917-43.64,102.754l-82.555-10.83c-22.163-2.904-42.815,12.825-46.123,35.147l-20.751,139.889
			c-3.324,22.413,12,42.961,34.226,45.877l82.801,10.861c0.984,37.761,5.109,74.915,12.448,111.061l-77.696,32.398
			c-20.953,8.735-31.243,32.83-22.984,53.827l51.764,131.534c8.295,21.072,32.045,31.041,53.037,22.25l77.743-32.548
			c19.541,31.806,41.843,61.796,66.592,89.667l-51.796,67.263c-14.023,18.216-11.02,44.262,6.72,58.178l111.061,87.125
			c17.776,13.952,43.548,10.437,57.544-7.843l51.185-66.818c32.691,17.415,67.286,31.898,103.369,43.453l-11.651,83.4
			c-3.189,22.83,12.396,43.731,34.821,46.675l140.21,18.39c22.421,2.94,43.128-13.206,46.25-36.043l11.318-82.769
			c38.122-1.626,75.593-6.553,112.041-14.777l30.755,76.474c8.537,21.231,32.433,31.259,53.367,22.385l130.761-55.406
			c20.882-8.846,30.85-33.195,22.274-54.374l-30.759-75.922c31.922-20.596,61.983-44.001,89.87-69.873l63.903,49.685
			c17.859,13.888,43.473,10.393,57.191-7.795l85.629-113.513c13.67-18.121,10.282-44.009-7.545-57.833l-63.335-49.086
			c17.272-33.469,31.592-68.818,42.977-105.599l79.179,10.385c22.23,2.916,42.589-12.952,45.469-35.428l17.97-140.25
			C3176.562,1820.793,3160.917,1800.304,3138.75,1797.396z M2920.698,1880.709c-36.948,278.452-291.146,476.031-567.567,439.778
			c-276.425-36.257-467.938-292.296-427.98-570.356c39.716-276.381,293.387-470.148,566.809-434.283
			C2765.378,1351.708,2957.415,1603.931,2920.698,1880.709z"/>
		<path style="fill:#D8DEE8;" d="M1745.974,1001.691l-58.791-7.711c-1.217-28.468-4.798-56.416-10.843-83.537l54.543-22.837
			c15.333-6.417,22.589-24.134,16.202-39.558l-39.836-96.291c-6.358-15.369-23.912-22.651-39.222-16.27l-54.844,22.87
			c-14.937-23.457-31.854-45.559-50.614-66.012l36.238-47.305c10.08-13.164,7.616-32.001-5.495-42.079l-81.927-62.939
			c-13.085-10.054-31.877-7.572-41.981,5.548l-36.471,47.364c-24.19-12.547-49.73-22.991-76.361-31.257l8.133-59.48
			c2.236-16.367-9.218-31.369-25.585-33.514l-102.353-13.428c-16.367-2.145-31.487,9.371-33.771,25.732l-8.373,59.932
			c-27.792,1.27-55.128,4.854-81.726,10.831l-22.651-55.914c-6.18-15.253-23.629-22.488-38.979-16.166l-96.096,39.591
			c-15.383,6.337-22.875,23.868-16.724,39.163l22.772,56.623c-23.28,14.825-45.302,31.614-65.766,50.221l-48.318-37.449
			c-13.029-10.098-31.939-7.602-42.244,5.584l-64.561,82.594c-10.34,13.232-8.16,32.188,4.889,42.33l48.451,37.668
			c-12.905,24.234-23.75,49.837-32.501,76.526l-61.483-8.065c-16.506-2.162-31.886,9.551-34.35,26.176l-15.454,104.182
			c-2.476,16.692,8.937,31.995,25.49,34.167l61.666,8.089c0.733,28.122,3.805,55.793,9.271,82.713l-57.864,24.128
			c-15.605,6.505-23.268,24.45-17.117,40.087l38.551,97.96c6.177,15.693,23.865,23.118,39.5,16.571l57.899-24.24
			c14.553,23.688,31.162,46.023,49.594,66.78l-38.575,50.094c-10.443,13.566-8.207,32.964,5.005,43.328l82.713,64.886
			c13.238,10.39,32.433,7.773,42.856-5.841l38.12-49.763c24.347,12.969,50.112,23.756,76.984,32.362l-8.677,62.112
			c-2.375,17.002,9.232,32.569,25.933,34.761l104.421,13.696c16.698,2.189,32.12-9.835,34.445-26.843l8.429-61.642
			c28.391-1.211,56.298-4.88,83.442-11.005l22.905,56.954c6.358,15.812,24.155,23.28,39.745,16.671l97.384-41.263
			c15.552-6.588,22.976-24.722,16.589-40.495l-22.908-56.543c23.773-15.339,46.161-32.769,66.93-52.038l47.591,37.003
			c13.3,10.343,32.377,7.74,42.593-5.805l63.772-84.538c10.181-13.495,7.658-32.775-5.619-43.071l-47.169-36.557
			c12.863-24.926,23.528-51.252,32.007-78.644l58.969,7.734c16.556,2.171,31.718-9.646,33.863-26.385l13.383-104.451
			C1774.135,1019.116,1762.483,1003.857,1745.974,1001.691z M1583.58,1063.738c-27.517,207.377-216.831,354.523-422.695,327.524
			c-205.867-27.003-348.496-217.687-318.737-424.772c29.579-205.835,218.5-350.142,422.13-323.432
			C1467.906,669.766,1610.925,857.608,1583.58,1063.738z"/>
		<g>
			<g>
				<linearGradient id="SVGID_1_" gradientUnits="userSpaceOnUse" x1="1419.0576" y1="875.4388" x2="2313.9185" y2="875.4388">
					<stop  offset="0" style="stop-color:#444B8C"/>
					<stop  offset="0.9964" style="stop-color:#26264F"/>
				</linearGradient>
				<path style="fill:url(#SVGID_1_);" d="M1866.488,534.781c-97.455,0-187.623,23.727-261.084,63.979
					c-112.861,61.834-186.347,162.728-186.347,276.678c0,64.695,23.672,125.179,64.825,176.711l-43.165,114.745
					c-3.387,8.995,2.497,18.183,11.093,19.834l-0.012,0.016c0,0,0.138,0.015,0.333,0.036c0.658,0.111,1.328,0.175,2.013,0.195
					c4.432,0.395,14.154,1.06,20.318-0.019c-0.549-1.007-1.125-2.036-1.713-3.065c40.561-7.525,102.201-18.842,143.702-25.922
					c71.365,36.704,157.405,58.128,250.037,58.128c135.823,0,257.533-46.078,339.596-118.849
					c67.213-59.583,107.834-137.069,107.834-221.809C2313.918,687.288,2113.586,534.781,1866.488,534.781z"/>
				<g>
					<g>
						
							<linearGradient id="SVGID_00000147904758996393341630000002077620976170184122_" gradientUnits="userSpaceOnUse" x1="1437.7324" y1="875.4388" x2="2332.5945" y2="875.4388">
							<stop  offset="0.0036" style="stop-color:#4b9f61"/>
							<stop  offset="1" style="stop-color:#367cb5"/>
						</linearGradient>
						<path style="fill:url(#SVGID_00000147904758996393341630000002077620976170184122_);" d="M2332.594,875.438
							c0,84.741-40.622,162.226-107.834,221.809c-82.064,72.771-203.773,118.849-339.597,118.849
							c-92.634,0-178.672-21.424-250.038-58.127c-47.191,8.05-120.439,21.583-159.101,28.785
							c-11.361,2.119-20.709-9.03-16.631-19.861l43.164-114.744c-41.152-51.533-64.825-112.017-64.825-176.711
							c0-113.95,73.486-214.844,186.348-276.678c73.46-40.252,163.629-63.979,261.083-63.979
							C2132.261,534.781,2332.594,687.288,2332.594,875.438z"/>
						
							<linearGradient id="SVGID_00000004530270397779782900000010491634103171097496_" gradientUnits="userSpaceOnUse" x1="1503.1417" y1="680.5091" x2="2197.5088" y2="1594.9758">
							<stop  offset="0.0036" style="stop-color:#367cb5"/>
							<stop  offset="1" style="stop-color:#9571F6"/>
						</linearGradient>
						<path style="opacity:0.3;fill:url(#SVGID_00000004530270397779782900000010491634103171097496_);" d="M2224.76,1097.247
							c-82.064,72.771-203.773,118.849-339.597,118.849c-92.634,0-178.672-21.424-250.038-58.127
							c-47.191,8.05-120.439,21.583-159.101,28.785c-11.361,2.119-20.709-9.03-16.631-19.861l43.164-114.744
							c-41.152-51.533-64.825-112.017-64.825-176.711c0-113.95,73.486-214.844,186.348-276.678
							c59.027,8.024,110.271,28.547,141.386,69.726c68.454,90.699-8.767,217.916,62.707,282.292
							c70.944,63.847,184.364-27.673,287.51,15.677C2154.452,982.742,2194.254,1019.154,2224.76,1097.247z"/>
					</g>
				</g>
			</g>
			<g>
				<path style="fill:#FFFFFF;" d="M1906.326,706.116c0,12.656-9.999,22.916-22.357,22.916c-12.386,0-22.447-10.301-22.447-23.008
					c0-12.707,10.061-22.967,22.447-22.916C1896.327,683.159,1906.326,693.46,1906.326,706.116z"/>
				<path style="fill:#FFFFFF;" d="M1902.886,639.623c0,10.709-8.461,19.337-18.917,19.271c-10.475-0.066-18.981-8.83-18.981-19.575
					s8.506-19.373,18.981-19.271C1894.424,620.151,1902.886,628.914,1902.886,639.623z"/>
				<g>
					<g>
						<path style="fill:#FFFFFF;" d="M1743.748,705.781c0,12.84-10.292,23.25-23.014,23.249c-12.75,0-23.108-10.452-23.108-23.344
							s10.357-23.302,23.108-23.249C1733.456,682.489,1743.748,692.941,1743.748,705.781z"/>
						<path style="fill:#FFFFFF;" d="M1837.667,889.513c-0.823-0.887-1.974-1.61-3.177-1.593l-225.555,3.187
							c-1.253,0.018-2.451,0.787-3.308,1.714c-0.862,0.93-1.299,2.284-1.218,3.535c3.264,48.739,55.319,86.424,118.425,85.022
							c62.406-1.387,112.866-40.604,115.999-88.465C1838.908,891.687,1838.49,890.401,1837.667,889.513z"/>
						<g>
							<polygon style="fill:#FFFFFF;" points="1818.624,895.449 1720.803,716.374 1624.361,898.262 1615.329,893.551 
								1720.666,695.094 1827.271,890.453 							"/>
						</g>
					</g>
					<g>
						<path style="fill:#FFFFFF;" d="M2060.361,706.434c0,12.482-9.725,22.6-21.744,22.6c-12.046,0-21.83-10.159-21.83-22.689
							c0-12.531,9.784-22.649,21.83-22.599C2050.636,683.794,2060.361,693.952,2060.361,706.434z"/>
						<path style="fill:#FFFFFF;" d="M2149.124,885.068c-0.778-0.863-1.866-1.566-3.004-1.55l-213.101,3.011
							c-1.183,0.017-2.314,0.764-3.124,1.665c-0.814,0.903-1.226,2.219-1.151,3.435c3.082,47.362,52.242,84.014,111.854,82.689
							c58.97-1.311,106.664-39.41,109.626-85.943C2150.298,887.181,2149.902,885.93,2149.124,885.068z"/>
						<g>
							<polygon style="fill:#FFFFFF;" points="2131.123,890.831 2038.682,716.731 1947.587,893.487 1939.058,888.905 
								2038.552,696.047 2139.297,885.977 							"/>
						</g>
					</g>
				</g>
				<path style="fill:#FFFFFF;" d="M2033.823,708.851c0,4.777-0.343,6.017-5.201,6.011l-292.735-0.377
					c-5.123-0.007-14.047-1.292-14.047-6.204v-2.541c0-4.911,9.002-8.751,14.125-8.737l292.071,0.826
					c4.858,0.014,5.786,3.772,5.786,8.549V708.851z"/>
				<path style="fill:#FFFFFF;" d="M1886.403,1018.182c0,6.321,1.01,10.368-3.712,10.494l-2.131,0.065
					c-4.727,0.127-7.871-3.794-7.871-10.124V648.55c0-6.33,5.2-13.576,9.927-13.532l0.815,0.023
					c4.721,0.044,2.972,7.309,2.972,13.63V1018.182z"/>
				<path style="fill:#FFFFFF;" d="M1835.031,1043.884c0-27.728,21.963-39.535,48.938-40.197
					c26.845-0.659,48.513,9.98,48.513,37.468L1835.031,1043.884z"/>
				<path style="fill:#FFFFFF;" d="M1964.886,1038.534c0,6.622-5.202,12.141-11.626,12.327l-144.848,4.191
					c-6.6,0.191-11.956-5.104-11.956-11.827l0,0c0-6.723,5.356-12.316,11.956-12.493l144.848-3.878
					C1959.684,1026.683,1964.886,1031.912,1964.886,1038.534L1964.886,1038.534z"/>
			</g>
		</g>
		<g>
			<ellipse style="fill:#B7C0CE;" cx="896.893" cy="2772.112" rx="247.998" ry="101.214"/>
			<path style="fill:#D8DEE8;" d="M648.896,2760.242c0,52.767,111.032,95.544,247.997,95.544
				c136.966,0,247.998-42.777,247.998-95.544c0-52.766-111.032-139.105-247.998-139.105
				C759.928,2621.137,648.896,2707.477,648.896,2760.242z"/>
			<path style="fill:#B7C0CE;" d="M648.896,2760.242c0-52.767,111.032-139.105,247.997-139.105
				c63.241,0,120.921,18.425,164.728,43.435c3.066,6.423,4.495,12.811,3.914,18.875c-2.844,29.688-51.265,47.941-79.059,53.959
				c-69.991,15.16-104.171-26.694-161.88-25.098c-35.679,0.986-85.121,18.91-143.764,94.818
				C660.533,2793.275,648.896,2777.286,648.896,2760.242z"/>
			<path style="fill:#FFFFFF;" d="M883.31,2669.064c9.909,2.466,19.154,2.369,27.852,0.159c7.889-2.003,13.305-9.303,13.305-17.444
				l-0.002-279.639H869.32v279.309C869.32,2659.841,875.169,2667.038,883.31,2669.064z"/>
			
				<linearGradient id="SVGID_00000064329774646928226720000014898729165991547564_" gradientUnits="userSpaceOnUse" x1="2805.2529" y1="2521.519" x2="2860.3999" y2="2521.519" gradientTransform="matrix(-1 0 0 1 3729.7202 0)">
				<stop  offset="0" style="stop-color:#D0D1D3"/>
				<stop  offset="0.9964" style="stop-color:#EBEFF2"/>
			</linearGradient>
			<path style="fill:url(#SVGID_00000064329774646928226720000014898729165991547564_);" d="M883.31,2669.064
				c9.909,2.466,19.154,2.369,27.852,0.159c7.889-2.003,13.305-9.303,13.305-17.444l-0.002-279.639H869.32v279.309
				C869.32,2659.841,875.169,2667.038,883.31,2669.064z"/>
			<g>
				
					<linearGradient id="SVGID_00000110464199910674845710000006433037857144588419_" gradientUnits="userSpaceOnUse" x1="3121.0969" y1="2470.7212" x2="3005.7434" y2="2320.4119" gradientTransform="matrix(-1 0 0 1 3729.7202 0)">
					<stop  offset="0" style="stop-color:#367cb5"/>
					<stop  offset="1" style="stop-color:#367cb5"/>
				</linearGradient>
				<path style="fill:url(#SVGID_00000110464199910674845710000006433037857144588419_);" d="M1188.277,2254.452
					c-39.469-25.829-78.94-51.659-118.41-77.488c8.702-24.952,27.634-90.042,5.953-167.443
					c-8.152-29.103-28.103-100.331-88.558-135.443c-53.629-31.146-85.447-2.696-262.495,12.06
					c-118.46,9.873-142.85,0.356-162.437,25.15c-36.293,45.941,29.32,101.554,14.727,243.333
					c-5.351,51.983-17.541,78.659-1.81,116.336c18.297,43.825,60.731,68.117,93.725,81.79
					c39.439,22.903,108.108,55.538,198.805,63.486c152.774,13.389,266.828-52.146,306.049-77.22
					c17.441-5.5,30.546-20.002,34.254-37.909C1211.839,2282.947,1203.95,2264.359,1188.277,2254.452z"/>
				
					<linearGradient id="SVGID_00000124148268303871216960000000451471458166312110_" gradientUnits="userSpaceOnUse" x1="833.956" y1="2161.8372" x2="804.1887" y2="1742.1141">
					<stop  offset="0" style="stop-color:#4b9f61"/>
					<stop  offset="1" style="stop-color:#4b9f61"/>
				</linearGradient>
				<path style="fill:url(#SVGID_00000124148268303871216960000000451471458166312110_);" d="M707.781,1897.262
					c-57.167,1.693-92.693,1.028-112.339,26.554c-20.625,26.793,0.22,49.628,4.083,145.02
					c3.523,86.965-11.81,121.352,16.292,169.547c0,0,14.281,24.489,36.828,42.886c79.669,65.007,285.217,64.22,371.729-71.498
					c69.019-108.275,40.242-267.869-40.851-320.679C943.793,1863.22,934.674,1890.543,707.781,1897.262z"/>
				
					<linearGradient id="SVGID_00000034059418581118368990000012310590607883346355_" gradientUnits="userSpaceOnUse" x1="783.5894" y1="2129.426" x2="1298.5677" y2="2550.6367">
					<stop  offset="0" style="stop-color:#4b9f61"/>
					<stop  offset="1" style="stop-color:#4b9f61"/>
				</linearGradient>
				<path style="fill:url(#SVGID_00000034059418581118368990000012310590607883346355_);" d="M1194.404,2206.626l-84.245-53.256
					c0,0-225.651-74.187-434.436,30.413c-23.377,11.716-37.926,35.902-37.926,62.052c0,20.064,12.051,38.166,30.564,45.907
					c36.421,24.865,107.528,65.921,205.544,76.667c155.831,17.082,271.773-54.276,306.049-77.223
					c17.44-5.498,30.544-20,34.252-37.908C1217.967,2235.121,1210.078,2216.532,1194.404,2206.626z"/>
			</g>
		</g>
		<g>
			<g>
				
					<linearGradient id="SVGID_00000129900292007748372140000013001648321547726237_" gradientUnits="userSpaceOnUse" x1="1449.7435" y1="3100.2693" x2="1504.8782" y2="3268.5498" gradientTransform="matrix(0.9129 0.4081 -0.4081 0.9129 1802.6796 -2334.396)">
					<stop  offset="0" style="stop-color:#FFC444"/>
					<stop  offset="0.9964" style="stop-color:#F36F56"/>
				</linearGradient>
				<path style="fill:url(#SVGID_00000129900292007748372140000013001648321547726237_);" d="M1846.585,1204.689l-1.806-26.453
					c0,0-9.487-6.826-10.888-16.413c-1.4-9.587-1.4-9.587-1.4-9.587s1.136-8.905,13.544-13.574c2.804-1.055,5.01-3.292,5.827-6.173
					c2.452-8.656,7.489-26.357,8.918-30.821c0.944-2.954,3.593-5.796,6.028-7.915c1.66-1.443,4.211-0.079,3.871,2.094l-5.872,37.584
					c0,0,8.12,1.422,7.884,8.679c0,0,4.626,6.584,2.638,13.565c-1.986,6.983-10.031,22.41-10.031,22.41l-0.083,27.019
					L1846.585,1204.689z"/>
				
					<linearGradient id="SVGID_00000139982591669829916260000017400675732671301006_" gradientUnits="userSpaceOnUse" x1="6299.0063" y1="1954.7186" x2="6541.4043" y2="1394.6315" gradientTransform="matrix(-1 0 0 1 8167.8438 0)">
					<stop  offset="0" style="stop-color:#444B8C"/>
					<stop  offset="0.9964" style="stop-color:#3E4177"/>
				</linearGradient>
				<path style="fill:url(#SVGID_00000139982591669829916260000017400675732671301006_);" d="M1379.964,1464.003
					c7.122-28.7,26.509-52.858,52.905-66.186c26.397-13.328,57.281-14.531,84.617-3.256
					c84.968,35.048,176.483,26.178,237.587-22.872c75.043-60.24,77.929-159.981,78.161-177.225
					c14.98,0.305,29.961,0.61,44.941,0.916c8.678,26.429,60.615,193.211-32.788,328.79
					c-109.161,158.449-366.336,208.535-447.698,111.537C1360.947,1591.903,1365.068,1524.03,1379.964,1464.003z"/>
				
					<linearGradient id="SVGID_00000174565435332491423390000002318755113416230319_" gradientUnits="userSpaceOnUse" x1="3551.9226" y1="2642.8062" x2="3639.5566" y2="2642.8062" gradientTransform="matrix(-0.996 0.0897 0.0897 0.996 4598.5708 -160.4537)">
					<stop  offset="0" style="stop-color:#444B8C"/>
					<stop  offset="0.9964" style="stop-color:#26264F"/>
				</linearGradient>
				<path style="fill:url(#SVGID_00000174565435332491423390000002318755113416230319_);" d="M1215.978,2777.424
					c-4.547,4.18-4.834,13.944-5.021,20.325c-0.086,2.851-0.127,4.277,0.251,5.26c2.757,7.164,16.97,7.068,39.323,7.983
					c35.326,1.447,45.94,3.573,48.371-1.818c2.276-5.053-4.444-12.69-5.199-13.531c-4.062-4.521-8.798-5.968-17.929-8.368
					c-16.895-4.442-28.268-6.745-31.711-7.442C1222.56,2775.474,1218.964,2774.68,1215.978,2777.424z"/>
				
					<linearGradient id="SVGID_00000084530931135457275310000003022479923963699355_" gradientUnits="userSpaceOnUse" x1="3125.7925" y1="2644.0344" x2="3164.2407" y2="2564.4558" gradientTransform="matrix(-0.9976 0.0694 0.0694 0.9976 4182.6445 -60.6691)">
					<stop  offset="0" style="stop-color:#FFC444"/>
					<stop  offset="0.9964" style="stop-color:#F36F56"/>
				</linearGradient>
				<path style="fill:url(#SVGID_00000084530931135457275310000003022479923963699355_);" d="M1240.754,2742.198l1.377,40.21
					c-1.101,1.88-13.306,7.042-22.49,1.565l-6.93-39.823L1240.754,2742.198z"/>
				
					<linearGradient id="SVGID_00000016034314203420712300000006237766850547056769_" gradientUnits="userSpaceOnUse" x1="3089.2017" y1="2381.9492" x2="3182.3064" y2="2381.9492" gradientTransform="matrix(-0.977 0.2133 0.2133 0.977 4110.0762 -210.6557)">
					<stop  offset="0" style="stop-color:#444B8C"/>
					<stop  offset="0.9964" style="stop-color:#26264F"/>
				</linearGradient>
				<path style="fill:url(#SVGID_00000016034314203420712300000006237766850547056769_);" d="M1513.541,2771.865
					c-6.073,6.028-8.004,17.622-3.323,23.634c4.6,5.911,12.199,2.068,33.072,3.807c22.358,1.866,27.923,7.467,43.366,4.081
					c6.239-1.371,17.318-4.913,17.346-9.315c0.02-3.095-5.423-4.984-23.557-12.156c-25.74-10.179-25.599-10.653-31.115-11.872
					C1535.475,2766.982,1521.563,2763.907,1513.541,2771.865z"/>
				
					<linearGradient id="SVGID_00000094617490991772573100000017060535224141556358_" gradientUnits="userSpaceOnUse" x1="2969.1794" y1="2510.6531" x2="3008.4414" y2="2429.3896" gradientTransform="matrix(-0.9894 0.1453 0.1453 0.9894 4116.604 -128.6684)">
					<stop  offset="0" style="stop-color:#FFC444"/>
					<stop  offset="0.9964" style="stop-color:#F36F56"/>
				</linearGradient>
				<path style="fill:url(#SVGID_00000094617490991772573100000017060535224141556358_);" d="M1529.84,2736.106l9.237,37.963
					c-0.956,1.958-12.732,8.034-22.306,3.276l-14.745-37.156L1529.84,2736.106z"/>
				
					<linearGradient id="SVGID_00000173849021883429510500000015270347202363060143_" gradientUnits="userSpaceOnUse" x1="-185.6261" y1="2655.3779" x2="-433.955" y2="2095.5854" gradientTransform="matrix(0.9986 0.0533 -0.0533 0.9986 1904.4438 -19.3005)">
					<stop  offset="0" style="stop-color:#444B8C"/>
					<stop  offset="0.9964" style="stop-color:#3E4177"/>
				</linearGradient>
				<path style="fill:url(#SVGID_00000173849021883429510500000015270347202363060143_);" d="M1473.738,1912.471
					c-5.096,125.654-4.067,267.298,8.303,421.785c12.223,152.688,33.385,291.19,58.016,413.302
					c-14.537,3.091-29.073,6.182-43.61,9.271c-34.548-35.843-77.563-91.66-95.667-168.258
					c-11.236-47.542-5.373-71.35-11.012-129.388c-8.977-92.411-34.513-141.938-59.609-217.409
					c-22.551-67.82-48.196-166.954-57.777-298.146C1339.501,1933.243,1406.62,1922.857,1473.738,1912.471z"/>
				
					<linearGradient id="SVGID_00000036949951675296555210000005514611093613903531_" gradientUnits="userSpaceOnUse" x1="-224.136" y1="2672.4602" x2="-472.4647" y2="2112.6685" gradientTransform="matrix(0.9986 0.0533 -0.0533 0.9986 1904.4438 -19.3005)">
					<stop  offset="0" style="stop-color:#444B8C"/>
					<stop  offset="0.9964" style="stop-color:#3E4177"/>
				</linearGradient>
				<path style="opacity:0.3;fill:url(#SVGID_00000036949951675296555210000005514611093613903531_);" d="M1453.661,2499.707
					c-16.007-63.391-46.844-80.153-47.942-139.988c-0.777-42.324,14.433-45.785,13.424-86.296
					c-1.531-61.448-37.528-93.667-55.613-132.319c-19.1-40.822-26.418-106.391,25.057-215.456
					c-38.735,5.994-77.47,11.989-116.205,17.982c9.582,131.192,35.226,230.327,57.777,298.146
					c25.096,75.473,50.631,125,59.609,217.41c5.638,58.038-0.224,81.847,11.012,129.387c18.104,76.599,61.12,132.415,95.667,168.259
					c3.698-0.787,7.395-1.571,11.092-2.358c-37.347-44.578-50.525-84.389-53.877-116.692
					C1448.207,2585.224,1469.798,2563.622,1453.661,2499.707z"/>
				
					<linearGradient id="SVGID_00000142142345516788522980000017858816743993729153_" gradientUnits="userSpaceOnUse" x1="-719.7459" y1="2516.5889" x2="-968.0809" y2="1956.7826" gradientTransform="matrix(0.9976 -0.0694 0.0694 0.9976 1981.1305 92.9864)">
					<stop  offset="0" style="stop-color:#444B8C"/>
					<stop  offset="0.9964" style="stop-color:#3E4177"/>
				</linearGradient>
				<path style="fill:url(#SVGID_00000142142345516788522980000017858816743993729153_);" d="M1328.443,1904.616
					c-17.3,159.232-33.202,321.521-47.508,486.783c-10.738,124.013-20.3,246.51-28.766,367.444
					c-14.735,1.025-29.471,2.052-44.206,3.076c-12.738-27.091-29.376-68.357-39.49-120.651
					c-12.285-63.512-6.678-100.54-10.063-165.865c-3.801-73.268-14.126-89.737-29.009-182.702
					c-30.208-188.671-45.313-283.007,2.594-338.628C1147.544,1936.016,1195.667,1891.206,1328.443,1904.616z"/>
				
					<linearGradient id="SVGID_00000057143942494013131050000016028100942549398967_" gradientUnits="userSpaceOnUse" x1="1079.6271" y1="4408.4307" x2="1517.9922" y2="3395.54" gradientTransform="matrix(0.9129 0.4081 -0.4081 0.9129 1802.6796 -2334.396)">
					<stop  offset="0" style="stop-color:#444B8C"/>
					<stop  offset="0.9964" style="stop-color:#3E4177"/>
				</linearGradient>
				<path style="opacity:0.3;fill:url(#SVGID_00000057143942494013131050000016028100942549398967_);" d="M1899.814,1356.436
					c-8.598,17.505-18.794,30.572-29.038,40.447c-37.087,35.747-93.176,48.849-106.334,101.607
					c-6.576,26.367,2.987,40.923-10.44,56.25c-19.031,21.724-50.351,6.305-97.007,19.654
					c-41.389,11.841-53.553,34.509-78.573,48.899c-33.882,19.49-93.059,24.715-204.142-34.993
					c4.41,17.51,11.873,33.655,23.408,47.407c81.364,96.999,338.539,46.912,447.7-111.537
					C1882.995,1469.581,1897.019,1409.944,1899.814,1356.436z"/>
				
					<linearGradient id="SVGID_00000014593952956902617800000000033491381219838086_" gradientUnits="userSpaceOnUse" x1="-1037.9524" y1="2008.2263" x2="-658.2557" y2="1130.8959" gradientTransform="matrix(1 0 0 1 2142.0237 0)">
					<stop  offset="0" style="stop-color:#444B8C"/>
					<stop  offset="0.9964" style="stop-color:#3E4177"/>
				</linearGradient>
				<path style="fill:url(#SVGID_00000014593952956902617800000000033491381219838086_);" d="M946.826,1409.466
					c79.598-26.987,201.049-56.892,349.585-50.771c86.047,3.545,160.024,18.31,218.638,34.729
					c7.925,44.323,15.85,88.648,23.775,132.97c1.823,44.442,2.41,104.642-2.583,175.771c-4.993,71.124-9.881,72.196-21.319,172.594
					c-18.648,163.692-10.849,206.458-43.747,226.121c-21.397,12.789-29.137-2.649-138.327-13.471
					c-73.217-7.257-110.583-10.63-147.66,1.917c-50.49,17.084-67.385,45.768-88.214,36.436
					c-19.973-8.952-22.517-43.435-24.929-103.555c-3.721-92.743-3.492-155.78-3.836-178.343
					c-1.574-103.529-27.79-182.576-61.365-283.814C985.844,1496.731,963.725,1445.485,946.826,1409.466z"/>
				
					<linearGradient id="SVGID_00000073695026888904392120000000374435905991206046_" gradientUnits="userSpaceOnUse" x1="-1081.8116" y1="1826.1389" x2="-1064.1866" y2="1879.9333" gradientTransform="matrix(1 0 0 1 2142.0237 0)">
					<stop  offset="0" style="stop-color:#FFC444"/>
					<stop  offset="0.9964" style="stop-color:#F36F56"/>
				</linearGradient>
				<path style="fill:url(#SVGID_00000073695026888904392120000000374435905991206046_);" d="M1020.266,1843.949l26.35-1.472
					c0,0,28.87-24.159,42.011-22.652c13.14,1.507,32.797,10.625,35.194,12.538c2.397,1.913-7.192,12.627-16.78,11.585
					c-9.588-1.043-30.984,4.131-34.811,12.578c-3.826,8.446-20.433,13.548-23.254,8.594l-35.421,7.031L1020.266,1843.949z"/>
				
					<linearGradient id="SVGID_00000122708482857363969540000014776684437592968583_" gradientUnits="userSpaceOnUse" x1="-1328.9075" y1="1882.304" x2="-949.2097" y2="1004.9707" gradientTransform="matrix(1 0 0 1 2142.0237 0)">
					<stop  offset="0" style="stop-color:#444B8C"/>
					<stop  offset="0.9964" style="stop-color:#3E4177"/>
				</linearGradient>
				<path style="fill:url(#SVGID_00000122708482857363969540000014776684437592968583_);" d="M1028.238,1834.729
					c1.845,21.617-2.864,36.299-10.721,46.367c-34.827,44.625-153.188,26.378-223.535-33.396
					c-52.072-44.245-79.643-112.948-78.625-174.508c1.987-120.12,113.309-237.822,278.901-278.487
					c24.512,73.274,49.024,146.545,73.536,219.819c-102.09,1.557-164.114,78.517-154.916,133.457
					C919.729,1788.91,967.464,1825.725,1028.238,1834.729z"/>
				
					<linearGradient id="SVGID_00000078748366287801200240000010815472108081529781_" gradientUnits="userSpaceOnUse" x1="-968.1592" y1="2038.4315" x2="-588.4595" y2="1161.0939" gradientTransform="matrix(1 0 0 1 2142.0237 0)">
					<stop  offset="0" style="stop-color:#444B8C"/>
					<stop  offset="0.9964" style="stop-color:#3E4177"/>
				</linearGradient>
				<path style="opacity:0.3;fill:url(#SVGID_00000078748366287801200240000010815472108081529781_);" d="M1428.73,2047.139
					c-53.705-22.916-53.394-70.34-103.553-90.131c-71.576-28.243-150.656,37.369-163.002,19.176
					c-12.849-18.931,81.6-76.983,69.036-134.236c-9.985-45.5-75.914-37.436-111.225-99.719
					c-33.497-59.082-1.022-113.706-30.683-134.238c-10.637-7.364-29.401-10.27-64.977,5.386
					c24.807,77.475,42.594,145.796,43.882,230.487c0.343,22.564,0.114,85.601,3.836,178.343
					c2.412,60.12,4.956,94.603,24.929,103.555c20.829,9.332,37.724-19.351,88.214-36.436c37.078-12.547,74.443-9.175,147.66-1.917
					c109.19,10.822,116.93,26.261,138.327,13.471c13.935-8.329,20.559-20.852,24.994-44.909
					C1474.278,2058.333,1451.056,2056.664,1428.73,2047.139z"/>
				<path style="fill:#FFFFFF;" d="M1193.156,1360.055c-0.102,22.456,33.474,98.699,91.158,210.038
					c16.019,30.845,35.04,64.629,54.986,101.075c10.239-23.368,18.363-46.33,25.206-68.507v-0.025
					c30.795-121.401,12.544-221.418,8.743-235.965c-0.33-1.243-4.905-2.334-4.905-2.334
					C1299.965,1341.755,1211.454,1354.453,1193.156,1360.055z"/>
				<g>
					
						<linearGradient id="SVGID_00000013901265421253964180000009476657248369552300_" gradientUnits="userSpaceOnUse" x1="-231.9726" y1="1949.2462" x2="-222.1981" y2="1688.8843" gradientTransform="matrix(0.8944 0.4471 -0.4471 0.8944 2313.0508 -182.9961)">
						<stop  offset="0" style="stop-color:#FFC444"/>
						<stop  offset="0.9964" style="stop-color:#F36F56"/>
					</linearGradient>
					<path style="fill:url(#SVGID_00000013901265421253964180000009476657248369552300_);" d="M1286.576,1256.134
						c-1.171,26.029-5.175,46.509-8.676,60.493c-4.01,16.023-6.5,20.084-9.573,23.324c-4.627,4.877-11.455,8.81-49.232,16.065
						c-20.556,3.947-23.16,3.67-23.716,5.659c-2.709,9.705,50.826,46.134,108.413,41.118c35.244-3.069,68.136-21.327,66.743-31.91
						c-1.403-10.652-36.646-6.859-46.043-26.497c-6.535-13.66,2.592-32.071,13.025-47.164
						C1329.148,1279.304,1294.942,1274.049,1286.576,1256.134z"/>
					<g>
						
							<linearGradient id="SVGID_00000136394582888211537960000001255816394049008298_" gradientUnits="userSpaceOnUse" x1="6809.4507" y1="1266.7104" x2="6907.2808" y2="1266.7104" gradientTransform="matrix(-1 0 0 1 8167.8438 0)">
							<stop  offset="0" style="stop-color:#444B8C"/>
							<stop  offset="0.9964" style="stop-color:#3E4177"/>
						</linearGradient>
						<path style="fill:url(#SVGID_00000136394582888211537960000001255816394049008298_);" d="M1350.951,1269.887
							c8.841-10.525,10.373-29.643,1.507-42.253c-7.63-10.852-20.432-13.024-28.096-14.328c-22.21-3.773-50.905,4.05-61.812,24.094
							c-6.461,11.878,4.757,37.876,6.482,42.535c1.955,5.267,5.901,7.249,9.433,11.341c4.894,5.676,12.547,14.692,25.021,29.756
							c1.255-4.182,3.1-9.342,5.888-14.894c1.073-2.138,5.372-10.477,11.564-17.252
							C1333.343,1275.306,1342.571,1279.862,1350.951,1269.887z"/>
						
							<linearGradient id="SVGID_00000105407652998228075760000014762399196474814899_" gradientUnits="userSpaceOnUse" x1="-1124.1917" y1="1027.2617" x2="-1127.2394" y2="1272.8162" gradientTransform="matrix(0.9999 -0.0116 0.0116 0.9999 2423.3767 228.061)">
							<stop  offset="0" style="stop-color:#FFC444"/>
							<stop  offset="0.9964" style="stop-color:#F36F56"/>
						</linearGradient>
						<path style="fill:url(#SVGID_00000105407652998228075760000014762399196474814899_);" d="M1285.243,1307.951
							c0,0,13.405,24.887,42.757,24.546c26.28-0.306,33.251-58.832,17.19-72.188c-5.359-4.456-16.444-6.78-25.667-4.719
							c-5.448,1.218-7.385,3.352-16.325,5.166c-8.248,1.677-10.496,0.652-13.062,2.586c-3.208,2.422-5.797,8.638-1.585,26.081
							c-4.727-5.325-10.62-7.587-14.978-5.809c-0.695,0.286-2.558,1.413-3.67,3.213
							C1265.884,1293.34,1271.555,1302.235,1285.243,1307.951z"/>
						
							<linearGradient id="SVGID_00000170263521804816911710000016856760659097462162_" gradientUnits="userSpaceOnUse" x1="6814.4199" y1="1299.1935" x2="6897.0244" y2="1299.1935" gradientTransform="matrix(-1 0 0 1 8167.8438 0)">
							<stop  offset="0" style="stop-color:#444B8C"/>
							<stop  offset="0.9964" style="stop-color:#3E4177"/>
						</linearGradient>
						<path style="fill:url(#SVGID_00000170263521804816911710000016856760659097462162_);" d="M1289.139,1259.768
							c1.213,1.009-2.899,5.514-3.543,12.169c-1.252,12.916,11.022,29.155,24.319,31.187c7.861,1.2,10.288-3.447,23.426-4.13
							c8.135-0.422,14.813,0.967,19,2.119c3.347,14.417-1.271,28.366-11.113,34.427c-10.595,6.525-23.418,1.539-28.779-0.546
							c-3.586-1.395-15.079-5.84-20.62-16.894c-5.773-11.519,0.838-17.923-6.066-25.874c-3.482-4.01-8.235-5.92-12.555-13.555
							c-1.172-2.074-1.932-3.894-2.39-5.115C1277.959,1266.756,1287.383,1258.306,1289.139,1259.768z"/>
						
							<linearGradient id="SVGID_00000142138549901106521480000007193205884177020297_" gradientUnits="userSpaceOnUse" x1="2539.6536" y1="1172.438" x2="2543.1038" y2="1203.1949" gradientTransform="matrix(-0.9988 -0.0496 -0.0496 0.9988 3931.6077 252.4768)">
							<stop  offset="0" style="stop-color:#FFC444"/>
							<stop  offset="1" style="stop-color:#F36F56"/>
						</linearGradient>
						<path style="fill:url(#SVGID_00000142138549901106521480000007193205884177020297_);" d="M1342.553,1305.867
							c0,0-5.814,2.654-15.558,1.582c-0.474-0.053-1.006,0.059-1.079,0.302c-0.274,0.915,5.774,5.408,11.639,4.093
							c4.164-0.937,7.563-4.648,7.063-5.666C1344.406,1305.748,1343.476,1305.753,1342.553,1305.867z"/>
					</g>
				</g>
				
					<linearGradient id="SVGID_00000116913894220524240680000013942152724422552979_" gradientUnits="userSpaceOnUse" x1="6844.5693" y1="1418.3796" x2="6897.7368" y2="1418.3796" gradientTransform="matrix(-1 0 0 1 8167.8438 0)">
					<stop  offset="0" style="stop-color:#FF9085"/>
					<stop  offset="1" style="stop-color:#367cb5"/>
				</linearGradient>
				<path style="fill:url(#SVGID_00000116913894220524240680000013942152724422552979_);" d="M1323.274,1399.986l-6.228,36.787
					h-25.661l-21.278-34.751C1270.107,1402.022,1319.047,1403.873,1323.274,1399.986z"/>
				<g>
					
						<linearGradient id="SVGID_00000178186410374772516000000013811877538555217799_" gradientUnits="userSpaceOnUse" x1="6839.4429" y1="1396.162" x2="6844.0078" y2="1613.772" gradientTransform="matrix(-1 0 0 1 8167.8438 0)">
						<stop  offset="0" style="stop-color:#4b9f61"/>
						<stop  offset="1" style="stop-color:#367cb5"/>
					</linearGradient>
					<path style="fill:url(#SVGID_00000178186410374772516000000013811877538555217799_);" d="M1284.314,1570.093
						c4.841,9.327,9.859,18.932,15.08,28.792c11.988,22.734,25.992,46.862,39.906,72.283c10.239-23.368,18.363-46.33,25.206-68.507
						v-0.025l-45.888-163.498l-1.248-2.611c-0.051-0.228-0.371-0.431-0.473-0.634c-3.27-7.198-25.403,0-25.403,0L1284.314,1570.093z
						"/>
					
						<linearGradient id="SVGID_00000102543302410113319650000018026466502001342599_" gradientUnits="userSpaceOnUse" x1="6803.3369" y1="1555.1523" x2="6868.4492" y2="1555.1523" gradientTransform="matrix(-1 0 0 1 8167.8438 0)">
						<stop  offset="0" style="stop-color:#FF9085"/>
						<stop  offset="1" style="stop-color:#FB6FBB"/>
					</linearGradient>
					<path style="opacity:0.3;fill:url(#SVGID_00000102543302410113319650000018026466502001342599_);" d="M1299.395,1598.885
						c11.988,22.734,25.992,46.862,39.906,72.283c10.239-23.368,18.363-46.33,25.206-68.507v-0.025l-45.888-163.498
						c-4.486,0.988-14.909,5.728-13.591,28.006c1.673,28.74,32.248,79.43,14.937,99.705
						C1313.147,1574.833,1305.451,1586.668,1299.395,1598.885z"/>
				</g>
			</g>
		</g>
		<g>
			<g>
				<path style="fill:#C47EB7;" d="M1860.674,2826.696c-0.119,0-0.234-0.004-0.353-0.015c-1.96-0.182-3.459-1.826-3.459-3.793
					v-782.379c0-2.105,1.703-3.808,3.808-3.808c2.105,0,3.808,1.703,3.808,3.808v741.078l134.253-721.791
					c0.383-2.072,2.373-3.429,4.441-3.05c2.068,0.387,3.433,2.373,3.05,4.441l-141.806,762.396
					C1864.077,2825.401,1862.489,2826.696,1860.674,2826.696z"/>
			</g>
			<g>
				<path style="fill:#C47EB7;" d="M2600.845,2849.501c-1.845,0-3.448-1.335-3.753-3.184l-124.393-749.235
					c-0.346-2.075,1.056-4.039,3.131-4.381c2.113-0.365,4.039,1.06,4.381,3.132l116.829,703.668v-700.339
					c0-2.105,1.703-3.808,3.808-3.808s3.808,1.703,3.808,3.808v746.531c0,1.982-1.521,3.634-3.496,3.797
					C2601.057,2849.498,2600.949,2849.501,2600.845,2849.501z"/>
			</g>
			<g>
				<path style="fill:#C47EB7;" d="M778.091,3096.551c-0.134,0-0.264-0.008-0.398-0.022c-1.941-0.201-3.414-1.837-3.414-3.786
					v-822.795c0-2.105,1.703-3.808,3.808-3.808c2.105,0,3.808,1.703,3.808,3.808v786.325l166.01-786.232
					c0.435-2.057,2.429-3.369,4.515-2.938c2.057,0.435,3.373,2.455,2.938,4.515l-173.545,821.914
					C781.438,3095.305,779.869,3096.551,778.091,3096.551z"/>
			</g>
			<g>
				<path style="fill:#C47EB7;" d="M1641.395,3240.258c-1.789,0-3.366-1.261-3.727-3.05l-190.259-935.923
					c-0.42-2.06,0.911-4.073,2.972-4.489c2.06-0.424,4.072,0.911,4.489,2.972l182.72,898.832v-788.174
					c0-2.105,1.703-3.808,3.808-3.808c2.105,0,3.808,1.703,3.808,3.808v826.023c0,1.956-1.48,3.593-3.425,3.79
					C1641.651,3240.25,1641.521,3240.258,1641.395,3240.258z"/>
			</g>
			<g>
				<path style="fill:#B7C0CE;" d="M770.372,2259.891v14.181l873.006,142.406l965.35-314.166c0-4.726,0-9.454,0-14.179
					C2457.545,2043.557,770.372,2259.891,770.372,2259.891z"/>
				<polygon style="fill:#FFFFFF;" points="1807.003,2014.688 770.372,2259.891 1643.379,2402.297 2608.729,2088.133 				"/>
			</g>
		</g>
		<g>
			
				<linearGradient id="SVGID_00000157302630555858199320000006614702195672770984_" gradientUnits="userSpaceOnUse" x1="7777.7021" y1="2883.5994" x2="7790.9121" y2="2686.9182" gradientTransform="matrix(-1 0 0 1 8841.9453 0)">
				<stop  offset="0" style="stop-color:#FFC444"/>
				<stop  offset="0.9964" style="stop-color:#F36F56"/>
			</linearGradient>
			<path style="fill:url(#SVGID_00000157302630555858199320000006614702195672770984_);" d="M1071.391,2703.241
				c0,0-32.603,6.952-35.783,61.452c5.313,0.162,17.696,1.96,17.696,1.96s-2.444-40.074,20.696-45.22
				C1072.13,2716.559,1071.391,2703.241,1071.391,2703.241z"/>
			
				<linearGradient id="SVGID_00000180340370281574167190000013311927335099601567_" gradientUnits="userSpaceOnUse" x1="7705.416" y1="2848.8142" x2="7716.8979" y2="2677.8655" gradientTransform="matrix(-1 0 0 1 8841.9453 0)">
				<stop  offset="0.1" style="stop-color:#311944"/>
				<stop  offset="0.267" style="stop-color:#371B47"/>
				<stop  offset="0.4803" style="stop-color:#462150"/>
				<stop  offset="0.7186" style="stop-color:#612A5F"/>
				<stop  offset="0.9736" style="stop-color:#853774"/>
				<stop  offset="1" style="stop-color:#893976"/>
			</linearGradient>
			<path style="fill:url(#SVGID_00000180340370281574167190000013311927335099601567_);" d="M1190.238,2713.544
				c-0.902,9.872-1.802,19.725-2.701,29.56c-15.837-6.252-33.203-13.406-51.951-16.488c-24.44-4.018-46.905-3.796-66.944-1.246
				c-0.895-1.364-2.793-4.618-3.678-9.671c-1.427-8.153,0.915-14.527,1.349-15.662c10.237-2.518,21.334-4.339,33.216-5.08
				C1133.542,2692.835,1164.114,2702.338,1190.238,2713.544z"/>
			
				<linearGradient id="SVGID_00000003072176505275167850000004165240674195358651_" gradientUnits="userSpaceOnUse" x1="7656.4038" y1="2729.9895" x2="7762.186" y2="2786.7024" gradientTransform="matrix(-1 0 0 1 8841.9453 0)">
				<stop  offset="0.1" style="stop-color:#311944"/>
				<stop  offset="0.267" style="stop-color:#371B47"/>
				<stop  offset="0.4803" style="stop-color:#462150"/>
				<stop  offset="0.7186" style="stop-color:#612A5F"/>
				<stop  offset="0.9736" style="stop-color:#853774"/>
				<stop  offset="1" style="stop-color:#893976"/>
			</linearGradient>
			<path style="fill:url(#SVGID_00000003072176505275167850000004165240674195358651_);" d="M1191.649,2722.348
				c-0.01-3.607-0.23-8.139-1.41-8.805c-1.111-0.627-2.645,2.463-3.308,4.2c-0.276,0.723-0.886,2.482-1.312,8.25
				c-0.549,7.427-0.028,11.154,0.459,13.472c0.293,1.393,0.75,3.505,1.461,3.637c0.571,0.106,1.08-1.137,1.845-3.57
				C1190.413,2736.256,1191.673,2730.731,1191.649,2722.348z"/>
			
				<linearGradient id="SVGID_00000089546156489968132230000011183706847747403430_" gradientUnits="userSpaceOnUse" x1="7626.7456" y1="2927.4961" x2="7642.2432" y2="2696.762" gradientTransform="matrix(-1 0 0 1 8841.9453 0)">
				<stop  offset="0" style="stop-color:#FFC444"/>
				<stop  offset="0.9964" style="stop-color:#F36F56"/>
			</linearGradient>
			<path style="fill:url(#SVGID_00000089546156489968132230000011183706847747403430_);" d="M1220.06,2788.075
				c-6.616,0.54-22.723,2.564-22.723,2.564s10.887-33.428-8.782-51.719c-0.489-2.693-0.971-6.937-0.292-11.901
				c0.525-3.843,1.572-6.843,2.471-8.903C1199.132,2724.012,1217.283,2742.628,1220.06,2788.075z"/>
			
				<linearGradient id="SVGID_00000100369885902707598250000001658553763636133259_" gradientUnits="userSpaceOnUse" x1="7514.394" y1="2914.677" x2="7458.4326" y2="2403.136" gradientTransform="matrix(-1 0 0 1 8841.9453 0)">
				<stop  offset="0.1" style="stop-color:#311944"/>
				<stop  offset="0.6853" style="stop-color:#6D2F66"/>
				<stop  offset="1" style="stop-color:#893976"/>
			</linearGradient>
			<path style="fill:url(#SVGID_00000100369885902707598250000001658553763636133259_);" d="M1355.237,2812.041
				c0,0-0.316-18.026-27.481-21.043c-4.363,2.805-4.923,17.477-4.923,17.477L1355.237,2812.041z"/>
			
				<linearGradient id="SVGID_00000092436141018459593870000006397662871287298443_" gradientUnits="userSpaceOnUse" x1="7769.5293" y1="3134.2756" x2="7387.916" y2="2921.7859" gradientTransform="matrix(-1 0 0 1 8841.9453 0)">
				<stop  offset="0" style="stop-color:#311944"/>
				<stop  offset="1" style="stop-color:#893976"/>
			</linearGradient>
			<path style="fill:url(#SVGID_00000092436141018459593870000006397662871287298443_);" d="M1369.331,3154.094l-72.65,37.442
				l-40.713-167.752l78.43-220.539l20.84,8.795l22.106,325.667C1377.826,3144.822,1374.624,3151.366,1369.331,3154.094z"/>
			
				<linearGradient id="SVGID_00000134954545968036312650000005781566538416529556_" gradientUnits="userSpaceOnUse" x1="7426.9878" y1="2841.6597" x2="7539.7749" y2="3030.7954" gradientTransform="matrix(-1 0 0 1 8841.9453 0)">
				<stop  offset="0" style="stop-color:#311944"/>
				<stop  offset="1" style="stop-color:#893976"/>
			</linearGradient>
			<path style="opacity:0.3;fill:url(#SVGID_00000134954545968036312650000005781566538416529556_);" d="M1255.967,3023.784
				l78.43-220.538l20.84,8.795c-5.704,19.902-9.04,52.795-10.675,71.036c-6.896,76.901-23.667,96.6-17.104,150.484
				c5.399,44.324,19.357,51.558,17.352,80.555c-2.17,31.388-20.864,56.003-42.772,74.659l-5.358,2.761L1255.967,3023.784z"/>
			
				<linearGradient id="SVGID_00000103974550922432535260000017790199605618548616_" gradientUnits="userSpaceOnUse" x1="7718.4609" y1="2593.9597" x2="7761.0234" y2="3165.1941" gradientTransform="matrix(-1 0 0 1 8841.9453 0)">
				<stop  offset="0.1" style="stop-color:#311944"/>
				<stop  offset="0.6853" style="stop-color:#6D2F66"/>
				<stop  offset="1" style="stop-color:#893976"/>
			</linearGradient>
			<polygon style="fill:url(#SVGID_00000103974550922432535260000017790199605618548616_);" points="1334.397,2803.246 
				916.733,2757.119 858,3117.079 1296.681,3191.536 			"/>
			<g style="opacity:0.2;">
				
					<linearGradient id="SVGID_00000023238965213845743850000010918155190601908134_" gradientUnits="userSpaceOnUse" x1="7656.0488" y1="2905.6572" x2="7952.8164" y2="3134.3145" gradientTransform="matrix(-1 0 0 1 8841.9453 0)">
					<stop  offset="0" style="stop-color:#311944"/>
					<stop  offset="1" style="stop-color:#893976"/>
				</linearGradient>
				<path style="fill:url(#SVGID_00000023238965213845743850000010918155190601908134_);" d="M916.733,2757.119l142.882,15.78
					c2.631,7.988,6.641,19.058,12.47,31.691c62.304,135.016,202.527,165.064,199.629,185.304
					c-4.312,30.107-318.962-44.849-326.531-2.827c-3.632,20.168,63.94,72.872,133.31,96.708
					c82.039,28.189,142.186,7.92,181.029,57.373c13.03,16.589,18.542,35.062,21.15,47.411L858,3117.079L916.733,2757.119z"/>
			</g>
			
				<linearGradient id="SVGID_00000083784707912708879070000000815603381139996067_" gradientUnits="userSpaceOnUse" x1="7561.3296" y1="2881.3552" x2="7694.8364" y2="2876.1704" gradientTransform="matrix(-1 0 0 1 8841.9453 0)">
				<stop  offset="0.1" style="stop-color:#311944"/>
				<stop  offset="0.6853" style="stop-color:#6D2F66"/>
				<stop  offset="1" style="stop-color:#893976"/>
			</linearGradient>
			<path style="fill:url(#SVGID_00000083784707912708879070000000815603381139996067_);" d="M1327.756,2790.997
				c4.605,0.512,11.054,0.623,17.935,5.721c1.468,1.087,2.758,2.247,3.886,3.405l-3.183-1.559
				c-5.134-2.171-12.328-0.835-15.128,4.336c-3.439,6.35-4.989,21.718-5.887,29.299c-2.547,21.505-18.007,153.342-18.007,153.342
				c-1.17,10.974-9.503,18.532-19.138,17.365l-382.03-58.283c-2.969-0.361-5.92-1.592-8.407-3.739
				c-5.195-4.484-7.647-11.614-6.591-18.056l16.869-161.996c1.532-9.404,8.722-15.488,17.198-14.546L1327.756,2790.997z"/>
			
				<linearGradient id="SVGID_00000145058657728990285000000017986639707731847101_" gradientUnits="userSpaceOnUse" x1="7765.0601" y1="3282.0107" x2="7723.3184" y2="2812.9185" gradientTransform="matrix(-1 0 0 1 8841.9453 0)">
				<stop  offset="0.1" style="stop-color:#311944"/>
				<stop  offset="0.267" style="stop-color:#371B47"/>
				<stop  offset="0.4803" style="stop-color:#462150"/>
				<stop  offset="0.7186" style="stop-color:#612A5F"/>
				<stop  offset="0.9736" style="stop-color:#853774"/>
				<stop  offset="1" style="stop-color:#893976"/>
			</linearGradient>
			<path style="fill:url(#SVGID_00000145058657728990285000000017986639707731847101_);" d="M1323.685,2790.545
				c4.607,0.512,10.084,0.456,16.124,2.851c1.628,0.645,4.228,1.786,5.357,2.945c0,0-12.809-4.675-17.966,6.11
				c-3.144,6.574-4.982,21.724-5.877,29.307c-2.539,21.51-17.951,153.383-17.951,153.383c-1.166,10.977-9.5,18.536-19.138,17.369
				l-386.383-46.783c-2.968-0.359-5.919-1.586-8.407-3.728c-5.197-4.473-7.654-11.589-6.604-18.019l20.975-173.618
				c1.529-9.406,8.719-15.491,17.199-14.55L1323.685,2790.545z"/>
			
				<linearGradient id="SVGID_00000089547610525969095500000003725284457167468685_" gradientUnits="userSpaceOnUse" x1="7780.9785" y1="3349.8416" x2="7715.6699" y2="2752.8591" gradientTransform="matrix(-1 0 0 1 8841.9453 0)">
				<stop  offset="0" style="stop-color:#311944"/>
				<stop  offset="1" style="stop-color:#893976"/>
			</linearGradient>
			<path style="opacity:0.1;fill:url(#SVGID_00000089547610525969095500000003725284457167468685_);" d="M882.839,2933.98
				l20.975-173.617c1.529-9.406,8.719-15.491,17.199-14.55l402.671,44.732c4.607,0.512,10.084,0.456,16.124,2.851
				c1.627,0.645,4.228,1.786,5.357,2.945c0,0-12.809-4.675-17.966,6.11c-0.496,1.037-0.955,2.304-1.387,3.705
				c-37.435-2.567-74.973-7.826-112.724-9.431c-75.04-3.323-151.505-11.717-223.145,12.149c-22.94,7.642-38.265,42.217-31.8,59.538
				c4.646,12.446,19.93,13.088,25.429,29.296c5.761,16.98-7.509,26.735-1.768,38.764c6,12.569,23.75,8.659,52.556,20.066
				c15.81,6.261,27.917,14.358,35.463,20.012l-171.973-20.823c-2.968-0.359-5.919-1.586-8.407-3.728
				C884.247,2947.526,881.79,2940.41,882.839,2933.98z"/>
			<g>
				
					<linearGradient id="SVGID_00000046340828186277312270000010520788670570790840_" gradientUnits="userSpaceOnUse" x1="7804.9399" y1="3014.5186" x2="7578.6431" y2="2896.2271" gradientTransform="matrix(-1 0 0 1 8841.9453 0)">
					<stop  offset="0" style="stop-color:#FFC444"/>
					<stop  offset="0.9964" style="stop-color:#F36F56"/>
				</linearGradient>
				<path style="fill:url(#SVGID_00000046340828186277312270000010520788670570790840_);" d="M1070.69,3004.523l48.198,16.43
					l5.071,0.912c5.106,0.919,9.52-3.125,9.77-9l2.376-55.882c0.253-5.948-3.794-11.316-8.954-11.917l-5.137-0.599l-48.785,1.392
					c-4.672-0.543-8.616-3.473-8.814,2.134l-1.859,52.692C1062.36,3006.226,1066.055,3003.687,1070.69,3004.523z"/>
				
					<linearGradient id="SVGID_00000167368016015288154770000000141004422734519953_" gradientUnits="userSpaceOnUse" x1="8376.9336" y1="2752.1667" x2="7564.7705" y2="3043.4866" gradientTransform="matrix(-1 0 0 1 8841.9453 0)">
					<stop  offset="0" style="stop-color:#FFC444"/>
					<stop  offset="0.9964" style="stop-color:#F36F56"/>
				</linearGradient>
				<path style="fill:url(#SVGID_00000167368016015288154770000000141004422734519953_);" d="M1067.03,3011.919l53.389,9.604
					c5.109,0.919,9.523-3.126,9.77-9.002l2.356-55.895c0.251-5.949-3.799-11.319-8.961-11.92l-53.924-6.286
					c-4.678-0.545-8.638,3.605-8.834,9.212l-1.841,52.705C1058.792,3005.878,1062.397,3011.085,1067.03,3011.919z"/>
			</g>
		</g>
		<g>
			
				<linearGradient id="SVGID_00000094597808308633105680000017676067721270839187_" gradientUnits="userSpaceOnUse" x1="2167.2944" y1="2236.9155" x2="2318.9294" y2="2555.5686" gradientTransform="matrix(-1 0 0 1 3729.7202 0)">
				<stop  offset="0" style="stop-color:#FFC444"/>
				<stop  offset="0.9964" style="stop-color:#F36F56"/>
			</linearGradient>
			<path style="fill:url(#SVGID_00000094597808308633105680000017676067721270839187_);" d="M1805.703,2275.58l-363.714-54.775
				c-3.945-0.594-7.965-0.472-11.866,0.361l-141.585,30.218c-9.876,2.108-9.572,16.305,0.386,17.987l341.767,57.734
				c1.173,0.198,2.373,0.166,3.533-0.094l171.938-38.634C1813.194,2286.796,1812.831,2276.654,1805.703,2275.58z"/>
			
				<linearGradient id="SVGID_00000140715980172080920940000016634125946810914440_" gradientUnits="userSpaceOnUse" x1="1752.6007" y1="2097.4536" x2="1457.9016" y2="2329.6406">
				<stop  offset="0" style="stop-color:#FFC444"/>
				<stop  offset="0.9964" style="stop-color:#F36F56"/>
			</linearGradient>
			<path style="fill:url(#SVGID_00000140715980172080920940000016634125946810914440_);" d="M1805.703,2265.071l-363.714-54.775
				c-3.945-0.594-7.965-0.472-11.866,0.361l-141.585,30.218c-9.876,2.108-9.572,16.305,0.386,17.987l341.767,57.734
				c1.173,0.198,2.373,0.166,3.533-0.095l171.938-38.634C1813.194,2276.287,1812.831,2266.145,1805.703,2265.071z"/>
			
				<linearGradient id="SVGID_00000073713366372300919140000017679435533769606302_" gradientUnits="userSpaceOnUse" x1="2167.2944" y1="2217.6157" x2="2318.9294" y2="2536.269" gradientTransform="matrix(-1 0 0 1 3729.7202 0)">
				<stop  offset="0" style="stop-color:#FFC444"/>
				<stop  offset="0.9964" style="stop-color:#F36F56"/>
			</linearGradient>
			<path style="fill:url(#SVGID_00000073713366372300919140000017679435533769606302_);" d="M1805.703,2256.281l-363.714-54.775
				c-3.945-0.594-7.965-0.472-11.866,0.361l-141.585,30.218c-9.876,2.107-9.572,16.304,0.386,17.987l341.767,57.734
				c1.173,0.198,2.373,0.166,3.533-0.095l171.938-38.634C1813.194,2267.496,1812.831,2257.354,1805.703,2256.281z"/>
			
				<linearGradient id="SVGID_00000007428028515528843700000009713396032854815659_" gradientUnits="userSpaceOnUse" x1="1743.2189" y1="2085.5457" x2="1448.5198" y2="2317.7324">
				<stop  offset="0" style="stop-color:#FFC444"/>
				<stop  offset="0.9964" style="stop-color:#F36F56"/>
			</linearGradient>
			<path style="fill:url(#SVGID_00000007428028515528843700000009713396032854815659_);" d="M1805.703,2245.771l-363.714-54.775
				c-3.945-0.594-7.965-0.471-11.866,0.361l-141.585,30.218c-9.876,2.108-9.572,16.305,0.386,17.987l341.767,57.734
				c1.173,0.198,2.373,0.166,3.533-0.094l171.938-38.634C1813.194,2256.987,1812.831,2246.845,1805.703,2245.771z"/>
			
				<linearGradient id="SVGID_00000040566387204042497700000016987383919827329971_" gradientUnits="userSpaceOnUse" x1="2167.2944" y1="2198.3159" x2="2318.9294" y2="2516.9692" gradientTransform="matrix(-1 0 0 1 3729.7202 0)">
				<stop  offset="0" style="stop-color:#FFC444"/>
				<stop  offset="0.9964" style="stop-color:#F36F56"/>
			</linearGradient>
			<path style="fill:url(#SVGID_00000040566387204042497700000016987383919827329971_);" d="M1805.703,2236.981l-363.714-54.775
				c-3.945-0.594-7.965-0.472-11.866,0.361l-141.585,30.218c-9.876,2.108-9.572,16.305,0.386,17.987l341.767,57.734
				c1.173,0.198,2.373,0.166,3.533-0.095l171.938-38.634C1813.194,2248.196,1812.831,2238.054,1805.703,2236.981z"/>
			
				<linearGradient id="SVGID_00000109714906615068470710000002011038210025824154_" gradientUnits="userSpaceOnUse" x1="1439.6484" y1="2147.0618" x2="1988.8617" y2="2537.0183">
				<stop  offset="0" style="stop-color:#FFC444"/>
				<stop  offset="0.9964" style="stop-color:#F36F56"/>
			</linearGradient>
			<path style="fill:url(#SVGID_00000109714906615068470710000002011038210025824154_);" d="M1805.703,2226.471l-363.714-54.775
				c-3.945-0.594-7.965-0.472-11.866,0.361l-141.585,30.218c-9.876,2.108-9.572,16.304,0.386,17.987l341.767,57.734
				c1.173,0.198,2.373,0.166,3.533-0.095l171.938-38.634C1813.194,2237.687,1812.831,2227.545,1805.703,2226.471z"/>
		</g>
		<g>
			
				<linearGradient id="SVGID_00000072968462708319660680000004265796511927929257_" gradientUnits="userSpaceOnUse" x1="-443.4638" y1="2641.9519" x2="-300.7715" y2="3156.8853" gradientTransform="matrix(1 0 0 1 2858.416 0)">
				<stop  offset="0" style="stop-color:#40447E"/>
				<stop  offset="0.9964" style="stop-color:#3C3B6B"/>
			</linearGradient>
			<path style="fill:url(#SVGID_00000072968462708319660680000004265796511927929257_);" d="M2555.561,2933.857
				c0,0,6.804,27.58,7.02,37.572c0.217,9.993-109.745,23.921-111.457,16.56c-1.712-7.362,16.697-20.76,29.986-26.033
				c13.291-5.274,52.274-19.629,52.274-19.629L2555.561,2933.857z"/>
			
				<linearGradient id="SVGID_00000137833953633100986210000000651756477379421109_" gradientUnits="userSpaceOnUse" x1="-316.467" y1="3006.0142" x2="-314.3989" y2="2832.3013" gradientTransform="matrix(1 0 0 1 2858.416 0)">
				<stop  offset="0" style="stop-color:#FFC444"/>
				<stop  offset="0.9964" style="stop-color:#F36F56"/>
			</linearGradient>
			<path style="fill:url(#SVGID_00000137833953633100986210000000651756477379421109_);" d="M2526.538,2908.144l6.305,34.467
				c0,0,13.5,7.445,24.271,0l2.622-38.276L2526.538,2908.144z"/>
			
				<linearGradient id="SVGID_00000114045747779186203470000000238468699901242031_" gradientUnits="userSpaceOnUse" x1="-264.8157" y1="2592.4443" x2="-122.1221" y2="3107.3823" gradientTransform="matrix(1 0 0 1 2858.416 0)">
				<stop  offset="0" style="stop-color:#40447E"/>
				<stop  offset="0.9964" style="stop-color:#3C3B6B"/>
			</linearGradient>
			<path style="fill:url(#SVGID_00000114045747779186203470000000238468699901242031_);" d="M2756.108,2963.381
				c0,0,6.805,27.579,7.022,37.572c0.216,9.993-109.747,23.921-111.458,16.559c-1.712-7.361,16.697-20.76,29.987-26.034
				c13.289-5.273,52.273-19.629,52.273-19.629L2756.108,2963.381z"/>
			
				<linearGradient id="SVGID_00000013888933058479171870000008213093433694549380_" gradientUnits="userSpaceOnUse" x1="-115.5961" y1="3008.4067" x2="-113.5279" y2="2834.6909" gradientTransform="matrix(1 0 0 1 2858.416 0)">
				<stop  offset="0" style="stop-color:#FFC444"/>
				<stop  offset="0.9964" style="stop-color:#F36F56"/>
			</linearGradient>
			<path style="fill:url(#SVGID_00000013888933058479171870000008213093433694549380_);" d="M2727.086,2937.667l6.306,34.467
				c0,0,13.499,7.446,24.271,0l2.62-38.277L2727.086,2937.667z"/>
			
				<linearGradient id="SVGID_00000103231791312004721050000000614761011039331464_" gradientUnits="userSpaceOnUse" x1="-416.599" y1="2447.3315" x2="-231.6438" y2="2447.3315" gradientTransform="matrix(1 0 0 1 2858.416 0)">
				<stop  offset="0" style="stop-color:#444B8C"/>
				<stop  offset="0.9964" style="stop-color:#26264F"/>
			</linearGradient>
			<path style="fill:url(#SVGID_00000103231791312004721050000000614761011039331464_);" d="M2473.873,1999.374
				c-10.685,26.887-21.37,53.773-32.056,80.658c1.568,148.424,9.33,309.332,26.359,480.713
				c12.669,127.507,29.189,247.934,48.091,360.702c17.234-2.178,34.467-4.363,51.702-6.54
				c21.034-51.646,44.534-129.219,39.812-222.274c-4.925-97.065-35.314-107.57-40.882-200.439
				c-7.216-120.368,40.608-156.469,55.873-303.174c5.837-56.104,6.964-128.863-8.272-215.805
				C2567.622,1981.933,2520.749,1990.657,2473.873,1999.374z"/>
			
				<linearGradient id="SVGID_00000075872304923684314190000017256848481190784653_" gradientUnits="userSpaceOnUse" x1="-416.5979" y1="2447.3315" x2="-231.6434" y2="2447.3315" gradientTransform="matrix(1 0 0 1 2858.416 0)">
				<stop  offset="0" style="stop-color:#444B8C"/>
				<stop  offset="0.9964" style="stop-color:#26264F"/>
			</linearGradient>
			<path style="opacity:0.3;fill:url(#SVGID_00000075872304923684314190000017256848481190784653_);" d="M2614.499,1973.215
				c-25.315,4.707-50.631,9.416-75.947,14.129c-39.546,83.653-45.707,167.917-34.692,204.088
				c15.582,51.177,47.099,65.445,49.632,117.878c2.505,51.881-26.908,67.743-41.362,130.286
				c-10.004,43.303-3.36,81.847,10.342,157.17c27.596,151.723,68.278,195.538,41.36,248.164
				c-7.65,14.953-22.128,33.191-52.123,48.634c1.511,9.319,3.013,18.668,4.558,27.883c17.234-2.175,34.467-4.363,51.702-6.538
				c21.034-51.652,44.534-129.22,39.812-222.276c-4.925-97.066-35.314-107.573-40.882-200.44
				c-7.216-120.368,40.608-156.466,55.873-303.172C2628.608,2132.917,2629.735,2060.158,2614.499,1973.215z"/>
			
				<linearGradient id="SVGID_00000174564896536272689930000001906793691537925516_" gradientUnits="userSpaceOnUse" x1="-312.178" y1="2473.7544" x2="-31.4183" y2="2473.7544" gradientTransform="matrix(1 0 0 1 2858.416 0)">
				<stop  offset="0" style="stop-color:#444B8C"/>
				<stop  offset="0.9964" style="stop-color:#26264F"/>
			</linearGradient>
			<path style="fill:url(#SVGID_00000174564896536272689930000001906793691537925516_);" d="M2546.238,2040.437
				c34.412,128.668,66.764,266.735,95.146,413.635c34.268,177.369,58.424,345.238,75.158,501.553
				c19.028-0.981,38.057-1.969,57.085-2.951c62.953-153.994,59.483-254.702,43.461-319.167
				c-6.173-24.841-21.418-73.299-29.907-146.864c-5.916-51.281-5.772-90.68-5.444-138.054c0.718-103.87,9.818-127.262,5.062-206.287
				c-4.461-74.165-7.16-111.656-30.05-131.832C2696.443,1957.318,2556.82,2034.457,2546.238,2040.437z"/>
			
				<linearGradient id="SVGID_00000060006501988641800030000012057775607299611576_" gradientUnits="userSpaceOnUse" x1="-972.3242" y1="1681.2533" x2="-763.0546" y2="1894.2596" gradientTransform="matrix(1 0 0 1 2858.416 0)">
				<stop  offset="0" style="stop-color:#FFC444"/>
				<stop  offset="0.9964" style="stop-color:#F36F56"/>
			</linearGradient>
			<path style="fill:url(#SVGID_00000060006501988641800030000012057775607299611576_);" d="M2009.888,1735.719
				c0,0-50.361-4.317-57.646-12.482c-7.285-8.164-18.352-21.239-19.444-28.724c-1.092-7.486-10.821,3.695-2.001,19.928
				c8.82,16.232-16.205,12.795-20.11,12.402c-8.98-0.902-43.234-1.905-42.247,0.215c0.989,2.122-4.068,11.493,20.259,22.516
				c21.297,9.65,46.649,3.369,60.493,4.033c13.843,0.663,13.843,0.663,13.843,0.663l36.717,2.8L2009.888,1735.719z"/>
			
				<linearGradient id="SVGID_00000096029343394882741500000014032793083519092364_" gradientUnits="userSpaceOnUse" x1="2225.5271" y1="840.3892" x2="2213.9858" y2="1948.3838">
				<stop  offset="0" style="stop-color:#AA80F9"/>
				<stop  offset="0.9964" style="stop-color:#6165D7"/>
			</linearGradient>
			<path style="fill:url(#SVGID_00000096029343394882741500000014032793083519092364_);" d="M1969.269,1721.985
				c-1.841,13.936-3.682,27.87-5.523,41.805c27.688,23.096,88.904,67.368,174.07,74.007
				c150.14,11.712,299.031-99.405,326.751-224.383c13.726-61.896,2.513-148.737-35.954-162.702
				c-10.677-3.878-26.718-3.327-59.789,18.891c-88.257,59.285-95.762,137.146-144.519,189.814
				C2189.215,1697.32,2120.221,1735.72,1969.269,1721.985z"/>
			
				<linearGradient id="SVGID_00000174586394147496691040000014779825291981833611_" gradientUnits="userSpaceOnUse" x1="2603.9233" y1="844.3291" x2="2592.3818" y2="1952.3246">
				<stop  offset="0" style="stop-color:#AA80F9"/>
				<stop  offset="0.9964" style="stop-color:#6165D7"/>
			</linearGradient>
			<path style="fill:url(#SVGID_00000174586394147496691040000014779825291981833611_);" d="M2429.409,2107.677
				c-20.609-28.725-0.094-59.666,0.524-117.267c0.7-65.283-25.131-74.074-58.429-179.502
				c-22.144-70.117-43.402-137.43-31.02-219.209c5.934-39.194,15.998-105.67,67.475-141.515
				c26.564-18.497,64.744-19.92,140.02-22.004c93.087-2.581,139.63-3.873,175.654,11.56c5.273,2.26,115.015,51.033,129.725,143.689
				c14.973,94.303-87.35,115.339-90.992,242.99c-1.635,57.303,16.395,143.792,28.089,199.889
				c11.229,53.863,17.071,67.417,7.653,84.751c-22.699,41.781-102.841,36.812-263.125,26.882
				C2472.109,2134.044,2444.787,2129.113,2429.409,2107.677z"/>
			
				<linearGradient id="SVGID_00000087370135633994715980000011660709620372911760_" gradientUnits="userSpaceOnUse" x1="-209.2909" y1="730.2509" x2="-220.8323" y2="1838.241" gradientTransform="matrix(1 0 0 1 2858.416 0)">
				<stop  offset="0" style="stop-color:#AA80F9"/>
				<stop  offset="0.9964" style="stop-color:#6165D7"/>
			</linearGradient>
			<path style="opacity:0.3;fill:url(#SVGID_00000087370135633994715980000011660709620372911760_);" d="M2648.622,1815.046
				c8.677,24.127,34.252,40.618,55.836,99.266c4.66,12.664,37.847,102.835,6.205,128.222c-18.279,14.661-37.62-8.792-84.789-8.278
				c-81.737,0.891-114.986,72.311-169.58,57.911c-9.472-2.503-22.188-8.429-35.602-23.314c-1.273,14.484,0.137,26.863,8.717,38.824
				c15.379,21.435,42.7,26.366,105.573,30.263c160.284,9.929,240.426,14.899,263.125-26.882c9.418-17.334,3.575-30.887-7.653-84.751
				c-11.693-56.097-29.724-142.585-28.089-199.889c3.642-127.651,105.965-148.687,90.992-242.99
				c-4.002-25.211-15.144-47.052-29.198-65.713C2697.311,1581.271,2621.349,1739.229,2648.622,1815.046z"/>
			
				<linearGradient id="SVGID_00000076602377868143268600000016960789689450342815_" gradientUnits="userSpaceOnUse" x1="2798.2661" y1="2092.5735" x2="2799.2253" y2="2012.0067">
				<stop  offset="0" style="stop-color:#311944"/>
				<stop  offset="1" style="stop-color:#893976"/>
			</linearGradient>
			<path style="fill:url(#SVGID_00000076602377868143268600000016960789689450342815_);" d="M2808.858,2004.042
				c0,0-30.21-8.155-24.465,2.409c5.746,10.564,17.422,14.086,17.422,14.086S2825.724,2015.347,2808.858,2004.042z"/>
			
				<linearGradient id="SVGID_00000163784819431147329820000017830128821152362428_" gradientUnits="userSpaceOnUse" x1="2490.0923" y1="1353.9458" x2="2613.8643" y2="1559.5979">
				<stop  offset="0" style="stop-color:#FFC444"/>
				<stop  offset="0.9964" style="stop-color:#F36F56"/>
			</linearGradient>
			<path style="fill:url(#SVGID_00000163784819431147329820000017830128821152362428_);" d="M2453.745,1449.42
				c-0.064-5.811,20.302-8.306,36.332-16.025c20.268-9.755,29.071-53.433,23.899-72.49c-5.171-19.059,30.141-28.858,30.141-28.858
				s4.247,35.288,16.806,60.927c11.348,23.174,62.523,35.111,73.071,39.613c1.74,0.742,2.345,4.299,2.161,4.299
				c0.068,0,0.116,0,0.116,0s-0.05-0.977-0.13-0.855c-0.311,1.575-1.726,2.925-4.029,4.959
				c-10.669,13.439-43.121,47.585-110.803,71.352c-40.571-26.682-68.379-47.296-67.585-62.703
				C2453.727,1449.611,2453.743,1449.45,2453.745,1449.42z"/>
			<g>
				
					<linearGradient id="SVGID_00000071559200893754834660000003235489813944249508_" gradientUnits="userSpaceOnUse" x1="-275.8809" y1="1447.5227" x2="-350.8083" y2="1257.2207" gradientTransform="matrix(1 0 0 1 2858.416 0)">
					<stop  offset="0" style="stop-color:#40447E"/>
					<stop  offset="0.9964" style="stop-color:#3C3B6B"/>
				</linearGradient>
				<path style="fill:url(#SVGID_00000071559200893754834660000003235489813944249508_);" d="M2497.183,1325.557
					c-16.688-13.96-18.989-15.562-21.096-20.68c-8.45-20.545,5.59-50.732,26.472-59.561c1.086-0.458,15.103-6.217,21.095-0.415
					c5.088,4.926-1.186,12.797,2.895,22.75c3.822,9.319,12.17,9.37,28.539,20.68c13.486,9.313,21.865,15.104,24.404,23.991
					c5.233,18.321-15.145,47.113-35.158,47.978C2537.137,1360.611,2534.892,1357.102,2497.183,1325.557z"/>
				<g>
					
						<linearGradient id="SVGID_00000161595640288925063760000015647504766010411156_" gradientUnits="userSpaceOnUse" x1="3919.4771" y1="1404.1227" x2="3861.0818" y2="1622.4696" gradientTransform="matrix(-1 0 0 1 6455.5835 0)">
						<stop  offset="0" style="stop-color:#FFC444"/>
						<stop  offset="0.9964" style="stop-color:#F36F56"/>
					</linearGradient>
					<path style="fill:url(#SVGID_00000161595640288925063760000015647504766010411156_);" d="M2542.612,1363.333
						c0,0-14.952,19.937-40.495,15.789c-22.87-3.713-21.271-55.648-5.517-65.187c5.256-3.181,15.223-3.752,22.994-0.746
						c4.591,1.776,5.997,3.89,13.553,6.647c6.969,2.541,9.067,1.943,11.048,3.968c2.48,2.53,3.921,8.289-2.038,22.945
						c4.819-4.025,10.253-5.222,13.817-3.101c0.569,0.34,2.047,1.567,2.778,3.281
						C2561.402,1353.135,2555.294,1360.145,2542.612,1363.333z"/>
				</g>
			</g>
			<g>
				
					<linearGradient id="SVGID_00000182503224439720291860000000118072977893193881_" gradientUnits="userSpaceOnUse" x1="2531.0554" y1="1507.4446" x2="2543.7993" y2="1536.5391">
					<stop  offset="0" style="stop-color:#FF9085"/>
					<stop  offset="1" style="stop-color:#FB6FBB"/>
				</linearGradient>
				<path style="fill:url(#SVGID_00000182503224439720291860000000118072977893193881_);" d="M2557.205,1497.379
					c0,0-14.587,41.194-24.582,41.862c-9.995,0.666-17.323,1.998-17.323,1.998s-14.987-43.101-15.064-43.321
					c1.005,2.89,14.961,2.072,17.338,2.1C2530.866,1500.179,2543.983,1498.4,2557.205,1497.379z"/>
				
					<linearGradient id="SVGID_00000020364405255783918930000009795151097847833784_" gradientUnits="userSpaceOnUse" x1="2531.0554" y1="1507.4446" x2="2543.7993" y2="1536.5391">
					<stop  offset="0" style="stop-color:#FF9085"/>
					<stop  offset="1" style="stop-color:#FB6FBB"/>
				</linearGradient>
				<path style="opacity:0.3;fill:url(#SVGID_00000020364405255783918930000009795151097847833784_);" d="M2557.205,1497.379
					c0,0-14.587,41.194-24.582,41.862c-9.995,0.666-17.323,1.998-17.323,1.998s-14.987-43.101-15.064-43.321
					c1.005,2.89,14.961,2.072,17.338,2.1C2530.866,1500.179,2543.983,1498.4,2557.205,1497.379z"/>
				
					<linearGradient id="SVGID_00000158746396596159320290000016557144755578005180_" gradientUnits="userSpaceOnUse" x1="2434.1057" y1="1270.3704" x2="2528.3621" y2="1618.5417">
					<stop  offset="0" style="stop-color:#FF9085"/>
					<stop  offset="1" style="stop-color:#FB6FBB"/>
				</linearGradient>
				<path style="fill:url(#SVGID_00000158746396596159320290000016557144755578005180_);" d="M2537.367,1536.393
					c0,0,22.243,249.719,100.202,289.698c-1.999,7.996,0,72.962,0,72.962s-72.673-21.882-76.815-20.436
					c-4.143,1.446-88.014-137.573-45.454-337.378L2537.367,1536.393z"/>
			</g>
			
				<linearGradient id="SVGID_00000006678374437512035880000000197051232015316626_" gradientUnits="userSpaceOnUse" x1="2777.064" y1="2207.9966" x2="2779.3735" y2="2014.0072">
				<stop  offset="0" style="stop-color:#FFC444"/>
				<stop  offset="0.9964" style="stop-color:#F36F56"/>
			</linearGradient>
			<path style="fill:url(#SVGID_00000006678374437512035880000000197051232015316626_);" d="M2830.023,2007.95l-0.86-19.509
				l-24.886,18.849c-5.147-5.061-16.928-15.159-34.251-17.541c-19.521-2.678-41.054,5.132-41.075,11.295
				c-0.017,4.937,13.787,8.809,15.92,9.408c0.895,0.251,1.768,0.456,2.632,0.651c-6.007,4.146-8.783,9.143-3.883,14.883
				c15.286,17.9,60.731,1.48,62.343,1.092l-0.009-0.015C2816.635,2023.914,2828.781,2009.457,2830.023,2007.95z"/>
			
				<linearGradient id="SVGID_00000149369310853585746220000006103067697862437002_" gradientUnits="userSpaceOnUse" x1="2855.8169" y1="846.9526" x2="2844.2756" y2="1954.9475">
				<stop  offset="0" style="stop-color:#AA80F9"/>
				<stop  offset="0.9964" style="stop-color:#6165D7"/>
			</linearGradient>
			<path style="fill:url(#SVGID_00000149369310853585746220000006103067697862437002_);" d="M2724.105,1650.637
				c-22.616-43.924-41.337-112.449-19.647-218.18c203.708,61.987,319.201,238.38,291.594,387.759
				c-22.757,123.144-135.989,191.31-161.307,205.771c-7.238-13.444-14.476-26.882-21.714-40.326
				c27.768-36.394,58.101-89.348,48.651-146.245C2848.583,1760.537,2769.893,1739.562,2724.105,1650.637z"/>
			<g>
				<g>
					
						<linearGradient id="SVGID_00000124866358296535240160000008731149897067204799_" gradientUnits="userSpaceOnUse" x1="2731.657" y1="2135.551" x2="2682.0222" y2="1994.9191" gradientTransform="matrix(-1 0 0 1 5316.605 0)">
						<stop  offset="0" style="stop-color:#40447E"/>
						<stop  offset="0.9964" style="stop-color:#3C3B6B"/>
					</linearGradient>
					<polygon style="fill:url(#SVGID_00000124866358296535240160000008731149897067204799_);" points="2440.744,1965.919 
						2851.054,1959.794 2741.946,2012.451 2439.695,1992.669 					"/>
					
						<linearGradient id="SVGID_00000061437788574832585760000007971624307255836349_" gradientUnits="userSpaceOnUse" x1="2514.825" y1="1931.797" x2="2533.0244" y2="2057.5386" gradientTransform="matrix(-1 0 0 1 5316.605 0)">
						<stop  offset="0" style="stop-color:#40447E"/>
						<stop  offset="0.9964" style="stop-color:#3C3B6B"/>
					</linearGradient>
					<path style="fill:url(#SVGID_00000061437788574832585760000007971624307255836349_);" d="M2865.534,1970.697v0.002
						c0,7.678-4.805,14.537-12.021,17.162l-131.107,51.398l-0.597-35.633l129.246-43.832
						C2858.307,1957.709,2865.534,1963.153,2865.534,1970.697z"/>
				</g>
				<g>
					<g>
						
							<linearGradient id="SVGID_00000162331921462708123530000013441010492618628537_" gradientUnits="userSpaceOnUse" x1="2875.4377" y1="1942.8102" x2="2778.668" y2="1805.3972" gradientTransform="matrix(-1 0 0 1 5316.605 0)">
							<stop  offset="0" style="stop-color:#40447E"/>
							<stop  offset="0.9964" style="stop-color:#3C3B6B"/>
						</linearGradient>
						<path style="fill:url(#SVGID_00000162331921462708123530000013441010492618628537_);" d="M2710.924,1753.608l28.922,263.335
							c0.998,9.087-11.723,22.623-20.854,22.192l-424.282-26.047c-6.972-0.331-12.777-5.462-13.957-12.341l-53.253-254.336
							c-1.589-9.255,15.049-18.815,24.436-18.553l444.62,12.502C2703.982,1740.571,2710.114,1746.223,2710.924,1753.608z"/>
						
							<linearGradient id="SVGID_00000173877002568215012680000013108138816306209936_" gradientUnits="userSpaceOnUse" x1="2689.8159" y1="2170.2261" x2="2901.5918" y2="1740.0569" gradientTransform="matrix(-1 0 0 1 5316.605 0)">
							<stop  offset="0" style="stop-color:#40447E"/>
							<stop  offset="0.9964" style="stop-color:#3C3B6B"/>
						</linearGradient>
						<path style="fill:url(#SVGID_00000173877002568215012680000013108138816306209936_);" d="M2701.227,1761.286l28.923,263.337
							c0.997,9.086-6.359,16.914-15.49,16.484l-429.648-20.34c-6.971-0.33-12.776-5.462-13.957-12.34l-43.895-255.499
							c-1.59-9.257,5.69-17.653,15.078-17.389l444.621,12.502C2694.284,1748.247,2700.418,1753.903,2701.227,1761.286z"/>
					</g>
					
						<linearGradient id="SVGID_00000101803415216338555630000004273922183792054963_" gradientUnits="userSpaceOnUse" x1="2586.3652" y1="1894.1293" x2="3051.6072" y2="1894.1293" gradientTransform="matrix(-1 0 0 1 5316.605 0)">
						<stop  offset="0" style="stop-color:#40447E"/>
						<stop  offset="0.9964" style="stop-color:#3C3B6B"/>
					</linearGradient>
					<path style="opacity:0.3;fill:url(#SVGID_00000101803415216338555630000004273922183792054963_);" d="M2448.938,1959.06
						c37.516-15.9,24.274-46.222,68.575-84.005c58.443-49.844,118.012-28.227,138.866-66.861
						c6.494-12.033,9.596-30.756-1.716-61.059l32.197,0.905c7.424,0.207,13.559,5.863,14.367,13.245l28.923,263.337
						c0.996,9.085-6.36,16.914-15.49,16.484l-429.648-20.34c-6.971-0.33-12.776-5.461-13.957-12.34l-6.057-35.256
						c13.036-7.255,28.614-13.851,46.79-17.538C2374.821,1942.846,2405.747,1977.365,2448.938,1959.06z"/>
				</g>
			</g>
		</g>
	</g>
</g>
</svg>
