<?xml version="1.0" encoding="utf-8"?>
<!-- Generator: Adobe Illustrator 27.5.0, SVG Export Plug-In . SVG Version: 6.00 Build 0)  -->
<svg version="1.1" xmlns="http://www.w3.org/2000/svg" xmlns:xlink="http://www.w3.org/1999/xlink" x="0px" y="0px"
	 viewBox="0 0 1122 1122" style="enable-background:new 0 0 1122 1122;" xml:space="preserve">
<g id="background">
	<rect x="0" style="fill:#eff3fd04;" width="1122" height="1122"/>
</g>
<g id="shadow">
	<defs>
		<filter id="Adobe_OpacityMaskFilter" filterUnits="userSpaceOnUse" x="205.694" y="888.952" width="254.431" height="51.347">
			<feFlood  style="flood-color:white;flood-opacity:1" result="back"/>
			<feBlend  in="SourceGraphic" in2="back" mode="normal"/>
		</filter>
	</defs>
	<mask maskUnits="userSpaceOnUse" x="205.694" y="888.952" width="254.431" height="51.347" id="SVGID_1_">
		<g style="filter:url(#Adobe_OpacityMaskFilter);">
			<defs>
				
					<filter id="Adobe_OpacityMaskFilter_00000113333097289140820180000009402766620318228392_" filterUnits="userSpaceOnUse" x="205.694" y="888.952" width="254.431" height="51.347">
					<feFlood  style="flood-color:white;flood-opacity:1" result="back"/>
					<feBlend  in="SourceGraphic" in2="back" mode="normal"/>
				</filter>
			</defs>
			<mask maskUnits="userSpaceOnUse" x="205.694" y="888.952" width="254.431" height="51.347" id="SVGID_1_">
				<g style="filter:url(#Adobe_OpacityMaskFilter_00000113333097289140820180000009402766620318228392_);">
				</g>
			</mask>
			
				<linearGradient id="SVGID_00000032624922432743428930000014807451621028918165_" gradientUnits="userSpaceOnUse" x1="205.6938" y1="914.6253" x2="460.1251" y2="914.6253">
				<stop  offset="0" style="stop-color:#4D4D4D"/>
				<stop  offset="1" style="stop-color:#000000"/>
			</linearGradient>
			<path style="mask:url(#SVGID_1_);fill:url(#SVGID_00000032624922432743428930000014807451621028918165_);" d="M444.293,925.435
				c5.69-0.714,12.26-2.056,14.834-7.181c1.8-3.584,0.952-7.984-0.858-11.563c-7.941-15.709-29.145-17.765-46.746-17.739
				c-45.775,0.067-91.549,0.135-137.324,0.202c-23.306,0.034-50.145,1.742-64.125,20.39c-2.562,3.417-4.591,7.504-4.362,11.769
				c0.341,6.37,5.749,11.56,11.77,13.667c30.935,10.827,78.104,2.026,110.324,0.5C366.745,933.635,405.613,930.285,444.293,925.435z
				"/>
		</g>
	</mask>
	
		<linearGradient id="SVGID_00000154387854519992632770000015867612349986923406_" gradientUnits="userSpaceOnUse" x1="205.6938" y1="914.6253" x2="460.1251" y2="914.6253">
		<stop  offset="0" style="stop-color:#000000"/>
		<stop  offset="1" style="stop-color:#000000"/>
	</linearGradient>
	<path style="fill:url(#SVGID_00000154387854519992632770000015867612349986923406_);" d="M444.293,925.435
		c5.69-0.714,12.26-2.056,14.834-7.181c1.8-3.584,0.952-7.984-0.858-11.563c-7.941-15.709-29.145-17.765-46.746-17.739
		c-45.775,0.067-91.549,0.135-137.324,0.202c-23.306,0.034-50.145,1.742-64.125,20.39c-2.562,3.417-4.591,7.504-4.362,11.769
		c0.341,6.37,5.749,11.56,11.77,13.667c30.935,10.827,78.104,2.026,110.324,0.5C366.745,933.635,405.613,930.285,444.293,925.435z"
		/>
	<defs>
		
			<filter id="Adobe_OpacityMaskFilter_00000035533209527792673600000010174390016664008373_" filterUnits="userSpaceOnUse" x="731.179" y="876.339" width="284.659" height="56.519">
			<feFlood  style="flood-color:white;flood-opacity:1" result="back"/>
			<feBlend  in="SourceGraphic" in2="back" mode="normal"/>
		</filter>
	</defs>
	
		<mask maskUnits="userSpaceOnUse" x="731.179" y="876.339" width="284.659" height="56.519" id="SVGID_00000100368602279646934070000008117342838681942917_">
		<g style="filter:url(#Adobe_OpacityMaskFilter_00000035533209527792673600000010174390016664008373_);">
			<defs>
				
					<filter id="Adobe_OpacityMaskFilter_00000115506251517769721960000013060327496385106864_" filterUnits="userSpaceOnUse" x="731.179" y="876.339" width="284.659" height="56.519">
					<feFlood  style="flood-color:white;flood-opacity:1" result="back"/>
					<feBlend  in="SourceGraphic" in2="back" mode="normal"/>
				</filter>
			</defs>
			
				<mask maskUnits="userSpaceOnUse" x="731.179" y="876.339" width="284.659" height="56.519" id="SVGID_00000100368602279646934070000008117342838681942917_">
				<g style="filter:url(#Adobe_OpacityMaskFilter_00000115506251517769721960000013060327496385106864_);">
				</g>
			</mask>
			
				<linearGradient id="SVGID_00000137125157221175971890000015210476580927514775_" gradientUnits="userSpaceOnUse" x1="731.179" y1="904.5988" x2="1015.8384" y2="904.5988">
				<stop  offset="0" style="stop-color:#4D4D4D"/>
				<stop  offset="1" style="stop-color:#000000"/>
			</linearGradient>
			
				<path style="mask:url(#SVGID_00000100368602279646934070000008117342838681942917_);fill:url(#SVGID_00000137125157221175971890000015210476580927514775_);" d="
				M753.127,928.195c14.316,3.4,32.465,1.795,46.405,3.072c21.655,1.984,43.474,1.945,65.176,0.803
				c44.459-2.338,88.585-9.489,132.172-18.32c8.99-1.821,20.282-7.034,18.832-16.091c-1.229-7.677-10.731-10.37-18.443-11.357
				c-75.566-9.674-152.188-13.647-227.964-5.785c-8.644,0.897-17.526,2.026-25.117,6.258c-7.591,4.232-13.667,12.327-12.952,20.989
				c0.702,8.494,7.744,15.396,15.676,18.514C748.877,927.05,750.958,927.68,753.127,928.195z"/>
		</g>
	</mask>
	
		<linearGradient id="SVGID_00000088091409265493071440000006191593285595584944_" gradientUnits="userSpaceOnUse" x1="731.179" y1="904.5988" x2="1015.8384" y2="904.5988">
		<stop  offset="0" style="stop-color:#000000"/>
		<stop  offset="1" style="stop-color:#000000"/>
	</linearGradient>
	<path style="fill:url(#SVGID_00000088091409265493071440000006191593285595584944_);" d="M753.127,928.195
		c14.316,3.4,32.465,1.795,46.405,3.072c21.655,1.984,43.474,1.945,65.176,0.803c44.459-2.338,88.585-9.489,132.172-18.32
		c8.99-1.821,20.282-7.034,18.832-16.091c-1.229-7.677-10.731-10.37-18.443-11.357c-75.566-9.674-152.188-13.647-227.964-5.785
		c-8.644,0.897-17.526,2.026-25.117,6.258c-7.591,4.232-13.667,12.327-12.952,20.989c0.702,8.494,7.744,15.396,15.676,18.514
		C748.877,927.05,750.958,927.68,753.127,928.195z"/>
	<defs>
		
			<filter id="Adobe_OpacityMaskFilter_00000129908597805486844170000005115698418383683741_" filterUnits="userSpaceOnUse" x="520.314" y="882.584" width="276.507" height="46.773">
			<feFlood  style="flood-color:white;flood-opacity:1" result="back"/>
			<feBlend  in="SourceGraphic" in2="back" mode="normal"/>
		</filter>
	</defs>
	
		<mask maskUnits="userSpaceOnUse" x="520.314" y="882.584" width="276.507" height="46.773" id="SVGID_00000160912564228428308900000012424764951623735461_">
		<g style="filter:url(#Adobe_OpacityMaskFilter_00000129908597805486844170000005115698418383683741_);">
			<defs>
				
					<filter id="Adobe_OpacityMaskFilter_00000061466796521562050670000011796647940380837516_" filterUnits="userSpaceOnUse" x="520.314" y="882.584" width="276.507" height="46.773">
					<feFlood  style="flood-color:white;flood-opacity:1" result="back"/>
					<feBlend  in="SourceGraphic" in2="back" mode="normal"/>
				</filter>
			</defs>
			
				<mask maskUnits="userSpaceOnUse" x="520.314" y="882.584" width="276.507" height="46.773" id="SVGID_00000160912564228428308900000012424764951623735461_">
				<g style="filter:url(#Adobe_OpacityMaskFilter_00000061466796521562050670000011796647940380837516_);">
				</g>
			</mask>
			
				<linearGradient id="SVGID_00000071547381964692456460000006770329683380525502_" gradientUnits="userSpaceOnUse" x1="520.3138" y1="905.9705" x2="796.8212" y2="905.9705">
				<stop  offset="0" style="stop-color:#4D4D4D"/>
				<stop  offset="1" style="stop-color:#000000"/>
			</linearGradient>
			
				<path style="mask:url(#SVGID_00000160912564228428308900000012424764951623735461_);fill:url(#SVGID_00000071547381964692456460000006770329683380525502_);" d="
				M709.356,926.084c21.309-0.596,42.795-1.614,63.424-6.987c7.401-1.928,15.045-4.664,19.97-10.516
				c4.925-5.852,5.866-15.658,0.118-20.703c-3.883-3.408-9.489-3.779-14.652-3.962c-51.336-1.822-102.739-1.774-154.072,0.145
				c-28.528,1.067-58.224,2.463-85.367,12.168c-19.838,7.093-27.208,15.333-4.24,22.663
				C587.141,935.679,655.036,927.604,709.356,926.084z"/>
		</g>
	</mask>
	
		<linearGradient id="SVGID_00000162345556476022177130000005411690175181411499_" gradientUnits="userSpaceOnUse" x1="520.3138" y1="905.9705" x2="796.8212" y2="905.9705">
		<stop  offset="0" style="stop-color:#000000"/>
		<stop  offset="1" style="stop-color:#000000"/>
	</linearGradient>
	<path style="fill:url(#SVGID_00000162345556476022177130000005411690175181411499_);" d="M709.356,926.084
		c21.309-0.596,42.795-1.614,63.424-6.987c7.401-1.928,15.045-4.664,19.97-10.516c4.925-5.852,5.866-15.658,0.118-20.703
		c-3.883-3.408-9.489-3.779-14.652-3.962c-51.336-1.822-102.739-1.774-154.072,0.145c-28.528,1.067-58.224,2.463-85.367,12.168
		c-19.838,7.093-27.208,15.333-4.24,22.663C587.141,935.679,655.036,927.604,709.356,926.084z"/>
</g>
<g id="object">
	<g>
		<path style="fill:#EAEAEA;" d="M527.64,469.899c12.64-17.315,19.833-38.022,24.788-58.879c1.66-6.988,3.155-14.195,6.984-20.271
			c2.862-4.542,6.89-8.219,10.993-11.681c4.359-3.678,9.499-7.385,15.174-6.811c5.515,0.558,9.938,5.234,11.769,10.466
			c1.831,5.232,1.545,10.947,0.995,16.463c-3.043,30.52-13.936,60.819-34.28,83.773c-20.344,22.954-50.734,37.771-81.341,35.785
			c-1.209-0.079-2.511-0.221-3.411-1.033c-0.875-0.79-1.161-2.026-1.402-3.18c-1.738-8.337-2.897-9.789,5.269-12.27
			c6.142-1.866,11.965-4.254,17.505-7.523C511.242,488.508,520.475,479.832,527.64,469.899z"/>
		<path style="fill:#EDDDC2;" d="M465.94,504.386c-1.345-0.598-3.217-1.274-4.03-0.047c-0.199,0.3-0.275,0.661-0.398,0.999
			c-0.525,1.449-1.9,2.452-3.358,2.952c-1.458,0.5-3.02,0.581-4.555,0.731c-3.178,0.312-6.918,1.458-7.751,4.541
			c-0.648,2.399,0.84,4.842,2.515,6.678c1.036,1.136,2.21,2.205,3.645,2.757c3.585,1.377,7.438-0.784,10.898-2.451
			c3.719-1.791,7.685-3.074,11.748-3.799c3.588-0.641,7.844-0.184,7.909-4.948C482.676,503.513,470.878,506.58,465.94,504.386z"/>
		<path style="fill:#F2F2F2;" d="M708.448,843.614c-1.048-29.015-4.516-29.457-6.027-58.353
			c-1.776-33.956-1.617-68.427-2.049-102.538c-0.831-65.578-3.127-115.854-4.077-181.425c-0.666-45.948-1.518-111.54-23.004-138.413
			c-10.548-13.193-23.037-6.464-34.409-2.982c-15.962,4.887-35.169-2.692-51.044,3.112c-6.454-8.163-5.372,9.877-5.836,9.752
			c-8.015-2.161-5.959,9.863-8.888,25.389c-5.06,26.825-4.652,61.265-6.42,89.665c-4.122,66.19-6.904,117.039-10.638,183.333
			c-3.656,64.927-19.169,103.525-17.843,169.064c1,49.433-5.229,74.226,17.954,80.728c29.088,8.159,86.965,2.165,115.914-5.019
			c8.961-2.223,25.918-1.48,32.602-15.954C710.376,887.644,708.996,858.787,708.448,843.614z"/>
		<path style="fill:#EDDDC2;" d="M623.955,356.248c7.514-0.044,14.407-3.169,19.628-7.048c19.442-14.447,18.862-37.088,16.95-57.129
			c-0.203-2.126-0.459-4.365-2.138-6.122c-2.585-2.706-7.638-3.421-12.179-3.795c-19.405,0-38.553,0.632-58.107,1.31
			c-1.642,0.057-3.402,0.144-4.695,0.872c-1.381,0.778-1.893,2.098-2.189,3.34c-1.373,5.761,1.239,11.79,1.125,17.682
			c-0.117,6.04,0.222,12.121,1.683,18.08c2.843,11.593,10.259,22.377,24.294,28.973C613,354.608,618.368,356.281,623.955,356.248z"
			/>
		<path style="fill:#EAEAEA;" d="M706.996,436.357c-0.777-13.323-1.95-26.701-5.469-39.543c-3.519-12.842-9.514-25.215-18.929-34.74
			c-4.952-5.01-12.913-9.302-18.997-5.405c-5.708,3.656-5.482,11.711-4.473,18.21c4.562,29.363,11.399,58.298,18.551,87.116
			c2.945,11.866,5.948,23.737,7.826,35.828c4.333,27.902,2.591,56.579-2.43,84.559c4.613,1.143,10.459,1.898,13.384-1.85
			c2.387-3.06,1.311-7.028,2.351-10.462c1.243-4.101,2.907-7.215,3.551-11.711c1.402-9.793,2.544-19.615,3.425-29.456
			c1.779-19.869,2.512-39.803,2.329-59.706C708.013,458.237,707.633,447.287,706.996,436.357z"/>
		<path style="fill:#EDDDC2;" d="M697.122,595.254c0.141,0.788,0.267,1.659-0.172,2.347c-0.325,0.509-0.896,0.809-1.442,1.085
			c-2.185,1.105-4.444,2.211-6.877,2.461c-2.433,0.249-5.111-0.543-6.398-2.538c-0.519-0.804-0.782-1.748-0.909-2.696
			c-0.685-5.1,2.326-9.977,5.212-14.358c2.032-3.084,7.007-5.373,8.264-0.555C695.985,585.542,696.287,590.606,697.122,595.254z"/>
		<path style="fill:#F2F2F2;" d="M591.586,381.251c-2.097-21.572-2.319-43.286-2.538-64.965c-0.081-7.963,0.32-17.059,6.266-22.136
			c4.312-3.682,10.336-4.111,15.927-4.376c11.814-0.56,23.628-1.119,35.442-1.679c2.166-0.103,4.517-0.152,6.277,1.156
			c2.408,1.789,2.717,5.303,2.763,8.363c0.621,40.799-6.276,81.446-5.32,122.239c0.14,5.958,0.468,12.023,2.48,17.609
			c4.233-8.105,9.059-15.88,14.423-23.238c8.081-11.085,17.622-21.689,21.223-35.053c2.541-9.433,1.871-19.442,0.825-29.173
			c-1.764-16.406-4.537-32.676-7.308-48.933c-0.794-4.656-1.591-9.329-2.995-13.83c-1.842-5.908-4.7-11.424-7.795-16.745
			c-7.059-12.132-16.365-24.123-29.527-28.097c-11.971-3.614-24.829,0.118-36.371,4.996c-6.654,2.812-13.256,6.08-18.609,11.033
			c-7.355,6.806-11.866,16.396-14.313,26.273c-2.448,9.877-2.991,20.134-3.523,30.314c-1.083,20.715-2.165,41.43-3.248,62.145
			c-0.307,5.883-0.605,11.879,0.839,17.579c1.459,5.762,4.612,10.888,7.719,15.907c3.418,5.521,16.629,27.55,19.693,10.758
			C596.231,408.693,592.82,393.946,591.586,381.251z"/>
		<path style="fill:#191919;" d="M675.124,268.54c-0.76-0.581-1.829-0.43-2.769-0.257c-25.27,4.668-51.017,6.049-76.677,7.42
			c-5.678,0.303-11.636,0.554-16.758-1.916c-1.403-0.677-2.739-1.556-4.262-1.882c-4.389-0.938-5.874,4.114-1.202,4.702
			c5.334,0.672,10.798,1.411,16.197,1.874c11.475,0.984,23.017,0.761,34.504,0.116c6.6-0.37,13.19-0.885,19.78-1.403
			c3.893-0.306,7.786-0.612,11.679-0.918c5.66-0.445,11.395-0.905,16.751-2.788c1.098-0.386,2.232-0.873,2.928-1.805
			C675.991,270.75,676.049,269.247,675.124,268.54z"/>
	</g>
	<g>
		<path style="fill:#191919;" d="M426.434,570.316c-0.451-1.82-0.972-3.713-2.128-5.018c-1.319-1.488-3.218-1.938-5.016-2.253
			c-8.508-1.49-17.149-1.368-25.747-1.241c-5.651,0.083-11.302,0.166-16.953,0.248c-0.85-3.671-2.182-7.23-3.98-10.543
			c-1.233-2.273-2.702-4.458-4.656-6.151c-3.269-2.832-7.612-4.057-11.854-4.899c-4.948-0.983-10.08-1.553-15.02-0.533
			c-6.363,1.314-12.115,5.354-15.509,10.894c-2.099,3.425-3.509,7.816-3.58,12.031c-0.79,0.012-1.579,0.023-2.369,0.035
			c-13.677,0.2-27.421,0.407-40.906,3.137c-3.226,0.653-6.615,1.56-8.984,4.248c-4.403,4.997-3.396,13.453-2.639,20.641
			c2.058,19.55-0.286,39.19-0.565,58.773c-0.109,7.664-0.558,20.128,0.838,27.644c1.29,6.947,4.138,6.919,10.033,7.389
			c15.367,1.227,30.751,2.269,46.134,3.143c30.741,1.745,61.563-1.092,92.306-3.193c5.777-0.395,12.521-1.594,15.282-7.651
			c1.289-2.826,1.4-6.177,1.481-9.392C433.432,634.966,434.195,601.655,426.434,570.316z M330.617,562.725
			c0.245-5.406,2.163-10.915,6.977-13.323c6.228-4.64,15.272-4.74,21.981-0.828c5.073,2.959,8.752,7.964,10.556,13.572
			C356.96,562.339,343.789,562.532,330.617,562.725z"/>
		<path style="fill:#333333;" d="M249.398,587.47c5.058,20.925,1.065,63.387,12.58,81.577c1.079,1.705,2.246,3.422,3.909,4.565
			c1.736,1.194,3.859,1.657,5.932,2.029c18.826,3.383,56.649-22.751,74.316-30.081c5.189-2.153,17.39-2.027,20.346-6.804
			c1.205-1.948,1.966-4.133,2.698-6.304c7.402-21.972,5.827-47.571,9.063-70.53c0.236-1.674,0.455-3.421-0.088-5.022
			c-0.973-2.872-4.033-4.409-6.861-5.502c-18.709-7.232-39.229-7.98-59.287-7.891c-10.408,0.046-20.816,0.294-31.215,0.743
			c-7.241,0.313-21.925,0.473-25.654,8.265C250.927,561.314,247.27,578.67,249.398,587.47z"/>
		<path style="fill:#EADED5;" d="M345.188,252.696c-6.936,5.305-11.131,13.354-14.987,21.19c-4.784,9.721-9.465,19.83-10.16,30.641
			c-0.514,7.993,1.09,16.536-2.571,23.66c13.648,5.217,27.074,11.011,40.233,17.362c18.752-20.261,31.777-45.767,37.196-72.838
			c0.18-0.899,0.348-1.855,0.027-2.714c-0.359-0.96-1.251-1.6-2.105-2.165c-11.722-7.74-25.263-12.173-38.62-16.519
			c-1.412-0.459-2.873-0.925-4.352-0.791C348.118,250.681,346.568,251.641,345.188,252.696z"/>
		<path style="fill:#EDDDB2;" d="M427.246,263.549c-5.643-2.974-14.317-3.254-18.264-8.095c3.925-3.285,8.481-6.186,10.865-10.549
			c-17.71,6.773-32.72-2.655-48.171-9.081c-15.594-6.486-31.577-4.335-45.759,5.376c-26.206,17.944-9.971,60.706-8.404,87.061
			c1.964-2.753,7.239-10.415,7.327-13.685c0.115-4.266-4.814-5.366-4.311-10.03c0.777-7.205,8.095-12.34,13.241-6.579
			c5.962-10.171,15.206-28.129,15.319-40.083c20.01,12.15,40.321,20.662,64.25,12.845l-5.454,1.091
			C414.338,269.699,423.522,270.212,427.246,263.549z"/>
		<path style="fill:#333333;" d="M376.988,539.416c-0.647-14.123-0.927-28.262-0.791-42.402c0.311-32.401-1.402-64.659-3.753-96.986
			c-0.951-13.077-2.033-26.144-3.231-39.2c-0.469-5.108-15.242-10.4-18.973-11.204c-2.202-0.475-4.362-1.123-6.495-1.854
			c-2.043-0.7-4.061-1.475-6.069-2.245c-10.084-3.869-20.169-7.738-30.253-11.607c-1.496-0.574-3.096-1.158-4.664-0.829
			c-1.211,0.254-2.241,1.023-3.204,1.799c-18.833,15.191-23.953,39.892-29.123,62.36c-11.613,50.472-18.161,102.006-19.596,153.67
			c0,0,2.99,8.183,13.084,13.957c10.094,5.773,46.52,10.049,46.52,10.049l49.592-5.379
			C360.03,569.544,377.731,563.913,376.988,539.416z"/>
		<path style="fill:#375A7A;" d="M377.191,456.048c-3.105-26.98-6.209-53.959-9.314-80.939c-0.065-0.565-0.17-1.034-0.303-1.418
			c0.45-0.531,0.9-1.062,1.35-1.593c0.451-0.533,0.928-1.134,0.909-1.832c-0.013-0.494-0.277-0.942-0.533-1.365
			c-0.701-1.159-1.401-2.317-2.102-3.475c-0.616-1.019-1.619-2.193-2.746-1.81c-0.537,0.182-0.894,0.681-1.204,1.156
			c-0.908,1.39-1.738,2.831-2.484,4.314l0.524,0.302c0.645,1.9,1.63,3.679,2.871,5.257c-0.099,0.358-0.173,0.746-0.206,1.163
			c-0.373,4.665,0.479,9.572,0.921,14.209c2.252,23.6,2.144,47.425-0.321,71.004c-0.189,1.811-0.39,3.666,0.05,5.433
			c0.28,1.128,0.812,2.176,1.367,3.196c1.982,3.644,4.32,7.095,6.971,10.286c1.055-3.546,2.111-7.091,3.166-10.636
			c0.585-1.964,1.172-3.942,1.386-5.98C377.747,460.902,377.469,458.464,377.191,456.048z"/>
		<path style="fill:#EADED5;" d="M461.495,516.704c-3.086-3.89-8.043-6.223-13.007-6.123c1.151-1.167,2.334-3.072,1.193-4.249
			c-0.711-0.735-1.895-0.621-2.91-0.501c-4.349,0.514-8.8,0.144-13.004-1.081c-0.385-0.112-0.775-0.219-1.163-0.326
			c0.002-0.009,0.005-0.017,0.007-0.025c-25.502-9.505-50.186-21.205-73.69-34.927c1.853-8.401,1.475-17.113,1.088-25.708
			c-0.558-12.373-1.116-24.746-1.673-37.12c-0.214-4.746-0.61-9.938-3.891-13.373c-5.776-6.048-16.909-2.067-20.809,5.331
			c-3.899,7.398-2.781,16.323-1.562,24.596c3.189,21.639,6.378,43.278,9.566,64.918c0.366,2.48,0.824,5.149,2.618,6.9
			c1.414,1.381,3.415,1.938,5.325,2.446c25.72,6.836,51.44,13.672,77.16,20.507c0.035-0.05,0.063-0.105,0.098-0.156
			c9.316,5.39,20.856,6.842,31.174,3.747c1.1-0.33,2.259-0.761,2.923-1.698C461.567,518.968,461.62,517.79,461.495,516.704z"/>
		<path style="fill:#3D3D3D;" d="M427.124,518.726c-0.213,0.492-0.457,1.02-0.931,1.269c-0.467,0.246-1.032,0.156-1.551,0.06
			c-26.502-4.902-54.115-9.025-79.201-18.878c-2.034-0.799-4.118-1.671-5.638-3.241c-1.803-1.862-2.582-4.46-3.297-6.951
			c-8.216-28.641-15.987-57.96-14.947-87.738c0.218-6.231,1.008-12.906,5.113-17.6c4.505-5.15,11.822-6.612,18.604-7.512
			c4.416-0.586,9.387-0.915,12.832,1.91c3.345,2.744,4.065,7.493,4.551,11.793c1.618,14.331,3.237,28.662,4.855,42.993
			c1.092,9.665,2.183,19.331,3.275,28.996c0.209,1.854,0.432,3.752,1.271,5.418c1.731,3.436,5.615,5.107,9.18,6.555
			c12.677,5.149,25.131,10.848,37.315,17.076c3.325,1.7,13.528,5.868,14.748,9.642c0.704,2.177-2.24,5.795-3.088,7.757
			C428.878,513.37,428.461,515.631,427.124,518.726z"/>
		<g>
			<g>
				<path style="fill:#333333;" d="M375.765,590.626l-53.061,34.41c-3.818,0.086-7.948,0.268-10.895,2.346
					c-4.02,2.835-4.232,7.948-4.113,12.404c2.352,88.115,4.703,176.23,7.055,264.345c6.923,0.01,13.846,0.02,20.769,0.03
					c0.128-28.168,7.893-55.836,14.184-83.485C364.305,756.517,376.859,655.984,375.765,590.626z"/>
				<path style="fill:#1A1A1A;" d="M330.822,917.49c2.878,2.067-1.035,3.706-2.914,3.86c-3.419,0.28-6.97,0.116-10.313-0.573
					c-0.887-0.183-1.789-0.413-2.501-0.9c-0.56-0.383-0.968-0.901-1.367-1.411c-1.102-1.408-3.715-3.636-4.128-5.27
					c-0.341-1.347,0.605-2.657,1.345-3.887c1.569-2.611,4.254-5.295,4.12-8.399c7.414,0.698,14.525-1.49,20.669,0.221
					c0.517,2.211,2.45,4.018,1.55,5.748c0.594-1.142,18.5,2.714,20.623,3.07c3.415,0.572,6.849,1.057,10.317,1.32
					c2.701,0.205,7.875-0.861,9.395,1.445c0.54,0.819,0.716,1.775,0.797,2.712c0.061,0.714,0.07,1.448-0.201,2.125
					c-0.467,1.167-1.718,2.005-3.071,2.431C360.427,924.611,345.763,917.306,330.822,917.49z"/>
			</g>
			<g>
				<path style="fill:#333333;" d="M271.71,630.488c16.877,0.011,33.755,0.022,50.632,0.033c1.112-1.841-3.307-0.334-3.338,1.738
					c-0.984,65.359-9.886,130.629-26.52,194.426c-7.168,27.493-15.809,54.969-16.832,83.124c-6.92-0.171-13.84-0.342-20.76-0.514
					c0.449-88.137,0.898-176.274,1.346-264.411c0.023-4.458,0.397-9.563,4.506-12.304
					C263.756,630.571,267.891,630.485,271.71,630.488z"/>
				<path style="fill:#1A1A1A;" d="M270.532,923.022c2.812,2.133-1.153,3.681-3.035,3.791c-3.427,0.201-6.971-0.047-10.291-0.813
					c-0.881-0.203-1.775-0.454-2.472-0.958c-0.548-0.396-0.939-0.923-1.322-1.442c-1.057-1.433-3.598-3.721-3.959-5.364
					c-0.298-1.355,0.69-2.642,1.467-3.855c1.651-2.574,4.421-5.194,4.385-8.3c7.389,0.871,14.567-1.152,20.654,0.702
					c0.446,2.222,2.321,4.073,1.367,5.782c0.63-1.128,18.407,3.143,20.517,3.549c3.396,0.652,6.813,1.216,10.272,1.56
					c2.694,0.268,7.899-0.678,9.345,1.663c0.514,0.831,0.66,1.791,0.711,2.73c0.039,0.715,0.024,1.449-0.269,2.119
					c-0.504,1.156-1.781,1.965-3.147,2.359C299.9,930.829,285.474,923.186,270.532,923.022z"/>
			</g>
		</g>
		<g>
			<path style="fill:#666666;" d="M264.682,632.795c0.074-1.214-1.775-1.352-1.881-0.14c-0.213,2.417-0.421,4.834-0.601,7.253
				c-0.096,1.29,1.905,1.44,2.001,0.149C264.382,637.638,264.534,635.217,264.682,632.795z"/>
			<path style="fill:#666666;" d="M264.976,657.288c0.085-1.179-1.737-1.315-1.828-0.136c-0.142,1.85-0.285,3.699-0.427,5.549
				c-0.092,1.196,1.768,1.334,1.854,0.138C264.709,660.988,264.842,659.138,264.976,657.288z"/>
			<path style="fill:#666666;" d="M263.805,676.534c-0.053-1.111-1.793-1.262-1.748-0.13c0.092,2.298,0.185,4.596,0.277,6.894
				c0.046,1.153,1.857,1.293,1.801,0.134C264.025,681.133,263.915,678.834,263.805,676.534z"/>
			<path style="fill:#666666;" d="M264.646,695.901c0.076-1.145-1.68-1.276-1.775-0.132c-0.177,2.133-0.354,4.267-0.531,6.4
				c-0.1,1.212,1.801,1.354,1.881,0.14C264.363,700.173,264.505,698.037,264.646,695.901z"/>
			<path style="fill:#666666;" d="M264.821,716.951c0.079-1.179-1.731-1.314-1.828-0.136l-0.633,7.68
				c-0.103,1.255,1.864,1.402,1.948,0.145L264.821,716.951z"/>
			<path style="fill:#666666;" d="M264.683,736.259c0.079-1.197-1.755-1.333-1.855-0.138c-0.19,2.275-0.379,4.551-0.569,6.827
				c-0.106,1.272,1.891,1.421,1.975,0.147C264.383,740.816,264.533,738.538,264.683,736.259z"/>
			<path style="fill:#666666;" d="M264.531,761.148c0.069-1.18-1.721-1.314-1.828-0.136c-0.259,2.842-0.519,5.685-0.683,8.535
				c-0.072,1.24,1.808,1.38,1.921,0.143C264.201,766.847,264.365,763.997,264.531,761.148z"/>
			<path style="fill:#666666;" d="M264.408,783.866c0.187-1.045-1.569-1.414-1.829-0.388c-0.868,3.42-1.052,6.871-0.746,10.379
				c0.113,1.299,2.083,0.891,1.983-0.391C263.561,790.229,263.836,787.056,264.408,783.866z"/>
			<path style="fill:#666666;" d="M263.236,806.986c-0.031-1.097-1.686-1.27-1.734-0.129c-0.11,2.569-0.177,5.137-0.174,7.709
				c0.001,1.265,1.955,1.43,1.974,0.147C263.341,812.135,263.309,809.562,263.236,806.986z"/>
			<path style="fill:#666666;" d="M263.357,835.331c0.135-1.262-1.826-1.405-1.961-0.146c-0.285,2.66-0.307,5.31-0.07,7.974
				c0.112,1.257,2.013,0.86,1.917-0.378C263.05,840.289,263.091,837.816,263.357,835.331z"/>
			<path style="fill:#666666;" d="M263.285,861.915c0.201-1.006-1.504-1.36-1.764-0.374c-0.833,3.154-1.064,6.273-0.704,9.515
				c0.144,1.301,2.1,0.89,1.982-0.391C262.528,867.733,262.709,864.801,263.285,861.915z"/>
			<path style="fill:#666666;" d="M263.575,895.881c0.077-1.275-1.862-1.419-1.975-0.147c-0.089,0.995-0.196,1.989-0.229,2.988
				c-0.044,1.285,1.84,1.426,1.988,0.148C263.474,897.877,263.515,896.878,263.575,895.881z"/>
		</g>
	</g>
	<g>
		<path style="fill:#F2F2F2;" d="M852.725,364.772c5.239,0.28,10.638,0.594,15.328,2.475c7.362,2.953,11.625,9.189,14.763,15.259
			c8.402,16.251,11.966,33.801,14.802,51.23c25.238,155.105-2.351,312.287-1.121,468.686c0.034,4.272-0.235,9.137-4.334,11.892
			c-3.069,2.062-7.406,2.292-11.419,2.411c-40.377,1.193-80.827,0.806-121.156-1.159c-5.142-0.251-10.975-0.818-13.985-4.146
			c-2.393-2.646-2.188-6.201-1.877-9.452c11.515-120.143,31.867-239.922,33.119-360.411c0.429-41.299-1.393-82.653,1.862-123.905
			c0.996-12.617-2.048-43.555,10.856-52.538C802.083,356.396,837.798,363.973,852.725,364.772z"/>
		<path style="fill:#EDDDC2;" d="M813.358,355.601c7.593-0.044,14.559-3.202,19.835-7.122c19.647-14.599,19.061-37.48,17.129-57.731
			c-0.205-2.148-0.464-4.411-2.161-6.187c-2.612-2.735-7.718-3.458-12.308-3.835c-19.609,0-38.959,0.639-58.719,1.324
			c-1.66,0.058-3.438,0.145-4.745,0.882c-1.395,0.786-1.913,2.12-2.213,3.375c-1.387,5.822,1.252,11.914,1.137,17.868
			c-0.118,6.103,0.224,12.249,1.701,18.27c2.873,11.715,10.367,22.613,24.55,29.278
			C802.288,353.943,807.713,355.634,813.358,355.601z"/>
		<path style="fill:#F2F2F2;" d="M789.194,290.884c8.654,3.471,12.57,13.595,13.615,22.86c1.742,15.439-1.79,30.918-4.807,46.159
			c-4.067,20.547-7.234,41.272-9.487,62.095c-0.285,2.637-0.489,5.547,1.067,7.696c2.093,2.891,6.295,3.043,9.844,2.669
			c27.651-2.915,52.589-21.261,65.986-45.624c4.182-7.606,7.353-15.802,8.978-24.329c3.299-17.309,0.153-35.15-3.623-52.361
			c-4.356-19.854-9.554-39.523-15.576-58.936c-0.781-2.518-1.589-5.06-2.958-7.313c-5.624-9.251-18.232-10.677-29.05-11.104
			c-11.034-0.436-22.48-0.803-32.666,3.461c-10.197,4.269-18.161,12.925-23.098,22.816c-2.748,5.505-11.556,25.738-7.249,31.474
			C764.081,295.66,782.067,288.026,789.194,290.884z"/>
		<path style="fill:#191919;" d="M865.067,266.968c-0.768-0.587-1.848-0.435-2.798-0.259c-25.537,4.717-51.555,6.113-77.486,7.498
			c-5.738,0.307-11.759,0.56-16.935-1.936c-1.418-0.684-2.768-1.573-4.307-1.902c-4.436-0.948-5.936,4.158-1.214,4.752
			c5.391,0.679,10.912,1.426,16.367,1.893c11.596,0.994,23.259,0.769,34.867,0.117c6.669-0.374,13.329-0.895,19.989-1.418
			c3.934-0.309,7.869-0.618,11.803-0.927c5.72-0.45,11.515-0.914,16.928-2.818c1.11-0.39,2.255-0.882,2.959-1.825
			C865.944,269.202,866.003,267.682,865.067,266.968z"/>
		<path style="fill:#191919;" d="M923.24,632.195c-0.444-1.792-0.957-3.657-2.096-4.942c-1.299-1.466-3.17-1.909-4.94-2.219
			c-8.379-1.468-16.89-1.347-25.358-1.223c-5.565,0.081-11.131,0.163-16.697,0.245c-0.837-3.615-2.149-7.121-3.919-10.383
			c-1.215-2.238-2.661-4.391-4.586-6.058c-3.22-2.789-7.496-3.996-11.675-4.825c-4.873-0.968-9.928-1.53-14.793-0.525
			c-6.266,1.294-11.931,5.273-15.274,10.729c-2.067,3.373-3.456,7.698-3.526,11.849c-0.778,0.012-1.555,0.023-2.333,0.034
			c-13.471,0.197-27.007,0.401-40.288,3.09c-3.177,0.643-6.515,1.536-8.848,4.184c-4.337,4.921-3.344,13.249-2.599,20.329
			c2.026,19.255-0.282,38.598-0.556,57.884c-0.107,7.548-0.55,19.824,0.826,27.226c1.271,6.842,4.075,6.814,9.881,7.277
			c15.135,1.209,30.286,2.235,45.437,3.095c30.276,1.719,60.633-1.075,90.91-3.145c5.69-0.389,12.332-1.57,15.051-7.535
			c1.269-2.784,1.379-6.083,1.459-9.25C930.132,695.867,930.884,663.06,923.24,632.195z M828.872,624.718
			c0.242-5.324,2.13-10.75,6.871-13.121c6.134-4.57,15.041-4.668,21.648-0.815c4.997,2.914,8.62,7.843,10.397,13.366
			C854.816,624.338,841.844,624.529,828.872,624.718z"/>
		<path style="fill:#EAEAEA;" d="M867.317,448.842c-0.666-13.262-1.735-26.574-5.203-39.331
			c-3.468-12.757-9.463-25.022-18.976-34.42c-5.003-4.943-13.081-9.142-19.323-5.203c-5.856,3.695-5.702,11.716-4.734,18.178
			c4.374,29.201,11.073,57.953,18.094,86.586c2.891,11.79,5.841,23.585,7.642,35.608c4.155,27.747,2.106,56.325-3.279,84.239
			c4.693,1.095,10.648,1.791,13.667-1.969c2.464-3.07,1.403-7.012,2.497-10.442c1.307-4.096,3.034-7.213,3.733-11.697
			c1.523-9.767,2.78-19.56,3.772-29.368c2.002-19.805,2.939-39.665,2.94-59.486C868.147,470.625,867.864,459.722,867.317,448.842z"
			/>
		<path style="fill:#EDDDC2;" d="M855.743,607.188c0.137,0.783,0.257,1.65-0.197,2.339c-0.336,0.51-0.922,0.815-1.48,1.095
			c-2.239,1.122-4.553,2.245-7.036,2.516c-2.484,0.271-5.207-0.492-6.501-2.467c-0.522-0.796-0.781-1.733-0.902-2.677
			c-0.65-5.073,2.466-9.958,5.451-14.349c2.102-3.091,7.196-5.418,8.433-0.631C854.675,597.526,854.936,602.566,855.743,607.188z"/>
		<path style="fill:#333333;" d="M786.647,335.156c1.232-0.001,2.495,0.004,3.652,0.428c1.829,0.67,3.209,2.434,3.419,4.371
			c0.02,0.182,0.027,0.38-0.072,0.534c-0.101,0.158-0.289,0.234-0.469,0.288c-1.628,0.491-3.408-0.062-5.075,0.28
			c-0.907,0.186-1.737,0.629-2.599,0.967c-1.704,0.667-3.565,0.927-5.387,0.75c-2.975-0.288-3.604-2.768-1.868-4.782
			C780.33,335.576,783.693,335.157,786.647,335.156z"/>
	</g>
</g>
</svg>
