<?xml version="1.0" encoding="utf-8"?>
<!-- Generator: Adobe Illustrator 27.5.0, SVG Export Plug-In . SVG Version: 6.00 Build 0)  -->
<svg version="1.1" xmlns="http://www.w3.org/2000/svg" xmlns:xlink="http://www.w3.org/1999/xlink" x="0px" y="0px"
	 viewBox="0 0 500 500" style="enable-background:new 0 0 500 500;" xml:space="preserve">
<g id="Background_Complete">
	<g>
		<g>
			<rect y="382.398" style="fill:#EBEBEB;" width="500" height="0.25"/>
			<path style="fill:#EBEBEB;" d="M237.014,337.8H43.915c-3.147,0-5.708-2.561-5.708-5.708V60.66c0-3.147,2.561-5.708,5.708-5.708
				h193.099c3.146,0,5.707,2.561,5.707,5.708v271.432C242.721,335.239,240.16,337.8,237.014,337.8z M43.915,55.203
				c-3.01,0-5.458,2.448-5.458,5.458v271.432c0,3.01,2.448,5.458,5.458,5.458h193.099c3.009,0,5.457-2.448,5.457-5.458V60.66
				c0-3.009-2.448-5.458-5.457-5.458H43.915z"/>
			<path style="fill:#EBEBEB;" d="M453.31,337.8H260.212c-3.147,0-5.707-2.561-5.707-5.708V60.66c0-3.147,2.561-5.708,5.707-5.708
				H453.31c3.148,0,5.708,2.561,5.708,5.708v271.432C459.019,335.239,456.458,337.8,453.31,337.8z M260.212,55.203
				c-3.009,0-5.457,2.448-5.457,5.458v271.432c0,3.01,2.448,5.458,5.457,5.458H453.31c3.01,0,5.458-2.448,5.458-5.458V60.66
				c0-3.009-2.448-5.458-5.458-5.458H260.212z"/>
		</g>
		<g>
			<rect x="174.438" y="391.922" style="fill:#EBEBEB;" width="25.997" height="0.25"/>
			<rect x="52.459" y="389.208" style="fill:#EBEBEB;" width="54.101" height="0.25"/>
			<rect x="147.119" y="401.208" style="fill:#EBEBEB;" width="26.317" height="0.25"/>
			<rect x="258.227" y="399.528" style="fill:#EBEBEB;" width="38.832" height="0.25"/>
			<rect x="305.962" y="399.528" style="fill:#EBEBEB;" width="10.694" height="0.25"/>
			<rect x="395.346" y="395.306" style="fill:#EBEBEB;" width="54.556" height="0.25"/>
		</g>
	</g>
	<g>
		<g>
			<path style="fill:#F5F5F5;" d="M189.64,158.667h-74c-3.13,0-5.667,2.537-5.667,5.667v218.065h85.333V164.333
				C195.307,161.204,192.77,158.667,189.64,158.667z"/>
			<rect x="117.06" y="171.889" style="fill:#EBEBEB;" width="11" height="24.487"/>
			<rect x="177.22" y="171.889" style="fill:#EBEBEB;" width="11" height="24.487"/>
			<rect x="137.113" y="171.889" style="fill:#EBEBEB;" width="11" height="24.487"/>
			<rect x="157.167" y="171.889" style="fill:#EBEBEB;" width="11" height="24.487"/>
			<rect x="117.06" y="210.549" style="fill:#EBEBEB;" width="11" height="24.487"/>
			<rect x="177.22" y="210.549" style="fill:#EBEBEB;" width="11" height="24.487"/>
			<rect x="137.113" y="210.549" style="fill:#EBEBEB;" width="11" height="24.487"/>
			<rect x="157.167" y="210.549" style="fill:#EBEBEB;" width="11" height="24.487"/>
			<rect x="117.06" y="249.21" style="fill:#EBEBEB;" width="11" height="24.487"/>
			<rect x="177.22" y="249.21" style="fill:#EBEBEB;" width="11" height="24.487"/>
			<rect x="137.113" y="249.21" style="fill:#EBEBEB;" width="11" height="24.487"/>
			<rect x="157.167" y="249.21" style="fill:#EBEBEB;" width="11" height="24.487"/>
			<rect x="117.06" y="287.871" style="fill:#EBEBEB;" width="11" height="24.487"/>
			<rect x="177.22" y="287.871" style="fill:#EBEBEB;" width="11" height="24.487"/>
			<rect x="137.113" y="287.871" style="fill:#EBEBEB;" width="11" height="24.487"/>
			<rect x="157.167" y="287.871" style="fill:#EBEBEB;" width="11" height="24.487"/>
			<rect x="117.06" y="326.531" style="fill:#EBEBEB;" width="11" height="24.487"/>
			<rect x="177.22" y="326.531" style="fill:#EBEBEB;" width="11" height="24.487"/>
			<rect x="137.113" y="326.531" style="fill:#EBEBEB;" width="11" height="24.487"/>
			<rect x="157.167" y="326.531" style="fill:#EBEBEB;" width="11" height="24.487"/>
		</g>
		<g>
			<path style="fill:#F5F5F5;" d="M431.053,179.003h-53.003c-2.548,0-4.614,2.066-4.614,4.614v198.781h62.231V183.617
				C435.667,181.069,433.601,179.003,431.053,179.003z"/>
			<rect x="381.32" y="191.023" style="fill:#EBEBEB;" width="10" height="22.261"/>
			<rect x="399.551" y="191.023" style="fill:#EBEBEB;" width="10" height="22.261"/>
			<rect x="417.781" y="191.023" style="fill:#EBEBEB;" width="10" height="22.261"/>
			<rect x="381.32" y="226.17" style="fill:#EBEBEB;" width="10" height="22.261"/>
			<rect x="399.551" y="226.17" style="fill:#EBEBEB;" width="10" height="22.261"/>
			<rect x="417.781" y="226.17" style="fill:#EBEBEB;" width="10" height="22.261"/>
			<rect x="381.32" y="261.316" style="fill:#EBEBEB;" width="10" height="22.261"/>
			<rect x="399.551" y="261.316" style="fill:#EBEBEB;" width="10" height="22.261"/>
			<rect x="417.781" y="261.316" style="fill:#EBEBEB;" width="10" height="22.261"/>
			<rect x="381.32" y="296.463" style="fill:#EBEBEB;" width="10" height="22.261"/>
			<rect x="399.551" y="296.463" style="fill:#EBEBEB;" width="10" height="22.261"/>
			<rect x="417.781" y="296.463" style="fill:#EBEBEB;" width="10" height="22.261"/>
			<rect x="381.32" y="331.609" style="fill:#EBEBEB;" width="10" height="22.261"/>
			<rect x="399.551" y="331.609" style="fill:#EBEBEB;" width="10" height="22.261"/>
			<rect x="417.781" y="331.609" style="fill:#EBEBEB;" width="10" height="22.261"/>
		</g>
		<g>
			<path style="fill:#F5F5F5;" d="M342.684,122.111h-86.091c-3.641,0-6.593,2.952-6.593,6.592v253.695h99.276V128.704
				C349.276,125.063,346.325,122.111,342.684,122.111z"/>
			<rect x="258.245" y="137.494" style="fill:#EBEBEB;" width="12.797" height="28.488"/>
			<rect x="328.234" y="137.494" style="fill:#EBEBEB;" width="12.797" height="28.488"/>
			<rect x="281.575" y="137.494" style="fill:#EBEBEB;" width="12.797" height="28.488"/>
			<rect x="304.905" y="137.494" style="fill:#EBEBEB;" width="12.797" height="28.488"/>
			<rect x="258.245" y="182.471" style="fill:#EBEBEB;" width="12.797" height="28.488"/>
			<rect x="328.234" y="182.471" style="fill:#EBEBEB;" width="12.797" height="28.488"/>
			<rect x="281.575" y="182.471" style="fill:#EBEBEB;" width="12.797" height="28.488"/>
			<rect x="304.905" y="182.471" style="fill:#EBEBEB;" width="12.797" height="28.488"/>
			<rect x="258.245" y="227.448" style="fill:#EBEBEB;" width="12.797" height="28.488"/>
			<rect x="328.234" y="227.448" style="fill:#EBEBEB;" width="12.797" height="28.488"/>
			<rect x="281.575" y="227.448" style="fill:#EBEBEB;" width="12.797" height="28.488"/>
			<rect x="304.905" y="227.448" style="fill:#EBEBEB;" width="12.797" height="28.488"/>
			<rect x="258.245" y="272.426" style="fill:#EBEBEB;" width="12.797" height="28.488"/>
			<rect x="328.234" y="272.426" style="fill:#EBEBEB;" width="12.797" height="28.488"/>
			<rect x="281.575" y="272.426" style="fill:#EBEBEB;" width="12.797" height="28.488"/>
			<rect x="304.905" y="272.426" style="fill:#EBEBEB;" width="12.797" height="28.488"/>
			<rect x="258.245" y="317.403" style="fill:#EBEBEB;" width="12.797" height="28.488"/>
			<rect x="328.234" y="317.403" style="fill:#EBEBEB;" width="12.797" height="28.488"/>
			<rect x="281.575" y="317.403" style="fill:#EBEBEB;" width="12.797" height="28.488"/>
			<rect x="304.905" y="317.403" style="fill:#EBEBEB;" width="12.797" height="28.488"/>
		</g>
		<rect x="195.307" y="215.333" style="fill:#E6E6E6;" width="54.694" height="167.065"/>
		<rect x="349.276" y="233.222" style="fill:#E6E6E6;" width="24.159" height="149.176"/>
		<polygon style="fill:#E6E6E6;" points="109.973,382.398 62.111,382.398 62.111,312.647 109.973,296.463 		"/>
		<path style="fill:#F5F5F5;" d="M421.043,94.383c7.826-6.53,23.758-19.269,10.06-21.094c-13.167-1.754-32.55,5.954-38.741,12.707
			c-0.014-6.466-3.053-12.622-14.676-17.605c-17.92-7.682-20.723,20.229-19.749,25.351c-7.188-3.457-29.89-2.817-14.24,6.914h79.443
			C423.141,100.656,439.539,90.414,421.043,94.383z"/>
		<path style="fill:#FAFAFA;" d="M62.603,127.992c-0.065-3.719-0.467-10.975,6.113-12.014c6.325-0.999,10.615,3.391,9.892,7.238
			c3.16-3.683,7.426-7.189,14.685-10.027c11.192-4.376-1.262,11.522-4.166,14.439c4.673-1.969,13.79-1.604,2.541,3.938H58.671
			C58.671,131.565,56.857,125.731,62.603,127.992z"/>
		<path style="fill:#F5F5F5;" d="M201.065,83.859H94.774c0,0,6.154-7.48,15.772-5.118c-4.528-5.774-6.934-27.402,8.229-30.098
			c7.706-1.37,16.803,12.645,16.982,19.993c3.807-17.584,14.303-39.933,30.419-35.562c16.116,4.371,3.636,36.306,3.636,36.306
			s15.488-22.565,28.344-12.554c7.665,5.969-6.718,19.684-6.718,19.684S209.056,76.38,201.065,83.859z"/>
	</g>
</g>
<g id="Background_Simple" style="display:none;">
	<g style="display:inline;">
		<path style="fill:#407BFF;" d="M217.937,132.96c-82.705-30.397-187.32,3.078-147.087,101.755
			c16.086,39.454,57.13,59.268,102.148,58.896c42.229-0.348,64.821-28.461,102.953-37.838c39.91-9.814,80.819,17.838,117.14-1.446
			c34.76-18.455,39.85-68.346,33.554-100.996c-7.897-40.947-38.938-73.492-85.434-52.723
			C296.11,120.754,276.53,154.495,217.937,132.96z"/>
		<path style="opacity:0.9;fill:#FFFFFF;" d="M217.937,132.96c-82.705-30.397-187.32,3.078-147.087,101.755
			c16.086,39.454,57.13,59.268,102.148,58.896c42.229-0.348,64.821-28.461,102.953-37.838c39.91-9.814,80.819,17.838,117.14-1.446
			c34.76-18.455,39.85-68.346,33.554-100.996c-7.897-40.947-38.938-73.492-85.434-52.723
			C296.11,120.754,276.53,154.495,217.937,132.96z"/>
	</g>
</g>
<g id="Shadow_1_">
	<ellipse id="_x3C_Path_x3E__248_" style="fill:#F5F5F5;" cx="250" cy="416.238" rx="193.889" ry="11.323"/>
</g>
<g id="Truck">
	<g>
		<path style="fill:#263238;" d="M198.194,339.631c-11.81,0-21.383,9.574-21.383,21.384c0,11.81,9.574,21.384,21.383,21.384h4.273
			v-42.767H198.194z"/>
		<path style="fill:#263238;" d="M354.016,339.631c-11.81,0-21.383,9.574-21.383,21.384c0,11.81,9.574,21.384,21.383,21.384h4.273
			v-42.767H354.016z"/>
		<circle style="fill:#263238;" cx="283.398" cy="361.015" r="21.384"/>
		<circle style="fill:#263238;" cx="127.575" cy="361.015" r="21.384"/>
		<g>
			<rect x="225.489" y="247.656" style="fill:#407BFF;" width="81.132" height="103.076"/>
			<rect x="225.489" y="247.656" style="opacity:0.2;" width="81.132" height="103.076"/>
		</g>
		
			<rect x="389.251" y="273.001" transform="matrix(0.7612 -0.6486 0.6486 0.7612 -85.5856 318.5698)" style="fill:#407BFF;" width="1" height="4.978"/>
		
			<rect x="379.503" y="256.296" transform="matrix(0.7611 -0.6486 0.6486 0.7611 -80.4901 309.5715)" style="fill:#407BFF;" width="1" height="15.512"/>
		<path style="fill:#407BFF;" d="M306.622,350.732h100.761v-44.778c0-3.324-1.184-6.539-3.34-9.068l-31.355-36.79
			c-6.727-7.893-16.577-12.44-26.948-12.44h-39.118V350.732z"/>
		<path style="fill:#FFFFFF;" d="M323.13,301.75v-37.896c0-3.434,2.784-6.218,6.218-6.218h9.672c10.22,0,19.927,4.481,26.557,12.26
			l23.712,27.822c0.959,1.125,1.486,2.555,1.486,4.034l0,0c0,3.434-2.784,6.218-6.218,6.218h-55.207
			C325.914,307.969,323.13,305.185,323.13,301.75z"/>
		<path style="fill:#FFFFFF;" d="M407.383,338.552h-12.44c-2.949,0-4.81-3.173-3.37-5.746l2.1-3.753
			c0.683-1.22,1.971-1.976,3.37-1.976h10.341V338.552z"/>
		<g>
			<rect x="92.617" y="230.342" style="fill:#407BFF;" width="196.087" height="120.39"/>
			<rect x="92.617" y="230.342" style="opacity:0.6;fill:#FFFFFF;" width="196.087" height="120.39"/>
		</g>
		<rect x="145.716" y="332.384" style="opacity:0.5;fill:#407BFF;" width="33.369" height="7.247"/>
		<rect x="92.617" y="332.384" style="opacity:0.5;fill:#407BFF;" width="9.16" height="7.247"/>
		<rect x="92.617" y="230.342" style="opacity:0.4;fill:#407BFF;" width="67.744" height="120.39"/>
		<rect x="121.975" y="230.342" style="opacity:0.4;fill:#407BFF;" width="1.094" height="120.39"/>
		<path style="fill:#263238;" d="M408.364,359.087H91.636c-0.903,0-1.636-0.732-1.636-1.636v-5.083c0-0.903,0.732-1.636,1.636-1.636
			h316.729c0.903,0,1.636,0.732,1.636,1.636v5.083C410,358.354,409.268,359.087,408.364,359.087z"/>
		<circle style="fill:#263238;" cx="358.289" cy="361.015" r="21.384"/>
		<circle style="fill:#FFFFFF;" cx="358.289" cy="361.015" r="13.762"/>
		<circle style="fill:#263238;" cx="202.467" cy="361.015" r="21.384"/>
		<circle style="fill:#FFFFFF;" cx="202.467" cy="361.015" r="13.762"/>
	</g>
</g>
<g id="Character_1_">
	<g>
		<polygon style="fill:#407BFF;" points="230.336,407.534 221.839,407.401 219.526,387.695 228.023,387.828 		"/>
		<path style="fill:#263238;" d="M221.622,406.418l9.262,0.145c0.347,0.005,0.619,0.251,0.655,0.591l0.807,7.576
			c0.084,0.785-0.595,1.518-1.394,1.492c-3.334-0.109-8.14-0.381-12.339-0.447c-4.91-0.077-4.432,0.125-10.19,0.034
			c-3.482-0.055-4.042-3.595-2.548-3.892c6.802-1.349,7.488-1.42,13.628-4.871C220.171,406.673,220.89,406.407,221.622,406.418z"/>
		<path style="fill:#407BFF;" d="M213.319,153.507c-2.783,5.947-5.756,11.557-9.071,17.152c-1.654,2.784-3.363,5.551-5.218,8.267
			c-0.904,1.364-1.873,2.716-2.833,4.067c-1.017,1.339-1.997,2.673-3.111,3.995l-0.816,0.99c-0.187,0.227-0.729,0.898-1.344,1.467
			c-0.302,0.288-0.63,0.573-1.016,0.855c-0.353,0.276-0.791,0.546-1.225,0.792c-0.896,0.488-1.939,0.889-3.027,1.069
			c-2.218,0.404-4.218-0.09-5.66-0.683c-1.452-0.616-2.503-1.356-3.412-2.081c-1.783-1.465-3.033-2.93-4.139-4.408
			c-1.101-1.474-2.043-2.944-2.921-4.416c-1.716-2.963-3.16-5.936-4.442-8.956c-1.281-3.034-2.41-6.029-3.371-9.228
			c-0.555-1.848,0.493-3.794,2.34-4.349c1.533-0.461,3.135,0.183,3.952,1.471l0.058,0.093c3.263,5.144,6.63,10.447,10.267,14.967
			c0.899,1.128,1.824,2.201,2.753,3.137c0.924,0.926,1.865,1.755,2.598,2.191c0.352,0.214,0.652,0.315,0.669,0.271
			c0.024-0.049-0.364-0.231-1.029-0.155c-0.657,0.094-1.13,0.415-1.202,0.455c-0.048,0.023-0.098,0.075,0.188-0.327l0.617-0.888
			c3.277-4.77,6.32-10.1,9.239-15.466c2.915-5.358,5.789-10.919,8.516-16.305l0.053-0.105c1.746-3.449,5.958-4.829,9.407-3.083
			C213.522,146.006,214.91,150.098,213.319,153.507z"/>
		<path style="fill:#263238;" d="M168.388,161.98l-2.28-9.463l-8.883,3.829c0,0,0.785,7.515,7.01,8.448L168.388,161.98z"/>
		<path style="fill:#263238;" d="M167.924,159.672c0,0,2.889,3.717,3.593,4.737c-1.023,0.976-7.551,4.313-8.064,3.977
			c-0.839-2.368-2.008-5.494-2.008-5.494L167.924,159.672z"/>
		<path style="fill:#263238;" d="M159.456,146.519l-3.268,3.136c-0.544,0.522-0.74,1.311-0.503,2.027l1.54,4.663l8.883-3.829
			l-3.651-5.648C161.788,145.835,160.344,145.667,159.456,146.519z"/>
		<path style="fill:#263238;" d="M164.498,157.57c-0.309-1.921,1.614-7.942,3.226-8.8c1.612-0.857,0.682,3.293,0.893,4.687
			c0.582,3.848,0.784,7.506-1.189,7.305C165.455,160.562,165.035,160.912,164.498,157.57z"/>
		<polygon style="opacity:0.2;" points="219.528,387.7 220.719,397.858 229.219,397.991 228.028,387.833 		"/>
		<g>
			<path style="fill:#407BFF;" d="M206.454,142.158c16.158-2.029,31.796,0.158,40.316,1.809c3.622,0.702,5.932,4.23,5.176,7.841
				c-6.339,30.301-5.35,60.786-5.876,67.263c0,0-45.442-0.732-45.442-0.736c-3.106-37.148-1.146-60.808,0.053-70.451
				C201.055,144.871,203.441,142.536,206.454,142.158z"/>
		</g>
		<path style="fill:#FFB573;" d="M235.15,120.74c-1.445,6.107-3.076,17.373,1.122,21.831c-3.5,3.097-8.057,6.638-15.447,6.349
			c-7.39-0.289-5.915-5.255-3.869-7.782c6.991-1.136,6.999-6.277,5.968-11.182L235.15,120.74z"/>
		<path style="opacity:0.2;" d="M230.165,124.501l-7.236,5.45c0.248,1.161,0.431,2.334,0.471,3.463
			c2.662-0.185,6.405-2.813,6.787-5.557C230.377,126.489,230.367,125.159,230.165,124.501z"/>
		<path style="fill:#FFB573;" d="M237.208,111.468c-1.064,8.354-1.262,13.301-5.785,17.293c-6.803,6.005-16.918,1.391-18.374-7.135
			c-1.311-7.674,0.65-20.046,9.088-22.774C230.451,96.163,238.273,103.114,237.208,111.468z"/>
		<path style="fill:#263238;" d="M237.704,118.721c-3.307,1.985-7.072,1.019-7.381-1.102c-0.309-2.122,2.133-5.733,3.059-7.497
			c-0.265-2.999-2.385-3.881-1.986-5.997c-2.468,0.22-15.935,0.838-15.618-2.205c0.317-3.043,5.665-6.174,12.031-5.38
			c6.366,0.794,10.489,3.551,9.894,7.409C241.188,103.375,242.82,109.372,237.704,118.721z"/>
		<path style="fill:#FFB573;" d="M240.647,119.982c-1.184,1.929-3.154,3.125-4.978,3.519c-2.743,0.594-3.973-1.902-3.092-4.405
			c0.793-2.253,3.176-5.277,5.872-4.748C241.105,114.869,242.001,117.776,240.647,119.982z"/>
		<g>
			<path style="fill:#407BFF;" d="M226.97,302.66c-0.343-42.722,9.113-83.751,9.113-83.751l-35.427-0.571
				c0,0,4.074,61.703,5.49,87.548c1.469,26.872,11.182,89.959,11.182,89.959l14.383,0.219
				C231.711,396.065,228.959,336.375,226.97,302.66z"/>
			<path style="opacity:0.4;" d="M226.97,302.66c-0.343-42.722,9.113-83.751,9.113-83.751l-35.427-0.571
				c0,0,4.074,61.703,5.49,87.548c1.469,26.872,11.182,89.959,11.182,89.959l14.383,0.219
				C231.711,396.065,228.959,336.375,226.97,302.66z"/>
		</g>
		<path style="opacity:0.2;" d="M228.376,242.417c-10.097,13.822-5.556,39.826-1.419,58.199c-0.01-22.839,2.688-45.012,5.154-60.485
			L228.376,242.417z"/>
		<polygon style="fill:#263238;" points="215.438,390.291 216.366,396.152 232.272,396.421 233.17,390.883 		"/>
		<path style="fill:#263238;" d="M226.035,112.866c-0.045,0.683-0.443,1.21-0.89,1.177c-0.447-0.033-0.773-0.614-0.729-1.297
			c0.045-0.683,0.443-1.21,0.89-1.177C225.753,111.602,226.079,112.183,226.035,112.866z"/>
		<path style="fill:#263238;" d="M217.195,111.882c-0.045,0.683-0.443,1.21-0.89,1.177c-0.447-0.033-0.773-0.614-0.728-1.297
			c0.045-0.683,0.443-1.21,0.89-1.177C216.913,110.618,217.24,111.199,217.195,111.882z"/>
		<path style="fill:#ED893E;" d="M219.023,112.431c0,0-1.813,3.826-3.648,5.601c1.136,1.218,3.226,0.856,3.226,0.856
			L219.023,112.431z"/>
		<path style="fill:#263238;" d="M221.364,121.313c2.624-0.157,3.948-1.872,4.009-1.952c0.066-0.088,0.048-0.214-0.04-0.282
			c-0.089-0.067-0.215-0.051-0.282,0.037c-0.015,0.02-1.562,2.01-4.555,1.788c-0.111-0.008-0.207,0.075-0.214,0.186
			c-0.007,0.111,0.077,0.207,0.188,0.216C220.783,121.329,221.081,121.33,221.364,121.313z"/>
		<path style="fill:#263238;" d="M227.436,110.582c0.067-0.004,0.133-0.025,0.193-0.064c0.186-0.121,0.237-0.37,0.115-0.556
			c-1.225-1.87-3.083-1.899-3.161-1.9c-0.223-0.001-0.401,0.179-0.4,0.401c0.001,0.222,0.181,0.402,0.402,0.404l0,0
			c0.061,0.001,1.51,0.039,2.487,1.531C227.155,110.525,227.296,110.591,227.436,110.582z"/>
		<path style="fill:#263238;" d="M213.4,108.711c0.129,0.017,0.264-0.029,0.355-0.134c1.156-1.339,2.595-1.169,2.655-1.161
			c0.22,0.029,0.421-0.125,0.449-0.345c0.028-0.22-0.126-0.422-0.345-0.453c-0.08-0.009-1.921-0.249-3.369,1.429
			c-0.145,0.168-0.125,0.422,0.044,0.568C213.25,108.669,213.324,108.701,213.4,108.711z"/>
		<polygon style="fill:#407BFF;" points="275.358,407.534 266.853,407.401 263.35,387.695 271.855,387.828 		"/>
		<path style="fill:#263238;" d="M266.386,406.418l9.267,0.145c0.347,0.005,0.628,0.251,0.676,0.591l1.076,7.576
			c0.112,0.785-0.541,1.518-1.341,1.492c-3.338-0.109-4.397-0.381-8.598-0.447c-4.913-0.077-2.64,0.125-8.401,0.034
			c-3.483-0.055-4.166-3.579-2.686-3.892c4.683-0.988,5.855-2.866,7.911-4.871C264.827,406.523,265.653,406.407,266.386,406.418z"/>
		<path style="fill:#263238;" d="M268.164,407.314c-1.475,0.043-2.265-0.029-2.641-0.676c-0.376-0.647-1.709-2.616-1.618-3.351
			c0.091-0.735,6.073-1.323,6.668-0.147C271.168,404.316,271.159,407.226,268.164,407.314z"/>
		<path style="fill:#263238;" d="M221.299,407.314c-0.922,0.043-1.413-0.029-1.633-0.676c-0.22-0.647-1.009-2.616-0.936-3.351
			c0.073-0.735,3.82-1.323,4.165-0.147C223.24,404.316,223.17,407.226,221.299,407.314z"/>
		<polygon style="opacity:0.2;" points="263.353,387.7 265.157,397.858 273.665,397.991 271.861,387.833 		"/>
		<g>
			<path style="fill:#407BFF;" d="M260.809,297.607c-3.988-38.473-8.694-70.007-14.722-78.536l-30.045-0.484
				c0,0,17.544,60.368,24.306,85.802c7.028,26.446,20.809,88.94,20.809,88.94l13.704,0.195
				C274.861,393.524,269.148,327.67,260.809,297.607z"/>
			<path style="opacity:0.4;" d="M260.809,297.607c-3.988-38.473-8.694-70.007-14.722-78.536l-30.045-0.484
				c0,0,17.544,60.368,24.306,85.802c7.028,26.446,20.809,88.94,20.809,88.94l13.704,0.195
				C274.861,393.524,269.148,327.67,260.809,297.607z"/>
		</g>
		<polygon style="fill:#263238;" points="259.402,390.291 260.508,396.152 275.893,396.421 276.566,390.883 		"/>
		<path style="fill:#FFFFFF;" d="M226.165,155.102c-0.085-2.138-2.549-5.017-4.148-6.17c11.854-3.27,14.076-7.567,14.076-7.567
			s1.376,0.36,2.424,1.037C239.216,149.038,231.034,153.568,226.165,155.102z"/>
		<path style="fill:#FFFFFF;" d="M219.181,148.763c-2.159,0.815-4.995,3.397-6.213,5.895c-4.932-8.795,1.958-13.875,1.958-13.875
			s1.693-0.434,2.36-0.159C215.953,143.555,217.53,147.429,219.181,148.763z"/>
		<g>
			<g>
				
					<rect x="218.027" y="164.409" transform="matrix(0.9882 -0.1529 0.1529 0.9882 -26.3424 41.4083)" style="fill:#407BFF;" width="76.17" height="55.204"/>
				
					<rect x="218.027" y="164.409" transform="matrix(0.9882 -0.1529 0.1529 0.9882 -26.3424 41.4083)" style="opacity:0.9;fill:#FFFFFF;" width="76.17" height="55.204"/>
			</g>
			
				<rect x="254.276" y="161.622" transform="matrix(0.9882 -0.1529 0.1529 0.9882 -25.7046 44.1298)" style="opacity:0.2;fill:#407BFF;" width="39.707" height="55.204"/>
			
				<rect x="225.883" y="208.565" transform="matrix(0.9882 -0.1529 0.1529 0.9882 -29.883 37.7649)" style="opacity:0.3;fill:#407BFF;" width="9.556" height="9.321"/>
			
				<rect x="224.115" y="197.139" transform="matrix(0.9882 -0.1529 0.1529 0.9882 -28.1589 37.3631)" style="opacity:0.3;fill:#407BFF;" width="9.556" height="9.321"/>
			
				<rect x="225.475" y="167.805" transform="matrix(0.9882 -0.1529 0.1529 0.9882 -23.2779 37.4977)" style="opacity:0.5;fill:#407BFF;" width="13.478" height="4.646"/>
			
				<rect x="271.13" y="161.053" transform="matrix(0.9882 -0.1529 0.1529 0.9882 -21.732 44.0891)" style="opacity:0.5;fill:#407BFF;" width="9.466" height="4.646"/>
		</g>
		<g>
			<path style="fill:#407BFF;" d="M249.233,144.96c5.8,2.775,11.245,5.88,16.652,9.479c2.69,1.818,5.353,3.739,7.967,6.033
				c1.31,1.154,2.616,2.38,3.919,3.87c0.646,0.754,1.293,1.576,1.929,2.555c0.629,0.982,1.275,2.107,1.776,3.674
				c0.241,0.789,0.449,1.669,0.5,2.723c0.021,0.318,0.006,0.334,0.006,0.475l-0.009,0.346l-0.021,0.69l-0.048,1.378l-0.118,1.289
				c-0.083,0.863-0.178,1.716-0.311,2.525c-0.128,0.817-0.231,1.655-0.388,2.445c-0.534,3.224-1.316,6.296-2.096,9.357
				c-1.654,6.1-3.573,11.992-5.966,17.832c-0.732,1.786-2.772,2.64-4.558,1.908c-1.485-0.608-2.326-2.122-2.146-3.641l0.01-0.075
				c0.713-6.015,1.582-12.064,2.214-18.004c0.346-2.962,0.619-5.93,0.799-8.793c0.063-0.727,0.063-1.418,0.095-2.125
				c0.039-0.713,0.032-1.39,0.021-2.057l0.005-1.005l-0.058-0.919l-0.026-0.458l-0.012-0.229c-0.004-0.051-0.008-0.228-0.012-0.099
				c0.012,0.287,0.029,0.417,0.035,0.479c0.013,0.111-0.109-0.107-0.347-0.385c-0.233-0.283-0.565-0.645-0.953-1.021
				c-0.771-0.768-1.748-1.595-2.794-2.398c-2.116-1.605-4.494-3.187-6.947-4.697c-4.908-3.021-10.186-5.885-15.337-8.609
				l-0.074-0.039c-3.418-1.808-4.723-6.044-2.916-9.461C241.784,144.672,245.864,143.354,249.233,144.96z"/>
			<path style="fill:#263238;" d="M267.065,206.31l-5.095,6.924l9.683,3.538c0,0,3.852-6.829,0.554-9.462L267.065,206.31z"/>
			<path style="fill:#263238;" d="M263.245,222.072l3.603,0.668c1.434,0.266,2.85-0.546,3.345-1.918l1.461-4.049l-9.683-3.538
				l-1.099,5.304C260.532,220.173,261.603,221.768,263.245,222.072z"/>
			<path style="fill:#263238;" d="M266.231,208.226c0,0,0.181-4.704,0.299-5.939c1.411-0.088,8.555,1.558,8.731,2.146
				c-0.882,2.352-1.999,5.498-1.999,5.498L266.231,208.226z"/>
		</g>
		<path style="fill:#407BFF;" d="M241.808,110.035c-4.823-0.535-24.67-5.366-26.506-7.277c-0.13-3.686,2.024-7.417,3.309-8.262
			c3.646-2.399,11.677-2.488,14.233-1.766c2.556,0.722,9.524,4.272,10.68,7.691C244.428,103.089,241.808,110.035,241.808,110.035z"
			/>
		<g>
			<path style="fill:#407BFF;" d="M221.785,101.567c-6.091-0.952-11.882-0.522-13.935,2.558c-2.29,3.435,5.252-1.676,9.746,0.529
				c7.539,3.699,5.743,4.28,17.159,4.036C228.885,105.668,228.841,102.67,221.785,101.567z"/>
			<path style="opacity:0.6;fill:#FFFFFF;" d="M221.785,101.567c-6.091-0.952-11.882-0.522-13.935,2.558
				c-2.29,3.435,5.252-1.676,9.746,0.529c7.539,3.699,5.743,4.28,17.159,4.036C228.885,105.668,228.841,102.67,221.785,101.567z"/>
		</g>
		<g>
			<path style="fill:#407BFF;" d="M235.363,115.895c0.252-0.179,0.312-0.529,0.134-0.781c-0.18-0.253-0.53-0.312-0.781-0.134
				c-2.976,2.105-4.84,3.877-5.81,4.895c-2.18-2.276-8.306-4.663-11.511-4.618c-2.299,0.033-3.812-0.106-5.528,1.581
				c-1.455,1.43-0.246,9.043,0.676,11.139c0.923,2.096,3.201,4.326,5.707,4.775c3.383,0.606,10.602,0.998,10.897-3.945
				c0.081-1.351,0.257-2.409,0.436-3.291c0.434,0.07,0.921,0.122,1.449,0.122c1.283,0,2.763-0.294,4.06-1.303
				c0.244-0.19,0.288-0.543,0.098-0.787c-0.191-0.245-0.544-0.287-0.786-0.098c-1.474,1.147-3.307,1.155-4.585,0.962
				c0.319-1.456,0.482-2.399-0.229-3.622C230.467,119.852,232.311,118.053,235.363,115.895z"/>
			<path style="opacity:0.6;fill:#FFFFFF;" d="M235.363,115.895c0.252-0.179,0.312-0.529,0.134-0.781
				c-0.18-0.253-0.53-0.312-0.781-0.134c-2.976,2.105-4.84,3.877-5.81,4.895c-2.18-2.276-8.306-4.663-11.511-4.618
				c-2.299,0.033-3.812-0.106-5.528,1.581c-1.455,1.43-0.246,9.043,0.676,11.139c0.923,2.096,3.201,4.326,5.707,4.775
				c3.383,0.606,10.602,0.998,10.897-3.945c0.081-1.351,0.257-2.409,0.436-3.291c0.434,0.07,0.921,0.122,1.449,0.122
				c1.283,0,2.763-0.294,4.06-1.303c0.244-0.19,0.288-0.543,0.098-0.787c-0.191-0.245-0.544-0.287-0.786-0.098
				c-1.474,1.147-3.307,1.155-4.585,0.962c0.319-1.456,0.482-2.399-0.229-3.622C230.467,119.852,232.311,118.053,235.363,115.895z"
				/>
		</g>
	</g>
</g>
</svg>
