<?xml version="1.0" encoding="utf-8"?>
<!-- Generator: Adobe Illustrator 27.5.0, SVG Export Plug-In . SVG Version: 6.00 Build 0)  -->
<svg version="1.1" xmlns="http://www.w3.org/2000/svg" xmlns:xlink="http://www.w3.org/1999/xlink" x="0px" y="0px"
	 viewBox="0 0 3710 3710" style="enable-background:new 0 0 3710 3710;" xml:space="preserve">
<g id="Background">
	<g>
		<g>
			<rect style="fill:#eff3fd04;" width="3710" height="3710"/>
		</g>
	</g>
</g>
<g id="Illustration">
	<g>
		<linearGradient id="SVGID_1_" gradientUnits="userSpaceOnUse" x1="3505.9858" y1="4039.6274" x2="1085.7065" y2="1033.7922">
			<stop  offset="0" style="stop-color:#DAE3FE"/>
			<stop  offset="1" style="stop-color:#E9EFFD"/>
		</linearGradient>
		<path style="fill:url(#SVGID_1_);" d="M2840.152,2854.235c-55.593,58.526-108.194,96.268-149.754,126.088
			c-488.522,350.52-1066.574,248.345-1189.426,223.393c-181.414-36.846-532.084-108.069-785.612-406.213
			c-383.567-451.067-323.84-1161.709-26.319-1630.814c54.421-85.807,341.889-562.058,926.167-638.433
			c353.599-46.222,765.781,47.002,1064.272,297.078C3306.038,1350.266,3261.434,2410.722,2840.152,2854.235z"/>
		<g>
			<g>
				<g style="opacity:0.3;">
					<path style="fill:#91B3FA;" d="M2579.029,1012.556c3.698,3.052,4.567,8.468,1.858,12.549
						c-5.921,8.929-12.32,17.733-19.015,26.168c-3.258,4.104-9.224,4.791-13.327,1.534c-0.049-0.04-0.096-0.079-0.143-0.118
						c-3.975-3.281-4.608-9.155-1.389-13.209c6.362-8.013,12.439-16.376,18.065-24.858c2.894-4.365,8.782-5.559,13.148-2.662
						C2578.508,1012.145,2578.774,1012.346,2579.029,1012.556z M2525.959,1075.893c0.286,0.236,0.562,0.492,0.825,0.767
						c3.62,3.786,3.487,9.791-0.299,13.411c-7.778,7.435-15.95,14.612-24.289,21.329c-4.08,3.286-10.027,2.649-13.339-1.435
						c-3.285-4.081-2.639-10.052,1.438-13.336c7.927-6.385,15.689-13.203,23.08-20.272
						C2516.886,1073.001,2522.303,1072.876,2525.959,1075.893z M2460.264,1125.97c0.814,0.672,1.53,1.493,2.103,2.451
						c2.684,4.498,1.219,10.321-3.278,13.008c-9.216,5.509-18.789,10.684-28.451,15.382c-4.713,2.288-10.385,0.321-12.678-4.382
						c-2.29-4.71-0.328-10.388,4.382-12.678c9.176-4.461,18.263-9.374,27.017-14.605
						C2452.896,1123.031,2457.258,1123.489,2460.264,1125.97z M2385.004,1160.106c1.346,1.111,2.401,2.606,2.978,4.389
						c1.614,4.983-1.12,10.332-6.103,11.945c-10.224,3.307-20.713,6.213-31.175,8.637c-5.1,1.176-10.193-2-11.38-7.102
						c-1.181-5.102,1.999-10.197,7.102-11.38c9.936-2.301,19.899-5.059,29.614-8.206
						C2379.24,1157.356,2382.588,1158.112,2385.004,1160.106z M2304.024,1176.602c1.887,1.558,3.174,3.84,3.409,6.469
						c0.468,5.219-3.384,9.827-8.601,10.292c-10.675,0.955-21.544,1.467-32.298,1.517c-5.239,0.029-9.508-4.196-9.531-9.438
						c-0.024-5.238,4.201-9.504,9.441-9.531c10.223-0.046,20.552-0.533,30.698-1.441
						C2299.729,1174.239,2302.167,1175.069,2304.024,1176.602z M2221.417,1174.774c2.445,2.018,3.824,5.212,3.37,8.585
						c-0.7,5.193-5.473,8.833-10.665,8.137c-10.639-1.431-21.353-3.337-31.835-5.667c-5.116-1.138-8.338-6.204-7.2-11.319
						c1.135-5.111,6.203-8.336,11.316-7.2c9.962,2.213,20.138,4.025,30.248,5.385
						C2218.472,1172.938,2220.099,1173.685,2221.417,1174.774z M1938.991,970.947c1.013,0.836,1.866,1.895,2.479,3.151
						c4.471,9.157,9.403,18.243,14.659,27.001c2.694,4.491,1.239,10.318-3.252,13.011c-4.491,2.697-10.318,1.241-13.014-3.251
						c-5.536-9.224-10.731-18.792-15.441-28.435c-2.299-4.708-0.345-10.388,4.362-12.685
						C1932.236,968.052,1936.21,968.652,1938.991,970.947z M2141.322,1154.697c3.034,2.505,4.3,6.749,2.844,10.64
						c-1.836,4.908-7.301,7.396-12.207,5.562c-10.056-3.761-20.072-8.006-29.767-12.617c-4.719-2.271-6.745-7.907-4.494-12.64
						c2.249-4.73,7.909-6.741,12.641-4.493c9.207,4.38,18.717,8.41,28.266,11.983
						C2139.619,1153.513,2140.531,1154.045,2141.322,1154.697z M1983.387,1040.632c0.483,0.398,0.935,0.849,1.344,1.354
						c6.411,7.929,13.253,15.684,20.327,23.056c3.626,3.781,3.503,9.786-0.275,13.412c-3.78,3.625-9.798,3.524-13.412-0.275
						c-7.443-7.757-14.641-15.918-21.39-24.26c-3.294-4.074-2.663-10.048,1.41-13.34
						C1974.956,1037.695,1979.98,1037.821,1983.387,1040.632z M2067.719,1117.232c3.692,3.047,4.565,8.452,1.869,12.534
						c-2.887,4.371-8.77,5.574-13.144,2.689c-8.949-5.911-17.764-12.289-26.195-18.959c-0.054-0.039-0.107-0.083-0.158-0.125
						c-3.969-3.276-4.606-9.139-1.4-13.195c3.251-4.11,9.214-4.808,13.323-1.557c8.011,6.333,16.384,12.389,24.888,18.005
						C2067.185,1116.816,2067.46,1117.019,2067.719,1117.232z"/>
					<path style="fill:#91B3FA;" d="M1915.3,908.7c1.44,1.189,2.547,2.813,3.089,4.749c1.318,4.71,2.759,9.468,4.275,14.15
						c1.617,4.981-1.112,10.333-6.093,11.948c-4.982,1.619-10.339-1.107-11.949-6.096c-1.599-4.922-3.112-9.928-4.5-14.884
						c-1.413-5.043,1.531-10.28,6.573-11.692C1909.805,906.004,1912.985,906.789,1915.3,908.7z"/>
				</g>
				<g style="opacity:0.3;">
					<path style="fill:#91B3FA;" d="M1952.229,621.893c3.531,2.914,4.525,8.039,2.133,12.113c-2.477,4.215-4.908,8.555-7.222,12.895
						c-2.466,4.623-8.211,6.372-12.833,3.907c-4.641-2.476-6.37-8.212-3.907-12.833c2.438-4.569,4.997-9.139,7.604-13.578
						c2.654-4.516,8.466-6.026,12.983-3.374C1951.431,621.282,1951.844,621.576,1952.229,621.893z"/>
					<path style="fill:#91B3FA;" d="M2505.752,523.628c3.366,2.778,6.698,5.624,9.994,8.537c3.924,3.47,4.295,9.464,0.827,13.389
						c-3.468,3.925-9.494,4.294-13.389,0.829c-7.608-6.722-15.47-13.12-23.464-19.083c-4.197-3.142-5.063-9.074-1.932-13.273
						c3.134-4.201,9.078-5.065,13.276-1.932C2496.009,515.784,2500.95,519.665,2505.752,523.628z M2550.917,567.81
						c0.409,0.337,0.796,0.715,1.154,1.131c6.911,8.015,13.558,16.412,19.756,24.958c3.075,4.239,2.131,10.171-2.107,13.245
						c-4.242,3.076-10.189,2.135-13.248-2.109c-5.887-8.117-12.203-16.092-18.768-23.711c-3.42-3.966-2.976-9.956,0.989-13.374
						C2542.248,564.887,2547.419,564.922,2550.917,567.81z M2449.083,485.094c3.449,2.847,4.498,7.829,2.261,11.887
						c-2.531,4.589-8.3,6.255-12.888,3.727c-8.774-4.84-17.875-9.369-27.057-13.459c-4.782-2.14-6.935-7.741-4.802-12.525
						c2.135-4.786,7.742-6.936,12.527-4.803c9.667,4.309,19.253,9.079,28.494,14.174
						C2448.146,484.388,2448.635,484.724,2449.083,485.094z M2596.918,634.885c0.929,0.767,1.723,1.725,2.325,2.852
						c4.976,9.329,9.613,18.983,13.781,28.693c2.066,4.813-0.16,10.388-4.973,12.454c-4.816,2.069-10.391-0.155-12.457-4.973
						c-3.959-9.219-8.361-18.387-13.088-27.247c-2.467-4.621-0.717-10.368,3.904-12.832
						C2589.904,631.969,2594.042,632.512,2596.918,634.885z M2374.013,453.975c2.829,2.335,4.16,6.21,3.074,9.959
						c-1.458,5.032-6.719,7.929-11.751,6.471c-9.619-2.789-19.494-5.204-29.351-7.181c-5.136-1.03-8.467-6.027-7.434-11.166
						c1.031-5.135,6.028-8.462,11.163-7.432c10.378,2.08,20.774,4.623,30.904,7.559
						C2371.899,452.557,2373.045,453.176,2374.013,453.975z M2293.93,440.082c2.261,1.867,3.628,4.753,3.435,7.903
						c-0.324,5.229-4.824,9.206-10.052,8.882c-10.027-0.618-20.198-0.822-30.226-0.606c-5.238,0.121-9.575-4.031-9.689-9.275
						c-0.113-5.238,4.04-9.574,9.278-9.69c10.555-0.228,21.257-0.014,31.808,0.639
						C2290.56,438.064,2292.439,438.851,2293.93,440.082z M2212.724,443.978c1.72,1.42,2.948,3.447,3.326,5.824
						c0.824,5.172-2.704,10.033-7.877,10.856c-9.931,1.579-19.901,3.592-29.639,5.99c-5.084,1.251-10.223-1.851-11.476-6.945
						c-1.25-5.087,1.856-10.223,6.945-11.476c10.246-2.52,20.742-4.642,31.19-6.304
						C2207.991,441.479,2210.698,442.306,2212.724,443.978z M2134.305,465.49c1.192,0.984,2.158,2.272,2.77,3.809
						c1.934,4.868-0.444,10.38-5.312,12.314c-9.341,3.71-18.625,7.86-27.6,12.337c-4.687,2.338-10.387,0.429-12.722-4.25
						c-2.34-4.688-0.434-10.385,4.253-12.722c9.453-4.717,19.232-9.088,29.063-12.993
						C2128.091,462.662,2131.724,463.359,2134.305,465.49z M2062.494,503.708c0.67,0.553,1.274,1.21,1.789,1.962
						c2.959,4.321,1.854,10.226-2.467,13.183c-8.271,5.664-16.409,11.755-24.191,18.11c-4.058,3.314-10.041,2.695-13.345-1.349
						c-3.314-4.057-2.71-10.034,1.349-13.347c8.192-6.689,16.76-13.103,25.468-19.064
						C2054.667,500.759,2059.317,501.085,2062.494,503.708z M2000.876,556.731c0.15,0.124,0.297,0.255,0.441,0.388
						c3.829,3.573,4.036,9.576,0.462,13.404c-5.046,5.405-9.983,11.029-14.681,16.722c-1.7,2.06-3.374,4.137-5.021,6.223
						c-3.248,4.112-9.213,4.814-13.322,1.567c-4.227-3.205-4.813-9.209-1.569-13.319c1.734-2.196,3.492-4.377,5.282-6.545
						c4.941-5.986,10.138-11.905,15.445-17.59C1991.351,553.895,1997.04,553.565,2000.876,556.731z"/>
					<path style="fill:#91B3FA;" d="M2627.073,710.664c1.455,1.201,2.566,2.843,3.104,4.796c1.361,4.952,2.642,10.026,3.809,15.081
						c1.179,5.105-2.003,10.198-7.107,11.376c-5.105,1.177-10.197-1.998-11.376-7.107c-1.109-4.802-2.327-9.622-3.617-14.323
						c-1.39-5.048,1.579-10.269,6.631-11.658C2621.613,707.978,2624.773,708.765,2627.073,710.664z"/>
				</g>
				<g>
					<path style="fill:#91B3FA;" d="M2547.172,787.363c0.01-1.891-1.18-3.581-2.964-4.207l-50.908-17.873
						c-5.61-24.565-15.176-48.412-28.723-70.522l23.885-48.341c0.839-1.696,0.508-3.736-0.822-5.081l-45.507-46.018
						c-1.331-1.345-3.367-1.697-5.071-0.879l-48.604,23.345c-21.958-13.793-45.697-23.625-70.198-29.507l-17.304-51.105
						c-0.606-1.791-2.282-3-4.174-3.011l-64.717-0.361c-1.892-0.01-3.582,1.18-4.208,2.965l-17.873,50.908
						c-24.564,5.609-48.412,15.177-70.522,28.724l-48.342-23.885c-1.695-0.838-3.735-0.508-5.08,0.822l-46.018,45.507
						c-1.345,1.33-1.698,3.367-0.878,5.071l23.345,48.605c-13.793,21.958-23.626,45.696-29.508,70.197l-51.106,17.304
						c-1.79,0.607-3,2.283-3.01,4.174l-0.36,64.717c-0.011,1.892,1.18,3.581,2.964,4.208l50.909,17.872
						c5.608,24.565,15.176,48.412,28.723,70.522l-23.886,48.342c-0.837,1.695-0.508,3.735,0.822,5.081l45.508,46.017
						c1.33,1.345,3.366,1.698,5.071,0.879l48.604-23.345c21.958,13.794,45.697,23.626,70.198,29.508l17.303,51.104
						c0.606,1.792,2.283,3.001,4.174,3.012l64.717,0.361c1.891,0.011,3.581-1.18,4.208-2.964l17.873-50.908
						c24.565-5.609,48.412-15.177,70.522-28.724l48.342,23.886c1.695,0.838,3.736,0.508,5.08-0.823l46.017-45.506
						c1.345-1.33,1.698-3.366,0.88-5.071l-23.345-48.604c13.793-21.958,23.625-45.696,29.508-70.197l51.105-17.304
						c1.792-0.606,3-2.282,3.012-4.174L2547.172,787.363z"/>
					<g>
						<path style="fill:#BDD0FB;" d="M2304.283,767.989c24.457,20.186,31.109,55.87,14.228,83.799
							c-18.558,30.7-58.627,40.576-89.326,22.021c-14.875-8.987-25.353-23.232-29.511-40.1c-4.16-16.871-1.501-34.353,7.49-49.223
							c18.558-30.7,58.627-40.576,89.325-22.022C2299.257,764.138,2301.859,765.988,2304.283,767.989z M2231.001,856.544
							c1.889,1.559,3.901,2.989,6.035,4.28c23.536,14.227,54.261,6.651,68.487-16.883c14.227-23.538,6.665-54.266-16.883-68.489
							c-23.535-14.228-54.26-6.651-68.487,16.883c-6.893,11.404-8.932,24.805-5.743,37.742
							C2217.002,840.589,2222.799,849.774,2231.001,856.544z"/>
					</g>
					<path style="fill:#BDD0FB;" d="M2363.068,694.679c4.2,3.467,8.251,7.165,12.133,11.09l0,0c1.222,1.235,2.424,2.491,3.606,3.765
						c5.827,6.284,11.144,13.022,15.871,20.108c0.065,0.096,0.129,0.193,0.194,0.289c0.181,0.275,0.363,0.549,0.542,0.827
						c0.353,0.536,0.699,1.077,1.044,1.616c0.907,1.421,0.749,3.217-0.269,4.452c-0.247,0.3-0.547,0.567-0.892,0.787
						c-1.766,1.127-4.109,0.601-5.237-1.161c-5.795-9.092-12.61-17.619-20.255-25.346c-37.959-38.398-91.443-52.334-140.675-41.719
						c-27.384,5.9-53.453,19.4-74.804,40.517c-3.745,3.702-7.276,7.566-10.581,11.574c-22.251,26.965-34.45,60.483-34.646,95.914
						c-0.228,40.699,15.408,79.051,44.024,107.989c59.108,59.759,155.743,60.277,215.479,1.203
						c3.684-3.642,7.169-7.458,10.443-11.428c14.193-17.201,24.464-37.317,30.006-58.94c0.144-0.559,0.403-1.056,0.749-1.472
						c0.906-1.097,2.397-1.639,3.868-1.26c2.029,0.527,3.258,2.583,2.733,4.619c-5.818,22.701-16.6,43.822-31.5,61.88
						c-3.437,4.167-7.095,8.171-10.96,11.996c-62.717,62.023-164.211,61.434-226.212-1.26
						c-30.044-30.38-46.456-70.641-46.217-113.367c0.205-37.196,13.013-72.384,36.371-100.693
						c3.472-4.206,7.177-8.262,11.106-12.149c30.383-30.044,70.644-46.459,113.369-46.221
						C2299.562,658.495,2334.756,671.311,2363.068,694.679z"/>
				</g>
			</g>
			<g>
				<g style="opacity:0.3;">
					<path style="fill:#91B3FA;" d="M3097.174,990.82c2.292,1.892,3.169,5.129,1.938,8.001c-2.294,5.361-4.783,10.726-7.397,15.944
						c-1.699,3.391-5.823,4.762-9.219,3.065c-3.404-1.688-4.762-5.827-3.064-9.218c2.491-4.972,4.863-10.086,7.054-15.201
						c1.49-3.485,5.528-5.1,9.018-3.612C3096.123,990.065,3096.68,990.412,3097.174,990.82z"/>
					<path style="fill:#91B3FA;" d="M3072.007,1037.283c2.685,2.216,3.309,6.15,1.335,9.104
						c-5.572,8.353-11.638,16.515-18.026,24.254c-1.345,1.63-2.713,3.249-4.1,4.862c-2.481,2.875-6.881,2.957-9.692,0.725
						c-2.874-2.476-3.196-6.813-0.724-9.687c1.327-1.54,2.636-3.088,3.921-4.645c6.094-7.383,11.879-15.167,17.195-23.131
						c2.106-3.158,6.369-4.007,9.526-1.905C3071.638,1036.997,3071.828,1037.136,3072.007,1037.283z M3025.451,1091.318
						c0.251,0.207,0.494,0.434,0.718,0.679c2.552,2.811,2.345,7.155-0.462,9.708c-9.005,8.19-18.598,15.894-28.51,22.891
						c-3.1,2.191-7.392,1.431-9.574-1.648c-2.188-3.102-1.452-7.382,1.648-9.573c9.456-6.677,18.605-14.026,27.195-21.836
						C3019.024,1089.214,3022.859,1089.179,3025.451,1091.318z M2967.183,1132.449c0.672,0.555,1.248,1.248,1.686,2.062
						c1.787,3.346,0.518,7.508-2.828,9.296c-10.722,5.72-21.922,10.837-33.284,15.192c-3.546,1.361-7.508-0.404-8.873-3.957
						c-1.359-3.539,0.413-7.514,3.952-8.872c10.836-4.156,21.511-9.027,31.736-14.487
						C2962.103,1130.336,2965.1,1130.73,2967.183,1132.449z M2900.583,1157.998c1.097,0.906,1.919,2.158,2.292,3.64
						c0.91,3.682-1.337,7.411-5.019,8.321c-11.821,2.925-23.922,5.14-35.978,6.584c-3.767,0.448-7.182-2.248-7.634-6.005
						c-0.453-3.766,2.234-7.185,6.004-7.638c11.489-1.373,23.037-3.488,34.306-6.277
						C2896.751,1156.079,2898.961,1156.659,2900.583,1157.998z M2829.765,1166.505c1.531,1.264,2.506,3.182,2.499,5.324
						c-0.011,3.791-3.097,6.855-6.891,6.846c-12.16-0.042-24.434-0.831-36.478-2.352c-3.771-0.468-6.433-3.909-5.957-7.674
						c0.476-3.765,3.914-6.433,7.673-5.956c11.494,1.449,23.201,2.205,34.804,2.24
						C2827.069,1164.94,2828.583,1165.529,2829.765,1166.505z M2759.038,1157.567c1.984,1.638,2.961,4.332,2.287,6.994
						c-0.933,3.675-4.671,5.895-8.348,4.965c-11.785-2.994-23.495-6.753-34.797-11.176c-3.538-1.398-5.274-5.371-3.894-8.903
						c1.38-3.531,5.368-5.276,8.898-3.893c10.78,4.218,21.939,7.801,33.174,10.655
						C2757.376,1156.466,2758.279,1156.941,2759.038,1157.567z M2692.659,1131.615c2.483,2.049,3.253,5.633,1.663,8.565
						c-1.809,3.335-5.979,4.573-9.315,2.766c-10.655-5.776-21.085-12.298-31.008-19.382c-3.056-2.262-3.8-6.503-1.593-9.587
						c2.204-3.087,6.493-3.8,9.582-1.598c9.46,6.764,19.409,12.983,29.568,18.49
						C2691.956,1131.086,2692.323,1131.338,2692.659,1131.615z M2609.852,1064.398c0.305,0.252,0.597,0.536,0.863,0.851
						c6.49,7.627,13.512,15.032,20.873,22.012c1.109,1.063,2.211,2.095,3.323,3.109c2.795,2.568,2.987,6.91,0.422,9.706
						c-2.565,2.807-7.001,3.059-9.707,0.426c-1.181-1.088-2.355-2.179-3.518-3.294c-7.688-7.294-15.05-15.057-21.854-23.057
						c-2.459-2.891-2.111-7.223,0.78-9.681C2603.607,1062.279,2607.33,1062.317,2609.852,1064.398z"/>
				</g>
				<g style="opacity:0.3;">
					<path style="fill:#91B3FA;" d="M3012.048,650.631c2.892,2.387,3.334,6.667,0.978,9.601c-2.374,2.955-6.701,3.429-9.656,1.05
						c-8.902-7.156-18.316-13.829-27.981-19.834c-3.184-2.018-4.216-6.237-2.211-9.461c2.004-3.225,6.24-4.209,9.461-2.211
						c10.133,6.302,20.006,13.294,29.336,20.795C3011.998,650.59,3012.024,650.612,3012.048,650.631z M3038.066,674.254
						c0.192,0.158,0.372,0.325,0.549,0.505c8.359,8.552,16.282,17.701,23.551,27.188c2.304,3.015,1.737,7.322-1.275,9.628
						c-3.014,2.314-7.331,1.717-9.633-1.27c-6.935-9.055-14.495-17.783-22.469-25.947c-2.652-2.711-2.6-7.061,0.112-9.711
						C3031.438,672.167,3035.396,672.051,3038.066,674.254z M2952.463,613.628c2.349,1.939,3.198,5.284,1.859,8.18
						c-1.589,3.438-5.67,4.941-9.115,3.35c-10.377-4.79-21.126-8.991-31.962-12.481c-3.613-1.182-5.594-5.035-4.427-8.647
						c1.161-3.609,5.035-5.595,8.646-4.432c11.358,3.66,22.629,8.066,33.503,13.091
						C2951.519,612.944,2952.018,613.261,2952.463,613.628z M3080.707,729.994c0.602,0.497,1.13,1.106,1.551,1.819
						c6.062,10.318,11.546,21.116,16.296,32.09c1.51,3.482-0.093,7.526-3.574,9.036c-3.473,1.5-7.519-0.1-9.031-3.575
						c-4.532-10.464-9.76-20.754-15.538-30.595c-1.919-3.271-0.826-7.483,2.445-9.402
						C3075.412,727.868,3078.544,728.209,3080.707,729.994z M2885.706,592.13c1.875,1.548,2.87,4.047,2.377,6.598
						c-0.717,3.731-4.32,6.167-8.043,5.451c-11.193-2.158-22.633-3.651-34.013-4.432c-3.792-0.259-6.643-3.543-6.381-7.328
						c0.262-3.785,3.543-6.643,7.328-6.381c11.93,0.827,23.927,2.388,35.664,4.646
						C2883.807,590.91,2884.849,591.423,2885.706,592.13z M2815.737,587.272c1.436,1.185,2.386,2.943,2.491,4.944
						c0.196,3.789-2.716,7.021-6.504,7.217c-11.413,0.592-22.888,1.88-34.102,3.827c-3.743,0.651-7.299-1.858-7.945-5.592
						c-0.65-3.738,1.852-7.291,5.588-7.94c11.76-2.044,23.789-3.397,35.748-4.017
						C2812.796,585.619,2814.46,586.217,2815.737,587.272z M2746.614,599.318c1.009,0.832,1.793,1.958,2.197,3.308
						c1.1,3.631-0.956,7.466-4.589,8.564c-10.938,3.298-21.767,7.303-32.184,11.899c-3.466,1.523-7.526-0.045-9.054-3.516
						c-1.531-3.472,0.04-7.525,3.515-9.058c10.924-4.814,22.281-9.017,33.753-12.483
						C2742.537,597.344,2744.902,597.904,2746.614,599.318z"/>
					<path style="fill:#91B3FA;" d="M3108.705,794.688c1.022,0.844,1.811,1.99,2.213,3.358c1.659,5.641,3.157,11.356,4.458,16.987
						c0.851,3.695-1.452,7.387-5.149,8.241c-3.691,0.841-7.38-1.455-8.241-5.149c-1.238-5.371-2.669-10.823-4.25-16.207
						c-1.07-3.64,1.016-7.459,4.654-8.527C3104.663,792.726,3107.006,793.286,3108.705,794.688z"/>
				</g>
				<g>
					<path style="fill:#91B3FA;" d="M3047.813,859.493c0.009-1.483-0.926-2.81-2.326-3.301l-39.945-14.024
						c-4.401-19.274-11.907-37.986-22.537-55.334l18.741-37.93c0.658-1.33,0.398-2.931-0.645-3.986l-35.706-36.107
						c-1.044-1.055-2.642-1.332-3.979-0.69l-38.137,18.317c-17.229-10.823-35.855-18.538-55.079-23.153l-13.577-40.099
						c-0.477-1.405-1.792-2.354-3.276-2.363l-50.779-0.283c-1.485-0.008-2.81,0.926-3.302,2.326l-14.023,39.944
						c-19.275,4.401-37.986,11.908-55.335,22.538l-37.93-18.742c-1.331-0.657-2.931-0.398-3.986,0.645l-36.107,35.707
						c-1.056,1.044-1.333,2.642-0.689,3.979l18.317,38.137c-10.823,17.229-18.538,35.855-23.153,55.079l-40.1,13.578
						c-1.405,0.476-2.354,1.791-2.362,3.274l-0.283,50.78c-0.009,1.484,0.926,2.809,2.326,3.301l39.945,14.023
						c4.4,19.275,11.907,37.986,22.537,55.334l-18.742,37.931c-0.657,1.33-0.399,2.931,0.645,3.986l35.707,36.107
						c1.043,1.055,2.641,1.332,3.979,0.69l38.137-18.318c17.229,10.823,35.855,18.538,55.08,23.154l13.577,40.098
						c0.476,1.406,1.792,2.355,3.275,2.363l50.779,0.283c1.484,0.008,2.81-0.926,3.301-2.326l14.024-39.944
						c19.274-4.401,37.986-11.908,55.334-22.538l37.931,18.742c1.329,0.657,2.931,0.398,3.986-0.646l36.107-35.705
						c1.055-1.044,1.332-2.641,0.69-3.979l-18.317-38.137c10.822-17.229,18.537-35.854,23.153-55.078l40.099-13.578
						c1.406-0.476,2.354-1.791,2.363-3.275L3047.813,859.493z"/>
					<g>
						<path style="fill:#BDD0FB;" d="M2857.879,843.63c8.546,7.054,14.584,16.621,17.285,27.575
							c3.321,13.475,1.195,27.438-5.986,39.315c-14.814,24.514-46.817,32.405-71.342,17.589
							c-24.526-14.885-32.409-46.833-17.588-71.35c7.179-11.88,18.555-20.252,32.028-23.57c13.477-3.325,27.441-1.2,39.32,5.985
							C2853.814,840.518,2855.915,842.009,2857.879,843.63z M2800.365,913.105c1.426,1.177,2.952,2.262,4.578,3.248
							c18.039,10.897,41.579,5.093,52.481-12.943c5.278-8.734,6.847-19.008,4.401-28.916c-2.445-9.916-8.608-18.273-17.338-23.566
							l0,0c-8.737-5.28-19.01-6.844-28.919-4.402c-9.916,2.445-18.282,8.603-23.565,17.343
							C2782.086,880.274,2785.996,901.245,2800.365,913.105z"/>
					</g>
					<path style="fill:#BDD0FB;" d="M2905.935,783.857c3.353,2.767,6.59,5.727,9.712,8.878c6.196,6.262,11.761,13.16,16.552,20.524
						c0.213,0.333,0.426,0.665,0.638,0.997c1.643,2.573,1.355,5.824-0.487,8.062c-0.448,0.543-0.99,1.026-1.615,1.424
						c-3.198,2.04-7.435,1.083-9.481-2.102c-4.407-6.917-9.582-13.388-15.373-19.239l-0.002-0.002
						c-0.317-0.322-0.641-0.641-0.959-0.956c-13.833-13.722-30.562-23.477-48.788-28.779c-9.894-2.877-20.236-4.437-30.802-4.591
						c-0.086-0.002-0.172-0.003-0.258-0.004c-0.265,0-0.525-0.007-0.787-0.006c-30.894-0.17-60.007,11.697-81.974,33.421
						c-2.845,2.81-5.522,5.741-8.033,8.783c-16.89,20.469-26.149,45.914-26.302,72.813c-0.17,30.894,11.701,60.003,33.423,81.967
						c21.717,21.943,50.702,34.159,81.595,34.337c30.894,0.17,60.007-11.697,81.974-33.421c2.797-2.762,5.441-5.66,7.926-8.671
						c10.775-13.061,18.571-28.328,22.776-44.74c0.26-1.012,0.729-1.912,1.355-2.665c1.64-1.987,4.341-2.967,7.003-2.283
						c3.672,0.952,5.892,4.681,4.948,8.364c-4.707,18.364-13.43,35.45-25.479,50.06c-2.784,3.373-5.74,6.613-8.867,9.704
						c-24.581,24.307-57.15,37.584-91.717,37.391c-34.561-0.196-66.984-13.805-91.283-38.411
						c-24.306-24.576-37.585-57.142-37.388-91.711c0.164-30.091,10.526-58.557,29.423-81.458c2.805-3.399,5.803-6.683,8.981-9.827
						C2780.232,744.663,2855.394,742.142,2905.935,783.857z"/>
				</g>
			</g>
		</g>
		<g>
			<g>
				<g>
					
						<linearGradient id="SVGID_00000139973138204764203350000000172539852763222425_" gradientUnits="userSpaceOnUse" x1="477.7676" y1="1789.7264" x2="3233.8562" y2="1789.7264">
						<stop  offset="0" style="stop-color:#09005D"/>
						<stop  offset="1" style="stop-color:#1A0F91"/>
					</linearGradient>
					
						<rect x="477.768" y="1075.106" style="fill:url(#SVGID_00000139973138204764203350000000172539852763222425_);" width="2756.089" height="1429.241"/>
					<rect x="499.1" y="1075.106" style="fill:#7D97F4;" width="2709.158" height="1390.843"/>
					
						<linearGradient id="SVGID_00000128479754961266626380000007494724144839101344_" gradientUnits="userSpaceOnUse" x1="1844.0854" y1="-150.62" x2="1850.8821" y2="698.88">
						<stop  offset="0" style="stop-color:#09005D"/>
						<stop  offset="1" style="stop-color:#1A0F91"/>
					</linearGradient>
					<path style="fill:url(#SVGID_00000128479754961266626380000007494724144839101344_);" d="M3233.268,994.044H482.839
						c-18.788,0-37.794,15.702-37.794,35.077v42.075c0,9.362,5.516,18.335,11.965,24.923c6.449,6.588,16.128,10.245,25.205,10.157
						l2748.428-26.735c18.662-0.182,31.696-15.834,31.696-35.08v-15.34C3262.34,1009.747,3252.056,994.044,3233.268,994.044z"/>
					
						<linearGradient id="SVGID_00000069396154781269856890000005630738809521604743_" gradientUnits="userSpaceOnUse" x1="448.5689" y1="2506.1335" x2="3264.9553" y2="2506.1335">
						<stop  offset="0" style="stop-color:#09005D"/>
						<stop  offset="1" style="stop-color:#1A0F91"/>
					</linearGradient>
					<path style="fill:url(#SVGID_00000069396154781269856890000005630738809521604743_);" d="M3235.893,2448.884H486.351
						c-18.782,0-37.782,17.967-37.782,37.342v42.076c0,9.361,5.514,18.335,11.961,24.923c6.447,6.589,16.123,10.245,25.197,10.157
						l2747.542-26.735c18.656-0.182,31.686-15.834,31.686-35.081v-15.34C3264.955,2466.851,3254.675,2448.884,3235.893,2448.884z"/>
				</g>
				<path style="fill:#91B3FA;" d="M3104.883,1156.975L581.379,1142.26c-10.58-0.062-22.702,4.098-30.206,11.557
					c-7.503,7.46-13.676,17.604-13.676,28.184v1202.837c0,21.95,21.767,38.446,43.716,38.446h2523.571
					c21.949,0,39.478-16.496,39.478-38.446V1196.717C3144.262,1174.858,3126.741,1157.102,3104.883,1156.975z"/>
			</g>
			<g>
				<g style="opacity:0.76;">
					<path style="fill:#BDD0FB;" d="M1358.511,1183.476l880.936-17.941c9.03-0.184,16.426,7.131,16.339,16.164l-0.135,14.18
						c-0.083,8.757-7.188,15.824-15.946,15.861l-880.8,3.76c-8.931,0.038-16.167-7.236-16.082-16.167l0,0
						C1342.906,1190.676,1349.856,1183.652,1358.511,1183.476z"/>
					<path style="fill:#BDD0FB;" d="M1342.119,1273.169l-0.057,6.043c-0.084,8.843,7.017,16.082,15.86,16.166l880.685,8.402
						c8.844,0.084,16.082-7.017,16.167-15.861l0.057-6.043c0.084-8.843-7.017-16.082-15.86-16.166l-880.685-8.403
						C1349.442,1257.224,1342.203,1264.326,1342.119,1273.169z"/>
					<path style="fill:#BDD0FB;" d="M1608.669,1354.672l-0.024,2.653c-0.085,8.843,7.017,16.082,15.86,16.166l613.381,5.852
						c8.845,0.084,16.082-7.018,16.167-15.861l0.119-12.468c0.086-8.944-7.173-16.223-16.117-16.166l-613.475,3.963
						C1615.835,1338.867,1608.753,1345.928,1608.669,1354.672z"/>
				</g>
				<g>
					<g>
						<rect x="624.104" y="1607.969" style="fill:#BDD0FB;" width="147.297" height="761.426"/>
						<rect x="870.223" y="1607.969" style="fill:#BDD0FB;" width="147.297" height="761.426"/>
						<rect x="1116.344" y="1607.969" style="fill:#BDD0FB;" width="147.297" height="761.426"/>
						<rect x="1362.463" y="1607.969" style="fill:#BDD0FB;" width="147.297" height="761.426"/>
						<rect x="1608.583" y="1607.969" style="fill:#BDD0FB;" width="147.297" height="761.426"/>
						<rect x="1854.702" y="1607.969" style="fill:#BDD0FB;" width="147.297" height="761.426"/>
						<rect x="2100.822" y="1607.969" style="fill:#BDD0FB;" width="147.297" height="761.426"/>
					</g>
					<rect x="624.104" y="1970.911" style="opacity:0.6;fill:#FFFFFF;" width="147.297" height="398.484"/>
					<rect x="870.223" y="2107.864" style="opacity:0.6;fill:#FFFFFF;" width="147.297" height="261.531"/>
					<rect x="1116.344" y="1769.395" style="opacity:0.6;fill:#FFFFFF;" width="147.297" height="600"/>
					<rect x="1362.463" y="2225.253" style="opacity:0.6;fill:#FFFFFF;" width="147.297" height="144.143"/>
					<rect x="1608.583" y="1849.611" style="opacity:0.6;fill:#FFFFFF;" width="147.297" height="519.785"/>
					<rect x="1854.702" y="2235.393" style="opacity:0.6;fill:#FFFFFF;" width="147.297" height="134.002"/>
					<rect x="2100.822" y="2037.431" style="opacity:0.6;fill:#FFFFFF;" width="147.297" height="331.964"/>
				</g>
			</g>
			<g>
				<g style="opacity:0.64;">
					<path style="fill:#FFFFFF;" d="M2532.81,2156.417h-179.562c-11.271,0-20.407,9.137-20.407,20.408
						c0,11.271,9.137,20.407,20.407,20.407h179.562c11.271,0,20.408-9.136,20.408-20.407
						C2553.219,2165.554,2544.081,2156.417,2532.81,2156.417z"/>
					<path style="fill:#FFFFFF;" d="M2806.661,2156.417h-179.562c-11.27,0-20.407,9.137-20.407,20.408
						c0,11.271,9.137,20.407,20.407,20.407h179.562c11.271,0,20.407-9.136,20.407-20.407
						C2827.068,2165.554,2817.932,2156.417,2806.661,2156.417z"/>
					<path style="fill:#FFFFFF;" d="M2900.95,2197.232h179.561c11.27,0,20.407-9.136,20.407-20.407
						c0-11.271-9.137-20.408-20.407-20.408H2900.95c-11.271,0-20.408,9.137-20.408,20.408
						C2880.542,2188.096,2889.679,2197.232,2900.95,2197.232z"/>
					<path style="fill:#FFFFFF;" d="M2532.81,2219.907h-179.562c-11.271,0-20.407,9.137-20.407,20.407v120.176
						c0,11.271,9.137,20.407,20.407,20.407h179.562c11.271,0,20.408-9.136,20.408-20.407v-120.176
						C2553.219,2229.044,2544.081,2219.907,2532.81,2219.907z"/>
					<path style="fill:#FFFFFF;" d="M2806.661,2219.907h-179.562c-11.27,0-20.407,9.137-20.407,20.407v120.176
						c0,11.271,9.137,20.407,20.407,20.407h179.562c11.271,0,20.407-9.136,20.407-20.407v-120.176
						C2827.068,2229.044,2817.932,2219.907,2806.661,2219.907z"/>
					<path style="fill:#FFFFFF;" d="M3080.511,2219.907H2900.95c-11.271,0-20.408,9.137-20.408,20.407v120.176
						c0,11.271,9.137,20.407,20.408,20.407h179.561c11.27,0,20.407-9.136,20.407-20.407v-120.176
						C3100.918,2229.044,3091.781,2219.907,3080.511,2219.907z"/>
				</g>
				<path style="opacity:0.6;fill:#FFFFFF;" d="M3081.173,2101.429h-764.136c-6.124,0-11.089-4.964-11.089-11.089v-215.606
					c0-6.124,4.965-11.089,11.089-11.089h764.136c6.124,0,11.089,4.965,11.089,11.089v215.606
					C3092.261,2096.464,3087.297,2101.429,3081.173,2101.429z"/>
			</g>
			<path style="opacity:0.6;fill:#FFFFFF;" d="M2679.919,1810.842h-316.293c-7.313,0-13.242-5.929-13.242-13.242v-590.758
				c0-7.313,5.928-13.242,13.242-13.242h316.293c7.313,0,13.241,5.929,13.241,13.242V1797.6
				C2693.16,1804.913,2687.232,1810.842,2679.919,1810.842z"/>
			<path style="opacity:0.6;fill:#FFFFFF;" d="M3055.171,1810.842h-316.293c-7.313,0-13.242-5.929-13.242-13.242v-590.758
				c0-7.313,5.928-13.242,13.242-13.242h316.293c7.313,0,13.242,5.929,13.242,13.242V1797.6
				C3068.413,1804.913,3062.485,1810.842,3055.171,1810.842z"/>
		</g>
		<g>
			
				<linearGradient id="SVGID_00000088100347134629433540000014621266742998598066_" gradientUnits="userSpaceOnUse" x1="7573.812" y1="3096.3066" x2="7001.2524" y2="3719.0913" gradientTransform="matrix(1 0.0095 -0.0095 1 -6542.1279 -63.4747)">
				<stop  offset="0" style="stop-color:#09005D"/>
				<stop  offset="1" style="stop-color:#1A0F91"/>
			</linearGradient>
			<path style="fill:url(#SVGID_00000088100347134629433540000014621266742998598066_);" d="M820.841,3149.45
				c0,0-6.25,33.513-9.474,66.716c-1.261,12.976,8.644,24.347,21.665,25.015c44.235,2.265,138.86,6.752,172.842,5.56
				c5.108-0.179,8.497-5.375,6.652-10.142l0,0c-1.546-3.995-4.569-7.242-8.444-9.068l-155.672-73.354L820.841,3149.45z"/>
			
				<linearGradient id="SVGID_00000085952562258568523410000009985360016152057522_" gradientUnits="userSpaceOnUse" x1="7387.9678" y1="3142.5559" x2="7438.8257" y2="3142.5559" gradientTransform="matrix(1 0.0095 -0.0095 1 -6542.1279 -63.4747)">
				<stop  offset="0" style="stop-color:#FEBBBA"/>
				<stop  offset="1" style="stop-color:#FF928E"/>
			</linearGradient>
			<path style="fill:url(#SVGID_00000085952562258568523410000009985360016152057522_);" d="M816.172,3129.68l4.381,40.199
				c0,0,27.269,13.012,46.11-1.167l-10.915-44.856L816.172,3129.68z"/>
			
				<linearGradient id="SVGID_00000097488498532231336670000005576654026428166037_" gradientUnits="userSpaceOnUse" x1="699.0173" y1="3264.0706" x2="840.8176" y2="2447.4946">
				<stop  offset="0" style="stop-color:#4F52FF"/>
				<stop  offset="1" style="stop-color:#4042E2"/>
			</linearGradient>
			<path style="fill:url(#SVGID_00000097488498532231336670000005576654026428166037_);" d="M826.954,2374.812
				c-2.157,10.466-16.038,523.165,36.582,753.486c0.859,3.758-1.079,7.605-4.661,9.029c-8.44,3.354-24.969,8.172-44.727,8.646
				c-6.118,0.147-11.565-3.881-13.235-9.768c-15.159-53.466-87.69-321.312-95.049-576.587c-8.224-285.245,0.093-9.709,0.093-9.709
				l8.1-176.195L826.954,2374.812z"/>
			
				<linearGradient id="SVGID_00000007429434696028965330000001351993419662941060_" gradientUnits="userSpaceOnUse" x1="7445.3677" y1="2978.2" x2="6872.7842" y2="3601.011" gradientTransform="matrix(1 0.0095 -0.0095 1 -6542.1279 -63.4747)">
				<stop  offset="0" style="stop-color:#09005D"/>
				<stop  offset="1" style="stop-color:#1A0F91"/>
			</linearGradient>
			<path style="fill:url(#SVGID_00000007429434696028965330000001351993419662941060_);" d="M640.81,3165.247
				c0,0-9.601,16.857-19.169,61.802c-1.728,8.117,3.881,15.955,12.131,16.846c14.599,1.576,37.076,3.639,55.097,3.687
				c8.306,0.021,14.858-7.149,13.936-15.405c-1.839-16.456-7.8-43.484-26.809-64.687L640.81,3165.247z"/>
			
				<linearGradient id="SVGID_00000160892722237839970490000001323921054578832560_" gradientUnits="userSpaceOnUse" x1="7204.6709" y1="3139.9404" x2="7248.5811" y2="3139.9404" gradientTransform="matrix(1 0.0095 -0.0095 1 -6542.1279 -63.4747)">
				<stop  offset="0" style="stop-color:#FEBBBA"/>
				<stop  offset="1" style="stop-color:#FF928E"/>
			</linearGradient>
			<path style="fill:url(#SVGID_00000160892722237839970490000001323921054578832560_);" d="M633.012,3113.521l10.552,60.829
				c0,0,10.929,8.292,32.759,2.564l-4.691-65.385L633.012,3113.521z"/>
			
				<linearGradient id="SVGID_00000140710826987498836280000008521602524909661572_" gradientUnits="userSpaceOnUse" x1="574.6817" y1="3242.4795" x2="716.4812" y2="2425.9077">
				<stop  offset="0" style="stop-color:#4F52FF"/>
				<stop  offset="1" style="stop-color:#4042E2"/>
			</linearGradient>
			<path style="fill:url(#SVGID_00000140710826987498836280000008521602524909661572_);" d="M609.853,2388.477
				c-47.41,270.123,3.345,668.78,21.001,746.88c1.081,4.782,4.896,8.474,9.724,9.322c8.2,1.439,21.71,2.679,35.078-1.066
				c4.605-1.289,7.872-5.401,8.104-10.179c3.07-62.976,2.317-449.777,45.546-602.227c2.19-7.726,6.985-14.437,13.575-19.027
				l81.624-56.863l7.105-93.106L609.853,2388.477z"/>
			<g>
				
					<linearGradient id="SVGID_00000140699377370172249400000017007608939962440625_" gradientUnits="userSpaceOnUse" x1="705.9474" y1="1172.7687" x2="787.4993" y2="1753.828">
					<stop  offset="0" style="stop-color:#FF928E"/>
					<stop  offset="1" style="stop-color:#FE7062"/>
				</linearGradient>
				<path style="fill:url(#SVGID_00000140699377370172249400000017007608939962440625_);" d="M900.399,1878.563
					c-134.325-3.501-282.917,32.579-282.917,32.579c-42.275,233.283-11.803,503.115-11.803,503.115
					c103.747,28.267,221.492-14.565,221.492-14.565c18.219-97.501,101.497-371.598,101.497-371.598
					c65.718-7.52,119.973-25.943,164.742-50.555c-33.591-39.697-49.126-89.95-55.798-119.631
					C989.97,1872.217,941.83,1879.643,900.399,1878.563z"/>
				
					<linearGradient id="SVGID_00000025407160915635208910000012158132864822326446_" gradientUnits="userSpaceOnUse" x1="7597.3066" y1="1815.7063" x2="7857.145" y2="1815.7063" gradientTransform="matrix(1 0.0095 -0.0095 1 -6542.1279 -63.4747)">
					<stop  offset="0" style="stop-color:#FEBBBA"/>
					<stop  offset="1" style="stop-color:#FF928E"/>
				</linearGradient>
				<path style="fill:url(#SVGID_00000025407160915635208910000012158132864822326446_);" d="M1299.121,1684.465
					c-13.045-16.067-29.82-8.685-29.82-8.685c-20.567,83.323-124.875,150.046-231.689,182.128
					c6.672,29.681,22.207,79.934,55.798,119.631C1271.102,1879.849,1299.121,1684.465,1299.121,1684.465z"/>
			</g>
			<g>
				
					<linearGradient id="SVGID_00000024704903814645387590000000191314916150902680_" gradientUnits="userSpaceOnUse" x1="2647.47" y1="1771.225" x2="2821.8242" y2="2167.9202" gradientTransform="matrix(-1 -0.0095 -0.0095 1 3904.5981 36.7017)">
					<stop  offset="0" style="stop-color:#FEBBBA"/>
					<stop  offset="1" style="stop-color:#FF928E"/>
				</linearGradient>
				<path style="fill:url(#SVGID_00000024704903814645387590000000191314916150902680_);" d="M1295.879,1688.487
					c1.339,4.403-14.716,10.936-23.961-7.109c-0.246-8.609-5.128-45.523,0.081-52.485c27.742-37.074,81.283-83.371,81.283-83.371
					c8.889,8.94,1.414,17.568,1.414,17.568l-26.014,26.586c5.295,9.786,11.789,18.067,14.756,29.873
					c2.247,8.94,0.73,18.456-3.852,26.53c-4.599,8.102-10.869,18.632-16.779,26.862
					C1311.619,1688.52,1295.879,1688.487,1295.879,1688.487z"/>
				
					<linearGradient id="SVGID_00000085218900877880249350000010418931657536976043_" gradientUnits="userSpaceOnUse" x1="7855.8994" y1="1640.0437" x2="7928.6514" y2="1528.1874" gradientTransform="matrix(1 0.0095 -0.0095 1 -6542.1279 -63.4747)">
					<stop  offset="0" style="stop-color:#FEBBBA"/>
					<stop  offset="1" style="stop-color:#FF928E"/>
				</linearGradient>
				<path style="fill:url(#SVGID_00000085218900877880249350000010418931657536976043_);" d="M1317.251,1606.979l-23.662,19.674
					l-7.559,19.74l20.706,23.416c0,0,7.411-39.241,12.722-47.699C1324.77,1613.653,1322.097,1609.513,1317.251,1606.979z"/>
			</g>
			
				<linearGradient id="SVGID_00000011744776876174655560000009027076839186062465_" gradientUnits="userSpaceOnUse" x1="447.4673" y1="1209.0481" x2="529.0192" y2="1790.1068">
				<stop  offset="0" style="stop-color:#FF928E"/>
				<stop  offset="1" style="stop-color:#FE7062"/>
			</linearGradient>
			<path style="fill:url(#SVGID_00000011744776876174655560000009027076839186062465_);" d="M667.77,2041.72l-50.288-130.578
				c0,0-126.301,84.065-147.969,191.972c23.694,1.973,66.781,8.551,108.809,30.279C588.09,2082.437,667.77,2041.72,667.77,2041.72z"
				/>
			
				<linearGradient id="SVGID_00000085932159264931594230000014340130031992232064_" gradientUnits="userSpaceOnUse" x1="7028.7275" y1="2183.7256" x2="7357.5454" y2="2183.7256" gradientTransform="matrix(1 0.0095 -0.0095 1 -6542.1279 -63.4747)">
				<stop  offset="0" style="stop-color:#FEBBBA"/>
				<stop  offset="1" style="stop-color:#FF928E"/>
			</linearGradient>
			<path style="fill:url(#SVGID_00000085932159264931594230000014340130031992232064_);" d="M776.264,2165.174
				c0,0-141.65,78.28-188.54,9.836c-9.735-14.212-11.961-28.265-9.402-41.617c-42.029-21.727-85.115-28.306-108.809-30.279
				c-6.533,32.531-3.574,67.223,15.242,102.438c81.818,153.121,309.823-5.463,309.823-5.463L776.264,2165.174z"/>
			
				<linearGradient id="SVGID_00000071537810941650467790000016926152479951315125_" gradientUnits="userSpaceOnUse" x1="7281.2256" y1="1832.2057" x2="7411.2344" y2="1832.2057" gradientTransform="matrix(1 0.0095 -0.0095 1 -6542.1279 -63.4747)">
				<stop  offset="0" style="stop-color:#FEBBBA"/>
				<stop  offset="1" style="stop-color:#FF928E"/>
			</linearGradient>
			<path style="fill:url(#SVGID_00000071537810941650467790000016926152479951315125_);" d="M765.359,1768.197l-43.927,123.214
				c-0.727,2.041,0.092,4.317,1.979,5.384c11.591,6.553,53.394,25.575,104.291-6.017c5.302-3.291,8.942-8.707,9.802-14.888
				l14.863-106.862L765.359,1768.197z"/>
			<g>
				
					<linearGradient id="SVGID_00000052810284950688206750000008656299390533654975_" gradientUnits="userSpaceOnUse" x1="28.0388" y1="3447.2371" x2="-20.5436" y2="3287.0005" gradientTransform="matrix(0.7523 -0.6588 0.6588 0.7523 -1408.7249 -818.1582)">
					<stop  offset="0" style="stop-color:#FEBBBA"/>
					<stop  offset="1" style="stop-color:#FF928E"/>
				</linearGradient>
				<path style="fill:url(#SVGID_00000052810284950688206750000008656299390533654975_);" d="M859.461,1654.608
					c0,0,46.098,88.808,39.74,124.444c-6.357,35.635-64.508,32.517-115.033,3.044l-34.588-95.748L859.461,1654.608z"/>
				
					<linearGradient id="SVGID_00000166666893715622122790000002574644564787189154_" gradientUnits="userSpaceOnUse" x1="-15.7888" y1="3168.0483" x2="24.8496" y2="3399.8379" gradientTransform="matrix(0.7523 -0.6588 0.6588 0.7523 -1408.7249 -818.1582)">
					<stop  offset="0" style="stop-color:#09005D"/>
					<stop  offset="1" style="stop-color:#1A0F91"/>
				</linearGradient>
				<path style="fill:url(#SVGID_00000166666893715622122790000002574644564787189154_);" d="M786.862,1735.262
					c2.073-0.895,2.859-3.415,1.641-5.316c-3.707-5.781-10.644-17.569-12.796-27.852c0,0-8.386-5.485,21.597-12.36
					c29.985-6.875,74.704-17.564,84.323-42.938c9.379-24.74-14.047-87.404-52.845-38.023c-1.476,1.879-4.332,1.894-5.771-0.015
					c-6.204-8.236-22.559-25.367-45.59-15.296c-21.551,9.424-24.119,25.126-23.9,33.056c0.064,2.332-2.038,4.125-4.325,3.667
					c-10.83-2.173-36.85-4.199-49.258,22.395c-10.219,21.904-3.832,34.421,2.035,40.567c1.901,1.992,1.028,5.234-1.612,6.014
					c-7.152,2.115-16.416,8.074-15.655,24.789c1.054,23.108,26.896,21.32,34.257,20.336c1.206-0.16,2.416,0.264,3.223,1.175
					c6.238,7.036,34.356,36.927,65.062,40.791c2.659,0.335,4.747-2.274,3.899-4.816l-12.934-38.797
					c-0.601-1.802,0.278-3.764,2.021-4.517L786.862,1735.262z"/>
				
					<linearGradient id="SVGID_00000004507427096447202490000000406537952050078372_" gradientUnits="userSpaceOnUse" x1="-21.6234" y1="3446.489" x2="-65.3339" y2="3302.3213" gradientTransform="matrix(0.7523 -0.6588 0.6588 0.7523 -1408.7249 -818.1582)">
					<stop  offset="0" style="stop-color:#FEBBBA"/>
					<stop  offset="1" style="stop-color:#FF928E"/>
				</linearGradient>
				<path style="fill:url(#SVGID_00000004507427096447202490000000406537952050078372_);" d="M792.157,1740.802
					c0,0-33.203-23.249-35.83-3.962c-2.625,19.287,29.83,28.258,46.015,21.212L792.157,1740.802z"/>
			</g>
			<g>
				<g>
					
						<linearGradient id="SVGID_00000088124801939850805300000009286599030270061191_" gradientUnits="userSpaceOnUse" x1="7156.6816" y1="1978.0922" x2="7338.123" y2="2734.0986" gradientTransform="matrix(1 0 0 1 -6273.8389 0)">
						<stop  offset="0" style="stop-color:#09005D"/>
						<stop  offset="1" style="stop-color:#1A0F91"/>
					</linearGradient>
					<path style="fill:url(#SVGID_00000088124801939850805300000009286599030270061191_);" d="M747.315,2288.886l77.162-269.468
						c0.876-3.059,3.486-5.29,6.646-5.658c13.98-1.631,54.491-6.211,101.264-10.167c56.339-4.766,121.767-8.627,160.864-5.342
						c5.558,0.467,8.917,6.346,6.445,11.346c-22.232,44.98-113.685,227.948-159.482,287.887c-1.517,1.986-3.864,3.147-6.363,3.123
						l-179.03-1.666C749.612,2298.892,745.881,2293.894,747.315,2288.886z"/>
					
						<linearGradient id="SVGID_00000083811337535774958250000009003631546586353053_" gradientUnits="userSpaceOnUse" x1="7032.353" y1="2178.0959" x2="7135.1533" y2="2178.0959" gradientTransform="matrix(1 0 0 1 -6273.8389 0)">
						<stop  offset="0" style="stop-color:#FEBBBA"/>
						<stop  offset="1" style="stop-color:#FF928E"/>
					</linearGradient>
					<path style="fill:url(#SVGID_00000083811337535774958250000009003631546586353053_);" d="M765.958,2223.783
						c0,0-10.749-44.199-6.413-59.879c4.336-15.681,12.737-35.842,40.738-31.362c28.002,4.48,61.032,16.276,61.032,16.276
						s-1.669,20.425-22.95,13.835l13.198,10.212c0,0-1.886,16.354-19.862,7.617l12.274,13.542c0,0-7.72,13.432-20.946,4.817
						C809.803,2190.225,803.463,2229.105,765.958,2223.783z"/>
				</g>
				<path style="fill:#91B3FA;" d="M927.242,2084.035c0,12.51,10.141,22.65,22.651,22.65c12.509,0,22.65-10.14,22.65-22.65
					c0-12.51-10.141-22.651-22.65-22.651C937.383,2061.384,927.242,2071.524,927.242,2084.035z"/>
				<path style="fill:#91B3FA;" d="M833.208,2098.966l-5.774-1.705l15.709-53.292c2.563-8.679,9.57-15.2,18.281-17.011
					c49.796-10.396,180.947-12.513,186.504-12.601l0.094,6.021c-1.355,0.018-136.134,2.199-185.369,12.472
					c-6.539,1.364-11.802,6.274-13.736,12.825L833.208,2098.966z"/>
			</g>
		</g>
		<g>
			<g>
				<path style="fill:#7D97F4;" d="M3207.818,2797.515c8.573,12.686,42.649,299.931,47.982,406.02
					c0.361,7.174-5.378,13.156-12.561,13.156l0,0c-6.195,0-11.466-4.513-12.422-10.633l-62.326-399.406L3207.818,2797.515z"/>
				<path style="fill:#7D97F4;" d="M2933.851,2797.515c-8.574,12.686-42.649,299.931-47.982,406.02
					c-0.362,7.174,5.377,13.156,12.562,13.156l0,0c6.194,0,11.466-4.513,12.421-10.633l62.327-399.406L2933.851,2797.515z"/>
				<path style="fill:#7D97F4;" d="M3259.364,2775.096l0.029,3.131c0.206,22.535-19.208,41.02-43.517,41.433l-288.086,4.9
					c-23.958,0.407-43.93-16.906-45.092-39.091l-0.15-2.866c-1.212-23.137,18.437-42.63,43.422-43.078l288.208-5.165
					C3238.844,2733.917,3259.155,2752.228,3259.364,2775.096z"/>
			</g>
			<g>
				<g>
					
						<linearGradient id="SVGID_00000079470721177710735930000017935887689694906752_" gradientUnits="userSpaceOnUse" x1="-5639.6313" y1="3199.0212" x2="-5430.7339" y2="3199.0212" gradientTransform="matrix(-1 0 0 1 -2838.5674 0)">
						<stop  offset="0" style="stop-color:#4F52FF"/>
						<stop  offset="1" style="stop-color:#4042E2"/>
					</linearGradient>
					<path style="fill:url(#SVGID_00000079470721177710735930000017935887689694906752_);" d="M2717.063,3199.897
						c51.211,0,73.87-4.393,84.001-8.4c-1.969,8.41-9.46,15.049-18.926,15.049h-181.169c-6.101,0-9.952-5.84-8.494-11.127
						C2613.126,3197.079,2656.989,3199.897,2717.063,3199.897z"/>
					
						<linearGradient id="SVGID_00000019639476030034749580000004332251969828348034_" gradientUnits="userSpaceOnUse" x1="-5478.6846" y1="2797.3394" x2="-5535.7607" y2="3191.6829" gradientTransform="matrix(-1 0 0 1 -2838.5674 0)">
						<stop  offset="0" style="stop-color:#09005D"/>
						<stop  offset="1" style="stop-color:#1A0F91"/>
					</linearGradient>
					<path style="fill:url(#SVGID_00000019639476030034749580000004332251969828348034_);" d="M2592.475,3195.418
						c0.294-1.066,0.726-2.115,1.483-3.083c13.801-17.619,41.523-45.29,79.235-44.76c55.244,0.778,74.506,6.77,117.436,0.336
						l10.128,33.57c1.031,3.422,1.05,6.84,0.307,10.014c-10.131,4.007-32.79,8.4-84.001,8.4
						C2656.989,3199.897,2613.126,3197.079,2592.475,3195.418z"/>
				</g>
				
					<linearGradient id="SVGID_00000081626547075318756930000006518623325380404132_" gradientUnits="userSpaceOnUse" x1="-5629.1963" y1="3136.0696" x2="-5572.6753" y2="3136.0696" gradientTransform="matrix(-1 0 0 1 -2838.5674 0)">
					<stop  offset="0" style="stop-color:#FEBBBA"/>
					<stop  offset="1" style="stop-color:#FF928E"/>
				</linearGradient>
				<path style="fill:url(#SVGID_00000081626547075318756930000006518623325380404132_);" d="M2778.197,3111.737l12.432,42.281
					c0,0-27.541,12.537-51.765,2.472l-4.756-36.632L2778.197,3111.737z"/>
				<g>
					
						<linearGradient id="SVGID_00000080908383259939632080000010558422939693926278_" gradientUnits="userSpaceOnUse" x1="-5311.9868" y1="3157.6233" x2="-5143.3262" y2="3157.6233" gradientTransform="matrix(-1 0 0 1 -2838.5674 0)">
						<stop  offset="0" style="stop-color:#4F52FF"/>
						<stop  offset="1" style="stop-color:#4042E2"/>
					</linearGradient>
					<path style="fill:url(#SVGID_00000080908383259939632080000010558422939693926278_);" d="M2402.701,3173.27
						c39.921,32.076,60.323,42.86,70.718,46.097c-6.778,5.292-16.755,5.752-24.134-0.177l-141.229-113.476
						c-4.756-3.822-4.117-10.764,0.315-13.953C2323.435,3105.983,2355.871,3135.643,2402.701,3173.27z"/>
					
						<linearGradient id="SVGID_00000129891713704629657840000002251662393546851750_" gradientUnits="userSpaceOnUse" x1="-5195.9741" y1="2838.2551" x2="-5253.0503" y2="3232.6008" gradientTransform="matrix(-1 0 0 1 -2838.5674 0)">
						<stop  offset="0" style="stop-color:#09005D"/>
						<stop  offset="1" style="stop-color:#1A0F91"/>
					</linearGradient>
					<path style="fill:url(#SVGID_00000129891713704629657840000002251662393546851750_);" d="M2308.371,3091.76
						c0.894-0.643,1.885-1.187,3.079-1.463c21.741-5.025,60.602-9.13,89.668,14.902c42.58,35.206,53.859,51.921,91.336,73.818
						l-13.031,32.389c-1.329,3.301-3.445,5.964-6.004,7.961c-10.395-3.237-30.797-14.021-70.718-46.097
						C2355.871,3135.643,2323.435,3105.983,2308.371,3091.76z"/>
				</g>
				
					<linearGradient id="SVGID_00000070102942501510492880000011521449048869559974_" gradientUnits="userSpaceOnUse" x1="2779.021" y1="2646.6377" x2="3086.5388" y2="3253.1794">
					<stop  offset="0" style="stop-color:#09005D"/>
					<stop  offset="1" style="stop-color:#1A0F91"/>
				</linearGradient>
				<path style="fill:url(#SVGID_00000070102942501510492880000011521449048869559974_);" d="M3044.137,2630.017
					c0,0-306.603,25.034-369.501,54.643c-62.897,29.609,51.328,444.593,51.328,444.593s17.124,8.241,55.224-3.604
					c0,0-39.07-306.242-9.997-372.648l331.972-54.299L3044.137,2630.017z"/>
				
					<linearGradient id="SVGID_00000004519084315517792350000007819653238970840760_" gradientUnits="userSpaceOnUse" x1="-5361.4854" y1="3140.8267" x2="-5294.0073" y2="3140.8267" gradientTransform="matrix(-1 0 0 1 -2838.5674 0)">
					<stop  offset="0" style="stop-color:#FEBBBA"/>
					<stop  offset="1" style="stop-color:#FF928E"/>
				</linearGradient>
				<path style="fill:url(#SVGID_00000004519084315517792350000007819653238970840760_);" d="M2522.918,3120.724
					c-2.847,2.594-30.464,58.293-30.464,58.293s-30.745-6.652-37.014-26.109l27.664-50.271L2522.918,3120.724z"/>
				
					<linearGradient id="SVGID_00000075880661743903300460000002957238589942516669_" gradientUnits="userSpaceOnUse" x1="3443.1394" y1="3347.3503" x2="3118.6296" y2="3085.7039">
					<stop  offset="0" style="stop-color:#09005D"/>
					<stop  offset="1" style="stop-color:#1A0F91"/>
				</linearGradient>
				<path style="fill:url(#SVGID_00000075880661743903300460000002957238589942516669_);" d="M3228.801,2627.455
					c0,0,9.992,24.042,9.584,55.99c-0.564,44.184-36.085,80.038-80.218,82.241l-362.455,16.529
					c-7.655,0.349-14.13,5.646-16.048,13.065c-8.517,32.945-50.149,134.114-253.655,335.99c-5.414,5.371-13.849,6.285-20.296,2.212
					l-28.969-18.299c-3.042-1.921-4.012-5.908-2.194-9.011l211.04-360.383c11.084-18.292,28.903-31.508,49.625-36.804
					l308.924-78.967L3228.801,2627.455z"/>
				
					<linearGradient id="SVGID_00000020391110988772027860000016371133555350491054_" gradientUnits="userSpaceOnUse" x1="-5736.3042" y1="2189.9495" x2="-5703.0361" y2="2106.0569" gradientTransform="matrix(-1 0 0 1 -2838.5674 0)">
					<stop  offset="0" style="stop-color:#FEBBBA"/>
					<stop  offset="1" style="stop-color:#FF928E"/>
				</linearGradient>
				<path style="fill:url(#SVGID_00000020391110988772027860000016371133555350491054_);" d="M2871.605,2064.506
					c0,0,38.828,68.651,78.416,101.909l-81.825,45.654c0,0-18.438-72.676-60.563-93.959L2871.605,2064.506z"/>
				
					<linearGradient id="SVGID_00000055683152044384454350000013060328562358914742_" gradientUnits="userSpaceOnUse" x1="3022.7742" y1="1447.1799" x2="2981.998" y2="1871.9301">
					<stop  offset="0" style="stop-color:#FF928E"/>
					<stop  offset="1" style="stop-color:#FE7062"/>
				</linearGradient>
				<path style="fill:url(#SVGID_00000055683152044384454350000013060328562358914742_);" d="M3235.385,2630.017
					c0,0-97.85,23.846-191.248,0c0,0-130.69-175.686-181.251-223.502c0,0-80.65,127.264-260.161,145.299l-10.011-22.371
					c0,0,142.91-65.878,186.905-167.102c43.996-101.224,61.666-144.396,101.692-170.806c24.927-16.448,39.853-27.684,47.566-33.819
					c4.223-3.36,10.052-3.739,14.66-0.931C2986.013,2182.669,3185.884,2319.56,3235.385,2630.017z"/>
				
					<linearGradient id="SVGID_00000044870795041139015780000002073801997367304365_" gradientUnits="userSpaceOnUse" x1="3225.4844" y1="2141.0879" x2="2494.9148" y2="2610.0115">
					<stop  offset="0" style="stop-color:#FEBBBA"/>
					<stop  offset="1" style="stop-color:#FF928E"/>
				</linearGradient>
				<path style="fill:url(#SVGID_00000044870795041139015780000002073801997367304365_);" d="M2868.191,2404.039
					c1.885,0,3.748-0.846,4.983-2.458c31.161-40.63,48.515-85.417,49.239-87.298c1.241-3.236-0.374-6.865-3.61-8.109
					c-3.242-1.244-6.865,0.374-8.109,3.61c-0.171,0.448-17.465,45.019-47.479,84.16c-2.109,2.752-1.591,6.687,1.161,8.802
					C2865.513,2403.616,2866.858,2404.039,2868.191,2404.039z"/>
				
					<linearGradient id="SVGID_00000114758712853330763450000018160510421659995024_" gradientUnits="userSpaceOnUse" x1="-5452.0859" y1="2516.2117" x2="-5296.2192" y2="2516.2117" gradientTransform="matrix(-1 0 0 1 -2838.5674 0)">
					<stop  offset="0" style="stop-color:#FEBBBA"/>
					<stop  offset="1" style="stop-color:#FF928E"/>
				</linearGradient>
				<path style="fill:url(#SVGID_00000114758712853330763450000018160510421659995024_);" d="M2613.518,2517.758l-20.206-5.386
					l-61.349-14.206c-7.385-1.71-15.147-0.402-21.563,3.635l-52.748,33.188l145.671-0.246L2613.518,2517.758z"/>
				<g>
					
						<linearGradient id="SVGID_00000109730093092043415260000008734109584437760913_" gradientUnits="userSpaceOnUse" x1="-3678.1851" y1="1614.2305" x2="-3845.2188" y2="1742.0366" gradientTransform="matrix(-0.9914 -0.1306 -0.1306 0.9914 -639.5688 -61.3823)">
						<stop  offset="0" style="stop-color:#FEBBBA"/>
						<stop  offset="1" style="stop-color:#FF928E"/>
					</linearGradient>
					<path style="fill:url(#SVGID_00000109730093092043415260000008734109584437760913_);" d="M2809.955,1961.563
						c0,0-37.734,62.726-44.282,97.397c-6.547,34.67-17.058,56.341,22.399,68.695c39.458,12.354,76.128-3.281,99.142-35.644
						c0,0,35.94-49.804,32.355-72.612C2915.983,1996.592,2809.955,1961.563,2809.955,1961.563z"/>
					
						<linearGradient id="SVGID_00000174578915922987960800000013045518714403136914_" gradientUnits="userSpaceOnUse" x1="-3795.5339" y1="1513.3403" x2="-3644.2798" y2="1708.0795" gradientTransform="matrix(-0.9914 -0.1306 -0.1306 0.9914 -639.5688 -61.3823)">
						<stop  offset="0" style="stop-color:#09005D"/>
						<stop  offset="1" style="stop-color:#1A0F91"/>
					</linearGradient>
					<path style="fill:url(#SVGID_00000174578915922987960800000013045518714403136914_);" d="M2876.709,2065.178l-5.104-0.673
						c0,0,26.719-40.375,9.236-50.39s-88.73-34.591-101.104-62.651c-11.928-27.05,5.915-57.611,27.427-63.987
						c1.361-0.403,2.797,0.401,3.29,1.732l1.264,3.407c0.865,2.333,4.13,2.426,5.128,0.147l0,0c0.946-2.162,4.041-2.253,5.015-0.104
						c3.812,8.406,15.241,22.764,49.504,33.871c48.617,15.761,78.901,40.267,75.174,74.811c-0.236,2.188,1.937,3.698,3.95,2.808
						c3.974-1.757,9.999-2.033,16.995,5.619c12.166,13.307,2.636,42.412-30.592,63.01c-1.579,0.979-1.86,3.205-0.449,4.414
						c4.971,4.257,11.964,13.746-10.517,22.206c-22.998,8.654-35.547,5.726-40.184,3.867c-1.248-0.501-1.96-1.792-1.703-3.111
						l5.906-30.269c0.306-1.565-0.773-3.065-2.354-3.273L2876.709,2065.178z"/>
					
						<linearGradient id="SVGID_00000068679670213015902810000009810732777952214153_" gradientUnits="userSpaceOnUse" x1="-3698.9043" y1="1587.1542" x2="-3865.9368" y2="1714.9595" gradientTransform="matrix(-0.9914 -0.1306 -0.1306 0.9914 -639.5688 -61.3823)">
						<stop  offset="0" style="stop-color:#FEBBBA"/>
						<stop  offset="1" style="stop-color:#FF928E"/>
					</linearGradient>
					<path style="fill:url(#SVGID_00000068679670213015902810000009810732777952214153_);" d="M2874.615,2071.398
						c0,0,16.651-41.05,34.139-26.621c17.487,14.429-16.165,46.324-31.696,45.896L2874.615,2071.398z"/>
				</g>
			</g>
			<g>
				<g>
					
						<linearGradient id="SVGID_00000016780965568012503580000013388394608956010912_" gradientUnits="userSpaceOnUse" x1="25479.7344" y1="-22251.6172" x2="25062.8789" y2="-21848.5996" gradientTransform="matrix(1.388 -0.0686 0.0685 1.3855 2282.7898 -570.6171)">
						<stop  offset="0" style="stop-color:#4F52FF"/>
						<stop  offset="1" style="stop-color:#4042E2"/>
					</linearGradient>
					<path style="fill:url(#SVGID_00000016780965568012503580000013388394608956010912_);" d="M2778.946,2555.968
						c-0.237,0.012-0.476,0.018-0.716,0.016l-311.202-0.31c-7.693-0.006-13.922-6.238-13.913-13.917
						c0.008-7.682,6.274-14.028,13.947-13.891l311.202,0.311c7.693,0.006,13.922,6.237,13.913,13.916
						C2792.168,2549.534,2786.306,2555.605,2778.946,2555.968z"/>
				</g>
				<g>
					
						<linearGradient id="SVGID_00000114755571638112922810000008702011415000670354_" gradientUnits="userSpaceOnUse" x1="15773.9736" y1="-18477.3574" x2="15357.1377" y2="-18074.3574" gradientTransform="matrix(-0.6475 -1.2297 1.2274 -0.6463 -11183.3545 -5472.2012)">
						<stop  offset="0" style="stop-color:#4F52FF"/>
						<stop  offset="1" style="stop-color:#4042E2"/>
					</linearGradient>
					<path style="fill:url(#SVGID_00000114755571638112922810000008702011415000670354_);" d="M2346.51,2251.203
						c0.111,0.211,0.217,0.424,0.317,0.642l130.94,282.314c3.239,6.978,0.215,15.253-6.751,18.484
						c-6.969,3.231-15.365,0.226-18.476-6.789l-130.941-282.314c-3.239-6.979-0.215-15.254,6.751-18.484
						C2335.1,2241.928,2343.076,2244.684,2346.51,2251.203z"/>
				</g>
			</g>
			<g>
				<g>
					<rect x="2048.26" y="2877.771" style="fill:#7D97F4;" width="30.227" height="326.886"/>
					<path style="fill:#7D97F4;" d="M2195.745,3210.96h-264.744l0,0c0-10.867,8.809-19.676,19.676-19.676h225.392
						C2186.935,3191.284,2195.745,3200.093,2195.745,3210.96L2195.745,3210.96z"/>
					<path style="fill:#7D97F4;" d="M2235.036,2866.426c0,17.879-14.628,32.506-32.506,32.506h-267.852
						c-17.879,0-32.506-14.627-32.506-32.506v-29.392c0-17.879,14.628-32.506,32.506-32.506h267.852
						c17.879,0,32.506,14.627,32.506,32.506V2866.426z"/>
				</g>
				<g>
					
						<linearGradient id="SVGID_00000129197571569539587710000007539830551476653989_" gradientUnits="userSpaceOnUse" x1="2177.9138" y1="2651.7339" x2="1619.6016" y2="3103.2383">
						<stop  offset="0" style="stop-color:#FEBBBA"/>
						<stop  offset="1" style="stop-color:#FF928E"/>
					</linearGradient>
					<path style="fill:url(#SVGID_00000129197571569539587710000007539830551476653989_);" d="M1840.223,2659.813
						c0,0-44.916,6.963-95.416,40.722c-7.948,5.313-12.307,14.574-11.11,24.059c6.047,47.898,30.91,202.931,112.896,354.354
						c4.323,7.984,5.566,17.279,3.658,26.156l-14.244,66.286l-26.415,24.768h68.038l45.301-122.594l-19.371-6.125
						c-15.019-4.75-25.324-18.564-25.596-34.314l-2.273-131.509c1.939-58.59-35.925-99.015-35.925-99.015l108.659-5.286
						L1840.223,2659.813z"/>
					
						<linearGradient id="SVGID_00000126298296508401263850000008768360510625373109_" gradientUnits="userSpaceOnUse" x1="4344.1841" y1="2685.8826" x2="4344.1841" y2="2939.5999" gradientTransform="matrix(1 0 0 1 -2484.0642 0)">
						<stop  offset="0" style="stop-color:#09005D"/>
						<stop  offset="1" style="stop-color:#1A0F91"/>
					</linearGradient>
					<path style="fill:url(#SVGID_00000126298296508401263850000008768360510625373109_);" d="M1783.025,3208.117
						c-6.196,8.109,66.69,18.81,103.514,1.073c0,0,51.046-88.813,51.046-134.541c0,0-4.052-9.323-34.025-7.209
						c0,0-17.139,105.16-35.238,116.939c-18.098,11.78-50.634,1.192-50.634,1.192S1792.168,3196.152,1783.025,3208.117z"/>
					
						<linearGradient id="SVGID_00000019663033279138324060000015621429365460045237_" gradientUnits="userSpaceOnUse" x1="1707.911" y1="2774.3984" x2="1707.911" y2="2012.1812">
						<stop  offset="0" style="stop-color:#FEBBBA"/>
						<stop  offset="1" style="stop-color:#FF928E"/>
					</linearGradient>
					<path style="fill:url(#SVGID_00000019663033279138324060000015621429365460045237_);" d="M1934.678,2804.528
						c-0.578-1-116.989-13.997-116.989-13.997s3.81,35.395-8.097,84.119c-11.906,48.724-182.822,259.823-182.822,259.823
						l17.921,56.811c-55.409,19.302-109.914,22.387-163.547,9.839l111.063-66.649c0,0,103.942-354.217,167.61-417.408l116.688-40.37
						L1934.678,2804.528z"/>
					
						<linearGradient id="SVGID_00000020392827891404507830000006288744735049826993_" gradientUnits="userSpaceOnUse" x1="4245.0542" y1="2706.075" x2="4753.1416" y2="2706.075" gradientTransform="matrix(1 0 0 1 -2484.0642 0)">
						<stop  offset="0" style="stop-color:#09005D"/>
						<stop  offset="1" style="stop-color:#1A0F91"/>
					</linearGradient>
					<path style="fill:url(#SVGID_00000020392827891404507830000006288744735049826993_);" d="M2195.745,2598.422
						c0,0,67.07,99.757,72.573,145.261c5.503,45.505-18.372,63.995-88.745,67.044c-70.373,3.049-258.24,3-258.24,3l-160.342-137.032
						c0,0,116.85-41.696,147.231-53.485C1938.601,2611.42,2195.745,2598.422,2195.745,2598.422z"/>
					
						<linearGradient id="SVGID_00000118381583213003970820000015965091032437295750_" gradientUnits="userSpaceOnUse" x1="4033.3354" y1="2685.8821" x2="4033.3354" y2="2939.5991" gradientTransform="matrix(1 0 0 1 -2484.0642 0)">
						<stop  offset="0" style="stop-color:#09005D"/>
						<stop  offset="1" style="stop-color:#1A0F91"/>
					</linearGradient>
					<path style="fill:url(#SVGID_00000118381583213003970820000015965091032437295750_);" d="M1637.92,3172.152
						c0,0,19.294,18.688,6.26,39.479c0,0-152.841,27.091-194.338,14.8c0,0,8.616-19.667,55.344-42.052l-3.448,2.646
						c-4.363,3.35-1.804,10.327,3.687,10.014C1536.217,3195.283,1599.94,3189.642,1637.92,3172.152z"/>
				</g>
				<g>
					
						<linearGradient id="SVGID_00000164512035943422532120000012670337841004330140_" gradientUnits="userSpaceOnUse" x1="4894.6509" y1="81.6436" x2="4819.8394" y2="474.6688" gradientTransform="matrix(0.8798 0.4754 -0.4754 0.8798 -2038.1189 -473.4668)">
						<stop  offset="0" style="stop-color:#09005D"/>
						<stop  offset="1" style="stop-color:#1A0F91"/>
					</linearGradient>
					<path style="fill:url(#SVGID_00000164512035943422532120000012670337841004330140_);" d="M1989.907,1919.007
						c131.699,44.665,135.333,173.724,120.015,192.153c-2.032,2.445-0.701,6.161,2.393,6.893
						c15.861,3.755,48.993,15.585,55.118,49.593c5.407,30.026-17.802,43.064-33.875,48.419c-3.881,1.293-4.113,6.674-0.298,8.152
						c27.197,10.543,82.935,39.663,63.985,96.378c-17.671,52.888-58.672,48.342-80.698,41.405c-3.727-1.174-6.913,2.836-5.005,6.246
						c6.542,11.691,11.023,30.968-7.548,54.199c-29.108,36.41-106.445-9.643-115.408-15.165c-0.568-0.35-1.031-0.818-1.383-1.384
						l-87.68-140.753c-0.683-1.097-0.841-2.442-0.43-3.668l54.251-161.584c0.438-1.307,1.473-2.327,2.787-2.747l-19.622-161.233
						C1908.9,1915.293,1988.355,1918.48,1989.907,1919.007z"/>
					
						<linearGradient id="SVGID_00000042724941235386348090000014323810732489774216_" gradientUnits="userSpaceOnUse" x1="2518.5815" y1="1512.2275" x2="2256.9348" y2="2035.5197">
						<stop  offset="0" style="stop-color:#FF928E"/>
						<stop  offset="1" style="stop-color:#FE7062"/>
					</linearGradient>
					<path style="fill:url(#SVGID_00000042724941235386348090000014323810732489774216_);" d="M2014.363,2558.032
						c0,0-78.102-74.369-116.548-123.627c-20.782-26.627-27.308-61.679-17.697-94.06c17.552-59.134,48.745-120.382,51.59-129.914
						c4.36-14.611,91.933-14.003,91.933-14.003s172.327,111.842,240.035,301.293l-76.04,23.673c0,0-44.995-75.487-89.452-123.48
						c0,0,76.927,101.623,79.636,143.226L2014.363,2558.032z"/>
					
						<linearGradient id="SVGID_00000089537004784932753040000010569328853014549656_" gradientUnits="userSpaceOnUse" x1="4479.4668" y1="2321.9612" x2="4448.8521" y2="2125.5176" gradientTransform="matrix(1 0 0 1 -2484.0642 0)">
						<stop  offset="0" style="stop-color:#FEBBBA"/>
						<stop  offset="1" style="stop-color:#FF928E"/>
					</linearGradient>
					<path style="fill:url(#SVGID_00000089537004784932753040000010569328853014549656_);" d="M1920.59,2121.089
						c0.914,3.038,24.299,86.494,26.087,88.066c1.788,1.573,50.127,4.172,72.88-11.378l-56.439-110.395L1920.59,2121.089z"/>
					<g>
						
							<linearGradient id="SVGID_00000181786823919810653480000000444322478423406752_" gradientUnits="userSpaceOnUse" x1="3073.9365" y1="6374.1406" x2="3274.3252" y2="6510.2539" gradientTransform="matrix(0.9768 -0.214 0.214 0.9768 -2531.4741 -3549.0798)">
							<stop  offset="0" style="stop-color:#FEBBBA"/>
							<stop  offset="1" style="stop-color:#FF928E"/>
						</linearGradient>
						<path style="fill:url(#SVGID_00000181786823919810653480000000444322478423406752_);" d="M1889.328,1957.256
							c0,0-36.578,25.853-51.221,90.104c-14.643,64.251,11.717,86.659,38.234,84.718c26.517-1.942,64.84-10.929,97.261-57.466
							C2006.024,2028.075,1937.305,1925.599,1889.328,1957.256z"/>
						
							<linearGradient id="SVGID_00000111874365555734642420000009077234848993860257_" gradientUnits="userSpaceOnUse" x1="3207.6094" y1="6211.335" x2="3132.7935" y2="6604.3828" gradientTransform="matrix(0.9768 -0.214 0.214 0.9768 -2531.4741 -3549.0798)">
							<stop  offset="0" style="stop-color:#09005D"/>
							<stop  offset="1" style="stop-color:#1A0F91"/>
						</linearGradient>
						<path style="fill:url(#SVGID_00000111874365555734642420000009077234848993860257_);" d="M1939.452,2049.507
							c0,0,11.736-91.88-64.035-76.33l-15.055,16.321c0,0-38.074-41.172,2.482-73.695c40.557-32.524,97.889-25.563,130.684,31.491
							c32.794,57.055,45.093,97.363,19.307,133.749c-25.786,36.387-46.348,6.042-46.348,6.042s11.531-31.274,1.174-44.385
							c-10.357-13.111-22.947,8.21-22.947,8.21L1939.452,2049.507z"/>
						
							<linearGradient id="SVGID_00000074442655235339751710000003244381962461761427_" gradientUnits="userSpaceOnUse" x1="3065.967" y1="6364.375" x2="3266.354" y2="6500.4868" gradientTransform="matrix(0.9768 -0.214 0.214 0.9768 -2531.4741 -3549.0798)">
							<stop  offset="0" style="stop-color:#FEBBBA"/>
							<stop  offset="1" style="stop-color:#FF928E"/>
						</linearGradient>
						<path style="fill:url(#SVGID_00000074442655235339751710000003244381962461761427_);" d="M1932.18,2069.154
							c0,0,5.757-47.266,30.098-34.279c24.343,12.987-7.785,44.201-20.704,54.862L1932.18,2069.154z"/>
					</g>
					
						<linearGradient id="SVGID_00000099640859090896157680000012134219506449779378_" gradientUnits="userSpaceOnUse" x1="4604.855" y1="2545.0603" x2="5030.8945" y2="2545.0603" gradientTransform="matrix(1 0 0 1 -2484.0642 0)">
						<stop  offset="0" style="stop-color:#FEBBBA"/>
						<stop  offset="1" style="stop-color:#FF928E"/>
					</linearGradient>
					<path style="fill:url(#SVGID_00000099640859090896157680000012134219506449779378_);" d="M1855.25,2563.554l57.384-55.309
						l79.382,33.535c0,0,79.016,12.242,124.24,0c45.224-12.243,45.224-12.243,45.224-12.243l102.197-31.816l16.051,45.362
						c4.075,11.517-0.02,24.303-9.979,31.379c-8.841,6.282-19.205,13.188-25.811,16.077c-13.458,5.888-331.764-4.073-331.764-4.073
						L1855.25,2563.554z"/>
				</g>
				<g>
					
						<linearGradient id="SVGID_00000145750283859830966460000009239054254770594960_" gradientUnits="userSpaceOnUse" x1="4522.5317" y1="2779.5691" x2="4254.3364" y2="2853.0745" gradientTransform="matrix(0.9988 -0.0494 0.0494 0.9988 -2525.5332 -55.0328)">
						<stop  offset="0" style="stop-color:#09005D"/>
						<stop  offset="1" style="stop-color:#1A0F91"/>
					</linearGradient>
					<path style="fill:url(#SVGID_00000145750283859830966460000009239054254770594960_);" d="M2072.407,2586.231
						c-0.255,0.013-0.509,0.02-0.766,0.017l-332.87-0.363c-8.229-0.006-14.892-6.684-14.884-14.913
						c0.008-8.232,6.71-15.032,14.917-14.884l332.87,0.363c8.229,0.007,14.892,6.685,14.884,14.913
						C2086.549,2579.337,2080.28,2585.842,2072.407,2586.231z"/>
					
						<linearGradient id="SVGID_00000012446130516839280890000010815680997489014925_" gradientUnits="userSpaceOnUse" x1="4249.957" y1="2324.5313" x2="4059.6602" y2="2525.6631" gradientTransform="matrix(1 0 0 1 -2484.0642 0)">
						<stop  offset="0" style="stop-color:#09005D"/>
						<stop  offset="1" style="stop-color:#1A0F91"/>
					</linearGradient>
					<path style="fill:url(#SVGID_00000012446130516839280890000010815680997489014925_);" d="M1439.535,2284.005h277.217
						c20.45,0,39.064,11.802,47.787,30.299l128.157,271.75H1548.19c-13.179,0-25.019-8.052-29.863-20.309l-99.38-251.464
						C1413.204,2299.751,1423.912,2284.005,1439.535,2284.005z"/>
					<path style="fill:#7D97F4;" d="M1634.838,2423.34c6.008,18.664,1.569,36.79-9.913,40.486
						c-11.482,3.695-25.659-8.439-31.667-27.103c-6.007-18.664-1.569-36.79,9.913-40.486
						C1614.652,2392.542,1628.83,2404.676,1634.838,2423.34z"/>
				</g>
			</g>
			<g>
				
					<linearGradient id="SVGID_00000057845920362565643540000013743167111655223977_" gradientUnits="userSpaceOnUse" x1="-5669.5884" y1="1671.6392" x2="-5531.9756" y2="3674.6584" gradientTransform="matrix(-1 0 0 1 -2838.5674 0)">
					<stop  offset="0" style="stop-color:#4F52FF"/>
					<stop  offset="1" style="stop-color:#4042E2"/>
				</linearGradient>
				<path style="fill:url(#SVGID_00000057845920362565643540000013743167111655223977_);" d="M2868.628,3237.703
					c1.545,0,3.115-0.337,4.626-1.045c5.946-2.792,8.692-10.316,6.134-16.805l-245.785-623.635
					c-2.556-6.487-9.445-9.483-15.396-6.695c-5.946,2.792-8.692,10.315-6.135,16.805l245.784,623.635
					C2859.764,3234.802,2864.086,3237.703,2868.628,3237.703z"/>
				
					<linearGradient id="SVGID_00000115487904396156196620000005901624404593009045_" gradientUnits="userSpaceOnUse" x1="-5638.6436" y1="1669.5138" x2="-5501.0308" y2="3672.5339" gradientTransform="matrix(-1 0 0 1 -2838.5674 0)">
					<stop  offset="0" style="stop-color:#4F52FF"/>
					<stop  offset="1" style="stop-color:#4042E2"/>
				</linearGradient>
				<path style="fill:url(#SVGID_00000115487904396156196620000005901624404593009045_);" d="M2591.741,3237.703
					c4.542,0,8.864-2.898,10.771-7.741l245.785-623.635c2.558-6.49-0.189-14.013-6.134-16.805
					c-5.942-2.792-12.837,0.204-15.397,6.695l-245.784,623.635c-2.558,6.489,0.189,14.013,6.135,16.805
					C2588.624,3237.365,2590.196,3237.703,2591.741,3237.703z"/>
				
					<linearGradient id="SVGID_00000096031326318458715800000000476054958158682035_" gradientUnits="userSpaceOnUse" x1="-4400.3672" y1="1584.4432" x2="-4262.7544" y2="3587.4626" gradientTransform="matrix(-1 0 0 1 -2838.5674 0)">
					<stop  offset="0" style="stop-color:#4F52FF"/>
					<stop  offset="1" style="stop-color:#4042E2"/>
				</linearGradient>
				<path style="fill:url(#SVGID_00000096031326318458715800000000476054958158682035_);" d="M1593.3,3239.393
					c1.545,0,3.115-0.337,4.626-1.045c5.945-2.792,8.692-10.316,6.134-16.805l-245.784-623.635
					c-2.558-6.487-9.444-9.483-15.397-6.695c-5.945,2.792-8.692,10.315-6.134,16.805l245.784,623.635
					C1584.436,3236.492,1588.758,3239.393,1593.3,3239.393z"/>
				
					<linearGradient id="SVGID_00000142859821192377629180000006325893259367114667_" gradientUnits="userSpaceOnUse" x1="-4369.4243" y1="1582.3177" x2="-4231.811" y2="3585.3379" gradientTransform="matrix(-1 0 0 1 -2838.5674 0)">
					<stop  offset="0" style="stop-color:#4F52FF"/>
					<stop  offset="1" style="stop-color:#4042E2"/>
				</linearGradient>
				<path style="fill:url(#SVGID_00000142859821192377629180000006325893259367114667_);" d="M1316.415,3239.393
					c4.542,0,8.864-2.898,10.771-7.74l245.784-623.635c2.558-6.49-0.189-14.013-6.134-16.805
					c-5.942-2.792-12.837,0.204-15.397,6.695l-245.784,623.635c-2.558,6.489,0.188,14.013,6.134,16.805
					C1313.298,3239.056,1314.87,3239.393,1316.415,3239.393z"/>
			</g>
			
				<linearGradient id="SVGID_00000076590329932330237180000010383340507213484943_" gradientUnits="userSpaceOnUse" x1="2095.5576" y1="1992.8623" x2="2177.105" y2="3246.6584">
				<stop  offset="0" style="stop-color:#4F52FF"/>
				<stop  offset="1" style="stop-color:#4042E2"/>
			</linearGradient>
			<path style="fill:url(#SVGID_00000076590329932330237180000010383340507213484943_);" d="M1260.549,2576.934
				c-0.958-4.101,0.347-8.342,3.559-11.563c3.213-3.222,7.997-5.088,13.045-5.088h1710.022c6.639,0,12.82,2.8,16.396,7.427
				c3.577,4.628,4.056,10.445,1.272,15.431l-18.531,33.185c-4.243,7.6-13.438,12.465-23.555,12.465H1288.887
				c-9.411,0-17.501-5.522-19.288-13.168L1260.549,2576.934z"/>
		</g>
		<g>
			
				<linearGradient id="SVGID_00000118383088091467339310000011797931125542018217_" gradientUnits="userSpaceOnUse" x1="657.8489" y1="777.7119" x2="708.819" y2="1175.2762">
				<stop  offset="0" style="stop-color:#FF928E"/>
				<stop  offset="1" style="stop-color:#FE7062"/>
			</linearGradient>
			
				<circle style="fill:url(#SVGID_00000118383088091467339310000011797931125542018217_);" cx="692.618" cy="1048.909" r="150.918"/>
			<g>
				<path style="fill:#FFFFFF;" d="M692.618,1143.552c-52.186,0-94.643-42.457-94.643-94.643s42.456-94.642,94.643-94.642
					c52.186,0,94.643,42.457,94.643,94.642S744.804,1143.552,692.618,1143.552z M692.618,970.127
					c-43.441,0-78.783,35.342-78.783,78.783c0,43.441,35.342,78.783,78.783,78.783c43.441,0,78.782-35.342,78.782-78.783
					C771.401,1005.468,736.059,970.127,692.618,970.127z"/>
				<path style="fill-rule:evenodd;clip-rule:evenodd;fill:#FFFFFF;" d="M662.97,1085.357v-68.041c0-7.27,7.914-11.776,14.166-8.066
					l57.334,34.021c6.124,3.634,6.124,12.499,0,16.133l-57.334,34.021C670.884,1097.134,662.97,1092.627,662.97,1085.357z"/>
			</g>
		</g>
		<g>
			
				<linearGradient id="SVGID_00000152979652660990489860000015767920727047396541_" gradientUnits="userSpaceOnUse" x1="1111.2939" y1="607.1744" x2="1131.682" y2="970.7609">
				<stop  offset="0" style="stop-color:#FF928E"/>
				<stop  offset="1" style="stop-color:#FE7062"/>
			</linearGradient>
			
				<circle style="fill:url(#SVGID_00000152979652660990489860000015767920727047396541_);" cx="1122.408" cy="805.379" r="144.113"/>
			<path style="fill:#FFFFFF;" d="M1120.144,712.189c-36.385,0-65.881,29.496-65.881,65.881c0,23.579,27.666,78.43,47.142,114.12
				c8.096,14.836,29.383,14.836,37.479,0c19.475-35.691,47.142-90.542,47.142-114.12
				C1186.025,741.685,1156.529,712.189,1120.144,712.189z M1120.144,813.443c-19.536,0-35.373-15.837-35.373-35.373
				c0-19.536,15.837-35.372,35.373-35.372s35.373,15.837,35.373,35.372C1155.517,797.607,1139.679,813.443,1120.144,813.443z"/>
		</g>
		<g>
			
				<linearGradient id="SVGID_00000059296800279073235370000012193425604810741161_" gradientUnits="userSpaceOnUse" x1="1040.7904" y1="1128.7374" x2="984.1575" y2="1713.1937">
				<stop  offset="0" style="stop-color:#E1473D"/>
				<stop  offset="1" style="stop-color:#E9605A"/>
			</linearGradient>
			
				<circle style="fill:url(#SVGID_00000059296800279073235370000012193425604810741161_);" cx="1013.639" cy="1408.943" r="156.57"/>
			
				<linearGradient id="SVGID_00000088106556932365958580000015151921253557274524_" gradientUnits="userSpaceOnUse" x1="1025.7484" y1="1196.7892" x2="1004.5106" y2="1568.8715">
				<stop  offset="0" style="stop-color:#FF928E"/>
				<stop  offset="1" style="stop-color:#FE7062"/>
			</linearGradient>
			
				<circle style="fill:url(#SVGID_00000088106556932365958580000015151921253557274524_);" cx="1013.639" cy="1408.944" r="151.364"/>
			<path style="opacity:0.52;fill:#FFFFFF;" d="M1016.949,1545.42c-72.888,0-132.512-58.944-133.186-131.979
				c-0.677-73.447,58.526-133.753,131.974-134.432c35.576-0.305,69.155,13.217,94.55,38.144
				c25.389,24.926,39.555,58.249,39.883,93.828c0.328,35.579-13.217,69.158-38.145,94.548c-24.927,25.392-58.25,39.557-93.83,39.885
				C1017.785,1545.418,1017.36,1545.42,1016.949,1545.42z M1016.985,1289.198c-0.388,0-0.767,0.002-1.155,0.005
				c-67.827,0.627-122.5,56.318-121.873,124.145c0.624,67.441,55.689,121.878,122.995,121.878c0.385,0,0.767-0.002,1.151-0.005
				c67.827-0.627,122.501-56.318,121.873-124.146C1139.353,1343.637,1084.285,1289.198,1016.985,1289.198z"/>
			<g>
				<path style="fill:#FFFFFF;" d="M1005.275,1507.562l-0.129-13.937c-14.534-0.447-28.937-3.744-39.185-8.118
					c-3.659-1.561-5.555-5.635-4.544-9.482l3.421-13.015c1.255-4.775,6.411-7.286,10.982-5.42
					c10.164,4.151,22.696,7.393,36.177,7.269c13.994-0.129,24.387-4.969,24.297-14.695c-0.081-8.775-8.193-13.918-27.691-18.957
					c-27.821-7.333-47.857-19.246-48.082-43.677c-0.204-22.059,15.77-39.049,43.717-43.813l-0.129-13.938
					c-0.041-4.485,3.56-8.155,8.045-8.196l8.189-0.075c4.484-0.041,8.154,3.561,8.195,8.046l0.116,12.514
					c13.449,0.414,23.257,2.623,31.049,5.28c3.992,1.361,6.206,5.628,5.14,9.709l-3.145,12.036
					c-1.213,4.642-6.138,7.223-10.64,5.568c-7.175-2.638-17.312-5.36-30.452-5.239c-16.604,0.153-21.283,7.076-21.226,13.243
					c0.07,7.59,10.08,12.716,31.726,19.158c30.92,8.965,43.846,21.655,44.059,44.663c0.195,21.11-15.284,40.23-45.601,45.254
					l0.144,15.598c0.041,4.485-3.561,8.154-8.045,8.195l-8.19,0.076C1008.987,1515.649,1005.317,1512.047,1005.275,1507.562z"/>
			</g>
		</g>
	</g>
</g>
</svg>
