<?xml version="1.0" encoding="utf-8"?>
<!-- Generator: Adobe Illustrator 27.5.0, SVG Export Plug-In . SVG Version: 6.00 Build 0)  -->
<svg version="1.1" xmlns="http://www.w3.org/2000/svg" xmlns:xlink="http://www.w3.org/1999/xlink" x="0px" y="0px"
	 viewBox="0 0 500 500" style="enable-background:new 0 0 500 500;" xml:space="preserve">
<g id="BACKGROUND_4_">
	<g>
		<rect style="fill:#eff3fd;" width="500" height="500"/>
		<path style="fill:#E6ECF1;" d="M91.424,443.174C12.797,364.884,12.18,197.13,54.204,216.8
			c26.334,12.326,36.34-31.835,26.253-67.811c-13.664-48.73,6.822-117.516,58.189-63.43c22.995,24.212,19.909-45.9,49.654-60.605
			c45.921-22.702,55.601,27.46,81.322,27.46c31.971,0,44.99-26.098,78.731-18.722c49.946,10.918,23.723,97.688,65.152,69.565
			c42.069-28.557,80.854,137.794,34.272,335.8C293.546,439.058,98.299,450.868,91.424,443.174z"/>
		<path style="fill:#eff3fd;" d="M133.741,337.342h47.529c0,0-4.46-14.412-17.192-9.533c-4.829-20.586-19.676-14.44-20.594-7.415
			C132.029,308.979,121.403,329.704,133.741,337.342z"/>
		<path style="fill:#eff3fd;" d="M210.791,95.431h47.529c0,0-4.46-14.412-17.192-9.533c-4.829-20.586-19.676-14.44-20.594-7.415
			C209.079,67.068,198.454,87.793,210.791,95.431z"/>
		<path style="fill:#eff3fd;" d="M300.965,72.269h44.935c0,0-4.217-9.248-16.253-6.117c-4.565-13.21-18.602-9.266-19.47-4.758
			C299.346,54.068,289.301,67.367,300.965,72.269z"/>
		<path style="fill:#eff3fd;" d="M44.216,257.572H89.15c0,0-4.217-9.248-16.253-6.117c-4.565-13.21-18.602-9.266-19.47-4.758
			C42.597,239.372,32.552,252.67,44.216,257.572z"/>
	</g>
</g>
<g id="OBJECTS_4_">
	<g>
		<path style="fill:#C7D5EA;" d="M437.923,458.863c0,1.54-64.209,2.789-143.415,2.789s-143.415-1.249-143.415-2.789
			c0-1.54,64.209-2.789,143.415-2.789S437.923,457.323,437.923,458.863z"/>
		<path style="fill:#EA9D86;" d="M419.925,431.432c-9.085-14.773-4.079-32.346-4.079-32.346s9.692,7.542,11.4,17.278
			c-3.912-19.162,4.178-38.07,4.178-38.07s11.226,16.575,7.091,34.363c3.363-21.5,14.895-35.685,14.895-35.685
			s2.391,18.124-3.504,33.813c8.033-11.407,20.336-25.654,27.307-24.354c-1.631,7.588-16.746,31.612-16.746,31.612
			s12.221-13.957,20.62-11.425c-6.747,17.311-22.177,34.476-22.177,34.476L419.925,431.432z"/>
		<path style="fill:#FAB734;" d="M79.35,448.058c-10.658-7.562-12.372-21.224-12.372-21.224s8.945,2.369,13.002,8.617
			c-8.366-12.132-8.336-27.628-8.336-27.628s12.674,8.18,15.055,21.734c-4.012-15.9-0.201-29.137-0.201-29.137
			s7.005,11.861,7.546,24.478c2.204-10.279,6.531-23.787,11.748-24.943c1.108,5.742-2.284,26.859-2.284,26.859
			s4.355-13.283,10.926-14.005c0.429,13.993-5.205,30.447-5.205,30.447L79.35,448.058z"/>
		<path style="fill:#E25287;" d="M402.075,449.476c0-20.232,22.463-37.564,39.015-14.431c6.968,9.738,14.074-9.04,19.722,4.17
			c1.901,5.559,20.637-0.661,22.845,10.261C467.345,449.476,402.075,449.476,402.075,449.476z"/>
		<path style="fill:#E25287;" d="M221.016,449.476c0-20.232-40.849-37.565-70.949-14.431c-12.671,9.738-25.594-9.04-35.865,4.17
			c-3.457,5.559-37.529-0.661-41.543,10.261C102.321,449.476,221.016,449.476,221.016,449.476z"/>
		<g>
			<path style="fill:#FFFFFF;" d="M389.017,405.496c-49.948,0-99.896,0-149.844,0c-9.289-9.721-9.289-25.482,0-35.202
				c49.948,0,99.896,0,149.844,0C379.728,380.014,379.728,395.775,389.017,405.496z"/>
			<path style="fill:none;stroke:#BA436F;stroke-width:5.6693;stroke-miterlimit:10;" d="M396.308,405.496
				c-52.27,0-104.541,0-156.811,0c-9.721-9.721-9.721-25.482,0-35.202c52.27,0,104.541,0,156.811,0"/>
			<path style="fill:#FFFFFF;" d="M341.392,405.496H202.396c-9.681,0-17.744-7.729-17.815-17.41c-0.001-0.127-0.001-0.255,0-0.382
				c0.071-9.681,8.134-17.41,17.815-17.41h138.995C332.102,380.014,332.102,395.775,341.392,405.496z"/>
			<path style="fill:#E6ECF1;" d="M341.392,405.496H209.2c-9.681,0-17.745-7.729-17.815-17.41c-0.001-0.127-0.001-0.255,0-0.382
				c0.071-9.681,8.134-17.41,17.815-17.41h132.192C332.102,380.014,332.102,395.775,341.392,405.496z"/>
			<path style="fill:none;stroke:#E25287;stroke-width:5.6693;stroke-miterlimit:10;" d="M348.682,405.496H202.397
				c-9.674,0-17.734-7.717-17.815-17.391c-0.001-0.14-0.001-0.28,0-0.42c0.081-9.674,8.141-17.391,17.815-17.391h146.286"/>
			<g>
				<path style="fill:#25243E;" d="M193.898,378.872c0,0,8.916-0.046,22.289-0.114c13.374-0.027,31.205-0.062,49.036-0.098
					c17.831,0.035,35.663,0.071,49.036,0.098c13.374,0.069,22.289,0.115,22.289,0.115s-8.916,0.046-22.289,0.115
					c-13.374,0.027-31.205,0.062-49.036,0.098c-17.831-0.036-35.662-0.071-49.036-0.098
					C202.814,378.918,193.898,378.872,193.898,378.872z"/>
			</g>
			<g>
				<path style="fill:#25243E;" d="M200.298,383.361c0,0,8.408-0.046,21.019-0.114c12.612-0.027,29.427-0.062,46.243-0.098
					c16.816,0.035,33.631,0.071,46.243,0.098c12.612,0.069,21.019,0.114,21.019,0.114s-8.408,0.046-21.019,0.115
					c-12.612,0.027-29.427,0.062-46.243,0.098c-16.815-0.036-33.631-0.071-46.243-0.098
					C208.706,383.407,200.298,383.361,200.298,383.361z"/>
			</g>
			<g>
				<path style="fill:#25243E;" d="M191.457,387.895c0,0,8.936-0.046,22.341-0.114c13.405-0.027,31.278-0.062,49.151-0.098
					c17.873,0.036,35.746,0.071,49.151,0.098c13.405,0.069,22.341,0.115,22.341,0.115s-8.936,0.046-22.341,0.114
					c-13.405,0.027-31.278,0.062-49.151,0.098c-17.873-0.036-35.746-0.071-49.151-0.098
					C200.394,387.94,191.457,387.895,191.457,387.895z"/>
			</g>
			<g>
				<path style="fill:#25243E;" d="M198.391,392.695c0,0,8.53-0.046,21.325-0.114c12.795-0.027,29.855-0.062,46.914-0.098
					c17.06,0.035,34.12,0.071,46.914,0.098c12.795,0.069,21.325,0.114,21.325,0.114s-8.53,0.046-21.325,0.115
					c-12.795,0.027-29.855,0.062-46.914,0.098c-17.06-0.036-34.12-0.071-46.914-0.098
					C206.921,392.741,198.391,392.695,198.391,392.695z"/>
			</g>
			<g>
				<path style="fill:#25243E;" d="M198.391,396.695c0,0,8.613-0.046,21.532-0.114c12.919-0.027,30.145-0.062,47.371-0.098
					c17.226,0.036,34.452,0.071,47.371,0.098c12.919,0.069,21.532,0.115,21.532,0.115s-8.613,0.046-21.532,0.115
					c-12.919,0.027-30.145,0.062-47.371,0.098c-17.226-0.036-34.452-0.071-47.371-0.098
					C207.004,396.741,198.391,396.695,198.391,396.695z"/>
			</g>
			<g>
				<path style="fill:#25243E;" d="M335.2,394.199c0,0,2.977-0.048,7.442-0.119c2.232-0.019,4.837-0.041,7.628-0.065
					c2.791-0.009,5.767-0.019,8.744-0.028c2.977,0.01,5.953,0.019,8.744,0.028c2.79,0.024,5.395,0.046,7.628,0.065
					c4.465,0.072,7.442,0.12,7.442,0.12s-2.977,0.048-7.442,0.12c-2.233,0.019-4.837,0.041-7.628,0.065
					c-2.791,0.009-5.767,0.018-8.744,0.028c-2.977-0.01-5.953-0.019-8.744-0.028c-2.791-0.024-5.395-0.046-7.628-0.065
					C338.177,394.247,335.2,394.199,335.2,394.199z"/>
			</g>
			<g>
				<path style="fill:#25243E;" d="M334.565,385.215c0,0,2.969-0.048,7.422-0.119c2.227-0.019,4.824-0.041,7.607-0.065
					c2.783-0.009,5.752-0.019,8.72-0.028c2.969,0.01,5.937,0.019,8.72,0.028c2.783,0.024,5.381,0.046,7.607,0.065
					c4.453,0.072,7.422,0.12,7.422,0.12s-2.969,0.048-7.422,0.12c-2.227,0.019-4.824,0.041-7.607,0.065
					c-2.783,0.009-5.752,0.018-8.72,0.028c-2.969-0.01-5.937-0.019-8.72-0.028c-2.783-0.024-5.381-0.046-7.607-0.065
					C337.534,385.263,334.565,385.215,334.565,385.215z"/>
			</g>
			<g>
				<path style="fill:#25243E;" d="M337.885,374.963c0,0,2.959-0.048,7.399-0.119c2.22-0.019,4.809-0.041,7.583-0.065
					c2.775-0.009,5.734-0.019,8.693-0.028c2.959,0.009,5.919,0.019,8.693,0.028c2.775,0.024,5.364,0.046,7.584,0.065
					c4.439,0.072,7.399,0.12,7.399,0.12s-2.959,0.048-7.399,0.12c-2.22,0.019-4.809,0.041-7.584,0.065
					c-2.774,0.009-5.734,0.018-8.693,0.028c-2.959-0.01-5.919-0.019-8.693-0.028c-2.774-0.024-5.364-0.046-7.583-0.065
					C340.845,375.01,337.885,374.963,337.885,374.963z"/>
			</g>
			<g>
				<path style="fill:#25243E;" d="M352.549,377.361c0,0,1.967-0.048,4.919-0.119c1.476-0.019,3.197-0.041,5.042-0.065
					c1.845-0.009,3.812-0.019,5.779-0.028c1.967,0.01,3.935,0.019,5.779,0.028c1.845,0.024,3.566,0.046,5.042,0.065
					c2.951,0.072,4.919,0.12,4.919,0.12s-1.967,0.048-4.919,0.12c-1.476,0.019-3.197,0.041-5.042,0.065
					c-1.844,0.009-3.812,0.018-5.779,0.028c-1.967-0.01-3.935-0.019-5.779-0.028c-1.844-0.024-3.566-0.046-5.042-0.065
					C354.517,377.408,352.549,377.361,352.549,377.361z"/>
			</g>
			<g>
				<path style="fill:#25243E;" d="M334.441,390.028c0,0,2.332-0.048,5.83-0.119c1.749-0.019,3.789-0.041,5.975-0.065
					c2.186-0.009,4.518-0.019,6.85-0.028c2.332,0.009,4.664,0.019,6.85,0.028c2.186,0.024,4.227,0.046,5.975,0.065
					c3.498,0.072,5.83,0.12,5.83,0.12s-2.332,0.048-5.83,0.12c-1.749,0.019-3.789,0.041-5.975,0.065
					c-2.186,0.009-4.518,0.018-6.85,0.028c-2.332-0.01-4.664-0.019-6.85-0.028c-2.186-0.024-4.227-0.046-5.975-0.065
					C336.773,390.076,334.441,390.028,334.441,390.028z"/>
			</g>
			<g>
				<path style="fill:#25243E;" d="M351.749,399.496c0,0,2.065-0.048,5.162-0.119c1.548-0.019,3.355-0.041,5.291-0.065
					c1.936-0.009,4-0.019,6.065-0.028c2.065,0.01,4.129,0.019,6.065,0.028c1.936,0.024,3.742,0.046,5.291,0.065
					c3.097,0.072,5.162,0.12,5.162,0.12s-2.065,0.048-5.162,0.12c-1.549,0.019-3.355,0.041-5.291,0.065
					c-1.936,0.009-4,0.018-6.065,0.028c-2.065-0.01-4.129-0.019-6.065-0.028c-1.936-0.024-3.742-0.046-5.291-0.065
					C353.814,399.543,351.749,399.496,351.749,399.496z"/>
			</g>
		</g>
		<g>
			<path style="fill:#E6ECF1;" d="M174.695,411.392c62.431,0,124.861,0,187.292,0c11.611,12.15,11.611,31.85,0,44
				c-62.431,0-124.861,0-187.292,0C186.306,443.241,186.306,423.542,174.695,411.392z"/>
			<path style="fill:none;stroke:#668BF9;stroke-width:5.6693;stroke-miterlimit:10;" d="M165.583,411.392c65.333,0,130.667,0,196,0
				c12.15,12.15,12.15,31.85,0,44c-65.333,0-130.667,0-196,0"/>
			<path style="fill:#E6ECF1;" d="M234.223,411.392h173.732c12.101,0,22.179,9.661,22.267,21.761c0.001,0.159,0.001,0.319,0,0.478
				c-0.088,12.101-10.167,21.761-22.267,21.761H234.223C245.834,443.241,245.834,423.542,234.223,411.392z"/>
			<path style="fill:#FFFFFF;" d="M234.223,411.392h165.228c12.101,0,22.179,9.661,22.267,21.761c0.001,0.159,0.001,0.319,0,0.478
				c-0.088,12.101-10.166,21.761-22.267,21.761H234.223C245.834,443.241,245.834,423.542,234.223,411.392z"/>
			<path style="fill:none;stroke:#5978D6;stroke-width:5.6693;stroke-miterlimit:10;" d="M225.11,411.392h182.844
				c12.092,0,22.166,9.646,22.267,21.738c0.001,0.175,0.001,0.35,0,0.525c-0.101,12.091-10.176,21.737-22.267,21.737H225.11"/>
			<g>
				<path style="fill:#25243E;" d="M418.577,444.67c0,0-11.144,0.046-27.859,0.114c-16.716,0.027-39.003,0.062-61.291,0.098
					c-22.288-0.036-44.575-0.071-61.291-0.098c-16.716-0.069-27.859-0.114-27.859-0.114s11.144-0.046,27.859-0.114
					c16.716-0.027,39.003-0.062,61.291-0.098c22.287,0.036,44.575,0.071,61.291,0.098
					C407.433,444.624,418.577,444.67,418.577,444.67z"/>
			</g>
			<g>
				<path style="fill:#25243E;" d="M410.577,439.058c0,0-10.509,0.046-26.272,0.114c-15.763,0.027-36.781,0.062-57.799,0.098
					c-21.018-0.035-42.036-0.071-57.799-0.098c-15.764-0.069-26.273-0.115-26.273-0.115s10.509-0.046,26.273-0.115
					c15.763-0.027,36.781-0.062,57.799-0.098c21.018,0.036,42.036,0.071,57.799,0.098
					C400.068,439.013,410.577,439.058,410.577,439.058z"/>
			</g>
			<g>
				<path style="fill:#25243E;" d="M421.628,433.392c0,0-11.17,0.046-27.925,0.114c-16.755,0.027-39.094,0.062-61.434,0.098
					c-22.34-0.036-44.679-0.071-61.434-0.098c-16.755-0.069-27.924-0.115-27.924-0.115s11.17-0.046,27.924-0.114
					c16.755-0.027,39.094-0.062,61.434-0.098c22.34,0.036,44.679,0.071,61.434,0.098
					C410.458,433.346,421.628,433.392,421.628,433.392z"/>
			</g>
			<g>
				<path style="fill:#25243E;" d="M412.961,427.392c0,0-10.662,0.046-26.654,0.114c-15.992,0.027-37.316,0.062-58.639,0.098
					c-21.323-0.036-42.646-0.071-58.639-0.098c-15.992-0.069-26.654-0.115-26.654-0.115s10.662-0.046,26.654-0.114
					c15.993-0.027,37.316-0.062,58.639-0.098c21.323,0.036,42.646,0.071,58.639,0.098
					C402.299,427.346,412.961,427.392,412.961,427.392z"/>
			</g>
			<g>
				<path style="fill:#25243E;" d="M412.961,422.392c0,0-10.766,0.046-26.914,0.114c-16.148,0.027-37.679,0.062-59.21,0.098
					c-21.531-0.036-43.062-0.071-59.21-0.098c-16.148-0.069-26.914-0.115-26.914-0.115s10.766-0.046,26.914-0.114
					c16.148-0.027,37.679-0.062,59.21-0.098c21.531,0.036,43.062,0.071,59.21,0.098
					C402.195,422.346,412.961,422.392,412.961,422.392z"/>
			</g>
			<g>
				<path style="fill:#25243E;" d="M241.962,425.512c0,0-3.721,0.046-9.301,0.114c-5.581,0.027-13.022,0.062-20.463,0.098
					c-7.441-0.036-14.882-0.071-20.463-0.098c-5.581-0.069-9.301-0.115-9.301-0.115s3.721-0.046,9.301-0.114
					c5.581-0.027,13.022-0.062,20.463-0.098c7.441,0.036,14.882,0.071,20.463,0.098
					C238.241,425.466,241.962,425.512,241.962,425.512z"/>
			</g>
			<g>
				<path style="fill:#25243E;" d="M242.756,436.741c0,0-3.711,0.046-9.277,0.114c-5.566,0.027-12.987,0.062-20.408,0.098
					c-7.421-0.035-14.842-0.071-20.408-0.098c-5.566-0.069-9.276-0.115-9.276-0.115s3.711-0.046,9.276-0.115
					c5.566-0.027,12.987-0.062,20.408-0.098c7.421,0.036,14.842,0.071,20.408,0.098
					C239.045,436.695,242.756,436.741,242.756,436.741z"/>
			</g>
			<g>
				<path style="fill:#25243E;" d="M238.606,449.556c0,0-3.699,0.046-9.247,0.114c-5.549,0.027-12.947,0.062-20.345,0.098
					c-7.398-0.036-14.796-0.071-20.345-0.098c-5.549-0.069-9.248-0.114-9.248-0.114s3.699-0.046,9.248-0.114
					c5.548-0.027,12.947-0.062,20.345-0.098c7.398,0.036,14.796,0.071,20.345,0.098C234.907,449.51,238.606,449.556,238.606,449.556
					z"/>
			</g>
			<g>
				<path style="fill:#25243E;" d="M220.277,446.558c0,0-2.459,0.048-6.148,0.119c-1.844,0.019-3.996,0.041-6.302,0.065
					c-2.305,0.009-4.765,0.019-7.224,0.028c-2.459-0.01-4.918-0.019-7.224-0.028c-2.306-0.024-4.457-0.046-6.302-0.065
					c-3.689-0.072-6.148-0.12-6.148-0.12s2.459-0.048,6.148-0.12c1.844-0.019,3.996-0.041,6.302-0.065
					c2.305-0.009,4.765-0.018,7.224-0.028c2.459,0.01,4.918,0.019,7.224,0.028c2.305,0.024,4.457,0.046,6.302,0.065
					C217.818,446.511,220.277,446.558,220.277,446.558z"/>
			</g>
			<g>
				<path style="fill:#25243E;" d="M242.911,430.725c0,0-2.915,0.048-7.286,0.119c-2.186,0.019-4.736,0.041-7.469,0.065
					c-2.732,0.009-5.647,0.019-8.562,0.028c-2.915-0.01-5.829-0.019-8.562-0.028c-2.732-0.024-5.283-0.046-7.469-0.065
					c-4.372-0.072-7.286-0.12-7.286-0.12s2.915-0.048,7.286-0.12c2.186-0.019,4.736-0.041,7.469-0.065
					c2.732-0.009,5.647-0.019,8.562-0.028c2.915,0.01,5.829,0.019,8.562,0.028c2.732,0.024,5.283,0.046,7.469,0.065
					C239.996,430.677,242.911,430.725,242.911,430.725z"/>
			</g>
			<g>
				<path style="fill:#25243E;" d="M221.277,418.892c0,0-2.581,0.048-6.452,0.119c-1.936,0.019-4.194,0.041-6.613,0.065
					c-2.419,0.009-5,0.019-7.581,0.028c-2.581-0.009-5.161-0.019-7.581-0.028c-2.419-0.024-4.678-0.046-6.613-0.065
					c-3.871-0.072-6.452-0.12-6.452-0.12s2.581-0.048,6.452-0.12c1.936-0.019,4.194-0.041,6.613-0.065
					c2.419-0.009,5-0.018,7.581-0.028c2.581,0.01,5.161,0.019,7.581,0.028c2.419,0.024,4.678,0.046,6.613,0.065
					C218.696,418.844,221.277,418.892,221.277,418.892z"/>
			</g>
		</g>
		<g>
			<g>
				<polygon style="fill:#25243E;" points="128.152,261.664 150.217,217.098 172.344,172.563 172.534,172.181 172.724,172.563 
					194.852,217.098 216.916,261.664 194.598,217.224 172.344,172.752 172.724,172.752 150.469,217.223 				"/>
			</g>
			<g>
				<path style="fill:#25243E;" d="M158.006,261.664c0,0,0.863-5.57,2.157-13.926c1.336-8.349,3.116-19.48,4.897-30.612
					c1.851-11.12,3.702-22.24,5.09-30.58c1.43-8.333,2.383-13.889,2.383-13.889s-0.863,5.57-2.157,13.926
					c-1.336,8.349-3.117,19.48-4.898,30.612c-1.851,11.12-3.702,22.24-5.091,30.58C158.959,256.108,158.006,261.664,158.006,261.664
					z"/>
			</g>
			<g>
				<polygon style="fill:#25243E;" points="443.36,261.664 421.043,217.223 398.788,172.752 399.168,172.752 376.913,217.224 
					354.596,261.664 376.66,217.098 398.788,172.563 398.978,172.181 399.168,172.563 421.295,217.098 				"/>
			</g>
			<g>
				<path style="fill:#25243E;" d="M413.506,261.664c0,0-0.953-5.556-2.383-13.889c-1.388-8.34-3.239-19.46-5.091-30.58
					c-1.781-11.132-3.562-22.263-4.897-30.612c-1.294-8.355-2.157-13.926-2.157-13.926s0.953,5.555,2.383,13.889
					c1.388,8.34,3.239,19.46,5.09,30.58c1.781,11.132,3.562,22.263,4.897,30.612C412.643,256.094,413.506,261.664,413.506,261.664z"
					/>
			</g>
			<polygon style="fill:#FAB734;" points="291.64,105.075 279.871,105.075 274.865,249.007 296.646,249.007 			"/>
			<polygon style="fill:#F1D17C;" points="291.64,257.249 279.871,257.249 274.865,249.007 296.646,249.007 			"/>
			<polygon style="fill:#FAB734;" points="291.64,257.249 279.871,257.249 264.269,279.324 307.243,279.324 			"/>
			<polygon style="fill:#F1D17C;" points="291.64,300.517 279.871,300.517 264.269,279.324 307.243,279.324 			"/>
			<path style="fill:#F1D17C;" d="M324.609,346.433c-4.622-2.226-11.173-6.035-17.66-12.362
				c-7.086-6.911-11.221-14.024-13.54-18.838h-15.306c-2.319,4.814-6.454,11.926-13.54,18.838
				c-6.487,6.328-13.038,10.136-17.66,12.362c-0.907,2.334-9.124,15.894-22.374,15.894v5.004h122.454v-5.004
				C333.733,362.328,325.516,348.767,324.609,346.433z"/>
			<g>
				<g>
					<path style="fill:none;stroke:#668BF9;stroke-width:1.4173;stroke-miterlimit:10;" d="M172.534,172.658
						c-2.949,0-5.34-5.238-5.34-11.7s2.391-11.7,5.34-11.7"/>
					<polygon style="fill:#FAB734;" points="194.523,282.856 150.545,282.856 128.152,261.664 216.916,261.664 					"/>
					<path style="fill:#FAB734;" d="M162.691,143.977c-1.605,0.863-4.356,2.71-3.913,4.87c0.437,2.13,3.54,2.68,5.303,2.87
						c4.897,0.529,9.864-0.945,14.452-2.483c0.148-0.05,0.113-0.038-0.104,0.035c8.93-2.825,16.308-9.527,23.66-15.027
						c9.482-7.094,19.843-12.72,31.135-16.359c11.085-3.572,22.499-5.42,34.046-6.706c5.182-0.577,10.39-0.814,15.594-1.126
						c3.4-0.204,6.606,0.412,8.712,3.39c2.456,3.474,1.791,8.404-1.479,11.116c-2.432,2.017-5.259,1.897-8.197,1.849
						c-10.844-0.177-21.823-0.3-32.581,1.308c-11.02,1.647-21.769,4.239-31.79,9.262c-10.268,5.147-19.183,12.615-29.718,17.252
						c-8.618,3.794-21.43,7.149-30.034,2.111c-5.166-3.025-6.247-9.326-2.024-13.686c1.26-1.301,3.394-3.047,5.269-3.321
						C163.69,138.942,165.09,142.599,162.691,143.977z"/>
					<path style="fill:none;stroke:#668BF9;stroke-width:1.4173;stroke-miterlimit:10;" d="M172.534,149.258
						c2.949,0,5.34,5.238,5.34,11.7s-2.391,11.7-5.34,11.7"/>
					<g>
						<path style="fill:#25243E;" d="M133.589,266.809c0,0,4.865-0.046,12.162-0.114c7.298-0.027,17.027-0.062,26.757-0.098
							c9.73,0.035,19.46,0.071,26.757,0.098c7.298,0.069,12.162,0.114,12.162,0.114s-4.865,0.046-12.162,0.115
							c-7.298,0.027-17.027,0.062-26.757,0.098c-9.73-0.036-19.46-0.071-26.757-0.098
							C138.454,266.855,133.589,266.809,133.589,266.809z"/>
					</g>
				</g>
				<g>
					<path style="fill:none;stroke:#668BF9;stroke-width:1.4173;stroke-miterlimit:10;" d="M398.978,172.658
						c2.949,0,5.34-5.238,5.34-11.7s-2.391-11.7-5.34-11.7"/>
					<polygon style="fill:#FAB734;" points="376.989,282.856 420.967,282.856 443.36,261.664 354.596,261.664 					"/>
					<path style="fill:#FAB734;" d="M408.821,143.977c1.605,0.863,4.356,2.71,3.913,4.87c-0.437,2.13-3.54,2.68-5.302,2.87
						c-4.897,0.529-9.864-0.945-14.452-2.483c-0.148-0.05-0.113-0.038,0.103,0.035c-8.93-2.825-16.308-9.527-23.66-15.027
						c-9.482-7.094-19.843-12.72-31.135-16.359c-11.085-3.572-22.499-5.42-34.046-6.706c-5.182-0.577-10.39-0.814-15.594-1.126
						c-3.4-0.204-6.606,0.412-8.712,3.39c-2.456,3.474-1.791,8.404,1.48,11.116c2.432,2.017,5.259,1.897,8.197,1.849
						c10.844-0.177,21.823-0.3,32.581,1.308c11.02,1.647,21.769,4.239,31.79,9.262c10.268,5.147,19.183,12.615,29.718,17.252
						c8.618,3.794,21.43,7.149,30.034,2.111c5.166-3.025,6.247-9.326,2.024-13.686c-1.26-1.301-3.394-3.047-5.269-3.321
						C407.822,138.942,406.422,142.599,408.821,143.977z"/>
					<path style="fill:none;stroke:#668BF9;stroke-width:1.4173;stroke-miterlimit:10;" d="M398.978,149.258
						c-2.949,0-5.34,5.238-5.34,11.7s2.391,11.7,5.34,11.7"/>
					<g>
						<path style="fill:#25243E;" d="M437.923,266.809c0,0-4.865,0.046-12.162,0.114c-7.297,0.027-17.027,0.062-26.757,0.098
							c-9.73-0.036-19.46-0.071-26.757-0.098c-7.297-0.069-12.162-0.115-12.162-0.115s4.865-0.046,12.162-0.114
							c7.297-0.027,17.027-0.062,26.757-0.098c9.73,0.036,19.46,0.071,26.757,0.098
							C433.058,266.764,437.923,266.809,437.923,266.809z"/>
					</g>
				</g>
			</g>
			<g>
				<path style="fill:#25243E;" d="M274.865,249.007c0,0,1.361-0.062,3.403-0.119c1.021-0.019,2.212-0.041,3.488-0.065
					c1.276-0.009,2.638-0.019,3.999-0.028c1.361,0.01,2.723,0.019,3.999,0.028c1.276,0.024,2.467,0.046,3.488,0.065
					c2.042,0.057,3.403,0.12,3.403,0.12s-1.361,0.063-3.403,0.12c-1.021,0.019-2.212,0.041-3.488,0.065
					c-1.276,0.009-2.638,0.018-3.999,0.028c-1.361-0.01-2.723-0.019-3.999-0.028c-1.276-0.024-2.467-0.046-3.488-0.065
					C276.227,249.069,274.865,249.007,274.865,249.007z"/>
			</g>
			<g>
				<path style="fill:#25243E;" d="M279.871,257.249c0,0,0.736-0.068,1.839-0.119c0.552-0.017,1.195-0.057,1.885-0.065
					c0.69-0.009,1.425-0.019,2.161-0.028c0.736,0.01,1.471,0.019,2.161,0.028c0.69,0.007,1.333,0.047,1.885,0.065
					c1.103,0.051,1.839,0.12,1.839,0.12s-0.736,0.069-1.839,0.12c-0.552,0.017-1.195,0.058-1.885,0.065
					c-0.69,0.009-1.425,0.018-2.161,0.028c-0.736-0.01-1.471-0.019-2.161-0.028c-0.689-0.008-1.333-0.047-1.885-0.065
					C280.607,257.316,279.871,257.249,279.871,257.249z"/>
			</g>
			<g>
				<path style="fill:#25243E;" d="M264.269,279.324c0,0,2.686-0.048,6.715-0.119c2.014-0.019,4.365-0.041,6.883-0.065
					c2.518-0.009,5.204-0.019,7.89-0.028c2.686,0.009,5.372,0.019,7.89,0.028c2.518,0.024,4.868,0.046,6.882,0.065
					c4.029,0.072,6.715,0.12,6.715,0.12s-2.686,0.048-6.715,0.12c-2.014,0.019-4.364,0.041-6.882,0.065
					c-2.518,0.009-5.204,0.018-7.89,0.028c-2.686-0.01-5.372-0.019-7.89-0.028c-2.518-0.024-4.868-0.046-6.883-0.065
					C266.955,279.372,264.269,279.324,264.269,279.324z"/>
			</g>
			<g>
				<path style="fill:#25243E;" d="M246.903,346.433c0,0,4.857-0.046,12.141-0.114c7.285-0.027,16.998-0.062,26.711-0.098
					c9.713,0.035,19.426,0.071,26.711,0.098c7.285,0.069,12.142,0.114,12.142,0.114s-4.857,0.046-12.142,0.115
					c-7.285,0.027-16.998,0.062-26.711,0.098c-9.713-0.036-19.426-0.071-26.711-0.098
					C251.76,346.479,246.903,346.433,246.903,346.433z"/>
			</g>
			<g>
				<path style="fill:#25243E;" d="M224.529,362.328c0,0,7.653-0.046,19.133-0.114c11.48-0.027,26.787-0.062,42.094-0.098
					c15.307,0.036,30.614,0.071,42.094,0.098c11.48,0.069,19.134,0.115,19.134,0.115s-7.653,0.046-19.134,0.114
					c-11.48,0.027-26.787,0.062-42.094,0.098c-15.307-0.036-30.614-0.071-42.094-0.098
					C232.182,362.373,224.529,362.328,224.529,362.328z"/>
			</g>
			<ellipse style="fill:#FAB734;" cx="285.756" cy="309.199" rx="13.687" ry="10.449"/>
			<g>
				<path style="fill:#25243E;" d="M279.7,110.016c0,0,0.757-0.068,1.893-0.119c0.568-0.018,1.23-0.057,1.94-0.065
					c0.71-0.009,1.467-0.019,2.224-0.028c0.757,0.009,1.514,0.019,2.224,0.028c0.71,0.007,1.372,0.047,1.94,0.065
					c1.136,0.051,1.893,0.12,1.893,0.12s-0.757,0.069-1.893,0.12c-0.568,0.017-1.23,0.058-1.94,0.065
					c-0.71,0.009-1.467,0.019-2.224,0.028c-0.757-0.01-1.514-0.019-2.224-0.028c-0.71-0.008-1.372-0.047-1.94-0.065
					C280.457,110.084,279.7,110.016,279.7,110.016z"/>
			</g>
			<g>
				<path style="fill:#25243E;" d="M279.7,126.824c0,0,0.757-0.068,1.893-0.119c0.568-0.018,1.23-0.057,1.94-0.065
					c0.71-0.009,1.467-0.019,2.224-0.028c0.757,0.009,1.514,0.019,2.224,0.028c0.71,0.007,1.372,0.047,1.94,0.065
					c1.136,0.051,1.893,0.12,1.893,0.12s-0.757,0.068-1.893,0.12c-0.568,0.017-1.23,0.058-1.94,0.065
					c-0.71,0.009-1.467,0.018-2.224,0.028c-0.757-0.01-1.514-0.019-2.224-0.028c-0.71-0.008-1.372-0.047-1.94-0.065
					C280.457,126.892,279.7,126.824,279.7,126.824z"/>
			</g>
			
				<ellipse transform="matrix(0.2287 -0.9735 0.9735 0.2287 126.1398 352.8729)" style="fill:#F1D17C;" cx="285.756" cy="96.834" rx="10.891" ry="10.891"/>
			<circle style="fill:#F1D17C;" cx="285.756" cy="118.235" r="4.463"/>
		</g>
		<g>
			<rect x="421.245" y="305.028" style="fill:#E25287;" width="4.189" height="9.865"/>
			
				<ellipse transform="matrix(0.7791 -0.6269 0.6269 0.7791 -88.9097 329.6856)" style="fill:#E25287;" cx="423.34" cy="290.998" rx="18.744" ry="18.744"/>
			
				<ellipse transform="matrix(0.1719 -0.9851 0.9851 0.1719 63.8908 658.0029)" style="fill:#FFFFFF;" cx="423.34" cy="290.998" rx="15.4" ry="15.4"/>
			<rect x="419.52" y="313.175" style="fill:#E25287;" width="7.639" height="23.99"/>
		</g>
		<g>
			<rect x="104.692" y="82.856" style="fill:#E25287;" width="3.338" height="7.861"/>
			<circle style="fill:#E25287;" cx="106.361" cy="71.676" r="14.937"/>
			<circle style="fill:#FFFFFF;" cx="106.361" cy="71.676" r="12.272"/>
			<rect x="103.318" y="89.349" style="fill:#E25287;" width="6.088" height="19.118"/>
		</g>
		<g>
			<rect x="369.026" y="89.603" style="fill:#FAB734;" width="3.338" height="7.861"/>
			<circle style="fill:#FAB734;" cx="370.695" cy="78.422" r="14.937"/>
			<circle style="fill:#FFFFFF;" cx="370.695" cy="78.422" r="12.272"/>
			<rect x="367.652" y="96.096" style="fill:#FAB734;" width="6.088" height="19.118"/>
		</g>
		<g>
			<rect x="345.44" y="292.652" style="fill:#FFFFFF;" width="42.236" height="60.07"/>
			<g>
				<path style="fill:#25243E;" d="M382.473,348.065l-32.207,0.125l-0.125,0l0-0.125l-0.087-50.831l0-0.213l0.213,0l32.207,0.055
					l0.158,0l0,0.157l-0.044,25.415L382.473,348.065z M382.473,348.065l-0.114-25.415l-0.044-25.415l0.157,0.157l-32.207,0.055
					l0.212-0.212l-0.087,50.831l-0.125-0.125L382.473,348.065z"/>
			</g>
			<polygon style="fill:#E25287;" points="383.609,353.796 379.693,353.323 377.051,356.251 371.696,341.947 378.253,339.492 			"/>
			<path style="fill:#E25287;" d="M380.482,338.657c1.139,3.042-0.404,6.431-3.446,7.57c-3.042,1.139-6.431-0.404-7.57-3.446
				c-1.139-3.042,0.404-6.431,3.446-7.57C375.954,334.073,379.344,335.615,380.482,338.657z"/>
			<polygon style="fill:#E25287;" points="372.027,356.195 369.593,353.091 365.654,353.294 371.982,339.393 378.355,342.293 			"/>
			<g>
				<path style="fill:#25243E;" d="M377.332,304.656c-3.787,0.062-7.575,0.124-11.362,0.147l-11.362,0.055l-0.202,0.001
					l-0.001-0.203l-0.01-3.501l-0.001-0.213l0.213,0.001c7.575,0.016,15.15,0.03,22.724,0.157l0.057,0.001l-0.001,0.055
					L377.332,304.656z M377.332,304.656l-0.056-3.501l0.055,0.055c-7.575,0.127-15.15,0.141-22.724,0.157l0.212-0.212l-0.01,3.501
					l-0.202-0.202l11.362,0.055C369.757,304.532,373.544,304.594,377.332,304.656z"/>
			</g>
			<g>
				<path style="fill:#25243E;" d="M354.607,307.316c0,0,1.42-0.062,3.551-0.119c1.065-0.019,2.308-0.041,3.639-0.065
					c1.332-0.009,2.752-0.019,4.172-0.028c1.42,0.009,2.841,0.019,4.172,0.028c1.331,0.024,2.574,0.046,3.639,0.065
					c2.13,0.057,3.551,0.12,3.551,0.12s-1.42,0.062-3.551,0.12c-1.065,0.019-2.308,0.041-3.639,0.065
					c-1.331,0.009-2.752,0.018-4.172,0.028c-1.42-0.01-2.84-0.019-4.172-0.028c-1.332-0.024-2.574-0.046-3.639-0.065
					C356.027,307.378,354.607,307.316,354.607,307.316z"/>
			</g>
			<g>
				<path style="fill:#25243E;" d="M354.607,309.557c0,0,1.42-0.062,3.551-0.119c1.065-0.019,2.308-0.041,3.639-0.065
					c1.332-0.009,2.752-0.019,4.172-0.028c1.42,0.009,2.841,0.019,4.172,0.028c1.331,0.024,2.574,0.046,3.639,0.065
					c2.13,0.057,3.551,0.12,3.551,0.12s-1.42,0.062-3.551,0.12c-1.065,0.019-2.308,0.041-3.639,0.065
					c-1.331,0.009-2.752,0.018-4.172,0.028c-1.42-0.01-2.84-0.019-4.172-0.028c-1.332-0.024-2.574-0.046-3.639-0.065
					C356.027,309.619,354.607,309.557,354.607,309.557z"/>
			</g>
			<g>
				<path style="fill:#25243E;" d="M354.607,311.797c0,0,1.42-0.062,3.551-0.119c1.065-0.019,2.308-0.041,3.639-0.065
					c1.332-0.009,2.752-0.019,4.172-0.028c1.42,0.009,2.841,0.019,4.172,0.028c1.331,0.024,2.574,0.046,3.639,0.065
					c2.13,0.057,3.551,0.12,3.551,0.12s-1.42,0.062-3.551,0.12c-1.065,0.019-2.308,0.041-3.639,0.065
					c-1.331,0.009-2.752,0.018-4.172,0.028c-1.42-0.01-2.84-0.019-4.172-0.028c-1.332-0.024-2.574-0.046-3.639-0.065
					C356.027,311.859,354.607,311.797,354.607,311.797z"/>
			</g>
			<g>
				<path style="fill:#25243E;" d="M354.607,314.038c0,0,1.42-0.062,3.551-0.119c1.065-0.019,2.308-0.041,3.639-0.065
					c1.332-0.009,2.752-0.019,4.172-0.028c1.42,0.01,2.841,0.019,4.172,0.028c1.331,0.024,2.574,0.046,3.639,0.065
					c2.13,0.057,3.551,0.12,3.551,0.12s-1.42,0.062-3.551,0.12c-1.065,0.019-2.308,0.041-3.639,0.065
					c-1.331,0.009-2.752,0.018-4.172,0.028c-1.42-0.01-2.84-0.019-4.172-0.028c-1.332-0.024-2.574-0.046-3.639-0.065
					C356.027,314.1,354.607,314.038,354.607,314.038z"/>
			</g>
			<g>
				<path style="fill:#25243E;" d="M354.607,316.278c0,0,1.42-0.062,3.551-0.119c1.065-0.019,2.308-0.041,3.639-0.065
					c1.332-0.009,2.752-0.019,4.172-0.028c1.42,0.009,2.841,0.019,4.172,0.028c1.331,0.024,2.574,0.046,3.639,0.065
					c2.13,0.057,3.551,0.12,3.551,0.12s-1.42,0.062-3.551,0.12c-1.065,0.019-2.308,0.041-3.639,0.065
					c-1.331,0.009-2.752,0.018-4.172,0.028c-1.42-0.01-2.84-0.019-4.172-0.028c-1.332-0.024-2.574-0.046-3.639-0.065
					C356.027,316.34,354.607,316.278,354.607,316.278z"/>
			</g>
			<g>
				<path style="fill:#25243E;" d="M354.607,318.519c0,0,1.42-0.062,3.551-0.119c1.065-0.019,2.308-0.041,3.639-0.065
					c1.332-0.009,2.752-0.019,4.172-0.028c1.42,0.009,2.841,0.019,4.172,0.028c1.331,0.024,2.574,0.046,3.639,0.065
					c2.13,0.057,3.551,0.12,3.551,0.12s-1.42,0.062-3.551,0.12c-1.065,0.019-2.308,0.041-3.639,0.065
					c-1.331,0.009-2.752,0.018-4.172,0.028c-1.42-0.01-2.84-0.019-4.172-0.028c-1.332-0.024-2.574-0.046-3.639-0.065
					C356.027,318.581,354.607,318.519,354.607,318.519z"/>
			</g>
			<g>
				<path style="fill:#25243E;" d="M354.607,320.759c0,0,1.42-0.062,3.551-0.119c1.065-0.019,2.308-0.041,3.639-0.065
					c1.332-0.009,2.752-0.019,4.172-0.028c1.42,0.01,2.841,0.019,4.172,0.028c1.331,0.024,2.574,0.046,3.639,0.065
					c2.13,0.057,3.551,0.12,3.551,0.12s-1.42,0.062-3.551,0.12c-1.065,0.019-2.308,0.041-3.639,0.065
					c-1.331,0.009-2.752,0.019-4.172,0.028c-1.42-0.01-2.84-0.019-4.172-0.028c-1.332-0.024-2.574-0.046-3.639-0.065
					C356.027,320.821,354.607,320.759,354.607,320.759z"/>
			</g>
			<g>
				<path style="fill:#25243E;" d="M354.607,323c0,0,1.42-0.062,3.551-0.119c1.065-0.019,2.308-0.041,3.639-0.065
					c1.332-0.009,2.752-0.019,4.172-0.028c1.42,0.01,2.841,0.019,4.172,0.028c1.331,0.024,2.574,0.046,3.639,0.065
					c2.13,0.057,3.551,0.12,3.551,0.12s-1.42,0.062-3.551,0.12c-1.065,0.019-2.308,0.041-3.639,0.065
					c-1.331,0.009-2.752,0.018-4.172,0.028c-1.42-0.01-2.84-0.019-4.172-0.028c-1.332-0.024-2.574-0.046-3.639-0.065
					C356.027,323.062,354.607,323,354.607,323z"/>
			</g>
			<g>
				<path style="fill:#25243E;" d="M354.607,325.24c0,0,1.42-0.062,3.551-0.119c1.065-0.019,2.308-0.041,3.639-0.065
					c1.332-0.009,2.752-0.019,4.172-0.028c1.42,0.009,2.841,0.019,4.172,0.028c1.331,0.024,2.574,0.046,3.639,0.065
					c2.13,0.057,3.551,0.12,3.551,0.12s-1.42,0.062-3.551,0.12c-1.065,0.019-2.308,0.041-3.639,0.065
					c-1.331,0.009-2.752,0.018-4.172,0.028c-1.42-0.01-2.84-0.019-4.172-0.028c-1.332-0.024-2.574-0.046-3.639-0.065
					C356.027,325.302,354.607,325.24,354.607,325.24z"/>
			</g>
			<g>
				<path style="fill:#25243E;" d="M354.607,327.481c0,0,1.42-0.062,3.551-0.119c1.065-0.019,2.308-0.041,3.639-0.065
					c1.332-0.009,2.752-0.019,4.172-0.028c1.42,0.01,2.841,0.019,4.172,0.028c1.331,0.024,2.574,0.046,3.639,0.065
					c2.13,0.057,3.551,0.12,3.551,0.12s-1.42,0.062-3.551,0.12c-1.065,0.019-2.308,0.041-3.639,0.065
					c-1.331,0.009-2.752,0.018-4.172,0.028c-1.42-0.01-2.84-0.019-4.172-0.028c-1.332-0.024-2.574-0.046-3.639-0.065
					C356.027,327.543,354.607,327.481,354.607,327.481z"/>
			</g>
			<g>
				<path style="fill:#25243E;" d="M379.912,343.916c0,0-0.081,0.166-0.261,0.438c-0.185,0.266-0.463,0.648-0.889,1.022
					c-0.425,0.368-0.976,0.757-1.641,1.016c-0.336,0.126-0.671,0.227-1.055,0.309c-0.37,0.065-0.749,0.109-1.132,0.111
					c-0.764-0.014-1.52-0.182-2.179-0.453c-0.663-0.267-1.207-0.665-1.627-1.038c-0.429-0.371-0.689-0.768-0.879-1.029
					c-0.162-0.281-0.255-0.442-0.255-0.442s0.117,0.143,0.321,0.392c0.216,0.237,0.532,0.569,0.967,0.895
					c0.852,0.66,2.222,1.267,3.655,1.25c0.356,0.008,0.71-0.024,1.057-0.075c0.33-0.06,0.681-0.154,0.996-0.264
					c0.629-0.229,1.189-0.528,1.621-0.857c0.431-0.328,0.764-0.644,0.974-0.887C379.798,344.064,379.912,343.916,379.912,343.916z"
					/>
			</g>
			<g>
				<path style="fill:#25243E;" d="M374.772,350.164c0,0,0.043-0.262,0.154-0.635c0.063-0.183,0.119-0.404,0.21-0.628
					c0.09-0.224,0.186-0.462,0.283-0.701c0.114-0.231,0.227-0.461,0.334-0.678c0.105-0.217,0.234-0.406,0.328-0.575
					c0.204-0.331,0.372-0.538,0.372-0.538s-0.042,0.262-0.153,0.635c-0.063,0.183-0.118,0.405-0.21,0.628
					c-0.09,0.224-0.187,0.462-0.283,0.7c-0.114,0.231-0.227,0.461-0.334,0.677c-0.106,0.217-0.234,0.406-0.328,0.574
					C374.939,349.957,374.772,350.164,374.772,350.164z"/>
			</g>
		</g>
		<g>
			<rect x="210.279" y="279.179" style="fill:#FFFFFF;" width="35.162" height="50.009"/>
			<g>
				<path style="fill:#25243E;" d="M241.11,325.311l-26.813,0.125l-0.125,0.001l0-0.126l-0.087-42.317l-0.001-0.213l0.213,0
					l26.812,0.055l0.158,0l0,0.157l-0.044,21.159L241.11,325.311z M241.11,325.311l-0.114-21.159l-0.044-21.159l0.157,0.157
					l-26.812,0.055l0.212-0.212l-0.087,42.317l-0.125-0.125L241.11,325.311z"/>
			</g>
			<polygon style="fill:#E25287;" points="242.055,330.082 238.796,329.687 236.596,332.126 232.138,320.217 237.597,318.173 			"/>
			<path style="fill:#E25287;" d="M239.453,317.478c0.948,2.533-0.336,5.354-2.869,6.302c-2.533,0.948-5.354-0.336-6.302-2.869
				c-0.948-2.533,0.336-5.354,2.869-6.302C235.683,313.662,238.505,314.946,239.453,317.478z"/>
			<polygon style="fill:#E25287;" points="232.413,332.079 230.387,329.495 227.108,329.664 232.376,318.091 237.681,320.506 			"/>
			<g>
				<path style="fill:#25243E;" d="M236.83,289.172c-3.153,0.062-6.306,0.124-9.459,0.147l-9.459,0.055l-0.201,0.001l-0.001-0.203
					l-0.01-2.914l-0.001-0.213l0.213,0c6.306,0.016,12.612,0.03,18.918,0.157l0.057,0.001l-0.001,0.055L236.83,289.172z
					 M236.83,289.172l-0.056-2.914l0.055,0.055c-6.306,0.127-12.612,0.141-18.918,0.157l0.212-0.212l-0.01,2.914l-0.202-0.202
					l9.459,0.055C230.524,289.048,233.677,289.11,236.83,289.172z"/>
			</g>
			<g>
				<path style="fill:#25243E;" d="M217.911,291.387c0,0,1.182-0.062,2.956-0.119c0.887-0.019,1.921-0.041,3.03-0.065
					c1.108-0.009,2.291-0.019,3.473-0.028c1.182,0.01,2.365,0.019,3.473,0.028c1.108,0.024,2.143,0.046,3.03,0.065
					c1.774,0.057,2.956,0.12,2.956,0.12s-1.182,0.062-2.956,0.12c-0.887,0.019-1.921,0.041-3.03,0.065
					c-1.109,0.009-2.291,0.018-3.473,0.028c-1.182-0.01-2.365-0.019-3.473-0.028c-1.108-0.024-2.143-0.046-3.03-0.065
					C219.094,291.449,217.911,291.387,217.911,291.387z"/>
			</g>
			<g>
				<path style="fill:#25243E;" d="M217.911,293.252c0,0,1.182-0.062,2.956-0.119c0.887-0.019,1.921-0.041,3.03-0.065
					c1.108-0.009,2.291-0.019,3.473-0.028c1.182,0.009,2.365,0.019,3.473,0.028c1.108,0.024,2.143,0.046,3.03,0.065
					c1.774,0.057,2.956,0.12,2.956,0.12s-1.182,0.062-2.956,0.12c-0.887,0.019-1.921,0.041-3.03,0.065
					c-1.109,0.009-2.291,0.018-3.473,0.028c-1.182-0.01-2.365-0.019-3.473-0.028c-1.108-0.024-2.143-0.046-3.03-0.065
					C219.094,293.314,217.911,293.252,217.911,293.252z"/>
			</g>
			<g>
				<path style="fill:#25243E;" d="M217.911,295.117c0,0,1.182-0.062,2.956-0.119c0.887-0.019,1.921-0.041,3.03-0.065
					c1.108-0.009,2.291-0.019,3.473-0.028c1.182,0.01,2.365,0.019,3.473,0.028c1.108,0.024,2.143,0.046,3.03,0.065
					c1.774,0.057,2.956,0.12,2.956,0.12s-1.182,0.062-2.956,0.12c-0.887,0.019-1.921,0.041-3.03,0.065
					c-1.109,0.009-2.291,0.019-3.473,0.028c-1.182-0.01-2.365-0.019-3.473-0.028c-1.108-0.024-2.143-0.046-3.03-0.065
					C219.094,295.179,217.911,295.117,217.911,295.117z"/>
			</g>
			<g>
				<path style="fill:#25243E;" d="M217.911,296.983c0,0,1.182-0.062,2.956-0.119c0.887-0.019,1.921-0.041,3.03-0.065
					c1.108-0.009,2.291-0.019,3.473-0.028c1.182,0.009,2.365,0.019,3.473,0.028c1.108,0.024,2.143,0.046,3.03,0.065
					c1.774,0.057,2.956,0.12,2.956,0.12s-1.182,0.063-2.956,0.12c-0.887,0.019-1.921,0.041-3.03,0.065
					c-1.109,0.009-2.291,0.018-3.473,0.028c-1.182-0.01-2.365-0.019-3.473-0.028c-1.108-0.024-2.143-0.046-3.03-0.065
					C219.094,297.044,217.911,296.983,217.911,296.983z"/>
			</g>
			<g>
				<path style="fill:#25243E;" d="M217.911,298.848c0,0,1.182-0.062,2.956-0.119c0.887-0.019,1.921-0.041,3.03-0.065
					c1.108-0.009,2.291-0.019,3.473-0.028c1.182,0.009,2.365,0.019,3.473,0.028c1.108,0.024,2.143,0.046,3.03,0.065
					c1.774,0.057,2.956,0.12,2.956,0.12s-1.182,0.062-2.956,0.12c-0.887,0.019-1.921,0.041-3.03,0.065
					c-1.109,0.009-2.291,0.018-3.473,0.028c-1.182-0.01-2.365-0.019-3.473-0.028c-1.108-0.024-2.143-0.046-3.03-0.065
					C219.094,298.91,217.911,298.848,217.911,298.848z"/>
			</g>
			<g>
				<path style="fill:#25243E;" d="M217.911,300.713c0,0,1.182-0.062,2.956-0.119c0.887-0.019,1.921-0.041,3.03-0.065
					c1.108-0.009,2.291-0.019,3.473-0.028c1.182,0.01,2.365,0.019,3.473,0.028c1.108,0.024,2.143,0.046,3.03,0.065
					c1.774,0.057,2.956,0.12,2.956,0.12s-1.182,0.062-2.956,0.12c-0.887,0.019-1.921,0.041-3.03,0.065
					c-1.109,0.009-2.291,0.018-3.473,0.028c-1.182-0.01-2.365-0.019-3.473-0.028c-1.108-0.024-2.143-0.046-3.03-0.065
					C219.094,300.775,217.911,300.713,217.911,300.713z"/>
			</g>
			<g>
				<path style="fill:#25243E;" d="M217.911,302.578c0,0,1.182-0.062,2.956-0.119c0.887-0.019,1.921-0.041,3.03-0.065
					c1.108-0.009,2.291-0.019,3.473-0.028c1.182,0.009,2.365,0.019,3.473,0.028c1.108,0.024,2.143,0.046,3.03,0.065
					c1.774,0.057,2.956,0.12,2.956,0.12s-1.182,0.062-2.956,0.12c-0.887,0.019-1.921,0.041-3.03,0.065
					c-1.109,0.009-2.291,0.018-3.473,0.028c-1.182-0.01-2.365-0.019-3.473-0.028c-1.108-0.024-2.143-0.046-3.03-0.065
					C219.094,302.64,217.911,302.578,217.911,302.578z"/>
			</g>
			<g>
				<path style="fill:#25243E;" d="M217.911,304.444c0,0,1.182-0.062,2.956-0.119c0.887-0.019,1.921-0.041,3.03-0.065
					c1.108-0.009,2.291-0.019,3.473-0.028c1.182,0.009,2.365,0.019,3.473,0.028c1.108,0.024,2.143,0.046,3.03,0.065
					c1.774,0.057,2.956,0.12,2.956,0.12s-1.182,0.063-2.956,0.12c-0.887,0.019-1.921,0.041-3.03,0.065
					c-1.109,0.009-2.291,0.018-3.473,0.028c-1.182-0.01-2.365-0.019-3.473-0.028c-1.108-0.024-2.143-0.046-3.03-0.065
					C219.094,304.505,217.911,304.444,217.911,304.444z"/>
			</g>
			<g>
				<path style="fill:#25243E;" d="M217.911,306.309c0,0,1.182-0.062,2.956-0.119c0.887-0.019,1.921-0.041,3.03-0.065
					c1.108-0.009,2.291-0.019,3.473-0.028c1.182,0.009,2.365,0.019,3.473,0.028c1.108,0.024,2.143,0.046,3.03,0.065
					c1.774,0.057,2.956,0.12,2.956,0.12s-1.182,0.062-2.956,0.12c-0.887,0.019-1.921,0.041-3.03,0.065
					c-1.109,0.009-2.291,0.018-3.473,0.028c-1.182-0.01-2.365-0.019-3.473-0.028c-1.108-0.024-2.143-0.046-3.03-0.065
					C219.094,306.371,217.911,306.309,217.911,306.309z"/>
			</g>
			<g>
				<path style="fill:#25243E;" d="M217.911,308.174c0,0,1.182-0.062,2.956-0.119c0.887-0.019,1.921-0.041,3.03-0.065
					c1.108-0.009,2.291-0.019,3.473-0.028c1.182,0.01,2.365,0.019,3.473,0.028c1.108,0.024,2.143,0.046,3.03,0.065
					c1.774,0.057,2.956,0.12,2.956,0.12s-1.182,0.062-2.956,0.12c-0.887,0.019-1.921,0.041-3.03,0.065
					c-1.109,0.009-2.291,0.018-3.473,0.028c-1.182-0.01-2.365-0.019-3.473-0.028c-1.108-0.024-2.143-0.046-3.03-0.065
					C219.094,308.236,217.911,308.174,217.911,308.174z"/>
			</g>
			<g>
				<path style="fill:#25243E;" d="M238.978,321.856c0,0-0.244,0.585-0.945,1.231c-0.353,0.31-0.811,0.641-1.368,0.86
					c-0.282,0.106-0.559,0.191-0.883,0.261c-0.31,0.055-0.628,0.093-0.949,0.095c-0.641-0.013-1.274-0.156-1.825-0.384
					c-0.555-0.225-1.007-0.564-1.356-0.878c-0.357-0.312-0.568-0.649-0.725-0.868c-0.131-0.237-0.206-0.372-0.206-0.372
					s0.099,0.117,0.273,0.323c0.182,0.196,0.45,0.466,0.812,0.734c0.712,0.539,1.846,1.037,3.03,1.02
					c0.294,0.008,0.587-0.018,0.874-0.06c0.27-0.048,0.564-0.126,0.824-0.216c0.521-0.188,0.988-0.43,1.348-0.7
					c0.36-0.269,0.641-0.527,0.818-0.727C238.88,321.978,238.978,321.856,238.978,321.856z"/>
			</g>
			<g>
				<path style="fill:#25243E;" d="M234.699,327.057c0,0,0.025-0.223,0.11-0.537c0.05-0.154,0.09-0.34,0.165-0.527
					c0.074-0.187,0.152-0.386,0.231-0.585c0.096-0.191,0.192-0.383,0.282-0.562c0.088-0.18,0.202-0.335,0.283-0.474
					c0.178-0.272,0.328-0.439,0.328-0.439s-0.025,0.223-0.109,0.537c-0.05,0.154-0.089,0.341-0.165,0.527
					c-0.074,0.187-0.152,0.386-0.231,0.585c-0.096,0.191-0.192,0.383-0.283,0.562c-0.089,0.18-0.202,0.335-0.283,0.474
					C234.848,326.89,234.699,327.057,234.699,327.057z"/>
			</g>
		</g>
		<g>
			<rect x="308.124" y="92.771" style="fill:#FFFFFF;" width="35.162" height="50.009"/>
			<g>
				<path style="fill:#25243E;" d="M338.954,138.902l-26.813,0.125l-0.125,0.001l0-0.126l-0.087-42.317l0-0.213l0.213,0
					l26.813,0.055l0.158,0l0,0.157l-0.044,21.159L338.954,138.902z M338.954,138.902l-0.114-21.159l-0.044-21.159l0.157,0.157
					l-26.813,0.055l0.212-0.212l-0.087,42.317l-0.125-0.125L338.954,138.902z"/>
			</g>
			<polygon style="fill:#E25287;" points="339.899,143.673 336.64,143.279 334.441,145.717 329.982,133.809 335.441,131.765 			"/>
			<path style="fill:#E25287;" d="M337.297,131.07c0.948,2.532-0.336,5.354-2.869,6.302c-2.533,0.948-5.354-0.336-6.302-2.869
				c-0.948-2.532,0.336-5.354,2.869-6.302C333.527,127.253,336.349,128.538,337.297,131.07z"/>
			<polygon style="fill:#E25287;" points="330.257,145.671 328.231,143.087 324.952,143.256 330.22,131.682 335.525,134.097 			"/>
			<g>
				<path style="fill:#25243E;" d="M334.674,102.764c-3.153,0.062-6.306,0.124-9.459,0.147l-9.459,0.055l-0.202,0.001l-0.001-0.203
					l-0.01-2.914l-0.001-0.213l0.213,0.001c6.306,0.016,12.612,0.03,18.918,0.157l0.057,0.001l-0.001,0.054L334.674,102.764z
					 M334.674,102.764l-0.056-2.914l0.055,0.056c-6.306,0.127-12.612,0.141-18.918,0.157l0.212-0.212l-0.01,2.914l-0.202-0.202
					l9.459,0.055C328.368,102.64,331.521,102.702,334.674,102.764z"/>
			</g>
			<g>
				<path style="fill:#25243E;" d="M315.755,104.979c0,0,1.182-0.062,2.956-0.119c0.887-0.019,1.921-0.041,3.03-0.065
					c1.109-0.009,2.291-0.019,3.473-0.028c1.182,0.01,2.365,0.019,3.473,0.028c1.109,0.024,2.143,0.046,3.03,0.065
					c1.774,0.057,2.956,0.12,2.956,0.12s-1.182,0.062-2.956,0.12c-0.887,0.019-1.921,0.041-3.03,0.065
					c-1.108,0.009-2.291,0.018-3.473,0.028c-1.182-0.01-2.365-0.019-3.473-0.028c-1.108-0.024-2.143-0.046-3.03-0.065
					C316.938,105.04,315.755,104.979,315.755,104.979z"/>
			</g>
			<g>
				<path style="fill:#25243E;" d="M315.755,106.844c0,0,1.182-0.062,2.956-0.119c0.887-0.019,1.921-0.041,3.03-0.065
					c1.109-0.009,2.291-0.019,3.473-0.028c1.182,0.009,2.365,0.019,3.473,0.028c1.109,0.024,2.143,0.046,3.03,0.065
					c1.774,0.057,2.956,0.12,2.956,0.12s-1.182,0.062-2.956,0.12c-0.887,0.019-1.921,0.041-3.03,0.065
					c-1.108,0.009-2.291,0.019-3.473,0.028c-1.182-0.01-2.365-0.019-3.473-0.028c-1.108-0.024-2.143-0.046-3.03-0.065
					C316.938,106.905,315.755,106.844,315.755,106.844z"/>
			</g>
			<g>
				<path style="fill:#25243E;" d="M315.755,108.709c0,0,1.182-0.062,2.956-0.119c0.887-0.019,1.921-0.041,3.03-0.065
					c1.109-0.009,2.291-0.019,3.473-0.028c1.182,0.01,2.365,0.019,3.473,0.028c1.109,0.024,2.143,0.046,3.03,0.065
					c1.774,0.057,2.956,0.12,2.956,0.12s-1.182,0.062-2.956,0.12c-0.887,0.019-1.921,0.041-3.03,0.065
					c-1.108,0.009-2.291,0.018-3.473,0.028c-1.182-0.01-2.365-0.019-3.473-0.028c-1.108-0.024-2.143-0.046-3.03-0.065
					C316.938,108.771,315.755,108.709,315.755,108.709z"/>
			</g>
			<g>
				<path style="fill:#25243E;" d="M315.755,110.574c0,0,1.182-0.062,2.956-0.119c0.887-0.019,1.921-0.041,3.03-0.065
					c1.109-0.009,2.291-0.019,3.473-0.028c1.182,0.009,2.365,0.019,3.473,0.028c1.109,0.024,2.143,0.046,3.03,0.065
					c1.774,0.057,2.956,0.12,2.956,0.12s-1.182,0.062-2.956,0.12c-0.887,0.019-1.921,0.041-3.03,0.065
					c-1.108,0.009-2.291,0.018-3.473,0.028c-1.182-0.01-2.365-0.019-3.473-0.028c-1.108-0.024-2.143-0.046-3.03-0.065
					C316.938,110.636,315.755,110.574,315.755,110.574z"/>
			</g>
			<g>
				<path style="fill:#25243E;" d="M315.755,112.439c0,0,1.182-0.062,2.956-0.119c0.887-0.019,1.921-0.041,3.03-0.065
					c1.109-0.009,2.291-0.019,3.473-0.028c1.182,0.01,2.365,0.019,3.473,0.028c1.109,0.024,2.143,0.046,3.03,0.065
					c1.774,0.057,2.956,0.12,2.956,0.12s-1.182,0.062-2.956,0.12c-0.887,0.019-1.921,0.041-3.03,0.065
					c-1.108,0.009-2.291,0.019-3.473,0.028c-1.182-0.01-2.365-0.019-3.473-0.028c-1.108-0.024-2.143-0.046-3.03-0.065
					C316.938,112.501,315.755,112.439,315.755,112.439z"/>
			</g>
			<g>
				<path style="fill:#25243E;" d="M315.755,114.305c0,0,1.182-0.062,2.956-0.119c0.887-0.019,1.921-0.041,3.03-0.065
					c1.109-0.009,2.291-0.019,3.473-0.028c1.182,0.009,2.365,0.019,3.473,0.028c1.109,0.024,2.143,0.046,3.03,0.065
					c1.774,0.057,2.956,0.12,2.956,0.12s-1.182,0.062-2.956,0.12c-0.887,0.019-1.921,0.041-3.03,0.065
					c-1.108,0.009-2.291,0.018-3.473,0.028c-1.182-0.01-2.365-0.019-3.473-0.028c-1.108-0.024-2.143-0.046-3.03-0.065
					C316.938,114.366,315.755,114.305,315.755,114.305z"/>
			</g>
			<g>
				<path style="fill:#25243E;" d="M315.755,116.17c0,0,1.182-0.062,2.956-0.119c0.887-0.019,1.921-0.041,3.03-0.065
					c1.109-0.009,2.291-0.019,3.473-0.028c1.182,0.01,2.365,0.019,3.473,0.028c1.109,0.024,2.143,0.046,3.03,0.065
					c1.774,0.057,2.956,0.12,2.956,0.12s-1.182,0.062-2.956,0.12c-0.887,0.019-1.921,0.041-3.03,0.065
					c-1.108,0.009-2.291,0.018-3.473,0.028c-1.182-0.01-2.365-0.019-3.473-0.028c-1.108-0.024-2.143-0.046-3.03-0.065
					C316.938,116.232,315.755,116.17,315.755,116.17z"/>
			</g>
			<g>
				<path style="fill:#25243E;" d="M315.755,118.035c0,0,1.182-0.062,2.956-0.119c0.887-0.019,1.921-0.041,3.03-0.065
					c1.109-0.009,2.291-0.019,3.473-0.028c1.182,0.009,2.365,0.019,3.473,0.028c1.109,0.024,2.143,0.046,3.03,0.065
					c1.774,0.057,2.956,0.12,2.956,0.12s-1.182,0.062-2.956,0.12c-0.887,0.019-1.921,0.041-3.03,0.065
					c-1.108,0.009-2.291,0.019-3.473,0.028c-1.182-0.01-2.365-0.019-3.473-0.028c-1.108-0.024-2.143-0.046-3.03-0.065
					C316.938,118.097,315.755,118.035,315.755,118.035z"/>
			</g>
			<g>
				<path style="fill:#25243E;" d="M315.755,119.9c0,0,1.182-0.062,2.956-0.119c0.887-0.019,1.921-0.041,3.03-0.065
					c1.109-0.009,2.291-0.019,3.473-0.028c1.182,0.009,2.365,0.019,3.473,0.028c1.109,0.024,2.143,0.046,3.03,0.065
					c1.774,0.057,2.956,0.12,2.956,0.12s-1.182,0.062-2.956,0.12c-0.887,0.019-1.921,0.041-3.03,0.065
					c-1.108,0.009-2.291,0.018-3.473,0.028c-1.182-0.01-2.365-0.019-3.473-0.028c-1.108-0.024-2.143-0.046-3.03-0.065
					C316.938,119.962,315.755,119.9,315.755,119.9z"/>
			</g>
			<g>
				<path style="fill:#25243E;" d="M315.755,121.766c0,0,1.182-0.062,2.956-0.119c0.887-0.019,1.921-0.041,3.03-0.065
					c1.109-0.009,2.291-0.019,3.473-0.028c1.182,0.009,2.365,0.019,3.473,0.028c1.109,0.024,2.143,0.046,3.03,0.065
					c1.774,0.057,2.956,0.12,2.956,0.12s-1.182,0.062-2.956,0.12c-0.887,0.019-1.921,0.041-3.03,0.065
					c-1.108,0.009-2.291,0.018-3.473,0.028c-1.182-0.01-2.365-0.019-3.473-0.028c-1.108-0.024-2.143-0.046-3.03-0.065
					C316.938,121.827,315.755,121.766,315.755,121.766z"/>
			</g>
			<g>
				<path style="fill:#25243E;" d="M336.822,135.448c0,0-0.244,0.585-0.945,1.231c-0.353,0.31-0.811,0.641-1.368,0.86
					c-0.282,0.106-0.559,0.191-0.883,0.261c-0.31,0.055-0.628,0.093-0.949,0.095c-0.641-0.014-1.274-0.156-1.825-0.384
					c-0.555-0.225-1.007-0.564-1.356-0.878c-0.357-0.312-0.568-0.649-0.725-0.868c-0.131-0.237-0.207-0.372-0.207-0.372
					s0.099,0.117,0.273,0.322c0.182,0.196,0.45,0.467,0.812,0.734c0.712,0.539,1.846,1.037,3.03,1.02
					c0.294,0.008,0.587-0.018,0.874-0.06c0.27-0.048,0.564-0.126,0.824-0.216c0.521-0.188,0.988-0.43,1.348-0.7
					c0.36-0.269,0.641-0.527,0.818-0.727C336.724,135.57,336.822,135.448,336.822,135.448z"/>
			</g>
			<g>
				<path style="fill:#25243E;" d="M332.543,140.649c0,0,0.025-0.223,0.11-0.537c0.05-0.154,0.09-0.34,0.165-0.527
					c0.074-0.187,0.152-0.386,0.231-0.585c0.096-0.191,0.192-0.383,0.282-0.562c0.088-0.18,0.202-0.335,0.283-0.474
					c0.178-0.272,0.328-0.439,0.328-0.439s-0.025,0.223-0.109,0.537c-0.05,0.153-0.089,0.341-0.165,0.527
					c-0.074,0.187-0.152,0.386-0.231,0.585c-0.096,0.191-0.192,0.383-0.283,0.562c-0.089,0.18-0.202,0.335-0.283,0.474
					C332.693,140.482,332.543,140.649,332.543,140.649z"/>
			</g>
		</g>
		<path style="fill:#C7D5EA;" d="M104.686,466.037c-11.659,0.417-10.452,4.757,3.278,5.442c13.73,0.685,17.208-0.685,26.469,0
			c9.261,0.685,28.081-1.351,30.838-2.388c2.757-1.038-2.954-1.383-24.827-2.523C118.57,465.429,104.686,466.037,104.686,466.037z"
			/>
		<g>
			<g>
				<g>
					<g>
						<path style="fill:#E2BDB3;" d="M128.007,233.705c-1.512-8.839,0.936-3.982,1.346-1.837c-0.706-4.312,0.349-5.362,1.438-0.889
							c-0.722-3.782,0.798-3.517,1.547-0.208c-0.338-3.914,1.143-2.001,1.759,0.586c0.813,3.414,1.306,8.366,1.306,8.366
							l5.409,27.689c0.062,5.278-0.497,10.545-1.667,15.693l-3.583,21.096l-9.335-2.443l5.443-27.938l-2.305-33.002"/>
						<g>
							<path style="fill:#25243E;" d="M128.404,235.468c0,0-0.104-0.149-0.211-0.385c-0.046-0.12-0.117-0.255-0.161-0.407
								c-0.044-0.152-0.092-0.315-0.139-0.477c-0.029-0.167-0.058-0.334-0.084-0.49c-0.029-0.156-0.023-0.309-0.034-0.437
								c-0.007-0.258,0.022-0.438,0.022-0.438s0.105,0.149,0.212,0.385c0.045,0.12,0.118,0.255,0.16,0.407
								c0.044,0.152,0.092,0.315,0.139,0.477c0.029,0.167,0.057,0.334,0.084,0.49c0.028,0.156,0.023,0.309,0.034,0.437
								C128.432,235.288,128.404,235.468,128.404,235.468z"/>
						</g>
						<g>
							<path style="fill:#25243E;" d="M129.621,232.954c0,0-0.093-0.124-0.182-0.32c-0.037-0.1-0.098-0.212-0.131-0.339
								c-0.033-0.127-0.069-0.262-0.105-0.397c-0.017-0.139-0.034-0.278-0.049-0.408c-0.018-0.13-0.001-0.257-0.004-0.363
								c0.011-0.215,0.052-0.365,0.052-0.365s0.093,0.124,0.183,0.32c0.037,0.099,0.099,0.212,0.131,0.339
								c0.033,0.127,0.069,0.262,0.104,0.397c0.017,0.139,0.033,0.278,0.049,0.408c0.017,0.13,0.001,0.257,0.003,0.363
								C129.661,232.804,129.621,232.954,129.621,232.954z"/>
						</g>
						<g>
							<path style="fill:#25243E;" d="M130.844,232.251c0,0-0.079-0.104-0.147-0.264c-0.026-0.081-0.075-0.174-0.093-0.277
								c-0.02-0.103-0.04-0.212-0.061-0.322c-0.002-0.112-0.004-0.223-0.005-0.328c-0.004-0.104,0.027-0.205,0.036-0.29
								c0.034-0.171,0.091-0.289,0.091-0.289s0.079,0.104,0.147,0.264c0.026,0.081,0.076,0.174,0.093,0.277
								c0.019,0.103,0.04,0.213,0.061,0.322c0.002,0.112,0.003,0.223,0.005,0.328c0.002,0.105-0.027,0.205-0.036,0.29
								C130.9,232.134,130.844,232.251,130.844,232.251z"/>
						</g>
						<g>
							<path style="fill:#25243E;" d="M132.263,230.459c0,0,0.092,0.07,0.182,0.191c0.037,0.062,0.098,0.13,0.131,0.212
								c0.034,0.082,0.07,0.169,0.106,0.256c0.018,0.093,0.036,0.185,0.053,0.272c0.019,0.086,0.004,0.177,0.007,0.249
								c-0.008,0.15-0.047,0.259-0.047,0.259s-0.092-0.07-0.182-0.19c-0.037-0.063-0.099-0.13-0.131-0.212
								c-0.034-0.082-0.07-0.169-0.106-0.256c-0.018-0.093-0.036-0.185-0.052-0.272c-0.018-0.087-0.004-0.177-0.007-0.249
								C132.225,230.568,132.263,230.459,132.263,230.459z"/>
						</g>
					</g>
					<g>
						<g>
							<path style="fill:#F1D17C;" d="M145.823,178.63c0-16.547-13.533-29.933-30.135-29.693
								c-15.851,0.229-28.873,13.124-29.248,28.972c-0.195,8.243,2.972,15.744,8.225,21.234c4.254,4.447,6.496,10.448,6.496,16.602
								v5.698h29.933v-6.016c0-6.152,2.467-11.994,6.679-16.476C142.764,193.64,145.823,186.494,145.823,178.63z"/>
							<path style="fill:#2F3D8B;" d="M117.787,248.68h-3.32c-2.414,0-4.37-1.957-4.37-4.37v-3.808h12.06v3.808
								C122.157,246.724,120.2,248.68,117.787,248.68z"/>
							<path style="fill:#516182;" d="M123.221,245.96h-14.189c-4.348,0-7.872-3.525-7.872-7.872v-16.644h29.933v16.644
								C131.093,242.435,127.569,245.96,123.221,245.96z"/>
							<g>
								<path style="fill:#25243E;" d="M101.16,228.124c0,0,1.862-0.385,4.656-0.962c1.4-0.272,3.033-0.59,4.782-0.93
									c1.752-0.326,3.621-0.673,5.491-1.02c1.872-0.328,3.745-0.657,5.501-0.965c1.758-0.293,3.399-0.567,4.805-0.802
									c2.819-0.436,4.698-0.727,4.698-0.727s-1.862,0.385-4.656,0.962c-1.4,0.272-3.033,0.59-4.783,0.93
									c-1.752,0.325-3.621,0.673-5.491,1.02c-1.872,0.328-3.745,0.657-5.501,0.965c-1.758,0.293-3.399,0.567-4.806,0.802
									C103.04,227.833,101.16,228.124,101.16,228.124z"/>
							</g>
							<g>
								<path style="fill:#25243E;" d="M101.16,233.53c0,0,1.862-0.385,4.656-0.962c1.4-0.272,3.033-0.59,4.782-0.93
									c1.752-0.326,3.621-0.673,5.491-1.02c1.872-0.329,3.745-0.657,5.501-0.965c1.758-0.293,3.399-0.567,4.805-0.802
									c2.819-0.436,4.698-0.727,4.698-0.727s-1.862,0.385-4.656,0.962c-1.4,0.272-3.033,0.589-4.783,0.929
									c-1.752,0.326-3.621,0.673-5.491,1.02c-1.872,0.328-3.745,0.657-5.501,0.965c-1.758,0.293-3.399,0.567-4.806,0.802
									C103.04,233.239,101.16,233.53,101.16,233.53z"/>
							</g>
							<g>
								<path style="fill:#25243E;" d="M101.16,238.936c0,0,1.862-0.385,4.656-0.962c1.4-0.272,3.033-0.59,4.782-0.93
									c1.752-0.326,3.621-0.673,5.491-1.02c1.872-0.329,3.745-0.657,5.501-0.965c1.758-0.294,3.399-0.567,4.805-0.802
									c2.819-0.436,4.698-0.727,4.698-0.727s-1.862,0.385-4.656,0.962c-1.4,0.272-3.033,0.59-4.783,0.93
									c-1.752,0.326-3.621,0.673-5.491,1.02c-1.872,0.328-3.745,0.657-5.501,0.965c-1.758,0.293-3.399,0.567-4.806,0.802
									C103.04,238.645,101.16,238.936,101.16,238.936z"/>
							</g>
							<g>
								<path style="fill:#25243E;" d="M104.067,243.816c0,0,1.681-0.352,4.202-0.88c1.264-0.247,2.738-0.536,4.317-0.846
									c1.582-0.295,3.27-0.609,4.957-0.924c1.691-0.296,3.382-0.591,4.967-0.869c1.588-0.263,3.07-0.508,4.34-0.718
									c2.547-0.387,4.244-0.645,4.244-0.645s-1.681,0.352-4.202,0.88c-1.264,0.247-2.738,0.536-4.317,0.846
									c-1.582,0.295-3.27,0.609-4.957,0.924c-1.691,0.296-3.382,0.591-4.967,0.868c-1.588,0.263-3.07,0.508-4.34,0.718
									C105.764,243.558,104.067,243.816,104.067,243.816z"/>
							</g>
						</g>
						<g>
							<g>
								<path style="fill:#25243E;" d="M109.366,221.444c0,0-0.199-2.77-0.497-6.925c-0.132-2.078-0.287-4.503-0.453-7.101
									c-0.151-2.599-0.312-5.371-0.473-8.143c-0.142-2.773-0.284-5.546-0.417-8.146c-0.118-2.601-0.229-5.028-0.323-7.108
									c-0.155-4.163-0.259-6.938-0.259-6.938s0.199,2.77,0.498,6.925c0.132,2.078,0.287,4.503,0.452,7.101
									c0.151,2.599,0.312,5.371,0.473,8.143c0.142,2.773,0.284,5.546,0.416,8.146c0.118,2.601,0.229,5.028,0.323,7.108
									C109.262,218.669,109.366,221.444,109.366,221.444z"/>
							</g>
							<g>
								<path style="fill:#25243E;" d="M122.888,221.444c0,0,0.104-2.775,0.259-6.938c0.095-2.081,0.205-4.508,0.323-7.108
									c0.133-2.6,0.275-5.373,0.416-8.146c0.161-2.772,0.322-5.544,0.472-8.143c0.166-2.598,0.32-5.023,0.452-7.101
									c0.299-4.155,0.498-6.925,0.498-6.925s-0.104,2.775-0.259,6.938c-0.095,2.08-0.205,4.508-0.323,7.108
									c-0.133,2.6-0.275,5.373-0.417,8.146c-0.161,2.772-0.322,5.544-0.473,8.143c-0.166,2.598-0.32,5.023-0.453,7.101
									C123.087,218.674,122.888,221.444,122.888,221.444z"/>
							</g>
						</g>
						<g>
							<polygon style="fill:#25243E;" points="125.129,180.492 122.966,184.147 122.882,184.289 122.791,184.147 120.49,180.578 
								120.766,180.578 118.541,184.195 118.38,184.458 118.214,184.195 115.947,180.604 116.307,180.604 114.041,184.195 
								113.874,184.458 113.712,184.195 111.487,180.579 111.765,180.579 109.464,184.148 109.372,184.29 109.287,184.148 
								107.125,180.492 109.464,184.037 109.287,184.037 111.487,180.405 111.623,180.182 111.765,180.405 114.041,183.99 
								113.712,183.99 115.947,180.379 116.127,180.088 116.307,180.379 118.541,183.99 118.214,183.99 120.49,180.406 
								120.631,180.183 120.766,180.406 122.966,184.038 122.791,184.038 							"/>
						</g>
					</g>
					<path style="fill:#E2BDB3;" d="M103.812,233.292c1.442-8.85-0.968-3.974-1.36-1.826c0.672-4.317-0.392-5.359-1.445-0.877
						c0.692-3.788-0.826-3.51-1.549-0.195c0.307-3.917-1.159-1.992-1.754,0.6c-0.786,3.42-1.239,8.376-1.239,8.376l-5.491,27.757
						c0.261,5.272,1.141,10.495,2.623,15.561l5.071,21.117l8.745-4.078l-6.923-26.764l2.02-32.547"/>
					<g>
						<path style="fill:#25243E;" d="M102.193,232.554c0,0-0.042-0.149-0.054-0.365c0.002-0.106-0.015-0.233,0-0.363
							c0.015-0.13,0.03-0.269,0.046-0.408c0.034-0.136,0.069-0.271,0.101-0.398c0.03-0.128,0.092-0.24,0.128-0.34
							c0.088-0.197,0.181-0.322,0.181-0.322s0.042,0.15,0.055,0.365c-0.002,0.106,0.016,0.234-0.001,0.363
							c-0.015,0.13-0.031,0.269-0.046,0.408c-0.035,0.136-0.069,0.271-0.101,0.398c-0.032,0.127-0.092,0.24-0.128,0.34
							C102.285,232.429,102.193,232.554,102.193,232.554z"/>
					</g>
					<g>
						<path style="fill:#25243E;" d="M100.964,231.861c0,0-0.057-0.117-0.093-0.288c-0.01-0.085-0.04-0.185-0.038-0.29
							c0.001-0.105,0.002-0.216,0.002-0.328c0.02-0.11,0.04-0.22,0.058-0.322c0.017-0.103,0.066-0.196,0.091-0.278
							c0.066-0.161,0.145-0.266,0.145-0.266s0.058,0.117,0.093,0.288c0.009,0.085,0.041,0.185,0.038,0.29
							c-0.001,0.105-0.002,0.216-0.003,0.328c-0.02,0.11-0.04,0.22-0.059,0.322c-0.018,0.103-0.066,0.196-0.091,0.278
							C101.042,231.757,100.964,231.861,100.964,231.861z"/>
					</g>
					<g>
						<path style="fill:#25243E;" d="M99.11,231.523c0,0-0.039-0.109-0.049-0.259c0.003-0.072-0.012-0.162,0.005-0.249
							c0.016-0.087,0.033-0.18,0.05-0.273c0.035-0.088,0.071-0.175,0.104-0.257c0.031-0.083,0.093-0.15,0.13-0.213
							c0.089-0.121,0.181-0.192,0.181-0.192s0.039,0.109,0.049,0.259c-0.003,0.073,0.013,0.163-0.005,0.249
							c-0.016,0.087-0.033,0.18-0.05,0.273c-0.035,0.087-0.071,0.175-0.104,0.257c-0.032,0.082-0.093,0.15-0.13,0.213
							C99.201,231.452,99.11,231.523,99.11,231.523z"/>
					</g>
					<path style="fill:#EA9D86;" d="M126.318,299.385l2.338-19.273c0,0,7.016-2.459,12.07,0
						c-0.576,12.781-6.353,36.106-6.353,36.106L126.318,299.385z"/>
					<g>
						<path style="fill:#F1D17C;" d="M122.197,466.816c-0.313-2.035-1.929-3.325-3.626-4.258c-1.899-1.044-4-2.286-4.935-4.355
							c-0.364-0.806-0.03-1.065-0.933-1.053c-1.649,0.022-3.299,0.064-4.948,0.096c-0.501,0.01-2.297-0.202-2.541,0.183
							c-0.158,0.249-0.039,1.012-0.05,1.307c-0.032,0.829-0.064,1.659-0.096,2.488c-0.066,1.722-0.133,3.444-0.199,5.166
							c-0.01,0.269-0.179,1.017-0.049,1.274c0.178,0.351,1.213,0.513,1.587,0.62c3.328,0.952,6.926,1.496,10.388,1.456
							c1.482-0.017,2.963-0.157,4.422-0.417c0.476-0.085,0.573-0.062,0.812-0.369C122.386,468.492,122.276,467.333,122.197,466.816z
							"/>
						<g>
							<path style="fill:#25243E;" d="M109.105,457.221c0,0,0.036,0.591,0.268,1.425c0.104,0.42,0.282,0.891,0.5,1.379
								c0.203,0.496,0.505,0.984,0.829,1.451c0.157,0.237,0.342,0.455,0.509,0.681c0.191,0.207,0.379,0.41,0.56,0.607
								c0.396,0.361,0.754,0.718,1.111,0.967c0.335,0.277,0.642,0.472,0.853,0.617c0.21,0.149,0.329,0.234,0.329,0.234
								s-0.134-0.059-0.369-0.162c-0.228-0.116-0.583-0.24-0.949-0.493c-0.383-0.225-0.806-0.53-1.229-0.896
								c-0.197-0.199-0.4-0.405-0.606-0.614c-0.183-0.23-0.386-0.452-0.557-0.698c-0.326-0.502-0.624-1.025-0.821-1.551
								c-0.213-0.519-0.322-1.034-0.394-1.473C109.003,457.81,109.105,457.221,109.105,457.221z"/>
						</g>
						<g>
							<path style="fill:#25243E;" d="M111.621,462.874c0,0,0.226-0.24,0.619-0.53c0.201-0.137,0.43-0.31,0.7-0.454
								c0.269-0.145,0.561-0.293,0.864-0.421c0.307-0.116,0.625-0.207,0.927-0.279c0.303-0.071,0.598-0.078,0.846-0.084
								c0.505,0.014,0.81,0.15,0.81,0.15s-0.081,0.006-0.224,0.016c-0.139-0.008-0.337,0.044-0.567,0.072
								c-0.232,0.04-0.492,0.123-0.773,0.202c-0.28,0.085-0.575,0.19-0.862,0.317c-0.296,0.104-0.586,0.231-0.855,0.355
								c-0.273,0.121-0.527,0.234-0.746,0.331C111.923,462.747,111.621,462.874,111.621,462.874z"/>
						</g>
						<g>
							<path style="fill:#25243E;" d="M110.327,460.926c0,0,0.218-0.203,0.592-0.44c0.37-0.243,0.903-0.495,1.465-0.688
								c0.285-0.084,0.577-0.146,0.854-0.19c0.278-0.046,0.545-0.03,0.77-0.017c0.457,0.048,0.717,0.207,0.717,0.207
								s-0.074,0-0.203-0.001c-0.124-0.017-0.305,0.019-0.513,0.033c-0.417,0.058-0.964,0.186-1.498,0.372
								c-0.273,0.073-0.542,0.167-0.794,0.259c-0.255,0.087-0.493,0.169-0.696,0.239
								C110.611,460.841,110.327,460.926,110.327,460.926z"/>
						</g>
						<g>
							<path style="fill:#25243E;" d="M109.321,458.959c0,0,0.26-0.112,0.657-0.23c0.2-0.051,0.431-0.129,0.683-0.18
								c0.252-0.051,0.522-0.106,0.791-0.16c0.272-0.036,0.545-0.071,0.8-0.105c0.255-0.035,0.499-0.035,0.705-0.051
								c0.415-0.017,0.697,0.005,0.697,0.005s-0.26,0.113-0.657,0.231c-0.2,0.051-0.431,0.13-0.683,0.179
								c-0.253,0.051-0.522,0.105-0.791,0.16c-0.272,0.036-0.545,0.071-0.8,0.104c-0.255,0.034-0.499,0.035-0.705,0.051
								C109.603,458.981,109.321,458.959,109.321,458.959z"/>
						</g>
						<path style="fill:#F1D17C;" d="M160.185,464.809c-0.809-4.449-6.906-4.522-8.783-8.359c-0.396-0.81-0.061-1.082-0.971-1.045
							c-1.608,0.066-3.215,0.15-4.823,0.225c-0.488,0.023-2.382-0.15-2.655,0.2c-0.137,0.174-0.011,0.96-0.013,1.183
							c-0.009,0.807-0.018,1.613-0.027,2.419c-0.019,1.713-0.039,3.426-0.058,5.139c-0.004,0.352-0.157,1.102-0.016,1.427
							c0.212,0.49,1.034,0.56,1.602,0.706c3.352,0.861,6.965,1.31,10.424,1.173c1.488-0.059,3.123-0.146,4.563-0.569
							c0.505-0.148,0.441-0.056,0.673-0.445C160.403,466.356,160.282,465.345,160.185,464.809z"/>
						<g>
							<path style="fill:#25243E;" d="M146.837,455.573c0,0,0.052,0.589,0.307,1.417c0.115,0.417,0.306,0.883,0.538,1.365
								c0.217,0.49,0.532,0.97,0.868,1.427c0.163,0.233,0.354,0.446,0.527,0.667c0.196,0.201,0.39,0.399,0.577,0.591
								c0.406,0.35,0.773,0.697,1.136,0.936c0.342,0.268,0.655,0.454,0.869,0.594c0.214,0.143,0.336,0.225,0.336,0.225
								s-0.136-0.055-0.374-0.152c-0.231-0.11-0.589-0.224-0.962-0.467c-0.389-0.215-0.82-0.508-1.253-0.863
								c-0.202-0.194-0.411-0.394-0.623-0.598c-0.189-0.225-0.398-0.442-0.576-0.682c-0.339-0.493-0.652-1.008-0.862-1.528
								c-0.227-0.513-0.35-1.025-0.434-1.461C146.751,456.165,146.837,455.573,146.837,455.573z"/>
						</g>
						<g>
							<path style="fill:#25243E;" d="M149.506,461.156c0,0,0.219-0.246,0.605-0.547c0.197-0.143,0.422-0.322,0.688-0.473
								c0.265-0.152,0.553-0.308,0.852-0.444c0.304-0.124,0.62-0.224,0.919-0.304c0.301-0.079,0.595-0.094,0.843-0.107
								c0.505,0,0.814,0.128,0.814,0.128s-0.081,0.008-0.223,0.022c-0.139-0.004-0.336,0.053-0.565,0.088
								c-0.231,0.046-0.489,0.136-0.767,0.223c-0.277,0.093-0.569,0.206-0.853,0.34c-0.293,0.112-0.58,0.247-0.845,0.378
								c-0.269,0.129-0.521,0.249-0.736,0.352C149.804,461.021,149.506,461.156,149.506,461.156z"/>
						</g>
						<g>
							<path style="fill:#25243E;" d="M148.159,459.243c0,0,0.213-0.209,0.58-0.456c0.363-0.253,0.89-0.519,1.446-0.728
								c0.282-0.092,0.573-0.161,0.849-0.213c0.276-0.053,0.544-0.045,0.769-0.038c0.458,0.036,0.723,0.187,0.723,0.187
								s-0.074,0.002-0.203,0.005c-0.124-0.013-0.305,0.027-0.511,0.047c-0.415,0.07-0.958,0.212-1.488,0.413
								c-0.271,0.081-0.538,0.182-0.786,0.28c-0.252,0.094-0.488,0.183-0.69,0.258C148.441,459.151,148.159,459.243,148.159,459.243
								z"/>
						</g>
						<g>
							<path style="fill:#25243E;" d="M147.101,457.305c0,0,0.257-0.119,0.651-0.248c0.199-0.056,0.427-0.141,0.678-0.198
								c0.251-0.058,0.519-0.12,0.786-0.182c0.271-0.043,0.543-0.086,0.797-0.126c0.254-0.042,0.497-0.048,0.703-0.071
								c0.414-0.028,0.697-0.014,0.697-0.014s-0.256,0.12-0.651,0.249c-0.199,0.056-0.427,0.142-0.678,0.198
								c-0.251,0.058-0.519,0.12-0.786,0.181c-0.271,0.043-0.543,0.086-0.797,0.126c-0.254,0.041-0.497,0.049-0.703,0.071
								C147.383,457.319,147.101,457.305,147.101,457.305z"/>
						</g>
					</g>
					<path style="fill:#25243E;" d="M105.346,273.558c0.887,2.566-0.989,3.233,0.34,5.478c1.329,2.245,1.349,3.34,2.277,5.451
						c0.929,2.111,4.291,6.391,10.859,2.335C125.391,282.767,105.346,273.558,105.346,273.558z"/>
					<path style="fill:#25243E;" d="M124.795,266.536c1.847,2.156,2.316,4.111,1.925,5.049c-0.391,0.938,2.051,7.11-0.382,8.012
						c-2.433,0.902-5.639-11.218-5.639-11.218L124.795,266.536z"/>
					<path style="fill:#668BF9;" d="M115.825,353.182l16.903,52.437l6.657,50.45h15.362c0,0-2.187-40.461-4.406-53.763
						C148.113,388.94,137,349.771,137,349.771l-9.307,5.538L115.825,353.182z"/>
					<path style="fill:#668BF9;" d="M103.426,350.261l-0.432,53.451l-1.581,54.166h15.628c0,0,4.152-34.76,4.75-46.407
						c0.528-10.276,2.576-41.156,2.576-41.156h2.984l-0.257-14.203L103.426,350.261z"/>
					<g>
						<path style="fill:#25243E;" d="M127.053,357.977c0.063,1.67,0.125,3.341,0.148,5.011c0.045,1.67,0.039,3.341,0.054,5.011
							l0.001,0.13l-0.122,0.056c-1.079,0.492-2.168,0.964-3.256,1.434l0.118-0.187c0.035,1.552,0.073,3.103,0.077,4.655
							c0.023,1.552,0.004,3.105-0.008,4.658c-0.101-1.55-0.21-3.099-0.275-4.65c-0.085-1.55-0.137-3.101-0.191-4.652l-0.005-0.132
							l0.123-0.055c1.081-0.488,2.162-0.976,3.253-1.443L126.85,368c0.015-1.67,0.01-3.341,0.054-5.011
							C126.928,361.318,126.99,359.648,127.053,357.977z"/>
					</g>
					<g>
						<path style="fill:#25243E;" d="M111.109,354.695c0,0,0.357,0.832,0.626,2.164c0.256,1.316,0.463,3.195-0.176,4.97
							c-0.325,0.872-0.926,1.656-1.656,2.147c-0.735,0.495-1.546,0.681-2.219,0.775c-0.682,0.074-1.25,0.039-1.642,0.003
							c-0.391-0.048-0.615-0.075-0.615-0.075s0.225-0.003,0.618-0.008c0.391,0.002,0.95-0.049,1.602-0.157
							c0.649-0.126,1.385-0.38,2.045-0.842c0.657-0.464,1.183-1.181,1.469-1.995c0.316-0.805,0.433-1.688,0.452-2.513
							c0.023-0.827-0.03-1.606-0.115-2.268C111.337,355.569,111.109,354.695,111.109,354.695z"/>
					</g>
					<g>
						<path style="fill:#25243E;" d="M105.519,352.126c0,0,0.049,6.275,0.124,15.686c0.033,9.412,0.076,21.961,0.119,34.51
							c0.047,3.137-0.137,6.287-0.255,9.366c-0.126,3.086-0.251,6.122-0.371,9.061c-0.241,5.878-0.465,11.363-0.658,16.065
							c-0.427,9.402-0.712,15.671-0.712,15.671s0.193-6.272,0.483-15.679c0.166-4.703,0.359-10.19,0.566-16.069
							c0.104-2.939,0.211-5.977,0.319-9.063c0.101-3.094,0.264-6.211,0.203-9.351c0.028-12.549,0.056-25.098,0.077-34.51
							C105.477,358.4,105.519,352.126,105.519,352.126z"/>
					</g>
					<g>
						<path style="fill:#25243E;" d="M101.797,452.485c0,0,1.002-0.062,2.504-0.119c0.751-0.019,1.628-0.041,2.567-0.065
							c0.939-0.009,1.941-0.019,2.942-0.028c1.002,0.009,2.003,0.019,2.943,0.028c0.939,0.007,1.815,0.047,2.567,0.065
							c1.503,0.057,2.504,0.12,2.504,0.12s-1.002,0.063-2.504,0.12c-0.751,0.017-1.628,0.058-2.567,0.065
							c-0.939,0.009-1.941,0.018-2.943,0.028c-1.002-0.01-2.003-0.019-2.942-0.028c-0.939-0.024-1.816-0.046-2.567-0.065
							C102.799,452.547,101.797,452.485,101.797,452.485z"/>
					</g>
					<g>
						<path style="fill:#25243E;" d="M134.09,356.844c0,0,0.182,0.566,0.54,1.366c0.363,0.793,0.915,1.831,1.7,2.661
							c0.206,0.193,0.396,0.41,0.62,0.575c0.227,0.16,0.437,0.344,0.682,0.448c0.235,0.124,0.459,0.251,0.696,0.317
							c0.23,0.085,0.449,0.169,0.665,0.188c0.213,0.03,0.408,0.08,0.584,0.102c0.178,0.005,0.332,0.009,0.46,0.012
							c0.259,0.012,0.407,0.019,0.407,0.019s-0.146,0.023-0.402,0.064c-0.13,0.018-0.288,0.039-0.469,0.063
							c-0.182,0.009-0.389-0.008-0.615-0.023c-0.23,0.001-0.468-0.063-0.722-0.129c-0.261-0.047-0.518-0.152-0.773-0.286
							c-0.27-0.107-0.502-0.295-0.754-0.461c-0.248-0.172-0.46-0.394-0.687-0.598c-0.186-0.24-0.403-0.458-0.559-0.713
							c-0.17-0.245-0.328-0.491-0.458-0.742c-0.279-0.492-0.448-0.992-0.596-1.413C134.139,357.439,134.09,356.844,134.09,356.844z"
							/>
					</g>
					<g>
						<path style="fill:#25243E;" d="M138.552,450.676c0,0,0.975-0.062,2.438-0.119c0.731-0.017,1.585-0.057,2.499-0.065
							c0.914-0.009,1.89-0.019,2.865-0.028c0.975,0.01,1.951,0.019,2.865,0.028c0.914,0.007,1.768,0.047,2.499,0.065
							c1.463,0.057,2.438,0.12,2.438,0.12s-0.975,0.062-2.438,0.12c-0.732,0.017-1.585,0.058-2.499,0.065
							c-0.914,0.009-1.89,0.018-2.865,0.028c-0.975-0.01-1.951-0.019-2.865-0.028c-0.914-0.008-1.768-0.048-2.499-0.065
							C139.527,450.738,138.552,450.676,138.552,450.676z"/>
					</g>
					<path style="fill:#EA9D86;" d="M134.639,291.644c-7.33,1.954-26.162,1.357-26.162,1.357s-2.78-8.716-4.931-13.738
						c-1.798-0.118-4.304-0.085-7.185,0.586c-2.33,0.542-4.229,1.344-5.643,2.07c1.887,6.043,3.828,18.139,6.42,23.914
						c0,0,2.209,19.1,2.209,28.629v23.515c9.258-1.115,24.471,0.631,32.685-0.108c2.684-0.241,4.116-1.021,8.695-3.168
						C140.727,354.701,135.286,327.809,134.639,291.644z"/>
					<g>
						<path style="fill:#25243E;" d="M112.382,294.307c0,0-0.289,0.128-0.693,0.477c-0.189,0.176-0.427,0.436-0.449,0.784
							c-0.014,0.372,0.245,0.673,0.609,0.937c0.732,0.515,1.791,0.789,2.903,1.004c1.122,0.212,2.346,0.296,3.566,0.293
							c1.225,0.001,2.441-0.081,3.566-0.294c1.112-0.216,2.17-0.489,2.903-1.004c0.361-0.252,0.626-0.584,0.608-0.939
							c-0.021-0.342-0.259-0.606-0.448-0.781c-0.404-0.35-0.693-0.477-0.693-0.477s0.296,0.1,0.739,0.422
							c0.206,0.168,0.489,0.405,0.556,0.827c0.061,0.424-0.237,0.86-0.618,1.139c-0.771,0.584-1.835,0.936-2.976,1.175
							c-1.143,0.235-2.398,0.34-3.636,0.357c-1.244-0.017-2.489-0.121-3.636-0.357c-0.575-0.106-1.12-0.274-1.625-0.461
							c-0.504-0.188-0.97-0.416-1.35-0.714c-0.19-0.149-0.354-0.32-0.476-0.512c-0.119-0.232-0.159-0.408-0.141-0.629
							c0.067-0.417,0.349-0.658,0.555-0.824C112.087,294.407,112.382,294.307,112.382,294.307z"/>
					</g>
					<path style="fill:#E2BDB3;" d="M112.194,283.065l0.433,12.125c0.184,0.21,4.55,3.449,11.007,0.839
						c0.073-3.852,0.147-7.704,0.22-11.557L112.194,283.065z"/>
					<path style="fill:#E2BDB3;" d="M115.599,266.91c-5.018,1.177-8.431,5.383-5.122,14.009c3.309,8.626,7.729,9.649,11.769,8.399
						c4.04-1.25,6.203-4.014,4.724-11.059C125.491,271.214,124.098,264.915,115.599,266.91z"/>
					<g>
						<path style="fill:#25243E;" d="M116.127,275.596c0,0,0.045-0.14,0.179-0.298c0.071-0.071,0.149-0.17,0.26-0.238
							c0.108-0.07,0.231-0.135,0.361-0.191c0.137-0.036,0.277-0.063,0.41-0.068c0.133-0.012,0.26,0.029,0.36,0.055
							c0.205,0.065,0.303,0.183,0.304,0.177c-0.021,0.012-0.523,0.075-0.936,0.238c-0.112,0.029-0.223,0.067-0.325,0.113
							c-0.102,0.044-0.211,0.07-0.297,0.108C116.265,275.556,116.127,275.596,116.127,275.596z"/>
					</g>
					<g>
						<path style="fill:#25243E;" d="M122.91,273.558c0,0,0.045-0.14,0.179-0.298c0.072-0.071,0.149-0.17,0.26-0.238
							c0.108-0.07,0.231-0.135,0.361-0.191c0.137-0.036,0.277-0.062,0.41-0.068c0.133-0.012,0.26,0.029,0.36,0.055
							c0.205,0.065,0.303,0.183,0.304,0.177c-0.021,0.012-0.523,0.075-0.936,0.238c-0.111,0.029-0.223,0.067-0.325,0.113
							c-0.102,0.045-0.211,0.07-0.297,0.108C123.048,273.518,122.91,273.558,122.91,273.558z"/>
					</g>
					<g>
						<path style="fill:#25243E;" d="M124.677,281.865c0,0-0.048,0.055-0.138,0.143c-0.089,0.087-0.219,0.212-0.408,0.332
							c-0.188,0.114-0.405,0.254-0.663,0.349c-0.255,0.1-0.536,0.181-0.819,0.25c-0.287,0.048-0.576,0.079-0.846,0.095
							c-0.271,0.019-0.525-0.012-0.739-0.026c-0.431-0.046-0.707-0.144-0.707-0.144s0.282-0.038,0.705-0.096
							c0.417-0.064,0.969-0.12,1.504-0.245c0.541-0.092,1.065-0.257,1.455-0.393c0.188-0.075,0.362-0.129,0.473-0.19
							C124.608,281.889,124.677,281.865,124.677,281.865z"/>
					</g>
					<g>
						<path style="fill:none;" d="M124.677,281.865"/>
					</g>
					<g>
						<path style="fill:none;" d="M120.355,282.863"/>
					</g>
					<g>
						<path style="fill:#25243E;" d="M122.516,279.019c0.017,0.005,0.09-0.232,0.425-0.485c0.093-0.044,0.181-0.118,0.311-0.14
							c0.118-0.037,0.277-0.048,0.421,0.016c0.148,0.054,0.283,0.18,0.349,0.326c0.077,0.144,0.1,0.306,0.092,0.455
							c-0.01,0.151-0.06,0.291-0.117,0.415c-0.059,0.126-0.127,0.24-0.209,0.337c-0.153,0.202-0.349,0.334-0.511,0.435
							c-0.158,0.112-0.318,0.152-0.419,0.195c-0.104,0.038-0.165,0.053-0.165,0.053s0.043-0.049,0.122-0.124
							c0.081-0.071,0.191-0.18,0.311-0.311c0.13-0.12,0.248-0.292,0.361-0.463c0.125-0.168,0.192-0.379,0.203-0.566
							c0.014-0.093,0.006-0.186-0.025-0.256c-0.025-0.077-0.077-0.13-0.14-0.16c-0.062-0.029-0.14-0.056-0.225-0.048
							c-0.085-0.012-0.169,0.032-0.25,0.047C122.741,278.858,122.516,279.036,122.516,279.019z"/>
					</g>
					<g>
						<path style="fill:#25243E;" d="M116.642,288.659c0,0,0.112,0.031,0.308,0.084c0.193,0.067,0.474,0.121,0.803,0.204
							c0.332,0.079,0.724,0.142,1.143,0.195c0.418,0.059,0.868,0.09,1.318,0.08c0.9,0.029,1.798-0.104,2.467-0.23
							c0.669-0.133,1.117-0.264,1.117-0.264s-0.391,0.257-1.053,0.495c-0.332,0.107-0.724,0.241-1.16,0.305
							c-0.434,0.072-0.903,0.117-1.374,0.119c-0.471-0.01-0.94-0.061-1.373-0.141c-0.435-0.072-0.824-0.215-1.154-0.33
							C117.025,288.92,116.642,288.659,116.642,288.659z"/>
					</g>
					<path style="fill:#E2BDB3;" d="M110.749,279.602c-5.957-3.215-1.034,8.144,2.486,4.966"/>
					<g>
						<path style="fill:#25243E;" d="M104.686,282.44c0,0-0.826,0.064-2.064,0.159c-1.234,0.116-2.877,0.267-4.502,0.538
							c-0.814,0.123-1.625,0.264-2.377,0.434c-0.373,0.095-0.744,0.153-1.084,0.248c-0.341,0.091-0.67,0.162-0.964,0.254
							c-0.59,0.182-1.09,0.316-1.426,0.451c-0.344,0.116-0.541,0.183-0.541,0.183s0.185-0.094,0.509-0.259
							c0.324-0.167,0.798-0.382,1.383-0.602c0.589-0.207,1.279-0.451,2.038-0.634c0.758-0.19,1.575-0.353,2.396-0.495
							c0.825-0.114,1.652-0.21,2.429-0.271c0.777-0.068,1.505-0.072,2.128-0.085C103.858,282.354,104.686,282.44,104.686,282.44z"/>
					</g>
					<g>
						<path style="fill:#25243E;" d="M140.521,283.065c0,0-0.756-0.164-1.895-0.344c-0.567-0.101-1.235-0.178-1.948-0.267
							c-0.713-0.088-1.476-0.153-2.24-0.181c-0.763-0.043-1.528-0.063-2.243-0.027c-0.358,0.019-0.705,0.019-1.031,0.052
							c-0.327,0.03-0.64,0.037-0.922,0.087c-0.569,0.075-1.047,0.133-1.375,0.212c-0.333,0.059-0.524,0.093-0.524,0.093
							s0.183-0.063,0.503-0.173c0.32-0.113,0.785-0.255,1.357-0.368c0.284-0.072,0.598-0.104,0.928-0.159
							c0.33-0.059,0.681-0.092,1.045-0.113c0.728-0.054,1.507-0.055,2.284-0.029c0.776,0.048,1.549,0.133,2.268,0.24
							c0.72,0.107,1.382,0.263,1.946,0.399C139.803,282.77,140.521,283.065,140.521,283.065z"/>
					</g>
					<path style="fill:#25243E;" d="M118.705,277.954c0.103,0.344-0.092,0.707-0.436,0.81c-0.344,0.103-0.707-0.092-0.81-0.436
						c-0.103-0.344,0.092-0.707,0.436-0.81C118.238,277.415,118.601,277.61,118.705,277.954z"/>
					<path style="fill:#25243E;" d="M125.418,275.937c0.103,0.344-0.092,0.707-0.436,0.81c-0.344,0.103-0.707-0.092-0.81-0.436
						c-0.103-0.344,0.092-0.707,0.436-0.81C124.952,275.398,125.315,275.593,125.418,275.937z"/>
					<path style="fill:#25243E;" d="M112.627,272.445c1.347,1.877,1.668,3.753,0.608,4.848s0.825,5.404,0,5.595
						c-0.825,0.191-3.093-3.751-4.07-3.852c-0.977-0.101-3.323-0.327-2.932-2.912c0.391-2.584-4.562-5.165-0.991-6.885
						c3.571-1.72,1.929-8.289,6.855-7.116c4.926,1.173,6.881-4.379,9.696-2.189c2.815,2.189,5.19,3.194,4.354,6.602
						c-0.835,3.407-3.807,4.424-6.7,3.564C116.555,269.239,115.404,273.62,112.627,272.445z"/>
					<g>
						<path style="fill:#2D505E;" d="M111.764,265.333c0,0,0.181-0.183,0.498-0.393c0.162-0.096,0.346-0.224,0.563-0.32
							c0.216-0.098,0.45-0.195,0.69-0.279c0.245-0.069,0.497-0.12,0.734-0.158c0.239-0.037,0.469-0.02,0.661-0.009
							c0.391,0.044,0.619,0.172,0.619,0.172s-0.063,0.005-0.174,0.015c-0.107-0.006-0.261,0.036-0.438,0.052
							c-0.179,0.025-0.381,0.085-0.599,0.133c-0.218,0.053-0.449,0.119-0.675,0.201c-0.464,0.13-0.921,0.302-1.276,0.409
							C112.012,265.269,111.764,265.333,111.764,265.333z"/>
					</g>
					<g>
						<path style="fill:#2D505E;" d="M117.673,264.84c0,0,0.25-0.062,0.63-0.076c0.188,0.002,0.412-0.011,0.647,0.019
							c0.235,0.029,0.486,0.067,0.735,0.121c0.245,0.068,0.487,0.156,0.709,0.247c0.223,0.093,0.41,0.227,0.569,0.336
							c0.311,0.241,0.439,0.469,0.439,0.469s-0.057-0.028-0.157-0.078c-0.089-0.061-0.242-0.105-0.401-0.183
							c-0.166-0.073-0.37-0.126-0.581-0.199c-0.214-0.068-0.445-0.132-0.681-0.18c-0.464-0.131-0.943-0.221-1.303-0.315
							C117.918,264.914,117.673,264.84,117.673,264.84z"/>
					</g>
					<g>
						<path style="fill:#2D505E;" d="M112.194,266.54c0,0,0.341-0.174,0.882-0.353c0.539-0.185,1.28-0.358,2.04-0.451
							c0.382-0.029,0.765-0.047,1.127-0.029c0.361,0.007,0.699,0.081,0.979,0.16c0.282,0.072,0.501,0.2,0.637,0.295
							c0.131,0.104,0.206,0.164,0.206,0.164s-0.089-0.033-0.244-0.09c-0.148-0.061-0.379-0.103-0.649-0.134
							c-0.27-0.042-0.592-0.033-0.934-0.026c-0.343,0-0.711,0.038-1.077,0.083c-0.368,0.029-0.737,0.076-1.082,0.129
							c-0.344,0.056-0.672,0.084-0.948,0.132C112.573,266.497,112.194,266.54,112.194,266.54z"/>
					</g>
					<g>
						<path style="fill:#2D505E;" d="M111.559,268.561c0,0,0.251-0.111,0.646-0.202c0.198-0.037,0.429-0.095,0.681-0.114
							c0.252-0.02,0.522-0.036,0.793-0.037c0.271,0.014,0.542,0.047,0.795,0.086c0.254,0.04,0.482,0.128,0.675,0.197
							c0.385,0.161,0.586,0.353,0.586,0.353s-0.266-0.069-0.649-0.122c-0.192-0.033-0.419-0.038-0.659-0.062
							c-0.241-0.02-0.499-0.031-0.759-0.028c-0.518-0.029-1.042-0.018-1.439-0.036C111.831,268.584,111.559,268.561,111.559,268.561
							z"/>
					</g>
					<g>
						<path style="fill:#2D505E;" d="M115.134,263.491c0,0,0.217-0.113,0.56-0.216c0.342-0.109,0.811-0.188,1.289-0.224
							c0.24-0.001,0.48,0.004,0.706,0.025c0.226,0.016,0.435,0.079,0.61,0.133c0.356,0.118,0.529,0.303,0.529,0.303
							s-0.237-0.059-0.576-0.068c-0.34-0.009-0.793-0.005-1.25,0.031c-0.229,0-0.46,0.011-0.676,0.024
							c-0.216,0.016-0.422,0.003-0.597,0.011C115.377,263.512,115.134,263.491,115.134,263.491z"/>
					</g>
					<g>
						<path style="fill:#2D505E;" d="M111.718,263.504c0,0-0.157,0.272-0.408,0.657c-0.132,0.188-0.267,0.42-0.432,0.652
							c-0.163,0.233-0.335,0.483-0.494,0.74c-0.349,0.493-0.662,1.006-0.884,1.399c-0.218,0.394-0.335,0.686-0.335,0.686
							s-0.02-0.319,0.114-0.777c0.074-0.224,0.157-0.49,0.295-0.75c0.136-0.26,0.29-0.533,0.458-0.795
							c0.18-0.255,0.371-0.499,0.553-0.726c0.182-0.227,0.381-0.414,0.542-0.582C111.46,263.685,111.718,263.504,111.718,263.504z"
							/>
					</g>
					<g>
						<path style="fill:#2D505E;" d="M106.989,275.486c0,0,0.171,0.137,0.431,0.295c0.128,0.083,0.287,0.158,0.452,0.244
							c0.163,0.088,0.346,0.165,0.535,0.228c0.182,0.079,0.371,0.145,0.552,0.197c0.182,0.048,0.35,0.118,0.502,0.151
							c0.298,0.086,0.507,0.16,0.507,0.16s-0.211,0.064-0.536,0.077c-0.326,0.027-0.761-0.046-1.179-0.19
							c-0.202-0.089-0.398-0.193-0.57-0.308c-0.175-0.112-0.306-0.263-0.419-0.38C107.048,275.705,106.989,275.486,106.989,275.486z
							"/>
					</g>
					<g>
						<path style="fill:#25243E;" d="M135.558,297.618c0,0,0.005,0.89-0.018,2.22c-0.031,1.329-0.074,3.102-0.115,4.874
							c-0.026,0.885-0.051,1.771-0.076,2.601c-0.018,0.83-0.034,1.605-0.048,2.269c-0.008,1.331-0.014,2.218-0.014,2.218
							s-0.142-0.88-0.225-2.212c-0.033-0.666-0.08-1.444-0.082-2.277c-0.002-0.833,0.002-1.722,0.02-2.61
							c0.042-0.887,0.084-1.775,0.123-2.606c0.045-0.831,0.124-1.605,0.178-2.269C135.428,298.499,135.558,297.618,135.558,297.618z
							"/>
					</g>
				</g>
				<g>
					<path style="fill:#25243E;" d="M112.518,469.619c0,0-0.132-0.649-0.04-1.637c0.057-0.49,0.147-1.068,0.362-1.658
						c0.112-0.291,0.242-0.591,0.4-0.88c0.17-0.284,0.335-0.579,0.562-0.831c0.205-0.271,0.465-0.488,0.718-0.703
						c0.239-0.233,0.547-0.365,0.805-0.543c0.267-0.167,0.567-0.244,0.83-0.356c0.262-0.12,0.538-0.136,0.777-0.202
						c0.48-0.135,0.899-0.102,1.183-0.128c0.285-0.008,0.448-0.012,0.448-0.012s-0.16,0.034-0.439,0.094
						c-0.278,0.059-0.68,0.111-1.132,0.277c-0.224,0.085-0.486,0.121-0.725,0.259c-0.24,0.13-0.511,0.229-0.759,0.387
						c-0.236,0.176-0.52,0.303-0.734,0.528c-0.229,0.206-0.463,0.413-0.645,0.669c-0.218,0.226-0.378,0.496-0.545,0.756
						c-0.156,0.265-0.286,0.544-0.401,0.816c-0.218,0.551-0.38,1.087-0.47,1.56C112.523,468.961,112.518,469.619,112.518,469.619z"
						/>
				</g>
				<g>
					<path style="fill:#25243E;" d="M150.867,467.696c0,0-0.132-0.649-0.04-1.637c0.057-0.49,0.147-1.068,0.362-1.658
						c0.113-0.291,0.242-0.591,0.4-0.88c0.17-0.284,0.335-0.579,0.562-0.831c0.205-0.271,0.465-0.488,0.718-0.703
						c0.239-0.233,0.547-0.365,0.805-0.543c0.267-0.167,0.567-0.244,0.83-0.356c0.262-0.12,0.538-0.136,0.777-0.202
						c0.48-0.135,0.9-0.102,1.183-0.128c0.285-0.008,0.448-0.012,0.448-0.012s-0.16,0.034-0.439,0.094
						c-0.278,0.06-0.68,0.11-1.132,0.277c-0.224,0.085-0.486,0.121-0.725,0.259c-0.24,0.13-0.511,0.229-0.759,0.387
						c-0.235,0.176-0.52,0.303-0.734,0.528c-0.229,0.206-0.463,0.413-0.645,0.669c-0.218,0.226-0.377,0.496-0.545,0.756
						c-0.156,0.265-0.286,0.544-0.401,0.816c-0.218,0.551-0.38,1.087-0.47,1.56C150.873,467.038,150.867,467.696,150.867,467.696z"
						/>
				</g>
			</g>
		</g>
		<path style="fill:#EA9D86;" d="M376.182,471.58c-5.734-0.984-6.183-5.455-12.238-7.728c-5.106-1.917-7.779,0.139-13.499,0.258
			c-13.14,0.272-15.368-10.238-29.358-12.586c-7.566-1.27-20.445-0.467-25.477,8.014c-4.28,7.213-0.663,16.239,0.192,18.245h93.94
			c-0.02-2.1-0.392-4.88-2.315-6.298C384.594,469.393,381.394,472.474,376.182,471.58z"/>
		<g>
			<polygon style="fill:#FFFFFF;" points="224.427,57.119 224.427,123.132 220.988,128.932 220.988,61.19 			"/>
			<polygon style="fill:#668BF9;" points="168.127,61.19 174.663,55.876 220.539,45.83 220.134,68.792 			"/>
			<g>
				<rect x="168.127" y="61.19" style="fill:#668BF9;" width="52.861" height="67.743"/>
				<text transform="matrix(1 0 0 1 172.6941 78.9589)"><tspan x="0" y="0" style="fill:#FFFFFF; font-family:'Metropolis-SemiBold'; font-size:10.2726px;">PATENT </tspan><tspan x="2.436" y="11.831" style="fill:#FFFFFF; font-family:'Metropolis-ExtraBold'; font-size:15.1875px;">LAW</tspan></text>
			</g>
			<polygon style="fill:#FFFFFF;" points="169.35,61.19 175.186,56.545 221.829,48.509 221.84,57.119 224.427,57.119 220.988,61.19 
							"/>
			<g>
				<path style="fill:#25243E;" d="M214.892,57.119c0,0-2.219,0.048-5.546,0.119c-1.664,0.019-3.605,0.041-5.685,0.065
					c-2.08,0.009-4.298,0.019-6.517,0.028c-2.218-0.009-4.437-0.019-6.517-0.028c-2.08-0.024-4.021-0.046-5.685-0.065
					c-3.328-0.072-5.546-0.12-5.546-0.12s2.218-0.048,5.546-0.12c1.664-0.019,3.605-0.041,5.685-0.065
					c2.08-0.009,4.298-0.018,6.517-0.028c2.218,0.01,4.437,0.019,6.517,0.028c2.08,0.024,4.021,0.046,5.685,0.065
					C212.673,57.072,214.892,57.119,214.892,57.119z"/>
			</g>
			<g>
				<path style="fill:#25243E;" d="M173.604,58.238c0,0,1.31-0.062,3.274-0.119c0.982-0.019,2.128-0.041,3.356-0.065
					c1.228-0.009,2.537-0.019,3.847-0.028c1.309,0.01,2.619,0.019,3.847,0.028c1.228,0.024,2.373,0.046,3.356,0.065
					c1.964,0.057,3.274,0.12,3.274,0.12s-1.31,0.062-3.274,0.12c-0.982,0.019-2.128,0.041-3.356,0.065
					c-1.228,0.009-2.537,0.018-3.847,0.028c-1.31-0.01-2.619-0.019-3.847-0.028c-1.228-0.024-2.374-0.046-3.356-0.065
					C174.914,58.3,173.604,58.238,173.604,58.238z"/>
			</g>
			<g>
				<path style="fill:#25243E;" d="M199.182,60.181c0,0,1.31-0.062,3.274-0.119c0.982-0.019,2.128-0.041,3.356-0.065
					c1.228-0.009,2.537-0.019,3.847-0.028c1.31,0.009,2.619,0.019,3.847,0.028c1.228,0.024,2.374,0.046,3.356,0.065
					c1.964,0.057,3.274,0.12,3.274,0.12s-1.31,0.062-3.274,0.12c-0.982,0.019-2.128,0.041-3.356,0.065
					c-1.228,0.009-2.537,0.018-3.847,0.028c-1.31-0.01-2.619-0.019-3.847-0.028c-1.228-0.024-2.373-0.046-3.356-0.065
					C200.491,60.243,199.182,60.181,199.182,60.181z"/>
			</g>
			<g>
				<path style="fill:#25243E;" d="M221.84,60.181c0,0,0.046,3.735,0.114,9.338c0.027,5.603,0.062,13.073,0.098,20.543
					c-0.036,7.47-0.071,14.941-0.098,20.543c-0.069,5.603-0.115,9.338-0.115,9.338s-0.046-3.735-0.115-9.338
					c-0.027-5.603-0.062-13.073-0.098-20.543c0.036-7.47,0.071-14.941,0.098-20.543C221.794,63.916,221.84,60.181,221.84,60.181z"/>
			</g>
			<g>
				<path style="fill:#25243E;" d="M223.141,65.922c0,0,0.046,3.735,0.114,9.338c0.027,5.603,0.062,13.073,0.098,20.543
					c-0.035,7.47-0.071,14.941-0.098,20.543c-0.069,5.603-0.115,9.338-0.115,9.338s-0.046-3.735-0.114-9.338
					c-0.027-5.603-0.062-13.073-0.098-20.543c0.036-7.47,0.071-14.941,0.098-20.543C223.096,69.657,223.141,65.922,223.141,65.922z"
					/>
			</g>
		</g>
		<g>
			<polygon style="fill:#FFFFFF;" points="375.902,172.487 375.902,238.501 372.462,244.3 372.462,176.557 			"/>
			<polygon style="fill:#EA9D86;" points="319.601,176.557 326.138,171.244 372.014,161.198 371.609,184.16 			"/>
			<g>
				<rect x="319.601" y="176.557" style="fill:#EA9D86;" width="52.861" height="67.743"/>
				<text transform="matrix(1 0 0 1 324.1689 194.3271)"><tspan x="0" y="0" style="fill:#FFFFFF; font-family:'Metropolis-SemiBold'; font-size:10.2726px;">PATENT </tspan><tspan x="2.436" y="11.831" style="fill:#FFFFFF; font-family:'Metropolis-ExtraBold'; font-size:15.1875px;">LAW</tspan></text>
			</g>
			<polygon style="fill:#FFFFFF;" points="320.825,176.557 326.661,171.913 373.304,163.877 373.315,172.487 375.902,172.487 
				372.462,176.557 			"/>
			<g>
				<path style="fill:#25243E;" d="M366.366,172.487c0,0-2.218,0.048-5.546,0.119c-1.664,0.019-3.605,0.041-5.685,0.065
					c-2.08,0.009-4.298,0.019-6.517,0.028c-2.219-0.01-4.437-0.019-6.517-0.028c-2.08-0.024-4.021-0.046-5.685-0.065
					c-3.328-0.072-5.546-0.12-5.546-0.12s2.218-0.048,5.546-0.12c1.664-0.019,3.605-0.041,5.685-0.065
					c2.08-0.009,4.298-0.018,6.517-0.028c2.218,0.01,4.437,0.019,6.517,0.028c2.08,0.024,4.021,0.046,5.685,0.065
					C364.148,172.44,366.366,172.487,366.366,172.487z"/>
			</g>
			<g>
				<path style="fill:#25243E;" d="M325.704,174.251c0,0,2.816-0.048,7.041-0.119c2.112-0.019,4.577-0.041,7.217-0.065
					c2.64-0.009,5.457-0.019,8.273-0.028c2.816,0.01,5.633,0.019,8.273,0.028c2.64,0.024,5.105,0.046,7.217,0.065
					c4.225,0.072,7.041,0.12,7.041,0.12s-2.816,0.048-7.041,0.12c-2.112,0.019-4.577,0.041-7.217,0.065
					c-2.64,0.009-5.457,0.018-8.273,0.028c-2.816-0.01-5.633-0.019-8.273-0.028c-2.64-0.024-5.105-0.046-7.217-0.065
					C328.521,174.299,325.704,174.251,325.704,174.251z"/>
			</g>
			<g>
				<path style="fill:#25243E;" d="M350.656,175.549c0,0,1.31-0.062,3.274-0.119c0.982-0.019,2.128-0.041,3.356-0.065
					c1.228-0.009,2.537-0.019,3.847-0.028c1.31,0.01,2.619,0.019,3.847,0.028c1.228,0.024,2.374,0.046,3.356,0.065
					c1.964,0.057,3.274,0.12,3.274,0.12s-1.31,0.062-3.274,0.12c-0.982,0.019-2.128,0.041-3.356,0.065
					c-1.228,0.009-2.537,0.018-3.847,0.028c-1.309-0.01-2.619-0.019-3.847-0.028c-1.228-0.024-2.374-0.046-3.356-0.065
					C351.966,175.611,350.656,175.549,350.656,175.549z"/>
			</g>
			<g>
				<path style="fill:#25243E;" d="M373.315,175.549c0,0,0.046,3.735,0.114,9.338c0.027,5.603,0.062,13.073,0.098,20.543
					c-0.036,7.47-0.071,14.941-0.098,20.543c-0.069,5.603-0.115,9.338-0.115,9.338s-0.046-3.735-0.115-9.338
					c-0.027-5.603-0.062-13.073-0.098-20.543c0.036-7.47,0.071-14.941,0.098-20.543
					C373.269,179.284,373.315,175.549,373.315,175.549z"/>
			</g>
			<g>
				<path style="fill:#25243E;" d="M374.616,181.29c0,0,0.046,3.735,0.114,9.338c0.027,5.603,0.062,13.073,0.098,20.543
					c-0.036,7.47-0.071,14.941-0.098,20.543c-0.069,5.603-0.114,9.338-0.114,9.338s-0.046-3.735-0.115-9.338
					c-0.027-5.603-0.062-13.073-0.098-20.543c0.036-7.47,0.071-14.941,0.098-20.543C374.571,185.025,374.616,181.29,374.616,181.29z
					"/>
			</g>
		</g>
		<g>
			<polygon style="fill:#FFFFFF;" points="267.262,150.792 267.262,202.71 264.556,207.272 264.556,153.993 			"/>
			<polygon style="fill:#E25287;" points="222.982,153.993 228.123,149.814 264.204,141.913 263.885,159.972 			"/>
			<g>
				<rect x="222.982" y="153.993" style="fill:#E25287;" width="41.574" height="53.278"/>
				<text transform="matrix(1 0 0 1 226.5745 167.9687)"><tspan x="0" y="0" style="fill:#FFFFFF; font-family:'Metropolis-SemiBold'; font-size:8.0792px;">PATENT </tspan><tspan x="1.915" y="9.305" style="fill:#FFFFFF; font-family:'Metropolis-ExtraBold'; font-size:11.9447px;">LAW</tspan></text>
			</g>
			<polygon style="fill:#FFFFFF;" points="223.944,153.993 228.535,150.34 265.219,144.02 265.227,150.792 267.262,150.792 
				264.556,153.993 			"/>
			<g>
				<path style="fill:#25243E;" d="M259.762,150.792c0,0-1.745,0.048-4.362,0.119c-1.309,0.019-2.835,0.041-4.471,0.065
					c-1.636,0.009-3.381,0.019-5.125,0.028c-1.745-0.01-3.49-0.019-5.125-0.028c-1.636-0.024-3.162-0.046-4.471-0.065
					c-2.617-0.072-4.362-0.12-4.362-0.12s1.745-0.048,4.362-0.12c1.309-0.019,2.835-0.041,4.471-0.065
					c1.636-0.009,3.381-0.018,5.125-0.028c1.745,0.01,3.49,0.019,5.125,0.028c1.636,0.024,3.162,0.046,4.471,0.065
					C258.017,150.744,259.762,150.792,259.762,150.792z"/>
			</g>
			<g>
				<path style="fill:#25243E;" d="M227.782,152.447c0,0,2.215-0.048,5.538-0.119c1.661-0.019,3.599-0.041,5.676-0.065
					c2.077-0.009,4.292-0.019,6.507-0.028c2.215,0.009,4.43,0.019,6.507,0.028c2.077,0.024,4.015,0.046,5.676,0.065
					c3.322,0.072,5.537,0.12,5.537,0.12s-2.215,0.048-5.537,0.12c-1.661,0.019-3.599,0.041-5.676,0.065
					c-2.077,0.009-4.292,0.018-6.507,0.028c-2.215-0.01-4.43-0.019-6.507-0.028c-2.077-0.024-4.015-0.046-5.676-0.065
					C229.997,152.495,227.782,152.447,227.782,152.447z"/>
			</g>
			<g>
				<path style="fill:#25243E;" d="M265.227,153.2c0,0,0.048,2.938,0.119,7.344c0.019,2.203,0.041,4.774,0.065,7.528
					c0.009,2.754,0.019,5.692,0.028,8.629c-0.009,2.938-0.019,5.875-0.028,8.629c-0.024,2.754-0.046,5.325-0.065,7.528
					c-0.072,4.406-0.12,7.344-0.12,7.344s-0.048-2.938-0.12-7.344c-0.019-2.203-0.041-4.774-0.065-7.528
					c-0.009-2.754-0.018-5.692-0.028-8.629c0.01-2.938,0.019-5.875,0.028-8.629c0.024-2.754,0.046-5.324,0.065-7.528
					C265.179,156.138,265.227,153.2,265.227,153.2z"/>
			</g>
			<g>
				<path style="fill:#25243E;" d="M266.25,157.715c0,0,0.048,2.938,0.119,7.344c0.019,2.203,0.041,4.774,0.065,7.528
					c0.009,2.754,0.019,5.692,0.028,8.629c-0.009,2.938-0.019,5.875-0.028,8.629c-0.024,2.754-0.046,5.324-0.065,7.528
					c-0.072,4.406-0.12,7.344-0.12,7.344s-0.048-2.938-0.12-7.344c-0.019-2.203-0.041-4.774-0.065-7.528
					c-0.009-2.754-0.018-5.692-0.028-8.629c0.01-2.938,0.019-5.875,0.028-8.629c0.024-2.754,0.046-5.324,0.065-7.528
					C266.203,160.652,266.25,157.715,266.25,157.715z"/>
			</g>
		</g>
	</g>
</g>
</svg>
