<?xml version="1.0" encoding="utf-8"?>
<!-- Generator: Adobe Illustrator 27.5.0, SVG Export Plug-In . SVG Version: 6.00 Build 0)  -->
<svg version="1.1" xmlns="http://www.w3.org/2000/svg" xmlns:xlink="http://www.w3.org/1999/xlink" x="0px" y="0px"
	 viewBox="0 0 750 500" style="enable-background:new 0 0 750 500;" xml:space="preserve">
<g id="BACKGROUND">
	<rect style="fill:#FFFFFF;" width="750" height="500"/>
</g>
<g id="OBJECTS">
	<g>
		<g>
			<path style="fill:#C6D4F7;" d="M453.112,237.663L453.112,237.663c0-10.421,8.448-18.869,18.869-18.869H510.3
				c9.783,0,17.713-7.931,17.713-17.713v0c0-9.783-7.931-17.713-17.713-17.713H270.614c-17.567,0-31.807,14.241-31.807,31.807l0,0
				c0,17.567-14.24,31.807-31.807,31.807h-88.392c-14.856,0-26.9,12.043-26.9,26.9v0c0,14.856,12.043,26.9,26.9,26.9h35.261
				c8.244,0,14.926,6.683,14.926,14.926l0,0c0,8.244-6.683,14.926-14.926,14.926H90.386c-34.685,0-62.804,28.118-62.804,62.803v0
				c0,34.685,28.118,62.803,62.804,62.803h160.421h141.451h218.045c55.148,0,99.854-44.706,99.854-99.854v0
				c0-55.148-44.706-99.854-99.854-99.854H471.981C461.56,256.532,453.112,248.084,453.112,237.663z"/>
			<path style="fill:#C6D4F7;" d="M325.391,164.712h130.733c9.588,0,17.361-7.773,17.361-17.361l0,0
				c0-9.588-7.773-17.36-17.361-17.36H325.391c-9.588,0-17.361,7.772-17.361,17.36l0,0
				C308.031,156.939,315.803,164.712,325.391,164.712z"/>
		</g>
		<path style="fill:#FFFFFF;" d="M185.927,265.895l-1.865,0.232c-0.399-1.144-0.927-1.991-1.587-2.807l0.002-0.035l1.153-1.497
			c0.257-0.33,0.197-0.812-0.133-1.069l-2.579-2.011c-0.33-0.257-0.805-0.199-1.062,0.13l-1.284,1.494
			c-0.984-0.443-1.517-0.772-3.191-0.817l-0.001-0.008l-0.081-1.88c-0.052-0.415-0.393-0.672-0.808-0.621l-3.205,0.4
			c-0.415,0.052-0.513,0.367-0.461,0.781l0.242,1.864c-1.144,0.399-2.02,0.931-2.837,1.59l-0.05,0l-1.504-1.151
			c-0.33-0.257-0.816-0.196-1.072,0.134l-2.013,2.579c-0.257,0.329-0.2,0.805,0.129,1.062l1.49,1.223
			c-0.443,0.984-0.75,1.732-0.821,3.131l-0.009,0.001l-1.867,0.212c-0.415,0.052-0.616,0.309-0.564,0.724l0.403,3.238
			c0.052,0.414,0.318,0.678,0.733,0.627l1.864-0.234c0.4,1.144,0.922,1.954,1.582,2.77l-0.004,0.017l-1.154,1.488
			c-0.257,0.33-0.197,0.807,0.133,1.064l2.579,2.009c0.33,0.257,0.805,0.198,1.061-0.132l1.212-1.49
			c0.984,0.443,1.997,0.722,3.12,0.82l0.001,0.009l0.257,1.862c0.052,0.414,0.282,0.763,0.696,0.711l3.249-0.405
			c0.414-0.052,0.734-0.468,0.683-0.882l-0.413-1.847c1.144-0.4,2.06-0.932,2.555-1.56l0.001,0.006l1.663,1.137
			c0.33,0.257,0.895,0.189,1.151-0.141l2.052-2.583c0.257-0.33,0.22-0.807-0.11-1.064l-1.483-1.273
			c0.443-0.984,0.777-1.506,0.827-3.181l0.008-0.001l1.875-0.126c0.415-0.052,0.819-0.366,0.768-0.78l-0.401-3.216
			C186.805,265.984,186.341,265.843,185.927,265.895z M173.155,274.147c-0.048-0.014-0.095-0.029-0.142-0.045
			c-0.144-0.049-0.286-0.104-0.424-0.166c-0.069-0.031-0.137-0.064-0.205-0.098c-0.067-0.034-0.134-0.07-0.199-0.107
			c-0.033-0.019-0.065-0.038-0.098-0.057c-0.187-0.112-0.365-0.237-0.534-0.374c-0.169-0.137-0.329-0.285-0.478-0.445
			c-0.06-0.064-0.117-0.129-0.174-0.196c-0.168-0.201-0.32-0.417-0.454-0.646c-0.312-0.534-0.523-1.138-0.604-1.791
			c-0.171-1.37,0.266-2.676,1.099-3.647c0.074-0.086,0.15-0.169,0.23-0.249c0.026-0.027,0.053-0.053,0.08-0.079
			c0.054-0.052,0.11-0.103,0.167-0.153c0.171-0.149,0.353-0.286,0.544-0.41c0.064-0.041,0.129-0.081,0.195-0.119
			c0.529-0.306,1.127-0.513,1.772-0.593c0.766-0.095,1.511-0.001,2.19,0.246c0.071,0.026,0.142,0.054,0.212,0.083
			c0.105,0.044,0.208,0.092,0.309,0.143c0.067,0.034,0.134,0.07,0.199,0.107c0.033,0.019,0.065,0.038,0.098,0.057
			c0.064,0.039,0.128,0.079,0.191,0.121c0.094,0.063,0.186,0.129,0.275,0.198c0.059,0.046,0.118,0.094,0.175,0.143
			c0.143,0.122,0.278,0.254,0.406,0.393c0.051,0.056,0.101,0.112,0.149,0.171s0.095,0.117,0.141,0.178
			c0.068,0.091,0.134,0.184,0.196,0.28c0.371,0.576,0.622,1.242,0.713,1.967c0.05,0.403,0.048,0.8-0.002,1.185
			c-0.01,0.077-0.022,0.154-0.035,0.229c-0.02,0.114-0.045,0.227-0.074,0.338c-0.019,0.074-0.04,0.148-0.062,0.22
			c-0.015,0.049-0.031,0.097-0.048,0.145c-0.033,0.096-0.069,0.191-0.108,0.284c-0.029,0.07-0.06,0.139-0.093,0.207
			c-0.026,0.054-0.053,0.108-0.081,0.161c-0.025,0.047-0.05,0.094-0.076,0.14c-0.019,0.033-0.038,0.065-0.057,0.098
			c-0.039,0.065-0.079,0.128-0.121,0.191c-0.021,0.031-0.042,0.062-0.064,0.093c-0.043,0.062-0.088,0.122-0.135,0.181
			c-0.023,0.03-0.046,0.059-0.07,0.088c-0.095,0.116-0.196,0.228-0.302,0.336c-0.026,0.027-0.053,0.053-0.08,0.079
			c-0.054,0.052-0.11,0.103-0.167,0.153c-0.057,0.05-0.115,0.098-0.174,0.145c-0.03,0.024-0.06,0.047-0.09,0.07
			c-0.061,0.046-0.122,0.09-0.185,0.133c-0.597,0.406-1.297,0.68-2.062,0.776c-0.616,0.077-1.219,0.03-1.785-0.119
			C173.258,274.177,173.206,274.163,173.155,274.147z"/>
		<path style="fill:#FFFFFF;" d="M373.655,202.815v-0.104c0-5.079,3.472-9.277,8.603-9.277c5.131,0,8.499,4.198,8.499,9.173v0.104
			c0,5.027-3.42,9.277-8.603,9.277C377.075,211.988,373.655,207.79,373.655,202.815z M386.145,202.815v-0.104
			c0-2.902-1.658-5.286-3.991-5.286c-2.436,0-3.887,2.384-3.887,5.183v0.104c0,2.954,1.659,5.286,3.991,5.286
			C384.694,207.998,386.145,205.613,386.145,202.815z M379.615,227.018l23.789-32.496c0.363-0.622,1.036-0.933,1.762-0.933
			c1.14,0,2.073,0.881,2.073,2.021c0,0.518-0.207,0.985-0.467,1.348l-23.789,32.496c-0.415,0.622-1.088,0.933-1.814,0.933
			c-1.14,0-2.021-0.881-2.021-2.021C379.148,227.847,379.355,227.381,379.615,227.018z M395.578,221.369v-0.104
			c0-5.079,3.472-9.277,8.603-9.277c5.079,0,8.5,4.198,8.5,9.173v0.104c0,5.027-3.473,9.277-8.603,9.277
			C398.998,230.542,395.578,226.344,395.578,221.369z M408.068,221.369v-0.104c0-2.902-1.658-5.286-3.991-5.286
			c-2.436,0-3.887,2.384-3.887,5.183v0.104c0,2.954,1.659,5.286,3.991,5.286C406.617,226.552,408.068,224.168,408.068,221.369z"/>
		<path style="fill:#C6D4F7;" d="M183.825,140.345l-5.386-0.798c-0.228-3.503-1.043-6.279-2.253-9.07l0.032-0.098l4.38-3.286
			c0.972-0.721,1.179-2.115,0.457-3.087l-5.641-7.616c-0.722-0.972-2.093-1.181-3.066-0.46l-4.743,3.176
			c-2.404-2-3.637-3.334-8.277-4.757l0.004-0.025l1.232-5.312c0.177-1.198-0.576-2.183-1.774-2.36l-9.26-1.369
			c-1.198-0.177-1.717,0.626-1.894,1.824l-0.771,5.391c-3.503,0.228-6.363,1.031-9.155,2.24l-0.139-0.038l-3.307-4.383
			c-0.721-0.972-2.125-1.18-3.097-0.459l-7.622,5.641c-0.972,0.721-1.183,2.093-0.462,3.065l3.21,4.572
			c-2,2.404-3.438,4.256-4.722,8.105l-0.025-0.004l-5.377-0.857c-1.197-0.177-1.959,0.386-2.137,1.584l-1.386,9.354
			c-0.177,1.197,0.362,2.141,1.559,2.318l5.387,0.794c0.228,3.503,1.059,6.171,2.268,8.963l-0.024,0.044l-4.376,3.259
			c-0.972,0.721-1.177,2.101-0.455,3.074l5.643,7.61c0.721,0.972,2.094,1.177,3.066,0.456l4.54-3.221
			c2.404,2,5.015,3.564,8.074,4.711l-0.004,0.025l-0.728,5.4c-0.177,1.197,0.195,2.348,1.393,2.525l9.387,1.391
			c1.197,0.177,2.413-0.737,2.591-1.934l0.279-5.478c3.503-0.228,6.475-1.003,8.343-2.374l-0.003,0.017l3.761,4.464
			c0.721,0.972,2.352,1.221,3.324,0.499l7.735-5.62c0.972-0.721,1.24-2.083,0.519-3.055l-3.154-4.707
			c2-2.404,3.338-3.603,4.778-8.24l0.024,0.004l5.335,1.103c1.197,0.177,2.572-0.385,2.749-1.583l1.375-9.293
			C186.208,141.276,185.022,140.523,183.825,140.345z M141.758,153.478c-0.122-0.077-0.243-0.156-0.362-0.236
			c-0.365-0.248-0.717-0.512-1.054-0.793c-0.169-0.14-0.334-0.284-0.495-0.432c-0.161-0.148-0.319-0.299-0.473-0.454
			c-0.077-0.078-0.153-0.156-0.228-0.235c-0.434-0.459-0.835-0.947-1.202-1.46c-0.366-0.513-0.697-1.052-0.99-1.612
			c-0.117-0.224-0.228-0.452-0.333-0.682c-0.314-0.692-0.571-1.413-0.767-2.155c-0.456-1.732-0.577-3.584-0.298-5.469
			c0.586-3.958,2.819-7.266,5.9-9.331c0.272-0.182,0.55-0.355,0.835-0.517c0.095-0.054,0.19-0.107,0.286-0.159
			c0.192-0.104,0.387-0.203,0.585-0.298c0.592-0.284,1.206-0.526,1.838-0.723c0.211-0.066,0.423-0.126,0.638-0.182
			c1.715-0.444,3.546-0.558,5.408-0.282c2.212,0.328,4.221,1.169,5.923,2.386c0.179,0.128,0.355,0.26,0.527,0.396
			c0.258,0.204,0.509,0.418,0.751,0.639c0.161,0.148,0.319,0.299,0.473,0.454c0.077,0.078,0.153,0.156,0.228,0.235
			c0.15,0.159,0.296,0.321,0.439,0.486c0.213,0.248,0.418,0.504,0.613,0.767c0.13,0.175,0.256,0.353,0.377,0.535
			c0.304,0.453,0.581,0.924,0.829,1.412c0.099,0.195,0.194,0.392,0.284,0.592c0.09,0.2,0.175,0.402,0.256,0.606
			c0.12,0.307,0.23,0.618,0.329,0.934c0.59,1.896,0.774,3.951,0.464,6.046c-0.173,1.164-0.487,2.272-0.924,3.309
			c-0.087,0.207-0.18,0.412-0.277,0.613c-0.145,0.302-0.302,0.598-0.468,0.886c-0.111,0.192-0.226,0.382-0.346,0.567
			c-0.08,0.124-0.162,0.246-0.245,0.366c-0.167,0.242-0.341,0.479-0.523,0.708c-0.136,0.172-0.276,0.341-0.421,0.506
			c-0.115,0.131-0.232,0.26-0.351,0.386c-0.106,0.112-0.213,0.223-0.322,0.332c-0.078,0.077-0.156,0.153-0.235,0.228
			c-0.159,0.15-0.321,0.296-0.486,0.439c-0.083,0.071-0.167,0.141-0.251,0.21c-0.169,0.138-0.341,0.272-0.516,0.402
			c-0.087,0.065-0.176,0.129-0.265,0.192c-0.356,0.251-0.725,0.486-1.104,0.703c-0.095,0.054-0.19,0.107-0.286,0.159
			c-0.192,0.104-0.387,0.203-0.585,0.298c-0.197,0.095-0.397,0.185-0.599,0.27c-0.101,0.043-0.203,0.084-0.305,0.124
			c-0.204,0.08-0.411,0.156-0.619,0.227c-1.982,0.671-4.149,0.894-6.361,0.566c-1.78-0.264-3.428-0.861-4.891-1.718
			C142.023,153.642,141.89,153.561,141.758,153.478z"/>
		<path style="fill:#FFFFFF;" d="M498.215,315.258l-3.718-0.551c-0.157-2.418-0.72-4.334-1.555-6.26l0.022-0.067l3.023-2.268
			c0.671-0.498,0.814-1.46,0.316-2.131l-3.894-5.257c-0.498-0.671-1.445-0.815-2.116-0.317l-3.274,2.192
			c-1.659-1.38-2.511-2.301-5.713-3.283l0.003-0.017l0.851-3.666c0.122-0.827-0.398-1.507-1.224-1.629l-6.392-0.945
			c-0.827-0.122-1.185,0.432-1.307,1.259l-0.532,3.721c-2.418,0.157-4.392,0.712-6.319,1.546l-0.096-0.026l-2.283-3.025
			c-0.498-0.671-1.467-0.815-2.138-0.317l-5.261,3.893c-0.671,0.498-0.817,1.445-0.319,2.116l2.216,3.155
			c-1.38,1.659-2.373,2.938-3.259,5.594l-0.017-0.003l-3.711-0.592c-0.827-0.122-1.352,0.267-1.475,1.093l-0.956,6.457
			c-0.122,0.827,0.25,1.478,1.076,1.6l3.719,0.548c0.157,2.418,0.731,4.26,1.566,6.186l-0.017,0.03l-3.02,2.25
			c-0.671,0.498-0.812,1.45-0.314,2.122l3.895,5.253c0.498,0.671,1.445,0.813,2.116,0.315l3.134-2.223
			c1.659,1.38,3.462,2.46,5.573,3.252l-0.003,0.017l-0.502,3.727c-0.122,0.826,0.135,1.621,0.961,1.743l6.479,0.96
			c0.826,0.122,1.666-0.508,1.788-1.335l0.193-3.781c2.418-0.157,4.469-0.693,5.759-1.638l-0.002,0.012l2.596,3.081
			c0.498,0.671,1.623,0.843,2.294,0.345l5.339-3.879c0.671-0.498,0.856-1.438,0.358-2.109l-2.177-3.249
			c1.38-1.659,2.304-2.487,3.298-5.688l0.017,0.003l3.682,0.761c0.826,0.122,1.775-0.266,1.897-1.092l0.949-6.414
			C499.86,315.901,499.042,315.381,498.215,315.258z M469.18,324.323c-0.084-0.053-0.168-0.107-0.25-0.163
			c-0.252-0.171-0.495-0.354-0.728-0.547c-0.116-0.097-0.23-0.196-0.342-0.298c-0.112-0.102-0.22-0.207-0.327-0.314
			c-0.053-0.053-0.106-0.108-0.157-0.163c-0.299-0.316-0.577-0.653-0.829-1.008s-0.481-0.726-0.683-1.113
			c-0.081-0.155-0.157-0.312-0.23-0.471c-0.217-0.478-0.394-0.975-0.53-1.488c-0.315-1.196-0.398-2.474-0.205-3.775
			c0.405-2.732,1.945-5.015,4.072-6.441c0.188-0.126,0.38-0.245,0.576-0.357c0.065-0.037,0.131-0.074,0.198-0.11
			c0.133-0.072,0.267-0.14,0.404-0.206c0.409-0.196,0.833-0.363,1.269-0.499c0.145-0.045,0.292-0.087,0.44-0.125
			c1.184-0.306,2.447-0.385,3.733-0.195c1.527,0.226,2.913,0.807,4.088,1.647c0.124,0.088,0.245,0.18,0.364,0.274
			c0.178,0.141,0.351,0.288,0.518,0.441c0.112,0.102,0.22,0.207,0.327,0.314c0.053,0.053,0.106,0.108,0.157,0.162
			c0.104,0.11,0.205,0.221,0.303,0.336c0.147,0.171,0.288,0.348,0.423,0.529c0.09,0.121,0.177,0.244,0.26,0.369
			c0.21,0.313,0.401,0.638,0.572,0.974c0.069,0.134,0.134,0.271,0.196,0.409c0.062,0.138,0.121,0.277,0.176,0.419
			c0.083,0.211,0.159,0.426,0.227,0.645c0.408,1.309,0.534,2.727,0.32,4.173c-0.119,0.803-0.336,1.568-0.638,2.284
			c-0.06,0.143-0.124,0.284-0.191,0.423c-0.1,0.209-0.208,0.413-0.323,0.612c-0.076,0.133-0.156,0.263-0.238,0.392
			c-0.055,0.085-0.112,0.169-0.169,0.253c-0.115,0.167-0.235,0.33-0.361,0.489c-0.094,0.119-0.191,0.235-0.29,0.349
			c-0.079,0.091-0.16,0.179-0.242,0.267c-0.073,0.077-0.147,0.154-0.222,0.229c-0.054,0.053-0.108,0.106-0.163,0.158
			c-0.109,0.104-0.221,0.204-0.336,0.303c-0.057,0.049-0.115,0.098-0.173,0.145c-0.116,0.095-0.235,0.188-0.356,0.278
			c-0.06,0.045-0.121,0.089-0.183,0.132c-0.246,0.174-0.5,0.336-0.762,0.485c-0.065,0.037-0.131,0.074-0.198,0.11
			c-0.133,0.072-0.267,0.14-0.404,0.206c-0.136,0.065-0.274,0.127-0.414,0.186c-0.07,0.029-0.14,0.058-0.21,0.086
			c-0.141,0.055-0.284,0.108-0.428,0.156c-1.368,0.463-2.863,0.617-4.39,0.391c-1.229-0.182-2.366-0.594-3.376-1.186
			C469.363,324.436,469.271,324.38,469.18,324.323z"/>
		<path style="fill:#FFFFFF;" d="M509.949,277.047l-2.188,0.273c-0.469-1.342-1.088-2.336-1.862-3.294l0.002-0.042l1.353-1.757
			c0.301-0.387,0.231-0.953-0.156-1.254l-3.027-2.36c-0.387-0.301-0.945-0.234-1.246,0.153l-1.506,1.753
			c-1.155-0.52-1.78-0.906-3.745-0.958l-0.001-0.01l-0.095-2.206c-0.061-0.487-0.462-0.789-0.948-0.729l-3.761,0.47
			c-0.487,0.061-0.602,0.43-0.541,0.917l0.284,2.187c-1.342,0.469-2.371,1.092-3.329,1.866l-0.059,0l-1.765-1.351
			c-0.387-0.301-0.957-0.23-1.258,0.157l-2.362,3.027c-0.301,0.387-0.235,0.945,0.152,1.246l1.748,1.436
			c-0.52,1.155-0.88,2.033-0.964,3.674l-0.01,0.001l-2.191,0.248c-0.486,0.061-0.722,0.363-0.662,0.85l0.474,3.8
			c0.061,0.486,0.373,0.796,0.86,0.736l2.188-0.274c0.469,1.342,1.082,2.293,1.857,3.251l-0.005,0.02l-1.354,1.746
			c-0.301,0.387-0.231,0.947,0.156,1.249l3.026,2.357c0.387,0.301,0.945,0.232,1.246-0.154l1.422-1.749
			c1.155,0.52,2.343,0.847,3.661,0.963l0.001,0.01l0.302,2.185c0.061,0.486,0.331,0.895,0.817,0.834l3.813-0.475
			c0.486-0.061,0.862-0.549,0.801-1.035l-0.485-2.167c1.342-0.469,2.417-1.093,2.998-1.831l0.001,0.007l1.951,1.334
			c0.387,0.301,1.05,0.221,1.351-0.165l2.408-3.031c0.301-0.387,0.258-0.947-0.129-1.248l-1.741-1.495
			c0.52-1.155,0.912-1.768,0.971-3.733l0.01-0.001l2.201-0.148c0.486-0.061,0.962-0.429,0.901-0.915l-0.471-3.775
			C510.98,277.151,510.436,276.986,509.949,277.047z M494.961,286.731c-0.056-0.017-0.112-0.034-0.167-0.053
			c-0.169-0.057-0.335-0.122-0.497-0.195c-0.081-0.036-0.161-0.075-0.24-0.115c-0.079-0.04-0.157-0.082-0.234-0.126
			c-0.038-0.022-0.077-0.044-0.115-0.067c-0.219-0.132-0.429-0.279-0.627-0.439c-0.198-0.161-0.386-0.335-0.561-0.522
			c-0.07-0.075-0.138-0.152-0.204-0.23c-0.198-0.236-0.376-0.489-0.533-0.758c-0.366-0.626-0.614-1.336-0.709-2.101
			c-0.2-1.608,0.312-3.14,1.29-4.28c0.086-0.101,0.176-0.198,0.27-0.292c0.031-0.031,0.063-0.063,0.095-0.093
			c0.064-0.061,0.129-0.121,0.196-0.18c0.2-0.175,0.414-0.336,0.639-0.481c0.075-0.049,0.151-0.095,0.229-0.14
			c0.621-0.359,1.323-0.602,2.079-0.696c0.898-0.112,1.773-0.001,2.569,0.289c0.084,0.031,0.167,0.063,0.249,0.098
			c0.123,0.052,0.244,0.108,0.362,0.168c0.079,0.04,0.157,0.082,0.234,0.126c0.038,0.022,0.077,0.044,0.115,0.067
			c0.076,0.046,0.15,0.093,0.224,0.142c0.11,0.074,0.218,0.151,0.322,0.233c0.07,0.054,0.138,0.11,0.205,0.168
			c0.168,0.144,0.327,0.298,0.476,0.461c0.06,0.065,0.118,0.132,0.175,0.2c0.057,0.068,0.112,0.138,0.165,0.209
			c0.08,0.106,0.157,0.216,0.229,0.329c0.436,0.676,0.73,1.457,0.836,2.309c0.059,0.473,0.056,0.939-0.002,1.391
			c-0.012,0.09-0.026,0.18-0.042,0.269c-0.024,0.134-0.053,0.266-0.086,0.396c-0.022,0.087-0.047,0.173-0.073,0.259
			c-0.018,0.057-0.037,0.113-0.056,0.17c-0.039,0.112-0.081,0.224-0.127,0.333c-0.034,0.082-0.071,0.163-0.109,0.243
			c-0.03,0.064-0.062,0.126-0.095,0.189c-0.029,0.055-0.059,0.11-0.09,0.164c-0.022,0.038-0.044,0.077-0.067,0.115
			c-0.046,0.076-0.093,0.15-0.142,0.224c-0.025,0.037-0.05,0.073-0.075,0.109c-0.051,0.072-0.103,0.143-0.158,0.213
			c-0.027,0.035-0.055,0.069-0.083,0.104c-0.112,0.137-0.23,0.268-0.355,0.394c-0.031,0.031-0.063,0.062-0.095,0.093
			c-0.064,0.061-0.129,0.121-0.196,0.18c-0.067,0.058-0.135,0.115-0.205,0.17c-0.035,0.028-0.07,0.055-0.105,0.081
			c-0.071,0.053-0.143,0.105-0.217,0.156c-0.701,0.477-1.522,0.798-2.42,0.91c-0.723,0.09-1.431,0.036-2.094-0.14
			C495.082,286.766,495.022,286.749,494.961,286.731z"/>
		<path style="fill:#C6D4F7;" d="M583.649,109.606c0,0-3.692-24.396-18.066-24.132c-14.374,0.264-14.769,23.868-14.769,23.868
			s-4.352-21.363-19.517-18.725c-15.165,2.637-16.747,22.549-16.747,22.549c-12.528-5.802-15.565,8.319-15.565,8.319h99.228
			C596.912,109.729,583.649,109.606,583.649,109.606z"/>
		<path style="fill:#C6D4F7;" d="M125.942,205.397c0,0-3.692-24.396-18.066-24.132c-14.374,0.264-14.769,23.868-14.769,23.868
			s-4.352-21.363-19.517-18.725c-15.165,2.637-16.747,22.549-16.747,22.549c-12.528-5.802-15.565,8.319-15.565,8.319h99.229
			C139.206,205.52,125.942,205.397,125.942,205.397z"/>
		<path style="fill:#C6D4F7;" d="M598.926,190.204h57.497c0,0-3.08-18.248-14.962-11.532c0,0-1.808-16.273-17.307-16.532
			c-15.499-0.258-12.657,18.598-12.657,18.598S598.495,177.971,598.926,190.204z"/>
		<g>
			<rect x="91.744" y="387.162" style="fill:#FFFFFF;" width="9.052" height="40.959"/>
			<rect x="110.76" y="397.148" style="fill:#FFFFFF;" width="9.052" height="30.973"/>
			<rect x="129.776" y="377.769" style="fill:#2E2854;" width="9.052" height="50.352"/>
			
				<line style="fill:none;stroke:#2E2854;stroke-width:1.2;stroke-linecap:round;stroke-linejoin:round;stroke-miterlimit:10;" x1="84.259" y1="428.121" x2="146.313" y2="428.121"/>
		</g>
		<path style="fill:#FFFFFF;" d="M582.337,414.673h-11.358c-4.804,0-8.698,3.894-8.698,8.698c0,4.804,3.894,8.698,8.698,8.698h0.029
			v3.686c0,0.752,0.909,1.129,1.441,0.597l4.283-4.283h5.606c4.804,0,8.698-3.894,8.698-8.698
			C591.034,418.568,587.14,414.673,582.337,414.673z"/>
		<path style="fill:#FFFFFF;" d="M451.384,179.24h-11.358c-4.804,0-8.698,3.894-8.698,8.698s3.894,8.698,8.698,8.698h0.029v3.686
			c0,0.752,0.909,1.129,1.441,0.597l4.283-4.283h5.605c4.804,0,8.698-3.894,8.698-8.698S456.188,179.24,451.384,179.24z"/>
		<path style="fill:#FFFFFF;" d="M120.965,351.079h-11.358c-4.804,0-8.698,3.894-8.698,8.698c0,4.804,3.894,8.698,8.698,8.698h0.029
			v3.686c0,0.752,0.909,1.129,1.441,0.597l4.283-4.283h5.605c4.804,0,8.698-3.894,8.698-8.698
			C129.663,354.974,125.769,351.079,120.965,351.079z"/>
	</g>
	<g>
		<path style="fill:#2E2854;" d="M402.636,86.219l-2.76,4.757c-1.187,2.046-3.616,2.692-5.665,1.503
			c-1.901-1.103-2.692-3.616-1.504-5.663l4.416-7.611c0.042-0.072,0.116-0.028,0.159-0.103c-0.031-0.118-0.031-0.118,0.01-0.189
			c1.104-1.903,3.764-2.61,5.664-1.507c4.611,2.675,10.466,1.183,13.098-3.354c2.674-4.608,1.022-10.36-3.589-13.035
			c-3-1.74-6.568-1.657-9.359-0.051c-2.041,1.165-4.576,0.475-5.738-1.57c-1.09-1.998-0.442-4.461,1.601-5.621
			c5.265-3.009,12.023-3.197,17.656,0.072c8.489,4.926,11.448,15.836,6.524,24.322C418.945,85.414,410.372,88.558,402.636,86.219z
			 M393.339,102.241l-0.764,1.317c-1.189,2.049-3.618,2.695-5.667,1.506c-1.9-1.103-2.692-3.616-1.503-5.666l0.764-1.317
			c1.146-1.975,3.762-2.607,5.663-1.504C393.881,97.766,394.485,100.267,393.339,102.241z"/>
		<path style="fill:#2E2854;" d="M211.3,103.44l1.831,3.457c0.788,1.487,0.262,3.196-1.227,3.985
			c-1.381,0.732-3.196,0.262-3.983-1.225l-2.93-5.531c-0.027-0.052,0.027-0.081-0.002-0.135c-0.083-0.026-0.083-0.026-0.11-0.077
			c-0.733-1.383-0.158-3.254,1.223-3.986c3.351-1.775,4.655-5.87,2.909-9.167c-1.774-3.349-5.867-4.518-9.217-2.743
			c-2.18,1.155-3.473,3.339-3.555,5.628c-0.066,1.67-1.437,2.94-3.108,2.872c-1.616-0.095-2.858-1.413-2.789-3.083
			c0.167-4.31,2.599-8.459,6.692-10.627c6.169-3.268,13.867-0.945,17.134,5.222C216.956,93.295,215.625,99.652,211.3,103.44z
			 M217.468,115.083l0.507,0.957c0.789,1.489,0.264,3.198-1.226,3.987c-1.381,0.732-3.196,0.262-3.985-1.227l-0.507-0.957
			c-0.76-1.435-0.156-3.252,1.225-3.983C214.972,113.071,216.708,113.648,217.468,115.083z"/>
		<path style="fill:#2E2854;" d="M413.169,127.899l-2.961,2.556c-1.274,1.1-3.057,0.969-4.158-0.307
			c-1.021-1.183-0.969-3.057,0.305-4.156l4.738-4.089c0.044-0.038,0.085,0.008,0.131-0.032c0.006-0.086,0.006-0.086,0.051-0.125
			c1.185-1.023,3.137-0.879,4.158,0.304c2.478,2.871,6.76,3.229,9.584,0.791c2.869-2.476,3.096-6.727,0.618-9.597
			c-1.612-1.867-4.03-2.641-6.279-2.21c-1.643,0.308-3.186-0.745-3.492-2.389c-0.268-1.597,0.74-3.101,2.383-3.406
			c4.239-0.798,8.826,0.647,11.852,4.153c4.561,5.285,4.014,13.307-1.269,17.867C424.32,131.15,417.827,131.27,413.169,127.899z
			 M403.195,136.508l-0.82,0.707c-1.276,1.101-3.059,0.97-4.16-0.306c-1.021-1.183-0.969-3.057,0.307-4.158l0.82-0.707
			c1.229-1.061,3.135-0.878,4.156,0.305C404.6,133.626,404.424,135.447,403.195,136.508z"/>
	</g>
	<g>
		<g>
			<g>
				<path style="fill:#FCCB6C;" d="M228.157,255.558c37.221-20.899,83.603-17.019,83.603-17.019s45.512-2.592,76.936,14.338
					l19.025,53.881l-16.061,96.187l0.598,53.296H230.074v-50.794l-19.732-94.455L228.157,255.558z"/>
				<path style="fill:#EBB959;" d="M290.859,411.934c16.691-35.868,16.954-51.966,16.954-51.966l-77.739,46.226v50.047h19.105
					C259.876,450.364,279.238,436.906,290.859,411.934z"/>
				
					<line style="fill:none;stroke:#2E2854;stroke-width:1.2;stroke-linecap:round;stroke-linejoin:round;stroke-miterlimit:10;" x1="391.66" y1="402.945" x2="392.258" y2="456.241"/>
			</g>
			<g>
				<g>
					<polygon style="fill:#FF98AA;" points="297.605,213.873 296.582,243.764 327.109,243.197 324.38,213.873 					"/>
					<path style="fill:#FF8095;" d="M325.346,224.244l-0.965-10.371h-26.776l-0.352,10.275
						C303.321,225.23,312.73,225.966,325.346,224.244z"/>
				</g>
				<g>
					<g>
						<path style="fill:#2E2854;" d="M246.737,151.391c0,0-15.313-46.955,15.425-55.106c0,0-1.411-20.075,25.698-27.951
							s42.596,2.351,52.897,8.865c10.301,6.515,27.091,12.879,29.79,25.901c1.233,5.948,0.647,11.749-0.353,16.296
							c0,0,8.062,11.624-0.401,26.293l-70.361,25.415l-48.577-9.035L246.737,151.391z"/>
						
							<path style="fill:none;stroke:#FFFFFF;stroke-width:1.2;stroke-linecap:round;stroke-linejoin:round;stroke-miterlimit:10;" d="
							M298.7,105.937c0,0-18.36,1.606-37.507-10.28"/>
						
							<path style="fill:none;stroke:#FF98AA;stroke-width:1.2;stroke-linecap:round;stroke-linejoin:round;stroke-miterlimit:10;" d="
							M329.121,110.125c0,0-1.589,8.406-8.276,11.747"/>
						
							<path style="fill:none;stroke:#FFFFFF;stroke-width:1.2;stroke-linecap:round;stroke-linejoin:round;stroke-miterlimit:10;" d="
							M371.278,118.354c0,0-1.988,5.708-4.239,7.59"/>
					</g>
					<path style="fill:#FF98AA;" d="M256.03,149.887c0,0,1.777,8.759,4.426,8.729c3.234-0.037,8.967-14.951,7.875-29.162
						c0,0,3.708,3.025,6.713,1.314c3.006-1.711,0.151-12.269,12.139-15.062c11.988-2.792,19.204,7.007,31.076,5.677
						c11.872-1.33,20.053-8.451,20.053-8.451s5.628,19.669,25.075,18.99c0,0,22.6,82.833-44.178,86.367
						C252.432,221.825,256.03,149.887,256.03,149.887z"/>
					<g>
						<path style="fill:#FF98AA;" d="M256.502,149.643c0,0-19.747-8.961-25.482,10.701c-5.942,20.372,19.222,36.946,34.544,20.483
							C265.565,180.827,258.699,172.265,256.502,149.643z"/>
						<g>
							
								<path style="fill:none;stroke:#2E2854;stroke-width:1.2;stroke-linecap:round;stroke-linejoin:round;stroke-miterlimit:10;" d="
								M236.158,167.474c0,0,1.707-9.841,13.39-9.484"/>
							
								<path style="fill:none;stroke:#2E2854;stroke-width:1.2;stroke-linecap:round;stroke-linejoin:round;stroke-miterlimit:10;" d="
								M248.273,171.6c0,0-6.62-3.919-6.951-11.603"/>
						</g>
					</g>
					<path style="fill:#FF98AA;" d="M362.044,142.743c0,0,11.32-10.096,18.249,3.06c6.929,13.157-3.012,32.384-15.793,29.25
						L362.044,142.743z"/>
					<g>
						
							<path style="fill:none;stroke:#2E2854;stroke-width:1.2;stroke-linecap:round;stroke-linejoin:round;stroke-miterlimit:10;" d="
							M322.413,152.617c0,0,4.062,3.369,7.233,9.371l-5.496,2.235"/>
						
							<path style="fill:none;stroke:#2E2854;stroke-width:1.2;stroke-linecap:round;stroke-linejoin:round;stroke-miterlimit:10;" d="
							M283.8,151.513c0,0,5.456-14.283,24.969-14.47"/>
						
							<path style="fill:none;stroke:#2E2854;stroke-width:1.2;stroke-linecap:round;stroke-linejoin:round;stroke-miterlimit:10;" d="
							M338.314,112.933c0,0-2.728,6.439,2.04,13.423"/>
						<path style="fill:#2E2854;" d="M302.165,154.641c0.087,1.139-0.619,2.121-1.577,2.194c-0.957,0.073-1.804-0.791-1.89-1.93
							c-0.087-1.139,0.619-2.121,1.577-2.194C301.232,152.638,302.079,153.502,302.165,154.641z"/>
						<path style="fill:#2E2854;" d="M350.424,154.641c0.087,1.139-0.619,2.121-1.577,2.194c-0.957,0.073-1.804-0.791-1.89-1.93
							c-0.087-1.139,0.619-2.121,1.577-2.194C349.491,152.638,350.338,153.502,350.424,154.641z"/>
						
							<path style="fill:none;stroke:#2E2854;stroke-width:1.2;stroke-linecap:round;stroke-linejoin:round;stroke-miterlimit:10;" d="
							M333.018,146.639c0,0,12.692-4.623,22.929,0.219"/>
						
							<path style="fill:none;stroke:#2E2854;stroke-width:1.2;stroke-linecap:round;stroke-linejoin:round;stroke-miterlimit:10;" d="
							M303.709,171.855c0,0,8.985-0.286,16.81,3.484"/>
					</g>
					<g>
						<path style="fill:#FF8095;" d="M363.986,185.124c-2.149-2.284-5.27-3.615-8.641-3.359c-5.917,0.45-10.349,5.611-9.9,11.528
							c0.385,5.062,4.221,9.027,9.026,9.788C359.019,197.838,362.044,191.641,363.986,185.124z"/>
						<path style="fill:#FF8095;" d="M269.432,197.593c3.092,4.22,6.887,8.118,11.555,11.371c5.903-0.464,10.32-5.617,9.871-11.524
							c-0.45-5.917-5.611-10.349-11.528-9.899C273.913,187.952,269.752,192.317,269.432,197.593z"/>
					</g>
				</g>
				<g>
					<polygon style="fill:#FFFFFF;" points="297.082,229.13 312.43,243.47 302.21,265.144 280.196,239.626 					"/>
					<polygon style="fill:#FFFFFF;" points="325.694,227.983 312.43,243.47 325.686,265.144 344.384,240.019 					"/>
				</g>
			</g>
			<g>
				<g>
					<path style="fill:#FF98AA;" d="M542.68,303.119l23.308,22.853c0,0,17.111-4.434,24.871-28.083c0,0-3.155-10.702-16.912-15.527
						l-15.804,5.294L542.68,303.119z"/>
					<g>
						<path style="fill:#FF98AA;" d="M576.657,285.969c0,0-2.813,4.518-6.329,1.953c-3.516-2.565,1.615-9.254,3.328-12.099
							c1.712-2.845,7.867-10.915,11.479-9.155c3.612,1.76,0.976,6.6,0.976,6.6s4.136-2.643,7.025-0.582
							c2.889,2.061-1.965,10.028-1.965,10.028s2.617-1.866,4.518,0.279c2.382,2.688-2.202,8.411-2.202,8.411
							s4.909-1.563,3.298,4.042c-1.611,5.605-7.076,9.678-9.062,8.326c-1.986-1.352,0.101-5.183,0.101-5.183
							s-3.084,4.271-5.438,2.402c-2.354-1.868-0.574-7.453-0.574-7.453s-2.964,2.181-5.087,0.168
							C574.58,291.671,576.657,285.969,576.657,285.969z"/>
						<g>
							
								<path style="fill:none;stroke:#2E2854;stroke-width:1.2;stroke-linecap:round;stroke-linejoin:round;stroke-miterlimit:10;" d="
								M576.657,285.969c0,0,4.456-8.229,9.453-12.702"/>
							
								<path style="fill:none;stroke:#2E2854;stroke-width:1.2;stroke-linecap:round;stroke-linejoin:round;stroke-miterlimit:10;" d="
								M581.812,293.537c0,0,4.085-6.556,9.359-10.824"/>
							
								<path style="fill:none;stroke:#2E2854;stroke-width:1.2;stroke-linecap:round;stroke-linejoin:round;stroke-miterlimit:10;" d="
								M587.824,298.589c0,0,2.393-3.88,5.663-7.184"/>
							
								<path style="fill:none;stroke:#2E2854;stroke-width:1.2;stroke-linecap:round;stroke-linejoin:round;stroke-miterlimit:10;" d="
								M576.657,285.969c0,0-2.813,4.518-6.329,1.953c-3.516-2.565,1.615-9.254,3.328-12.099c1.712-2.845,7.867-10.915,11.479-9.155
								c3.612,1.76,0.976,6.6,0.976,6.6s4.136-2.643,7.025-0.582c2.889,2.061-1.965,10.028-1.965,10.028s2.617-1.866,4.518,0.279
								c2.382,2.688-2.202,8.411-2.202,8.411s4.909-1.563,3.298,4.042c-1.611,5.605-7.076,9.678-9.062,8.326
								c-1.986-1.352,0.101-5.183,0.101-5.183s-3.084,4.271-5.438,2.402c-2.354-1.868-0.574-7.453-0.574-7.453
								s-2.964,2.181-5.087,0.168C574.58,291.671,576.657,285.969,576.657,285.969z"/>
						</g>
					</g>
					<g>
						<path style="fill:#FF98AA;" d="M542.68,303.119c0,0,5.23-11.37,6.14-15.235c0.91-3.866,1.251-5.685,10.005-6.026
							s15.463,0.227,15.804,3.184c0.341,2.956-5.685,5.571-12.507,4.548c0,0,11.938,15.349-2.729,28.879L542.68,303.119z"/>
						
							<path style="fill:none;stroke:#2E2854;stroke-width:1.2;stroke-linecap:round;stroke-linejoin:round;stroke-miterlimit:10;" d="
							M548.82,287.884c0.91-3.866,1.251-5.685,10.005-6.026s15.463,0.227,15.804,3.184c0.341,2.956-5.685,5.571-12.507,4.548
							c0,0,9.709,12.483,0.859,24.858"/>
					</g>
				</g>
				<polygon style="fill:#FFFFFF;" points="534.608,309.486 541.43,301.073 572.583,326.541 563.714,337.001 				"/>
				<g>
					<path style="fill:#FCCB6C;" d="M570.054,336.986l-35.133-31.922c0,0-60.801,72.641-80.243,64.113
						c-23.191-10.172-9.21-68.901-53.552-107.785c-3.74-3.28-7.942-6.097-12.431-8.516c0,0-10.081,43.307,2.198,81.85l0.766,68.218
						C391.66,402.945,465.252,492.653,570.054,336.986z"/>
					<path style="fill:#EBB959;" d="M545.898,369.355c-20.301,14.195-60.733,39.418-90.887,38.75
						c-41.901-0.929-63.655-32.188-63.655-32.188l0.303,27.028C391.66,402.945,454.119,479.079,545.898,369.355z"/>
					
						<path style="fill:none;stroke:#2E2854;stroke-width:1.2;stroke-linecap:round;stroke-linejoin:round;stroke-miterlimit:10;" d="
						M390.894,334.727l0.766,68.218c0,0,73.592,89.708,178.394-65.959"/>
				</g>
			</g>
			<g>
				<g>
					<path style="fill:#FF98AA;" d="M277.064,326.56c5.523-8.289,11.578-20.312,11.663-29.096c0.085-8.783,5.439-5.572,6.651-1.364
						c1.45,5.031,0.768,10.915,0.768,10.915s9.124-11.029,12.08-16.714c2.956-5.685,5.798-12.962,9.664-11.825
						c3.866,1.137-1.478,19.556-9.778,31.039c0,0,7.618-9.437,10.46-14.894c2.842-5.458,4.889-11.825,8.641-10.005
						c3.752,1.819-1.592,18.078-10.574,29.902c0,0,6.879-8.186,10.204-12.45c3.326-4.264,5.465-9.858,7.845-8.271
						c2.321,1.547,0.198,9.365-4.571,17.194c0,0,1.331-2.186,3.207-1.077c1.876,1.109-4.093,14.752-15.775,25.411l-9.465,13.985
						L277.064,326.56z"/>
					<g>
						
							<path style="fill:none;stroke:#2E2854;stroke-width:1.2;stroke-linecap:round;stroke-linejoin:round;stroke-miterlimit:10;" d="
							M330.118,310.992c-2.065,3.39-4.626,6.782-7.538,9.667"/>
						
							<path style="fill:none;stroke:#2E2854;stroke-width:1.2;stroke-linecap:round;stroke-linejoin:round;stroke-miterlimit:10;" d="
							M287.15,306.264c0.963-3.104,1.551-6.104,1.577-8.8c0.085-8.783,5.439-5.572,6.651-1.364
							c1.45,5.031,0.768,10.915,0.768,10.915s9.124-11.029,12.08-16.714c2.956-5.685,5.798-12.962,9.664-11.825
							c3.866,1.137-1.478,19.556-9.778,31.039c0,0,7.618-9.437,10.46-14.894c2.842-5.458,4.889-11.825,8.641-10.005
							c3.752,1.819-1.592,18.078-10.574,29.902c0,0,6.879-8.186,10.204-12.45c3.326-4.264,5.465-9.858,7.845-8.271
							c2.321,1.547,0.198,9.365-4.571,17.194c0,0,1.331-2.186,3.207-1.077c1.876,1.109-4.093,14.752-15.775,25.411"/>
					</g>
				</g>
				<polygon style="fill:#FFFFFF;" points="269.455,332.653 276.107,323.955 312.262,347.15 305.441,358.065 				"/>
				<g>
					<path style="fill:#FCCB6C;" d="M228.157,255.558c-14.543,8.166-27.688,20.114-36.121,37.556
						c-30.016,62.079-30.016,142.577,16.031,160.655c46.048,18.078,90.219-68.048,103.692-93.801l-42.637-29.675l-39.049,51.694
						c0,0,0.051-26.794-2.223-45.895c0,0,4.889-18.192,5.116-38.202C233.195,277.878,228.157,255.558,228.157,255.558z"/>
					<path style="fill:#EBB959;" d="M303.056,376.285c-19.622,22.598-52.683,55.974-79.77,59.99
						c-18.585,2.755-30.993,0.626-39.028-2.539c5.837,9.109,13.717,16.07,23.81,20.033
						C246.752,468.956,284.109,410.605,303.056,376.285z"/>
					<g>
						
							<path style="fill:none;stroke:#2E2854;stroke-width:1.2;stroke-linecap:round;stroke-linejoin:round;stroke-miterlimit:10;" d="
							M230.074,381.987c0,0,0.051-26.794-2.223-45.895"/>
						
							<polyline style="fill:none;stroke:#2E2854;stroke-width:1.2;stroke-linecap:round;stroke-linejoin:round;stroke-miterlimit:10;" points="
							269.124,330.293 230.074,381.987 215.401,401.411 						"/>
						
							<path style="fill:none;stroke:#2E2854;stroke-width:1.2;stroke-linecap:round;stroke-linejoin:round;stroke-miterlimit:10;" d="
							M174.602,410.393c5.062,20.539,15.922,36.488,33.466,43.375c46.048,18.078,90.219-68.048,103.692-93.801"/>
					</g>
				</g>
			</g>
		</g>
		<g>
			
				<line style="fill:none;stroke:#2E2854;stroke-width:1.2;stroke-linecap:round;stroke-linejoin:round;stroke-miterlimit:10;" x1="569.614" y1="368.98" x2="569.614" y2="289.269"/>
			<g>
				<path style="fill:#2E2854;" d="M676.796,346.964l-217.67,38.381l1.066,6.046l217.671-38.381
					c1.237-0.218,2.001-1.748,1.706-3.418C679.274,347.922,678.033,346.746,676.796,346.964z"/>
				<path style="fill:#4E448F;" d="M461.898,387.973c-0.294-1.67-1.536-2.846-2.772-2.628c-1.237,0.218-2.001,1.748-1.706,3.418
					c0.294,1.67,1.536,2.846,2.772,2.628C461.429,391.173,462.193,389.643,461.898,387.973z"/>
			</g>
			<path style="fill:#4E448F;" d="M576.444,367.776c-0.665-3.772-4.262-6.291-8.035-5.626c-3.772,0.665-6.291,4.262-5.626,8.034
				c0.665,3.772,4.262,6.291,8.034,5.626C574.591,375.145,577.109,371.548,576.444,367.776z"/>
			<g>
				<g>
					<g>
						<g>
							<rect x="487.234" y="428.932" style="fill:#F9B274;" width="20.835" height="4.376"/>
							
								<rect x="487.234" y="428.932" style="fill:none;stroke:#2E2854;stroke-width:1.2;stroke-linecap:round;stroke-linejoin:round;stroke-miterlimit:10;" width="20.835" height="4.376"/>
							
								<line style="fill:none;stroke:#2E2854;stroke-width:1.2;stroke-linecap:round;stroke-linejoin:round;stroke-miterlimit:10;" x1="497.652" y1="428.932" x2="497.652" y2="433.308"/>
							
								<line style="fill:none;stroke:#2E2854;stroke-width:1.2;stroke-linecap:round;stroke-linejoin:round;stroke-miterlimit:10;" x1="495.364" y1="428.932" x2="495.364" y2="433.308"/>
							
								<line style="fill:none;stroke:#2E2854;stroke-width:1.2;stroke-linecap:round;stroke-linejoin:round;stroke-miterlimit:10;" x1="493.076" y1="428.932" x2="493.076" y2="433.308"/>
							
								<line style="fill:none;stroke:#2E2854;stroke-width:1.2;stroke-linecap:round;stroke-linejoin:round;stroke-miterlimit:10;" x1="490.788" y1="428.932" x2="490.788" y2="433.308"/>
							
								<line style="fill:none;stroke:#2E2854;stroke-width:1.2;stroke-linecap:round;stroke-linejoin:round;stroke-miterlimit:10;" x1="488.5" y1="428.932" x2="488.5" y2="433.308"/>
							
								<line style="fill:none;stroke:#2E2854;stroke-width:1.2;stroke-linecap:round;stroke-linejoin:round;stroke-miterlimit:10;" x1="506.804" y1="428.932" x2="506.804" y2="433.308"/>
							
								<line style="fill:none;stroke:#2E2854;stroke-width:1.2;stroke-linecap:round;stroke-linejoin:round;stroke-miterlimit:10;" x1="504.516" y1="428.932" x2="504.516" y2="433.308"/>
							
								<line style="fill:none;stroke:#2E2854;stroke-width:1.2;stroke-linecap:round;stroke-linejoin:round;stroke-miterlimit:10;" x1="502.228" y1="428.932" x2="502.228" y2="433.308"/>
							
								<line style="fill:none;stroke:#2E2854;stroke-width:1.2;stroke-linecap:round;stroke-linejoin:round;stroke-miterlimit:10;" x1="499.94" y1="428.932" x2="499.94" y2="433.308"/>
						</g>
						<g>
							<rect x="484.333" y="433.308" style="fill:#F9B274;" width="20.835" height="4.376"/>
							
								<rect x="484.333" y="433.308" style="fill:none;stroke:#2E2854;stroke-width:1.2;stroke-linecap:round;stroke-linejoin:round;stroke-miterlimit:10;" width="20.835" height="4.376"/>
							
								<line style="fill:none;stroke:#2E2854;stroke-width:1.2;stroke-linecap:round;stroke-linejoin:round;stroke-miterlimit:10;" x1="494.751" y1="433.308" x2="494.751" y2="437.684"/>
							
								<line style="fill:none;stroke:#2E2854;stroke-width:1.2;stroke-linecap:round;stroke-linejoin:round;stroke-miterlimit:10;" x1="492.463" y1="433.308" x2="492.463" y2="437.684"/>
							
								<line style="fill:none;stroke:#2E2854;stroke-width:1.2;stroke-linecap:round;stroke-linejoin:round;stroke-miterlimit:10;" x1="490.175" y1="433.308" x2="490.175" y2="437.684"/>
							
								<line style="fill:none;stroke:#2E2854;stroke-width:1.2;stroke-linecap:round;stroke-linejoin:round;stroke-miterlimit:10;" x1="487.887" y1="433.308" x2="487.887" y2="437.684"/>
							
								<line style="fill:none;stroke:#2E2854;stroke-width:1.2;stroke-linecap:round;stroke-linejoin:round;stroke-miterlimit:10;" x1="485.599" y1="433.308" x2="485.599" y2="437.684"/>
							
								<line style="fill:none;stroke:#2E2854;stroke-width:1.2;stroke-linecap:round;stroke-linejoin:round;stroke-miterlimit:10;" x1="503.903" y1="433.308" x2="503.903" y2="437.684"/>
							
								<line style="fill:none;stroke:#2E2854;stroke-width:1.2;stroke-linecap:round;stroke-linejoin:round;stroke-miterlimit:10;" x1="501.615" y1="433.308" x2="501.615" y2="437.684"/>
							
								<line style="fill:none;stroke:#2E2854;stroke-width:1.2;stroke-linecap:round;stroke-linejoin:round;stroke-miterlimit:10;" x1="499.327" y1="433.308" x2="499.327" y2="437.684"/>
							
								<line style="fill:none;stroke:#2E2854;stroke-width:1.2;stroke-linecap:round;stroke-linejoin:round;stroke-miterlimit:10;" x1="497.039" y1="433.308" x2="497.039" y2="437.684"/>
						</g>
						<g>
							<rect x="488.909" y="437.684" style="fill:#F9B274;" width="20.835" height="4.376"/>
							
								<rect x="488.909" y="437.684" style="fill:none;stroke:#2E2854;stroke-width:1.2;stroke-linecap:round;stroke-linejoin:round;stroke-miterlimit:10;" width="20.835" height="4.376"/>
							
								<line style="fill:none;stroke:#2E2854;stroke-width:1.2;stroke-linecap:round;stroke-linejoin:round;stroke-miterlimit:10;" x1="499.327" y1="437.684" x2="499.327" y2="442.06"/>
							
								<line style="fill:none;stroke:#2E2854;stroke-width:1.2;stroke-linecap:round;stroke-linejoin:round;stroke-miterlimit:10;" x1="497.039" y1="437.684" x2="497.039" y2="442.06"/>
							
								<line style="fill:none;stroke:#2E2854;stroke-width:1.2;stroke-linecap:round;stroke-linejoin:round;stroke-miterlimit:10;" x1="494.751" y1="437.684" x2="494.751" y2="442.06"/>
							
								<line style="fill:none;stroke:#2E2854;stroke-width:1.2;stroke-linecap:round;stroke-linejoin:round;stroke-miterlimit:10;" x1="492.463" y1="437.684" x2="492.463" y2="442.06"/>
							
								<line style="fill:none;stroke:#2E2854;stroke-width:1.2;stroke-linecap:round;stroke-linejoin:round;stroke-miterlimit:10;" x1="490.175" y1="437.684" x2="490.175" y2="442.06"/>
							
								<line style="fill:none;stroke:#2E2854;stroke-width:1.2;stroke-linecap:round;stroke-linejoin:round;stroke-miterlimit:10;" x1="508.479" y1="437.684" x2="508.479" y2="442.06"/>
							
								<line style="fill:none;stroke:#2E2854;stroke-width:1.2;stroke-linecap:round;stroke-linejoin:round;stroke-miterlimit:10;" x1="506.191" y1="437.684" x2="506.191" y2="442.06"/>
							
								<line style="fill:none;stroke:#2E2854;stroke-width:1.2;stroke-linecap:round;stroke-linejoin:round;stroke-miterlimit:10;" x1="503.903" y1="437.684" x2="503.903" y2="442.06"/>
							
								<line style="fill:none;stroke:#2E2854;stroke-width:1.2;stroke-linecap:round;stroke-linejoin:round;stroke-miterlimit:10;" x1="501.615" y1="437.684" x2="501.615" y2="442.06"/>
						</g>
						<g>
							<rect x="484.591" y="442.06" style="fill:#F9B274;" width="20.835" height="4.376"/>
							
								<rect x="484.591" y="442.06" style="fill:none;stroke:#2E2854;stroke-width:1.2;stroke-linecap:round;stroke-linejoin:round;stroke-miterlimit:10;" width="20.835" height="4.376"/>
							
								<line style="fill:none;stroke:#2E2854;stroke-width:1.2;stroke-linecap:round;stroke-linejoin:round;stroke-miterlimit:10;" x1="495.008" y1="442.06" x2="495.008" y2="446.435"/>
							
								<line style="fill:none;stroke:#2E2854;stroke-width:1.2;stroke-linecap:round;stroke-linejoin:round;stroke-miterlimit:10;" x1="492.72" y1="442.06" x2="492.72" y2="446.435"/>
							
								<line style="fill:none;stroke:#2E2854;stroke-width:1.2;stroke-linecap:round;stroke-linejoin:round;stroke-miterlimit:10;" x1="490.432" y1="442.06" x2="490.432" y2="446.435"/>
							
								<line style="fill:none;stroke:#2E2854;stroke-width:1.2;stroke-linecap:round;stroke-linejoin:round;stroke-miterlimit:10;" x1="488.144" y1="442.06" x2="488.144" y2="446.435"/>
							
								<line style="fill:none;stroke:#2E2854;stroke-width:1.2;stroke-linecap:round;stroke-linejoin:round;stroke-miterlimit:10;" x1="485.856" y1="442.06" x2="485.856" y2="446.435"/>
							
								<line style="fill:none;stroke:#2E2854;stroke-width:1.2;stroke-linecap:round;stroke-linejoin:round;stroke-miterlimit:10;" x1="504.16" y1="442.06" x2="504.16" y2="446.435"/>
							
								<line style="fill:none;stroke:#2E2854;stroke-width:1.2;stroke-linecap:round;stroke-linejoin:round;stroke-miterlimit:10;" x1="501.872" y1="442.06" x2="501.872" y2="446.435"/>
							
								<line style="fill:none;stroke:#2E2854;stroke-width:1.2;stroke-linecap:round;stroke-linejoin:round;stroke-miterlimit:10;" x1="499.584" y1="442.06" x2="499.584" y2="446.435"/>
							
								<line style="fill:none;stroke:#2E2854;stroke-width:1.2;stroke-linecap:round;stroke-linejoin:round;stroke-miterlimit:10;" x1="497.296" y1="442.06" x2="497.296" y2="446.435"/>
						</g>
						<g>
							<rect x="486.621" y="446.443" style="fill:#F9B274;" width="20.835" height="4.376"/>
							
								<rect x="486.621" y="446.443" style="fill:none;stroke:#2E2854;stroke-width:1.2;stroke-linecap:round;stroke-linejoin:round;stroke-miterlimit:10;" width="20.835" height="4.376"/>
							
								<line style="fill:none;stroke:#2E2854;stroke-width:1.2;stroke-linecap:round;stroke-linejoin:round;stroke-miterlimit:10;" x1="497.039" y1="446.443" x2="497.039" y2="450.818"/>
							
								<line style="fill:none;stroke:#2E2854;stroke-width:1.2;stroke-linecap:round;stroke-linejoin:round;stroke-miterlimit:10;" x1="494.751" y1="446.443" x2="494.751" y2="450.818"/>
							
								<line style="fill:none;stroke:#2E2854;stroke-width:1.2;stroke-linecap:round;stroke-linejoin:round;stroke-miterlimit:10;" x1="492.463" y1="446.443" x2="492.463" y2="450.818"/>
							
								<line style="fill:none;stroke:#2E2854;stroke-width:1.2;stroke-linecap:round;stroke-linejoin:round;stroke-miterlimit:10;" x1="490.175" y1="446.443" x2="490.175" y2="450.818"/>
							
								<line style="fill:none;stroke:#2E2854;stroke-width:1.2;stroke-linecap:round;stroke-linejoin:round;stroke-miterlimit:10;" x1="487.887" y1="446.443" x2="487.887" y2="450.818"/>
							
								<line style="fill:none;stroke:#2E2854;stroke-width:1.2;stroke-linecap:round;stroke-linejoin:round;stroke-miterlimit:10;" x1="506.191" y1="446.443" x2="506.191" y2="450.818"/>
							
								<line style="fill:none;stroke:#2E2854;stroke-width:1.2;stroke-linecap:round;stroke-linejoin:round;stroke-miterlimit:10;" x1="503.903" y1="446.443" x2="503.903" y2="450.818"/>
							
								<line style="fill:none;stroke:#2E2854;stroke-width:1.2;stroke-linecap:round;stroke-linejoin:round;stroke-miterlimit:10;" x1="501.615" y1="446.443" x2="501.615" y2="450.818"/>
							
								<line style="fill:none;stroke:#2E2854;stroke-width:1.2;stroke-linecap:round;stroke-linejoin:round;stroke-miterlimit:10;" x1="499.327" y1="446.443" x2="499.327" y2="450.818"/>
						</g>
					</g>
					<g>
						<g>
							<rect x="442.151" y="434.239" style="fill:#F9B274;" width="20.835" height="4.376"/>
							
								<rect x="442.151" y="434.239" style="fill:none;stroke:#2E2854;stroke-width:1.2;stroke-linecap:round;stroke-linejoin:round;stroke-miterlimit:10;" width="20.835" height="4.376"/>
							
								<line style="fill:none;stroke:#2E2854;stroke-width:1.2;stroke-linecap:round;stroke-linejoin:round;stroke-miterlimit:10;" x1="452.569" y1="434.239" x2="452.569" y2="438.615"/>
							
								<line style="fill:none;stroke:#2E2854;stroke-width:1.2;stroke-linecap:round;stroke-linejoin:round;stroke-miterlimit:10;" x1="450.281" y1="434.239" x2="450.281" y2="438.615"/>
							
								<line style="fill:none;stroke:#2E2854;stroke-width:1.2;stroke-linecap:round;stroke-linejoin:round;stroke-miterlimit:10;" x1="447.993" y1="434.239" x2="447.993" y2="438.615"/>
							
								<line style="fill:none;stroke:#2E2854;stroke-width:1.2;stroke-linecap:round;stroke-linejoin:round;stroke-miterlimit:10;" x1="445.705" y1="434.239" x2="445.705" y2="438.615"/>
							
								<line style="fill:none;stroke:#2E2854;stroke-width:1.2;stroke-linecap:round;stroke-linejoin:round;stroke-miterlimit:10;" x1="443.417" y1="434.239" x2="443.417" y2="438.615"/>
							
								<line style="fill:none;stroke:#2E2854;stroke-width:1.2;stroke-linecap:round;stroke-linejoin:round;stroke-miterlimit:10;" x1="461.721" y1="434.239" x2="461.721" y2="438.615"/>
							
								<line style="fill:none;stroke:#2E2854;stroke-width:1.2;stroke-linecap:round;stroke-linejoin:round;stroke-miterlimit:10;" x1="459.433" y1="434.239" x2="459.433" y2="438.615"/>
							
								<line style="fill:none;stroke:#2E2854;stroke-width:1.2;stroke-linecap:round;stroke-linejoin:round;stroke-miterlimit:10;" x1="457.145" y1="434.239" x2="457.145" y2="438.615"/>
							
								<line style="fill:none;stroke:#2E2854;stroke-width:1.2;stroke-linecap:round;stroke-linejoin:round;stroke-miterlimit:10;" x1="454.857" y1="434.239" x2="454.857" y2="438.615"/>
						</g>
						<g>
							<rect x="439.25" y="438.615" style="fill:#F9B274;" width="20.835" height="4.376"/>
							
								<rect x="439.25" y="438.615" style="fill:none;stroke:#2E2854;stroke-width:1.2;stroke-linecap:round;stroke-linejoin:round;stroke-miterlimit:10;" width="20.835" height="4.376"/>
							
								<line style="fill:none;stroke:#2E2854;stroke-width:1.2;stroke-linecap:round;stroke-linejoin:round;stroke-miterlimit:10;" x1="449.668" y1="438.615" x2="449.668" y2="442.991"/>
							
								<line style="fill:none;stroke:#2E2854;stroke-width:1.2;stroke-linecap:round;stroke-linejoin:round;stroke-miterlimit:10;" x1="447.38" y1="438.615" x2="447.38" y2="442.991"/>
							
								<line style="fill:none;stroke:#2E2854;stroke-width:1.2;stroke-linecap:round;stroke-linejoin:round;stroke-miterlimit:10;" x1="445.092" y1="438.615" x2="445.092" y2="442.991"/>
							
								<line style="fill:none;stroke:#2E2854;stroke-width:1.2;stroke-linecap:round;stroke-linejoin:round;stroke-miterlimit:10;" x1="442.804" y1="438.615" x2="442.804" y2="442.991"/>
							
								<line style="fill:none;stroke:#2E2854;stroke-width:1.2;stroke-linecap:round;stroke-linejoin:round;stroke-miterlimit:10;" x1="440.516" y1="438.615" x2="440.516" y2="442.991"/>
							
								<line style="fill:none;stroke:#2E2854;stroke-width:1.2;stroke-linecap:round;stroke-linejoin:round;stroke-miterlimit:10;" x1="458.82" y1="438.615" x2="458.82" y2="442.991"/>
							
								<line style="fill:none;stroke:#2E2854;stroke-width:1.2;stroke-linecap:round;stroke-linejoin:round;stroke-miterlimit:10;" x1="456.532" y1="438.615" x2="456.532" y2="442.991"/>
							
								<line style="fill:none;stroke:#2E2854;stroke-width:1.2;stroke-linecap:round;stroke-linejoin:round;stroke-miterlimit:10;" x1="454.244" y1="438.615" x2="454.244" y2="442.991"/>
							
								<line style="fill:none;stroke:#2E2854;stroke-width:1.2;stroke-linecap:round;stroke-linejoin:round;stroke-miterlimit:10;" x1="451.956" y1="438.615" x2="451.956" y2="442.991"/>
						</g>
						<g>
							<rect x="443.826" y="442.991" style="fill:#F9B274;" width="20.835" height="4.376"/>
							
								<rect x="443.826" y="442.991" style="fill:none;stroke:#2E2854;stroke-width:1.2;stroke-linecap:round;stroke-linejoin:round;stroke-miterlimit:10;" width="20.835" height="4.376"/>
							
								<line style="fill:none;stroke:#2E2854;stroke-width:1.2;stroke-linecap:round;stroke-linejoin:round;stroke-miterlimit:10;" x1="454.244" y1="442.991" x2="454.244" y2="447.366"/>
							
								<line style="fill:none;stroke:#2E2854;stroke-width:1.2;stroke-linecap:round;stroke-linejoin:round;stroke-miterlimit:10;" x1="451.956" y1="442.991" x2="451.956" y2="447.366"/>
							
								<line style="fill:none;stroke:#2E2854;stroke-width:1.2;stroke-linecap:round;stroke-linejoin:round;stroke-miterlimit:10;" x1="449.668" y1="442.991" x2="449.668" y2="447.366"/>
							
								<line style="fill:none;stroke:#2E2854;stroke-width:1.2;stroke-linecap:round;stroke-linejoin:round;stroke-miterlimit:10;" x1="447.38" y1="442.991" x2="447.38" y2="447.366"/>
							
								<line style="fill:none;stroke:#2E2854;stroke-width:1.2;stroke-linecap:round;stroke-linejoin:round;stroke-miterlimit:10;" x1="445.092" y1="442.991" x2="445.092" y2="447.366"/>
							
								<line style="fill:none;stroke:#2E2854;stroke-width:1.2;stroke-linecap:round;stroke-linejoin:round;stroke-miterlimit:10;" x1="463.396" y1="442.991" x2="463.396" y2="447.366"/>
							
								<line style="fill:none;stroke:#2E2854;stroke-width:1.2;stroke-linecap:round;stroke-linejoin:round;stroke-miterlimit:10;" x1="461.108" y1="442.991" x2="461.108" y2="447.366"/>
							
								<line style="fill:none;stroke:#2E2854;stroke-width:1.2;stroke-linecap:round;stroke-linejoin:round;stroke-miterlimit:10;" x1="458.82" y1="442.991" x2="458.82" y2="447.366"/>
							
								<line style="fill:none;stroke:#2E2854;stroke-width:1.2;stroke-linecap:round;stroke-linejoin:round;stroke-miterlimit:10;" x1="456.532" y1="442.991" x2="456.532" y2="447.366"/>
						</g>
						<g>
							<rect x="439.508" y="447.366" style="fill:#F9B274;" width="20.835" height="4.376"/>
							
								<rect x="439.508" y="447.366" style="fill:none;stroke:#2E2854;stroke-width:1.2;stroke-linecap:round;stroke-linejoin:round;stroke-miterlimit:10;" width="20.835" height="4.376"/>
							
								<line style="fill:none;stroke:#2E2854;stroke-width:1.2;stroke-linecap:round;stroke-linejoin:round;stroke-miterlimit:10;" x1="449.925" y1="447.366" x2="449.925" y2="451.742"/>
							
								<line style="fill:none;stroke:#2E2854;stroke-width:1.2;stroke-linecap:round;stroke-linejoin:round;stroke-miterlimit:10;" x1="447.637" y1="447.366" x2="447.637" y2="451.742"/>
							
								<line style="fill:none;stroke:#2E2854;stroke-width:1.2;stroke-linecap:round;stroke-linejoin:round;stroke-miterlimit:10;" x1="445.349" y1="447.366" x2="445.349" y2="451.742"/>
							
								<line style="fill:none;stroke:#2E2854;stroke-width:1.2;stroke-linecap:round;stroke-linejoin:round;stroke-miterlimit:10;" x1="443.061" y1="447.366" x2="443.061" y2="451.742"/>
							
								<line style="fill:none;stroke:#2E2854;stroke-width:1.2;stroke-linecap:round;stroke-linejoin:round;stroke-miterlimit:10;" x1="440.773" y1="447.366" x2="440.773" y2="451.742"/>
							
								<line style="fill:none;stroke:#2E2854;stroke-width:1.2;stroke-linecap:round;stroke-linejoin:round;stroke-miterlimit:10;" x1="459.077" y1="447.366" x2="459.077" y2="451.742"/>
							
								<line style="fill:none;stroke:#2E2854;stroke-width:1.2;stroke-linecap:round;stroke-linejoin:round;stroke-miterlimit:10;" x1="456.789" y1="447.366" x2="456.789" y2="451.742"/>
							
								<line style="fill:none;stroke:#2E2854;stroke-width:1.2;stroke-linecap:round;stroke-linejoin:round;stroke-miterlimit:10;" x1="454.501" y1="447.366" x2="454.501" y2="451.742"/>
							
								<line style="fill:none;stroke:#2E2854;stroke-width:1.2;stroke-linecap:round;stroke-linejoin:round;stroke-miterlimit:10;" x1="452.213" y1="447.366" x2="452.213" y2="451.742"/>
						</g>
						<g>
							<rect x="441.538" y="451.749" style="fill:#F9B274;" width="20.835" height="4.376"/>
							
								<rect x="441.538" y="451.749" style="fill:none;stroke:#2E2854;stroke-width:1.2;stroke-linecap:round;stroke-linejoin:round;stroke-miterlimit:10;" width="20.835" height="4.376"/>
							
								<line style="fill:none;stroke:#2E2854;stroke-width:1.2;stroke-linecap:round;stroke-linejoin:round;stroke-miterlimit:10;" x1="451.956" y1="451.749" x2="451.956" y2="456.125"/>
							
								<line style="fill:none;stroke:#2E2854;stroke-width:1.2;stroke-linecap:round;stroke-linejoin:round;stroke-miterlimit:10;" x1="449.668" y1="451.749" x2="449.668" y2="456.125"/>
							
								<line style="fill:none;stroke:#2E2854;stroke-width:1.2;stroke-linecap:round;stroke-linejoin:round;stroke-miterlimit:10;" x1="447.38" y1="451.749" x2="447.38" y2="456.125"/>
							
								<line style="fill:none;stroke:#2E2854;stroke-width:1.2;stroke-linecap:round;stroke-linejoin:round;stroke-miterlimit:10;" x1="445.092" y1="451.749" x2="445.092" y2="456.125"/>
							
								<line style="fill:none;stroke:#2E2854;stroke-width:1.2;stroke-linecap:round;stroke-linejoin:round;stroke-miterlimit:10;" x1="442.804" y1="451.749" x2="442.804" y2="456.125"/>
							
								<line style="fill:none;stroke:#2E2854;stroke-width:1.2;stroke-linecap:round;stroke-linejoin:round;stroke-miterlimit:10;" x1="461.108" y1="451.749" x2="461.108" y2="456.125"/>
							
								<line style="fill:none;stroke:#2E2854;stroke-width:1.2;stroke-linecap:round;stroke-linejoin:round;stroke-miterlimit:10;" x1="458.82" y1="451.749" x2="458.82" y2="456.125"/>
							
								<line style="fill:none;stroke:#2E2854;stroke-width:1.2;stroke-linecap:round;stroke-linejoin:round;stroke-miterlimit:10;" x1="456.532" y1="451.749" x2="456.532" y2="456.125"/>
							
								<line style="fill:none;stroke:#2E2854;stroke-width:1.2;stroke-linecap:round;stroke-linejoin:round;stroke-miterlimit:10;" x1="454.244" y1="451.749" x2="454.244" y2="456.125"/>
						</g>
					</g>
					<g>
						<g>
							
								<ellipse transform="matrix(0.7071 -0.7071 0.7071 0.7071 -167.7924 459.7792)" style="fill:#FCCB6C;" cx="471.106" cy="432.433" rx="9.183" ry="9.183"/>
							
								<circle style="fill:none;stroke:#2E2854;stroke-width:1.2;stroke-linecap:round;stroke-linejoin:round;stroke-miterlimit:10;" cx="471.106" cy="432.433" r="6.796"/>
							<g>
								<path style="fill:#EBB959;" d="M470.965,427.524c0.272,0,0.488,0.216,0.488,0.487v0.249c0.669,0.08,1.236,0.296,1.757,0.624
									c0.181,0.102,0.34,0.272,0.34,0.545c0,0.351-0.284,0.623-0.635,0.623c-0.114,0-0.227-0.033-0.34-0.102
									c-0.397-0.238-0.783-0.408-1.168-0.499v2.177c1.723,0.431,2.46,1.122,2.46,2.335c0,1.247-0.975,2.075-2.415,2.211v0.68
									c0,0.272-0.216,0.487-0.488,0.487c-0.272,0-0.499-0.215-0.499-0.487v-0.702c-0.85-0.091-1.632-0.398-2.324-0.885
									c-0.193-0.124-0.306-0.306-0.306-0.544c0-0.351,0.272-0.624,0.623-0.624c0.136,0,0.272,0.045,0.374,0.125
									c0.533,0.385,1.054,0.646,1.678,0.759v-2.233c-1.655-0.431-2.426-1.055-2.426-2.335c0-1.213,0.964-2.052,2.381-2.166v-0.238
									C470.466,427.74,470.693,427.524,470.965,427.524z M470.511,431.39v-2.006c-0.726,0.068-1.088,0.453-1.088,0.952
									C469.423,430.812,469.638,431.106,470.511,431.39z M471.407,432.966v2.063c0.726-0.079,1.123-0.442,1.123-0.986
									C472.53,433.545,472.28,433.238,471.407,432.966z"/>
							</g>
						</g>
						<g>
							<circle style="fill:#FCCB6C;" cx="487.968" cy="448.773" r="9.183"/>
							
								<circle style="fill:none;stroke:#2E2854;stroke-width:1.2;stroke-linecap:round;stroke-linejoin:round;stroke-miterlimit:10;" cx="487.968" cy="448.773" r="6.796"/>
							<g>
								<path style="fill:#EBB959;" d="M487.827,443.864c0.272,0,0.487,0.216,0.487,0.487v0.249c0.669,0.08,1.236,0.296,1.757,0.624
									c0.181,0.102,0.34,0.272,0.34,0.545c0,0.351-0.284,0.623-0.635,0.623c-0.113,0-0.227-0.033-0.34-0.102
									c-0.397-0.238-0.783-0.408-1.168-0.498v2.177c1.723,0.431,2.46,1.122,2.46,2.335c0,1.247-0.975,2.075-2.415,2.211v0.68
									c0,0.273-0.216,0.487-0.487,0.487c-0.272,0-0.499-0.215-0.499-0.487v-0.702c-0.85-0.091-1.632-0.398-2.324-0.885
									c-0.193-0.124-0.306-0.306-0.306-0.544c0-0.351,0.272-0.624,0.623-0.624c0.136,0,0.273,0.045,0.375,0.125
									c0.533,0.386,1.054,0.646,1.678,0.759v-2.233c-1.655-0.431-2.426-1.055-2.426-2.335c0-1.213,0.964-2.052,2.381-2.166v-0.238
									C487.328,444.08,487.555,443.864,487.827,443.864z M487.373,447.73v-2.006c-0.726,0.068-1.088,0.453-1.088,0.952
									C486.285,447.152,486.5,447.446,487.373,447.73z M488.269,449.306v2.063c0.726-0.079,1.123-0.442,1.123-0.986
									C489.392,449.885,489.142,449.578,488.269,449.306z"/>
							</g>
						</g>
						<g>
							<path style="fill:#FCCB6C;" d="M469.367,447.086c2.157-4.59,0.184-10.06-4.406-12.217c-4.59-2.157-10.06-0.184-12.217,4.406
								c-2.157,4.59-0.184,10.06,4.406,12.217C461.74,453.65,467.21,451.677,469.367,447.086z"/>
							
								<path style="fill:none;stroke:#2E2854;stroke-width:1.2;stroke-linecap:round;stroke-linejoin:round;stroke-miterlimit:10;" d="
								M467.206,446.071c1.596-3.397,0.136-7.445-3.261-9.041c-3.397-1.596-7.445-0.136-9.041,3.261
								c-1.596,3.397-0.136,7.444,3.261,9.041C461.562,450.928,465.61,449.468,467.206,446.071z"/>
							<g>
								<path style="fill:#EBB959;" d="M463.015,438.678c0.246,0.116,0.349,0.403,0.234,0.648l-0.106,0.226
									c0.572,0.357,0.993,0.793,1.326,1.312c0.121,0.169,0.192,0.391,0.076,0.638c-0.149,0.318-0.521,0.443-0.839,0.294
									c-0.103-0.048-0.191-0.127-0.264-0.237c-0.258-0.384-0.535-0.702-0.845-0.948l-0.926,1.97
									c1.376,1.123,1.75,2.062,1.234,3.16c-0.53,1.129-1.765,1.463-3.126,0.974l-0.289,0.616
									c-0.116,0.247-0.402,0.349-0.648,0.234c-0.246-0.116-0.36-0.407-0.244-0.653l0.299-0.636
									c-0.731-0.444-1.308-1.054-1.727-1.789c-0.122-0.194-0.147-0.407-0.046-0.622c0.149-0.318,0.511-0.449,0.829-0.299
									c0.123,0.058,0.227,0.157,0.286,0.273c0.318,0.576,0.679,1.033,1.196,1.4l0.95-2.021c-1.315-1.094-1.747-1.986-1.203-3.145
									c0.516-1.098,1.745-1.447,3.076-0.948l0.101-0.215C462.471,438.661,462.769,438.562,463.015,438.678z M460.96,441.984
									l0.853-1.816c-0.686-0.247-1.178-0.053-1.39,0.398C460.221,440.998,460.291,441.356,460.96,441.984z M461.101,443.792
									l-0.877,1.867c0.69,0.237,1.204,0.077,1.435-0.415C461.871,444.793,461.775,444.409,461.101,443.792z"/>
							</g>
						</g>
						<g>
							<path style="fill:#FCCB6C;" d="M483.946,447.842c2.157-4.59,0.184-10.06-4.406-12.217c-4.59-2.157-10.06-0.184-12.217,4.406
								c-2.157,4.59-0.184,10.06,4.406,12.217C476.32,454.405,481.789,452.432,483.946,447.842z"/>
							
								<path style="fill:none;stroke:#2E2854;stroke-width:1.2;stroke-linecap:round;stroke-linejoin:round;stroke-miterlimit:10;" d="
								M481.785,446.826c1.596-3.397,0.136-7.444-3.261-9.04c-3.397-1.596-7.444-0.136-9.041,3.261
								c-1.596,3.397-0.136,7.445,3.261,9.041C476.142,451.683,480.189,450.223,481.785,446.826z"/>
							<g>
								<path style="fill:#EBB959;" d="M477.594,439.433c0.246,0.116,0.349,0.403,0.234,0.648l-0.106,0.226
									c0.572,0.357,0.993,0.793,1.326,1.312c0.121,0.169,0.192,0.391,0.076,0.638c-0.149,0.318-0.521,0.443-0.839,0.294
									c-0.103-0.048-0.191-0.127-0.264-0.237c-0.258-0.384-0.535-0.702-0.845-0.948l-0.926,1.97
									c1.376,1.123,1.75,2.062,1.234,3.16c-0.53,1.129-1.765,1.463-3.126,0.974l-0.289,0.616c-0.116,0.247-0.402,0.35-0.648,0.234
									c-0.246-0.116-0.36-0.407-0.244-0.653l0.299-0.636c-0.731-0.444-1.308-1.054-1.727-1.789
									c-0.122-0.194-0.147-0.407-0.046-0.622c0.149-0.318,0.511-0.449,0.829-0.299c0.123,0.058,0.227,0.157,0.286,0.273
									c0.318,0.576,0.679,1.033,1.196,1.4l0.95-2.021c-1.315-1.094-1.747-1.986-1.203-3.145c0.516-1.098,1.745-1.447,3.076-0.948
									l0.101-0.216C477.051,439.416,477.348,439.317,477.594,439.433z M475.54,442.739l0.853-1.816
									c-0.686-0.247-1.178-0.053-1.39,0.398C474.801,441.753,474.87,442.112,475.54,442.739z M475.68,444.547l-0.877,1.867
									c0.69,0.237,1.204,0.077,1.435-0.415C476.45,445.548,476.355,445.164,475.68,444.547z"/>
							</g>
						</g>
					</g>
					
						<path style="fill:none;stroke:#2E2854;stroke-width:1.2;stroke-linecap:round;stroke-linejoin:round;stroke-miterlimit:10;" d="
						M506.626,423.63c0,0,9.218-3.325,6.017-10.406c-3.201-7.081-6.357,6.379,1.99,2.663c8.347-3.716,3.11-10.204,3.11-10.204"/>
					
						<path style="fill:none;stroke:#2E2854;stroke-width:1.2;stroke-linecap:round;stroke-linejoin:round;stroke-miterlimit:10;" d="
						M428.37,399.895c0,0,6.739,0.426,7.964,6.45c1.225,6.025-2.655,7.164-3.982,4.961c-1.327-2.203,6.841-3.886,9.7,1.039
						c2.859,4.925,0,9.622,0,9.622"/>
				</g>
				<g>
					
						<line style="fill:none;stroke:#2E2854;stroke-width:1.2;stroke-linecap:round;stroke-linejoin:round;stroke-miterlimit:10;" x1="473.817" y1="388.989" x2="449.05" y2="448.823"/>
					
						<line style="fill:none;stroke:#2E2854;stroke-width:1.2;stroke-linecap:round;stroke-linejoin:round;stroke-miterlimit:10;" x1="473.817" y1="388.989" x2="498.584" y2="448.823"/>
				</g>
				<path style="fill:#4E448F;" d="M433.764,448.823c4.183,18.263,20.521,31.892,40.053,31.892c19.532,0,35.87-13.629,40.053-31.892
					H433.764z"/>
			</g>
			<g>
				<g>
					<g>
						<g>
							<path style="fill:#5F9E82;" d="M661.246,384.641c-3.534,2.755,0.728,5.145,2.963,2.91
								C666.444,385.317,663.602,382.805,661.246,384.641z"/>
							<path style="fill:#5F9E82;" d="M660.077,418.493c-1.091-7.017-11.304-6.471-13.331-10.057c-2.027-3.586,4.6-3.82,8.654-5.847
								s4.6-9.589-1.481-12.474c-3.916-1.857-6.013-5.524-6.724-8.986c-5.2,3.733-9.063,9.21-10.723,15.58
								c1.948,3.071,1.268,6.623,2.167,11.18c0.491,2.488,0.003,5.05-0.681,7.122c3.29,7.416,9.722,13.123,17.611,15.433
								C658.112,426.444,660.756,422.862,660.077,418.493z"/>
							<path style="fill:#5F9E82;" d="M675.513,384.112c-2.885,1.325-7.406,1.949-7.64,4.6s1.348,8.264,4.962,7.874
								c3.614-0.39,2.99-4.366,6.108-4.444c2.402-0.06,6.424,4.362,11.457,4.867c-1.798-7.23-6.419-13.344-12.631-17.097
								C677.655,381.755,677.112,383.377,675.513,384.112z"/>
							<path style="fill:#5F9E82;" d="M691.226,403.744c0-0.108-0.007-0.214-0.008-0.321c-1.398-0.031-2.989-0.238-4.478-0.834
								c-3.898-1.559-8.342-1.871-12.552-0.468c-4.21,1.403-9.089,7.562-6.337,14.423c1.953,4.869,8.093,5.345,11.411,10.058
								C686.49,421.576,691.226,413.215,691.226,403.744z"/>
							<path style="fill:#5F9E82;" d="M673.534,429.659c-5.022-3.32-8.501-0.818-10.547,1.902c0.138,0.002,0.273,0.01,0.412,0.01
								C666.977,431.571,670.393,430.888,673.534,429.659z"/>
						</g>
						
							<circle style="fill:none;stroke:#2E2854;stroke-width:1.2;stroke-linecap:round;stroke-linejoin:round;stroke-miterlimit:10;" cx="663.399" cy="403.744" r="27.827"/>
					</g>
					<g>
						<path style="fill:#87C699;" d="M695.18,384.435c0,0-7.791-9.971,3.295-18.668C698.474,365.767,707.831,378.289,695.18,384.435
							z"/>
						<path style="fill:#87C699;" d="M686.11,397.009c0,0,7.589,8.778,18.181-1.141C704.291,395.868,693.614,388.875,686.11,397.009
							z"/>
						<path style="fill:#87C699;" d="M679.632,404.796c0,0-11.003-0.997-9.042-13.405
							C670.59,391.391,681.17,393.685,679.632,404.796z"/>
						
							<path style="fill:none;stroke:#2E2854;stroke-width:1.2;stroke-linecap:round;stroke-linejoin:round;stroke-miterlimit:10;" d="
							M677.753,418.806c0,0-2.729-13.749,8.357-21.797c11.086-8.049,11.938-25.274,11.938-25.274"/>
					</g>
					<g>
						<path style="fill:#87C699;" d="M621.896,401.225c0,0,2.988-11.156-9.547-15.005
							C612.348,386.22,609.108,401.581,621.896,401.225z"/>
						<path style="fill:#87C699;" d="M631.194,405.788c0,0-7.93-8.044,0-15.718C631.194,390.069,638.203,396.329,631.194,405.788z"
							/>
						
							<path style="fill:none;stroke:#2E2854;stroke-width:1.2;stroke-linecap:round;stroke-linejoin:round;stroke-miterlimit:10;" d="
							M617.209,395.271c0,0,3.922,8.583,13.985,10.517c10.062,1.933,13.989,6.495,14.326,13.019"/>
					</g>
					
						<path style="fill:none;stroke:#2E2854;stroke-width:1.2;stroke-linecap:round;stroke-linejoin:round;stroke-miterlimit:10;" d="
						M638.191,374.459c0,0-8.143-5.451-11.947,1.324c-3.804,6.776,8.906,1.337,0.965-3.181c-7.941-4.518-10.061,3.546-10.061,3.546"
						/>
					
						<path style="fill:none;stroke:#2E2854;stroke-width:1.2;stroke-linecap:round;stroke-linejoin:round;stroke-miterlimit:10;" d="
						M708.349,407.462c0,0,8.143-5.451,11.947,1.324c3.804,6.776-8.906,1.337-0.965-3.181c7.941-4.518,10.061,3.546,10.061,3.546"/>
					
						<path style="fill:none;stroke:#2E2854;stroke-width:1.2;stroke-linecap:round;stroke-linejoin:round;stroke-miterlimit:10;" d="
						M691.395,360.862c0,0-2.565-6.246,2.316-9.983c4.881-3.737,7.603-0.747,6.203,1.41s-6.487-4.451-3.309-9.177
						c3.178-4.726,8.652-4.21,8.652-4.21"/>
				</g>
				<g>
					
						<line style="fill:none;stroke:#2E2854;stroke-width:1.2;stroke-linecap:round;stroke-linejoin:round;stroke-miterlimit:10;" x1="664.238" y1="355.412" x2="639.471" y2="415.246"/>
					
						<line style="fill:none;stroke:#2E2854;stroke-width:1.2;stroke-linecap:round;stroke-linejoin:round;stroke-miterlimit:10;" x1="664.238" y1="355.412" x2="689.005" y2="415.246"/>
				</g>
				<path style="fill:#4E448F;" d="M624.185,415.246c4.183,18.263,20.521,31.892,40.053,31.892c19.532,0,35.87-13.629,40.053-31.892
					H624.185z"/>
			</g>
		</g>
	</g>
	<g>
		<path style="fill:none;stroke:#2E2854;stroke-width:1.2;stroke-linecap:round;stroke-linejoin:round;stroke-miterlimit:10;" d="
			M548.462,219.572c0,2.835,2.298,5.133,5.133,5.133s5.133-2.298,5.133-5.133c0-2.835-2.298-5.133-5.133-5.133
			S548.462,216.736,548.462,219.572z"/>
		<path style="fill:none;stroke:#2E2854;stroke-width:1.2;stroke-linecap:round;stroke-linejoin:round;stroke-miterlimit:10;" d="
			M668.401,109.947c0,2.835,2.298,5.133,5.133,5.133c2.835,0,5.133-2.298,5.133-5.133c0-2.835-2.298-5.133-5.133-5.133
			C670.699,104.813,668.401,107.112,668.401,109.947z"/>
		<path style="fill:none;stroke:#2E2854;stroke-width:1.2;stroke-linecap:round;stroke-linejoin:round;stroke-miterlimit:10;" d="
			M537.547,438.615c0,2.835,2.298,5.133,5.133,5.133c2.835,0,5.133-2.298,5.133-5.133c0-2.835-2.298-5.133-5.133-5.133
			C539.845,433.482,537.547,435.78,537.547,438.615z"/>
		<path style="fill:none;stroke:#2E2854;stroke-width:1.2;stroke-linecap:round;stroke-linejoin:round;stroke-miterlimit:10;" d="
			M55.964,296.322c0,2.835,2.298,5.133,5.133,5.133c2.835,0,5.133-2.298,5.133-5.133c0-2.835-2.298-5.133-5.133-5.133
			C58.263,291.189,55.964,293.487,55.964,296.322z"/>
		<path style="fill:none;stroke:#2E2854;stroke-width:1.2;stroke-linecap:round;stroke-linejoin:round;stroke-miterlimit:10;" d="
			M182.129,42.967c0,2.835,2.298,5.133,5.133,5.133c2.835,0,5.133-2.298,5.133-5.133c0-2.835-2.298-5.133-5.133-5.133
			C184.427,37.834,182.129,40.132,182.129,42.967z"/>
		<path style="fill:none;stroke:#2E2854;stroke-width:1.2;stroke-linecap:round;stroke-linejoin:round;stroke-miterlimit:10;" d="
			M463.494,63.558c0,2.835,2.298,5.133,5.133,5.133c2.835,0,5.133-2.298,5.133-5.133c0-2.835-2.298-5.133-5.133-5.133
			C465.792,58.425,463.494,60.723,463.494,63.558z"/>
		
			<line style="fill:none;stroke:#2E2854;stroke-width:2;stroke-linecap:round;stroke-linejoin:round;stroke-miterlimit:10;" x1="558.564" y1="54.856" x2="558.564" y2="54.856"/>
		
			<line style="fill:none;stroke:#2E2854;stroke-width:2;stroke-linecap:round;stroke-linejoin:round;stroke-miterlimit:10;" x1="96.442" y1="131.285" x2="96.442" y2="131.285"/>
		
			<line style="fill:none;stroke:#2E2854;stroke-width:2;stroke-linecap:round;stroke-linejoin:round;stroke-miterlimit:10;" x1="202.627" y1="199.27" x2="202.627" y2="199.27"/>
		
			<line style="fill:none;stroke:#2E2854;stroke-width:2;stroke-linecap:round;stroke-linejoin:round;stroke-miterlimit:10;" x1="76.517" y1="90.374" x2="76.517" y2="90.374"/>
		
			<line style="fill:none;stroke:#2E2854;stroke-width:2;stroke-linecap:round;stroke-linejoin:round;stroke-miterlimit:10;" x1="502.228" y1="164.712" x2="502.228" y2="164.712"/>
		
			<line style="fill:none;stroke:#2E2854;stroke-width:2;stroke-linecap:round;stroke-linejoin:round;stroke-miterlimit:10;" x1="415.945" y1="437.139" x2="415.945" y2="437.139"/>
		
			<line style="fill:none;stroke:#2E2854;stroke-width:2;stroke-linecap:round;stroke-linejoin:round;stroke-miterlimit:10;" x1="631.364" y1="229.13" x2="631.364" y2="229.13"/>
		
			<line style="fill:none;stroke:#2E2854;stroke-width:2;stroke-linecap:round;stroke-linejoin:round;stroke-miterlimit:10;" x1="244.138" y1="73.424" x2="244.138" y2="73.424"/>
		
			<line style="fill:none;stroke:#2E2854;stroke-width:2;stroke-linecap:round;stroke-linejoin:round;stroke-miterlimit:10;" x1="652.484" y1="83.69" x2="652.484" y2="83.69"/>
		
			<line style="fill:none;stroke:#2E2854;stroke-width:2;stroke-linecap:round;stroke-linejoin:round;stroke-miterlimit:10;" x1="61.098" y1="423.25" x2="61.098" y2="423.25"/>
		
			<line style="fill:none;stroke:#2E2854;stroke-width:2;stroke-linecap:round;stroke-linejoin:round;stroke-miterlimit:10;" x1="352.094" y1="45.604" x2="352.094" y2="45.604"/>
		
			<line style="fill:none;stroke:#2E2854;stroke-width:2;stroke-linecap:round;stroke-linejoin:round;stroke-miterlimit:10;" x1="428.631" y1="252.876" x2="428.631" y2="252.876"/>
		
			<line style="fill:none;stroke:#2E2854;stroke-width:2;stroke-linecap:round;stroke-linejoin:round;stroke-miterlimit:10;" x1="255.19" y1="236.011" x2="255.19" y2="236.011"/>
		
			<line style="fill:none;stroke:#2E2854;stroke-width:2;stroke-linecap:round;stroke-linejoin:round;stroke-miterlimit:10;" x1="548.298" y1="339.039" x2="548.298" y2="339.039"/>
		
			<line style="fill:none;stroke:#2E2854;stroke-width:2;stroke-linecap:round;stroke-linejoin:round;stroke-miterlimit:10;" x1="586.111" y1="386.22" x2="586.111" y2="386.22"/>
		
			<line style="fill:none;stroke:#2E2854;stroke-width:2;stroke-linecap:round;stroke-linejoin:round;stroke-miterlimit:10;" x1="119.866" y1="346.854" x2="119.866" y2="346.854"/>
		
			<line style="fill:none;stroke:#2E2854;stroke-width:2;stroke-linecap:round;stroke-linejoin:round;stroke-miterlimit:10;" x1="667.011" y1="310.757" x2="667.011" y2="310.757"/>
	</g>
</g>
</svg>
