<?xml version="1.0" encoding="utf-8"?>
<!-- Generator: Adobe Illustrator 27.5.0, SVG Export Plug-In . SVG Version: 6.00 Build 0)  -->
<svg version="1.1" id="Layer_1" xmlns="http://www.w3.org/2000/svg" xmlns:xlink="http://www.w3.org/1999/xlink" x="0px" y="0px"
	 viewBox="0 0 3600 2600" style="enable-background:new 0 0 3600 2600;" xml:space="preserve">
<rect x="0" y="0" style="fill:#FFFFFF;" width="3600" height="2600"/>
<g>
	<path style="fill:#E6F1F2;" d="M3244.207,2313.984c462.141-1333.168-451.69-1880.358-1040.483-2020.481
		c-824.043-196.109-288.899,857.55-1357.617,1052.107c-414.574,75.472-657.522,498.551-500.528,968.375H3244.207z"/>
	<path style="fill:#E6F1F2;" d="M525.932,1064.626c-73.657-310.059,471.27-822.98,829.451-719.093s40.411,640.519-208.861,767.236
		C794.66,1291.636,556.765,1194.414,525.932,1064.626z"/>
	<path style="fill:#A9C1C3;" d="M1732.902,1723.148c-3.382,0.717-6.764,1.366-10.141,1.95l-0.604-3.484
		c6.982-1.211,14.006-2.712,20.867-4.461l0.874,3.426C1740.269,1721.507,1736.602,1722.364,1732.902,1723.148z M1701.331,1727.923
		c-7.146,0.653-14.41,1.022-21.587,1.097l-0.036-3.537c7.082-0.073,14.249-0.437,21.3-1.083L1701.331,1727.923z M1764.609,1714.397
		l-1.146-3.344c6.711-2.301,13.401-4.898,19.881-7.722l1.414,3.241C1778.189,1709.434,1771.411,1712.067,1764.609,1714.397z
		 M1658.139,1728.369c-7.161-0.505-14.389-1.314-21.486-2.401l0.537-3.496c7,1.073,14.133,1.87,21.197,2.371L1658.139,1728.369z
		 M1804.209,1697.14l-1.67-3.116c6.242-3.346,12.424-6.991,18.375-10.831l1.918,2.972
		C1816.801,1690.057,1810.536,1693.75,1804.209,1697.14z M1615.42,1721.834c-6.983-1.657-13.991-3.623-20.828-5.842l1.091-3.363
		c6.748,2.189,13.663,4.128,20.553,5.762L1615.42,1721.834z M1840.493,1673.729l-2.151-2.806
		c5.612-4.303,11.125-8.894,16.385-13.648l2.371,2.625C1851.766,1664.715,1846.181,1669.369,1840.493,1673.729z M1574.307,1708.494
		c-6.628-2.758-13.227-5.818-19.614-9.1l1.617-3.146c6.301,3.238,12.814,6.26,19.356,8.981L1574.307,1708.494z M1872.538,1644.772
		l-2.575-2.423c4.853-5.152,9.56-10.569,13.991-16.101l2.76,2.211C1882.225,1634.065,1877.455,1639.554,1872.538,1644.772z
		 M1535.872,1688.753c-6.104-3.781-12.129-7.855-17.906-12.109l2.097-2.849c5.702,4.198,11.646,8.22,17.671,11.951
		L1535.872,1688.753z M1899.539,1611.058l-2.928-1.981c3.975-5.871,7.759-11.972,11.248-18.132l3.077,1.741
		C1907.401,1598.93,1903.567,1605.11,1899.539,1611.058z M1501.085,1663.138c-5.425-4.707-10.721-9.691-15.74-14.809l2.525-2.477
		c4.954,5.052,10.18,9.969,15.533,14.616L1501.085,1663.138z M1920.829,1573.458l-3.207-1.491
		c2.992-6.438,5.753-13.065,8.208-19.697l3.318,1.228C1926.658,1560.218,1923.859,1566.933,1920.829,1573.458z M1470.847,1632.303
		c-4.598-5.514-9.024-11.281-13.157-17.137l2.89-2.039c4.077,5.78,8.445,11.47,12.982,16.913L1470.847,1632.303z M1935.832,1532.933
		l-3.405-0.959c1.919-6.819,3.58-13.807,4.942-20.766l3.47,0.68C1939.461,1518.939,1937.776,1526.02,1935.832,1532.933z
		 M1445.966,1597.024c-3.646-6.178-7.086-12.588-10.223-19.045l3.182-1.546c3.095,6.373,6.489,12.697,10.089,18.795
		L1445.966,1597.024z M1944.126,1490.502l-3.515-0.395c0.791-7.031,1.302-14.189,1.519-21.276l3.536,0.109
		C1945.444,1476.123,1944.927,1483.378,1944.126,1490.502z M1427.097,1558.165c-2.603-6.694-4.966-13.572-7.018-20.441l3.39-1.011
		c2.024,6.778,4.356,13.566,6.926,20.172L1427.097,1558.165z M1945.454,1447.322l-3.531,0.18c-0.358-7.08-1.008-14.227-1.93-21.243
		l3.507-0.461C1944.434,1432.907,1945.092,1440.15,1945.454,1447.322z M1418.168,1516.048l-3.46,0.733l-0.134-0.633
		c-1.493-7.044-2.717-14.213-3.639-21.304l3.508-0.457c0.91,7,2.118,14.075,3.591,21.028L1418.168,1516.048z M1936.379,1405.24
		c-1.484-6.954-3.259-13.911-5.273-20.675l3.391-1.008c2.04,6.853,3.837,13.9,5.341,20.947L1936.379,1405.24z M1412.541,1473.143
		l-3.532,0.173c-0.351-7.172-0.413-14.443-0.184-21.614l3.533,0.113C1412.133,1458.891,1412.194,1466.066,1412.541,1473.143z
		 M1924.2,1364.384c-2.557-6.6-5.42-13.181-8.507-19.559l3.183-1.54c3.13,6.463,6.031,13.133,8.622,19.821L1924.2,1364.384z
		 M1413.902,1430.54l-3.513-0.399c0.807-7.126,1.922-14.319,3.311-21.382l3.47,0.684
		C1415.801,1416.41,1414.702,1423.509,1413.902,1430.54z M1905.627,1326.019c-3.585-6.091-7.47-12.118-11.547-17.914l2.894-2.036
		c4.131,5.875,8.068,11.984,11.701,18.157L1905.627,1326.019z M1422.136,1388.683l-3.403-0.963
		c1.951-6.909,4.208-13.825,6.711-20.558l3.315,1.232C1426.292,1375.039,1424.063,1381.864,1422.136,1388.683z M1881.121,1291.175
		c-4.526-5.441-9.334-10.768-14.288-15.829l2.528-2.474c5.02,5.13,9.892,10.526,14.48,16.043L1881.121,1291.175z M1436.992,1348.708
		l-3.205-1.496c3.035-6.511,6.371-12.975,9.915-19.214l3.074,1.746C1443.28,1335.902,1439.988,1342.282,1436.992,1348.708z
		 M1851.317,1260.71c-5.351-4.654-10.951-9.144-16.642-13.346l2.101-2.846c5.767,4.259,11.441,8.807,16.862,13.522L1851.317,1260.71
		z M1458.046,1311.624l-2.924-1.986c4.029-5.936,8.351-11.784,12.846-17.386l2.757,2.215
		C1466.291,1299.994,1462.025,1305.768,1458.046,1311.624z M1817.015,1235.391c-6.019-3.739-12.263-7.281-18.56-10.525l1.618-3.143
		c6.382,3.286,12.71,6.874,18.808,10.663L1817.015,1235.391z M1484.738,1278.384l-2.573-2.427
		c4.925-5.215,10.125-10.297,15.457-15.102l2.368,2.626C1494.729,1268.223,1489.596,1273.238,1484.738,1278.384z M1779.107,1215.861
		c-6.553-2.735-13.285-5.232-20.008-7.422l1.095-3.363c6.814,2.22,13.635,4.752,20.276,7.521L1779.107,1215.861z M1516.391,1249.855
		l-2.149-2.81c5.695-4.354,11.642-8.532,17.677-12.418l1.915,2.973C1527.879,1241.435,1522.009,1245.557,1516.391,1249.855z
		 M1738.554,1202.652c-6.89-1.645-13.938-3.027-20.948-4.108l0.541-3.497c7.102,1.097,14.245,2.497,21.228,4.165L1738.554,1202.652z
		 M1552.224,1226.793l-1.667-3.12c6.33-3.38,12.879-6.546,19.464-9.404l1.407,3.243
		C1564.932,1220.333,1558.47,1223.455,1552.224,1226.793z M1696.41,1196.149c-7.055-0.508-14.229-0.734-21.318-0.668l-0.033-3.537
		c7.186-0.065,14.454,0.162,21.606,0.678L1696.41,1196.149z M1591.321,1209.812l-1.144-3.348c6.782-2.315,13.751-4.386,20.717-6.157
		l0.871,3.427C1604.892,1205.482,1598.012,1207.527,1591.321,1209.812z M1653.789,1196.535c-7.044,0.635-14.162,1.564-21.152,2.763
		l-0.597-3.485c7.084-1.215,14.294-2.157,21.43-2.801L1653.789,1196.535z"/>
	<path style="fill:#FFFFFF;" d="M1067.81,2089.48c-14.894-1.073-29.799-3.277-44.299-6.543l1.615-7.171
		c14.144,3.187,28.683,5.333,43.215,6.385L1067.81,2089.48z M1112.589,2089.408l-0.553-7.329
		c14.521-1.098,29.049-3.294,43.186-6.532l1.644,7.164C1142.37,2086.031,1127.476,2088.285,1112.589,2089.408z M980.655,2069.82
		c-13.864-5.419-27.456-11.944-40.394-19.398l3.668-6.367c12.619,7.268,25.876,13.635,39.403,18.918L980.655,2069.82z
		 M1199.65,2069.457l-2.699-6.841c13.495-5.323,26.716-11.725,39.292-19.025l3.689,6.36
		C1227.038,2057.434,1213.486,2063.999,1199.65,2069.457z M903.227,2025.22c-11.65-9.27-22.711-19.503-32.879-30.413l5.376-5.01
		c9.92,10.645,20.712,20.626,32.082,29.673L903.227,2025.22z M1276.867,2024.649l-4.594-5.742
		c11.33-9.066,22.094-19.079,31.985-29.76l5.391,4.996C1299.51,2005.089,1288.481,2015.354,1276.867,2024.649z M842.347,1959.868
		c-8.441-12.303-16.007-25.324-22.488-38.7l6.611-3.208c6.324,13.049,13.706,25.751,21.936,37.752L842.347,1959.868z
		 M1337.56,1959.1l-6.073-4.142c8.186-12.012,15.533-24.746,21.835-37.849l6.625,3.187
		C1353.488,1933.73,1345.955,1946.783,1337.56,1959.1z M803.396,1879.515c-4.414-14.223-7.785-28.909-10.017-43.653l7.264-1.098
		c2.182,14.377,5.47,28.701,9.773,42.569L803.396,1879.515z M1376.278,1878.564l-7.027-2.153
		c4.256-13.889,7.497-28.224,9.629-42.605l7.271,1.077C1383.965,1849.63,1380.642,1864.323,1376.278,1878.564z M797.324,1791.201
		h-7.35v-0.646c0-14.962,1.112-29.986,3.302-44.65l7.271,1.084c-2.139,14.309-3.223,28.967-3.223,43.566V1791.201z
		 M1382.056,1790.232c-0.014-14.589-1.116-29.246-3.273-43.566l7.271-1.098c2.211,14.679,3.338,29.706,3.352,44.657
		L1382.056,1790.232z M810.23,1704.391l-7.027-2.161c4.382-14.227,9.891-28.263,16.376-41.718l6.618,3.194
		C819.873,1676.828,814.501,1690.516,810.23,1704.391z M1369.057,1704.079c-4.292-13.875-9.676-27.549-16.01-40.645l6.618-3.201
		c6.492,13.43,12.016,27.452,16.412,41.679L1369.057,1704.079z M848.079,1625.879l-6.072-4.149
		c8.398-12.296,17.801-24.075,27.944-35.007l5.391,5.003C865.442,1602.389,856.272,1613.881,848.079,1625.879z M1331.146,1625.657
		c-8.201-11.987-17.378-23.465-27.28-34.117l5.383-5.003c10.15,10.918,19.556,22.682,27.962,34.971L1331.146,1625.657z
		 M907.351,1561.992l-4.587-5.742c11.646-9.303,24.082-17.801,36.963-25.259l3.682,6.36
		C930.844,1544.625,918.713,1552.916,907.351,1561.992z M1271.821,1561.838c-11.366-9.069-23.511-17.353-36.098-24.624l3.675-6.367
		c12.902,7.454,25.356,15.946,37.009,25.241L1271.821,1561.838z M982.726,1518.368l-2.692-6.841
		c13.871-5.455,28.27-9.898,42.798-13.207l1.629,7.164C1010.297,1508.714,996.253,1513.046,982.726,1518.368z M1196.345,1518.253
		c-13.538-5.308-27.599-9.629-41.783-12.841l1.622-7.171c14.546,3.298,28.959,7.727,42.845,13.172L1196.345,1518.253z
		 M1067.663,1499.006l-0.546-7.329c14.822-1.105,30.015-1.112,44.772-0.029l-0.538,7.329
		C1096.949,1497.922,1082.126,1497.929,1067.663,1499.006z"/>
	<path style="fill:#FFFFFF;" d="M2224.063,2190.664l-0.014-7.35c14.578-0.025,29.307-0.65,43.778-1.855l0.61,7.322
		C2253.769,2190.007,2238.839,2190.639,2224.063,2190.664z M2179.682,2188.941c-14.704-1.177-29.541-2.979-44.087-5.358l1.184-7.257
		c14.352,2.351,28.984,4.127,43.491,5.287L2179.682,2188.941z M2312.51,2183.263l-1.213-7.25c14.359-2.405,28.783-5.441,42.87-9.019
		l1.809,7.121C2341.695,2177.747,2327.07,2180.826,2312.51,2183.263z M2092.09,2174.593c-14.32-3.585-28.654-7.817-42.608-12.576
		l2.376-6.956c13.757,4.691,27.894,8.865,42.02,12.404L2092.09,2174.593z M2398.537,2161.385l-2.397-6.948
		c13.728-4.734,27.441-10.114,40.76-15.989l2.964,6.726C2426.359,2151.131,2412.455,2156.583,2398.537,2161.385z M2008.04,2145.931
		c-13.498-5.896-26.942-12.446-39.956-19.47l3.489-6.467c12.838,6.927,26.095,13.387,39.41,19.204L2008.04,2145.931z
		 M2479.716,2125.582l-3.517-6.453c12.773-6.952,25.414-14.528,37.577-22.514l4.034,6.145
		C2505.478,2110.856,2492.661,2118.536,2479.716,2125.582z M1929.883,2103.75c-12.339-8.043-24.516-16.714-36.195-25.78l4.508-5.807
		c11.517,8.94,23.529,17.496,35.699,25.428L1929.883,2103.75z M2553.904,2076.869l-4.529-5.793
		c11.467-8.962,22.7-18.512,33.385-28.381l4.989,5.398C2576.912,2058.098,2565.525,2067.781,2553.904,2076.869z M1859.744,2049.305
		c-10.871-9.977-21.462-20.525-31.475-31.357l5.398-4.989c9.877,10.684,20.324,21.089,31.045,30.926L1859.744,2049.305z
		 M2619.115,2016.635l-5.412-4.974c9.855-10.727,19.373-21.986,28.299-33.464l5.8,4.508
		C2638.757,1994.344,2629.107,2005.757,2619.115,2016.635z M1799.474,1984.119c-9.102-11.628-17.819-23.766-25.916-36.073
		l6.144-4.041c7.982,12.141,16.581,24.114,25.557,35.584L1799.474,1984.119z M2673.606,1946.532l-6.159-4.02
		c7.975-12.217,15.519-24.889,22.424-37.666l6.467,3.496C2689.337,1921.298,2681.689,1934.146,2673.606,1946.532z
		 M1750.714,1909.964c-7.059-12.956-13.66-26.361-19.617-39.834l6.726-2.972c5.871,13.29,12.382,26.508,19.344,39.288
		L1750.714,1909.964z M2715.838,1868.393l-6.733-2.95c5.839-13.34,11.187-27.089,15.892-40.857l6.956,2.376
		C2727.179,1840.923,2721.76,1854.862,2715.838,1868.393z M1714.857,1828.81c-4.82-13.94-9.112-28.256-12.755-42.554l7.12-1.816
		c3.596,14.101,7.828,28.22,12.583,41.966L1714.857,1828.81z M2744.549,1784.364l-7.128-1.787
		c3.539-14.105,6.532-28.536,8.894-42.899l7.25,1.192C2751.171,1755.434,2748.138,1770.066,2744.549,1784.364z M1692.929,1742.797
		c-2.44-14.542-4.307-29.369-5.541-44.069l7.322-0.617c1.22,14.499,3.061,29.124,5.47,43.466L1692.929,1742.797z M2758.952,1696.779
		l-7.329-0.589c1.148-14.266,1.73-28.78,1.73-43.139v-0.642h7.35v0.642C2760.703,1667.604,2760.115,1682.319,2758.952,1696.779z
		 M1692.821,1654.34h-7.35v-1.288c0-14.761,0.607-29.691,1.802-44.37l7.329,0.596c-1.181,14.481-1.78,29.211-1.78,43.775V1654.34z
		 M2751.515,1608.634c-1.198-14.503-3.022-29.132-5.412-43.477l7.25-1.206c2.423,14.542,4.271,29.372,5.488,44.073
		L2751.515,1608.634z M1699.967,1565.796l-7.25-1.199c2.408-14.546,5.459-29.178,9.066-43.484l7.128,1.794
		C1705.354,1537.02,1702.343,1551.451,1699.967,1565.796z M2737.109,1522.284c-3.585-14.122-7.802-28.249-12.529-41.984l6.948-2.39
		c4.795,13.925,9.069,28.245,12.708,42.565L2737.109,1522.284z M1721.385,1480.914l-6.955-2.383
		c4.791-13.961,10.229-27.894,16.161-41.413l6.733,2.957C1731.47,1453.404,1726.109,1467.146,1721.385,1480.914z M2708.617,1439.533
		c-5.868-13.319-12.361-26.544-19.302-39.314l6.46-3.51c7.034,12.945,13.62,26.357,19.567,39.859L2708.617,1439.533z
		 M1756.604,1400.693l-6.46-3.503c7.038-12.981,14.7-25.819,22.779-38.158l6.151,4.027
		C1771.107,1375.229,1763.545,1387.891,1756.604,1400.693z M2666.82,1362.632c-7.96-12.141-16.545-24.121-25.514-35.613l5.792-4.522
		c9.094,11.65,17.798,23.798,25.866,36.109L2666.82,1362.632z M1804.567,1327.399l-5.8-4.515
		c9.055-11.617,18.72-23.023,28.73-33.894l5.405,4.974C1823.032,1304.692,1813.496,1315.943,1804.567,1327.399z M2612.946,1293.613
		c-9.848-10.681-20.281-21.099-31.009-30.962l4.974-5.412c10.875,9.999,21.451,20.561,31.439,31.393L2612.946,1293.613z
		 M1863.885,1262.977l-4.981-5.405c10.842-9.992,22.241-19.657,33.88-28.733l4.522,5.792
		C1885.825,1243.586,1874.58,1253.122,1863.885,1262.977z M2548.481,1234.334c-11.506-8.954-23.508-17.525-35.667-25.471l4.02-6.151
		c12.328,8.054,24.495,16.742,36.163,25.823L2548.481,1234.334z M1932.933,1209.146l-4.027-6.151
		c12.36-8.097,25.187-15.759,38.126-22.776l3.503,6.46C1957.776,1193.599,1945.125,1201.157,1932.933,1209.146z M2475.154,1186.417
		c-12.791-6.923-26.042-13.401-39.378-19.251l2.95-6.733c13.527,5.932,26.96,12.5,39.931,19.524L2475.154,1186.417z
		 M2009.863,1167.403l-2.957-6.726c13.477-5.929,27.387-11.366,41.341-16.165l2.39,6.948
		C2036.874,1156.195,2023.156,1161.557,2009.863,1167.403z M2394.923,1151.249c-13.76-4.712-27.894-8.904-42.005-12.454l1.795-7.128
		c14.309,3.6,28.64,7.849,42.594,12.626L2394.923,1151.249z M2092.625,1138.957l-1.802-7.128c14.273-3.611,28.902-6.668,43.48-9.094
		l1.206,7.25C2121.132,1132.378,2106.704,1135.397,2092.625,1138.957z M2310.03,1129.884c-14.306-2.362-28.934-4.156-43.484-5.337
		l0.596-7.329c14.747,1.199,29.58,3.018,44.087,5.416L2310.03,1129.884z M2178.986,1124.598l-0.603-7.329
		c14.668-1.206,29.602-1.82,44.378-1.827l0.003,7.35C2208.186,1122.8,2193.457,1123.406,2178.986,1124.598z"/>
	<g>
		<path style="fill:#E07165;" d="M794.832,1673.274c162.161,45.89,542.329,114.938,415.444,540.307
			c-23.509,78.811-276.393-6.652-355.22-214.214C806.899,1872.563,794.832,1673.274,794.832,1673.274z"/>
		<path style="fill:#FFFFFF;" d="M1192.469,2235.418c-31.731-118.935-249.905-441.936-396.454-563.569l-2.367,2.847
			c156.318,129.745,366.546,454.112,395.247,561.675L1192.469,2235.418z"/>
		<path style="fill:#FFFFFF;" d="M976.674,1874.294l0.523-1.653c1.261-3.995,30.592-98.314,3.594-144.089l-3.186,1.88
			c24.258,41.132,0.411,126.446-3.436,139.428c-14.607-3.647-118.851-30.141-162.154-53.776l-1.776,3.254
			c46.806,25.544,163.579,54.255,164.752,54.544L976.674,1874.294z"/>
		<path style="fill:#FFFFFF;" d="M1106.68,2062.351c4.294-7.121,76.812-128.943,64.466-205.221l-3.659,0.59
			c11.841,73.131-56.239,189.757-63.532,201.978c-16.478-2.309-195.046-27.983-247.899-61.892l-1.999,3.119
			c55.835,35.821,242.675,61.533,250.604,62.61l1.198,0.165l0.63-1.031C1106.506,2062.639,1106.572,2062.531,1106.68,2062.351z"/>
	</g>
	<g>
		<path style="fill:#82ACB0;" d="M771.269,2112.091c0,0-91.096-35.587-141.045-23.106c-49.949,12.482-60.359,64.219-10.749,74.929
			C665.885,2173.934,715.555,2119.601,771.269,2112.091z"/>
		<path style="fill:#82ACB0;" d="M740.655,2029.568c0,0-33.367-91.932-19.678-141.564c13.69-49.632,65.664-58.784,75.168-8.929
			C805.037,1925.716,749.515,1974.052,740.655,2029.568z"/>
		<path style="fill:#82ACB0;" d="M925.157,2174.587c0,0-43.768-38.773-63.745-71.986c-26.458-43.989-17.864-98.053,22.239-98.604
			c30.605-0.421,43.382,38.978,33.376,95.456C908.102,2149.837,925.157,2174.587,925.157,2174.587z"/>
		<path style="fill:#82ACB0;" d="M635.158,1950.192c-26.159-21.664-99.388-84.367-142.111-94.965
			c-42.723-10.599-58.767,16.621-61.719,26.44c-2.952,9.82-1.644,42.025,39.304,60.625
			C513.139,1961.599,635.158,1950.192,635.158,1950.192z"/>
		<path style="fill:#82ACB0;" d="M588.988,1835.523c-19.319-16.437-92.745-83.089-114.672-115.431
			c-21.928-32.341-21.469-67.484,8.333-84.352c26.016-14.725,58.443-3.556,76.613,35.464
			C576.413,1708.035,588.988,1835.523,588.988,1835.523z"/>
		<path style="fill:#363B39;" d="M1003.504,2248.491l-6.813,0.879c-63.228-37.305-139.489-87.937-189.447-134.931
			c-97.112-91.35-199.105-205.032-287.066-416.576c-0.418-1.049,0.07-2.241,1.094-2.656c1.046-0.443,2.212,0.048,2.655,1.094
			c87.665,210.839,189.304,324.156,286.092,415.189C859.447,2157.963,938.852,2210.498,1003.504,2248.491z"/>
		<path style="fill:#363B39;" d="M690.632,1986.78c0.614-0.816,0.525-1.981-0.236-2.693
			c-43.682-40.922-156.71-81.649-201.313-88.151c-1.105-0.163-2.133,0.604-2.295,1.714c-0.163,1.105,0.604,2.132,1.714,2.295
			c44.155,6.438,155.989,46.687,199.124,87.098c0.817,0.763,2.1,0.723,2.863-0.094
			C690.541,1986.894,690.587,1986.84,690.632,1986.78z"/>
		<path style="fill:#363B39;" d="M763.468,2068.554c0.602-0.8,0.531-1.942-0.201-2.661c-47.81-46.885-13.566-125.648-1.932-148.67
			c0.506-1.001,0.105-2.219-0.893-2.722s-2.211-0.069-2.722,0.893c-11.949,23.646-47.062,104.583,2.707,153.392
			c0.803,0.782,2.084,0.771,2.867-0.026C763.358,2068.694,763.413,2068.627,763.468,2068.554z"/>
		<path style="fill:#363B39;" d="M832.247,2133.677c0.038-0.051,0.073-0.104,0.108-0.156c0.589-0.953,0.291-2.202-0.659-2.789
			c-58.602-36.121-146.994-26.136-188.273-5.042c-0.982,0.509-1.395,1.728-0.881,2.724c0.508,0.996,1.727,1.389,2.724,0.881
			c40.432-20.658,126.968-30.455,184.302,4.885C830.467,2134.733,831.627,2134.502,832.247,2133.677z"/>
		<path style="fill:#363B39;" d="M985.996,2240.753c0.05-0.066,0.094-0.132,0.135-0.206c0.564-0.967,0.234-2.206-0.736-2.766
			c-46.788-27.173-104.496-129.95-101.222-180.283c0.071-1.115-0.774-2.077-1.892-2.151c-1.121-0.076-2.083,0.775-2.151,1.892
			c-3.343,51.406,55.507,156.328,103.234,184.044C984.26,2241.803,985.389,2241.559,985.996,2240.753z"/>
	</g>
	<g>
		<path style="fill:#D5D9D7;" d="M3054.462,1362.558c-5.293,0-10.517,0.187-15.717,0.586v-10.845h-517.039v0.167h-499.456v10.845
			c-5.2-0.398-10.423-0.586-15.717-0.586c-118.474,0-214.484,96.011-214.484,214.484c0,118.45,96.011,214.484,214.484,214.484
			c10.868,0,21.549-0.82,31.996-2.389c21.57-9.026,40.763-22.582,56.504-39.406v487.761l870.929-0.167V1749.73
			c15.741,16.825,34.934,30.381,56.504,39.406c10.447,1.569,21.128,2.389,31.996,2.389c118.474,0,214.485-96.034,214.485-214.484
			C3268.947,1458.568,3172.936,1362.558,3054.462,1362.558z"/>
		<path style="fill:#C1C4C3;" d="M2209.073,1672.909h-31.357c-6.653,0-12.046-5.393-12.046-12.047v-111.76
			c0-6.653,5.393-12.046,12.046-12.046h31.357c6.653,0,12.046,5.393,12.046,12.046v111.76
			C2221.12,1667.516,2215.726,1672.909,2209.073,1672.909z"/>
		<path style="fill:#C1C4C3;" d="M2305.115,1672.909h-31.357c-6.653,0-12.046-5.393-12.046-12.047v-111.76
			c0-6.653,5.393-12.046,12.046-12.046h31.357c6.653,0,12.046,5.393,12.046,12.046v111.76
			C2317.162,1667.516,2311.769,1672.909,2305.115,1672.909z"/>
		<path style="fill:#C1C4C3;" d="M2401.158,1672.909h-31.357c-6.653,0-12.046-5.393-12.046-12.047v-111.76
			c0-6.653,5.393-12.046,12.046-12.046h31.357c6.653,0,12.046,5.393,12.046,12.046v111.76
			C2413.204,1667.516,2407.811,1672.909,2401.158,1672.909z"/>
		<path style="fill:#C1C4C3;" d="M2497.2,1672.909h-31.357c-6.653,0-12.046-5.393-12.046-12.047v-111.76
			c0-6.653,5.393-12.046,12.046-12.046h31.357c6.653,0,12.046,5.393,12.046,12.046v111.76
			C2509.246,1667.516,2503.853,1672.909,2497.2,1672.909z"/>
		<path style="fill:#E9EDEC;" d="M2317.162,2237.492h-142.49v-339.104c0-39.347,31.897-71.245,71.245-71.245l0,0
			c39.348,0,71.245,31.897,71.245,71.245V2237.492z"/>
		<path style="fill:#C1C4C3;" d="M2196.915,2237.659l1.179-339.271c0-26.369,21.453-47.823,47.823-47.823
			s47.823,21.454,47.823,47.823l-1.179,339.271H2196.915z"/>
		<path style="fill:#E9EDEC;" d="M2509.246,2237.492h-142.49v-339.104c0-39.347,31.897-71.245,71.245-71.245h0
			c39.347,0,71.245,31.897,71.245,71.245V2237.492z"/>
		<path style="fill:#C1C4C3;" d="M2389,2237.659l1.179-339.271c0-26.369,21.454-47.823,47.823-47.823s47.823,21.454,47.823,47.823
			l-1.179,339.271H2389z"/>
		<path style="fill:#E9EDEC;" d="M3046.382,1352.427v-0.129h-524.675v0.167h-507.092v0.129
			c-133.316,4.05-240.507,113.733-240.507,248.014c0,111.025,90.318,201.344,201.32,201.344c22.346,0,43.66-4.497,63.101-12.648
			c46.237-19.347,81.77-59.307,95.074-108.331c3.724-13.679,5.715-28.061,5.715-42.911c0-68.137-51.156-124.54-117.068-132.855
			c-5.528-0.703-11.149-1.054-16.841-1.054c-60.642,0-109.948,49.329-109.948,109.948c0,50.031,40.709,90.764,90.764,90.764
			c21.666,0,41.248-9.205,55.044-23.891c12.625-13.515,20.379-31.621,20.379-51.531c0-26.421-16.327-49.095-39.398-58.487
			c-7.332-3.022-15.342-4.661-23.751-4.661c-29.419,0-53.334,23.915-53.334,53.334c0,7.753,6.301,14.054,14.054,14.054
			c7.753,0,14.054-6.301,14.054-14.054c0-13.913,11.313-25.227,25.227-25.227c9.158,0,17.497,3.537,23.751,9.323
			c6.933,6.394,11.29,15.553,11.29,25.718c0,11.665-4.24,22.369-11.29,30.637c-8.666,10.189-21.596,16.677-36.025,16.677
			c-34.549,0-62.656-28.108-62.656-62.656c0-45.136,36.704-81.84,81.84-81.84c5.739,0,11.36,0.469,16.841,1.335
			c50.359,8.104,88.961,51.858,88.961,104.466c0,14.991-2.436,29.419-6.957,42.911c-17.989,53.896-68.957,92.872-128.827,92.872
			c-221.979-23.774-212.61-343.498,39.187-349.354h524.675v-0.167h507.092c251.797,5.856,261.166,325.579,39.187,349.354
			c-59.869,0-110.838-38.976-128.826-92.872c-4.521-13.492-6.957-27.92-6.957-42.911c0-52.608,38.601-96.362,88.96-104.466
			c5.481-0.867,11.103-1.335,16.841-1.335c45.136,0,81.84,36.704,81.84,81.84c0,34.549-28.107,62.656-62.656,62.656
			c-14.429,0-27.358-6.488-36.025-16.677c-7.05-8.268-11.29-18.973-11.29-30.637c0-10.166,4.357-19.324,11.29-25.718
			c6.254-5.786,14.593-9.323,23.751-9.323c13.914,0,25.226,11.313,25.226,25.227c0,7.753,6.302,14.054,14.054,14.054
			c7.753,0,14.054-6.301,14.054-14.054c0-29.419-23.915-53.334-53.334-53.334c-8.409,0-16.419,1.64-23.751,4.661
			c-23.071,9.393-39.398,32.066-39.398,58.487c0,19.91,7.753,38.016,20.378,51.531c13.796,14.686,33.378,23.891,55.044,23.891
			c50.055,0,90.764-40.733,90.764-90.764c0-60.619-49.305-109.947-109.948-109.947c-5.692,0-11.313,0.351-16.841,1.054
			c-65.912,8.315-117.068,64.718-117.068,132.855c0,14.85,1.991,29.232,5.715,42.911c13.304,49.024,48.837,88.984,95.074,108.331
			c19.441,8.151,40.756,12.648,63.102,12.648c111.002,0,201.32-90.319,201.32-201.344
			C3286.889,1466.16,3179.698,1356.477,3046.382,1352.427z"/>
		<path style="fill:#C1C4C3;" d="M2851.923,1672.742h31.357c6.653,0,12.046-5.393,12.046-12.046v-111.76
			c0-6.653-5.393-12.046-12.046-12.046h-31.357c-6.653,0-12.046,5.393-12.046,12.046v111.76
			C2839.877,1667.349,2845.27,1672.742,2851.923,1672.742z"/>
		<path style="fill:#C1C4C3;" d="M2755.881,1672.742h31.357c6.653,0,12.047-5.393,12.047-12.046v-111.76
			c0-6.653-5.394-12.046-12.047-12.046h-31.357c-6.653,0-12.046,5.393-12.046,12.046v111.76
			C2743.835,1667.349,2749.228,1672.742,2755.881,1672.742z"/>
		<path style="fill:#C1C4C3;" d="M2659.839,1672.742h31.357c6.653,0,12.046-5.393,12.046-12.046v-111.76
			c0-6.653-5.393-12.046-12.046-12.046h-31.357c-6.653,0-12.046,5.393-12.046,12.046v111.76
			C2647.793,1667.349,2653.186,1672.742,2659.839,1672.742z"/>
		<path style="fill:#C1C4C3;" d="M2560.455,1669.373h31.357c6.653,0,12.046-5.393,12.046-12.046v-111.76
			c0-6.653-5.393-12.046-12.046-12.046h-31.357c-6.653,0-12.046,5.393-12.046,12.046v111.76
			C2548.409,1663.98,2553.802,1669.373,2560.455,1669.373z"/>
		<polygon style="fill:#C1C4C3;" points="2895.327,1495.262 2867.602,1463.641 2193.395,1463.808 2165.67,1495.429 		"/>
		<path style="fill:#E9EDEC;" d="M2891.548,1725.309l-722.099,0.167c-15.01,0-27.179,12.168-27.179,27.178
			c0,15.01,12.168,27.178,27.179,27.178l722.099-0.167c15.01,0,27.178-12.168,27.178-27.179
			C2918.727,1737.478,2906.558,1725.309,2891.548,1725.309z"/>
		<path style="fill:#E9EDEC;" d="M2743.835,2237.325h142.49v-339.104c0-39.348-31.897-71.245-71.245-71.245l0,0
			c-39.347,0-71.245,31.897-71.245,71.245V2237.325z"/>
		<path style="fill:#C1C4C3;" d="M2864.082,2237.492l-1.179-339.271c0-26.369-21.454-47.823-47.823-47.823
			s-47.823,21.453-47.823,47.823l1.179,339.271H2864.082z"/>
		<path style="fill:#E9EDEC;" d="M2551.751,2237.325h142.49v-339.104c0-39.348-31.897-71.245-71.245-71.245l0,0
			c-39.347,0-71.245,31.897-71.245,71.245V2237.325z"/>
		<path style="fill:#C1C4C3;" d="M2671.997,2237.492l-1.179-339.271c0-26.369-21.454-47.823-47.823-47.823
			s-47.823,21.453-47.823,47.823l1.179,339.271H2671.997z"/>
	</g>
	<g>
		<path style="fill:#E07165;" d="M3100.405,2016.828c0,0,57.321-48.194,96.614-51.416c39.292-3.222,59.555,31.742,26.208,51.7
			C3192.03,2035.784,3142.657,2008.584,3100.405,2016.828z"/>
		<path style="fill:#E07165;" d="M3102.33,1949.457c0,0,1.609-74.872-20.515-107.503s-62.067-26.497-56.709,11.995
			C3030.118,1889.96,3082.262,1911.372,3102.33,1949.457z"/>
		<path style="fill:#E07165;" d="M3004.157,2099.967c0,0,22.215-38.875,28.541-67.871c8.379-38.404-11.138-75.502-40.358-66.047
			c-22.299,7.215-21.884,38.928-0.75,77.429C3010.444,2077.826,3004.157,2099.967,3004.157,2099.967z"/>
		<path style="fill:#E07165;" d="M3159.335,1865.967c13.648-22.14,51.349-85.608,79.729-103.793
			c28.38-18.185,46.704-2.387,51.258,4.009c4.554,6.396,11.519,30.074-13.608,53.625
			C3250.631,1844.257,3159.335,1865.967,3159.335,1865.967z"/>
		<path style="fill:#E07165;" d="M3164.642,1771.46c9.972-16.668,46.844-83.049,54.8-111.893
			c7.956-28.843-1.013-54.218-26.771-59.127c-22.486-4.286-43.259,11.782-46.848,44.546
			C3142.435,1675.91,3164.642,1771.46,3164.642,1771.46z"/>
		<path style="fill:#ECC887;" d="M2905.481,2237.76c-0.143-0.097-0.271-0.221-0.379-0.369c-0.506-0.694-0.351-1.663,0.342-2.166
			c22.076-16.044,124.57-130.198,166.704-209.315c47.825-89.804,93.703-196.953,105.47-371.41c0.056-0.856,0.798-1.502,1.65-1.445
			c0.85,0.056,1.506,0.793,1.445,1.65c-11.807,175.042-57.839,282.556-105.827,372.663
			c-44.143,82.891-146.37,194.92-167.618,210.363C2906.721,2238.13,2906.006,2238.119,2905.481,2237.76z"/>
		<path style="fill:#ECC887;" d="M3128.094,1906.133c-0.646-0.441-0.868-1.308-0.49-2.011
			c21.624-40.412,93.589-97.723,124.338-113.398c0.761-0.39,1.695-0.086,2.085,0.679c0.39,0.761,0.086,1.695-0.679,2.086
			c-30.441,15.519-101.656,72.19-123.01,112.097c-0.405,0.754-1.345,1.041-2.099,0.635
			C3128.188,1906.194,3128.141,1906.166,3128.094,1906.133z"/>
		<path style="fill:#ECC887;" d="M3095.365,1983.337c-0.633-0.432-0.862-1.278-0.508-1.979
			c23.153-45.751-21.037-94.458-35.131-108.296c-0.613-0.602-0.621-1.583-0.021-2.193c0.6-0.61,1.586-0.593,2.193-0.021
			c14.477,14.213,59.83,64.283,35.729,111.911c-0.39,0.765-1.322,1.071-2.085,0.685
			C3095.479,1983.411,3095.423,1983.376,3095.365,1983.337z"/>
		<path style="fill:#ECC887;" d="M3061.486,2047.467c-0.04-0.027-0.078-0.057-0.117-0.087c-0.661-0.547-0.752-1.526-0.207-2.185
			c33.624-40.597,100.183-55.075,135.304-49.92c0.837,0.128,1.436,0.911,1.308,1.759c-0.124,0.847-0.912,1.432-1.759,1.308
			c-34.399-5.047-99.566,9.113-132.462,48.831C3063.037,2047.796,3062.139,2047.913,3061.486,2047.467z"/>
		<path style="fill:#ECC887;" d="M2976.293,2162.903c-0.052-0.036-0.101-0.073-0.148-0.116c-0.647-0.563-0.712-1.542-0.146-2.187
			c27.255-31.204,43.852-119.922,29.11-155.621c-0.326-0.791,0.051-1.697,0.843-2.025c0.794-0.331,1.701,0.05,2.025,0.843
			c15.056,36.46-1.842,127.015-29.644,158.843C2977.811,2163.238,2976.931,2163.338,2976.293,2162.903z"/>
	</g>
	<g>
		<path style="fill:#ECC887;" d="M2447.929,1747.725c0.466,0,0.898-0.297,1.048-0.764l324.5-1008.759l324.5,1008.759
			c0.186,0.58,0.801,0.898,1.386,0.711c0.578-0.186,0.897-0.807,0.711-1.386L2773.477,731.011l-326.596,1015.275
			c-0.186,0.579,0.132,1.2,0.711,1.386C2447.704,1747.708,2447.817,1747.725,2447.929,1747.725z"/>
		<path style="fill:#ECC887;" d="M2793.293,1747.725c0.006,0,0.014,0,0.021,0c0.609-0.012,1.091-0.515,1.079-1.123l-19.816-1012.017
			c-0.012-0.607-0.417-1.14-1.123-1.08c-0.607,0.012-1.091,0.515-1.079,1.122l19.816,1012.017
			C2792.204,1747.247,2792.694,1747.725,2793.293,1747.725z"/>
		<polygon style="fill:#ECA72C;" points="1910.985,497.379 1869.497,497.379 1889.602,389.167 		"/>
		
			<rect x="1291.888" y="644.718" transform="matrix(0.942 -0.3355 0.3355 0.942 -130.7298 560.2999)" style="fill:#ECA72C;" width="528.505" height="27.526"/>
		
			<rect x="1958.833" y="644.718" transform="matrix(-0.942 -0.3355 0.3355 -0.942 4096.3613 2024.6971)" style="fill:#ECA72C;" width="528.505" height="27.526"/>
		<path style="fill:#ECC887;" d="M1331.297,1747.725c-0.465,0-0.898-0.297-1.048-0.764l-324.5-1008.759l-324.5,1008.759
			c-0.186,0.58-0.801,0.898-1.386,0.711c-0.578-0.186-0.897-0.807-0.711-1.386l326.597-1015.275l326.597,1015.275
			c0.186,0.579-0.132,1.2-0.711,1.386C1331.522,1747.708,1331.409,1747.725,1331.297,1747.725z"/>
		<g>
			<path style="fill:#CC8E1F;" d="M3099.025,1748.827c0.222,0,0.45-0.034,0.674-0.106c1.158-0.373,1.795-1.613,1.423-2.771
				l-6.743-20.963c-0.372-1.157-1.607-1.795-2.771-1.422c-1.158,0.373-1.795,1.613-1.423,2.771l6.743,20.963
				C3097.23,1748.232,3098.094,1748.827,3099.025,1748.827z"/>
			<path style="fill:#CC8E1F;" d="M3076.617,1684.158l-13.567-42.178c-0.372-1.158,0.264-2.398,1.423-2.771
				c1.161-0.374,2.398,0.267,2.771,1.422l13.568,42.178c0.372,1.158-0.265,2.398-1.423,2.771c-0.224,0.072-0.452,0.106-0.675,0.106
				C3077.783,1685.687,3076.918,1685.091,3076.617,1684.158z M3049.481,1599.802l-13.567-42.179
				c-0.372-1.158,0.264-2.398,1.422-2.771c1.159-0.374,2.399,0.267,2.771,1.423l13.568,42.179c0.372,1.158-0.265,2.398-1.423,2.771
				c-0.224,0.072-0.452,0.107-0.674,0.107C3050.647,1601.331,3049.782,1600.736,3049.481,1599.802z M3022.346,1515.446
				l-13.569-42.178c-0.372-1.158,0.265-2.398,1.423-2.771c1.162-0.375,2.398,0.267,2.771,1.422l13.569,42.178
				c0.372,1.158-0.265,2.398-1.423,2.771c-0.224,0.072-0.452,0.106-0.674,0.106
				C3023.512,1516.975,3022.647,1516.379,3022.346,1515.446z M2995.21,1431.091l-13.569-42.179
				c-0.372-1.158,0.265-2.398,1.423-2.771c1.16-0.376,2.398,0.266,2.771,1.423l13.569,42.179c0.372,1.158-0.265,2.398-1.423,2.771
				c-0.224,0.072-0.452,0.106-0.674,0.106C2996.376,1432.62,2995.511,1432.024,2995.21,1431.091z M2968.074,1346.734l-13.567-42.178
				c-0.372-1.158,0.264-2.398,1.422-2.771c1.152-0.371,2.398,0.266,2.771,1.423l13.567,42.178c0.372,1.158-0.264,2.398-1.422,2.771
				c-0.224,0.072-0.452,0.107-0.675,0.107C2969.24,1348.263,2968.375,1347.668,2968.074,1346.734z M2940.938,1262.379
				l-13.567-42.179c-0.372-1.158,0.264-2.398,1.422-2.771c1.161-0.372,2.398,0.266,2.771,1.423l13.567,42.179
				c0.372,1.158-0.264,2.398-1.422,2.771c-0.224,0.072-0.452,0.106-0.674,0.106
				C2942.104,1263.908,2941.239,1263.312,2940.938,1262.379z M2913.803,1178.023l-13.568-42.178
				c-0.372-1.158,0.264-2.398,1.422-2.771c1.159-0.374,2.399,0.267,2.771,1.422l13.569,42.178c0.372,1.158-0.264,2.398-1.423,2.771
				c-0.224,0.072-0.452,0.106-0.675,0.106C2914.969,1179.552,2914.104,1178.956,2913.803,1178.023z M2886.667,1093.667
				l-13.568-42.179c-0.372-1.158,0.264-2.398,1.422-2.771c1.154-0.372,2.397,0.265,2.771,1.423l13.569,42.179
				c0.372,1.158-0.265,2.398-1.423,2.771c-0.224,0.072-0.452,0.107-0.675,0.107
				C2887.833,1095.197,2886.969,1094.601,2886.667,1093.667z M2859.531,1009.311l-13.567-42.178
				c-0.372-1.158,0.264-2.398,1.423-2.771c1.16-0.376,2.398,0.266,2.771,1.422l13.568,42.178c0.372,1.158-0.265,2.398-1.423,2.771
				c-0.224,0.072-0.452,0.106-0.674,0.106C2860.697,1010.84,2859.833,1010.244,2859.531,1009.311z M2832.395,924.956l-13.567-42.179
				c-0.372-1.158,0.264-2.398,1.423-2.771c1.158-0.376,2.399,0.266,2.771,1.423l13.568,42.179c0.372,1.158-0.265,2.398-1.423,2.771
				c-0.224,0.072-0.452,0.106-0.674,0.106C2833.561,926.485,2832.696,925.889,2832.395,924.956z M2805.259,840.599l-13.567-42.178
				c-0.372-1.158,0.264-2.398,1.423-2.771c1.156-0.373,2.398,0.265,2.771,1.423l13.567,42.178c0.372,1.158-0.264,2.398-1.422,2.771
				c-0.224,0.072-0.452,0.107-0.675,0.107C2806.425,842.128,2805.56,841.533,2805.259,840.599z"/>
			<path style="fill:#CC8E1F;" d="M2766.733,757.773c0.931,0,1.796-0.596,2.097-1.529l4.647-14.447l4.647,14.447
				c0.373,1.157,1.615,1.797,2.771,1.423c1.158-0.373,1.794-1.613,1.423-2.771l-8.841-27.481l-8.841,27.481
				c-0.372,1.158,0.264,2.398,1.423,2.771C2766.283,757.739,2766.51,757.773,2766.733,757.773z"/>
			<path style="fill:#CC8E1F;" d="M2467.566,1685.58c-1.158-0.373-1.795-1.613-1.423-2.771l13.569-42.178
				c0.373-1.158,1.617-1.792,2.771-1.422c1.158,0.373,1.795,1.614,1.423,2.771l-13.568,42.178c-0.301,0.933-1.166,1.529-2.096,1.529
				C2468.018,1685.687,2467.79,1685.652,2467.566,1685.58z M2494.702,1601.225c-1.158-0.373-1.794-1.613-1.423-2.771l13.568-42.179
				c0.373-1.156,1.614-1.797,2.771-1.423c1.158,0.373,1.795,1.613,1.423,2.771l-13.567,42.179c-0.301,0.933-1.166,1.529-2.097,1.529
				C2495.154,1601.331,2494.926,1601.297,2494.702,1601.225z M2521.838,1516.869c-1.158-0.373-1.794-1.613-1.423-2.771
				l13.568-42.178c0.373-1.156,1.615-1.798,2.771-1.422c1.158,0.373,1.795,1.613,1.423,2.771l-13.567,42.178
				c-0.301,0.933-1.166,1.529-2.097,1.529C2522.29,1516.975,2522.062,1516.941,2521.838,1516.869z M2548.973,1432.512
				c-1.158-0.373-1.795-1.613-1.423-2.771l13.569-42.178c0.373-1.157,1.615-1.792,2.771-1.423c1.158,0.373,1.795,1.613,1.423,2.771
				l-13.569,42.178c-0.301,0.933-1.166,1.529-2.096,1.529C2549.425,1432.619,2549.197,1432.584,2548.973,1432.512z
				 M2576.109,1348.157c-1.158-0.373-1.795-1.613-1.423-2.771l13.569-42.178c0.373-1.157,1.62-1.793,2.771-1.423
				c1.158,0.373,1.795,1.613,1.423,2.771l-13.569,42.178c-0.301,0.933-1.166,1.529-2.095,1.529
				C2576.561,1348.263,2576.333,1348.229,2576.109,1348.157z M2603.245,1263.802c-1.158-0.373-1.795-1.613-1.423-2.771
				l13.567-42.179c0.373-1.157,1.611-1.795,2.771-1.423c1.158,0.373,1.795,1.613,1.423,2.771l-13.567,42.179
				c-0.301,0.933-1.166,1.529-2.097,1.529C2603.697,1263.908,2603.469,1263.874,2603.245,1263.802z M2630.381,1179.445
				c-1.158-0.373-1.795-1.613-1.423-2.771l13.567-42.178c0.374-1.156,1.613-1.797,2.771-1.422c1.158,0.373,1.795,1.613,1.423,2.771
				l-13.567,42.178c-0.301,0.934-1.166,1.529-2.097,1.529C2630.833,1179.552,2630.605,1179.517,2630.381,1179.445z
				 M2657.516,1095.09c-1.158-0.373-1.795-1.613-1.423-2.771l13.569-42.179c0.374-1.158,1.618-1.795,2.771-1.423
				c1.158,0.373,1.795,1.613,1.423,2.771l-13.568,42.179c-0.301,0.933-1.166,1.529-2.096,1.529
				C2657.968,1095.197,2657.74,1095.162,2657.516,1095.09z M2684.652,1010.734c-1.158-0.373-1.795-1.613-1.423-2.771l13.569-42.178
				c0.374-1.158,1.617-1.795,2.771-1.422c1.158,0.373,1.794,1.613,1.422,2.771l-13.568,42.178c-0.301,0.933-1.166,1.529-2.097,1.529
				C2685.104,1010.84,2684.876,1010.806,2684.652,1010.734z M2711.788,926.378c-1.158-0.373-1.795-1.613-1.423-2.771l13.568-42.179
				c0.374-1.157,1.615-1.799,2.771-1.423c1.158,0.373,1.795,1.613,1.423,2.771l-13.567,42.179c-0.301,0.933-1.166,1.529-2.097,1.529
				C2712.24,926.485,2712.012,926.45,2711.788,926.378z M2738.924,842.022c-1.158-0.373-1.795-1.613-1.423-2.771l13.568-42.178
				c0.373-1.158,1.616-1.796,2.771-1.423c1.158,0.373,1.795,1.613,1.423,2.771l-13.567,42.178c-0.301,0.933-1.166,1.529-2.096,1.529
				C2739.376,842.128,2739.148,842.094,2738.924,842.022z"/>
			<path style="fill:#CC8E1F;" d="M2447.929,1748.827c0.931,0,1.796-0.596,2.097-1.529l6.744-20.963
				c0.372-1.158-0.264-2.398-1.423-2.771c-1.157-0.372-2.399,0.266-2.771,1.422l-6.744,20.963c-0.372,1.158,0.264,2.398,1.422,2.771
				C2447.479,1748.793,2447.706,1748.827,2447.929,1748.827z"/>
		</g>
		<path style="fill:#ECA72C;" d="M2476.638,734.18c153.638-0.009,208.141-56.981,277.14-46.804
			c68.999,10.177,39.087,81.294,39.087,81.294s-152.863-67.531-153.046,0h-119.626c-17.942,0-35.768-2.89-52.791-8.56l0,0
			L2476.638,734.18z"/>
		<circle style="fill:#E6F1F2;" cx="2773.046" cy="727.415" r="11.011"/>
		<path style="fill:#ECC887;" d="M985.933,1747.725c-0.006,0-0.014,0-0.021,0c-0.609-0.012-1.091-0.515-1.08-1.123l19.816-1012.017
			c0.012-0.607,0.417-1.14,1.122-1.08c0.607,0.012,1.091,0.515,1.08,1.122l-19.816,1012.017
			C987.023,1747.247,986.532,1747.725,985.933,1747.725z"/>
		<g>
			<path style="fill:#CC8E1F;" d="M2793.292,1748.826c0.015,0,0.029,0,0.044,0c1.216-0.025,2.183-1.029,2.159-2.245l-0.431-22.017
				c-0.025-1.216-1.083-2.129-2.245-2.159c-1.216,0.025-2.183,1.029-2.159,2.245l0.431,22.017
				C2791.115,1747.868,2792.096,1748.826,2793.292,1748.826z"/>
			<path style="fill:#CC8E1F;" d="M2789.836,1682.564l-0.824-42.086c-0.024-1.216,0.943-2.222,2.159-2.245
				c1.167,0.057,2.221,0.943,2.245,2.159l0.824,42.086c0.024,1.216-0.943,2.22-2.159,2.245c-0.015,0-0.029,0-0.044,0
				C2790.841,1684.723,2789.86,1683.765,2789.836,1682.564z M2788.188,1598.392l-0.823-42.086c-0.024-1.216,0.943-2.222,2.159-2.245
				c1.172-0.002,2.221,0.943,2.245,2.159l0.823,42.086c0.024,1.216-0.943,2.22-2.159,2.245c-0.015,0-0.029,0-0.044,0
				C2789.193,1600.551,2788.211,1599.593,2788.188,1598.392z M2786.539,1514.219l-0.824-42.086
				c-0.024-1.216,0.943-2.222,2.159-2.245c1.177,0.025,2.221,0.943,2.245,2.159l0.823,42.086c0.024,1.216-0.943,2.22-2.159,2.245
				c-0.015,0-0.029,0-0.044,0C2787.545,1516.378,2786.563,1515.42,2786.539,1514.219z M2784.891,1430.047l-0.824-42.086
				c-0.023-1.216,0.943-2.221,2.159-2.245c1.183,0.052,2.221,0.944,2.245,2.159l0.824,42.086c0.023,1.216-0.943,2.22-2.159,2.245
				c-0.015,0-0.029,0-0.044,0C2785.896,1432.206,2784.915,1431.248,2784.891,1430.047z M2783.244,1345.874l-0.825-42.086
				c-0.024-1.216,0.943-2.22,2.159-2.245c1.188-0.009,2.221,0.943,2.245,2.159l0.825,42.086c0.024,1.216-0.943,2.22-2.159,2.245
				c-0.015,0-0.029,0-0.044,0C2784.249,1348.033,2783.267,1347.075,2783.244,1345.874z M2781.595,1261.702l-0.825-42.086
				c-0.024-1.216,0.943-2.22,2.159-2.245c1.192,0.018,2.221,0.943,2.245,2.159l0.825,42.086c0.024,1.216-0.943,2.22-2.159,2.245
				c-0.015,0-0.029,0-0.044,0C2782.601,1263.861,2781.619,1262.903,2781.595,1261.702z M2779.947,1177.529l-0.824-42.086
				c-0.024-1.216,0.943-2.221,2.159-2.245c1.197,0.045,2.221,0.944,2.245,2.159l0.823,42.086c0.024,1.216-0.943,2.22-2.159,2.245
				c-0.015,0-0.029,0-0.044,0C2780.952,1179.688,2779.971,1178.73,2779.947,1177.529z M2778.299,1093.357l-0.824-42.086
				c-0.024-1.216,0.943-2.222,2.159-2.245c1.202-0.014,2.221,0.943,2.245,2.159l0.824,42.086c0.023,1.216-0.943,2.22-2.159,2.245
				c-0.015,0-0.029,0-0.044,0C2779.304,1095.516,2778.322,1094.558,2778.299,1093.357z M2776.65,1009.184l-0.824-42.086
				c-0.023-1.216,0.943-2.221,2.159-2.245c1.208,0.013,2.221,0.943,2.245,2.159l0.824,42.086c0.024,1.216-0.943,2.22-2.159,2.245
				c-0.015,0-0.029,0-0.044,0C2777.656,1011.343,2776.674,1010.385,2776.65,1009.184z M2775.002,925.012l-0.823-42.086
				c-0.024-1.216,0.943-2.221,2.159-2.245c1.213,0.04,2.22,0.944,2.245,2.159l0.823,42.086c0.024,1.216-0.943,2.22-2.159,2.245
				c-0.015,0-0.029,0-0.044,0C2776.007,927.171,2775.025,926.213,2775.002,925.012z M2773.354,840.839l-0.825-42.086
				c-0.024-1.216,0.943-2.22,2.159-2.245c1.218-0.019,2.22,0.943,2.245,2.159l0.825,42.086c0.024,1.216-0.943,2.22-2.159,2.245
				c-0.015,0-0.029,0-0.044,0C2774.36,842.998,2773.378,842.04,2773.354,840.839z"/>
			<path style="fill:#CC8E1F;" d="M2773.907,758.825c0.015,0,0.029,0,0.044,0c1.216-0.025,2.183-1.029,2.159-2.245l-0.431-22.017
				c-0.024-1.216-1.07-2.157-2.245-2.159c-1.216,0.025-2.183,1.029-2.159,2.245l0.431,22.017
				C2771.73,757.867,2772.712,758.825,2773.907,758.825z"/>
		</g>
		<g>
			<path style="fill:#ECA72C;" d="M2773.466,1859.306c335.469-2.202,335.469-98.368,335.469-98.368H2438.02
				C2438.02,1760.938,2435.817,1861.508,2773.466,1859.306z"/>
			<path style="fill:#EBD4AB;" d="M2773.466,1859.306c335.469-2.202,335.469-98.368,335.469-98.368h-22.395
				c-36.335,80.377-210.081,94.162-313.073,92.488c-102.97-1.674-173.592-36.335-196.714-92.488H2438.02
				C2438.02,1760.938,2435.817,1861.508,2773.466,1859.306z"/>
			
				<rect x="2438.02" y="1732.31" transform="matrix(-1 -1.224647e-16 1.224647e-16 -1 4895.8579 3493.2483)" style="fill:#ECA72C;" width="19.819" height="28.627"/>
			
				<rect x="2773.477" y="1732.31" transform="matrix(-1 -1.224647e-16 1.224647e-16 -1 5586.585 3493.2483)" style="fill:#ECA72C;" width="39.631" height="28.627"/>
			
				<rect x="3089.116" y="1732.31" transform="matrix(-1 -1.224647e-16 1.224647e-16 -1 6198.0513 3493.2483)" style="fill:#ECA72C;" width="19.819" height="28.627"/>
		</g>
		<rect x="1869.488" y="700.833" style="fill:#ECA72C;" width="41.504" height="1374.421"/>
		<path style="fill:#ECC887;" d="M1756.844,548.46v50.648h0c49.647,13.912,91.466,48.45,125.561,83.045h7.259
			c34.095-34.596,75.913-69.134,125.561-83.045V548.46H1756.844z"/>
		<polygon style="fill:#CC8E1F;" points="1938.203,514.511 1938.203,675.265 1909.729,700.831 1869.497,700.831 1841.024,675.265 
			1841.024,514.511 1869.497,497.379 1909.729,497.379 		"/>
		<polygon style="fill:#EBD4AB;" points="1938.203,514.511 1938.203,675.265 1909.729,700.831 1897.045,700.831 1922.37,672.512 
			1922.37,521.668 1897.045,497.379 1909.729,497.379 		"/>
		<rect x="1897.045" y="700.831" style="fill:#EBD4AB;" width="13.947" height="1374.422"/>
		<g>
			<path style="fill:#CC8E1F;" d="M680.201,1748.827c-0.223,0-0.451-0.034-0.674-0.106c-1.158-0.373-1.795-1.613-1.422-2.771
				l6.743-20.963c0.372-1.157,1.607-1.795,2.771-1.422c1.158,0.373,1.795,1.613,1.423,2.771l-6.743,20.963
				C681.997,1748.232,681.132,1748.827,680.201,1748.827z"/>
			<path style="fill:#CC8E1F;" d="M700.513,1685.687c-0.224,0-0.452-0.034-0.675-0.106c-1.158-0.373-1.795-1.613-1.422-2.771
				l13.567-42.178c0.373-1.156,1.61-1.797,2.771-1.422c1.158,0.373,1.794,1.613,1.422,2.771l-13.568,42.178
				C702.308,1685.091,701.444,1685.687,700.513,1685.687z M727.648,1601.331c-0.223,0-0.451-0.035-0.674-0.107
				c-1.158-0.373-1.795-1.613-1.422-2.771l13.567-42.179c0.372-1.156,1.612-1.797,2.771-1.423c1.158,0.373,1.794,1.613,1.422,2.771
				l-13.568,42.179C729.444,1600.736,728.58,1601.331,727.648,1601.331z M754.783,1516.975c-0.222,0-0.451-0.034-0.674-0.106
				c-1.158-0.373-1.795-1.613-1.423-2.771l13.569-42.178c0.373-1.156,1.609-1.798,2.771-1.422c1.158,0.373,1.795,1.613,1.423,2.771
				l-13.569,42.178C756.579,1516.379,755.714,1516.975,754.783,1516.975z M781.919,1432.62c-0.223,0-0.451-0.034-0.674-0.106
				c-1.158-0.373-1.795-1.613-1.423-2.771l13.569-42.179c0.373-1.157,1.611-1.799,2.771-1.423c1.158,0.373,1.795,1.613,1.422,2.771
				l-13.569,42.179C783.715,1432.024,782.85,1432.62,781.919,1432.62z M809.056,1348.263c-0.224,0-0.452-0.034-0.675-0.107
				c-1.158-0.373-1.795-1.613-1.423-2.771l13.568-42.178c0.373-1.157,1.619-1.793,2.771-1.423c1.158,0.373,1.795,1.613,1.423,2.771
				l-13.568,42.178C810.851,1347.668,809.986,1348.263,809.056,1348.263z M836.191,1263.908c-0.223,0-0.451-0.034-0.674-0.106
				c-1.158-0.373-1.795-1.613-1.423-2.771l13.567-42.179c0.373-1.157,1.61-1.795,2.771-1.423c1.158,0.373,1.795,1.613,1.423,2.771
				l-13.568,42.179C837.987,1263.312,837.122,1263.908,836.191,1263.908z M863.327,1179.552c-0.224,0-0.452-0.034-0.675-0.106
				c-1.158-0.373-1.795-1.613-1.423-2.771l13.569-42.178c0.372-1.156,1.612-1.797,2.771-1.422c1.158,0.373,1.795,1.613,1.423,2.771
				l-13.569,42.178C865.122,1178.956,864.258,1179.552,863.327,1179.552z M890.463,1095.197c-0.224,0-0.452-0.034-0.675-0.107
				c-1.158-0.373-1.795-1.613-1.422-2.771l13.568-42.179c0.374-1.158,1.617-1.795,2.771-1.423c1.158,0.373,1.795,1.613,1.423,2.771
				l-13.569,42.179C892.258,1094.601,891.393,1095.197,890.463,1095.197z M917.598,1010.84c-0.223,0-0.451-0.034-0.674-0.106
				c-1.158-0.373-1.794-1.613-1.422-2.771l13.568-42.178c0.373-1.157,1.611-1.799,2.771-1.422c1.158,0.373,1.795,1.613,1.422,2.771
				l-13.567,42.178C919.394,1010.244,918.529,1010.84,917.598,1010.84z M944.734,926.485c-0.222,0-0.451-0.034-0.674-0.106
				c-1.158-0.373-1.794-1.613-1.422-2.771l13.568-42.179c0.372-1.157,1.613-1.799,2.771-1.423c1.158,0.373,1.795,1.613,1.422,2.771
				l-13.567,42.179C946.53,925.889,945.665,926.485,944.734,926.485z M971.871,842.128c-0.224,0-0.452-0.034-0.675-0.107
				c-1.158-0.373-1.795-1.613-1.423-2.771l13.568-42.178c0.373-1.158,1.615-1.796,2.771-1.423c1.158,0.373,1.795,1.613,1.422,2.771
				l-13.567,42.178C973.666,841.533,972.801,842.128,971.871,842.128z"/>
			<path style="fill:#CC8E1F;" d="M1012.493,757.773c-0.931,0-1.796-0.596-2.097-1.529l-4.647-14.447l-4.647,14.447
				c-0.373,1.157-1.615,1.797-2.771,1.423c-1.158-0.373-1.795-1.613-1.423-2.771l8.841-27.481l8.841,27.481
				c0.372,1.158-0.265,2.398-1.423,2.771C1012.944,757.739,1012.716,757.773,1012.493,757.773z"/>
			<path style="fill:#CC8E1F;" d="M1310.985,1685.687c-0.93,0-1.795-0.596-2.096-1.529l-13.568-42.178
				c-0.372-1.157,0.265-2.398,1.422-2.771c1.154-0.37,2.398,0.265,2.771,1.422l13.569,42.178c0.372,1.158-0.264,2.398-1.423,2.771
				C1311.437,1685.652,1311.209,1685.687,1310.985,1685.687z M1283.85,1601.331c-0.931,0-1.796-0.596-2.097-1.529l-13.568-42.179
				c-0.372-1.158,0.265-2.398,1.423-2.771c1.157-0.374,2.398,0.267,2.771,1.423l13.568,42.179c0.372,1.158-0.265,2.398-1.423,2.771
				C1284.301,1601.297,1284.073,1601.331,1283.85,1601.331z M1256.714,1516.975c-0.931,0-1.796-0.596-2.097-1.529l-13.568-42.178
				c-0.372-1.158,0.265-2.398,1.423-2.771c1.156-0.375,2.398,0.267,2.771,1.422l13.567,42.178c0.372,1.158-0.265,2.398-1.422,2.771
				C1257.165,1516.941,1256.937,1516.975,1256.714,1516.975z M1229.578,1432.619c-0.93,0-1.795-0.596-2.096-1.529l-13.568-42.178
				c-0.372-1.158,0.265-2.398,1.423-2.771c1.156-0.37,2.398,0.266,2.771,1.423l13.568,42.178c0.372,1.158-0.265,2.398-1.422,2.771
				C1230.03,1432.584,1229.802,1432.619,1229.578,1432.619z M1202.442,1348.263c-0.93,0-1.795-0.596-2.096-1.529l-13.568-42.178
				c-0.372-1.158,0.265-2.398,1.423-2.771c1.151-0.371,2.398,0.266,2.771,1.423l13.568,42.178c0.372,1.158-0.265,2.398-1.422,2.771
				C1202.894,1348.229,1202.666,1348.263,1202.442,1348.263z M1175.307,1263.908c-0.931,0-1.796-0.596-2.097-1.529l-13.567-42.179
				c-0.372-1.158,0.264-2.398,1.422-2.771c1.16-0.372,2.398,0.266,2.771,1.423l13.568,42.179c0.372,1.158-0.265,2.398-1.423,2.771
				C1175.758,1263.874,1175.53,1263.908,1175.307,1263.908z M1148.171,1179.552c-0.931,0-1.796-0.595-2.097-1.529l-13.567-42.178
				c-0.372-1.158,0.264-2.398,1.422-2.771c1.158-0.374,2.397,0.267,2.771,1.422l13.568,42.178c0.372,1.158-0.265,2.398-1.423,2.771
				C1148.622,1179.517,1148.394,1179.552,1148.171,1179.552z M1121.035,1095.197c-0.93,0-1.795-0.596-2.096-1.529l-13.569-42.179
				c-0.372-1.158,0.265-2.398,1.423-2.771c1.153-0.372,2.397,0.265,2.771,1.423l13.569,42.179c0.372,1.158-0.265,2.398-1.423,2.771
				C1121.487,1095.162,1121.259,1095.197,1121.035,1095.197z M1093.9,1010.84c-0.931,0-1.796-0.596-2.097-1.529l-13.569-42.178
				c-0.372-1.158,0.265-2.398,1.423-2.771c1.154-0.372,2.397,0.264,2.771,1.422l13.568,42.178c0.372,1.158-0.265,2.398-1.422,2.771
				C1094.351,1010.806,1094.123,1010.84,1093.9,1010.84z M1066.764,926.485c-0.931,0-1.796-0.596-2.097-1.529l-13.568-42.179
				c-0.372-1.158,0.265-2.398,1.423-2.771c1.156-0.376,2.397,0.266,2.771,1.423l13.567,42.179c0.372,1.158-0.265,2.398-1.422,2.771
				C1067.215,926.45,1066.987,926.485,1066.764,926.485z M1039.627,842.128c-0.93,0-1.795-0.596-2.096-1.529l-13.567-42.178
				c-0.372-1.158,0.264-2.398,1.423-2.771c1.155-0.373,2.398,0.265,2.771,1.423l13.568,42.178c0.372,1.158-0.265,2.398-1.423,2.771
				C1040.079,842.094,1039.851,842.128,1039.627,842.128z"/>
			<path style="fill:#CC8E1F;" d="M1331.297,1748.827c-0.931,0-1.796-0.596-2.097-1.529l-6.744-20.963
				c-0.372-1.158,0.265-2.398,1.422-2.771c1.157-0.372,2.399,0.266,2.771,1.422l6.744,20.963c0.372,1.158-0.264,2.398-1.423,2.771
				C1331.748,1748.793,1331.52,1748.827,1331.297,1748.827z"/>
		</g>
		<polygon style="fill:#EBD4AB;" points="1910.985,497.379 1886.035,497.379 1889.602,389.167 		"/>
		<path style="fill:#ECA72C;" d="M1302.589,734.18c-153.639-0.009-208.141-56.981-277.14-46.804
			c-68.999,10.177-39.087,81.294-39.087,81.294s152.863-67.531,153.046,0h119.626c17.942,0,35.768-2.89,52.791-8.56l0,0
			L1302.589,734.18z"/>
		<circle style="fill:#E6F1F2;" cx="1006.18" cy="727.415" r="11.011"/>
		<g>
			<path style="fill:#CC8E1F;" d="M985.935,1748.826c-0.015,0-0.029,0-0.044,0c-1.216-0.025-2.183-1.029-2.159-2.245l0.431-22.017
				c0.025-1.216,1.083-2.129,2.245-2.159c1.216,0.025,2.183,1.029,2.159,2.245l-0.431,22.017
				C988.112,1747.868,987.13,1748.826,985.935,1748.826z"/>
			<path style="fill:#CC8E1F;" d="M987.189,1684.723c-0.015,0-0.029,0-0.044,0c-1.216-0.025-2.183-1.029-2.159-2.245l0.824-42.086
				c0.024-1.216,1.078-2.102,2.245-2.159c1.216,0.024,2.183,1.029,2.159,2.245l-0.824,42.086
				C989.367,1683.765,988.385,1684.723,987.189,1684.723z M988.838,1600.551c-0.015,0-0.029,0-0.044,0
				c-1.216-0.025-2.183-1.029-2.159-2.245l0.824-42.086c0.024-1.216,1.073-2.161,2.245-2.159c1.216,0.024,2.183,1.029,2.159,2.245
				l-0.824,42.086C991.015,1599.593,990.033,1600.551,988.838,1600.551z M990.486,1516.378c-0.015,0-0.029,0-0.044,0
				c-1.216-0.025-2.183-1.029-2.159-2.245l0.824-42.086c0.024-1.216,1.068-2.134,2.245-2.159c1.216,0.024,2.183,1.029,2.159,2.245
				l-0.824,42.086C992.663,1515.42,991.682,1516.378,990.486,1516.378z M992.134,1432.206c-0.015,0-0.029,0-0.044,0
				c-1.216-0.025-2.183-1.029-2.159-2.245l0.824-42.086c0.024-1.215,1.062-2.108,2.245-2.159c1.216,0.024,2.183,1.029,2.159,2.245
				l-0.824,42.086C994.312,1431.248,993.33,1432.206,992.134,1432.206z M993.782,1348.033c-0.015,0-0.029,0-0.044,0
				c-1.216-0.025-2.183-1.029-2.159-2.245l0.825-42.086c0.024-1.216,1.057-2.168,2.245-2.159c1.216,0.025,2.183,1.029,2.159,2.245
				l-0.825,42.086C995.959,1347.075,994.977,1348.033,993.782,1348.033z M995.43,1263.861c-0.015,0-0.029,0-0.044,0
				c-1.216-0.025-2.183-1.029-2.159-2.245l0.825-42.086c0.024-1.216,1.053-2.141,2.245-2.159c1.216,0.025,2.183,1.029,2.159,2.245
				l-0.825,42.086C997.607,1262.903,996.626,1263.861,995.43,1263.861z M997.078,1179.688c-0.015,0-0.029,0-0.044,0
				c-1.216-0.025-2.183-1.029-2.159-2.245l0.824-42.086c0.024-1.215,1.048-2.114,2.245-2.159c1.216,0.024,2.183,1.029,2.159,2.245
				l-0.824,42.086C999.256,1178.73,998.274,1179.688,997.078,1179.688z M998.727,1095.516c-0.015,0-0.029,0-0.044,0
				c-1.216-0.025-2.183-1.029-2.159-2.245l0.824-42.086c0.024-1.216,1.043-2.173,2.245-2.159c1.216,0.024,2.183,1.029,2.159,2.245
				l-0.824,42.086C1000.904,1094.558,999.922,1095.516,998.727,1095.516z M1000.375,1011.343c-0.015,0-0.029,0-0.044,0
				c-1.216-0.025-2.183-1.029-2.159-2.245l0.824-42.086c0.024-1.216,1.038-2.146,2.245-2.159c1.216,0.024,2.183,1.029,2.159,2.245
				l-0.824,42.086C1002.552,1010.385,1001.571,1011.343,1000.375,1011.343z M1002.023,927.171c-0.015,0-0.029,0-0.044,0
				c-1.216-0.025-2.183-1.029-2.159-2.245l0.824-42.086c0.025-1.215,1.032-2.119,2.245-2.159c1.216,0.024,2.183,1.029,2.159,2.245
				l-0.824,42.086C1004.201,926.213,1003.219,927.171,1002.023,927.171z M1003.671,842.998c-0.015,0-0.029,0-0.044,0
				c-1.216-0.025-2.183-1.029-2.159-2.245l0.825-42.086c0.025-1.216,1.027-2.178,2.245-2.159c1.216,0.025,2.183,1.029,2.159,2.245
				l-0.825,42.086C1005.848,842.04,1004.866,842.998,1003.671,842.998z"/>
			<path style="fill:#CC8E1F;" d="M1005.319,758.825c-0.015,0-0.029,0-0.044,0c-1.216-0.025-2.183-1.029-2.159-2.245l0.431-22.017
				c0.024-1.216,1.07-2.157,2.245-2.159c1.216,0.025,2.183,1.029,2.159,2.245l-0.431,22.017
				C1007.497,757.867,1006.515,758.825,1005.319,758.825z"/>
		</g>
		<g>
			<path style="fill:#ECA72C;" d="M1005.76,1859.306c-335.469-2.202-335.469-98.368-335.469-98.368h670.916
				C1341.207,1760.938,1343.409,1861.508,1005.76,1859.306z"/>
			<path style="fill:#EBD4AB;" d="M1005.76,1859.306c-335.469-2.202-335.469-98.368-335.469-98.368h22.395
				c36.335,80.377,210.081,94.162,313.073,92.488c102.97-1.674,173.592-36.335,196.714-92.488h138.733
				C1341.207,1760.938,1343.409,1861.508,1005.76,1859.306z"/>
			<rect x="1321.388" y="1732.31" style="fill:#ECA72C;" width="19.819" height="28.627"/>
			<rect x="966.118" y="1732.31" style="fill:#ECA72C;" width="39.631" height="28.627"/>
			<rect x="670.291" y="1732.31" style="fill:#ECA72C;" width="19.819" height="28.627"/>
		</g>
		<path style="fill:#CC8E1F;" d="M1981.188,2158.383h-181.894c30.103-27.703,47.389-55.427,51.881-83.129h78.131
			C1940.207,2107.008,1957.493,2134.71,1981.188,2158.383z"/>
		<path style="fill:#ECA72C;" d="M2150.486,2237.659h-506.881c6.496-23.43,20.414-43.25,38.801-57.211
			c18.365-13.961,41.179-22.065,65.491-22.065h298.297C2094.816,2158.383,2137.471,2190.798,2150.486,2237.659z"/>
		<path style="fill:#EBD4AB;" d="M1981.188,2158.383h-40.1c-16.142-13.036-29.354-31.754-44.042-83.129h32.261
			C1940.207,2107.008,1957.493,2134.71,1981.188,2158.383z"/>
		<path style="fill:#EBD4AB;" d="M2095.962,2237.659c0,0,0.374-22.205-20.546-43.492c-28.75-29.255-71.943-31.556-108.63-35.784
			h79.408c48.623,0,91.277,32.415,104.292,79.276H2095.962z"/>
	</g>
	<g>
		<path style="fill:#FFB5AD;" d="M3269.92,1912.781c17.097-10.502-25.49,163.355-137.873,269.465
			c-76.135,71.885-226.873,53.975-226.873,53.975s-25.79-98.194,81.929-202.593
			C3094.82,1929.228,3194.769,1958.941,3269.92,1912.781z"/>
		<path style="fill:#FFFFFF;" d="M2905.619,2236.856l-0.892-1.271c2.698-1.894,270.925-190.856,367.218-323.161l1.255,0.913
			C3176.755,2045.851,2908.319,2234.962,2905.619,2236.856z"/>
		<path style="fill:#FFFFFF;" d="M3147.022,2044.533l0.106-0.845c0.383-3.068,9.638-75.424,31.378-101.093l1.185,1.005
			c-20.197,23.844-29.785,91.065-30.911,99.428c7.817,0.152,66.618,0.754,89.375-14.731l0.874,1.284
			c-24.695,16.802-88.451,15.06-91.154,14.978L3147.022,2044.533z"/>
		<path style="fill:#FFFFFF;" d="M3056.698,2121.551l-0.109-0.513c-0.202-0.948-19.869-95.348,12.423-145.944l1.309,0.835
			c-30.725,48.139-13.842,136.695-12.318,144.27c7.708,1.314,97.59,16.37,120.47,8.807l0.487,1.472
			c-24.157,7.987-117.77-8.148-121.744-8.839L3056.698,2121.551z"/>
		<path style="fill:#FFFFFF;" d="M2961.632,2195.143l-0.085-0.468c-0.179-1-17.588-100.601,14.695-151.182l1.309,0.835
			c-30.824,48.296-15.822,142.107-14.556,149.602c7.229,2.12,96.369,27.771,129.803,14.445l0.575,1.443
			c-35.185,14.023-127.376-13.366-131.284-14.538L2961.632,2195.143z"/>
	</g>
	<g>
		<path style="fill:#82ACB0;" d="M1132.88,2237.659h652.673c7.243,0,13.114-5.871,13.114-13.114v-83.728
			c0-7.243-5.871-13.114-13.114-13.114H1132.88c-7.243,0-13.114,5.871-13.114,13.114v83.728
			C1119.766,2231.787,1125.637,2237.659,1132.88,2237.659z"/>
		
			<rect x="1119.766" y="2140.817" transform="matrix(-1 -1.224647e-16 1.224647e-16 -1 2918.4331 4289.3677)" style="fill:#A9C1C3;" width="678.901" height="7.734"/>
		
			<rect x="1119.766" y="2216.811" transform="matrix(-1 -1.224647e-16 1.224647e-16 -1 2918.4331 4441.3555)" style="fill:#A9C1C3;" width="678.901" height="7.734"/>
		
			<rect x="1147.003" y="2164.523" transform="matrix(-1 -1.224647e-16 1.224647e-16 -1 2330.3213 4365.3618)" style="fill:#9FD0D4;" width="36.316" height="36.316"/>
		<g>
			<path style="fill:#363B39;" d="M1649.36,2164.523h8.002v28.932h14.823v7.384h-22.825V2164.523z"/>
			<path style="fill:#363B39;" d="M1688.547,2164.523h6.616l15.797,36.316h-9.027l-3.129-7.693h-14.107l-3.026,7.693h-8.822
				L1688.547,2164.523z M1691.624,2175.088l-4.41,11.287h8.872L1691.624,2175.088z"/>
			<path style="fill:#363B39;" d="M1709.527,2164.523h8.72l5.796,23.288h0.102l7.591-23.288h7.438l7.539,23.902h0.104l6.103-23.902
				h8.104l-10.617,36.316h-7.13l-8.002-25.133h-0.102l-8.002,25.133h-6.873L1709.527,2164.523z"/>
		</g>
	</g>
	<g>
		<g>
			<path style="fill:#ECC887;" d="M1748.568,1979.188v148.515H1202.46c-18.426,0-33.35-14.241-33.35-31.824v-84.866
				c0-17.583,14.924-31.825,33.35-31.825H1748.568z"/>
			<path style="fill:#D4A95B;" d="M1767.512,1989.796v127.299h11.703v10.608h-217.007c-19.369,0-35.11-14.241-35.11-31.824v-84.866
				c0-17.583,15.741-31.825,35.11-31.825h217.007v10.608H1767.512z"/>
			<path style="fill:#FFFFFF;" d="M1562.208,2117.095c-12.906,0-23.406-9.518-23.406-21.216v-84.866
				c0-11.698,10.5-21.216,23.406-21.216h205.304v127.299H1562.208z"/>
			<rect x="1558.682" y="1999.907" style="fill:#E9EDEC;" width="109.718" height="2.652"/>
			<rect x="1686.321" y="1999.907" style="fill:#E9EDEC;" width="69.854" height="2.652"/>
			<rect x="1615.735" y="2018.472" style="fill:#E9EDEC;" width="61.442" height="2.652"/>
			<rect x="1701.316" y="2018.472" style="fill:#E9EDEC;" width="24.504" height="2.652"/>
			<rect x="1562.339" y="2055.269" style="fill:#E9EDEC;" width="70.22" height="2.652"/>
			<rect x="1647.92" y="2055.269" style="fill:#E9EDEC;" width="83.751" height="2.652"/>
			<rect x="1701.316" y="2080.795" style="fill:#E9EDEC;" width="44.984" height="2.652"/>
			<rect x="1565.265" y="2080.795" style="fill:#E9EDEC;" width="96.918" height="2.652"/>
			<rect x="1584.283" y="2104.332" style="fill:#E9EDEC;" width="54.859" height="2.652"/>
			<rect x="1669.132" y="2104.332" style="fill:#E9EDEC;" width="22.858" height="2.652"/>
		</g>
		<g>
			<path style="fill:#FFB5AD;" d="M1708.345,1889.026v89.522h-452.469c-15.084,0-21.378-8.575-21.378-19.175v-51.153
				c0-10.6,6.294-19.194,21.378-19.194H1708.345z"/>
			<path style="fill:#FF978C;" d="M1716.885,1895.426v76.734h11.753v6.394h-217.925c-19.451,0-29.358-8.585-29.358-19.183v-51.156
				c0-10.599,9.907-19.183,29.358-19.183h217.925v6.395H1716.885z"/>
			<path style="fill:#FFFFFF;" d="M1507.887,1972.16c-13.138,0-17.926-5.737-17.926-12.789v-51.156
				c0-7.052,4.789-12.789,17.926-12.789h208.984v76.734H1507.887z"/>
			<rect x="1507.172" y="1901.521" style="fill:#E9EDEC;" width="110.182" height="1.599"/>
			<rect x="1635.351" y="1901.521" style="fill:#E9EDEC;" width="70.149" height="1.599"/>
			<rect x="1564.467" y="1912.711" style="fill:#E9EDEC;" width="61.702" height="1.599"/>
			<rect x="1650.409" y="1912.711" style="fill:#E9EDEC;" width="24.607" height="1.599"/>
			<rect x="1510.845" y="1934.892" style="fill:#E9EDEC;" width="70.516" height="1.599"/>
			<rect x="1596.787" y="1934.892" style="fill:#E9EDEC;" width="84.106" height="1.599"/>
			<rect x="1650.409" y="1950.279" style="fill:#E9EDEC;" width="45.175" height="1.599"/>
			<rect x="1513.783" y="1950.279" style="fill:#E9EDEC;" width="97.327" height="1.599"/>
			<rect x="1532.881" y="1964.467" style="fill:#E9EDEC;" width="55.091" height="1.599"/>
			<rect x="1618.089" y="1964.467" style="fill:#E9EDEC;" width="22.955" height="1.599"/>
			<path style="fill:#E07165;" d="M1299.162,1978.547h-15.832c-0.767-2.419-1.16-5.192-1.16-8.358v-72.746
				c0-3.324,0.551-6.116,1.377-8.417h14.829c-0.708,0.314-1.377,0.728-1.947,1.239c-1.652,1.495-2.458,3.855-2.458,7.178v72.746
				C1293.97,1974.083,1293.97,1977.171,1299.162,1978.547z"/>
		</g>
	</g>
	<g>
		<path style="fill:#B8801C;" d="M1396.816,1278.885c-21.216-0.252-34.298,16.086-30.404,34.56
			c3.75,17.793,20.882,27.718,36.612,24.31c31.514-6.829,28.341-41.419,26.211-41.196L1396.816,1278.885z"/>
		<path style="fill:#E2A288;" d="M1383.304,1396.844c0,0,13.901,35.096,48.118,32.709c34.243-2.387,44.284-33.979,43.45-35.147
			c-0.469-0.609-6.233-1.6-11.684-3.022c-4.59-1.219-8.998-2.743-9.78-4.597c-0.339-0.813-0.704-2.565-1.069-4.927
			c-0.652-4.317-1.33-10.742-1.773-17.294c-0.391-6.044-0.626-12.19-0.548-16.964c0.026-1.219,0.052-2.362,0.13-3.378
			c0.73-11.504-46.318-26.817-44.936-12.596c0.626,6.425,0.808,31.948-0.104,46.144c-0.339,5.333-0.835,9.066-1.539,9.599
			c-0.704,0.559-2.582,1.524-4.929,2.666C1392.537,1392.933,1383.304,1396.844,1383.304,1396.844z"/>
		<path style="fill:#E2A288;" d="M1456.693,2066.949c4.628,38.481,16.01,86.366,15.641,100.938
			c-0.15,6.064-1.658,10.537-3.016,14.617v0.011c-1.911,5.728-3.546,10.705-0.794,18.249c0.91,2.5,5.756-0.751,17.083,9.707
			c11.327,10.458,11.247,26.801,15.851,26.801c4.605-0.011,42.305-0.034,42.305-0.034s1.14-7.566-8.645-11.77
			c-0.311-0.135-0.61-0.28-0.909-0.437l-0.011-0.011c0,0,0,0-0.011,0c-9.244-5.033-15.08-24.38-20.111-34.143
			c-5.18-10.077-12.386-24.784-12.985-49.444s6.936-128.504,13.151-157.868c6.165-29.127-56.677-28.038-59.336-11.459
			C1450.761,1997.966,1452.054,2028.468,1456.693,2066.949z"/>
		<polygon style="fill:#010705;" points="1468.521,2200.769 1477.434,2237.247 1482.902,2237.247 1484.916,2202.092 		"/>
		<path style="fill:#010705;" d="M1468.524,2200.764c0.91,2.5,5.756-0.751,17.083,9.707c11.327,10.458,11.247,26.801,15.851,26.801
			c4.605-0.011,42.305-0.034,42.305-0.034s1.14-7.566-8.645-11.77c-0.311-0.135-0.61-0.28-0.909-0.437l-0.011-0.011c0,0,0,0-0.011,0
			c-0.552,0.022-19.167,0.93-26.914,0c-7.874-0.93-17.175-19.566-20.629-26.291c-3.453-6.726-11.08-10.929-17.325-16.214
			C1467.407,2188.243,1465.772,2193.22,1468.524,2200.764z"/>
		<path style="fill:#CED1D0;" d="M1429.151,1729.152c-1.777,26.368,13.922,156.213,17.52,181.17
			c3.639,24.958,6.867,70.176,4.336,98.929c-0.048,0.355-0.056,0.755-0.105,1.154c-2.142,30.406,8.402,132.097,11.857,141.65
			c1.22,3.373,50.108,3.75,50.698-3.438c1.033-13.137,5.84-201.914,5.703-210.451c-0.094-8.58,9.258-186.399-0.4-242.147
			c-5.682-32.801-26.005-100.117-26.005-100.117l-61.255-5.833C1431.499,1590.069,1429.553,1723.114,1429.151,1729.152z"/>
		<path style="fill:#E2A288;" d="M1341.724,2091.516c4.237,35.35,12.457,72.676,8.879,88.115c-1.268,5.435-0.989,19.54-1.065,27.173
			c-0.025,2.594-0.127,4.842-0.254,6.843c-0.938,14.081-3.83,15.094,0.051,24.011h42.265c0,0,3.171-4.521-3.07-22.924
			c-0.127-0.346-0.229-0.717-0.33-1.087c-2.867-10.301-1.192-31.644-5.074-40.019c-6.697-14.377,9.742-146.761,13.547-175.169
			c3.628-27.074-55.052-23.863-57.487-8.646C1335.382,2013.578,1337.462,2056.166,1341.724,2091.516z"/>
		<path style="fill:#CED1D0;" d="M1341.132,2152.211c0.822,5.823,48.886,5.56,50.451-0.011
			c2.189-7.737,11.771-141.893,15.922-183.862c4.15-41.924,21.443-149.206,22.507-163.986c1.064-14.781,8.894-182.731,8.979-187.395
			c0.076-4.177-64.804-14.744-71.698-5.658c-9.133,12.037-28.094,62.105-30.572,117.854c-1.454,32.708,0.918,204.991,0.117,228.31
			C1336.034,1980.826,1339.569,2141.144,1341.132,2152.211z"/>
		<path style="fill:#363B39;" d="M1610.834,1580.775c-14.231,8.485-58.687-12.565-59.186-13.174
			c-29.381-32.307-53.099-73.85-53.099-73.85l0.023-11.882l0.029-10.109l21.468-60.231
			C1527.028,1412.721,1617.302,1576.926,1610.834,1580.775z"/>
		<path style="fill:#363B39;" d="M1359.739,1494.503c0,0-26.004,47.956-30.661,55.526c-3.189,5.182-11.959,17.144-13.231,18.685
			c-5.731,6.756-38.136,47.681-43.651,30.446c-1.726-5.364-2.371-35.141,18.832-84.906c15.478-36.405,41.918-100.088,49.147-105.664
			L1359.739,1494.503z"/>
		<path style="fill:#FFFFFF;" d="M1398.639,1390.038l6.051,12.825l41.285,5.739l17.213-17.218c-4.59-1.219-8.047-2.233-8.83-4.087
			c-0.339-0.813-0.746-7.522-2.257-7.094c-7.703,2.182-37.683,7.423-46.994-2.43c-1.454-0.295-0.835,9.066-1.539,9.599
			C1402.864,1387.93,1400.987,1388.895,1398.639,1390.038z"/>
		<path style="fill:#C1C4C3;" d="M1361.493,1608.509c0.083,10.624,28.231,16.435,59.528,17.994
			c10.193,0.511,20.745,0.565,30.772,0.189c28.812-1.076,53.313-5.702,53.12-13.476c-0.994-40.454,18.63-176.628,7.912-196.397
			c-4.724-8.715-56.797-28.495-57.294-28.145c-0.249,0.135-2.358,5.979-19.07,8.453c-19.447,2.878-34.429-8.831-34.429-8.831
			s-42.255,14.813-47.67,23.232C1345.109,1426.026,1361.134,1569.615,1361.493,1608.509z"/>
		<polygon style="fill:#010705;" points="1379.939,2019.249 1493.789,2017.826 1476.073,1542.817 1397.904,1541.803 		"/>
		<path style="fill:#F0DDD5;" d="M1414.278,1347.794c6.906,15.473,20.45,33.102,36.875,25.287c-0.41-6.043-1.853-25.415-1.772-30.17
			C1434.721,1340.495,1414.278,1347.794,1414.278,1347.794z"/>
		<path style="fill:#363B39;" d="M1467.062,2063.747l83.777-1.349c-2.417-19.689-20.951-354.64-32.51-537.554
			c-2.292-36.272,3.368-110.312,1.74-113.315c-4.724-8.715-59.41-22.726-59.907-22.376c-1.299,8.769-20.908,155.485-22.88,181.375
			C1437.065,1573.372,1467.062,2063.747,1467.062,2063.747z"/>
		<path style="fill:#363B39;" d="M1300.373,2062.473l127.02,1.273l9.889-493.22c-2.143-12.495-40.059-181.389-40.059-181.389
			s-51.632,11.032-57.047,19.452c-3.669,5.749,6.279,19.046,0.222,135.836C1331.18,1722.171,1305.474,2031.029,1300.373,2062.473z"
			/>
		<path style="fill:#FFFFFF;" d="M1412.929,1385.908c-4.731,33.453-13.967,59.733-14.642,62.666
			c-0.676,2.933,13.217,0.635,16.623,5.714c3.405,5.079,6.781,7.336,20.045,5.621c9.823-1.27,7.498-12.909,16.962-7.195
			c9.464,5.714,19.252-7.619,19.252-7.619l-23.749-60.099L1412.929,1385.908z"/>
		<g>
			<path style="fill:#E2A288;" d="M1427.099,1252.254c-19.4,2.478-38.626,18.513-36.785,36.782
				c1.841,18.269,12.595,45.083,27.779,62.373c11.072,12.608,20.946,15.279,27.482,15.296c12.203,0.031,23.985-21.867,25.779-50.609
				c1.823-29.204-8.008-45.953-13.276-52.21S1437.964,1250.865,1427.099,1252.254z"/>
			<path style="fill:#CC8E1F;" d="M1409.463,1249.855c-7.384-2.669-26.665,7.547-28.263,19.769s-2.138,14.998-6.511,25.347
				c-4.372,10.349,27.517,40.714,31.302,29.3c3.785-11.414-4.673-17.774,6.429-23.129c17.344-8.366,16.143-34.961,16.143-34.961
				S1418.968,1253.291,1409.463,1249.855z"/>
			<path style="fill:#CC8E1F;" d="M1402.943,1254.088c-1.897,6.902,5.061,20.025,13.603,21.074
				c8.542,1.048,51.155,17.086,53.766,28.463c2.612,11.377,22.392-17.878-2.544-44.29
				C1448.002,1238.399,1408.425,1234.141,1402.943,1254.088z"/>
			<path style="fill:#E2A288;" d="M1390.192,1317.841c0.155,10.37,7.307,20.877,14.795,23.021c7.489,2.144,2.992-9.859,2.992-9.859
				s-4.525-16.501-9.716-18.855C1393.99,1310.209,1390.123,1313.247,1390.192,1317.841z"/>
			<path style="fill:#FFFFFF;stroke:#201600;stroke-miterlimit:10;" d="M1434.353,1326.637"/>
			<path style="fill:#FFFFFF;stroke:#201600;stroke-miterlimit:10;" d="M1422.887,1308.698"/>
		</g>
		<path style="fill:#979998;" d="M1486.301,1587.766l-98.177-12.084c-5.495-0.676-9.198-6.032-7.938-11.48l31.895-137.883
			c1.077-4.658,5.447-7.744,10.145-7.166l98.177,12.084c5.495,0.676,9.198,6.032,7.938,11.48l-31.895,137.883
			C1495.369,1585.258,1490.999,1588.344,1486.301,1587.766z"/>
		<path style="fill:#E2A288;" d="M1391.677,1531.485c-0.101-7.096,16.173-29.038,20.99-34.905c4.817-5.867,4.159,2.995,2.324,7.372
			c-1.835,4.377-6.041,12.533,1.028,8.01s21.59-13.542,25.63-15.905c4.041-2.363,0.53,7.233-3.073,10.504
			c-3.602,3.271,2.299,25.469-10.469,38.121c-12.768,12.652-21.854,10.557-21.854,10.557s-27.555,2.596-22.656-5.524
			C1388.565,1541.48,1391.756,1537.085,1391.677,1531.485z"/>
		<path style="fill:#FFFFFF;" d="M1404.457,1557.823c-5.347,3.404-81.669,54-107.874,53.104
			c-11.15-0.381-20.548-5.154-19.303-18.699c2.026-22.043,3.167-26.424,23.457-34.505c20.29-8.081,78.655-29.551,87.268-31.839
			C1390.24,1525.267,1405.979,1556.894,1404.457,1557.823z"/>
		<g>
			<path style="fill:#E2A288;" d="M1706.795,1489.884c8.303-1.416,18.217-4.008,23.403-6.237s16.829-7.431,21.692-6.667
				c2.971,0.467,5.153,0.242,6.493,1.468c2.042,1.869-1.894,4.225-2.176,6.251c-0.516,3.705-4.645,5.778-8.578,7.546
				c-4.141,1.862-18.44,15.739-36.971,14.749c-18.532-0.991-24.393,0.355-23.72-4.524
				C1687.609,1497.592,1693.927,1490.774,1706.795,1489.884"/>
			<path style="fill:#E2A288;" d="M1672.917,1508.452c4.518-7.266,6.544-13.316,11.659-17.627
				c5.115-4.311,14.094-9.265,17.171-9.598c3.077-0.333,22.429-9.101,24.524-9.368c2.095-0.267,0.986,2.05-0.987,5.352
				s-16.27,11.784-18.77,15.472c-2.499,3.688-10.539,5.539-10.436,7.193C1696.183,1501.53,1672.917,1508.452,1672.917,1508.452"/>
			<path style="fill:#E2A288;" d="M1688.978,1522.608c5.204-3.747,3.031-6.755,15.561-8.126s15.989-1.63,21.956-4.4
				c5.968-2.77,21.164-13.663,24.236-16.755c3.071-3.092-2.382-4.34-10.178,0.943s-13.5,7.91-17.52,6.684
				s-21.358,2.276-26.953-1.078c-4.602-2.758-23.162,8.576-23.162,8.576L1688.978,1522.608"/>
		</g>
		<path style="fill:#363B39;" d="M1340.398,1544.426c-9.131,23.673-22.402,84.011-24.814,90.043
			c-2.413,6.032-31.97-8.704-41.851-26.752c-11.657-21.293,0.685-51.907,10.561-76.385
			C1294.169,1506.853,1340.398,1544.426,1340.398,1544.426z"/>
		<path style="fill:#FFFFFF;" d="M1697.819,1519.635c-4.87,4.069-79.553,63.693-104.741,74.03c-0.611,0.226-1.223,0.453-1.746,0.678
			c-0.655,0.227-1.267,0.408-1.835,0.59c-0.393,0.092-0.744,0.183-1.049,0.274c-0.349,0.091-0.656,0.138-0.963,0.185
			c-0.305,0.09-0.612,0.093-0.875,0.139c-9.72,0.87-15.801-12.971-16.282-26.57c-0.783-22.129,5.547-25.338,24.64-35.984
			s74.242-39.508,82.492-42.894C1679.599,1489.182,1699.21,1518.517,1697.819,1519.635z"/>
		<polygon style="fill:#010705;" points="1301.102,1558.762 1388.368,1526.924 1387.643,1524.844 1300.373,1556.682 		"/>
		<path style="fill:#010705;" d="M1349.335,2237.659h42.265c0,0,3.171-4.521-3.07-22.924c-0.127-0.346-0.229-0.717-0.33-1.087
			c-2.829,0-10.96,10.964-19.636,11.067c-16.649,0.198-19.281-11.067-19.281-11.067
			C1348.346,2227.728,1345.454,2228.741,1349.335,2237.659z"/>
		<path style="fill:#363B39;" d="M1547.675,1454.29c24.684,31.169,74.139,64.218,73.243,64.694s-9.986,96.298-9.753,98.779
			c0.168,1.78-39.017-17.694-69.837-62.129C1498.453,1493.818,1547.675,1454.29,1547.675,1454.29z"/>
	</g>
	<g>
		<path style="fill:#E2A288;" d="M2541.646,1940.12c7.175,7.822,15.199,17.092,14.793,24.927
			c-0.168,3.243,16.025,4.944,25.138-0.735c7-4.362,8.491-15.273,3.289-19.819c-9.269-8.099-20.066-28.288-20.066-28.288
			C2558.794,1909.271,2535.976,1933.938,2541.646,1940.12z"/>
		<path style="fill:#363B39;" d="M2535.441,2026.608c0.85,1.06,1.808,2.075,2.746,3.015c3.767,3.781,77.695-53.631,78.293-56.609
			c0.133-0.639-1.062-2.536-3.059-5.062l-0.011-0.015c-7.283-9.259-25.235-27.016-28.546-23.446
			c-1.837,1.996,0.797,8.384,0.682,12.426s-12.043,7.859-14.702,5.257c-2.659-2.603-17.58-2.856-16.7,1.422
			c2.582,12.557-17.41,48.695-20.603,52.983C2531.141,2019.796,2532.845,2023.406,2535.441,2026.608z"/>
		<path style="fill:#E2A288;" d="M2622.148,1424.462c0,0,1.536,11.174,22.346,14.786c20.843,3.61,59.874-13.411,59.874-13.411
			s-9.278-2.986-19.818-8.9c-10.542-5.945-10.562-29.596-11.049-38.715c-0.204-4.198-44.17,8.42-44.011,10.911
			c0.042,0.662,0.309,2.861,0.653,5.784l0.002,0.032c0.52,4.684,1.189,11.196,1.382,16.218c0.109,3.191,0.019,5.761-0.443,6.962
			C2629.423,1422.352,2622.148,1424.462,2622.148,1424.462z"/>
		<path style="fill:#363B39;" d="M2569.754,1434.431c-17.186,17.406-77.811,224.898-90.061,265.139
			c-6.391,20.993,34.823,18.932,46.857,11.906c12.034-7.025,64.371-157.677,66.923-167.803S2572.284,1431.869,2569.754,1434.431z"/>
		<path style="fill:#82ACB0;" d="M2415.515,1766.523c26.93,63.071,119.91,173.2,126.479,181.081
			c6.568,7.881,34.575-12.323,32.688-23.359s-39.129-82.37-86.734-168.12c-16.259-29.287-45.841-44.98-64.278-33.273
			C2410.575,1731.166,2412.254,1758.885,2415.515,1766.523z"/>
		<path style="fill:#F0DDD5;" d="M2630.146,1394.949c0.52,4.684,0.992,13.581,1.186,18.603c10.625-2.197,24.224-8.032,33.925-29.108
			l-33.067,5.814c0,0-0.951,1.961-2.046,4.658L2630.146,1394.949z"/>
		<path style="fill:#82ACB0;" d="M2638.066,1678.015c-82.959-5.668-196.284,32.088-212.699,43.385s39.512,46.121,58.04,47.665
			c56.581,4.715,129.967,2.031,172.055,0C2686.049,1767.589,2702.459,1682.414,2638.066,1678.015z"/>
		<path style="fill:#82ACB0;" d="M2683.608,1685.804c-27.784,57.494-94.377,174.819-98.135,192.577
			c-3.678,17.382,55.437,41.317,65.726,25.592c52.569-80.338,92.416-123.726,99.608-139.028
			c11.86-25.232,35.206-89.74-18.185-112.342C2679.232,1630.001,2683.608,1685.804,2683.608,1685.804z"/>
		<path style="fill:#E2A288;" d="M2607.736,1322.217c-4.497,24.751,2.708,69.842,8.642,74.059
			c15.604,11.089,51.58-11.922,56.105-17.811s12.878-34.071,5.771-54.968C2671.146,1302.6,2612.922,1293.673,2607.736,1322.217z"/>
		<path style="fill:#FFFFFF;" d="M2686.432,1417.953c-0.099-1.554,53.935,21.234,53.05,24.587
			c-0.885,3.353,20.86,216.763,18.509,234.102c-0.625,4.61-46.876,25.055-66.74,22.748c-15.961-1.854-61.674-5.732-72.918-23.563
			c-12.357-19.595-38.624-228.327-34.588-230.365c5.189-2.62,38.427-22.704,39.94-21.531s10.229,9.957,24.209,10.988
			S2687.131,1428.918,2686.432,1417.953z"/>
		<path style="fill:#363B39;" d="M2686.432,1417.953c0.302-2.516,60.231,9.318,62.047,11.95
			c1.816,2.631,2.396,108.053,4.187,136.141c1.791,28.088,30.59,133.521,32.716,138.147c2.126,4.626-69.886,19.683-70.67,13.141
			c-0.783-6.543-14.234-130.381-19.563-162.638C2689.821,1522.436,2685.938,1422.063,2686.432,1417.953z"/>
		<path style="fill:#363B39;" d="M2623.685,1423.93c-0.27-2.793-54.499,3.969-53.931,10.501
			c8.438,97.001,33.574,199.984,33.074,243.612c-0.096,8.386,15.853,3.254,15.504-2.217c-0.349-5.472,3.541-41.236,2.717-71.4
			S2624.302,1430.313,2623.685,1423.93z"/>
		<path style="fill:#010705;" d="M2671.649,1356.25c-3.685-1.997-8.994-8.41-7.85-15.17c1.144-6.76-2.445-19.131-9.475-22.358
			c-7.031-3.227-5.504,7.001-13.74,6.826c-8.236-0.175-19.267-13.997-24.407-12.269s-8.335,11.437-11.286,10.722
			c-2.951-0.715-22.488-8.129-6.479-25.865c3.375-3.74,13.084-8.884,16.41-14.346c3.327-5.462,12.238-11.28,24.232-8.37
			c11.995,2.91,16.811,12.578,29.319,13.881c12.508,1.303,23.573,7.422,23.139,17.075c-0.435,9.653,6.314,13.948,7.827,21.201
			c1.512,7.254-9.875,32.479-16.72,37.291C2675.773,1369.68,2671.649,1356.25,2671.649,1356.25z"/>
		<path style="fill:#E2A288;" d="M2668.324,1359.432c0.559-5.563,2.982-14.278,9.329-13.895s8.614,9.299,4.966,19.331
			c-3.648,10.033-8.257,12.134-10.181,12.292C2670.514,1377.317,2667.784,1364.8,2668.324,1359.432z"/>
		<path style="fill:#E2A288;" d="M2569.842,2117.885c0.918,10.595,1.627,22.855-3.466,28.764
			c-2.108,2.446,9.68,13.816,20.356,14.998c8.2,0.908,16.026-6.746,14.675-13.543c-2.408-12.111,1.337-34.674,1.337-34.674
			C2602.21,2104.258,2569.116,2109.512,2569.842,2117.885z"/>
		<path style="fill:#363B39;" d="M2512.254,2182.036c0.027,1.36,0.168,2.752,0.338,4.072c0.68,5.307,94.195,5.978,96.482,4.007
			c0.494-0.42,0.704-2.651,0.66-5.875l0.001-0.018c-0.129-11.793-3.531-36.876-8.328-36.121c-2.67,0.431-4.475,7.085-7.027,10.192
			c-2.552,3.107-14.324-1.283-14.845-4.977c-0.521-3.694-12.183-13.138-14.092-9.23c-5.602,11.472-43.445,27.495-48.584,28.888
			C2512.997,2174.016,2512.148,2177.91,2512.254,2182.036z"/>
		<path style="fill:#82ACB0;" d="M2585.473,1878.381c-13.299,50.892-21.198,230.712-19.462,244.85
			c1.736,14.137,38.455,11.816,43.177,4.35c4.721-7.466,46.248-177.804,45.843-237.024
			C2654.771,1852.556,2585.473,1878.381,2585.473,1878.381z"/>
		<path style="fill:#363B39;" d="M2722.07,1611.453c-11.063,16.419,20.603,64.714,49.804,35.761
			c23.91-23.706,13.001-112.061,9.177-128.805c-6.3-27.581-16.644-87.13-38.354-90.638
			C2728.153,1425.422,2752.667,1566.043,2722.07,1611.453z"/>
		<g>
			<path style="fill:#E2A288;" d="M2612.004,1748.359c-5.625,3.524-15.031,8.831-17.968,11.456
				c-2.938,2.626,6.464,3.425,8.962,3.272c2.498-0.153,18.663,6.228,22.531,5.912c3.868-0.316,4.895-1.682,14.404-7.081
				c9.508-5.4-11.417-12.004-14.811-12.72C2621.729,1748.482,2612.004,1748.359,2612.004,1748.359z"/>
			<path style="fill:#E2A288;" d="M2654.749,1711.477c-4.922,3.86-11.745,6.636-15.293,7.839
				c-3.548,1.203-12.915,5.501-19.087,11.521c-6.172,6.02-8.122,3.856-12.913,8.618c-4.791,4.761-20.272,16.558-19.739,18.458
				c0.534,1.9,1.608,4.036,10.101-1.4c8.493-5.437,10.868-5.714,12.844-4.427c1.977,1.288,6.168,8.082,10.538,9.616
				c4.37,1.534,5.018,0.744,11.096,1.028s12.964-1.345,16.747-7.54s11.056-16.962,14.786-20.292
				c3.73-3.33,18.547-3.159,12.269-10.09C2669.82,1717.878,2654.749,1711.477,2654.749,1711.477z"/>
			<path style="fill:#E2A288;" d="M2640.107,1718.109c-8.774-0.901-19.642,2.989-26.888,7.762s-15.948,10.765-14.882,12.007
				c1.066,1.242,4.369,2.132,6.877,0.369c2.508-1.764,9.835-7.384,14.597-6.375c4.762,1.009,6.474,1.854,11.855-3.329
				C2637.048,1723.359,2646.228,1718.738,2640.107,1718.109z"/>
		</g>
		<path style="fill:#363B39;" d="M2726.196,1607.387c-23.196,21.756-80.398,96.842-85.956,101.338
			c-5.558,4.496,20.573,32.497,25.037,30.526c4.465-1.971,95.787-76.932,108.655-94.59S2757.834,1577.713,2726.196,1607.387z"/>
		<path style="fill:#010705;" d="M2640.24,1710.561c-0.413,0-0.825-0.136-1.167-0.416c-0.782-0.646-0.897-1.802-0.255-2.588
			c3.015-3.668,73.265-89.121,93.579-106.955l0.51-86.523c0.007-1.012,0.829-1.827,1.838-1.827c0.003,0,0.007,0,0.011,0
			c1.016,0.007,1.834,0.833,1.827,1.848l-0.517,88.199l-0.642,0.546c-19.183,16.323-93.019,106.14-93.762,107.044
			C2641.295,1710.331,2640.771,1710.561,2640.24,1710.561z"/>
	</g>
	<path style="fill:#979998;" d="M3390.051,2284.185c0,12.863-4.08,24.476-10.585,32.892c-6.578,8.416-15.655,13.635-25.652,13.635
		H246.149c-19.993,0-36.2-20.838-36.2-46.527c0-12.863,4.043-24.513,10.585-32.929c6.579-8.416,15.656-13.598,25.615-13.598
		h3107.665C3373.844,2237.659,3390.051,2258.497,3390.051,2284.185z"/>
</g>
</svg>
